<svg xmlns="http://www.w3.org/2000/svg" width="820" height="180" viewBox="0 0 820 180">

<style>
  :root {
    --bg:        #f6f8fa;
    --card:      #ffffff;
    --border:    #d0d7de;
    --primary:   #1f2328;
    --secondary: #636c76;
    --muted:     #8c959f;
    --accent:    #0969da;
    --green:     #1a7f37;
    --yellow:    #9a6700;
    --red:       #cf222e;
    --hover:     #f3f4f6;
    --spark-bg:  #f0f3f6;
    --spark:     #0969da;
    --pill:      #eaf1fb;
    --pill-txt:  #0969da;
    --div:       #d0d7de;
  }
  @media (prefers-color-scheme: dark) {
    :root {
      --bg:        #0d1117;
      --card:      #161b22;
      --border:    #30363d;
      --primary:   #e6edf3;
      --secondary: #848d97;
      --muted:     #7d8590;
      --accent:    #2f81f7;
      --green:     #3fb950;
      --yellow:    #d29922;
      --red:       #f85149;
      --hover:     #21262d;
      --spark-bg:  #1c2128;
      --spark:     #58a6ff;
      --pill:      #1c2d3f;
      --pill-txt:  #58a6ff;
      --div:       #30363d;
    }
  }
  
  .bg          { fill: var(--bg); }
  .card        { fill: var(--card); stroke: var(--border); stroke-width: 1; }
  .lang-pill   { fill: var(--pill); }
  .spark-bg    { fill: var(--spark-bg); }
  .spark-line  { stroke: var(--spark); }
  .divider     { stroke: var(--div); stroke-width: 1; }
  .clr-primary   { fill: var(--primary); }
  .clr-secondary { fill: var(--secondary); }
  .clr-muted     { fill: var(--muted); }
  .clr-accent    { fill: var(--accent); }
  .clr-green     { fill: var(--green); }
  .clr-yellow    { fill: var(--yellow); }
  .clr-red       { fill: var(--red); }
  .txt-bold    { font-weight: 600; }
  svg text     { font-family: -apple-system, BlinkMacSystemFont, "Segoe UI", Helvetica, Arial, sans-serif; }
</style>

<rect x="0" y="0" width="820" height="180" rx="8" class="card"/>
  <text x="20" y="24" class="clr-primary txt-bold" text-anchor="start" font-size="14">Contribution History &amp; Activity</text>
  <line x1="20" y1="36" x2="800" y2="36" class="divider"/>
  <text x="20" y="60" class="clr-muted" text-anchor="start" font-size="12">Years Active:</text>
  <text x="100" y="60" class="clr-primary txt-bold" text-anchor="start" font-size="12">5.6</text>
  <text x="160" y="60" class="clr-muted" text-anchor="start" font-size="12">Commits (Last Year):</text>
  <text x="290" y="60" class="clr-primary txt-bold" text-anchor="start" font-size="12">1066</text>
  <text x="360" y="60" class="clr-muted" text-anchor="start" font-size="12">Highest Daily:</text>
  <text x="450" y="60" class="clr-primary txt-bold" text-anchor="start" font-size="12">163</text>
  <polygon points="20,160 20,160 22.137,160 24.274,160 26.411,160 28.5479,160 30.6849,160 32.8219,153.62 34.9589,160 37.0959,160 39.2329,160 41.3699,154.11 43.5068,157.055 45.6438,160 47.7808,160 49.9178,160 52.0548,160 54.1918,160 56.3288,160 58.4658,159.018 60.6027,160 62.7397,160 64.8767,160 67.0137,160 69.1507,160 71.2877,160 73.4247,160 75.5616,160 77.6986,160 79.8356,160 81.9726,160 84.1096,160 86.2466,160 88.3836,160 90.5205,160 92.6575,160 94.7945,160 96.9315,160 99.0685,160 101.205,160 103.342,160 105.479,160 107.616,160 109.753,160 111.89,160 114.027,160 116.164,160 118.301,160 120.438,160 122.575,160 124.712,160 126.849,160 128.986,160 131.123,160 133.26,159.509 135.397,160 137.534,160 139.671,160 141.808,160 143.945,160 146.082,160 148.219,160 150.356,160 152.493,160 154.63,160 156.767,160 158.904,160 161.041,160 163.178,160 165.315,160 167.452,160 169.589,160 171.726,160 173.863,160 176,160 178.137,160 180.274,160 182.411,160 184.548,160 186.685,160 188.822,159.018 190.959,160 193.096,160 195.233,160 197.37,145.276 199.507,155.583 201.644,157.546 203.781,155.583 205.918,157.055 208.055,156.074 210.192,160 212.329,160 214.466,160 216.603,158.037 218.74,159.018 220.877,158.037 223.014,156.564 225.151,160 227.288,158.528 229.425,156.564 231.562,160 233.699,154.11 235.836,149.202 237.973,149.202 240.11,153.62 242.247,141.84 244.384,154.601 246.521,160 248.658,154.601 250.795,160 252.932,160 255.068,157.546 257.205,148.221 259.342,159.018 261.479,160 263.616,158.037 265.753,160 267.89,159.509 270.027,160 272.164,160 274.301,160 276.438,160 278.575,151.656 280.712,155.583 282.849,156.074 284.986,157.546 287.123,150.675 289.26,160 291.397,158.037 293.534,156.564 295.671,158.037 297.808,156.074 299.945,160 302.082,154.11 304.219,160 306.356,159.509 308.493,160 310.63,160 312.767,157.546 314.904,160 317.041,160 319.178,160 321.315,160 323.452,160 325.589,160 327.726,160 329.863,160 332,160 334.137,160 336.274,160 338.411,160 340.548,160 342.685,160 344.822,160 346.959,160 349.096,154.601 351.233,158.037 353.37,160 355.507,160 357.644,160 359.781,160 361.918,160 364.055,160 366.192,160 368.329,160 370.466,160 372.603,160 374.74,160 376.877,160 379.014,160 381.151,160 383.288,160 385.425,160 387.562,160 389.699,160 391.836,160 393.973,160 396.11,160 398.247,157.055 400.384,160 402.521,160 404.658,160 406.795,160 408.932,155.092 411.068,160 413.205,160 415.342,160 417.479,160 419.616,137.423 421.753,153.62 423.89,80 426.027,155.092 428.164,149.202 430.301,155.092 432.438,158.037 434.575,158.528 436.712,159.509 438.849,156.074 440.986,160 443.123,159.018 445.26,160 447.397,159.509 449.534,159.018 451.671,159.509 453.808,160 455.945,158.528 458.082,160 460.219,159.018 462.356,159.018 464.493,157.546 466.63,157.055 468.767,160 470.904,160 473.041,159.509 475.178,159.509 477.315,158.528 479.452,159.509 481.589,157.055 483.726,157.055 485.863,159.018 488,158.528 490.137,147.239 492.274,157.055 494.411,129.08 496.548,147.239 498.685,153.129 500.822,160 502.959,160 505.096,160 507.233,151.656 509.37,158.528 511.507,160 513.644,160 515.781,138.405 517.918,158.528 520.055,160 522.192,160 524.329,160 526.466,160 528.603,160 530.74,160 532.877,160 535.014,160 537.151,160 539.288,160 541.425,160 543.562,160 545.699,160 547.836,160 549.973,160 552.11,159.509 554.247,160 556.384,160 558.521,160 560.658,160 562.795,160 564.932,160 567.068,160 569.205,160 571.342,160 573.479,159.509 575.616,158.037 577.753,160 579.89,160 582.027,160 584.164,160 586.301,160 588.438,160 590.575,160 592.712,160 594.849,160 596.986,160 599.123,160 601.26,159.509 603.397,158.037 605.534,157.055 607.671,160 609.808,160 611.945,160 614.082,156.564 616.219,157.546 618.356,147.239 620.493,160 622.63,160 624.767,160 626.904,155.092 629.041,148.221 631.178,160 633.315,160 635.452,158.037 637.589,160 639.726,158.037 641.863,160 644,160 646.137,160 648.274,160 650.411,160 652.548,160 654.685,159.018 656.822,144.294 658.959,159.018 661.096,160 663.233,139.387 665.37,121.718 667.507,120.736 669.644,147.73 671.781,146.258 673.918,157.055 676.055,160 678.192,160 680.329,160 682.466,160 684.603,160 686.74,160 688.877,160 691.014,160 693.151,157.546 695.288,153.62 697.425,148.712 699.562,160 701.699,149.202 703.836,149.693 705.973,134.969 708.11,146.258 710.247,145.767 712.384,146.258 714.521,150.184 716.658,154.11 718.795,154.601 720.932,154.11 723.068,157.055 725.205,156.564 727.342,159.509 729.479,160 731.616,160 733.753,160 735.89,160 738.027,160 740.164,160 742.301,160 744.438,160 746.575,158.528 748.712,159.509 750.849,160 752.986,160 755.123,159.509 757.26,142.331 759.397,144.785 761.534,157.055 763.671,158.528 765.808,160 767.945,160 770.082,159.509 772.219,160 774.356,160 776.493,159.018 778.63,153.62 780.767,159.018 782.904,160 785.041,160 787.178,149.693 789.315,155.583 791.452,158.528 793.589,156.074 795.726,155.583 797.863,159.509 800,160 800,160" fill="var(--pill)" opacity="0.6"/>
  <polyline points="20,160 22.137,160 24.274,160 26.411,160 28.5479,160 30.6849,160 32.8219,153.62 34.9589,160 37.0959,160 39.2329,160 41.3699,154.11 43.5068,157.055 45.6438,160 47.7808,160 49.9178,160 52.0548,160 54.1918,160 56.3288,160 58.4658,159.018 60.6027,160 62.7397,160 64.8767,160 67.0137,160 69.1507,160 71.2877,160 73.4247,160 75.5616,160 77.6986,160 79.8356,160 81.9726,160 84.1096,160 86.2466,160 88.3836,160 90.5205,160 92.6575,160 94.7945,160 96.9315,160 99.0685,160 101.205,160 103.342,160 105.479,160 107.616,160 109.753,160 111.89,160 114.027,160 116.164,160 118.301,160 120.438,160 122.575,160 124.712,160 126.849,160 128.986,160 131.123,160 133.26,159.509 135.397,160 137.534,160 139.671,160 141.808,160 143.945,160 146.082,160 148.219,160 150.356,160 152.493,160 154.63,160 156.767,160 158.904,160 161.041,160 163.178,160 165.315,160 167.452,160 169.589,160 171.726,160 173.863,160 176,160 178.137,160 180.274,160 182.411,160 184.548,160 186.685,160 188.822,159.018 190.959,160 193.096,160 195.233,160 197.37,145.276 199.507,155.583 201.644,157.546 203.781,155.583 205.918,157.055 208.055,156.074 210.192,160 212.329,160 214.466,160 216.603,158.037 218.74,159.018 220.877,158.037 223.014,156.564 225.151,160 227.288,158.528 229.425,156.564 231.562,160 233.699,154.11 235.836,149.202 237.973,149.202 240.11,153.62 242.247,141.84 244.384,154.601 246.521,160 248.658,154.601 250.795,160 252.932,160 255.068,157.546 257.205,148.221 259.342,159.018 261.479,160 263.616,158.037 265.753,160 267.89,159.509 270.027,160 272.164,160 274.301,160 276.438,160 278.575,151.656 280.712,155.583 282.849,156.074 284.986,157.546 287.123,150.675 289.26,160 291.397,158.037 293.534,156.564 295.671,158.037 297.808,156.074 299.945,160 302.082,154.11 304.219,160 306.356,159.509 308.493,160 310.63,160 312.767,157.546 314.904,160 317.041,160 319.178,160 321.315,160 323.452,160 325.589,160 327.726,160 329.863,160 332,160 334.137,160 336.274,160 338.411,160 340.548,160 342.685,160 344.822,160 346.959,160 349.096,154.601 351.233,158.037 353.37,160 355.507,160 357.644,160 359.781,160 361.918,160 364.055,160 366.192,160 368.329,160 370.466,160 372.603,160 374.74,160 376.877,160 379.014,160 381.151,160 383.288,160 385.425,160 387.562,160 389.699,160 391.836,160 393.973,160 396.11,160 398.247,157.055 400.384,160 402.521,160 404.658,160 406.795,160 408.932,155.092 411.068,160 413.205,160 415.342,160 417.479,160 419.616,137.423 421.753,153.62 423.89,80 426.027,155.092 428.164,149.202 430.301,155.092 432.438,158.037 434.575,158.528 436.712,159.509 438.849,156.074 440.986,160 443.123,159.018 445.26,160 447.397,159.509 449.534,159.018 451.671,159.509 453.808,160 455.945,158.528 458.082,160 460.219,159.018 462.356,159.018 464.493,157.546 466.63,157.055 468.767,160 470.904,160 473.041,159.509 475.178,159.509 477.315,158.528 479.452,159.509 481.589,157.055 483.726,157.055 485.863,159.018 488,158.528 490.137,147.239 492.274,157.055 494.411,129.08 496.548,147.239 498.685,153.129 500.822,160 502.959,160 505.096,160 507.233,151.656 509.37,158.528 511.507,160 513.644,160 515.781,138.405 517.918,158.528 520.055,160 522.192,160 524.329,160 526.466,160 528.603,160 530.74,160 532.877,160 535.014,160 537.151,160 539.288,160 541.425,160 543.562,160 545.699,160 547.836,160 549.973,160 552.11,159.509 554.247,160 556.384,160 558.521,160 560.658,160 562.795,160 564.932,160 567.068,160 569.205,160 571.342,160 573.479,159.509 575.616,158.037 577.753,160 579.89,160 582.027,160 584.164,160 586.301,160 588.438,160 590.575,160 592.712,160 594.849,160 596.986,160 599.123,160 601.26,159.509 603.397,158.037 605.534,157.055 607.671,160 609.808,160 611.945,160 614.082,156.564 616.219,157.546 618.356,147.239 620.493,160 622.63,160 624.767,160 626.904,155.092 629.041,148.221 631.178,160 633.315,160 635.452,158.037 637.589,160 639.726,158.037 641.863,160 644,160 646.137,160 648.274,160 650.411,160 652.548,160 654.685,159.018 656.822,144.294 658.959,159.018 661.096,160 663.233,139.387 665.37,121.718 667.507,120.736 669.644,147.73 671.781,146.258 673.918,157.055 676.055,160 678.192,160 680.329,160 682.466,160 684.603,160 686.74,160 688.877,160 691.014,160 693.151,157.546 695.288,153.62 697.425,148.712 699.562,160 701.699,149.202 703.836,149.693 705.973,134.969 708.11,146.258 710.247,145.767 712.384,146.258 714.521,150.184 716.658,154.11 718.795,154.601 720.932,154.11 723.068,157.055 725.205,156.564 727.342,159.509 729.479,160 731.616,160 733.753,160 735.89,160 738.027,160 740.164,160 742.301,160 744.438,160 746.575,158.528 748.712,159.509 750.849,160 752.986,160 755.123,159.509 757.26,142.331 759.397,144.785 761.534,157.055 763.671,158.528 765.808,160 767.945,160 770.082,159.509 772.219,160 774.356,160 776.493,159.018 778.63,153.62 780.767,159.018 782.904,160 785.041,160 787.178,149.693 789.315,155.583 791.452,158.528 793.589,156.074 795.726,155.583 797.863,159.509 800,160" fill="none" stroke="var(--accent)" stroke-width="1.5" stroke-linecap="round" stroke-linejoin="round"/>
</svg>

