<svg xmlns="http://www.w3.org/2000/svg" width="820" height="180" viewBox="0 0 820 180">

<style>
  :root {
    --bg:        #f6f8fa;
    --card:      #ffffff;
    --border:    #d0d7de;
    --primary:   #1f2328;
    --secondary: #636c76;
    --muted:     #8c959f;
    --accent:    #0969da;
    --green:     #1a7f37;
    --yellow:    #9a6700;
    --red:       #cf222e;
    --hover:     #f3f4f6;
    --spark-bg:  #f0f3f6;
    --spark:     #0969da;
    --pill:      #eaf1fb;
    --pill-txt:  #0969da;
    --div:       #d0d7de;
  }
  @media (prefers-color-scheme: dark) {
    :root {
      --bg:        #0d1117;
      --card:      #161b22;
      --border:    #30363d;
      --primary:   #e6edf3;
      --secondary: #848d97;
      --muted:     #7d8590;
      --accent:    #2f81f7;
      --green:     #3fb950;
      --yellow:    #d29922;
      --red:       #f85149;
      --hover:     #21262d;
      --spark-bg:  #1c2128;
      --spark:     #58a6ff;
      --pill:      #1c2d3f;
      --pill-txt:  #58a6ff;
      --div:       #30363d;
    }
  }
  
  .bg          { fill: var(--bg); }
  .card        { fill: var(--card); stroke: var(--border); stroke-width: 1; }
  .lang-pill   { fill: var(--pill); }
  .spark-bg    { fill: var(--spark-bg); }
  .spark-line  { stroke: var(--spark); }
  .divider     { stroke: var(--div); stroke-width: 1; }
  .clr-primary   { fill: var(--primary); }
  .clr-secondary { fill: var(--secondary); }
  .clr-muted     { fill: var(--muted); }
  .clr-accent    { fill: var(--accent); }
  .clr-green     { fill: var(--green); }
  .clr-yellow    { fill: var(--yellow); }
  .clr-red       { fill: var(--red); }
  .txt-bold    { font-weight: 600; }
  svg text     { font-family: -apple-system, BlinkMacSystemFont, "Segoe UI", Helvetica, Arial, sans-serif; }
</style>

<rect x="0" y="0" width="820" height="180" rx="8" class="card"/>
  <text x="20" y="24" class="clr-primary txt-bold" text-anchor="start" font-size="14">Contribution History &amp; Activity</text>
  <line x1="20" y1="36" x2="800" y2="36" class="divider"/>
  <text x="20" y="60" class="clr-muted" text-anchor="start" font-size="12">Years Active:</text>
  <text x="100" y="60" class="clr-primary txt-bold" text-anchor="start" font-size="12">5.7</text>
  <text x="160" y="60" class="clr-muted" text-anchor="start" font-size="12">Commits (Last Year):</text>
  <text x="290" y="60" class="clr-primary txt-bold" text-anchor="start" font-size="12">1191</text>
  <text x="360" y="60" class="clr-muted" text-anchor="start" font-size="12">Highest Daily:</text>
  <text x="450" y="60" class="clr-primary txt-bold" text-anchor="start" font-size="12">163</text>
  <polygon points="20,160 20,160 22.1081,160 24.2162,160 26.3243,160 28.4324,160 30.5405,160 32.6486,160 34.7568,160 36.8649,160 38.973,160 41.0811,160 43.1892,159.509 45.2973,160 47.4054,160 49.5135,160 51.6216,160 53.7297,160 55.8378,160 57.9459,160 60.0541,160 62.1622,160 64.2703,160 66.3784,160 68.4865,160 70.5946,160 72.7027,160 74.8108,160 76.9189,160 79.027,160 81.1351,160 83.2432,160 85.3514,160 87.4595,160 89.5676,160 91.6757,160 93.7838,160 95.8919,160 98,159.018 100.108,160 102.216,160 104.324,160 106.432,145.276 108.541,155.583 110.649,157.546 112.757,155.583 114.865,157.055 116.973,156.074 119.081,160 121.189,160 123.297,160 125.405,158.037 127.514,159.018 129.622,158.037 131.73,156.564 133.838,160 135.946,158.528 138.054,156.564 140.162,160 142.27,154.11 144.378,149.202 146.486,149.202 148.595,153.62 150.703,141.84 152.811,154.601 154.919,160 157.027,154.601 159.135,160 161.243,160 163.351,157.546 165.459,148.221 167.568,159.018 169.676,160 171.784,158.037 173.892,160 176,159.509 178.108,160 180.216,160 182.324,160 184.432,160 186.541,151.656 188.649,155.583 190.757,156.074 192.865,157.546 194.973,150.675 197.081,160 199.189,158.037 201.297,156.564 203.405,158.037 205.514,156.074 207.622,160 209.73,154.11 211.838,160 213.946,159.509 216.054,160 218.162,160 220.27,157.546 222.378,160 224.486,160 226.595,160 228.703,160 230.811,160 232.919,160 235.027,160 237.135,160 239.243,160 241.351,160 243.459,160 245.568,160 247.676,160 249.784,160 251.892,160 254,160 256.108,154.601 258.216,158.037 260.324,160 262.432,160 264.541,160 266.649,160 268.757,160 270.865,160 272.973,160 275.081,160 277.189,160 279.297,160 281.405,160 283.514,160 285.622,160 287.73,160 289.838,160 291.946,160 294.054,160 296.162,160 298.27,160 300.378,160 302.486,160 304.595,157.055 306.703,160 308.811,160 310.919,160 313.027,160 315.135,155.092 317.243,160 319.351,160 321.459,160 323.568,160 325.676,137.423 327.784,153.62 329.892,80 332,155.092 334.108,149.202 336.216,155.092 338.324,158.037 340.432,158.528 342.541,159.509 344.649,156.074 346.757,160 348.865,159.018 350.973,160 353.081,159.509 355.189,159.018 357.297,159.509 359.405,160 361.514,158.528 363.622,160 365.73,159.018 367.838,159.018 369.946,157.546 372.054,157.055 374.162,160 376.27,160 378.378,159.509 380.486,159.509 382.595,158.528 384.703,159.509 386.811,157.055 388.919,157.055 391.027,159.018 393.135,158.528 395.243,147.239 397.351,157.055 399.459,129.08 401.568,147.239 403.676,153.129 405.784,160 407.892,160 410,160 412.108,151.656 414.216,158.528 416.324,160 418.432,160 420.541,138.405 422.649,158.528 424.757,160 426.865,160 428.973,160 431.081,160 433.189,160 435.297,160 437.405,160 439.514,160 441.622,160 443.73,160 445.838,160 447.946,160 450.054,160 452.162,160 454.27,160 456.378,159.509 458.486,160 460.595,160 462.703,160 464.811,160 466.919,160 469.027,160 471.135,160 473.243,160 475.351,160 477.459,159.509 479.568,158.037 481.676,160 483.784,160 485.892,160 488,160 490.108,160 492.216,160 494.324,160 496.432,160 498.541,160 500.649,160 502.757,160 504.865,159.509 506.973,158.037 509.081,157.055 511.189,160 513.297,160 515.405,160 517.514,156.564 519.622,157.546 521.73,147.239 523.838,160 525.946,160 528.054,160 530.162,155.092 532.27,148.221 534.378,160 536.486,160 538.595,158.037 540.703,160 542.811,158.037 544.919,160 547.027,160 549.135,160 551.243,160 553.351,160 555.459,160 557.568,159.018 559.676,144.294 561.784,159.018 563.892,160 566,139.387 568.108,121.718 570.216,120.736 572.324,147.73 574.432,146.258 576.541,157.055 578.649,160 580.757,160 582.865,160 584.973,160 587.081,160 589.189,160 591.297,160 593.405,160 595.514,157.546 597.622,153.62 599.73,148.712 601.838,160 603.946,149.202 606.054,149.693 608.162,134.969 610.27,146.258 612.378,145.767 614.486,146.258 616.595,150.184 618.703,154.11 620.811,154.601 622.919,154.11 625.027,157.055 627.135,156.564 629.243,159.509 631.351,160 633.459,160 635.568,160 637.676,160 639.784,160 641.892,160 644,160 646.108,160 648.216,158.528 650.324,159.509 652.432,160 654.541,160 656.649,159.509 658.757,142.331 660.865,144.785 662.973,157.055 665.081,158.528 667.189,160 669.297,160 671.405,159.509 673.514,160 675.622,160 677.73,159.018 679.838,153.62 681.946,159.018 684.054,160 686.162,160 688.27,149.693 690.378,155.583 692.486,158.528 694.595,156.074 696.703,155.583 698.811,159.509 700.919,159.509 703.027,160 705.135,160 707.243,151.656 709.351,140.859 711.459,155.092 713.568,160 715.676,141.84 717.784,150.184 719.892,152.147 722,160 724.108,160 726.216,160 728.324,160 730.432,160 732.541,160 734.649,160 736.757,160 738.865,160 740.973,160 743.081,160 745.189,160 747.297,158.037 749.405,160 751.514,160 753.622,160 755.73,160 757.838,160 759.946,160 762.054,160 764.162,160 766.27,160 768.378,160 770.486,160 772.595,160 774.703,160 776.811,160 778.919,156.564 781.027,154.601 783.135,160 785.243,160 787.351,160 789.459,160 791.568,159.509 793.676,160 795.784,160 797.892,159.509 800,160 800,160" fill="var(--pill)" opacity="0.6"/>
  <polyline points="20,160 22.1081,160 24.2162,160 26.3243,160 28.4324,160 30.5405,160 32.6486,160 34.7568,160 36.8649,160 38.973,160 41.0811,160 43.1892,159.509 45.2973,160 47.4054,160 49.5135,160 51.6216,160 53.7297,160 55.8378,160 57.9459,160 60.0541,160 62.1622,160 64.2703,160 66.3784,160 68.4865,160 70.5946,160 72.7027,160 74.8108,160 76.9189,160 79.027,160 81.1351,160 83.2432,160 85.3514,160 87.4595,160 89.5676,160 91.6757,160 93.7838,160 95.8919,160 98,159.018 100.108,160 102.216,160 104.324,160 106.432,145.276 108.541,155.583 110.649,157.546 112.757,155.583 114.865,157.055 116.973,156.074 119.081,160 121.189,160 123.297,160 125.405,158.037 127.514,159.018 129.622,158.037 131.73,156.564 133.838,160 135.946,158.528 138.054,156.564 140.162,160 142.27,154.11 144.378,149.202 146.486,149.202 148.595,153.62 150.703,141.84 152.811,154.601 154.919,160 157.027,154.601 159.135,160 161.243,160 163.351,157.546 165.459,148.221 167.568,159.018 169.676,160 171.784,158.037 173.892,160 176,159.509 178.108,160 180.216,160 182.324,160 184.432,160 186.541,151.656 188.649,155.583 190.757,156.074 192.865,157.546 194.973,150.675 197.081,160 199.189,158.037 201.297,156.564 203.405,158.037 205.514,156.074 207.622,160 209.73,154.11 211.838,160 213.946,159.509 216.054,160 218.162,160 220.27,157.546 222.378,160 224.486,160 226.595,160 228.703,160 230.811,160 232.919,160 235.027,160 237.135,160 239.243,160 241.351,160 243.459,160 245.568,160 247.676,160 249.784,160 251.892,160 254,160 256.108,154.601 258.216,158.037 260.324,160 262.432,160 264.541,160 266.649,160 268.757,160 270.865,160 272.973,160 275.081,160 277.189,160 279.297,160 281.405,160 283.514,160 285.622,160 287.73,160 289.838,160 291.946,160 294.054,160 296.162,160 298.27,160 300.378,160 302.486,160 304.595,157.055 306.703,160 308.811,160 310.919,160 313.027,160 315.135,155.092 317.243,160 319.351,160 321.459,160 323.568,160 325.676,137.423 327.784,153.62 329.892,80 332,155.092 334.108,149.202 336.216,155.092 338.324,158.037 340.432,158.528 342.541,159.509 344.649,156.074 346.757,160 348.865,159.018 350.973,160 353.081,159.509 355.189,159.018 357.297,159.509 359.405,160 361.514,158.528 363.622,160 365.73,159.018 367.838,159.018 369.946,157.546 372.054,157.055 374.162,160 376.27,160 378.378,159.509 380.486,159.509 382.595,158.528 384.703,159.509 386.811,157.055 388.919,157.055 391.027,159.018 393.135,158.528 395.243,147.239 397.351,157.055 399.459,129.08 401.568,147.239 403.676,153.129 405.784,160 407.892,160 410,160 412.108,151.656 414.216,158.528 416.324,160 418.432,160 420.541,138.405 422.649,158.528 424.757,160 426.865,160 428.973,160 431.081,160 433.189,160 435.297,160 437.405,160 439.514,160 441.622,160 443.73,160 445.838,160 447.946,160 450.054,160 452.162,160 454.27,160 456.378,159.509 458.486,160 460.595,160 462.703,160 464.811,160 466.919,160 469.027,160 471.135,160 473.243,160 475.351,160 477.459,159.509 479.568,158.037 481.676,160 483.784,160 485.892,160 488,160 490.108,160 492.216,160 494.324,160 496.432,160 498.541,160 500.649,160 502.757,160 504.865,159.509 506.973,158.037 509.081,157.055 511.189,160 513.297,160 515.405,160 517.514,156.564 519.622,157.546 521.73,147.239 523.838,160 525.946,160 528.054,160 530.162,155.092 532.27,148.221 534.378,160 536.486,160 538.595,158.037 540.703,160 542.811,158.037 544.919,160 547.027,160 549.135,160 551.243,160 553.351,160 555.459,160 557.568,159.018 559.676,144.294 561.784,159.018 563.892,160 566,139.387 568.108,121.718 570.216,120.736 572.324,147.73 574.432,146.258 576.541,157.055 578.649,160 580.757,160 582.865,160 584.973,160 587.081,160 589.189,160 591.297,160 593.405,160 595.514,157.546 597.622,153.62 599.73,148.712 601.838,160 603.946,149.202 606.054,149.693 608.162,134.969 610.27,146.258 612.378,145.767 614.486,146.258 616.595,150.184 618.703,154.11 620.811,154.601 622.919,154.11 625.027,157.055 627.135,156.564 629.243,159.509 631.351,160 633.459,160 635.568,160 637.676,160 639.784,160 641.892,160 644,160 646.108,160 648.216,158.528 650.324,159.509 652.432,160 654.541,160 656.649,159.509 658.757,142.331 660.865,144.785 662.973,157.055 665.081,158.528 667.189,160 669.297,160 671.405,159.509 673.514,160 675.622,160 677.73,159.018 679.838,153.62 681.946,159.018 684.054,160 686.162,160 688.27,149.693 690.378,155.583 692.486,158.528 694.595,156.074 696.703,155.583 698.811,159.509 700.919,159.509 703.027,160 705.135,160 707.243,151.656 709.351,140.859 711.459,155.092 713.568,160 715.676,141.84 717.784,150.184 719.892,152.147 722,160 724.108,160 726.216,160 728.324,160 730.432,160 732.541,160 734.649,160 736.757,160 738.865,160 740.973,160 743.081,160 745.189,160 747.297,158.037 749.405,160 751.514,160 753.622,160 755.73,160 757.838,160 759.946,160 762.054,160 764.162,160 766.27,160 768.378,160 770.486,160 772.595,160 774.703,160 776.811,160 778.919,156.564 781.027,154.601 783.135,160 785.243,160 787.351,160 789.459,160 791.568,159.509 793.676,160 795.784,160 797.892,159.509 800,160" fill="none" stroke="var(--accent)" stroke-width="1.5" stroke-linecap="round" stroke-linejoin="round"/>
</svg>

