<svg xmlns="http://www.w3.org/2000/svg" width="820" height="180" viewBox="0 0 820 180">

<style>
  :root {
    --bg:        #f6f8fa;
    --card:      #ffffff;
    --border:    #d0d7de;
    --primary:   #1f2328;
    --secondary: #636c76;
    --muted:     #8c959f;
    --accent:    #0969da;
    --green:     #1a7f37;
    --yellow:    #9a6700;
    --red:       #cf222e;
    --hover:     #f3f4f6;
    --spark-bg:  #f0f3f6;
    --spark:     #0969da;
    --pill:      #eaf1fb;
    --pill-txt:  #0969da;
    --div:       #d0d7de;
  }
  @media (prefers-color-scheme: dark) {
    :root {
      --bg:        #0d1117;
      --card:      #161b22;
      --border:    #30363d;
      --primary:   #e6edf3;
      --secondary: #848d97;
      --muted:     #7d8590;
      --accent:    #2f81f7;
      --green:     #3fb950;
      --yellow:    #d29922;
      --red:       #f85149;
      --hover:     #21262d;
      --spark-bg:  #1c2128;
      --spark:     #58a6ff;
      --pill:      #1c2d3f;
      --pill-txt:  #58a6ff;
      --div:       #30363d;
    }
  }
  
  .bg          { fill: var(--bg); }
  .card        { fill: var(--card); stroke: var(--border); stroke-width: 1; }
  .lang-pill   { fill: var(--pill); }
  .spark-bg    { fill: var(--spark-bg); }
  .spark-line  { stroke: var(--spark); }
  .divider     { stroke: var(--div); stroke-width: 1; }
  .clr-primary   { fill: var(--primary); }
  .clr-secondary { fill: var(--secondary); }
  .clr-muted     { fill: var(--muted); }
  .clr-accent    { fill: var(--accent); }
  .clr-green     { fill: var(--green); }
  .clr-yellow    { fill: var(--yellow); }
  .clr-red       { fill: var(--red); }
  .txt-bold    { font-weight: 600; }
  svg text     { font-family: -apple-system, BlinkMacSystemFont, "Segoe UI", Helvetica, Arial, sans-serif; }
</style>

<rect x="0" y="0" width="820" height="180" rx="8" class="card"/>
  <text x="20" y="24" class="clr-primary txt-bold" text-anchor="start" font-size="14">Contribution History &amp; Activity</text>
  <line x1="20" y1="36" x2="800" y2="36" class="divider"/>
  <text x="20" y="60" class="clr-muted" text-anchor="start" font-size="12">Years Active:</text>
  <text x="100" y="60" class="clr-primary txt-bold" text-anchor="start" font-size="12">5.7</text>
  <text x="160" y="60" class="clr-muted" text-anchor="start" font-size="12">Commits (Last Year):</text>
  <text x="290" y="60" class="clr-primary txt-bold" text-anchor="start" font-size="12">1173</text>
  <text x="360" y="60" class="clr-muted" text-anchor="start" font-size="12">Highest Daily:</text>
  <text x="450" y="60" class="clr-primary txt-bold" text-anchor="start" font-size="12">163</text>
  <polygon points="20,160 20,160 22.1429,160 24.2857,160 26.4286,160 28.5714,160 30.7143,160 32.8571,160 35,160 37.1429,160 39.2857,160 41.4286,160 43.5714,160 45.7143,160 47.8571,160 50,160 52.1429,160 54.2857,160 56.4286,160 58.5714,159.509 60.7143,160 62.8571,160 65,160 67.1429,160 69.2857,160 71.4286,160 73.5714,160 75.7143,160 77.8571,160 80,160 82.1429,160 84.2857,160 86.4286,160 88.5714,160 90.7143,160 92.8571,160 95,160 97.1429,160 99.2857,160 101.429,160 103.571,160 105.714,160 107.857,160 110,160 112.143,160 114.286,159.018 116.429,160 118.571,160 120.714,160 122.857,145.276 125,155.583 127.143,157.546 129.286,155.583 131.429,157.055 133.571,156.074 135.714,160 137.857,160 140,160 142.143,158.037 144.286,159.018 146.429,158.037 148.571,156.564 150.714,160 152.857,158.528 155,156.564 157.143,160 159.286,154.11 161.429,149.202 163.571,149.202 165.714,153.62 167.857,141.84 170,154.601 172.143,160 174.286,154.601 176.429,160 178.571,160 180.714,157.546 182.857,148.221 185,159.018 187.143,160 189.286,158.037 191.429,160 193.571,159.509 195.714,160 197.857,160 200,160 202.143,160 204.286,151.656 206.429,155.583 208.571,156.074 210.714,157.546 212.857,150.675 215,160 217.143,158.037 219.286,156.564 221.429,158.037 223.571,156.074 225.714,160 227.857,154.11 230,160 232.143,159.509 234.286,160 236.429,160 238.571,157.546 240.714,160 242.857,160 245,160 247.143,160 249.286,160 251.429,160 253.571,160 255.714,160 257.857,160 260,160 262.143,160 264.286,160 266.429,160 268.571,160 270.714,160 272.857,160 275,154.601 277.143,158.037 279.286,160 281.429,160 283.571,160 285.714,160 287.857,160 290,160 292.143,160 294.286,160 296.429,160 298.571,160 300.714,160 302.857,160 305,160 307.143,160 309.286,160 311.429,160 313.571,160 315.714,160 317.857,160 320,160 322.143,160 324.286,157.055 326.429,160 328.571,160 330.714,160 332.857,160 335,155.092 337.143,160 339.286,160 341.429,160 343.571,160 345.714,137.423 347.857,153.62 350,80 352.143,155.092 354.286,149.202 356.429,155.092 358.571,158.037 360.714,158.528 362.857,159.509 365,156.074 367.143,160 369.286,159.018 371.429,160 373.571,159.509 375.714,159.018 377.857,159.509 380,160 382.143,158.528 384.286,160 386.429,159.018 388.571,159.018 390.714,157.546 392.857,157.055 395,160 397.143,160 399.286,159.509 401.429,159.509 403.571,158.528 405.714,159.509 407.857,157.055 410,157.055 412.143,159.018 414.286,158.528 416.429,147.239 418.571,157.055 420.714,129.08 422.857,147.239 425,153.129 427.143,160 429.286,160 431.429,160 433.571,151.656 435.714,158.528 437.857,160 440,160 442.143,138.405 444.286,158.528 446.429,160 448.571,160 450.714,160 452.857,160 455,160 457.143,160 459.286,160 461.429,160 463.571,160 465.714,160 467.857,160 470,160 472.143,160 474.286,160 476.429,160 478.571,159.509 480.714,160 482.857,160 485,160 487.143,160 489.286,160 491.429,160 493.571,160 495.714,160 497.857,160 500,159.509 502.143,158.037 504.286,160 506.429,160 508.571,160 510.714,160 512.857,160 515,160 517.143,160 519.286,160 521.429,160 523.571,160 525.714,160 527.857,159.509 530,158.037 532.143,157.055 534.286,160 536.429,160 538.571,160 540.714,156.564 542.857,157.546 545,147.239 547.143,160 549.286,160 551.429,160 553.571,155.092 555.714,148.221 557.857,160 560,160 562.143,158.037 564.286,160 566.429,158.037 568.571,160 570.714,160 572.857,160 575,160 577.143,160 579.286,160 581.429,159.018 583.571,144.294 585.714,159.018 587.857,160 590,139.387 592.143,121.718 594.286,120.736 596.429,147.73 598.571,146.258 600.714,157.055 602.857,160 605,160 607.143,160 609.286,160 611.429,160 613.571,160 615.714,160 617.857,160 620,157.546 622.143,153.62 624.286,148.712 626.429,160 628.571,149.202 630.714,149.693 632.857,134.969 635,146.258 637.143,145.767 639.286,146.258 641.429,150.184 643.571,154.11 645.714,154.601 647.857,154.11 650,157.055 652.143,156.564 654.286,159.509 656.429,160 658.571,160 660.714,160 662.857,160 665,160 667.143,160 669.286,160 671.429,160 673.571,158.528 675.714,159.509 677.857,160 680,160 682.143,159.509 684.286,142.331 686.429,144.785 688.571,157.055 690.714,158.528 692.857,160 695,160 697.143,159.509 699.286,160 701.429,160 703.571,159.018 705.714,153.62 707.857,159.018 710,160 712.143,160 714.286,149.693 716.429,155.583 718.571,158.528 720.714,156.074 722.857,155.583 725,159.509 727.143,159.509 729.286,160 731.429,160 733.571,151.656 735.714,140.859 737.857,155.092 740,160 742.143,141.84 744.286,150.184 746.429,152.147 748.571,160 750.714,160 752.857,160 755,160 757.143,160 759.286,160 761.429,160 763.571,160 765.714,160 767.857,160 770,160 772.143,160 774.286,158.037 776.429,160 778.571,160 780.714,160 782.857,160 785,160 787.143,160 789.286,160 791.429,160 793.571,160 795.714,160 797.857,160 800,160 800,160" fill="var(--pill)" opacity="0.6"/>
  <polyline points="20,160 22.1429,160 24.2857,160 26.4286,160 28.5714,160 30.7143,160 32.8571,160 35,160 37.1429,160 39.2857,160 41.4286,160 43.5714,160 45.7143,160 47.8571,160 50,160 52.1429,160 54.2857,160 56.4286,160 58.5714,159.509 60.7143,160 62.8571,160 65,160 67.1429,160 69.2857,160 71.4286,160 73.5714,160 75.7143,160 77.8571,160 80,160 82.1429,160 84.2857,160 86.4286,160 88.5714,160 90.7143,160 92.8571,160 95,160 97.1429,160 99.2857,160 101.429,160 103.571,160 105.714,160 107.857,160 110,160 112.143,160 114.286,159.018 116.429,160 118.571,160 120.714,160 122.857,145.276 125,155.583 127.143,157.546 129.286,155.583 131.429,157.055 133.571,156.074 135.714,160 137.857,160 140,160 142.143,158.037 144.286,159.018 146.429,158.037 148.571,156.564 150.714,160 152.857,158.528 155,156.564 157.143,160 159.286,154.11 161.429,149.202 163.571,149.202 165.714,153.62 167.857,141.84 170,154.601 172.143,160 174.286,154.601 176.429,160 178.571,160 180.714,157.546 182.857,148.221 185,159.018 187.143,160 189.286,158.037 191.429,160 193.571,159.509 195.714,160 197.857,160 200,160 202.143,160 204.286,151.656 206.429,155.583 208.571,156.074 210.714,157.546 212.857,150.675 215,160 217.143,158.037 219.286,156.564 221.429,158.037 223.571,156.074 225.714,160 227.857,154.11 230,160 232.143,159.509 234.286,160 236.429,160 238.571,157.546 240.714,160 242.857,160 245,160 247.143,160 249.286,160 251.429,160 253.571,160 255.714,160 257.857,160 260,160 262.143,160 264.286,160 266.429,160 268.571,160 270.714,160 272.857,160 275,154.601 277.143,158.037 279.286,160 281.429,160 283.571,160 285.714,160 287.857,160 290,160 292.143,160 294.286,160 296.429,160 298.571,160 300.714,160 302.857,160 305,160 307.143,160 309.286,160 311.429,160 313.571,160 315.714,160 317.857,160 320,160 322.143,160 324.286,157.055 326.429,160 328.571,160 330.714,160 332.857,160 335,155.092 337.143,160 339.286,160 341.429,160 343.571,160 345.714,137.423 347.857,153.62 350,80 352.143,155.092 354.286,149.202 356.429,155.092 358.571,158.037 360.714,158.528 362.857,159.509 365,156.074 367.143,160 369.286,159.018 371.429,160 373.571,159.509 375.714,159.018 377.857,159.509 380,160 382.143,158.528 384.286,160 386.429,159.018 388.571,159.018 390.714,157.546 392.857,157.055 395,160 397.143,160 399.286,159.509 401.429,159.509 403.571,158.528 405.714,159.509 407.857,157.055 410,157.055 412.143,159.018 414.286,158.528 416.429,147.239 418.571,157.055 420.714,129.08 422.857,147.239 425,153.129 427.143,160 429.286,160 431.429,160 433.571,151.656 435.714,158.528 437.857,160 440,160 442.143,138.405 444.286,158.528 446.429,160 448.571,160 450.714,160 452.857,160 455,160 457.143,160 459.286,160 461.429,160 463.571,160 465.714,160 467.857,160 470,160 472.143,160 474.286,160 476.429,160 478.571,159.509 480.714,160 482.857,160 485,160 487.143,160 489.286,160 491.429,160 493.571,160 495.714,160 497.857,160 500,159.509 502.143,158.037 504.286,160 506.429,160 508.571,160 510.714,160 512.857,160 515,160 517.143,160 519.286,160 521.429,160 523.571,160 525.714,160 527.857,159.509 530,158.037 532.143,157.055 534.286,160 536.429,160 538.571,160 540.714,156.564 542.857,157.546 545,147.239 547.143,160 549.286,160 551.429,160 553.571,155.092 555.714,148.221 557.857,160 560,160 562.143,158.037 564.286,160 566.429,158.037 568.571,160 570.714,160 572.857,160 575,160 577.143,160 579.286,160 581.429,159.018 583.571,144.294 585.714,159.018 587.857,160 590,139.387 592.143,121.718 594.286,120.736 596.429,147.73 598.571,146.258 600.714,157.055 602.857,160 605,160 607.143,160 609.286,160 611.429,160 613.571,160 615.714,160 617.857,160 620,157.546 622.143,153.62 624.286,148.712 626.429,160 628.571,149.202 630.714,149.693 632.857,134.969 635,146.258 637.143,145.767 639.286,146.258 641.429,150.184 643.571,154.11 645.714,154.601 647.857,154.11 650,157.055 652.143,156.564 654.286,159.509 656.429,160 658.571,160 660.714,160 662.857,160 665,160 667.143,160 669.286,160 671.429,160 673.571,158.528 675.714,159.509 677.857,160 680,160 682.143,159.509 684.286,142.331 686.429,144.785 688.571,157.055 690.714,158.528 692.857,160 695,160 697.143,159.509 699.286,160 701.429,160 703.571,159.018 705.714,153.62 707.857,159.018 710,160 712.143,160 714.286,149.693 716.429,155.583 718.571,158.528 720.714,156.074 722.857,155.583 725,159.509 727.143,159.509 729.286,160 731.429,160 733.571,151.656 735.714,140.859 737.857,155.092 740,160 742.143,141.84 744.286,150.184 746.429,152.147 748.571,160 750.714,160 752.857,160 755,160 757.143,160 759.286,160 761.429,160 763.571,160 765.714,160 767.857,160 770,160 772.143,160 774.286,158.037 776.429,160 778.571,160 780.714,160 782.857,160 785,160 787.143,160 789.286,160 791.429,160 793.571,160 795.714,160 797.857,160 800,160" fill="none" stroke="var(--accent)" stroke-width="1.5" stroke-linecap="round" stroke-linejoin="round"/>
</svg>

