<svg xmlns="http://www.w3.org/2000/svg" width="820" height="180" viewBox="0 0 820 180">

<style>
  :root {
    --bg:        #f6f8fa;
    --card:      #ffffff;
    --border:    #d0d7de;
    --primary:   #1f2328;
    --secondary: #636c76;
    --muted:     #8c959f;
    --accent:    #0969da;
    --green:     #1a7f37;
    --yellow:    #9a6700;
    --red:       #cf222e;
    --hover:     #f3f4f6;
    --spark-bg:  #f0f3f6;
    --spark:     #0969da;
    --pill:      #eaf1fb;
    --pill-txt:  #0969da;
    --div:       #d0d7de;
  }
  @media (prefers-color-scheme: dark) {
    :root {
      --bg:        #0d1117;
      --card:      #161b22;
      --border:    #30363d;
      --primary:   #e6edf3;
      --secondary: #848d97;
      --muted:     #7d8590;
      --accent:    #2f81f7;
      --green:     #3fb950;
      --yellow:    #d29922;
      --red:       #f85149;
      --hover:     #21262d;
      --spark-bg:  #1c2128;
      --spark:     #58a6ff;
      --pill:      #1c2d3f;
      --pill-txt:  #58a6ff;
      --div:       #30363d;
    }
  }
  
  .bg          { fill: var(--bg); }
  .card        { fill: var(--card); stroke: var(--border); stroke-width: 1; }
  .lang-pill   { fill: var(--pill); }
  .spark-bg    { fill: var(--spark-bg); }
  .spark-line  { stroke: var(--spark); }
  .divider     { stroke: var(--div); stroke-width: 1; }
  .clr-primary   { fill: var(--primary); }
  .clr-secondary { fill: var(--secondary); }
  .clr-muted     { fill: var(--muted); }
  .clr-accent    { fill: var(--accent); }
  .clr-green     { fill: var(--green); }
  .clr-yellow    { fill: var(--yellow); }
  .clr-red       { fill: var(--red); }
  .txt-bold    { font-weight: 600; }
  svg text     { font-family: -apple-system, BlinkMacSystemFont, "Segoe UI", Helvetica, Arial, sans-serif; }
</style>

<rect x="0" y="0" width="820" height="180" rx="8" class="card"/>
  <text x="20" y="24" class="clr-primary txt-bold" text-anchor="start" font-size="14">Contribution History &amp; Activity</text>
  <line x1="20" y1="36" x2="800" y2="36" class="divider"/>
  <text x="20" y="60" class="clr-muted" text-anchor="start" font-size="12">Years Active:</text>
  <text x="100" y="60" class="clr-primary txt-bold" text-anchor="start" font-size="12">5.7</text>
  <text x="160" y="60" class="clr-muted" text-anchor="start" font-size="12">Commits (Last Year):</text>
  <text x="290" y="60" class="clr-primary txt-bold" text-anchor="start" font-size="12">1192</text>
  <text x="360" y="60" class="clr-muted" text-anchor="start" font-size="12">Highest Daily:</text>
  <text x="450" y="60" class="clr-primary txt-bold" text-anchor="start" font-size="12">163</text>
  <polygon points="20,160 20,160 22.1081,160 24.2162,160 26.3243,160 28.4324,159.509 30.5405,160 32.6486,160 34.7568,160 36.8649,160 38.973,160 41.0811,160 43.1892,160 45.2973,160 47.4054,160 49.5135,160 51.6216,160 53.7297,160 55.8378,160 57.9459,160 60.0541,160 62.1622,160 64.2703,160 66.3784,160 68.4865,160 70.5946,160 72.7027,160 74.8108,160 76.9189,160 79.027,160 81.1351,160 83.2432,159.018 85.3514,160 87.4595,160 89.5676,160 91.6757,145.276 93.7838,155.583 95.8919,157.546 98,155.583 100.108,157.055 102.216,156.074 104.324,160 106.432,160 108.541,160 110.649,158.037 112.757,159.018 114.865,158.037 116.973,156.564 119.081,160 121.189,158.528 123.297,156.564 125.405,160 127.514,154.11 129.622,149.202 131.73,149.202 133.838,153.62 135.946,141.84 138.054,154.601 140.162,160 142.27,154.601 144.378,160 146.486,160 148.595,157.546 150.703,148.221 152.811,159.018 154.919,160 157.027,158.037 159.135,160 161.243,159.509 163.351,160 165.459,160 167.568,160 169.676,160 171.784,151.656 173.892,155.583 176,156.074 178.108,157.546 180.216,150.675 182.324,160 184.432,158.037 186.541,156.564 188.649,158.037 190.757,156.074 192.865,160 194.973,154.11 197.081,160 199.189,159.509 201.297,160 203.405,160 205.514,157.546 207.622,160 209.73,160 211.838,160 213.946,160 216.054,160 218.162,160 220.27,160 222.378,160 224.486,160 226.595,160 228.703,160 230.811,160 232.919,160 235.027,160 237.135,160 239.243,160 241.351,154.601 243.459,158.037 245.568,160 247.676,160 249.784,160 251.892,160 254,160 256.108,160 258.216,160 260.324,160 262.432,160 264.541,160 266.649,160 268.757,160 270.865,160 272.973,160 275.081,160 277.189,160 279.297,160 281.405,160 283.514,160 285.622,160 287.73,160 289.838,157.055 291.946,160 294.054,160 296.162,160 298.27,160 300.378,155.092 302.486,160 304.595,160 306.703,160 308.811,160 310.919,137.423 313.027,153.62 315.135,80 317.243,155.092 319.351,149.202 321.459,155.092 323.568,158.037 325.676,158.528 327.784,159.509 329.892,156.074 332,160 334.108,159.018 336.216,160 338.324,159.509 340.432,159.018 342.541,159.509 344.649,160 346.757,158.528 348.865,160 350.973,159.018 353.081,159.018 355.189,157.546 357.297,157.055 359.405,160 361.514,160 363.622,159.509 365.73,159.509 367.838,158.528 369.946,159.509 372.054,157.055 374.162,157.055 376.27,159.018 378.378,158.528 380.486,147.239 382.595,157.055 384.703,129.08 386.811,147.239 388.919,153.129 391.027,160 393.135,160 395.243,160 397.351,151.656 399.459,158.528 401.568,160 403.676,160 405.784,138.405 407.892,158.528 410,160 412.108,160 414.216,160 416.324,160 418.432,160 420.541,160 422.649,160 424.757,160 426.865,160 428.973,160 431.081,160 433.189,160 435.297,160 437.405,160 439.514,160 441.622,159.509 443.73,160 445.838,160 447.946,160 450.054,160 452.162,160 454.27,160 456.378,160 458.486,160 460.595,160 462.703,159.509 464.811,158.037 466.919,160 469.027,160 471.135,160 473.243,160 475.351,160 477.459,160 479.568,160 481.676,160 483.784,160 485.892,160 488,160 490.108,159.509 492.216,158.037 494.324,157.055 496.432,160 498.541,160 500.649,160 502.757,156.564 504.865,157.546 506.973,147.239 509.081,160 511.189,160 513.297,160 515.405,155.092 517.514,148.221 519.622,160 521.73,160 523.838,158.037 525.946,160 528.054,158.037 530.162,160 532.27,160 534.378,160 536.486,160 538.595,160 540.703,160 542.811,159.018 544.919,144.294 547.027,159.018 549.135,160 551.243,139.387 553.351,121.718 555.459,120.736 557.568,147.73 559.676,146.258 561.784,157.055 563.892,160 566,160 568.108,160 570.216,160 572.324,160 574.432,160 576.541,160 578.649,160 580.757,157.546 582.865,153.62 584.973,148.712 587.081,160 589.189,149.202 591.297,149.693 593.405,134.969 595.514,146.258 597.622,145.767 599.73,146.258 601.838,150.184 603.946,154.11 606.054,154.601 608.162,154.11 610.27,157.055 612.378,156.564 614.486,159.509 616.595,160 618.703,160 620.811,160 622.919,160 625.027,160 627.135,160 629.243,160 631.351,160 633.459,158.528 635.568,159.509 637.676,160 639.784,160 641.892,159.509 644,142.331 646.108,144.785 648.216,157.055 650.324,158.528 652.432,160 654.541,160 656.649,159.509 658.757,160 660.865,160 662.973,159.018 665.081,153.62 667.189,159.018 669.297,160 671.405,160 673.514,149.693 675.622,155.583 677.73,158.528 679.838,156.074 681.946,155.583 684.054,159.509 686.162,159.509 688.27,160 690.378,160 692.486,151.656 694.595,140.859 696.703,155.092 698.811,160 700.919,141.84 703.027,150.184 705.135,152.147 707.243,160 709.351,160 711.459,160 713.568,160 715.676,160 717.784,160 719.892,160 722,160 724.108,160 726.216,160 728.324,160 730.432,160 732.541,158.037 734.649,160 736.757,160 738.865,160 740.973,160 743.081,160 745.189,160 747.297,160 749.405,160 751.514,160 753.622,160 755.73,160 757.838,160 759.946,160 762.054,160 764.162,156.564 766.27,154.601 768.378,160 770.486,160 772.595,160 774.703,160 776.811,159.509 778.919,160 781.027,160 783.135,159.509 785.243,159.509 787.351,160 789.459,159.509 791.568,160 793.676,160 795.784,159.509 797.892,160 800,160 800,160" fill="var(--pill)" opacity="0.6"/>
  <polyline points="20,160 22.1081,160 24.2162,160 26.3243,160 28.4324,159.509 30.5405,160 32.6486,160 34.7568,160 36.8649,160 38.973,160 41.0811,160 43.1892,160 45.2973,160 47.4054,160 49.5135,160 51.6216,160 53.7297,160 55.8378,160 57.9459,160 60.0541,160 62.1622,160 64.2703,160 66.3784,160 68.4865,160 70.5946,160 72.7027,160 74.8108,160 76.9189,160 79.027,160 81.1351,160 83.2432,159.018 85.3514,160 87.4595,160 89.5676,160 91.6757,145.276 93.7838,155.583 95.8919,157.546 98,155.583 100.108,157.055 102.216,156.074 104.324,160 106.432,160 108.541,160 110.649,158.037 112.757,159.018 114.865,158.037 116.973,156.564 119.081,160 121.189,158.528 123.297,156.564 125.405,160 127.514,154.11 129.622,149.202 131.73,149.202 133.838,153.62 135.946,141.84 138.054,154.601 140.162,160 142.27,154.601 144.378,160 146.486,160 148.595,157.546 150.703,148.221 152.811,159.018 154.919,160 157.027,158.037 159.135,160 161.243,159.509 163.351,160 165.459,160 167.568,160 169.676,160 171.784,151.656 173.892,155.583 176,156.074 178.108,157.546 180.216,150.675 182.324,160 184.432,158.037 186.541,156.564 188.649,158.037 190.757,156.074 192.865,160 194.973,154.11 197.081,160 199.189,159.509 201.297,160 203.405,160 205.514,157.546 207.622,160 209.73,160 211.838,160 213.946,160 216.054,160 218.162,160 220.27,160 222.378,160 224.486,160 226.595,160 228.703,160 230.811,160 232.919,160 235.027,160 237.135,160 239.243,160 241.351,154.601 243.459,158.037 245.568,160 247.676,160 249.784,160 251.892,160 254,160 256.108,160 258.216,160 260.324,160 262.432,160 264.541,160 266.649,160 268.757,160 270.865,160 272.973,160 275.081,160 277.189,160 279.297,160 281.405,160 283.514,160 285.622,160 287.73,160 289.838,157.055 291.946,160 294.054,160 296.162,160 298.27,160 300.378,155.092 302.486,160 304.595,160 306.703,160 308.811,160 310.919,137.423 313.027,153.62 315.135,80 317.243,155.092 319.351,149.202 321.459,155.092 323.568,158.037 325.676,158.528 327.784,159.509 329.892,156.074 332,160 334.108,159.018 336.216,160 338.324,159.509 340.432,159.018 342.541,159.509 344.649,160 346.757,158.528 348.865,160 350.973,159.018 353.081,159.018 355.189,157.546 357.297,157.055 359.405,160 361.514,160 363.622,159.509 365.73,159.509 367.838,158.528 369.946,159.509 372.054,157.055 374.162,157.055 376.27,159.018 378.378,158.528 380.486,147.239 382.595,157.055 384.703,129.08 386.811,147.239 388.919,153.129 391.027,160 393.135,160 395.243,160 397.351,151.656 399.459,158.528 401.568,160 403.676,160 405.784,138.405 407.892,158.528 410,160 412.108,160 414.216,160 416.324,160 418.432,160 420.541,160 422.649,160 424.757,160 426.865,160 428.973,160 431.081,160 433.189,160 435.297,160 437.405,160 439.514,160 441.622,159.509 443.73,160 445.838,160 447.946,160 450.054,160 452.162,160 454.27,160 456.378,160 458.486,160 460.595,160 462.703,159.509 464.811,158.037 466.919,160 469.027,160 471.135,160 473.243,160 475.351,160 477.459,160 479.568,160 481.676,160 483.784,160 485.892,160 488,160 490.108,159.509 492.216,158.037 494.324,157.055 496.432,160 498.541,160 500.649,160 502.757,156.564 504.865,157.546 506.973,147.239 509.081,160 511.189,160 513.297,160 515.405,155.092 517.514,148.221 519.622,160 521.73,160 523.838,158.037 525.946,160 528.054,158.037 530.162,160 532.27,160 534.378,160 536.486,160 538.595,160 540.703,160 542.811,159.018 544.919,144.294 547.027,159.018 549.135,160 551.243,139.387 553.351,121.718 555.459,120.736 557.568,147.73 559.676,146.258 561.784,157.055 563.892,160 566,160 568.108,160 570.216,160 572.324,160 574.432,160 576.541,160 578.649,160 580.757,157.546 582.865,153.62 584.973,148.712 587.081,160 589.189,149.202 591.297,149.693 593.405,134.969 595.514,146.258 597.622,145.767 599.73,146.258 601.838,150.184 603.946,154.11 606.054,154.601 608.162,154.11 610.27,157.055 612.378,156.564 614.486,159.509 616.595,160 618.703,160 620.811,160 622.919,160 625.027,160 627.135,160 629.243,160 631.351,160 633.459,158.528 635.568,159.509 637.676,160 639.784,160 641.892,159.509 644,142.331 646.108,144.785 648.216,157.055 650.324,158.528 652.432,160 654.541,160 656.649,159.509 658.757,160 660.865,160 662.973,159.018 665.081,153.62 667.189,159.018 669.297,160 671.405,160 673.514,149.693 675.622,155.583 677.73,158.528 679.838,156.074 681.946,155.583 684.054,159.509 686.162,159.509 688.27,160 690.378,160 692.486,151.656 694.595,140.859 696.703,155.092 698.811,160 700.919,141.84 703.027,150.184 705.135,152.147 707.243,160 709.351,160 711.459,160 713.568,160 715.676,160 717.784,160 719.892,160 722,160 724.108,160 726.216,160 728.324,160 730.432,160 732.541,158.037 734.649,160 736.757,160 738.865,160 740.973,160 743.081,160 745.189,160 747.297,160 749.405,160 751.514,160 753.622,160 755.73,160 757.838,160 759.946,160 762.054,160 764.162,156.564 766.27,154.601 768.378,160 770.486,160 772.595,160 774.703,160 776.811,159.509 778.919,160 781.027,160 783.135,159.509 785.243,159.509 787.351,160 789.459,159.509 791.568,160 793.676,160 795.784,159.509 797.892,160 800,160" fill="none" stroke="var(--accent)" stroke-width="1.5" stroke-linecap="round" stroke-linejoin="round"/>
</svg>

