<svg xmlns="http://www.w3.org/2000/svg" width="820" height="180" viewBox="0 0 820 180">

<style>
  :root {
    --bg:        #f6f8fa;
    --card:      #ffffff;
    --border:    #d0d7de;
    --primary:   #1f2328;
    --secondary: #636c76;
    --muted:     #8c959f;
    --accent:    #0969da;
    --green:     #1a7f37;
    --yellow:    #9a6700;
    --red:       #cf222e;
    --hover:     #f3f4f6;
    --spark-bg:  #f0f3f6;
    --spark:     #0969da;
    --pill:      #eaf1fb;
    --pill-txt:  #0969da;
    --div:       #d0d7de;
  }
  @media (prefers-color-scheme: dark) {
    :root {
      --bg:        #0d1117;
      --card:      #161b22;
      --border:    #30363d;
      --primary:   #e6edf3;
      --secondary: #848d97;
      --muted:     #7d8590;
      --accent:    #2f81f7;
      --green:     #3fb950;
      --yellow:    #d29922;
      --red:       #f85149;
      --hover:     #21262d;
      --spark-bg:  #1c2128;
      --spark:     #58a6ff;
      --pill:      #1c2d3f;
      --pill-txt:  #58a6ff;
      --div:       #30363d;
    }
  }
  
  .bg          { fill: var(--bg); }
  .card        { fill: var(--card); stroke: var(--border); stroke-width: 1; }
  .lang-pill   { fill: var(--pill); }
  .spark-bg    { fill: var(--spark-bg); }
  .spark-line  { stroke: var(--spark); }
  .divider     { stroke: var(--div); stroke-width: 1; }
  .clr-primary   { fill: var(--primary); }
  .clr-secondary { fill: var(--secondary); }
  .clr-muted     { fill: var(--muted); }
  .clr-accent    { fill: var(--accent); }
  .clr-green     { fill: var(--green); }
  .clr-yellow    { fill: var(--yellow); }
  .clr-red       { fill: var(--red); }
  .txt-bold    { font-weight: 600; }
  svg text     { font-family: -apple-system, BlinkMacSystemFont, "Segoe UI", Helvetica, Arial, sans-serif; }
</style>

<rect x="0" y="0" width="820" height="180" rx="8" class="card"/>
  <text x="20" y="24" class="clr-primary txt-bold" text-anchor="start" font-size="14">Contribution History &amp; Activity</text>
  <line x1="20" y1="36" x2="800" y2="36" class="divider"/>
  <text x="20" y="60" class="clr-muted" text-anchor="start" font-size="12">Years Active:</text>
  <text x="100" y="60" class="clr-primary txt-bold" text-anchor="start" font-size="12">5.5</text>
  <text x="160" y="60" class="clr-muted" text-anchor="start" font-size="12">Commits (Last Year):</text>
  <text x="290" y="60" class="clr-primary txt-bold" text-anchor="start" font-size="12">1025</text>
  <text x="360" y="60" class="clr-muted" text-anchor="start" font-size="12">Highest Daily:</text>
  <text x="450" y="60" class="clr-primary txt-bold" text-anchor="start" font-size="12">163</text>
  <polygon points="20,160 20,160 22.137,157.055 24.274,158.037 26.411,160 28.5479,160 30.6849,160 32.8219,160 34.9589,160 37.0959,160 39.2329,160 41.3699,160 43.5068,160 45.6438,160 47.7808,153.62 49.9178,160 52.0548,160 54.1918,160 56.3288,154.11 58.4658,157.055 60.6027,160 62.7397,160 64.8767,160 67.0137,160 69.1507,160 71.2877,160 73.4247,159.018 75.5616,160 77.6986,160 79.8356,160 81.9726,160 84.1096,160 86.2466,160 88.3836,160 90.5205,160 92.6575,160 94.7945,160 96.9315,160 99.0685,160 101.205,160 103.342,160 105.479,160 107.616,160 109.753,160 111.89,160 114.027,160 116.164,160 118.301,160 120.438,160 122.575,160 124.712,160 126.849,160 128.986,160 131.123,160 133.26,160 135.397,160 137.534,160 139.671,160 141.808,160 143.945,160 146.082,160 148.219,159.509 150.356,160 152.493,160 154.63,160 156.767,160 158.904,160 161.041,160 163.178,160 165.315,160 167.452,160 169.589,160 171.726,160 173.863,160 176,160 178.137,160 180.274,160 182.411,160 184.548,160 186.685,160 188.822,160 190.959,160 193.096,160 195.233,160 197.37,160 199.507,160 201.644,160 203.781,159.018 205.918,160 208.055,160 210.192,160 212.329,145.276 214.466,155.583 216.603,157.546 218.74,155.583 220.877,157.055 223.014,156.074 225.151,160 227.288,160 229.425,160 231.562,158.037 233.699,159.018 235.836,158.037 237.973,156.564 240.11,160 242.247,158.528 244.384,156.564 246.521,160 248.658,154.11 250.795,149.202 252.932,149.202 255.068,153.62 257.205,141.84 259.342,154.601 261.479,160 263.616,154.601 265.753,160 267.89,160 270.027,157.546 272.164,148.221 274.301,159.018 276.438,160 278.575,158.037 280.712,160 282.849,159.509 284.986,160 287.123,160 289.26,160 291.397,160 293.534,151.656 295.671,155.583 297.808,156.074 299.945,157.546 302.082,150.675 304.219,160 306.356,158.037 308.493,156.564 310.63,158.037 312.767,156.074 314.904,160 317.041,154.11 319.178,160 321.315,159.509 323.452,160 325.589,160 327.726,157.546 329.863,160 332,160 334.137,160 336.274,160 338.411,160 340.548,160 342.685,160 344.822,160 346.959,160 349.096,160 351.233,160 353.37,160 355.507,160 357.644,160 359.781,160 361.918,160 364.055,154.601 366.192,158.037 368.329,160 370.466,160 372.603,160 374.74,160 376.877,160 379.014,160 381.151,160 383.288,160 385.425,160 387.562,160 389.699,160 391.836,160 393.973,160 396.11,160 398.247,160 400.384,160 402.521,160 404.658,160 406.795,160 408.932,160 411.068,160 413.205,157.055 415.342,160 417.479,160 419.616,160 421.753,160 423.89,155.092 426.027,160 428.164,160 430.301,160 432.438,160 434.575,137.423 436.712,153.62 438.849,80 440.986,155.092 443.123,149.202 445.26,155.092 447.397,158.037 449.534,158.528 451.671,159.509 453.808,156.074 455.945,160 458.082,159.018 460.219,160 462.356,159.509 464.493,159.018 466.63,159.509 468.767,160 470.904,158.528 473.041,160 475.178,159.018 477.315,159.018 479.452,157.546 481.589,157.055 483.726,160 485.863,160 488,159.509 490.137,159.509 492.274,158.528 494.411,159.509 496.548,157.055 498.685,157.055 500.822,159.018 502.959,158.528 505.096,147.239 507.233,157.055 509.37,129.08 511.507,147.239 513.644,153.129 515.781,160 517.918,160 520.055,160 522.192,151.656 524.329,158.528 526.466,160 528.603,160 530.74,138.405 532.877,158.528 535.014,160 537.151,160 539.288,160 541.425,160 543.562,160 545.699,160 547.836,160 549.973,160 552.11,160 554.247,160 556.384,160 558.521,160 560.658,160 562.795,160 564.932,160 567.068,159.509 569.205,160 571.342,160 573.479,160 575.616,160 577.753,160 579.89,160 582.027,160 584.164,160 586.301,160 588.438,159.509 590.575,158.037 592.712,160 594.849,160 596.986,160 599.123,160 601.26,160 603.397,160 605.534,160 607.671,160 609.808,160 611.945,160 614.082,160 616.219,159.509 618.356,158.037 620.493,157.055 622.63,160 624.767,160 626.904,160 629.041,156.564 631.178,157.546 633.315,147.239 635.452,160 637.589,160 639.726,160 641.863,155.092 644,148.221 646.137,160 648.274,160 650.411,158.037 652.548,160 654.685,158.037 656.822,160 658.959,160 661.096,160 663.233,160 665.37,160 667.507,160 669.644,159.018 671.781,144.294 673.918,159.018 676.055,160 678.192,139.387 680.329,121.718 682.466,120.736 684.603,147.73 686.74,146.258 688.877,157.055 691.014,160 693.151,160 695.288,160 697.425,160 699.562,160 701.699,160 703.836,160 705.973,160 708.11,157.546 710.247,153.62 712.384,148.712 714.521,160 716.658,149.202 718.795,149.693 720.932,134.969 723.068,146.258 725.205,145.767 727.342,146.258 729.479,150.184 731.616,154.11 733.753,154.601 735.89,154.11 738.027,157.055 740.164,156.564 742.301,159.509 744.438,160 746.575,160 748.712,160 750.849,160 752.986,160 755.123,160 757.26,160 759.397,160 761.534,158.528 763.671,159.509 765.808,160 767.945,160 770.082,159.509 772.219,142.331 774.356,144.785 776.493,157.055 778.63,158.528 780.767,160 782.904,160 785.041,159.509 787.178,160 789.315,160 791.452,159.018 793.589,153.62 795.726,159.018 797.863,160 800,160 800,160" fill="var(--pill)" opacity="0.6"/>
  <polyline points="20,160 22.137,157.055 24.274,158.037 26.411,160 28.5479,160 30.6849,160 32.8219,160 34.9589,160 37.0959,160 39.2329,160 41.3699,160 43.5068,160 45.6438,160 47.7808,153.62 49.9178,160 52.0548,160 54.1918,160 56.3288,154.11 58.4658,157.055 60.6027,160 62.7397,160 64.8767,160 67.0137,160 69.1507,160 71.2877,160 73.4247,159.018 75.5616,160 77.6986,160 79.8356,160 81.9726,160 84.1096,160 86.2466,160 88.3836,160 90.5205,160 92.6575,160 94.7945,160 96.9315,160 99.0685,160 101.205,160 103.342,160 105.479,160 107.616,160 109.753,160 111.89,160 114.027,160 116.164,160 118.301,160 120.438,160 122.575,160 124.712,160 126.849,160 128.986,160 131.123,160 133.26,160 135.397,160 137.534,160 139.671,160 141.808,160 143.945,160 146.082,160 148.219,159.509 150.356,160 152.493,160 154.63,160 156.767,160 158.904,160 161.041,160 163.178,160 165.315,160 167.452,160 169.589,160 171.726,160 173.863,160 176,160 178.137,160 180.274,160 182.411,160 184.548,160 186.685,160 188.822,160 190.959,160 193.096,160 195.233,160 197.37,160 199.507,160 201.644,160 203.781,159.018 205.918,160 208.055,160 210.192,160 212.329,145.276 214.466,155.583 216.603,157.546 218.74,155.583 220.877,157.055 223.014,156.074 225.151,160 227.288,160 229.425,160 231.562,158.037 233.699,159.018 235.836,158.037 237.973,156.564 240.11,160 242.247,158.528 244.384,156.564 246.521,160 248.658,154.11 250.795,149.202 252.932,149.202 255.068,153.62 257.205,141.84 259.342,154.601 261.479,160 263.616,154.601 265.753,160 267.89,160 270.027,157.546 272.164,148.221 274.301,159.018 276.438,160 278.575,158.037 280.712,160 282.849,159.509 284.986,160 287.123,160 289.26,160 291.397,160 293.534,151.656 295.671,155.583 297.808,156.074 299.945,157.546 302.082,150.675 304.219,160 306.356,158.037 308.493,156.564 310.63,158.037 312.767,156.074 314.904,160 317.041,154.11 319.178,160 321.315,159.509 323.452,160 325.589,160 327.726,157.546 329.863,160 332,160 334.137,160 336.274,160 338.411,160 340.548,160 342.685,160 344.822,160 346.959,160 349.096,160 351.233,160 353.37,160 355.507,160 357.644,160 359.781,160 361.918,160 364.055,154.601 366.192,158.037 368.329,160 370.466,160 372.603,160 374.74,160 376.877,160 379.014,160 381.151,160 383.288,160 385.425,160 387.562,160 389.699,160 391.836,160 393.973,160 396.11,160 398.247,160 400.384,160 402.521,160 404.658,160 406.795,160 408.932,160 411.068,160 413.205,157.055 415.342,160 417.479,160 419.616,160 421.753,160 423.89,155.092 426.027,160 428.164,160 430.301,160 432.438,160 434.575,137.423 436.712,153.62 438.849,80 440.986,155.092 443.123,149.202 445.26,155.092 447.397,158.037 449.534,158.528 451.671,159.509 453.808,156.074 455.945,160 458.082,159.018 460.219,160 462.356,159.509 464.493,159.018 466.63,159.509 468.767,160 470.904,158.528 473.041,160 475.178,159.018 477.315,159.018 479.452,157.546 481.589,157.055 483.726,160 485.863,160 488,159.509 490.137,159.509 492.274,158.528 494.411,159.509 496.548,157.055 498.685,157.055 500.822,159.018 502.959,158.528 505.096,147.239 507.233,157.055 509.37,129.08 511.507,147.239 513.644,153.129 515.781,160 517.918,160 520.055,160 522.192,151.656 524.329,158.528 526.466,160 528.603,160 530.74,138.405 532.877,158.528 535.014,160 537.151,160 539.288,160 541.425,160 543.562,160 545.699,160 547.836,160 549.973,160 552.11,160 554.247,160 556.384,160 558.521,160 560.658,160 562.795,160 564.932,160 567.068,159.509 569.205,160 571.342,160 573.479,160 575.616,160 577.753,160 579.89,160 582.027,160 584.164,160 586.301,160 588.438,159.509 590.575,158.037 592.712,160 594.849,160 596.986,160 599.123,160 601.26,160 603.397,160 605.534,160 607.671,160 609.808,160 611.945,160 614.082,160 616.219,159.509 618.356,158.037 620.493,157.055 622.63,160 624.767,160 626.904,160 629.041,156.564 631.178,157.546 633.315,147.239 635.452,160 637.589,160 639.726,160 641.863,155.092 644,148.221 646.137,160 648.274,160 650.411,158.037 652.548,160 654.685,158.037 656.822,160 658.959,160 661.096,160 663.233,160 665.37,160 667.507,160 669.644,159.018 671.781,144.294 673.918,159.018 676.055,160 678.192,139.387 680.329,121.718 682.466,120.736 684.603,147.73 686.74,146.258 688.877,157.055 691.014,160 693.151,160 695.288,160 697.425,160 699.562,160 701.699,160 703.836,160 705.973,160 708.11,157.546 710.247,153.62 712.384,148.712 714.521,160 716.658,149.202 718.795,149.693 720.932,134.969 723.068,146.258 725.205,145.767 727.342,146.258 729.479,150.184 731.616,154.11 733.753,154.601 735.89,154.11 738.027,157.055 740.164,156.564 742.301,159.509 744.438,160 746.575,160 748.712,160 750.849,160 752.986,160 755.123,160 757.26,160 759.397,160 761.534,158.528 763.671,159.509 765.808,160 767.945,160 770.082,159.509 772.219,142.331 774.356,144.785 776.493,157.055 778.63,158.528 780.767,160 782.904,160 785.041,159.509 787.178,160 789.315,160 791.452,159.018 793.589,153.62 795.726,159.018 797.863,160 800,160" fill="none" stroke="var(--accent)" stroke-width="1.5" stroke-linecap="round" stroke-linejoin="round"/>
</svg>

