<svg xmlns="http://www.w3.org/2000/svg" width="820" height="180" viewBox="0 0 820 180">

<style>
  :root {
    --bg:        #f6f8fa;
    --card:      #ffffff;
    --border:    #d0d7de;
    --primary:   #1f2328;
    --secondary: #636c76;
    --muted:     #8c959f;
    --accent:    #0969da;
    --green:     #1a7f37;
    --yellow:    #9a6700;
    --red:       #cf222e;
    --hover:     #f3f4f6;
    --spark-bg:  #f0f3f6;
    --spark:     #0969da;
    --pill:      #eaf1fb;
    --pill-txt:  #0969da;
    --div:       #d0d7de;
  }
  @media (prefers-color-scheme: dark) {
    :root {
      --bg:        #0d1117;
      --card:      #161b22;
      --border:    #30363d;
      --primary:   #e6edf3;
      --secondary: #848d97;
      --muted:     #7d8590;
      --accent:    #2f81f7;
      --green:     #3fb950;
      --yellow:    #d29922;
      --red:       #f85149;
      --hover:     #21262d;
      --spark-bg:  #1c2128;
      --spark:     #58a6ff;
      --pill:      #1c2d3f;
      --pill-txt:  #58a6ff;
      --div:       #30363d;
    }
  }
  
  .bg          { fill: var(--bg); }
  .card        { fill: var(--card); stroke: var(--border); stroke-width: 1; }
  .lang-pill   { fill: var(--pill); }
  .spark-bg    { fill: var(--spark-bg); }
  .spark-line  { stroke: var(--spark); }
  .divider     { stroke: var(--div); stroke-width: 1; }
  .clr-primary   { fill: var(--primary); }
  .clr-secondary { fill: var(--secondary); }
  .clr-muted     { fill: var(--muted); }
  .clr-accent    { fill: var(--accent); }
  .clr-green     { fill: var(--green); }
  .clr-yellow    { fill: var(--yellow); }
  .clr-red       { fill: var(--red); }
  .txt-bold    { font-weight: 600; }
  svg text     { font-family: -apple-system, BlinkMacSystemFont, "Segoe UI", Helvetica, Arial, sans-serif; }
</style>

<rect x="0" y="0" width="820" height="180" rx="8" class="card"/>
  <text x="20" y="24" class="clr-primary txt-bold" text-anchor="start" font-size="14">Contribution History &amp; Activity</text>
  <line x1="20" y1="36" x2="800" y2="36" class="divider"/>
  <text x="20" y="60" class="clr-muted" text-anchor="start" font-size="12">Years Active:</text>
  <text x="100" y="60" class="clr-primary txt-bold" text-anchor="start" font-size="12">5.6</text>
  <text x="160" y="60" class="clr-muted" text-anchor="start" font-size="12">Commits (Last Year):</text>
  <text x="290" y="60" class="clr-primary txt-bold" text-anchor="start" font-size="12">1173</text>
  <text x="360" y="60" class="clr-muted" text-anchor="start" font-size="12">Highest Daily:</text>
  <text x="450" y="60" class="clr-primary txt-bold" text-anchor="start" font-size="12">163</text>
  <polygon points="20,160 20,160 22.1429,160 24.2857,160 26.4286,160 28.5714,160 30.7143,160 32.8571,160 35,160 37.1429,160 39.2857,160 41.4286,160 43.5714,160 45.7143,160 47.8571,160 50,160 52.1429,160 54.2857,160 56.4286,160 58.5714,160 60.7143,160 62.8571,160 65,160 67.1429,160 69.2857,160 71.4286,160 73.5714,159.509 75.7143,160 77.8571,160 80,160 82.1429,160 84.2857,160 86.4286,160 88.5714,160 90.7143,160 92.8571,160 95,160 97.1429,160 99.2857,160 101.429,160 103.571,160 105.714,160 107.857,160 110,160 112.143,160 114.286,160 116.429,160 118.571,160 120.714,160 122.857,160 125,160 127.143,160 129.286,159.018 131.429,160 133.571,160 135.714,160 137.857,145.276 140,155.583 142.143,157.546 144.286,155.583 146.429,157.055 148.571,156.074 150.714,160 152.857,160 155,160 157.143,158.037 159.286,159.018 161.429,158.037 163.571,156.564 165.714,160 167.857,158.528 170,156.564 172.143,160 174.286,154.11 176.429,149.202 178.571,149.202 180.714,153.62 182.857,141.84 185,154.601 187.143,160 189.286,154.601 191.429,160 193.571,160 195.714,157.546 197.857,148.221 200,159.018 202.143,160 204.286,158.037 206.429,160 208.571,159.509 210.714,160 212.857,160 215,160 217.143,160 219.286,151.656 221.429,155.583 223.571,156.074 225.714,157.546 227.857,150.675 230,160 232.143,158.037 234.286,156.564 236.429,158.037 238.571,156.074 240.714,160 242.857,154.11 245,160 247.143,159.509 249.286,160 251.429,160 253.571,157.546 255.714,160 257.857,160 260,160 262.143,160 264.286,160 266.429,160 268.571,160 270.714,160 272.857,160 275,160 277.143,160 279.286,160 281.429,160 283.571,160 285.714,160 287.857,160 290,154.601 292.143,158.037 294.286,160 296.429,160 298.571,160 300.714,160 302.857,160 305,160 307.143,160 309.286,160 311.429,160 313.571,160 315.714,160 317.857,160 320,160 322.143,160 324.286,160 326.429,160 328.571,160 330.714,160 332.857,160 335,160 337.143,160 339.286,157.055 341.429,160 343.571,160 345.714,160 347.857,160 350,155.092 352.143,160 354.286,160 356.429,160 358.571,160 360.714,137.423 362.857,153.62 365,80 367.143,155.092 369.286,149.202 371.429,155.092 373.571,158.037 375.714,158.528 377.857,159.509 380,156.074 382.143,160 384.286,159.018 386.429,160 388.571,159.509 390.714,159.018 392.857,159.509 395,160 397.143,158.528 399.286,160 401.429,159.018 403.571,159.018 405.714,157.546 407.857,157.055 410,160 412.143,160 414.286,159.509 416.429,159.509 418.571,158.528 420.714,159.509 422.857,157.055 425,157.055 427.143,159.018 429.286,158.528 431.429,147.239 433.571,157.055 435.714,129.08 437.857,147.239 440,153.129 442.143,160 444.286,160 446.429,160 448.571,151.656 450.714,158.528 452.857,160 455,160 457.143,138.405 459.286,158.528 461.429,160 463.571,160 465.714,160 467.857,160 470,160 472.143,160 474.286,160 476.429,160 478.571,160 480.714,160 482.857,160 485,160 487.143,160 489.286,160 491.429,160 493.571,159.509 495.714,160 497.857,160 500,160 502.143,160 504.286,160 506.429,160 508.571,160 510.714,160 512.857,160 515,159.509 517.143,158.037 519.286,160 521.429,160 523.571,160 525.714,160 527.857,160 530,160 532.143,160 534.286,160 536.429,160 538.571,160 540.714,160 542.857,159.509 545,158.037 547.143,157.055 549.286,160 551.429,160 553.571,160 555.714,156.564 557.857,157.546 560,147.239 562.143,160 564.286,160 566.429,160 568.571,155.092 570.714,148.221 572.857,160 575,160 577.143,158.037 579.286,160 581.429,158.037 583.571,160 585.714,160 587.857,160 590,160 592.143,160 594.286,160 596.429,159.018 598.571,144.294 600.714,159.018 602.857,160 605,139.387 607.143,121.718 609.286,120.736 611.429,147.73 613.571,146.258 615.714,157.055 617.857,160 620,160 622.143,160 624.286,160 626.429,160 628.571,160 630.714,160 632.857,160 635,157.546 637.143,153.62 639.286,148.712 641.429,160 643.571,149.202 645.714,149.693 647.857,134.969 650,146.258 652.143,145.767 654.286,146.258 656.429,150.184 658.571,154.11 660.714,154.601 662.857,154.11 665,157.055 667.143,156.564 669.286,159.509 671.429,160 673.571,160 675.714,160 677.857,160 680,160 682.143,160 684.286,160 686.429,160 688.571,158.528 690.714,159.509 692.857,160 695,160 697.143,159.509 699.286,142.331 701.429,144.785 703.571,157.055 705.714,158.528 707.857,160 710,160 712.143,159.509 714.286,160 716.429,160 718.571,159.018 720.714,153.62 722.857,159.018 725,160 727.143,160 729.286,149.693 731.429,155.583 733.571,158.528 735.714,156.074 737.857,155.583 740,159.509 742.143,159.509 744.286,160 746.429,160 748.571,151.656 750.714,140.859 752.857,155.092 755,160 757.143,141.84 759.286,150.184 761.429,152.147 763.571,160 765.714,160 767.857,160 770,160 772.143,160 774.286,160 776.429,160 778.571,160 780.714,160 782.857,160 785,160 787.143,160 789.286,158.037 791.429,160 793.571,160 795.714,160 797.857,160 800,160 800,160" fill="var(--pill)" opacity="0.6"/>
  <polyline points="20,160 22.1429,160 24.2857,160 26.4286,160 28.5714,160 30.7143,160 32.8571,160 35,160 37.1429,160 39.2857,160 41.4286,160 43.5714,160 45.7143,160 47.8571,160 50,160 52.1429,160 54.2857,160 56.4286,160 58.5714,160 60.7143,160 62.8571,160 65,160 67.1429,160 69.2857,160 71.4286,160 73.5714,159.509 75.7143,160 77.8571,160 80,160 82.1429,160 84.2857,160 86.4286,160 88.5714,160 90.7143,160 92.8571,160 95,160 97.1429,160 99.2857,160 101.429,160 103.571,160 105.714,160 107.857,160 110,160 112.143,160 114.286,160 116.429,160 118.571,160 120.714,160 122.857,160 125,160 127.143,160 129.286,159.018 131.429,160 133.571,160 135.714,160 137.857,145.276 140,155.583 142.143,157.546 144.286,155.583 146.429,157.055 148.571,156.074 150.714,160 152.857,160 155,160 157.143,158.037 159.286,159.018 161.429,158.037 163.571,156.564 165.714,160 167.857,158.528 170,156.564 172.143,160 174.286,154.11 176.429,149.202 178.571,149.202 180.714,153.62 182.857,141.84 185,154.601 187.143,160 189.286,154.601 191.429,160 193.571,160 195.714,157.546 197.857,148.221 200,159.018 202.143,160 204.286,158.037 206.429,160 208.571,159.509 210.714,160 212.857,160 215,160 217.143,160 219.286,151.656 221.429,155.583 223.571,156.074 225.714,157.546 227.857,150.675 230,160 232.143,158.037 234.286,156.564 236.429,158.037 238.571,156.074 240.714,160 242.857,154.11 245,160 247.143,159.509 249.286,160 251.429,160 253.571,157.546 255.714,160 257.857,160 260,160 262.143,160 264.286,160 266.429,160 268.571,160 270.714,160 272.857,160 275,160 277.143,160 279.286,160 281.429,160 283.571,160 285.714,160 287.857,160 290,154.601 292.143,158.037 294.286,160 296.429,160 298.571,160 300.714,160 302.857,160 305,160 307.143,160 309.286,160 311.429,160 313.571,160 315.714,160 317.857,160 320,160 322.143,160 324.286,160 326.429,160 328.571,160 330.714,160 332.857,160 335,160 337.143,160 339.286,157.055 341.429,160 343.571,160 345.714,160 347.857,160 350,155.092 352.143,160 354.286,160 356.429,160 358.571,160 360.714,137.423 362.857,153.62 365,80 367.143,155.092 369.286,149.202 371.429,155.092 373.571,158.037 375.714,158.528 377.857,159.509 380,156.074 382.143,160 384.286,159.018 386.429,160 388.571,159.509 390.714,159.018 392.857,159.509 395,160 397.143,158.528 399.286,160 401.429,159.018 403.571,159.018 405.714,157.546 407.857,157.055 410,160 412.143,160 414.286,159.509 416.429,159.509 418.571,158.528 420.714,159.509 422.857,157.055 425,157.055 427.143,159.018 429.286,158.528 431.429,147.239 433.571,157.055 435.714,129.08 437.857,147.239 440,153.129 442.143,160 444.286,160 446.429,160 448.571,151.656 450.714,158.528 452.857,160 455,160 457.143,138.405 459.286,158.528 461.429,160 463.571,160 465.714,160 467.857,160 470,160 472.143,160 474.286,160 476.429,160 478.571,160 480.714,160 482.857,160 485,160 487.143,160 489.286,160 491.429,160 493.571,159.509 495.714,160 497.857,160 500,160 502.143,160 504.286,160 506.429,160 508.571,160 510.714,160 512.857,160 515,159.509 517.143,158.037 519.286,160 521.429,160 523.571,160 525.714,160 527.857,160 530,160 532.143,160 534.286,160 536.429,160 538.571,160 540.714,160 542.857,159.509 545,158.037 547.143,157.055 549.286,160 551.429,160 553.571,160 555.714,156.564 557.857,157.546 560,147.239 562.143,160 564.286,160 566.429,160 568.571,155.092 570.714,148.221 572.857,160 575,160 577.143,158.037 579.286,160 581.429,158.037 583.571,160 585.714,160 587.857,160 590,160 592.143,160 594.286,160 596.429,159.018 598.571,144.294 600.714,159.018 602.857,160 605,139.387 607.143,121.718 609.286,120.736 611.429,147.73 613.571,146.258 615.714,157.055 617.857,160 620,160 622.143,160 624.286,160 626.429,160 628.571,160 630.714,160 632.857,160 635,157.546 637.143,153.62 639.286,148.712 641.429,160 643.571,149.202 645.714,149.693 647.857,134.969 650,146.258 652.143,145.767 654.286,146.258 656.429,150.184 658.571,154.11 660.714,154.601 662.857,154.11 665,157.055 667.143,156.564 669.286,159.509 671.429,160 673.571,160 675.714,160 677.857,160 680,160 682.143,160 684.286,160 686.429,160 688.571,158.528 690.714,159.509 692.857,160 695,160 697.143,159.509 699.286,142.331 701.429,144.785 703.571,157.055 705.714,158.528 707.857,160 710,160 712.143,159.509 714.286,160 716.429,160 718.571,159.018 720.714,153.62 722.857,159.018 725,160 727.143,160 729.286,149.693 731.429,155.583 733.571,158.528 735.714,156.074 737.857,155.583 740,159.509 742.143,159.509 744.286,160 746.429,160 748.571,151.656 750.714,140.859 752.857,155.092 755,160 757.143,141.84 759.286,150.184 761.429,152.147 763.571,160 765.714,160 767.857,160 770,160 772.143,160 774.286,160 776.429,160 778.571,160 780.714,160 782.857,160 785,160 787.143,160 789.286,158.037 791.429,160 793.571,160 795.714,160 797.857,160 800,160" fill="none" stroke="var(--accent)" stroke-width="1.5" stroke-linecap="round" stroke-linejoin="round"/>
</svg>

