<svg xmlns="http://www.w3.org/2000/svg" width="820" height="180" viewBox="0 0 820 180">

<style>
  :root {
    --bg:        #f6f8fa;
    --card:      #ffffff;
    --border:    #d0d7de;
    --primary:   #1f2328;
    --secondary: #636c76;
    --muted:     #8c959f;
    --accent:    #0969da;
    --green:     #1a7f37;
    --yellow:    #9a6700;
    --red:       #cf222e;
    --hover:     #f3f4f6;
    --spark-bg:  #f0f3f6;
    --spark:     #0969da;
    --pill:      #eaf1fb;
    --pill-txt:  #0969da;
    --div:       #d0d7de;
  }
  @media (prefers-color-scheme: dark) {
    :root {
      --bg:        #0d1117;
      --card:      #161b22;
      --border:    #30363d;
      --primary:   #e6edf3;
      --secondary: #848d97;
      --muted:     #7d8590;
      --accent:    #2f81f7;
      --green:     #3fb950;
      --yellow:    #d29922;
      --red:       #f85149;
      --hover:     #21262d;
      --spark-bg:  #1c2128;
      --spark:     #58a6ff;
      --pill:      #1c2d3f;
      --pill-txt:  #58a6ff;
      --div:       #30363d;
    }
  }
  
  .bg          { fill: var(--bg); }
  .card        { fill: var(--card); stroke: var(--border); stroke-width: 1; }
  .lang-pill   { fill: var(--pill); }
  .spark-bg    { fill: var(--spark-bg); }
  .spark-line  { stroke: var(--spark); }
  .divider     { stroke: var(--div); stroke-width: 1; }
  .clr-primary   { fill: var(--primary); }
  .clr-secondary { fill: var(--secondary); }
  .clr-muted     { fill: var(--muted); }
  .clr-accent    { fill: var(--accent); }
  .clr-green     { fill: var(--green); }
  .clr-yellow    { fill: var(--yellow); }
  .clr-red       { fill: var(--red); }
  .txt-bold    { font-weight: 600; }
  svg text     { font-family: -apple-system, BlinkMacSystemFont, "Segoe UI", Helvetica, Arial, sans-serif; }
</style>

<rect x="0" y="0" width="820" height="180" rx="8" class="card"/>
  <text x="20" y="24" class="clr-primary txt-bold" text-anchor="start" font-size="14">Contribution History &amp; Activity</text>
  <line x1="20" y1="36" x2="800" y2="36" class="divider"/>
  <text x="20" y="60" class="clr-muted" text-anchor="start" font-size="12">Years Active:</text>
  <text x="100" y="60" class="clr-primary txt-bold" text-anchor="start" font-size="12">5.7</text>
  <text x="160" y="60" class="clr-muted" text-anchor="start" font-size="12">Commits (Last Year):</text>
  <text x="290" y="60" class="clr-primary txt-bold" text-anchor="start" font-size="12">1204</text>
  <text x="360" y="60" class="clr-muted" text-anchor="start" font-size="12">Highest Daily:</text>
  <text x="450" y="60" class="clr-primary txt-bold" text-anchor="start" font-size="12">163</text>
  <polygon points="20,160 20,160 22.1311,160 24.2623,160 26.3934,160 28.5246,160 30.6557,160 32.7869,160 34.918,160 37.0492,160 39.1803,160 41.3115,160 43.4426,160 45.5738,160 47.7049,160 49.8361,160 51.9672,160 54.0984,160 56.2295,160 58.3607,160 60.4918,160 62.623,160 64.7541,160 66.8852,160 69.0164,159.018 71.1475,160 73.2787,160 75.4098,160 77.541,145.276 79.6721,155.583 81.8033,157.546 83.9344,155.583 86.0656,157.055 88.1967,156.074 90.3279,160 92.459,160 94.5902,160 96.7213,158.037 98.8525,159.018 100.984,158.037 103.115,156.564 105.246,160 107.377,158.528 109.508,156.564 111.639,160 113.77,154.11 115.902,149.202 118.033,149.202 120.164,153.62 122.295,141.84 124.426,154.601 126.557,160 128.689,154.601 130.82,160 132.951,160 135.082,157.546 137.213,148.221 139.344,159.018 141.475,160 143.607,158.037 145.738,160 147.869,159.509 150,160 152.131,160 154.262,160 156.393,160 158.525,151.656 160.656,155.583 162.787,156.074 164.918,157.546 167.049,150.675 169.18,160 171.311,158.037 173.443,156.564 175.574,158.037 177.705,156.074 179.836,160 181.967,154.11 184.098,160 186.23,159.509 188.361,160 190.492,160 192.623,157.546 194.754,160 196.885,160 199.016,160 201.148,160 203.279,160 205.41,160 207.541,160 209.672,160 211.803,160 213.934,160 216.066,160 218.197,160 220.328,160 222.459,160 224.59,160 226.721,160 228.852,154.601 230.984,158.037 233.115,160 235.246,160 237.377,160 239.508,160 241.639,160 243.77,160 245.902,160 248.033,160 250.164,160 252.295,160 254.426,160 256.557,160 258.689,160 260.82,160 262.951,160 265.082,160 267.213,160 269.344,160 271.475,160 273.607,160 275.738,160 277.869,157.055 280,160 282.131,160 284.262,160 286.393,160 288.525,155.092 290.656,160 292.787,160 294.918,160 297.049,160 299.18,137.423 301.311,153.62 303.443,80 305.574,155.092 307.705,149.202 309.836,155.092 311.967,158.037 314.098,158.528 316.23,159.509 318.361,156.074 320.492,160 322.623,159.018 324.754,160 326.885,159.509 329.016,159.018 331.148,159.509 333.279,160 335.41,158.528 337.541,160 339.672,159.018 341.803,159.018 343.934,157.546 346.066,157.055 348.197,160 350.328,160 352.459,159.509 354.59,159.509 356.721,158.528 358.852,159.509 360.984,157.055 363.115,157.055 365.246,159.018 367.377,158.528 369.508,147.239 371.639,157.055 373.77,129.08 375.902,147.239 378.033,153.129 380.164,160 382.295,160 384.426,160 386.557,151.656 388.689,158.528 390.82,160 392.951,160 395.082,138.405 397.213,158.528 399.344,160 401.475,160 403.607,160 405.738,160 407.869,160 410,160 412.131,160 414.262,160 416.393,160 418.525,160 420.656,160 422.787,160 424.918,160 427.049,160 429.18,160 431.311,159.509 433.443,160 435.574,160 437.705,160 439.836,160 441.967,160 444.098,160 446.23,160 448.361,160 450.492,160 452.623,159.509 454.754,158.037 456.885,160 459.016,160 461.148,160 463.279,160 465.41,160 467.541,160 469.672,160 471.803,160 473.934,160 476.066,160 478.197,160 480.328,159.509 482.459,158.037 484.59,157.055 486.721,160 488.852,160 490.984,160 493.115,156.564 495.246,157.546 497.377,147.239 499.508,160 501.639,160 503.77,160 505.902,155.092 508.033,148.221 510.164,160 512.295,160 514.426,158.037 516.557,160 518.689,158.037 520.82,160 522.951,160 525.082,160 527.213,160 529.344,160 531.475,160 533.607,159.018 535.738,144.294 537.869,159.018 540,160 542.131,139.387 544.262,121.718 546.393,120.736 548.525,147.73 550.656,146.258 552.787,157.055 554.918,160 557.049,160 559.18,160 561.311,160 563.443,160 565.574,160 567.705,160 569.836,160 571.967,157.546 574.098,153.62 576.23,148.712 578.361,160 580.492,149.202 582.623,149.693 584.754,134.969 586.885,146.258 589.016,145.767 591.148,146.258 593.279,150.184 595.41,154.11 597.541,154.601 599.672,154.11 601.803,157.055 603.934,156.564 606.066,159.509 608.197,160 610.328,160 612.459,160 614.59,160 616.721,160 618.852,160 620.984,160 623.115,160 625.246,158.528 627.377,159.509 629.508,160 631.639,160 633.77,159.509 635.902,142.331 638.033,144.785 640.164,157.055 642.295,158.528 644.426,160 646.557,160 648.689,159.509 650.82,160 652.951,160 655.082,159.018 657.213,153.62 659.344,159.018 661.475,160 663.607,160 665.738,149.693 667.869,155.583 670,158.528 672.131,156.074 674.262,155.583 676.393,159.509 678.525,159.509 680.656,160 682.787,160 684.918,151.656 687.049,140.859 689.18,155.092 691.311,160 693.443,141.84 695.574,150.184 697.705,152.147 699.836,160 701.967,160 704.098,160 706.23,160 708.361,160 710.492,160 712.623,160 714.754,160 716.885,160 719.016,160 721.148,160 723.279,160 725.41,158.037 727.541,160 729.672,160 731.803,160 733.934,160 736.066,160 738.197,160 740.328,160 742.459,160 744.59,160 746.721,160 748.852,160 750.984,160 753.115,160 755.246,160 757.377,156.564 759.508,154.601 761.639,160 763.77,160 765.902,160 768.033,160 770.164,159.509 772.295,160 774.426,160 776.557,159.509 778.689,159.509 780.82,160 782.951,159.509 785.082,160 787.213,160 789.344,156.074 791.475,159.509 793.607,159.509 795.738,160 797.869,158.037 800,160 800,160" fill="var(--pill)" opacity="0.6"/>
  <polyline points="20,160 22.1311,160 24.2623,160 26.3934,160 28.5246,160 30.6557,160 32.7869,160 34.918,160 37.0492,160 39.1803,160 41.3115,160 43.4426,160 45.5738,160 47.7049,160 49.8361,160 51.9672,160 54.0984,160 56.2295,160 58.3607,160 60.4918,160 62.623,160 64.7541,160 66.8852,160 69.0164,159.018 71.1475,160 73.2787,160 75.4098,160 77.541,145.276 79.6721,155.583 81.8033,157.546 83.9344,155.583 86.0656,157.055 88.1967,156.074 90.3279,160 92.459,160 94.5902,160 96.7213,158.037 98.8525,159.018 100.984,158.037 103.115,156.564 105.246,160 107.377,158.528 109.508,156.564 111.639,160 113.77,154.11 115.902,149.202 118.033,149.202 120.164,153.62 122.295,141.84 124.426,154.601 126.557,160 128.689,154.601 130.82,160 132.951,160 135.082,157.546 137.213,148.221 139.344,159.018 141.475,160 143.607,158.037 145.738,160 147.869,159.509 150,160 152.131,160 154.262,160 156.393,160 158.525,151.656 160.656,155.583 162.787,156.074 164.918,157.546 167.049,150.675 169.18,160 171.311,158.037 173.443,156.564 175.574,158.037 177.705,156.074 179.836,160 181.967,154.11 184.098,160 186.23,159.509 188.361,160 190.492,160 192.623,157.546 194.754,160 196.885,160 199.016,160 201.148,160 203.279,160 205.41,160 207.541,160 209.672,160 211.803,160 213.934,160 216.066,160 218.197,160 220.328,160 222.459,160 224.59,160 226.721,160 228.852,154.601 230.984,158.037 233.115,160 235.246,160 237.377,160 239.508,160 241.639,160 243.77,160 245.902,160 248.033,160 250.164,160 252.295,160 254.426,160 256.557,160 258.689,160 260.82,160 262.951,160 265.082,160 267.213,160 269.344,160 271.475,160 273.607,160 275.738,160 277.869,157.055 280,160 282.131,160 284.262,160 286.393,160 288.525,155.092 290.656,160 292.787,160 294.918,160 297.049,160 299.18,137.423 301.311,153.62 303.443,80 305.574,155.092 307.705,149.202 309.836,155.092 311.967,158.037 314.098,158.528 316.23,159.509 318.361,156.074 320.492,160 322.623,159.018 324.754,160 326.885,159.509 329.016,159.018 331.148,159.509 333.279,160 335.41,158.528 337.541,160 339.672,159.018 341.803,159.018 343.934,157.546 346.066,157.055 348.197,160 350.328,160 352.459,159.509 354.59,159.509 356.721,158.528 358.852,159.509 360.984,157.055 363.115,157.055 365.246,159.018 367.377,158.528 369.508,147.239 371.639,157.055 373.77,129.08 375.902,147.239 378.033,153.129 380.164,160 382.295,160 384.426,160 386.557,151.656 388.689,158.528 390.82,160 392.951,160 395.082,138.405 397.213,158.528 399.344,160 401.475,160 403.607,160 405.738,160 407.869,160 410,160 412.131,160 414.262,160 416.393,160 418.525,160 420.656,160 422.787,160 424.918,160 427.049,160 429.18,160 431.311,159.509 433.443,160 435.574,160 437.705,160 439.836,160 441.967,160 444.098,160 446.23,160 448.361,160 450.492,160 452.623,159.509 454.754,158.037 456.885,160 459.016,160 461.148,160 463.279,160 465.41,160 467.541,160 469.672,160 471.803,160 473.934,160 476.066,160 478.197,160 480.328,159.509 482.459,158.037 484.59,157.055 486.721,160 488.852,160 490.984,160 493.115,156.564 495.246,157.546 497.377,147.239 499.508,160 501.639,160 503.77,160 505.902,155.092 508.033,148.221 510.164,160 512.295,160 514.426,158.037 516.557,160 518.689,158.037 520.82,160 522.951,160 525.082,160 527.213,160 529.344,160 531.475,160 533.607,159.018 535.738,144.294 537.869,159.018 540,160 542.131,139.387 544.262,121.718 546.393,120.736 548.525,147.73 550.656,146.258 552.787,157.055 554.918,160 557.049,160 559.18,160 561.311,160 563.443,160 565.574,160 567.705,160 569.836,160 571.967,157.546 574.098,153.62 576.23,148.712 578.361,160 580.492,149.202 582.623,149.693 584.754,134.969 586.885,146.258 589.016,145.767 591.148,146.258 593.279,150.184 595.41,154.11 597.541,154.601 599.672,154.11 601.803,157.055 603.934,156.564 606.066,159.509 608.197,160 610.328,160 612.459,160 614.59,160 616.721,160 618.852,160 620.984,160 623.115,160 625.246,158.528 627.377,159.509 629.508,160 631.639,160 633.77,159.509 635.902,142.331 638.033,144.785 640.164,157.055 642.295,158.528 644.426,160 646.557,160 648.689,159.509 650.82,160 652.951,160 655.082,159.018 657.213,153.62 659.344,159.018 661.475,160 663.607,160 665.738,149.693 667.869,155.583 670,158.528 672.131,156.074 674.262,155.583 676.393,159.509 678.525,159.509 680.656,160 682.787,160 684.918,151.656 687.049,140.859 689.18,155.092 691.311,160 693.443,141.84 695.574,150.184 697.705,152.147 699.836,160 701.967,160 704.098,160 706.23,160 708.361,160 710.492,160 712.623,160 714.754,160 716.885,160 719.016,160 721.148,160 723.279,160 725.41,158.037 727.541,160 729.672,160 731.803,160 733.934,160 736.066,160 738.197,160 740.328,160 742.459,160 744.59,160 746.721,160 748.852,160 750.984,160 753.115,160 755.246,160 757.377,156.564 759.508,154.601 761.639,160 763.77,160 765.902,160 768.033,160 770.164,159.509 772.295,160 774.426,160 776.557,159.509 778.689,159.509 780.82,160 782.951,159.509 785.082,160 787.213,160 789.344,156.074 791.475,159.509 793.607,159.509 795.738,160 797.869,158.037 800,160" fill="none" stroke="var(--accent)" stroke-width="1.5" stroke-linecap="round" stroke-linejoin="round"/>
</svg>

