<svg xmlns="http://www.w3.org/2000/svg" width="820" height="180" viewBox="0 0 820 180">

<style>
  :root {
    --bg:        #f6f8fa;
    --card:      #ffffff;
    --border:    #d0d7de;
    --primary:   #1f2328;
    --secondary: #636c76;
    --muted:     #8c959f;
    --accent:    #0969da;
    --green:     #1a7f37;
    --yellow:    #9a6700;
    --red:       #cf222e;
    --hover:     #f3f4f6;
    --spark-bg:  #f0f3f6;
    --spark:     #0969da;
    --pill:      #eaf1fb;
    --pill-txt:  #0969da;
    --div:       #d0d7de;
  }
  @media (prefers-color-scheme: dark) {
    :root {
      --bg:        #0d1117;
      --card:      #161b22;
      --border:    #30363d;
      --primary:   #e6edf3;
      --secondary: #848d97;
      --muted:     #7d8590;
      --accent:    #2f81f7;
      --green:     #3fb950;
      --yellow:    #d29922;
      --red:       #f85149;
      --hover:     #21262d;
      --spark-bg:  #1c2128;
      --spark:     #58a6ff;
      --pill:      #1c2d3f;
      --pill-txt:  #58a6ff;
      --div:       #30363d;
    }
  }
  
  .bg          { fill: var(--bg); }
  .card        { fill: var(--card); stroke: var(--border); stroke-width: 1; }
  .lang-pill   { fill: var(--pill); }
  .spark-bg    { fill: var(--spark-bg); }
  .spark-line  { stroke: var(--spark); }
  .divider     { stroke: var(--div); stroke-width: 1; }
  .clr-primary   { fill: var(--primary); }
  .clr-secondary { fill: var(--secondary); }
  .clr-muted     { fill: var(--muted); }
  .clr-accent    { fill: var(--accent); }
  .clr-green     { fill: var(--green); }
  .clr-yellow    { fill: var(--yellow); }
  .clr-red       { fill: var(--red); }
  .txt-bold    { font-weight: 600; }
  svg text     { font-family: -apple-system, BlinkMacSystemFont, "Segoe UI", Helvetica, Arial, sans-serif; }
</style>

<rect x="0" y="0" width="820" height="180" rx="8" class="card"/>
  <text x="20" y="24" class="clr-primary txt-bold" text-anchor="start" font-size="14">Contribution History &amp; Activity</text>
  <line x1="20" y1="36" x2="800" y2="36" class="divider"/>
  <text x="20" y="60" class="clr-muted" text-anchor="start" font-size="12">Years Active:</text>
  <text x="100" y="60" class="clr-primary txt-bold" text-anchor="start" font-size="12">5.6</text>
  <text x="160" y="60" class="clr-muted" text-anchor="start" font-size="12">Commits (Last Year):</text>
  <text x="290" y="60" class="clr-primary txt-bold" text-anchor="start" font-size="12">1170</text>
  <text x="360" y="60" class="clr-muted" text-anchor="start" font-size="12">Highest Daily:</text>
  <text x="450" y="60" class="clr-primary txt-bold" text-anchor="start" font-size="12">163</text>
  <polygon points="20,160 20,160 22.1311,160 24.2623,160 26.3934,160 28.5246,159.018 30.6557,160 32.7869,160 34.918,160 37.0492,160 39.1803,160 41.3115,160 43.4426,160 45.5738,160 47.7049,160 49.8361,160 51.9672,160 54.0984,160 56.2295,160 58.3607,160 60.4918,160 62.623,160 64.7541,160 66.8852,160 69.0164,160 71.1475,160 73.2787,160 75.4098,160 77.541,160 79.6721,160 81.8033,160 83.9344,160 86.0656,160 88.1967,160 90.3279,160 92.459,160 94.5902,160 96.7213,160 98.8525,160 100.984,160 103.115,159.509 105.246,160 107.377,160 109.508,160 111.639,160 113.77,160 115.902,160 118.033,160 120.164,160 122.295,160 124.426,160 126.557,160 128.689,160 130.82,160 132.951,160 135.082,160 137.213,160 139.344,160 141.475,160 143.607,160 145.738,160 147.869,160 150,160 152.131,160 154.262,160 156.393,160 158.525,159.018 160.656,160 162.787,160 164.918,160 167.049,145.276 169.18,155.583 171.311,157.546 173.443,155.583 175.574,157.055 177.705,156.074 179.836,160 181.967,160 184.098,160 186.23,158.037 188.361,159.018 190.492,158.037 192.623,156.564 194.754,160 196.885,158.528 199.016,156.564 201.148,160 203.279,154.11 205.41,149.202 207.541,149.202 209.672,153.62 211.803,141.84 213.934,154.601 216.066,160 218.197,154.601 220.328,160 222.459,160 224.59,157.546 226.721,148.221 228.852,159.018 230.984,160 233.115,158.037 235.246,160 237.377,159.509 239.508,160 241.639,160 243.77,160 245.902,160 248.033,151.656 250.164,155.583 252.295,156.074 254.426,157.546 256.557,150.675 258.689,160 260.82,158.037 262.951,156.564 265.082,158.037 267.213,156.074 269.344,160 271.475,154.11 273.607,160 275.738,159.509 277.869,160 280,160 282.131,157.546 284.262,160 286.393,160 288.525,160 290.656,160 292.787,160 294.918,160 297.049,160 299.18,160 301.311,160 303.443,160 305.574,160 307.705,160 309.836,160 311.967,160 314.098,160 316.23,160 318.361,154.601 320.492,158.037 322.623,160 324.754,160 326.885,160 329.016,160 331.148,160 333.279,160 335.41,160 337.541,160 339.672,160 341.803,160 343.934,160 346.066,160 348.197,160 350.328,160 352.459,160 354.59,160 356.721,160 358.852,160 360.984,160 363.115,160 365.246,160 367.377,157.055 369.508,160 371.639,160 373.77,160 375.902,160 378.033,155.092 380.164,160 382.295,160 384.426,160 386.557,160 388.689,137.423 390.82,153.62 392.951,80 395.082,155.092 397.213,149.202 399.344,155.092 401.475,158.037 403.607,158.528 405.738,159.509 407.869,156.074 410,160 412.131,159.018 414.262,160 416.393,159.509 418.525,159.018 420.656,159.509 422.787,160 424.918,158.528 427.049,160 429.18,159.018 431.311,159.018 433.443,157.546 435.574,157.055 437.705,160 439.836,160 441.967,159.509 444.098,159.509 446.23,158.528 448.361,159.509 450.492,157.055 452.623,157.055 454.754,159.018 456.885,158.528 459.016,147.239 461.148,157.055 463.279,129.08 465.41,147.239 467.541,153.129 469.672,160 471.803,160 473.934,160 476.066,151.656 478.197,158.528 480.328,160 482.459,160 484.59,138.405 486.721,158.528 488.852,160 490.984,160 493.115,160 495.246,160 497.377,160 499.508,160 501.639,160 503.77,160 505.902,160 508.033,160 510.164,160 512.295,160 514.426,160 516.557,160 518.689,160 520.82,159.509 522.951,160 525.082,160 527.213,160 529.344,160 531.475,160 533.607,160 535.738,160 537.869,160 540,160 542.131,159.509 544.262,158.037 546.393,160 548.525,160 550.656,160 552.787,160 554.918,160 557.049,160 559.18,160 561.311,160 563.443,160 565.574,160 567.705,160 569.836,159.509 571.967,158.037 574.098,157.055 576.23,160 578.361,160 580.492,160 582.623,156.564 584.754,157.546 586.885,147.239 589.016,160 591.148,160 593.279,160 595.41,155.092 597.541,148.221 599.672,160 601.803,160 603.934,158.037 606.066,160 608.197,158.037 610.328,160 612.459,160 614.59,160 616.721,160 618.852,160 620.984,160 623.115,159.018 625.246,144.294 627.377,159.018 629.508,160 631.639,139.387 633.77,121.718 635.902,120.736 638.033,147.73 640.164,146.258 642.295,157.055 644.426,160 646.557,160 648.689,160 650.82,160 652.951,160 655.082,160 657.213,160 659.344,160 661.475,157.546 663.607,153.62 665.738,148.712 667.869,160 670,149.202 672.131,149.693 674.262,134.969 676.393,146.258 678.525,145.767 680.656,146.258 682.787,150.184 684.918,154.11 687.049,154.601 689.18,154.11 691.311,157.055 693.443,156.564 695.574,159.509 697.705,160 699.836,160 701.967,160 704.098,160 706.23,160 708.361,160 710.492,160 712.623,160 714.754,158.528 716.885,159.509 719.016,160 721.148,160 723.279,159.509 725.41,142.331 727.541,144.785 729.672,157.055 731.803,158.528 733.934,160 736.066,160 738.197,159.509 740.328,160 742.459,160 744.59,159.018 746.721,153.62 748.852,159.018 750.984,160 753.115,160 755.246,149.693 757.377,155.583 759.508,158.528 761.639,156.074 763.77,155.583 765.902,159.509 768.033,159.509 770.164,160 772.295,160 774.426,151.656 776.557,140.859 778.689,155.092 780.82,160 782.951,141.84 785.082,150.184 787.213,152.147 789.344,160 791.475,160 793.607,160 795.738,160 797.869,160 800,160 800,160" fill="var(--pill)" opacity="0.6"/>
  <polyline points="20,160 22.1311,160 24.2623,160 26.3934,160 28.5246,159.018 30.6557,160 32.7869,160 34.918,160 37.0492,160 39.1803,160 41.3115,160 43.4426,160 45.5738,160 47.7049,160 49.8361,160 51.9672,160 54.0984,160 56.2295,160 58.3607,160 60.4918,160 62.623,160 64.7541,160 66.8852,160 69.0164,160 71.1475,160 73.2787,160 75.4098,160 77.541,160 79.6721,160 81.8033,160 83.9344,160 86.0656,160 88.1967,160 90.3279,160 92.459,160 94.5902,160 96.7213,160 98.8525,160 100.984,160 103.115,159.509 105.246,160 107.377,160 109.508,160 111.639,160 113.77,160 115.902,160 118.033,160 120.164,160 122.295,160 124.426,160 126.557,160 128.689,160 130.82,160 132.951,160 135.082,160 137.213,160 139.344,160 141.475,160 143.607,160 145.738,160 147.869,160 150,160 152.131,160 154.262,160 156.393,160 158.525,159.018 160.656,160 162.787,160 164.918,160 167.049,145.276 169.18,155.583 171.311,157.546 173.443,155.583 175.574,157.055 177.705,156.074 179.836,160 181.967,160 184.098,160 186.23,158.037 188.361,159.018 190.492,158.037 192.623,156.564 194.754,160 196.885,158.528 199.016,156.564 201.148,160 203.279,154.11 205.41,149.202 207.541,149.202 209.672,153.62 211.803,141.84 213.934,154.601 216.066,160 218.197,154.601 220.328,160 222.459,160 224.59,157.546 226.721,148.221 228.852,159.018 230.984,160 233.115,158.037 235.246,160 237.377,159.509 239.508,160 241.639,160 243.77,160 245.902,160 248.033,151.656 250.164,155.583 252.295,156.074 254.426,157.546 256.557,150.675 258.689,160 260.82,158.037 262.951,156.564 265.082,158.037 267.213,156.074 269.344,160 271.475,154.11 273.607,160 275.738,159.509 277.869,160 280,160 282.131,157.546 284.262,160 286.393,160 288.525,160 290.656,160 292.787,160 294.918,160 297.049,160 299.18,160 301.311,160 303.443,160 305.574,160 307.705,160 309.836,160 311.967,160 314.098,160 316.23,160 318.361,154.601 320.492,158.037 322.623,160 324.754,160 326.885,160 329.016,160 331.148,160 333.279,160 335.41,160 337.541,160 339.672,160 341.803,160 343.934,160 346.066,160 348.197,160 350.328,160 352.459,160 354.59,160 356.721,160 358.852,160 360.984,160 363.115,160 365.246,160 367.377,157.055 369.508,160 371.639,160 373.77,160 375.902,160 378.033,155.092 380.164,160 382.295,160 384.426,160 386.557,160 388.689,137.423 390.82,153.62 392.951,80 395.082,155.092 397.213,149.202 399.344,155.092 401.475,158.037 403.607,158.528 405.738,159.509 407.869,156.074 410,160 412.131,159.018 414.262,160 416.393,159.509 418.525,159.018 420.656,159.509 422.787,160 424.918,158.528 427.049,160 429.18,159.018 431.311,159.018 433.443,157.546 435.574,157.055 437.705,160 439.836,160 441.967,159.509 444.098,159.509 446.23,158.528 448.361,159.509 450.492,157.055 452.623,157.055 454.754,159.018 456.885,158.528 459.016,147.239 461.148,157.055 463.279,129.08 465.41,147.239 467.541,153.129 469.672,160 471.803,160 473.934,160 476.066,151.656 478.197,158.528 480.328,160 482.459,160 484.59,138.405 486.721,158.528 488.852,160 490.984,160 493.115,160 495.246,160 497.377,160 499.508,160 501.639,160 503.77,160 505.902,160 508.033,160 510.164,160 512.295,160 514.426,160 516.557,160 518.689,160 520.82,159.509 522.951,160 525.082,160 527.213,160 529.344,160 531.475,160 533.607,160 535.738,160 537.869,160 540,160 542.131,159.509 544.262,158.037 546.393,160 548.525,160 550.656,160 552.787,160 554.918,160 557.049,160 559.18,160 561.311,160 563.443,160 565.574,160 567.705,160 569.836,159.509 571.967,158.037 574.098,157.055 576.23,160 578.361,160 580.492,160 582.623,156.564 584.754,157.546 586.885,147.239 589.016,160 591.148,160 593.279,160 595.41,155.092 597.541,148.221 599.672,160 601.803,160 603.934,158.037 606.066,160 608.197,158.037 610.328,160 612.459,160 614.59,160 616.721,160 618.852,160 620.984,160 623.115,159.018 625.246,144.294 627.377,159.018 629.508,160 631.639,139.387 633.77,121.718 635.902,120.736 638.033,147.73 640.164,146.258 642.295,157.055 644.426,160 646.557,160 648.689,160 650.82,160 652.951,160 655.082,160 657.213,160 659.344,160 661.475,157.546 663.607,153.62 665.738,148.712 667.869,160 670,149.202 672.131,149.693 674.262,134.969 676.393,146.258 678.525,145.767 680.656,146.258 682.787,150.184 684.918,154.11 687.049,154.601 689.18,154.11 691.311,157.055 693.443,156.564 695.574,159.509 697.705,160 699.836,160 701.967,160 704.098,160 706.23,160 708.361,160 710.492,160 712.623,160 714.754,158.528 716.885,159.509 719.016,160 721.148,160 723.279,159.509 725.41,142.331 727.541,144.785 729.672,157.055 731.803,158.528 733.934,160 736.066,160 738.197,159.509 740.328,160 742.459,160 744.59,159.018 746.721,153.62 748.852,159.018 750.984,160 753.115,160 755.246,149.693 757.377,155.583 759.508,158.528 761.639,156.074 763.77,155.583 765.902,159.509 768.033,159.509 770.164,160 772.295,160 774.426,151.656 776.557,140.859 778.689,155.092 780.82,160 782.951,141.84 785.082,150.184 787.213,152.147 789.344,160 791.475,160 793.607,160 795.738,160 797.869,160 800,160" fill="none" stroke="var(--accent)" stroke-width="1.5" stroke-linecap="round" stroke-linejoin="round"/>
</svg>

