<svg xmlns="http://www.w3.org/2000/svg" width="820" height="180" viewBox="0 0 820 180">

<style>
  :root {
    --bg:        #f6f8fa;
    --card:      #ffffff;
    --border:    #d0d7de;
    --primary:   #1f2328;
    --secondary: #636c76;
    --muted:     #8c959f;
    --accent:    #0969da;
    --green:     #1a7f37;
    --yellow:    #9a6700;
    --red:       #cf222e;
    --hover:     #f3f4f6;
    --spark-bg:  #f0f3f6;
    --spark:     #0969da;
    --pill:      #eaf1fb;
    --pill-txt:  #0969da;
    --div:       #d0d7de;
  }
  @media (prefers-color-scheme: dark) {
    :root {
      --bg:        #0d1117;
      --card:      #161b22;
      --border:    #30363d;
      --primary:   #e6edf3;
      --secondary: #848d97;
      --muted:     #7d8590;
      --accent:    #2f81f7;
      --green:     #3fb950;
      --yellow:    #d29922;
      --red:       #f85149;
      --hover:     #21262d;
      --spark-bg:  #1c2128;
      --spark:     #58a6ff;
      --pill:      #1c2d3f;
      --pill-txt:  #58a6ff;
      --div:       #30363d;
    }
  }
  
  .bg          { fill: var(--bg); }
  .card        { fill: var(--card); stroke: var(--border); stroke-width: 1; }
  .lang-pill   { fill: var(--pill); }
  .spark-bg    { fill: var(--spark-bg); }
  .spark-line  { stroke: var(--spark); }
  .divider     { stroke: var(--div); stroke-width: 1; }
  .clr-primary   { fill: var(--primary); }
  .clr-secondary { fill: var(--secondary); }
  .clr-muted     { fill: var(--muted); }
  .clr-accent    { fill: var(--accent); }
  .clr-green     { fill: var(--green); }
  .clr-yellow    { fill: var(--yellow); }
  .clr-red       { fill: var(--red); }
  .txt-bold    { font-weight: 600; }
  svg text     { font-family: -apple-system, BlinkMacSystemFont, "Segoe UI", Helvetica, Arial, sans-serif; }
</style>

<rect x="0" y="0" width="820" height="180" rx="8" class="card"/>
  <text x="20" y="24" class="clr-primary txt-bold" text-anchor="start" font-size="14">Contribution History &amp; Activity</text>
  <line x1="20" y1="36" x2="800" y2="36" class="divider"/>
  <text x="20" y="60" class="clr-muted" text-anchor="start" font-size="12">Years Active:</text>
  <text x="100" y="60" class="clr-primary txt-bold" text-anchor="start" font-size="12">5.8</text>
  <text x="160" y="60" class="clr-muted" text-anchor="start" font-size="12">Commits (Last Year):</text>
  <text x="290" y="60" class="clr-primary txt-bold" text-anchor="start" font-size="12">1201</text>
  <text x="360" y="60" class="clr-muted" text-anchor="start" font-size="12">Highest Daily:</text>
  <text x="450" y="60" class="clr-primary txt-bold" text-anchor="start" font-size="12">163</text>
  <polygon points="20,160 20,155.583 22.1081,157.546 24.2162,155.583 26.3243,157.055 28.4324,156.074 30.5405,160 32.6486,160 34.7568,160 36.8649,158.037 38.973,159.018 41.0811,158.037 43.1892,156.564 45.2973,160 47.4054,158.528 49.5135,156.564 51.6216,160 53.7297,154.11 55.8378,149.202 57.9459,149.202 60.0541,153.62 62.1622,141.84 64.2703,154.601 66.3784,160 68.4865,154.601 70.5946,160 72.7027,160 74.8108,157.546 76.9189,148.221 79.027,159.018 81.1351,160 83.2432,158.037 85.3514,160 87.4595,159.509 89.5676,160 91.6757,160 93.7838,160 95.8919,160 98,151.656 100.108,155.583 102.216,156.074 104.324,157.546 106.432,150.675 108.541,160 110.649,158.037 112.757,156.564 114.865,158.037 116.973,156.074 119.081,160 121.189,154.11 123.297,160 125.405,159.509 127.514,160 129.622,160 131.73,157.546 133.838,160 135.946,160 138.054,160 140.162,160 142.27,160 144.378,160 146.486,160 148.595,160 150.703,160 152.811,160 154.919,160 157.027,160 159.135,160 161.243,160 163.351,160 165.459,160 167.568,154.601 169.676,158.037 171.784,160 173.892,160 176,160 178.108,160 180.216,160 182.324,160 184.432,160 186.541,160 188.649,160 190.757,160 192.865,160 194.973,160 197.081,160 199.189,160 201.297,160 203.405,160 205.514,160 207.622,160 209.73,160 211.838,160 213.946,160 216.054,157.055 218.162,160 220.27,160 222.378,160 224.486,160 226.595,155.092 228.703,160 230.811,160 232.919,160 235.027,160 237.135,137.423 239.243,153.62 241.351,80 243.459,155.092 245.568,149.202 247.676,155.092 249.784,158.037 251.892,158.528 254,159.509 256.108,156.074 258.216,160 260.324,159.018 262.432,160 264.541,159.509 266.649,159.018 268.757,159.509 270.865,160 272.973,158.528 275.081,160 277.189,159.018 279.297,159.018 281.405,157.546 283.514,157.055 285.622,160 287.73,160 289.838,159.509 291.946,159.509 294.054,158.528 296.162,159.509 298.27,157.055 300.378,157.055 302.486,159.018 304.595,158.528 306.703,147.239 308.811,157.055 310.919,129.08 313.027,147.239 315.135,153.129 317.243,160 319.351,160 321.459,160 323.568,151.656 325.676,158.528 327.784,160 329.892,160 332,138.405 334.108,158.528 336.216,160 338.324,160 340.432,160 342.541,160 344.649,160 346.757,160 348.865,160 350.973,160 353.081,160 355.189,160 357.297,160 359.405,160 361.514,160 363.622,160 365.73,160 367.838,159.509 369.946,160 372.054,160 374.162,160 376.27,160 378.378,160 380.486,160 382.595,160 384.703,160 386.811,160 388.919,159.509 391.027,158.037 393.135,160 395.243,160 397.351,160 399.459,160 401.568,160 403.676,160 405.784,160 407.892,160 410,160 412.108,160 414.216,160 416.324,159.509 418.432,158.037 420.541,157.055 422.649,160 424.757,160 426.865,160 428.973,156.564 431.081,157.546 433.189,147.239 435.297,160 437.405,160 439.514,160 441.622,155.092 443.73,148.221 445.838,160 447.946,160 450.054,158.037 452.162,160 454.27,158.037 456.378,160 458.486,160 460.595,160 462.703,160 464.811,160 466.919,160 469.027,159.018 471.135,144.294 473.243,159.018 475.351,160 477.459,139.387 479.568,121.718 481.676,120.736 483.784,147.73 485.892,146.258 488,157.055 490.108,160 492.216,160 494.324,160 496.432,160 498.541,160 500.649,160 502.757,160 504.865,160 506.973,157.546 509.081,153.62 511.189,148.712 513.297,160 515.405,149.202 517.514,149.693 519.622,134.969 521.73,146.258 523.838,145.767 525.946,146.258 528.054,150.184 530.162,154.11 532.27,154.601 534.378,154.11 536.486,157.055 538.595,156.564 540.703,159.509 542.811,160 544.919,160 547.027,160 549.135,160 551.243,160 553.351,160 555.459,160 557.568,160 559.676,158.528 561.784,159.509 563.892,160 566,160 568.108,159.509 570.216,142.331 572.324,144.785 574.432,157.055 576.541,158.528 578.649,160 580.757,160 582.865,159.509 584.973,160 587.081,160 589.189,159.018 591.297,153.62 593.405,159.018 595.514,160 597.622,160 599.73,149.693 601.838,155.583 603.946,158.528 606.054,156.074 608.162,155.583 610.27,159.509 612.378,159.509 614.486,160 616.595,160 618.703,151.656 620.811,140.859 622.919,155.092 625.027,160 627.135,141.84 629.243,150.184 631.351,152.147 633.459,160 635.568,160 637.676,160 639.784,160 641.892,160 644,160 646.108,160 648.216,160 650.324,160 652.432,160 654.541,160 656.649,160 658.757,158.037 660.865,160 662.973,160 665.081,160 667.189,160 669.297,160 671.405,160 673.514,160 675.622,160 677.73,160 679.838,160 681.946,160 684.054,160 686.162,160 688.27,160 690.378,156.564 692.486,154.601 694.595,160 696.703,160 698.811,160 700.919,160 703.027,159.509 705.135,160 707.243,160 709.351,159.509 711.459,159.509 713.568,160 715.676,159.509 717.784,160 719.892,160 722,156.074 724.108,159.509 726.216,159.509 728.324,160 730.432,158.037 732.541,160 734.649,160 736.757,160 738.865,160 740.973,160 743.081,160 745.189,160 747.297,150.184 749.405,158.528 751.514,159.509 753.622,159.018 755.73,160 757.838,160 759.946,160 762.054,160 764.162,160 766.27,160 768.378,160 770.486,160 772.595,160 774.703,160 776.811,160 778.919,160 781.027,160 783.135,160 785.243,160 787.351,160 789.459,159.018 791.568,160 793.676,159.018 795.784,158.037 797.892,159.509 800,160 800,160" fill="var(--pill)" opacity="0.6"/>
  <polyline points="20,155.583 22.1081,157.546 24.2162,155.583 26.3243,157.055 28.4324,156.074 30.5405,160 32.6486,160 34.7568,160 36.8649,158.037 38.973,159.018 41.0811,158.037 43.1892,156.564 45.2973,160 47.4054,158.528 49.5135,156.564 51.6216,160 53.7297,154.11 55.8378,149.202 57.9459,149.202 60.0541,153.62 62.1622,141.84 64.2703,154.601 66.3784,160 68.4865,154.601 70.5946,160 72.7027,160 74.8108,157.546 76.9189,148.221 79.027,159.018 81.1351,160 83.2432,158.037 85.3514,160 87.4595,159.509 89.5676,160 91.6757,160 93.7838,160 95.8919,160 98,151.656 100.108,155.583 102.216,156.074 104.324,157.546 106.432,150.675 108.541,160 110.649,158.037 112.757,156.564 114.865,158.037 116.973,156.074 119.081,160 121.189,154.11 123.297,160 125.405,159.509 127.514,160 129.622,160 131.73,157.546 133.838,160 135.946,160 138.054,160 140.162,160 142.27,160 144.378,160 146.486,160 148.595,160 150.703,160 152.811,160 154.919,160 157.027,160 159.135,160 161.243,160 163.351,160 165.459,160 167.568,154.601 169.676,158.037 171.784,160 173.892,160 176,160 178.108,160 180.216,160 182.324,160 184.432,160 186.541,160 188.649,160 190.757,160 192.865,160 194.973,160 197.081,160 199.189,160 201.297,160 203.405,160 205.514,160 207.622,160 209.73,160 211.838,160 213.946,160 216.054,157.055 218.162,160 220.27,160 222.378,160 224.486,160 226.595,155.092 228.703,160 230.811,160 232.919,160 235.027,160 237.135,137.423 239.243,153.62 241.351,80 243.459,155.092 245.568,149.202 247.676,155.092 249.784,158.037 251.892,158.528 254,159.509 256.108,156.074 258.216,160 260.324,159.018 262.432,160 264.541,159.509 266.649,159.018 268.757,159.509 270.865,160 272.973,158.528 275.081,160 277.189,159.018 279.297,159.018 281.405,157.546 283.514,157.055 285.622,160 287.73,160 289.838,159.509 291.946,159.509 294.054,158.528 296.162,159.509 298.27,157.055 300.378,157.055 302.486,159.018 304.595,158.528 306.703,147.239 308.811,157.055 310.919,129.08 313.027,147.239 315.135,153.129 317.243,160 319.351,160 321.459,160 323.568,151.656 325.676,158.528 327.784,160 329.892,160 332,138.405 334.108,158.528 336.216,160 338.324,160 340.432,160 342.541,160 344.649,160 346.757,160 348.865,160 350.973,160 353.081,160 355.189,160 357.297,160 359.405,160 361.514,160 363.622,160 365.73,160 367.838,159.509 369.946,160 372.054,160 374.162,160 376.27,160 378.378,160 380.486,160 382.595,160 384.703,160 386.811,160 388.919,159.509 391.027,158.037 393.135,160 395.243,160 397.351,160 399.459,160 401.568,160 403.676,160 405.784,160 407.892,160 410,160 412.108,160 414.216,160 416.324,159.509 418.432,158.037 420.541,157.055 422.649,160 424.757,160 426.865,160 428.973,156.564 431.081,157.546 433.189,147.239 435.297,160 437.405,160 439.514,160 441.622,155.092 443.73,148.221 445.838,160 447.946,160 450.054,158.037 452.162,160 454.27,158.037 456.378,160 458.486,160 460.595,160 462.703,160 464.811,160 466.919,160 469.027,159.018 471.135,144.294 473.243,159.018 475.351,160 477.459,139.387 479.568,121.718 481.676,120.736 483.784,147.73 485.892,146.258 488,157.055 490.108,160 492.216,160 494.324,160 496.432,160 498.541,160 500.649,160 502.757,160 504.865,160 506.973,157.546 509.081,153.62 511.189,148.712 513.297,160 515.405,149.202 517.514,149.693 519.622,134.969 521.73,146.258 523.838,145.767 525.946,146.258 528.054,150.184 530.162,154.11 532.27,154.601 534.378,154.11 536.486,157.055 538.595,156.564 540.703,159.509 542.811,160 544.919,160 547.027,160 549.135,160 551.243,160 553.351,160 555.459,160 557.568,160 559.676,158.528 561.784,159.509 563.892,160 566,160 568.108,159.509 570.216,142.331 572.324,144.785 574.432,157.055 576.541,158.528 578.649,160 580.757,160 582.865,159.509 584.973,160 587.081,160 589.189,159.018 591.297,153.62 593.405,159.018 595.514,160 597.622,160 599.73,149.693 601.838,155.583 603.946,158.528 606.054,156.074 608.162,155.583 610.27,159.509 612.378,159.509 614.486,160 616.595,160 618.703,151.656 620.811,140.859 622.919,155.092 625.027,160 627.135,141.84 629.243,150.184 631.351,152.147 633.459,160 635.568,160 637.676,160 639.784,160 641.892,160 644,160 646.108,160 648.216,160 650.324,160 652.432,160 654.541,160 656.649,160 658.757,158.037 660.865,160 662.973,160 665.081,160 667.189,160 669.297,160 671.405,160 673.514,160 675.622,160 677.73,160 679.838,160 681.946,160 684.054,160 686.162,160 688.27,160 690.378,156.564 692.486,154.601 694.595,160 696.703,160 698.811,160 700.919,160 703.027,159.509 705.135,160 707.243,160 709.351,159.509 711.459,159.509 713.568,160 715.676,159.509 717.784,160 719.892,160 722,156.074 724.108,159.509 726.216,159.509 728.324,160 730.432,158.037 732.541,160 734.649,160 736.757,160 738.865,160 740.973,160 743.081,160 745.189,160 747.297,150.184 749.405,158.528 751.514,159.509 753.622,159.018 755.73,160 757.838,160 759.946,160 762.054,160 764.162,160 766.27,160 768.378,160 770.486,160 772.595,160 774.703,160 776.811,160 778.919,160 781.027,160 783.135,160 785.243,160 787.351,160 789.459,159.018 791.568,160 793.676,159.018 795.784,158.037 797.892,159.509 800,160" fill="none" stroke="var(--accent)" stroke-width="1.5" stroke-linecap="round" stroke-linejoin="round"/>
</svg>

