<svg xmlns="http://www.w3.org/2000/svg" width="820" height="180" viewBox="0 0 820 180">

<style>
  :root {
    --bg:        #f6f8fa;
    --card:      #ffffff;
    --border:    #d0d7de;
    --primary:   #1f2328;
    --secondary: #636c76;
    --muted:     #8c959f;
    --accent:    #0969da;
    --green:     #1a7f37;
    --yellow:    #9a6700;
    --red:       #cf222e;
    --hover:     #f3f4f6;
    --spark-bg:  #f0f3f6;
    --spark:     #0969da;
    --pill:      #eaf1fb;
    --pill-txt:  #0969da;
    --div:       #d0d7de;
  }
  @media (prefers-color-scheme: dark) {
    :root {
      --bg:        #0d1117;
      --card:      #161b22;
      --border:    #30363d;
      --primary:   #e6edf3;
      --secondary: #848d97;
      --muted:     #7d8590;
      --accent:    #2f81f7;
      --green:     #3fb950;
      --yellow:    #d29922;
      --red:       #f85149;
      --hover:     #21262d;
      --spark-bg:  #1c2128;
      --spark:     #58a6ff;
      --pill:      #1c2d3f;
      --pill-txt:  #58a6ff;
      --div:       #30363d;
    }
  }
  
  .bg          { fill: var(--bg); }
  .card        { fill: var(--card); stroke: var(--border); stroke-width: 1; }
  .lang-pill   { fill: var(--pill); }
  .spark-bg    { fill: var(--spark-bg); }
  .spark-line  { stroke: var(--spark); }
  .divider     { stroke: var(--div); stroke-width: 1; }
  .clr-primary   { fill: var(--primary); }
  .clr-secondary { fill: var(--secondary); }
  .clr-muted     { fill: var(--muted); }
  .clr-accent    { fill: var(--accent); }
  .clr-green     { fill: var(--green); }
  .clr-yellow    { fill: var(--yellow); }
  .clr-red       { fill: var(--red); }
  .txt-bold    { font-weight: 600; }
  svg text     { font-family: -apple-system, BlinkMacSystemFont, "Segoe UI", Helvetica, Arial, sans-serif; }
</style>

<rect x="0" y="0" width="820" height="180" rx="8" class="card"/>
  <text x="20" y="24" class="clr-primary txt-bold" text-anchor="start" font-size="14">Contribution History &amp; Activity</text>
  <line x1="20" y1="36" x2="800" y2="36" class="divider"/>
  <text x="20" y="60" class="clr-muted" text-anchor="start" font-size="12">Years Active:</text>
  <text x="100" y="60" class="clr-primary txt-bold" text-anchor="start" font-size="12">5.8</text>
  <text x="160" y="60" class="clr-muted" text-anchor="start" font-size="12">Commits (Last Year):</text>
  <text x="290" y="60" class="clr-primary txt-bold" text-anchor="start" font-size="12">1229</text>
  <text x="360" y="60" class="clr-muted" text-anchor="start" font-size="12">Highest Daily:</text>
  <text x="450" y="60" class="clr-primary txt-bold" text-anchor="start" font-size="12">163</text>
  <polygon points="20,160 20,160 22.1138,160 24.2276,159.018 26.3415,160 28.4553,160 30.5691,160 32.6829,145.276 34.7967,155.583 36.9106,157.546 39.0244,155.583 41.1382,157.055 43.252,156.074 45.3659,160 47.4797,160 49.5935,160 51.7073,158.037 53.8211,159.018 55.935,158.037 58.0488,156.564 60.1626,160 62.2764,158.528 64.3902,156.564 66.5041,160 68.6179,154.11 70.7317,149.202 72.8455,149.202 74.9593,153.62 77.0732,141.84 79.187,154.601 81.3008,160 83.4146,154.601 85.5285,160 87.6423,160 89.7561,157.546 91.8699,148.221 93.9837,159.018 96.0976,160 98.2114,158.037 100.325,160 102.439,159.509 104.553,160 106.667,160 108.78,160 110.894,160 113.008,151.656 115.122,155.583 117.236,156.074 119.35,157.546 121.463,150.675 123.577,160 125.691,158.037 127.805,156.564 129.919,158.037 132.033,156.074 134.146,160 136.26,154.11 138.374,160 140.488,159.509 142.602,160 144.715,160 146.829,157.546 148.943,160 151.057,160 153.171,160 155.285,160 157.398,160 159.512,160 161.626,160 163.74,160 165.854,160 167.967,160 170.081,160 172.195,160 174.309,160 176.423,160 178.537,160 180.65,160 182.764,154.601 184.878,158.037 186.992,160 189.106,160 191.22,160 193.333,160 195.447,160 197.561,160 199.675,160 201.789,160 203.902,160 206.016,160 208.13,160 210.244,160 212.358,160 214.472,160 216.585,160 218.699,160 220.813,160 222.927,160 225.041,160 227.154,160 229.268,160 231.382,157.055 233.496,160 235.61,160 237.724,160 239.837,160 241.951,155.092 244.065,160 246.179,160 248.293,160 250.407,160 252.52,137.423 254.634,153.62 256.748,80 258.862,155.092 260.976,149.202 263.089,155.092 265.203,158.037 267.317,158.528 269.431,159.509 271.545,156.074 273.659,160 275.772,159.018 277.886,160 280,159.509 282.114,159.018 284.228,159.509 286.341,160 288.455,158.528 290.569,160 292.683,159.018 294.797,159.018 296.911,157.546 299.024,157.055 301.138,160 303.252,160 305.366,159.509 307.48,159.509 309.593,158.528 311.707,159.509 313.821,157.055 315.935,157.055 318.049,159.018 320.163,158.528 322.276,147.239 324.39,157.055 326.504,129.08 328.618,147.239 330.732,153.129 332.846,160 334.959,160 337.073,160 339.187,151.656 341.301,158.528 343.415,160 345.528,160 347.642,138.405 349.756,158.528 351.87,160 353.984,160 356.098,160 358.211,160 360.325,160 362.439,160 364.553,160 366.667,160 368.78,160 370.894,160 373.008,160 375.122,160 377.236,160 379.35,160 381.463,160 383.577,159.509 385.691,160 387.805,160 389.919,160 392.033,160 394.146,160 396.26,160 398.374,160 400.488,160 402.602,160 404.715,159.509 406.829,158.037 408.943,160 411.057,160 413.171,160 415.285,160 417.398,160 419.512,160 421.626,160 423.74,160 425.854,160 427.967,160 430.081,160 432.195,159.509 434.309,158.037 436.423,157.055 438.537,160 440.65,160 442.764,160 444.878,156.564 446.992,157.546 449.106,147.239 451.22,160 453.333,160 455.447,160 457.561,155.092 459.675,148.221 461.789,160 463.902,160 466.016,158.037 468.13,160 470.244,158.037 472.358,160 474.472,160 476.585,160 478.699,160 480.813,160 482.927,160 485.041,159.018 487.154,144.294 489.268,159.018 491.382,160 493.496,139.387 495.61,121.718 497.724,120.736 499.837,147.73 501.951,146.258 504.065,157.055 506.179,160 508.293,160 510.407,160 512.52,160 514.634,160 516.748,160 518.862,160 520.976,160 523.089,157.546 525.203,153.62 527.317,148.712 529.431,160 531.545,149.202 533.659,149.693 535.772,134.969 537.886,146.258 540,145.767 542.114,146.258 544.228,150.184 546.341,154.11 548.455,154.601 550.569,154.11 552.683,157.055 554.797,156.564 556.911,159.509 559.024,160 561.138,160 563.252,160 565.366,160 567.48,160 569.593,160 571.707,160 573.821,160 575.935,158.528 578.049,159.509 580.163,160 582.276,160 584.39,159.509 586.504,142.331 588.618,144.785 590.732,157.055 592.846,158.528 594.959,160 597.073,160 599.187,159.509 601.301,160 603.415,160 605.528,159.018 607.642,153.62 609.756,159.018 611.87,160 613.984,160 616.098,149.693 618.211,155.583 620.325,158.528 622.439,156.074 624.553,155.583 626.667,159.509 628.78,159.509 630.894,160 633.008,160 635.122,151.656 637.236,140.859 639.35,155.092 641.463,160 643.577,141.84 645.691,150.184 647.805,152.147 649.919,160 652.033,160 654.146,160 656.26,160 658.374,160 660.488,160 662.602,160 664.715,160 666.829,160 668.943,160 671.057,160 673.171,160 675.285,158.037 677.398,160 679.512,160 681.626,160 683.74,160 685.854,160 687.967,160 690.081,160 692.195,160 694.309,160 696.423,160 698.537,160 700.65,160 702.764,160 704.878,160 706.992,156.564 709.106,154.601 711.22,160 713.333,160 715.447,160 717.561,160 719.675,159.509 721.789,160 723.902,160 726.016,159.509 728.13,159.509 730.244,160 732.358,159.509 734.472,160 736.585,160 738.699,156.074 740.813,159.509 742.927,159.509 745.041,160 747.154,158.037 749.268,160 751.382,160 753.496,160 755.61,160 757.724,160 759.837,160 761.951,160 764.065,150.184 766.179,158.528 768.293,159.509 770.407,159.018 772.52,160 774.634,160 776.748,160 778.862,160 780.976,160 783.089,160 785.203,160 787.317,160 789.431,160 791.545,160 793.659,160 795.772,160 797.886,160 800,160 800,160" fill="var(--pill)" opacity="0.6"/>
  <polyline points="20,160 22.1138,160 24.2276,159.018 26.3415,160 28.4553,160 30.5691,160 32.6829,145.276 34.7967,155.583 36.9106,157.546 39.0244,155.583 41.1382,157.055 43.252,156.074 45.3659,160 47.4797,160 49.5935,160 51.7073,158.037 53.8211,159.018 55.935,158.037 58.0488,156.564 60.1626,160 62.2764,158.528 64.3902,156.564 66.5041,160 68.6179,154.11 70.7317,149.202 72.8455,149.202 74.9593,153.62 77.0732,141.84 79.187,154.601 81.3008,160 83.4146,154.601 85.5285,160 87.6423,160 89.7561,157.546 91.8699,148.221 93.9837,159.018 96.0976,160 98.2114,158.037 100.325,160 102.439,159.509 104.553,160 106.667,160 108.78,160 110.894,160 113.008,151.656 115.122,155.583 117.236,156.074 119.35,157.546 121.463,150.675 123.577,160 125.691,158.037 127.805,156.564 129.919,158.037 132.033,156.074 134.146,160 136.26,154.11 138.374,160 140.488,159.509 142.602,160 144.715,160 146.829,157.546 148.943,160 151.057,160 153.171,160 155.285,160 157.398,160 159.512,160 161.626,160 163.74,160 165.854,160 167.967,160 170.081,160 172.195,160 174.309,160 176.423,160 178.537,160 180.65,160 182.764,154.601 184.878,158.037 186.992,160 189.106,160 191.22,160 193.333,160 195.447,160 197.561,160 199.675,160 201.789,160 203.902,160 206.016,160 208.13,160 210.244,160 212.358,160 214.472,160 216.585,160 218.699,160 220.813,160 222.927,160 225.041,160 227.154,160 229.268,160 231.382,157.055 233.496,160 235.61,160 237.724,160 239.837,160 241.951,155.092 244.065,160 246.179,160 248.293,160 250.407,160 252.52,137.423 254.634,153.62 256.748,80 258.862,155.092 260.976,149.202 263.089,155.092 265.203,158.037 267.317,158.528 269.431,159.509 271.545,156.074 273.659,160 275.772,159.018 277.886,160 280,159.509 282.114,159.018 284.228,159.509 286.341,160 288.455,158.528 290.569,160 292.683,159.018 294.797,159.018 296.911,157.546 299.024,157.055 301.138,160 303.252,160 305.366,159.509 307.48,159.509 309.593,158.528 311.707,159.509 313.821,157.055 315.935,157.055 318.049,159.018 320.163,158.528 322.276,147.239 324.39,157.055 326.504,129.08 328.618,147.239 330.732,153.129 332.846,160 334.959,160 337.073,160 339.187,151.656 341.301,158.528 343.415,160 345.528,160 347.642,138.405 349.756,158.528 351.87,160 353.984,160 356.098,160 358.211,160 360.325,160 362.439,160 364.553,160 366.667,160 368.78,160 370.894,160 373.008,160 375.122,160 377.236,160 379.35,160 381.463,160 383.577,159.509 385.691,160 387.805,160 389.919,160 392.033,160 394.146,160 396.26,160 398.374,160 400.488,160 402.602,160 404.715,159.509 406.829,158.037 408.943,160 411.057,160 413.171,160 415.285,160 417.398,160 419.512,160 421.626,160 423.74,160 425.854,160 427.967,160 430.081,160 432.195,159.509 434.309,158.037 436.423,157.055 438.537,160 440.65,160 442.764,160 444.878,156.564 446.992,157.546 449.106,147.239 451.22,160 453.333,160 455.447,160 457.561,155.092 459.675,148.221 461.789,160 463.902,160 466.016,158.037 468.13,160 470.244,158.037 472.358,160 474.472,160 476.585,160 478.699,160 480.813,160 482.927,160 485.041,159.018 487.154,144.294 489.268,159.018 491.382,160 493.496,139.387 495.61,121.718 497.724,120.736 499.837,147.73 501.951,146.258 504.065,157.055 506.179,160 508.293,160 510.407,160 512.52,160 514.634,160 516.748,160 518.862,160 520.976,160 523.089,157.546 525.203,153.62 527.317,148.712 529.431,160 531.545,149.202 533.659,149.693 535.772,134.969 537.886,146.258 540,145.767 542.114,146.258 544.228,150.184 546.341,154.11 548.455,154.601 550.569,154.11 552.683,157.055 554.797,156.564 556.911,159.509 559.024,160 561.138,160 563.252,160 565.366,160 567.48,160 569.593,160 571.707,160 573.821,160 575.935,158.528 578.049,159.509 580.163,160 582.276,160 584.39,159.509 586.504,142.331 588.618,144.785 590.732,157.055 592.846,158.528 594.959,160 597.073,160 599.187,159.509 601.301,160 603.415,160 605.528,159.018 607.642,153.62 609.756,159.018 611.87,160 613.984,160 616.098,149.693 618.211,155.583 620.325,158.528 622.439,156.074 624.553,155.583 626.667,159.509 628.78,159.509 630.894,160 633.008,160 635.122,151.656 637.236,140.859 639.35,155.092 641.463,160 643.577,141.84 645.691,150.184 647.805,152.147 649.919,160 652.033,160 654.146,160 656.26,160 658.374,160 660.488,160 662.602,160 664.715,160 666.829,160 668.943,160 671.057,160 673.171,160 675.285,158.037 677.398,160 679.512,160 681.626,160 683.74,160 685.854,160 687.967,160 690.081,160 692.195,160 694.309,160 696.423,160 698.537,160 700.65,160 702.764,160 704.878,160 706.992,156.564 709.106,154.601 711.22,160 713.333,160 715.447,160 717.561,160 719.675,159.509 721.789,160 723.902,160 726.016,159.509 728.13,159.509 730.244,160 732.358,159.509 734.472,160 736.585,160 738.699,156.074 740.813,159.509 742.927,159.509 745.041,160 747.154,158.037 749.268,160 751.382,160 753.496,160 755.61,160 757.724,160 759.837,160 761.951,160 764.065,150.184 766.179,158.528 768.293,159.509 770.407,159.018 772.52,160 774.634,160 776.748,160 778.862,160 780.976,160 783.089,160 785.203,160 787.317,160 789.431,160 791.545,160 793.659,160 795.772,160 797.886,160 800,160" fill="none" stroke="var(--accent)" stroke-width="1.5" stroke-linecap="round" stroke-linejoin="round"/>
</svg>

