<svg xmlns="http://www.w3.org/2000/svg" width="405" height="140" viewBox="0 0 405 140">

<style>
  :root {
    --bg:        #f6f8fa;
    --card:      #ffffff;
    --border:    #d0d7de;
    --primary:   #1f2328;
    --secondary: #636c76;
    --muted:     #8c959f;
    --accent:    #0969da;
    --green:     #1a7f37;
    --yellow:    #9a6700;
    --red:       #cf222e;
    --hover:     #f3f4f6;
    --spark-bg:  #f0f3f6;
    --spark:     #0969da;
    --pill:      #eaf1fb;
    --pill-txt:  #0969da;
    --div:       #d0d7de;
  }
  @media (prefers-color-scheme: dark) {
    :root {
      --bg:        #0d1117;
      --card:      #161b22;
      --border:    #30363d;
      --primary:   #e6edf3;
      --secondary: #848d97;
      --muted:     #7d8590;
      --accent:    #2f81f7;
      --green:     #3fb950;
      --yellow:    #d29922;
      --red:       #f85149;
      --hover:     #21262d;
      --spark-bg:  #1c2128;
      --spark:     #58a6ff;
      --pill:      #1c2d3f;
      --pill-txt:  #58a6ff;
      --div:       #30363d;
    }
  }
  
  .bg          { fill: var(--bg); }
  .card        { fill: var(--card); stroke: var(--border); stroke-width: 1; }
  .lang-pill   { fill: var(--pill); }
  .spark-bg    { fill: var(--spark-bg); }
  .spark-line  { stroke: var(--spark); }
  .divider     { stroke: var(--div); stroke-width: 1; }
  .clr-primary   { fill: var(--primary); }
  .clr-secondary { fill: var(--secondary); }
  .clr-muted     { fill: var(--muted); }
  .clr-accent    { fill: var(--accent); }
  .clr-green     { fill: var(--green); }
  .clr-yellow    { fill: var(--yellow); }
  .clr-red       { fill: var(--red); }
  .txt-bold    { font-weight: 600; }
  svg text     { font-family: -apple-system, BlinkMacSystemFont, "Segoe UI", Helvetica, Arial, sans-serif; }
</style>

<rect x="0" y="0" width="405" height="140" rx="8" class="card"/>
  <text x="20" y="24" class="clr-primary txt-bold" text-anchor="start" font-size="14">Global Statistics</text>
  <line x1="20" y1="36" x2="385" y2="36" class="divider"/>
  <svg x="20" y="52" width="16" height="16" viewBox="0 0 16 16"><path fill="var(--yellow)" d="M8 .25a.75.75 0 0 1 .673.418l1.882 3.815 4.21.612a.75.75 0 0 1 .416 1.279l-3.046 2.97.719 4.192a.75.75 0 0 1-1.088.791L8 12.347l-3.766 1.98a.75.75 0 0 1-1.088-.79l.72-4.194L.818 6.374a.75.75 0 0 1 .416-1.28l4.21-.611L7.327.668A.75.75 0 0 1 8 .25Zm0 2.445L6.615 5.5a.75.75 0 0 1-.564.41l-3.097.45 2.24 2.184a.75.75 0 0 1 .216.664l-.528 3.084 2.769-1.456a.75.75 0 0 1 .698 0l2.77 1.456-.53-3.084a.75.75 0 0 1 .216-.664l2.24-2.183-3.096-.45a.75.75 0 0 1-.564-.41L8 2.694Z"/></svg>
  <text x="45" y="64" class="clr-primary" text-anchor="start" font-size="12">Total Stars Earned:</text>
  <text x="180" y="64" class="clr-primary txt-bold" text-anchor="start" font-size="13">43</text>
  <svg x="20" y="84" width="16" height="16" viewBox="0 0 16 16"><path fill="var(--green)" d="M10.5 7.75a2.5 2.5 0 1 1-5 0 2.5 2.5 0 0 1 5 0Zm1.43.75a4.002 4.002 0 0 1-7.86 0H.75a.75.75 0 1 1 0-1.5h3.32a4.001 4.001 0 0 1 7.86 0h3.32a.75.75 0 1 1 0 1.5h-3.32Z"/></svg>
  <text x="45" y="96" class="clr-primary" text-anchor="start" font-size="12">Commits (Last Year):</text>
  <text x="180" y="96" class="clr-primary txt-bold" text-anchor="start" font-size="13">1053</text>
  <svg x="20" y="116" width="16" height="16" viewBox="0 0 16 16"><path fill="var(--accent)" d="M1.5 3.25a2.25 2.25 0 1 1 3 2.122v5.256a2.251 2.251 0 1 1-1.5 0V5.372A2.25 2.25 0 0 1 1.5 3.25Zm7.362-.054a.75.75 0 0 1-.225 1.036l-2.072 1.346a.75.75 0 1 1-.815-1.256l1.397-.907-.091-.059H6.25A1.75 1.75 0 0 0 4.5 5.045v4.327a2.25 2.25 0 1 1-1.5 0V5.045A3.25 3.25 0 0 1 6.25 1.81h.806l.091-.059-1.397-.907a.75.75 0 0 1 .815-1.256l2.072 1.346a.75.75 0 0 1 .225 1.036ZM4.5 10.75a.75.75 0 1 0-1.5 0 .75.75 0 0 0 1.5 0Z"/></svg>
  <text x="45" y="128" class="clr-primary" text-anchor="start" font-size="12">Total PRs (Last Year):</text>
  <text x="180" y="128" class="clr-primary txt-bold" text-anchor="start" font-size="13">57</text>
  <svg x="215" y="52" width="16" height="16" viewBox="0 0 16 16"><path fill="var(--red)" d="M8 1.5a6.5 6.5 0 1 0 0 13 6.5 6.5 0 0 0 0-13ZM0 8a8 8 0 1 1 16 0A8 8 0 0 1 0 8Zm9 3a1 1 0 1 1-2 0 1 1 0 0 1 2 0Zm-.25-6.25a.75.75 0 0 0-1.5 0v3.5a.75.75 0 0 0 1.5 0v-3.5Z"/></svg>
  <text x="240" y="64" class="clr-primary" text-anchor="start" font-size="12">Total Issues:</text>
  <text x="355" y="64" class="clr-primary txt-bold" text-anchor="start" font-size="13">320</text>
  <svg x="215" y="84" width="16" height="16" viewBox="0 0 16 16"><path fill="var(--secondary)" d="M2 2.5A2.5 2.5 0 0 1 4.5 0h8.75a.75.75 0 0 1 .75.75v12.5a.75.75 0 0 1-.75.75h-2.5a.75.75 0 0 1 0-1.5h1.75v-2h-8a1 1 0 0 0-.714 1.7.75.75 0 1 1-1.072 1.05A2.495 2.495 0 0 1 2 11.5Zm10.5-1h-8a1 1 0 0 0-1 1v6.708A2.486 2.486 0 0 1 4.5 9h8ZM5 12.25a.25.25 0 0 1 .25-.25h3.5a.25.25 0 0 1 .25.25v3.25a.25.25 0 0 1-.4.2l-1.45-1.087a.249.249 0 0 0-.3 0L5.4 15.7a.25.25 0 0 1-.4-.2Z"/></svg>
  <text x="240" y="96" class="clr-primary" text-anchor="start" font-size="12">Contributed To:</text>
  <text x="355" y="96" class="clr-primary txt-bold" text-anchor="start" font-size="13">26</text>
</svg>

