<svg xmlns="http://www.w3.org/2000/svg" width="820" height="180" viewBox="0 0 820 180">

<style>
  :root {
    --bg:        #f6f8fa;
    --card:      #ffffff;
    --border:    #d0d7de;
    --primary:   #1f2328;
    --secondary: #636c76;
    --muted:     #8c959f;
    --accent:    #0969da;
    --green:     #1a7f37;
    --yellow:    #9a6700;
    --red:       #cf222e;
    --hover:     #f3f4f6;
    --spark-bg:  #f0f3f6;
    --spark:     #0969da;
    --pill:      #eaf1fb;
    --pill-txt:  #0969da;
    --div:       #d0d7de;
  }
  @media (prefers-color-scheme: dark) {
    :root {
      --bg:        #0d1117;
      --card:      #161b22;
      --border:    #30363d;
      --primary:   #e6edf3;
      --secondary: #848d97;
      --muted:     #7d8590;
      --accent:    #2f81f7;
      --green:     #3fb950;
      --yellow:    #d29922;
      --red:       #f85149;
      --hover:     #21262d;
      --spark-bg:  #1c2128;
      --spark:     #58a6ff;
      --pill:      #1c2d3f;
      --pill-txt:  #58a6ff;
      --div:       #30363d;
    }
  }
  
  .bg          { fill: var(--bg); }
  .card        { fill: var(--card); stroke: var(--border); stroke-width: 1; }
  .lang-pill   { fill: var(--pill); }
  .spark-bg    { fill: var(--spark-bg); }
  .spark-line  { stroke: var(--spark); }
  .divider     { stroke: var(--div); stroke-width: 1; }
  .clr-primary   { fill: var(--primary); }
  .clr-secondary { fill: var(--secondary); }
  .clr-muted     { fill: var(--muted); }
  .clr-accent    { fill: var(--accent); }
  .clr-green     { fill: var(--green); }
  .clr-yellow    { fill: var(--yellow); }
  .clr-red       { fill: var(--red); }
  .txt-bold    { font-weight: 600; }
  svg text     { font-family: -apple-system, BlinkMacSystemFont, "Segoe UI", Helvetica, Arial, sans-serif; }
</style>

<rect x="0" y="0" width="820" height="180" rx="8" class="card"/>
  <text x="20" y="24" class="clr-primary txt-bold" text-anchor="start" font-size="14">Contribution History &amp; Activity</text>
  <line x1="20" y1="36" x2="800" y2="36" class="divider"/>
  <text x="20" y="60" class="clr-muted" text-anchor="start" font-size="12">Years Active:</text>
  <text x="100" y="60" class="clr-primary txt-bold" text-anchor="start" font-size="12">5.6</text>
  <text x="160" y="60" class="clr-muted" text-anchor="start" font-size="12">Commits (Last Year):</text>
  <text x="290" y="60" class="clr-primary txt-bold" text-anchor="start" font-size="12">1173</text>
  <text x="360" y="60" class="clr-muted" text-anchor="start" font-size="12">Highest Daily:</text>
  <text x="450" y="60" class="clr-primary txt-bold" text-anchor="start" font-size="12">163</text>
  <polygon points="20,160 20,160 22.1311,160 24.2623,160 26.3934,160 28.5246,160 30.6557,160 32.7869,160 34.918,160 37.0492,160 39.1803,160 41.3115,160 43.4426,160 45.5738,160 47.7049,160 49.8361,160 51.9672,160 54.0984,160 56.2295,160 58.3607,160 60.4918,160 62.623,160 64.7541,160 66.8852,160 69.0164,160 71.1475,160 73.2787,159.509 75.4098,160 77.541,160 79.6721,160 81.8033,160 83.9344,160 86.0656,160 88.1967,160 90.3279,160 92.459,160 94.5902,160 96.7213,160 98.8525,160 100.984,160 103.115,160 105.246,160 107.377,160 109.508,160 111.639,160 113.77,160 115.902,160 118.033,160 120.164,160 122.295,160 124.426,160 126.557,160 128.689,159.018 130.82,160 132.951,160 135.082,160 137.213,145.276 139.344,155.583 141.475,157.546 143.607,155.583 145.738,157.055 147.869,156.074 150,160 152.131,160 154.262,160 156.393,158.037 158.525,159.018 160.656,158.037 162.787,156.564 164.918,160 167.049,158.528 169.18,156.564 171.311,160 173.443,154.11 175.574,149.202 177.705,149.202 179.836,153.62 181.967,141.84 184.098,154.601 186.23,160 188.361,154.601 190.492,160 192.623,160 194.754,157.546 196.885,148.221 199.016,159.018 201.148,160 203.279,158.037 205.41,160 207.541,159.509 209.672,160 211.803,160 213.934,160 216.066,160 218.197,151.656 220.328,155.583 222.459,156.074 224.59,157.546 226.721,150.675 228.852,160 230.984,158.037 233.115,156.564 235.246,158.037 237.377,156.074 239.508,160 241.639,154.11 243.77,160 245.902,159.509 248.033,160 250.164,160 252.295,157.546 254.426,160 256.557,160 258.689,160 260.82,160 262.951,160 265.082,160 267.213,160 269.344,160 271.475,160 273.607,160 275.738,160 277.869,160 280,160 282.131,160 284.262,160 286.393,160 288.525,154.601 290.656,158.037 292.787,160 294.918,160 297.049,160 299.18,160 301.311,160 303.443,160 305.574,160 307.705,160 309.836,160 311.967,160 314.098,160 316.23,160 318.361,160 320.492,160 322.623,160 324.754,160 326.885,160 329.016,160 331.148,160 333.279,160 335.41,160 337.541,157.055 339.672,160 341.803,160 343.934,160 346.066,160 348.197,155.092 350.328,160 352.459,160 354.59,160 356.721,160 358.852,137.423 360.984,153.62 363.115,80 365.246,155.092 367.377,149.202 369.508,155.092 371.639,158.037 373.77,158.528 375.902,159.509 378.033,156.074 380.164,160 382.295,159.018 384.426,160 386.557,159.509 388.689,159.018 390.82,159.509 392.951,160 395.082,158.528 397.213,160 399.344,159.018 401.475,159.018 403.607,157.546 405.738,157.055 407.869,160 410,160 412.131,159.509 414.262,159.509 416.393,158.528 418.525,159.509 420.656,157.055 422.787,157.055 424.918,159.018 427.049,158.528 429.18,147.239 431.311,157.055 433.443,129.08 435.574,147.239 437.705,153.129 439.836,160 441.967,160 444.098,160 446.23,151.656 448.361,158.528 450.492,160 452.623,160 454.754,138.405 456.885,158.528 459.016,160 461.148,160 463.279,160 465.41,160 467.541,160 469.672,160 471.803,160 473.934,160 476.066,160 478.197,160 480.328,160 482.459,160 484.59,160 486.721,160 488.852,160 490.984,159.509 493.115,160 495.246,160 497.377,160 499.508,160 501.639,160 503.77,160 505.902,160 508.033,160 510.164,160 512.295,159.509 514.426,158.037 516.557,160 518.689,160 520.82,160 522.951,160 525.082,160 527.213,160 529.344,160 531.475,160 533.607,160 535.738,160 537.869,160 540,159.509 542.131,158.037 544.262,157.055 546.393,160 548.525,160 550.656,160 552.787,156.564 554.918,157.546 557.049,147.239 559.18,160 561.311,160 563.443,160 565.574,155.092 567.705,148.221 569.836,160 571.967,160 574.098,158.037 576.23,160 578.361,158.037 580.492,160 582.623,160 584.754,160 586.885,160 589.016,160 591.148,160 593.279,159.018 595.41,144.294 597.541,159.018 599.672,160 601.803,139.387 603.934,121.718 606.066,120.736 608.197,147.73 610.328,146.258 612.459,157.055 614.59,160 616.721,160 618.852,160 620.984,160 623.115,160 625.246,160 627.377,160 629.508,160 631.639,157.546 633.77,153.62 635.902,148.712 638.033,160 640.164,149.202 642.295,149.693 644.426,134.969 646.557,146.258 648.689,145.767 650.82,146.258 652.951,150.184 655.082,154.11 657.213,154.601 659.344,154.11 661.475,157.055 663.607,156.564 665.738,159.509 667.869,160 670,160 672.131,160 674.262,160 676.393,160 678.525,160 680.656,160 682.787,160 684.918,158.528 687.049,159.509 689.18,160 691.311,160 693.443,159.509 695.574,142.331 697.705,144.785 699.836,157.055 701.967,158.528 704.098,160 706.23,160 708.361,159.509 710.492,160 712.623,160 714.754,159.018 716.885,153.62 719.016,159.018 721.148,160 723.279,160 725.41,149.693 727.541,155.583 729.672,158.528 731.803,156.074 733.934,155.583 736.066,159.509 738.197,159.509 740.328,160 742.459,160 744.59,151.656 746.721,140.859 748.852,155.092 750.984,160 753.115,141.84 755.246,150.184 757.377,152.147 759.508,160 761.639,160 763.77,160 765.902,160 768.033,160 770.164,160 772.295,160 774.426,160 776.557,160 778.689,160 780.82,160 782.951,160 785.082,158.037 787.213,160 789.344,160 791.475,160 793.607,160 795.738,160 797.869,160 800,160 800,160" fill="var(--pill)" opacity="0.6"/>
  <polyline points="20,160 22.1311,160 24.2623,160 26.3934,160 28.5246,160 30.6557,160 32.7869,160 34.918,160 37.0492,160 39.1803,160 41.3115,160 43.4426,160 45.5738,160 47.7049,160 49.8361,160 51.9672,160 54.0984,160 56.2295,160 58.3607,160 60.4918,160 62.623,160 64.7541,160 66.8852,160 69.0164,160 71.1475,160 73.2787,159.509 75.4098,160 77.541,160 79.6721,160 81.8033,160 83.9344,160 86.0656,160 88.1967,160 90.3279,160 92.459,160 94.5902,160 96.7213,160 98.8525,160 100.984,160 103.115,160 105.246,160 107.377,160 109.508,160 111.639,160 113.77,160 115.902,160 118.033,160 120.164,160 122.295,160 124.426,160 126.557,160 128.689,159.018 130.82,160 132.951,160 135.082,160 137.213,145.276 139.344,155.583 141.475,157.546 143.607,155.583 145.738,157.055 147.869,156.074 150,160 152.131,160 154.262,160 156.393,158.037 158.525,159.018 160.656,158.037 162.787,156.564 164.918,160 167.049,158.528 169.18,156.564 171.311,160 173.443,154.11 175.574,149.202 177.705,149.202 179.836,153.62 181.967,141.84 184.098,154.601 186.23,160 188.361,154.601 190.492,160 192.623,160 194.754,157.546 196.885,148.221 199.016,159.018 201.148,160 203.279,158.037 205.41,160 207.541,159.509 209.672,160 211.803,160 213.934,160 216.066,160 218.197,151.656 220.328,155.583 222.459,156.074 224.59,157.546 226.721,150.675 228.852,160 230.984,158.037 233.115,156.564 235.246,158.037 237.377,156.074 239.508,160 241.639,154.11 243.77,160 245.902,159.509 248.033,160 250.164,160 252.295,157.546 254.426,160 256.557,160 258.689,160 260.82,160 262.951,160 265.082,160 267.213,160 269.344,160 271.475,160 273.607,160 275.738,160 277.869,160 280,160 282.131,160 284.262,160 286.393,160 288.525,154.601 290.656,158.037 292.787,160 294.918,160 297.049,160 299.18,160 301.311,160 303.443,160 305.574,160 307.705,160 309.836,160 311.967,160 314.098,160 316.23,160 318.361,160 320.492,160 322.623,160 324.754,160 326.885,160 329.016,160 331.148,160 333.279,160 335.41,160 337.541,157.055 339.672,160 341.803,160 343.934,160 346.066,160 348.197,155.092 350.328,160 352.459,160 354.59,160 356.721,160 358.852,137.423 360.984,153.62 363.115,80 365.246,155.092 367.377,149.202 369.508,155.092 371.639,158.037 373.77,158.528 375.902,159.509 378.033,156.074 380.164,160 382.295,159.018 384.426,160 386.557,159.509 388.689,159.018 390.82,159.509 392.951,160 395.082,158.528 397.213,160 399.344,159.018 401.475,159.018 403.607,157.546 405.738,157.055 407.869,160 410,160 412.131,159.509 414.262,159.509 416.393,158.528 418.525,159.509 420.656,157.055 422.787,157.055 424.918,159.018 427.049,158.528 429.18,147.239 431.311,157.055 433.443,129.08 435.574,147.239 437.705,153.129 439.836,160 441.967,160 444.098,160 446.23,151.656 448.361,158.528 450.492,160 452.623,160 454.754,138.405 456.885,158.528 459.016,160 461.148,160 463.279,160 465.41,160 467.541,160 469.672,160 471.803,160 473.934,160 476.066,160 478.197,160 480.328,160 482.459,160 484.59,160 486.721,160 488.852,160 490.984,159.509 493.115,160 495.246,160 497.377,160 499.508,160 501.639,160 503.77,160 505.902,160 508.033,160 510.164,160 512.295,159.509 514.426,158.037 516.557,160 518.689,160 520.82,160 522.951,160 525.082,160 527.213,160 529.344,160 531.475,160 533.607,160 535.738,160 537.869,160 540,159.509 542.131,158.037 544.262,157.055 546.393,160 548.525,160 550.656,160 552.787,156.564 554.918,157.546 557.049,147.239 559.18,160 561.311,160 563.443,160 565.574,155.092 567.705,148.221 569.836,160 571.967,160 574.098,158.037 576.23,160 578.361,158.037 580.492,160 582.623,160 584.754,160 586.885,160 589.016,160 591.148,160 593.279,159.018 595.41,144.294 597.541,159.018 599.672,160 601.803,139.387 603.934,121.718 606.066,120.736 608.197,147.73 610.328,146.258 612.459,157.055 614.59,160 616.721,160 618.852,160 620.984,160 623.115,160 625.246,160 627.377,160 629.508,160 631.639,157.546 633.77,153.62 635.902,148.712 638.033,160 640.164,149.202 642.295,149.693 644.426,134.969 646.557,146.258 648.689,145.767 650.82,146.258 652.951,150.184 655.082,154.11 657.213,154.601 659.344,154.11 661.475,157.055 663.607,156.564 665.738,159.509 667.869,160 670,160 672.131,160 674.262,160 676.393,160 678.525,160 680.656,160 682.787,160 684.918,158.528 687.049,159.509 689.18,160 691.311,160 693.443,159.509 695.574,142.331 697.705,144.785 699.836,157.055 701.967,158.528 704.098,160 706.23,160 708.361,159.509 710.492,160 712.623,160 714.754,159.018 716.885,153.62 719.016,159.018 721.148,160 723.279,160 725.41,149.693 727.541,155.583 729.672,158.528 731.803,156.074 733.934,155.583 736.066,159.509 738.197,159.509 740.328,160 742.459,160 744.59,151.656 746.721,140.859 748.852,155.092 750.984,160 753.115,141.84 755.246,150.184 757.377,152.147 759.508,160 761.639,160 763.77,160 765.902,160 768.033,160 770.164,160 772.295,160 774.426,160 776.557,160 778.689,160 780.82,160 782.951,160 785.082,158.037 787.213,160 789.344,160 791.475,160 793.607,160 795.738,160 797.869,160 800,160" fill="none" stroke="var(--accent)" stroke-width="1.5" stroke-linecap="round" stroke-linejoin="round"/>
</svg>

