<svg xmlns="http://www.w3.org/2000/svg" width="820" height="180" viewBox="0 0 820 180">

<style>
  :root {
    --bg:        #f6f8fa;
    --card:      #ffffff;
    --border:    #d0d7de;
    --primary:   #1f2328;
    --secondary: #636c76;
    --muted:     #8c959f;
    --accent:    #0969da;
    --green:     #1a7f37;
    --yellow:    #9a6700;
    --red:       #cf222e;
    --hover:     #f3f4f6;
    --spark-bg:  #f0f3f6;
    --spark:     #0969da;
    --pill:      #eaf1fb;
    --pill-txt:  #0969da;
    --div:       #d0d7de;
  }
  @media (prefers-color-scheme: dark) {
    :root {
      --bg:        #0d1117;
      --card:      #161b22;
      --border:    #30363d;
      --primary:   #e6edf3;
      --secondary: #848d97;
      --muted:     #7d8590;
      --accent:    #2f81f7;
      --green:     #3fb950;
      --yellow:    #d29922;
      --red:       #f85149;
      --hover:     #21262d;
      --spark-bg:  #1c2128;
      --spark:     #58a6ff;
      --pill:      #1c2d3f;
      --pill-txt:  #58a6ff;
      --div:       #30363d;
    }
  }
  
  .bg          { fill: var(--bg); }
  .card        { fill: var(--card); stroke: var(--border); stroke-width: 1; }
  .lang-pill   { fill: var(--pill); }
  .spark-bg    { fill: var(--spark-bg); }
  .spark-line  { stroke: var(--spark); }
  .divider     { stroke: var(--div); stroke-width: 1; }
  .clr-primary   { fill: var(--primary); }
  .clr-secondary { fill: var(--secondary); }
  .clr-muted     { fill: var(--muted); }
  .clr-accent    { fill: var(--accent); }
  .clr-green     { fill: var(--green); }
  .clr-yellow    { fill: var(--yellow); }
  .clr-red       { fill: var(--red); }
  .txt-bold    { font-weight: 600; }
  svg text     { font-family: -apple-system, BlinkMacSystemFont, "Segoe UI", Helvetica, Arial, sans-serif; }
</style>

<rect x="0" y="0" width="820" height="180" rx="8" class="card"/>
  <text x="20" y="24" class="clr-primary txt-bold" text-anchor="start" font-size="14">Contribution History &amp; Activity</text>
  <line x1="20" y1="36" x2="800" y2="36" class="divider"/>
  <text x="20" y="60" class="clr-muted" text-anchor="start" font-size="12">Years Active:</text>
  <text x="100" y="60" class="clr-primary txt-bold" text-anchor="start" font-size="12">5.5</text>
  <text x="160" y="60" class="clr-muted" text-anchor="start" font-size="12">Commits (Last Year):</text>
  <text x="290" y="60" class="clr-primary txt-bold" text-anchor="start" font-size="12">1019</text>
  <text x="360" y="60" class="clr-muted" text-anchor="start" font-size="12">Highest Daily:</text>
  <text x="450" y="60" class="clr-primary txt-bold" text-anchor="start" font-size="12">163</text>
  <polygon points="20,160 20,160 22.1138,160 24.2276,160 26.3415,160 28.4553,160 30.5691,160 32.6829,160 34.7967,160 36.9106,157.055 39.0244,158.037 41.1382,160 43.252,160 45.3659,160 47.4797,160 49.5935,160 51.7073,160 53.8211,160 55.935,160 58.0488,160 60.1626,160 62.2764,153.62 64.3902,160 66.5041,160 68.6179,160 70.7317,154.11 72.8455,157.055 74.9593,160 77.0732,160 79.187,160 81.3008,160 83.4146,160 85.5285,160 87.6423,159.018 89.7561,160 91.8699,160 93.9837,160 96.0976,160 98.2114,160 100.325,160 102.439,160 104.553,160 106.667,160 108.78,160 110.894,160 113.008,160 115.122,160 117.236,160 119.35,160 121.463,160 123.577,160 125.691,160 127.805,160 129.919,160 132.033,160 134.146,160 136.26,160 138.374,160 140.488,160 142.602,160 144.715,160 146.829,160 148.943,160 151.057,160 153.171,160 155.285,160 157.398,160 159.512,160 161.626,159.509 163.74,160 165.854,160 167.967,160 170.081,160 172.195,160 174.309,160 176.423,160 178.537,160 180.65,160 182.764,160 184.878,160 186.992,160 189.106,160 191.22,160 193.333,160 195.447,160 197.561,160 199.675,160 201.789,160 203.902,160 206.016,160 208.13,160 210.244,160 212.358,160 214.472,160 216.585,159.018 218.699,160 220.813,160 222.927,160 225.041,145.276 227.154,155.583 229.268,157.546 231.382,155.583 233.496,157.055 235.61,156.074 237.724,160 239.837,160 241.951,160 244.065,158.037 246.179,159.018 248.293,158.037 250.407,156.564 252.52,160 254.634,158.528 256.748,156.564 258.862,160 260.976,154.11 263.089,149.202 265.203,149.202 267.317,153.62 269.431,141.84 271.545,154.601 273.659,160 275.772,154.601 277.886,160 280,160 282.114,157.546 284.228,148.221 286.341,159.018 288.455,160 290.569,158.037 292.683,160 294.797,159.509 296.911,160 299.024,160 301.138,160 303.252,160 305.366,151.656 307.48,155.583 309.593,156.074 311.707,157.546 313.821,150.675 315.935,160 318.049,158.037 320.163,156.564 322.276,158.037 324.39,156.074 326.504,160 328.618,154.11 330.732,160 332.846,159.509 334.959,160 337.073,160 339.187,157.546 341.301,160 343.415,160 345.528,160 347.642,160 349.756,160 351.87,160 353.984,160 356.098,160 358.211,160 360.325,160 362.439,160 364.553,160 366.667,160 368.78,160 370.894,160 373.008,160 375.122,154.601 377.236,158.037 379.35,160 381.463,160 383.577,160 385.691,160 387.805,160 389.919,160 392.033,160 394.146,160 396.26,160 398.374,160 400.488,160 402.602,160 404.715,160 406.829,160 408.943,160 411.057,160 413.171,160 415.285,160 417.398,160 419.512,160 421.626,160 423.74,157.055 425.854,160 427.967,160 430.081,160 432.195,160 434.309,155.092 436.423,160 438.537,160 440.65,160 442.764,160 444.878,137.423 446.992,153.62 449.106,80 451.22,155.092 453.333,149.202 455.447,155.092 457.561,158.037 459.675,158.528 461.789,159.509 463.902,156.074 466.016,160 468.13,159.018 470.244,160 472.358,159.509 474.472,159.018 476.585,159.509 478.699,160 480.813,158.528 482.927,160 485.041,159.018 487.154,159.018 489.268,157.546 491.382,157.055 493.496,160 495.61,160 497.724,159.509 499.837,159.509 501.951,158.528 504.065,159.509 506.179,157.055 508.293,157.055 510.407,159.018 512.52,158.528 514.634,147.239 516.748,157.055 518.862,129.08 520.976,147.239 523.089,153.129 525.203,160 527.317,160 529.431,160 531.545,151.656 533.659,158.528 535.772,160 537.886,160 540,138.405 542.114,158.528 544.228,160 546.341,160 548.455,160 550.569,160 552.683,160 554.797,160 556.911,160 559.024,160 561.138,160 563.252,160 565.366,160 567.48,160 569.593,160 571.707,160 573.821,160 575.935,159.509 578.049,160 580.163,160 582.276,160 584.39,160 586.504,160 588.618,160 590.732,160 592.846,160 594.959,160 597.073,159.509 599.187,158.037 601.301,160 603.415,160 605.528,160 607.642,160 609.756,160 611.87,160 613.984,160 616.098,160 618.211,160 620.325,160 622.439,160 624.553,159.509 626.667,158.037 628.78,157.055 630.894,160 633.008,160 635.122,160 637.236,156.564 639.35,157.546 641.463,147.239 643.577,160 645.691,160 647.805,160 649.919,155.092 652.033,148.221 654.146,160 656.26,160 658.374,158.037 660.488,160 662.602,158.037 664.715,160 666.829,160 668.943,160 671.057,160 673.171,160 675.285,160 677.398,159.018 679.512,144.294 681.626,159.018 683.74,160 685.854,139.387 687.967,121.718 690.081,120.736 692.195,147.73 694.309,146.258 696.423,157.055 698.537,160 700.65,160 702.764,160 704.878,160 706.992,160 709.106,160 711.22,160 713.333,160 715.447,157.546 717.561,153.62 719.675,148.712 721.789,160 723.902,149.202 726.016,149.693 728.13,135.46 730.244,145.767 732.358,145.767 734.472,146.258 736.585,150.184 738.699,154.11 740.813,154.601 742.927,154.11 745.041,157.055 747.154,156.564 749.268,159.509 751.382,160 753.496,160 755.61,160 757.724,160 759.837,160 761.951,160 764.065,160 766.179,160 768.293,158.528 770.407,159.509 772.52,160 774.634,160 776.748,159.509 778.862,142.331 780.976,144.785 783.089,157.055 785.203,158.528 787.317,160 789.431,160 791.545,159.509 793.659,160 795.772,160 797.886,159.018 800,156.074 800,160" fill="var(--pill)" opacity="0.6"/>
  <polyline points="20,160 22.1138,160 24.2276,160 26.3415,160 28.4553,160 30.5691,160 32.6829,160 34.7967,160 36.9106,157.055 39.0244,158.037 41.1382,160 43.252,160 45.3659,160 47.4797,160 49.5935,160 51.7073,160 53.8211,160 55.935,160 58.0488,160 60.1626,160 62.2764,153.62 64.3902,160 66.5041,160 68.6179,160 70.7317,154.11 72.8455,157.055 74.9593,160 77.0732,160 79.187,160 81.3008,160 83.4146,160 85.5285,160 87.6423,159.018 89.7561,160 91.8699,160 93.9837,160 96.0976,160 98.2114,160 100.325,160 102.439,160 104.553,160 106.667,160 108.78,160 110.894,160 113.008,160 115.122,160 117.236,160 119.35,160 121.463,160 123.577,160 125.691,160 127.805,160 129.919,160 132.033,160 134.146,160 136.26,160 138.374,160 140.488,160 142.602,160 144.715,160 146.829,160 148.943,160 151.057,160 153.171,160 155.285,160 157.398,160 159.512,160 161.626,159.509 163.74,160 165.854,160 167.967,160 170.081,160 172.195,160 174.309,160 176.423,160 178.537,160 180.65,160 182.764,160 184.878,160 186.992,160 189.106,160 191.22,160 193.333,160 195.447,160 197.561,160 199.675,160 201.789,160 203.902,160 206.016,160 208.13,160 210.244,160 212.358,160 214.472,160 216.585,159.018 218.699,160 220.813,160 222.927,160 225.041,145.276 227.154,155.583 229.268,157.546 231.382,155.583 233.496,157.055 235.61,156.074 237.724,160 239.837,160 241.951,160 244.065,158.037 246.179,159.018 248.293,158.037 250.407,156.564 252.52,160 254.634,158.528 256.748,156.564 258.862,160 260.976,154.11 263.089,149.202 265.203,149.202 267.317,153.62 269.431,141.84 271.545,154.601 273.659,160 275.772,154.601 277.886,160 280,160 282.114,157.546 284.228,148.221 286.341,159.018 288.455,160 290.569,158.037 292.683,160 294.797,159.509 296.911,160 299.024,160 301.138,160 303.252,160 305.366,151.656 307.48,155.583 309.593,156.074 311.707,157.546 313.821,150.675 315.935,160 318.049,158.037 320.163,156.564 322.276,158.037 324.39,156.074 326.504,160 328.618,154.11 330.732,160 332.846,159.509 334.959,160 337.073,160 339.187,157.546 341.301,160 343.415,160 345.528,160 347.642,160 349.756,160 351.87,160 353.984,160 356.098,160 358.211,160 360.325,160 362.439,160 364.553,160 366.667,160 368.78,160 370.894,160 373.008,160 375.122,154.601 377.236,158.037 379.35,160 381.463,160 383.577,160 385.691,160 387.805,160 389.919,160 392.033,160 394.146,160 396.26,160 398.374,160 400.488,160 402.602,160 404.715,160 406.829,160 408.943,160 411.057,160 413.171,160 415.285,160 417.398,160 419.512,160 421.626,160 423.74,157.055 425.854,160 427.967,160 430.081,160 432.195,160 434.309,155.092 436.423,160 438.537,160 440.65,160 442.764,160 444.878,137.423 446.992,153.62 449.106,80 451.22,155.092 453.333,149.202 455.447,155.092 457.561,158.037 459.675,158.528 461.789,159.509 463.902,156.074 466.016,160 468.13,159.018 470.244,160 472.358,159.509 474.472,159.018 476.585,159.509 478.699,160 480.813,158.528 482.927,160 485.041,159.018 487.154,159.018 489.268,157.546 491.382,157.055 493.496,160 495.61,160 497.724,159.509 499.837,159.509 501.951,158.528 504.065,159.509 506.179,157.055 508.293,157.055 510.407,159.018 512.52,158.528 514.634,147.239 516.748,157.055 518.862,129.08 520.976,147.239 523.089,153.129 525.203,160 527.317,160 529.431,160 531.545,151.656 533.659,158.528 535.772,160 537.886,160 540,138.405 542.114,158.528 544.228,160 546.341,160 548.455,160 550.569,160 552.683,160 554.797,160 556.911,160 559.024,160 561.138,160 563.252,160 565.366,160 567.48,160 569.593,160 571.707,160 573.821,160 575.935,159.509 578.049,160 580.163,160 582.276,160 584.39,160 586.504,160 588.618,160 590.732,160 592.846,160 594.959,160 597.073,159.509 599.187,158.037 601.301,160 603.415,160 605.528,160 607.642,160 609.756,160 611.87,160 613.984,160 616.098,160 618.211,160 620.325,160 622.439,160 624.553,159.509 626.667,158.037 628.78,157.055 630.894,160 633.008,160 635.122,160 637.236,156.564 639.35,157.546 641.463,147.239 643.577,160 645.691,160 647.805,160 649.919,155.092 652.033,148.221 654.146,160 656.26,160 658.374,158.037 660.488,160 662.602,158.037 664.715,160 666.829,160 668.943,160 671.057,160 673.171,160 675.285,160 677.398,159.018 679.512,144.294 681.626,159.018 683.74,160 685.854,139.387 687.967,121.718 690.081,120.736 692.195,147.73 694.309,146.258 696.423,157.055 698.537,160 700.65,160 702.764,160 704.878,160 706.992,160 709.106,160 711.22,160 713.333,160 715.447,157.546 717.561,153.62 719.675,148.712 721.789,160 723.902,149.202 726.016,149.693 728.13,135.46 730.244,145.767 732.358,145.767 734.472,146.258 736.585,150.184 738.699,154.11 740.813,154.601 742.927,154.11 745.041,157.055 747.154,156.564 749.268,159.509 751.382,160 753.496,160 755.61,160 757.724,160 759.837,160 761.951,160 764.065,160 766.179,160 768.293,158.528 770.407,159.509 772.52,160 774.634,160 776.748,159.509 778.862,142.331 780.976,144.785 783.089,157.055 785.203,158.528 787.317,160 789.431,160 791.545,159.509 793.659,160 795.772,160 797.886,159.018 800,156.074" fill="none" stroke="var(--accent)" stroke-width="1.5" stroke-linecap="round" stroke-linejoin="round"/>
</svg>

