<svg xmlns="http://www.w3.org/2000/svg" width="820" height="180" viewBox="0 0 820 180">

<style>
  :root {
    --bg:        #f6f8fa;
    --card:      #ffffff;
    --border:    #d0d7de;
    --primary:   #1f2328;
    --secondary: #636c76;
    --muted:     #8c959f;
    --accent:    #0969da;
    --green:     #1a7f37;
    --yellow:    #9a6700;
    --red:       #cf222e;
    --hover:     #f3f4f6;
    --spark-bg:  #f0f3f6;
    --spark:     #0969da;
    --pill:      #eaf1fb;
    --pill-txt:  #0969da;
    --div:       #d0d7de;
  }
  @media (prefers-color-scheme: dark) {
    :root {
      --bg:        #0d1117;
      --card:      #161b22;
      --border:    #30363d;
      --primary:   #e6edf3;
      --secondary: #848d97;
      --muted:     #7d8590;
      --accent:    #2f81f7;
      --green:     #3fb950;
      --yellow:    #d29922;
      --red:       #f85149;
      --hover:     #21262d;
      --spark-bg:  #1c2128;
      --spark:     #58a6ff;
      --pill:      #1c2d3f;
      --pill-txt:  #58a6ff;
      --div:       #30363d;
    }
  }
  
  .bg          { fill: var(--bg); }
  .card        { fill: var(--card); stroke: var(--border); stroke-width: 1; }
  .lang-pill   { fill: var(--pill); }
  .spark-bg    { fill: var(--spark-bg); }
  .spark-line  { stroke: var(--spark); }
  .divider     { stroke: var(--div); stroke-width: 1; }
  .clr-primary   { fill: var(--primary); }
  .clr-secondary { fill: var(--secondary); }
  .clr-muted     { fill: var(--muted); }
  .clr-accent    { fill: var(--accent); }
  .clr-green     { fill: var(--green); }
  .clr-yellow    { fill: var(--yellow); }
  .clr-red       { fill: var(--red); }
  .txt-bold    { font-weight: 600; }
  svg text     { font-family: -apple-system, BlinkMacSystemFont, "Segoe UI", Helvetica, Arial, sans-serif; }
</style>

<rect x="0" y="0" width="820" height="180" rx="8" class="card"/>
  <text x="20" y="24" class="clr-primary txt-bold" text-anchor="start" font-size="14">Contribution History &amp; Activity</text>
  <line x1="20" y1="36" x2="800" y2="36" class="divider"/>
  <text x="20" y="60" class="clr-muted" text-anchor="start" font-size="12">Years Active:</text>
  <text x="100" y="60" class="clr-primary txt-bold" text-anchor="start" font-size="12">5.6</text>
  <text x="160" y="60" class="clr-muted" text-anchor="start" font-size="12">Commits (Last Year):</text>
  <text x="290" y="60" class="clr-primary txt-bold" text-anchor="start" font-size="12">1170</text>
  <text x="360" y="60" class="clr-muted" text-anchor="start" font-size="12">Highest Daily:</text>
  <text x="450" y="60" class="clr-primary txt-bold" text-anchor="start" font-size="12">163</text>
  <polygon points="20,160 20,160 22.1253,160 24.2507,160 26.376,160 28.5014,159.018 30.6267,160 32.752,160 34.8774,160 37.0027,160 39.1281,160 41.2534,160 43.3787,160 45.5041,160 47.6294,160 49.7548,160 51.8801,160 54.0054,160 56.1308,160 58.2561,160 60.3815,160 62.5068,160 64.6322,160 66.7575,160 68.8828,160 71.0082,160 73.1335,160 75.2589,160 77.3842,160 79.5095,160 81.6349,160 83.7602,160 85.8856,160 88.0109,160 90.1362,160 92.2616,160 94.3869,160 96.5123,160 98.6376,160 100.763,160 102.888,159.509 105.014,160 107.139,160 109.264,160 111.39,160 113.515,160 115.64,160 117.766,160 119.891,160 122.016,160 124.142,160 126.267,160 128.392,160 130.518,160 132.643,160 134.768,160 136.894,160 139.019,160 141.144,160 143.27,160 145.395,160 147.52,160 149.646,160 151.771,160 153.896,160 156.022,160 158.147,159.018 160.272,160 162.398,160 164.523,160 166.649,145.276 168.774,155.583 170.899,157.546 173.025,155.583 175.15,157.055 177.275,156.074 179.401,160 181.526,160 183.651,160 185.777,158.037 187.902,159.018 190.027,158.037 192.153,156.564 194.278,160 196.403,158.528 198.529,156.564 200.654,160 202.779,154.11 204.905,149.202 207.03,149.202 209.155,153.62 211.281,141.84 213.406,154.601 215.531,160 217.657,154.601 219.782,160 221.907,160 224.033,157.546 226.158,148.221 228.283,159.018 230.409,160 232.534,158.037 234.659,160 236.785,159.509 238.91,160 241.035,160 243.161,160 245.286,160 247.411,151.656 249.537,155.583 251.662,156.074 253.787,157.546 255.913,150.675 258.038,160 260.163,158.037 262.289,156.564 264.414,158.037 266.54,156.074 268.665,160 270.79,154.11 272.916,160 275.041,159.509 277.166,160 279.292,160 281.417,157.546 283.542,160 285.668,160 287.793,160 289.918,160 292.044,160 294.169,160 296.294,160 298.42,160 300.545,160 302.67,160 304.796,160 306.921,160 309.046,160 311.172,160 313.297,160 315.422,160 317.548,154.601 319.673,158.037 321.798,160 323.924,160 326.049,160 328.174,160 330.3,160 332.425,160 334.55,160 336.676,160 338.801,160 340.926,160 343.052,160 345.177,160 347.302,160 349.428,160 351.553,160 353.678,160 355.804,160 357.929,160 360.054,160 362.18,160 364.305,160 366.431,157.055 368.556,160 370.681,160 372.807,160 374.932,160 377.057,155.092 379.183,160 381.308,160 383.433,160 385.559,160 387.684,137.423 389.809,153.62 391.935,80 394.06,155.092 396.185,149.202 398.311,155.092 400.436,158.037 402.561,158.528 404.687,159.509 406.812,156.074 408.937,160 411.063,159.018 413.188,160 415.313,159.509 417.439,159.018 419.564,159.509 421.689,160 423.815,158.528 425.94,160 428.065,159.018 430.191,159.018 432.316,157.546 434.441,157.055 436.567,160 438.692,160 440.817,159.509 442.943,159.509 445.068,158.528 447.193,159.509 449.319,157.055 451.444,157.055 453.569,159.018 455.695,158.528 457.82,147.239 459.946,157.055 462.071,129.08 464.196,147.239 466.322,153.129 468.447,160 470.572,160 472.698,160 474.823,151.656 476.948,158.528 479.074,160 481.199,160 483.324,138.405 485.45,158.528 487.575,160 489.7,160 491.826,160 493.951,160 496.076,160 498.202,160 500.327,160 502.452,160 504.578,160 506.703,160 508.828,160 510.954,160 513.079,160 515.204,160 517.33,160 519.455,159.509 521.58,160 523.706,160 525.831,160 527.956,160 530.082,160 532.207,160 534.332,160 536.458,160 538.583,160 540.708,159.509 542.834,158.037 544.959,160 547.084,160 549.21,160 551.335,160 553.46,160 555.586,160 557.711,160 559.837,160 561.962,160 564.087,160 566.213,160 568.338,159.509 570.463,158.037 572.589,157.055 574.714,160 576.839,160 578.965,160 581.09,156.564 583.215,157.546 585.341,147.239 587.466,160 589.591,160 591.717,160 593.842,155.092 595.967,148.221 598.093,160 600.218,160 602.343,158.037 604.469,160 606.594,158.037 608.719,160 610.845,160 612.97,160 615.095,160 617.221,160 619.346,160 621.471,159.018 623.597,144.294 625.722,159.018 627.847,160 629.973,139.387 632.098,121.718 634.223,120.736 636.349,147.73 638.474,146.258 640.599,157.055 642.725,160 644.85,160 646.975,160 649.101,160 651.226,160 653.351,160 655.477,160 657.602,160 659.728,157.546 661.853,153.62 663.978,148.712 666.104,160 668.229,149.202 670.354,149.693 672.48,134.969 674.605,146.258 676.73,145.767 678.856,146.258 680.981,150.184 683.106,154.11 685.232,154.601 687.357,154.11 689.482,157.055 691.608,156.564 693.733,159.509 695.858,160 697.984,160 700.109,160 702.234,160 704.36,160 706.485,160 708.61,160 710.736,160 712.861,158.528 714.986,159.509 717.112,160 719.237,160 721.362,159.509 723.488,142.331 725.613,144.785 727.738,157.055 729.864,158.528 731.989,160 734.114,160 736.24,159.509 738.365,160 740.49,160 742.616,159.018 744.741,153.62 746.866,159.018 748.992,160 751.117,160 753.243,149.693 755.368,155.583 757.493,158.528 759.619,156.074 761.744,155.583 763.869,159.509 765.995,159.509 768.12,160 770.245,160 772.371,151.656 774.496,140.859 776.621,155.092 778.747,160 780.872,141.84 782.997,150.184 785.123,152.147 787.248,160 789.373,160 791.499,160 793.624,160 795.749,160 797.875,160 800,160 800,160" fill="var(--pill)" opacity="0.6"/>
  <polyline points="20,160 22.1253,160 24.2507,160 26.376,160 28.5014,159.018 30.6267,160 32.752,160 34.8774,160 37.0027,160 39.1281,160 41.2534,160 43.3787,160 45.5041,160 47.6294,160 49.7548,160 51.8801,160 54.0054,160 56.1308,160 58.2561,160 60.3815,160 62.5068,160 64.6322,160 66.7575,160 68.8828,160 71.0082,160 73.1335,160 75.2589,160 77.3842,160 79.5095,160 81.6349,160 83.7602,160 85.8856,160 88.0109,160 90.1362,160 92.2616,160 94.3869,160 96.5123,160 98.6376,160 100.763,160 102.888,159.509 105.014,160 107.139,160 109.264,160 111.39,160 113.515,160 115.64,160 117.766,160 119.891,160 122.016,160 124.142,160 126.267,160 128.392,160 130.518,160 132.643,160 134.768,160 136.894,160 139.019,160 141.144,160 143.27,160 145.395,160 147.52,160 149.646,160 151.771,160 153.896,160 156.022,160 158.147,159.018 160.272,160 162.398,160 164.523,160 166.649,145.276 168.774,155.583 170.899,157.546 173.025,155.583 175.15,157.055 177.275,156.074 179.401,160 181.526,160 183.651,160 185.777,158.037 187.902,159.018 190.027,158.037 192.153,156.564 194.278,160 196.403,158.528 198.529,156.564 200.654,160 202.779,154.11 204.905,149.202 207.03,149.202 209.155,153.62 211.281,141.84 213.406,154.601 215.531,160 217.657,154.601 219.782,160 221.907,160 224.033,157.546 226.158,148.221 228.283,159.018 230.409,160 232.534,158.037 234.659,160 236.785,159.509 238.91,160 241.035,160 243.161,160 245.286,160 247.411,151.656 249.537,155.583 251.662,156.074 253.787,157.546 255.913,150.675 258.038,160 260.163,158.037 262.289,156.564 264.414,158.037 266.54,156.074 268.665,160 270.79,154.11 272.916,160 275.041,159.509 277.166,160 279.292,160 281.417,157.546 283.542,160 285.668,160 287.793,160 289.918,160 292.044,160 294.169,160 296.294,160 298.42,160 300.545,160 302.67,160 304.796,160 306.921,160 309.046,160 311.172,160 313.297,160 315.422,160 317.548,154.601 319.673,158.037 321.798,160 323.924,160 326.049,160 328.174,160 330.3,160 332.425,160 334.55,160 336.676,160 338.801,160 340.926,160 343.052,160 345.177,160 347.302,160 349.428,160 351.553,160 353.678,160 355.804,160 357.929,160 360.054,160 362.18,160 364.305,160 366.431,157.055 368.556,160 370.681,160 372.807,160 374.932,160 377.057,155.092 379.183,160 381.308,160 383.433,160 385.559,160 387.684,137.423 389.809,153.62 391.935,80 394.06,155.092 396.185,149.202 398.311,155.092 400.436,158.037 402.561,158.528 404.687,159.509 406.812,156.074 408.937,160 411.063,159.018 413.188,160 415.313,159.509 417.439,159.018 419.564,159.509 421.689,160 423.815,158.528 425.94,160 428.065,159.018 430.191,159.018 432.316,157.546 434.441,157.055 436.567,160 438.692,160 440.817,159.509 442.943,159.509 445.068,158.528 447.193,159.509 449.319,157.055 451.444,157.055 453.569,159.018 455.695,158.528 457.82,147.239 459.946,157.055 462.071,129.08 464.196,147.239 466.322,153.129 468.447,160 470.572,160 472.698,160 474.823,151.656 476.948,158.528 479.074,160 481.199,160 483.324,138.405 485.45,158.528 487.575,160 489.7,160 491.826,160 493.951,160 496.076,160 498.202,160 500.327,160 502.452,160 504.578,160 506.703,160 508.828,160 510.954,160 513.079,160 515.204,160 517.33,160 519.455,159.509 521.58,160 523.706,160 525.831,160 527.956,160 530.082,160 532.207,160 534.332,160 536.458,160 538.583,160 540.708,159.509 542.834,158.037 544.959,160 547.084,160 549.21,160 551.335,160 553.46,160 555.586,160 557.711,160 559.837,160 561.962,160 564.087,160 566.213,160 568.338,159.509 570.463,158.037 572.589,157.055 574.714,160 576.839,160 578.965,160 581.09,156.564 583.215,157.546 585.341,147.239 587.466,160 589.591,160 591.717,160 593.842,155.092 595.967,148.221 598.093,160 600.218,160 602.343,158.037 604.469,160 606.594,158.037 608.719,160 610.845,160 612.97,160 615.095,160 617.221,160 619.346,160 621.471,159.018 623.597,144.294 625.722,159.018 627.847,160 629.973,139.387 632.098,121.718 634.223,120.736 636.349,147.73 638.474,146.258 640.599,157.055 642.725,160 644.85,160 646.975,160 649.101,160 651.226,160 653.351,160 655.477,160 657.602,160 659.728,157.546 661.853,153.62 663.978,148.712 666.104,160 668.229,149.202 670.354,149.693 672.48,134.969 674.605,146.258 676.73,145.767 678.856,146.258 680.981,150.184 683.106,154.11 685.232,154.601 687.357,154.11 689.482,157.055 691.608,156.564 693.733,159.509 695.858,160 697.984,160 700.109,160 702.234,160 704.36,160 706.485,160 708.61,160 710.736,160 712.861,158.528 714.986,159.509 717.112,160 719.237,160 721.362,159.509 723.488,142.331 725.613,144.785 727.738,157.055 729.864,158.528 731.989,160 734.114,160 736.24,159.509 738.365,160 740.49,160 742.616,159.018 744.741,153.62 746.866,159.018 748.992,160 751.117,160 753.243,149.693 755.368,155.583 757.493,158.528 759.619,156.074 761.744,155.583 763.869,159.509 765.995,159.509 768.12,160 770.245,160 772.371,151.656 774.496,140.859 776.621,155.092 778.747,160 780.872,141.84 782.997,150.184 785.123,152.147 787.248,160 789.373,160 791.499,160 793.624,160 795.749,160 797.875,160 800,160" fill="none" stroke="var(--accent)" stroke-width="1.5" stroke-linecap="round" stroke-linejoin="round"/>
</svg>

