<svg xmlns="http://www.w3.org/2000/svg" width="820" height="180" viewBox="0 0 820 180">

<style>
  :root {
    --bg:        #f6f8fa;
    --card:      #ffffff;
    --border:    #d0d7de;
    --primary:   #1f2328;
    --secondary: #636c76;
    --muted:     #8c959f;
    --accent:    #0969da;
    --green:     #1a7f37;
    --yellow:    #9a6700;
    --red:       #cf222e;
    --hover:     #f3f4f6;
    --spark-bg:  #f0f3f6;
    --spark:     #0969da;
    --pill:      #eaf1fb;
    --pill-txt:  #0969da;
    --div:       #d0d7de;
  }
  @media (prefers-color-scheme: dark) {
    :root {
      --bg:        #0d1117;
      --card:      #161b22;
      --border:    #30363d;
      --primary:   #e6edf3;
      --secondary: #848d97;
      --muted:     #7d8590;
      --accent:    #2f81f7;
      --green:     #3fb950;
      --yellow:    #d29922;
      --red:       #f85149;
      --hover:     #21262d;
      --spark-bg:  #1c2128;
      --spark:     #58a6ff;
      --pill:      #1c2d3f;
      --pill-txt:  #58a6ff;
      --div:       #30363d;
    }
  }
  
  .bg          { fill: var(--bg); }
  .card        { fill: var(--card); stroke: var(--border); stroke-width: 1; }
  .lang-pill   { fill: var(--pill); }
  .spark-bg    { fill: var(--spark-bg); }
  .spark-line  { stroke: var(--spark); }
  .divider     { stroke: var(--div); stroke-width: 1; }
  .clr-primary   { fill: var(--primary); }
  .clr-secondary { fill: var(--secondary); }
  .clr-muted     { fill: var(--muted); }
  .clr-accent    { fill: var(--accent); }
  .clr-green     { fill: var(--green); }
  .clr-yellow    { fill: var(--yellow); }
  .clr-red       { fill: var(--red); }
  .txt-bold    { font-weight: 600; }
  svg text     { font-family: -apple-system, BlinkMacSystemFont, "Segoe UI", Helvetica, Arial, sans-serif; }
</style>

<rect x="0" y="0" width="820" height="180" rx="8" class="card"/>
  <text x="20" y="24" class="clr-primary txt-bold" text-anchor="start" font-size="14">Contribution History &amp; Activity</text>
  <line x1="20" y1="36" x2="800" y2="36" class="divider"/>
  <text x="20" y="60" class="clr-muted" text-anchor="start" font-size="12">Years Active:</text>
  <text x="100" y="60" class="clr-primary txt-bold" text-anchor="start" font-size="12">5.7</text>
  <text x="160" y="60" class="clr-muted" text-anchor="start" font-size="12">Commits (Last Year):</text>
  <text x="290" y="60" class="clr-primary txt-bold" text-anchor="start" font-size="12">1204</text>
  <text x="360" y="60" class="clr-muted" text-anchor="start" font-size="12">Highest Daily:</text>
  <text x="450" y="60" class="clr-primary txt-bold" text-anchor="start" font-size="12">163</text>
  <polygon points="20,160 20,160 22.1429,160 24.2857,160 26.4286,160 28.5714,160 30.7143,160 32.8571,160 35,160 37.1429,160 39.2857,160 41.4286,160 43.5714,160 45.7143,160 47.8571,160 50,160 52.1429,160 54.2857,159.018 56.4286,160 58.5714,160 60.7143,160 62.8571,145.276 65,155.583 67.1429,157.546 69.2857,155.583 71.4286,157.055 73.5714,156.074 75.7143,160 77.8571,160 80,160 82.1429,158.037 84.2857,159.018 86.4286,158.037 88.5714,156.564 90.7143,160 92.8571,158.528 95,156.564 97.1429,160 99.2857,154.11 101.429,149.202 103.571,149.202 105.714,153.62 107.857,141.84 110,154.601 112.143,160 114.286,154.601 116.429,160 118.571,160 120.714,157.546 122.857,148.221 125,159.018 127.143,160 129.286,158.037 131.429,160 133.571,159.509 135.714,160 137.857,160 140,160 142.143,160 144.286,151.656 146.429,155.583 148.571,156.074 150.714,157.546 152.857,150.675 155,160 157.143,158.037 159.286,156.564 161.429,158.037 163.571,156.074 165.714,160 167.857,154.11 170,160 172.143,159.509 174.286,160 176.429,160 178.571,157.546 180.714,160 182.857,160 185,160 187.143,160 189.286,160 191.429,160 193.571,160 195.714,160 197.857,160 200,160 202.143,160 204.286,160 206.429,160 208.571,160 210.714,160 212.857,160 215,154.601 217.143,158.037 219.286,160 221.429,160 223.571,160 225.714,160 227.857,160 230,160 232.143,160 234.286,160 236.429,160 238.571,160 240.714,160 242.857,160 245,160 247.143,160 249.286,160 251.429,160 253.571,160 255.714,160 257.857,160 260,160 262.143,160 264.286,157.055 266.429,160 268.571,160 270.714,160 272.857,160 275,155.092 277.143,160 279.286,160 281.429,160 283.571,160 285.714,137.423 287.857,153.62 290,80 292.143,155.092 294.286,149.202 296.429,155.092 298.571,158.037 300.714,158.528 302.857,159.509 305,156.074 307.143,160 309.286,159.018 311.429,160 313.571,159.509 315.714,159.018 317.857,159.509 320,160 322.143,158.528 324.286,160 326.429,159.018 328.571,159.018 330.714,157.546 332.857,157.055 335,160 337.143,160 339.286,159.509 341.429,159.509 343.571,158.528 345.714,159.509 347.857,157.055 350,157.055 352.143,159.018 354.286,158.528 356.429,147.239 358.571,157.055 360.714,129.08 362.857,147.239 365,153.129 367.143,160 369.286,160 371.429,160 373.571,151.656 375.714,158.528 377.857,160 380,160 382.143,138.405 384.286,158.528 386.429,160 388.571,160 390.714,160 392.857,160 395,160 397.143,160 399.286,160 401.429,160 403.571,160 405.714,160 407.857,160 410,160 412.143,160 414.286,160 416.429,160 418.571,159.509 420.714,160 422.857,160 425,160 427.143,160 429.286,160 431.429,160 433.571,160 435.714,160 437.857,160 440,159.509 442.143,158.037 444.286,160 446.429,160 448.571,160 450.714,160 452.857,160 455,160 457.143,160 459.286,160 461.429,160 463.571,160 465.714,160 467.857,159.509 470,158.037 472.143,157.055 474.286,160 476.429,160 478.571,160 480.714,156.564 482.857,157.546 485,147.239 487.143,160 489.286,160 491.429,160 493.571,155.092 495.714,148.221 497.857,160 500,160 502.143,158.037 504.286,160 506.429,158.037 508.571,160 510.714,160 512.857,160 515,160 517.143,160 519.286,160 521.429,159.018 523.571,144.294 525.714,159.018 527.857,160 530,139.387 532.143,121.718 534.286,120.736 536.429,147.73 538.571,146.258 540.714,157.055 542.857,160 545,160 547.143,160 549.286,160 551.429,160 553.571,160 555.714,160 557.857,160 560,157.546 562.143,153.62 564.286,148.712 566.429,160 568.571,149.202 570.714,149.693 572.857,134.969 575,146.258 577.143,145.767 579.286,146.258 581.429,150.184 583.571,154.11 585.714,154.601 587.857,154.11 590,157.055 592.143,156.564 594.286,159.509 596.429,160 598.571,160 600.714,160 602.857,160 605,160 607.143,160 609.286,160 611.429,160 613.571,158.528 615.714,159.509 617.857,160 620,160 622.143,159.509 624.286,142.331 626.429,144.785 628.571,157.055 630.714,158.528 632.857,160 635,160 637.143,159.509 639.286,160 641.429,160 643.571,159.018 645.714,153.62 647.857,159.018 650,160 652.143,160 654.286,149.693 656.429,155.583 658.571,158.528 660.714,156.074 662.857,155.583 665,159.509 667.143,159.509 669.286,160 671.429,160 673.571,151.656 675.714,140.859 677.857,155.092 680,160 682.143,141.84 684.286,150.184 686.429,152.147 688.571,160 690.714,160 692.857,160 695,160 697.143,160 699.286,160 701.429,160 703.571,160 705.714,160 707.857,160 710,160 712.143,160 714.286,158.037 716.429,160 718.571,160 720.714,160 722.857,160 725,160 727.143,160 729.286,160 731.429,160 733.571,160 735.714,160 737.857,160 740,160 742.143,160 744.286,160 746.429,156.564 748.571,154.601 750.714,160 752.857,160 755,160 757.143,160 759.286,159.509 761.429,160 763.571,160 765.714,159.509 767.857,159.509 770,160 772.143,159.509 774.286,160 776.429,160 778.571,156.074 780.714,159.509 782.857,159.509 785,160 787.143,158.037 789.286,160 791.429,160 793.571,160 795.714,160 797.857,160 800,160 800,160" fill="var(--pill)" opacity="0.6"/>
  <polyline points="20,160 22.1429,160 24.2857,160 26.4286,160 28.5714,160 30.7143,160 32.8571,160 35,160 37.1429,160 39.2857,160 41.4286,160 43.5714,160 45.7143,160 47.8571,160 50,160 52.1429,160 54.2857,159.018 56.4286,160 58.5714,160 60.7143,160 62.8571,145.276 65,155.583 67.1429,157.546 69.2857,155.583 71.4286,157.055 73.5714,156.074 75.7143,160 77.8571,160 80,160 82.1429,158.037 84.2857,159.018 86.4286,158.037 88.5714,156.564 90.7143,160 92.8571,158.528 95,156.564 97.1429,160 99.2857,154.11 101.429,149.202 103.571,149.202 105.714,153.62 107.857,141.84 110,154.601 112.143,160 114.286,154.601 116.429,160 118.571,160 120.714,157.546 122.857,148.221 125,159.018 127.143,160 129.286,158.037 131.429,160 133.571,159.509 135.714,160 137.857,160 140,160 142.143,160 144.286,151.656 146.429,155.583 148.571,156.074 150.714,157.546 152.857,150.675 155,160 157.143,158.037 159.286,156.564 161.429,158.037 163.571,156.074 165.714,160 167.857,154.11 170,160 172.143,159.509 174.286,160 176.429,160 178.571,157.546 180.714,160 182.857,160 185,160 187.143,160 189.286,160 191.429,160 193.571,160 195.714,160 197.857,160 200,160 202.143,160 204.286,160 206.429,160 208.571,160 210.714,160 212.857,160 215,154.601 217.143,158.037 219.286,160 221.429,160 223.571,160 225.714,160 227.857,160 230,160 232.143,160 234.286,160 236.429,160 238.571,160 240.714,160 242.857,160 245,160 247.143,160 249.286,160 251.429,160 253.571,160 255.714,160 257.857,160 260,160 262.143,160 264.286,157.055 266.429,160 268.571,160 270.714,160 272.857,160 275,155.092 277.143,160 279.286,160 281.429,160 283.571,160 285.714,137.423 287.857,153.62 290,80 292.143,155.092 294.286,149.202 296.429,155.092 298.571,158.037 300.714,158.528 302.857,159.509 305,156.074 307.143,160 309.286,159.018 311.429,160 313.571,159.509 315.714,159.018 317.857,159.509 320,160 322.143,158.528 324.286,160 326.429,159.018 328.571,159.018 330.714,157.546 332.857,157.055 335,160 337.143,160 339.286,159.509 341.429,159.509 343.571,158.528 345.714,159.509 347.857,157.055 350,157.055 352.143,159.018 354.286,158.528 356.429,147.239 358.571,157.055 360.714,129.08 362.857,147.239 365,153.129 367.143,160 369.286,160 371.429,160 373.571,151.656 375.714,158.528 377.857,160 380,160 382.143,138.405 384.286,158.528 386.429,160 388.571,160 390.714,160 392.857,160 395,160 397.143,160 399.286,160 401.429,160 403.571,160 405.714,160 407.857,160 410,160 412.143,160 414.286,160 416.429,160 418.571,159.509 420.714,160 422.857,160 425,160 427.143,160 429.286,160 431.429,160 433.571,160 435.714,160 437.857,160 440,159.509 442.143,158.037 444.286,160 446.429,160 448.571,160 450.714,160 452.857,160 455,160 457.143,160 459.286,160 461.429,160 463.571,160 465.714,160 467.857,159.509 470,158.037 472.143,157.055 474.286,160 476.429,160 478.571,160 480.714,156.564 482.857,157.546 485,147.239 487.143,160 489.286,160 491.429,160 493.571,155.092 495.714,148.221 497.857,160 500,160 502.143,158.037 504.286,160 506.429,158.037 508.571,160 510.714,160 512.857,160 515,160 517.143,160 519.286,160 521.429,159.018 523.571,144.294 525.714,159.018 527.857,160 530,139.387 532.143,121.718 534.286,120.736 536.429,147.73 538.571,146.258 540.714,157.055 542.857,160 545,160 547.143,160 549.286,160 551.429,160 553.571,160 555.714,160 557.857,160 560,157.546 562.143,153.62 564.286,148.712 566.429,160 568.571,149.202 570.714,149.693 572.857,134.969 575,146.258 577.143,145.767 579.286,146.258 581.429,150.184 583.571,154.11 585.714,154.601 587.857,154.11 590,157.055 592.143,156.564 594.286,159.509 596.429,160 598.571,160 600.714,160 602.857,160 605,160 607.143,160 609.286,160 611.429,160 613.571,158.528 615.714,159.509 617.857,160 620,160 622.143,159.509 624.286,142.331 626.429,144.785 628.571,157.055 630.714,158.528 632.857,160 635,160 637.143,159.509 639.286,160 641.429,160 643.571,159.018 645.714,153.62 647.857,159.018 650,160 652.143,160 654.286,149.693 656.429,155.583 658.571,158.528 660.714,156.074 662.857,155.583 665,159.509 667.143,159.509 669.286,160 671.429,160 673.571,151.656 675.714,140.859 677.857,155.092 680,160 682.143,141.84 684.286,150.184 686.429,152.147 688.571,160 690.714,160 692.857,160 695,160 697.143,160 699.286,160 701.429,160 703.571,160 705.714,160 707.857,160 710,160 712.143,160 714.286,158.037 716.429,160 718.571,160 720.714,160 722.857,160 725,160 727.143,160 729.286,160 731.429,160 733.571,160 735.714,160 737.857,160 740,160 742.143,160 744.286,160 746.429,156.564 748.571,154.601 750.714,160 752.857,160 755,160 757.143,160 759.286,159.509 761.429,160 763.571,160 765.714,159.509 767.857,159.509 770,160 772.143,159.509 774.286,160 776.429,160 778.571,156.074 780.714,159.509 782.857,159.509 785,160 787.143,158.037 789.286,160 791.429,160 793.571,160 795.714,160 797.857,160 800,160" fill="none" stroke="var(--accent)" stroke-width="1.5" stroke-linecap="round" stroke-linejoin="round"/>
</svg>

