<svg xmlns="http://www.w3.org/2000/svg" width="820" height="180" viewBox="0 0 820 180">

<style>
  :root {
    --bg:        #f6f8fa;
    --card:      #ffffff;
    --border:    #d0d7de;
    --primary:   #1f2328;
    --secondary: #636c76;
    --muted:     #8c959f;
    --accent:    #0969da;
    --green:     #1a7f37;
    --yellow:    #9a6700;
    --red:       #cf222e;
    --hover:     #f3f4f6;
    --spark-bg:  #f0f3f6;
    --spark:     #0969da;
    --pill:      #eaf1fb;
    --pill-txt:  #0969da;
    --div:       #d0d7de;
  }
  @media (prefers-color-scheme: dark) {
    :root {
      --bg:        #0d1117;
      --card:      #161b22;
      --border:    #30363d;
      --primary:   #e6edf3;
      --secondary: #848d97;
      --muted:     #7d8590;
      --accent:    #2f81f7;
      --green:     #3fb950;
      --yellow:    #d29922;
      --red:       #f85149;
      --hover:     #21262d;
      --spark-bg:  #1c2128;
      --spark:     #58a6ff;
      --pill:      #1c2d3f;
      --pill-txt:  #58a6ff;
      --div:       #30363d;
    }
  }
  
  .bg          { fill: var(--bg); }
  .card        { fill: var(--card); stroke: var(--border); stroke-width: 1; }
  .lang-pill   { fill: var(--pill); }
  .spark-bg    { fill: var(--spark-bg); }
  .spark-line  { stroke: var(--spark); }
  .divider     { stroke: var(--div); stroke-width: 1; }
  .clr-primary   { fill: var(--primary); }
  .clr-secondary { fill: var(--secondary); }
  .clr-muted     { fill: var(--muted); }
  .clr-accent    { fill: var(--accent); }
  .clr-green     { fill: var(--green); }
  .clr-yellow    { fill: var(--yellow); }
  .clr-red       { fill: var(--red); }
  .txt-bold    { font-weight: 600; }
  svg text     { font-family: -apple-system, BlinkMacSystemFont, "Segoe UI", Helvetica, Arial, sans-serif; }
</style>

<rect x="0" y="0" width="820" height="180" rx="8" class="card"/>
  <text x="20" y="24" class="clr-primary txt-bold" text-anchor="start" font-size="14">Contribution History &amp; Activity</text>
  <line x1="20" y1="36" x2="800" y2="36" class="divider"/>
  <text x="20" y="60" class="clr-muted" text-anchor="start" font-size="12">Years Active:</text>
  <text x="100" y="60" class="clr-primary txt-bold" text-anchor="start" font-size="12">5.7</text>
  <text x="160" y="60" class="clr-muted" text-anchor="start" font-size="12">Commits (Last Year):</text>
  <text x="290" y="60" class="clr-primary txt-bold" text-anchor="start" font-size="12">1192</text>
  <text x="360" y="60" class="clr-muted" text-anchor="start" font-size="12">Highest Daily:</text>
  <text x="450" y="60" class="clr-primary txt-bold" text-anchor="start" font-size="12">163</text>
  <polygon points="20,160 20,160 22.1253,160 24.2507,160 26.376,160 28.5014,159.509 30.6267,160 32.752,160 34.8774,160 37.0027,160 39.1281,160 41.2534,160 43.3787,160 45.5041,160 47.6294,160 49.7548,160 51.8801,160 54.0054,160 56.1308,160 58.2561,160 60.3815,160 62.5068,160 64.6322,160 66.7575,160 68.8828,160 71.0082,160 73.1335,160 75.2589,160 77.3842,160 79.5095,160 81.6349,160 83.7602,159.018 85.8856,160 88.0109,160 90.1362,160 92.2616,145.276 94.3869,155.583 96.5123,157.546 98.6376,155.583 100.763,157.055 102.888,156.074 105.014,160 107.139,160 109.264,160 111.39,158.037 113.515,159.018 115.64,158.037 117.766,156.564 119.891,160 122.016,158.528 124.142,156.564 126.267,160 128.392,154.11 130.518,149.202 132.643,149.202 134.768,153.62 136.894,141.84 139.019,154.601 141.144,160 143.27,154.601 145.395,160 147.52,160 149.646,157.546 151.771,148.221 153.896,159.018 156.022,160 158.147,158.037 160.272,160 162.398,159.509 164.523,160 166.649,160 168.774,160 170.899,160 173.025,151.656 175.15,155.583 177.275,156.074 179.401,157.546 181.526,150.675 183.651,160 185.777,158.037 187.902,156.564 190.027,158.037 192.153,156.074 194.278,160 196.403,154.11 198.529,160 200.654,159.509 202.779,160 204.905,160 207.03,157.546 209.155,160 211.281,160 213.406,160 215.531,160 217.657,160 219.782,160 221.907,160 224.033,160 226.158,160 228.283,160 230.409,160 232.534,160 234.659,160 236.785,160 238.91,160 241.035,160 243.161,154.601 245.286,158.037 247.411,160 249.537,160 251.662,160 253.787,160 255.913,160 258.038,160 260.163,160 262.289,160 264.414,160 266.54,160 268.665,160 270.79,160 272.916,160 275.041,160 277.166,160 279.292,160 281.417,160 283.542,160 285.668,160 287.793,160 289.918,160 292.044,157.055 294.169,160 296.294,160 298.42,160 300.545,160 302.67,155.092 304.796,160 306.921,160 309.046,160 311.172,160 313.297,137.423 315.422,153.62 317.548,80 319.673,155.092 321.798,149.202 323.924,155.092 326.049,158.037 328.174,158.528 330.3,159.509 332.425,156.074 334.55,160 336.676,159.018 338.801,160 340.926,159.509 343.052,159.018 345.177,159.509 347.302,160 349.428,158.528 351.553,160 353.678,159.018 355.804,159.018 357.929,157.546 360.054,157.055 362.18,160 364.305,160 366.431,159.509 368.556,159.509 370.681,158.528 372.807,159.509 374.932,157.055 377.057,157.055 379.183,159.018 381.308,158.528 383.433,147.239 385.559,157.055 387.684,129.08 389.809,147.239 391.935,153.129 394.06,160 396.185,160 398.311,160 400.436,151.656 402.561,158.528 404.687,160 406.812,160 408.937,138.405 411.063,158.528 413.188,160 415.313,160 417.439,160 419.564,160 421.689,160 423.815,160 425.94,160 428.065,160 430.191,160 432.316,160 434.441,160 436.567,160 438.692,160 440.817,160 442.943,160 445.068,159.509 447.193,160 449.319,160 451.444,160 453.569,160 455.695,160 457.82,160 459.946,160 462.071,160 464.196,160 466.322,159.509 468.447,158.037 470.572,160 472.698,160 474.823,160 476.948,160 479.074,160 481.199,160 483.324,160 485.45,160 487.575,160 489.7,160 491.826,160 493.951,159.509 496.076,158.037 498.202,157.055 500.327,160 502.452,160 504.578,160 506.703,156.564 508.828,157.546 510.954,147.239 513.079,160 515.204,160 517.33,160 519.455,155.092 521.58,148.221 523.706,160 525.831,160 527.956,158.037 530.082,160 532.207,158.037 534.332,160 536.458,160 538.583,160 540.708,160 542.834,160 544.959,160 547.084,159.018 549.21,144.294 551.335,159.018 553.46,160 555.586,139.387 557.711,121.718 559.837,120.736 561.962,147.73 564.087,146.258 566.213,157.055 568.338,160 570.463,160 572.589,160 574.714,160 576.839,160 578.965,160 581.09,160 583.215,160 585.341,157.546 587.466,153.62 589.591,148.712 591.717,160 593.842,149.202 595.967,149.693 598.093,134.969 600.218,146.258 602.343,145.767 604.469,146.258 606.594,150.184 608.719,154.11 610.845,154.601 612.97,154.11 615.095,157.055 617.221,156.564 619.346,159.509 621.471,160 623.597,160 625.722,160 627.847,160 629.973,160 632.098,160 634.223,160 636.349,160 638.474,158.528 640.599,159.509 642.725,160 644.85,160 646.975,159.509 649.101,142.331 651.226,144.785 653.351,157.055 655.477,158.528 657.602,160 659.728,160 661.853,159.509 663.978,160 666.104,160 668.229,159.018 670.354,153.62 672.48,159.018 674.605,160 676.73,160 678.856,149.693 680.981,155.583 683.106,158.528 685.232,156.074 687.357,155.583 689.482,159.509 691.608,159.509 693.733,160 695.858,160 697.984,151.656 700.109,140.859 702.234,155.092 704.36,160 706.485,141.84 708.61,150.184 710.736,152.147 712.861,160 714.986,160 717.112,160 719.237,160 721.362,160 723.488,160 725.613,160 727.738,160 729.864,160 731.989,160 734.114,160 736.24,160 738.365,158.037 740.49,160 742.616,160 744.741,160 746.866,160 748.992,160 751.117,160 753.243,160 755.368,160 757.493,160 759.619,160 761.744,160 763.869,160 765.995,160 768.12,160 770.245,156.564 772.371,154.601 774.496,160 776.621,160 778.747,160 780.872,160 782.997,159.509 785.123,160 787.248,160 789.373,159.509 791.499,159.509 793.624,160 795.749,159.509 797.875,160 800,160 800,160" fill="var(--pill)" opacity="0.6"/>
  <polyline points="20,160 22.1253,160 24.2507,160 26.376,160 28.5014,159.509 30.6267,160 32.752,160 34.8774,160 37.0027,160 39.1281,160 41.2534,160 43.3787,160 45.5041,160 47.6294,160 49.7548,160 51.8801,160 54.0054,160 56.1308,160 58.2561,160 60.3815,160 62.5068,160 64.6322,160 66.7575,160 68.8828,160 71.0082,160 73.1335,160 75.2589,160 77.3842,160 79.5095,160 81.6349,160 83.7602,159.018 85.8856,160 88.0109,160 90.1362,160 92.2616,145.276 94.3869,155.583 96.5123,157.546 98.6376,155.583 100.763,157.055 102.888,156.074 105.014,160 107.139,160 109.264,160 111.39,158.037 113.515,159.018 115.64,158.037 117.766,156.564 119.891,160 122.016,158.528 124.142,156.564 126.267,160 128.392,154.11 130.518,149.202 132.643,149.202 134.768,153.62 136.894,141.84 139.019,154.601 141.144,160 143.27,154.601 145.395,160 147.52,160 149.646,157.546 151.771,148.221 153.896,159.018 156.022,160 158.147,158.037 160.272,160 162.398,159.509 164.523,160 166.649,160 168.774,160 170.899,160 173.025,151.656 175.15,155.583 177.275,156.074 179.401,157.546 181.526,150.675 183.651,160 185.777,158.037 187.902,156.564 190.027,158.037 192.153,156.074 194.278,160 196.403,154.11 198.529,160 200.654,159.509 202.779,160 204.905,160 207.03,157.546 209.155,160 211.281,160 213.406,160 215.531,160 217.657,160 219.782,160 221.907,160 224.033,160 226.158,160 228.283,160 230.409,160 232.534,160 234.659,160 236.785,160 238.91,160 241.035,160 243.161,154.601 245.286,158.037 247.411,160 249.537,160 251.662,160 253.787,160 255.913,160 258.038,160 260.163,160 262.289,160 264.414,160 266.54,160 268.665,160 270.79,160 272.916,160 275.041,160 277.166,160 279.292,160 281.417,160 283.542,160 285.668,160 287.793,160 289.918,160 292.044,157.055 294.169,160 296.294,160 298.42,160 300.545,160 302.67,155.092 304.796,160 306.921,160 309.046,160 311.172,160 313.297,137.423 315.422,153.62 317.548,80 319.673,155.092 321.798,149.202 323.924,155.092 326.049,158.037 328.174,158.528 330.3,159.509 332.425,156.074 334.55,160 336.676,159.018 338.801,160 340.926,159.509 343.052,159.018 345.177,159.509 347.302,160 349.428,158.528 351.553,160 353.678,159.018 355.804,159.018 357.929,157.546 360.054,157.055 362.18,160 364.305,160 366.431,159.509 368.556,159.509 370.681,158.528 372.807,159.509 374.932,157.055 377.057,157.055 379.183,159.018 381.308,158.528 383.433,147.239 385.559,157.055 387.684,129.08 389.809,147.239 391.935,153.129 394.06,160 396.185,160 398.311,160 400.436,151.656 402.561,158.528 404.687,160 406.812,160 408.937,138.405 411.063,158.528 413.188,160 415.313,160 417.439,160 419.564,160 421.689,160 423.815,160 425.94,160 428.065,160 430.191,160 432.316,160 434.441,160 436.567,160 438.692,160 440.817,160 442.943,160 445.068,159.509 447.193,160 449.319,160 451.444,160 453.569,160 455.695,160 457.82,160 459.946,160 462.071,160 464.196,160 466.322,159.509 468.447,158.037 470.572,160 472.698,160 474.823,160 476.948,160 479.074,160 481.199,160 483.324,160 485.45,160 487.575,160 489.7,160 491.826,160 493.951,159.509 496.076,158.037 498.202,157.055 500.327,160 502.452,160 504.578,160 506.703,156.564 508.828,157.546 510.954,147.239 513.079,160 515.204,160 517.33,160 519.455,155.092 521.58,148.221 523.706,160 525.831,160 527.956,158.037 530.082,160 532.207,158.037 534.332,160 536.458,160 538.583,160 540.708,160 542.834,160 544.959,160 547.084,159.018 549.21,144.294 551.335,159.018 553.46,160 555.586,139.387 557.711,121.718 559.837,120.736 561.962,147.73 564.087,146.258 566.213,157.055 568.338,160 570.463,160 572.589,160 574.714,160 576.839,160 578.965,160 581.09,160 583.215,160 585.341,157.546 587.466,153.62 589.591,148.712 591.717,160 593.842,149.202 595.967,149.693 598.093,134.969 600.218,146.258 602.343,145.767 604.469,146.258 606.594,150.184 608.719,154.11 610.845,154.601 612.97,154.11 615.095,157.055 617.221,156.564 619.346,159.509 621.471,160 623.597,160 625.722,160 627.847,160 629.973,160 632.098,160 634.223,160 636.349,160 638.474,158.528 640.599,159.509 642.725,160 644.85,160 646.975,159.509 649.101,142.331 651.226,144.785 653.351,157.055 655.477,158.528 657.602,160 659.728,160 661.853,159.509 663.978,160 666.104,160 668.229,159.018 670.354,153.62 672.48,159.018 674.605,160 676.73,160 678.856,149.693 680.981,155.583 683.106,158.528 685.232,156.074 687.357,155.583 689.482,159.509 691.608,159.509 693.733,160 695.858,160 697.984,151.656 700.109,140.859 702.234,155.092 704.36,160 706.485,141.84 708.61,150.184 710.736,152.147 712.861,160 714.986,160 717.112,160 719.237,160 721.362,160 723.488,160 725.613,160 727.738,160 729.864,160 731.989,160 734.114,160 736.24,160 738.365,158.037 740.49,160 742.616,160 744.741,160 746.866,160 748.992,160 751.117,160 753.243,160 755.368,160 757.493,160 759.619,160 761.744,160 763.869,160 765.995,160 768.12,160 770.245,156.564 772.371,154.601 774.496,160 776.621,160 778.747,160 780.872,160 782.997,159.509 785.123,160 787.248,160 789.373,159.509 791.499,159.509 793.624,160 795.749,159.509 797.875,160 800,160" fill="none" stroke="var(--accent)" stroke-width="1.5" stroke-linecap="round" stroke-linejoin="round"/>
</svg>

