<svg xmlns="http://www.w3.org/2000/svg" width="820" height="180" viewBox="0 0 820 180">

<style>
  :root {
    --bg:        #f6f8fa;
    --card:      #ffffff;
    --border:    #d0d7de;
    --primary:   #1f2328;
    --secondary: #636c76;
    --muted:     #8c959f;
    --accent:    #0969da;
    --green:     #1a7f37;
    --yellow:    #9a6700;
    --red:       #cf222e;
    --hover:     #f3f4f6;
    --spark-bg:  #f0f3f6;
    --spark:     #0969da;
    --pill:      #eaf1fb;
    --pill-txt:  #0969da;
    --div:       #d0d7de;
  }
  @media (prefers-color-scheme: dark) {
    :root {
      --bg:        #0d1117;
      --card:      #161b22;
      --border:    #30363d;
      --primary:   #e6edf3;
      --secondary: #848d97;
      --muted:     #7d8590;
      --accent:    #2f81f7;
      --green:     #3fb950;
      --yellow:    #d29922;
      --red:       #f85149;
      --hover:     #21262d;
      --spark-bg:  #1c2128;
      --spark:     #58a6ff;
      --pill:      #1c2d3f;
      --pill-txt:  #58a6ff;
      --div:       #30363d;
    }
  }
  
  .bg          { fill: var(--bg); }
  .card        { fill: var(--card); stroke: var(--border); stroke-width: 1; }
  .lang-pill   { fill: var(--pill); }
  .spark-bg    { fill: var(--spark-bg); }
  .spark-line  { stroke: var(--spark); }
  .divider     { stroke: var(--div); stroke-width: 1; }
  .clr-primary   { fill: var(--primary); }
  .clr-secondary { fill: var(--secondary); }
  .clr-muted     { fill: var(--muted); }
  .clr-accent    { fill: var(--accent); }
  .clr-green     { fill: var(--green); }
  .clr-yellow    { fill: var(--yellow); }
  .clr-red       { fill: var(--red); }
  .txt-bold    { font-weight: 600; }
  svg text     { font-family: -apple-system, BlinkMacSystemFont, "Segoe UI", Helvetica, Arial, sans-serif; }
</style>

<rect x="0" y="0" width="820" height="180" rx="8" class="card"/>
  <text x="20" y="24" class="clr-primary txt-bold" text-anchor="start" font-size="14">Contribution History &amp; Activity</text>
  <line x1="20" y1="36" x2="800" y2="36" class="divider"/>
  <text x="20" y="60" class="clr-muted" text-anchor="start" font-size="12">Years Active:</text>
  <text x="100" y="60" class="clr-primary txt-bold" text-anchor="start" font-size="12">5.6</text>
  <text x="160" y="60" class="clr-muted" text-anchor="start" font-size="12">Commits (Last Year):</text>
  <text x="290" y="60" class="clr-primary txt-bold" text-anchor="start" font-size="12">1067</text>
  <text x="360" y="60" class="clr-muted" text-anchor="start" font-size="12">Highest Daily:</text>
  <text x="450" y="60" class="clr-primary txt-bold" text-anchor="start" font-size="12">163</text>
  <polygon points="20,160 20,160 22.1311,160 24.2623,160 26.3934,160 28.5246,160 30.6557,160 32.7869,153.62 34.918,160 37.0492,160 39.1803,160 41.3115,154.11 43.4426,157.055 45.5738,160 47.7049,160 49.8361,160 51.9672,160 54.0984,160 56.2295,160 58.3607,159.018 60.4918,160 62.623,160 64.7541,160 66.8852,160 69.0164,160 71.1475,160 73.2787,160 75.4098,160 77.541,160 79.6721,160 81.8033,160 83.9344,160 86.0656,160 88.1967,160 90.3279,160 92.459,160 94.5902,160 96.7213,160 98.8525,160 100.984,160 103.115,160 105.246,160 107.377,160 109.508,160 111.639,160 113.77,160 115.902,160 118.033,160 120.164,160 122.295,160 124.426,160 126.557,160 128.689,160 130.82,160 132.951,159.509 135.082,160 137.213,160 139.344,160 141.475,160 143.607,160 145.738,160 147.869,160 150,160 152.131,160 154.262,160 156.393,160 158.525,160 160.656,160 162.787,160 164.918,160 167.049,160 169.18,160 171.311,160 173.443,160 175.574,160 177.705,160 179.836,160 181.967,160 184.098,160 186.23,160 188.361,159.018 190.492,160 192.623,160 194.754,160 196.885,145.276 199.016,155.583 201.148,157.546 203.279,155.583 205.41,157.055 207.541,156.074 209.672,160 211.803,160 213.934,160 216.066,158.037 218.197,159.018 220.328,158.037 222.459,156.564 224.59,160 226.721,158.528 228.852,156.564 230.984,160 233.115,154.11 235.246,149.202 237.377,149.202 239.508,153.62 241.639,141.84 243.77,154.601 245.902,160 248.033,154.601 250.164,160 252.295,160 254.426,157.546 256.557,148.221 258.689,159.018 260.82,160 262.951,158.037 265.082,160 267.213,159.509 269.344,160 271.475,160 273.607,160 275.738,160 277.869,151.656 280,155.583 282.131,156.074 284.262,157.546 286.393,150.675 288.525,160 290.656,158.037 292.787,156.564 294.918,158.037 297.049,156.074 299.18,160 301.311,154.11 303.443,160 305.574,159.509 307.705,160 309.836,160 311.967,157.546 314.098,160 316.23,160 318.361,160 320.492,160 322.623,160 324.754,160 326.885,160 329.016,160 331.148,160 333.279,160 335.41,160 337.541,160 339.672,160 341.803,160 343.934,160 346.066,160 348.197,154.601 350.328,158.037 352.459,160 354.59,160 356.721,160 358.852,160 360.984,160 363.115,160 365.246,160 367.377,160 369.508,160 371.639,160 373.77,160 375.902,160 378.033,160 380.164,160 382.295,160 384.426,160 386.557,160 388.689,160 390.82,160 392.951,160 395.082,160 397.213,157.055 399.344,160 401.475,160 403.607,160 405.738,160 407.869,155.092 410,160 412.131,160 414.262,160 416.393,160 418.525,137.423 420.656,153.62 422.787,80 424.918,155.092 427.049,149.202 429.18,155.092 431.311,158.037 433.443,158.528 435.574,159.509 437.705,156.074 439.836,160 441.967,159.018 444.098,160 446.23,159.509 448.361,159.018 450.492,159.509 452.623,160 454.754,158.528 456.885,160 459.016,159.018 461.148,159.018 463.279,157.546 465.41,157.055 467.541,160 469.672,160 471.803,159.509 473.934,159.509 476.066,158.528 478.197,159.509 480.328,157.055 482.459,157.055 484.59,159.018 486.721,158.528 488.852,147.239 490.984,157.055 493.115,129.08 495.246,147.239 497.377,153.129 499.508,160 501.639,160 503.77,160 505.902,151.656 508.033,158.528 510.164,160 512.295,160 514.426,138.405 516.557,158.528 518.689,160 520.82,160 522.951,160 525.082,160 527.213,160 529.344,160 531.475,160 533.607,160 535.738,160 537.869,160 540,160 542.131,160 544.262,160 546.393,160 548.525,160 550.656,159.509 552.787,160 554.918,160 557.049,160 559.18,160 561.311,160 563.443,160 565.574,160 567.705,160 569.836,160 571.967,159.509 574.098,158.037 576.23,160 578.361,160 580.492,160 582.623,160 584.754,160 586.885,160 589.016,160 591.148,160 593.279,160 595.41,160 597.541,160 599.672,159.509 601.803,158.037 603.934,157.055 606.066,160 608.197,160 610.328,160 612.459,156.564 614.59,157.546 616.721,147.239 618.852,160 620.984,160 623.115,160 625.246,155.092 627.377,148.221 629.508,160 631.639,160 633.77,158.037 635.902,160 638.033,158.037 640.164,160 642.295,160 644.426,160 646.557,160 648.689,160 650.82,160 652.951,159.018 655.082,144.294 657.213,159.018 659.344,160 661.475,139.387 663.607,121.718 665.738,120.736 667.869,147.73 670,146.258 672.131,157.055 674.262,160 676.393,160 678.525,160 680.656,160 682.787,160 684.918,160 687.049,160 689.18,160 691.311,157.546 693.443,153.62 695.574,148.712 697.705,160 699.836,149.202 701.967,149.693 704.098,134.969 706.23,146.258 708.361,145.767 710.492,146.258 712.623,150.184 714.754,154.11 716.885,154.601 719.016,154.11 721.148,157.055 723.279,156.564 725.41,159.509 727.541,160 729.672,160 731.803,160 733.934,160 736.066,160 738.197,160 740.328,160 742.459,160 744.59,158.528 746.721,159.509 748.852,160 750.984,160 753.115,159.509 755.246,142.331 757.377,144.785 759.508,157.055 761.639,158.528 763.77,160 765.902,160 768.033,159.509 770.164,160 772.295,160 774.426,159.018 776.557,153.62 778.689,159.018 780.82,160 782.951,160 785.082,149.693 787.213,155.583 789.344,158.528 791.475,156.074 793.607,155.583 795.738,159.509 797.869,159.509 800,160 800,160" fill="var(--pill)" opacity="0.6"/>
  <polyline points="20,160 22.1311,160 24.2623,160 26.3934,160 28.5246,160 30.6557,160 32.7869,153.62 34.918,160 37.0492,160 39.1803,160 41.3115,154.11 43.4426,157.055 45.5738,160 47.7049,160 49.8361,160 51.9672,160 54.0984,160 56.2295,160 58.3607,159.018 60.4918,160 62.623,160 64.7541,160 66.8852,160 69.0164,160 71.1475,160 73.2787,160 75.4098,160 77.541,160 79.6721,160 81.8033,160 83.9344,160 86.0656,160 88.1967,160 90.3279,160 92.459,160 94.5902,160 96.7213,160 98.8525,160 100.984,160 103.115,160 105.246,160 107.377,160 109.508,160 111.639,160 113.77,160 115.902,160 118.033,160 120.164,160 122.295,160 124.426,160 126.557,160 128.689,160 130.82,160 132.951,159.509 135.082,160 137.213,160 139.344,160 141.475,160 143.607,160 145.738,160 147.869,160 150,160 152.131,160 154.262,160 156.393,160 158.525,160 160.656,160 162.787,160 164.918,160 167.049,160 169.18,160 171.311,160 173.443,160 175.574,160 177.705,160 179.836,160 181.967,160 184.098,160 186.23,160 188.361,159.018 190.492,160 192.623,160 194.754,160 196.885,145.276 199.016,155.583 201.148,157.546 203.279,155.583 205.41,157.055 207.541,156.074 209.672,160 211.803,160 213.934,160 216.066,158.037 218.197,159.018 220.328,158.037 222.459,156.564 224.59,160 226.721,158.528 228.852,156.564 230.984,160 233.115,154.11 235.246,149.202 237.377,149.202 239.508,153.62 241.639,141.84 243.77,154.601 245.902,160 248.033,154.601 250.164,160 252.295,160 254.426,157.546 256.557,148.221 258.689,159.018 260.82,160 262.951,158.037 265.082,160 267.213,159.509 269.344,160 271.475,160 273.607,160 275.738,160 277.869,151.656 280,155.583 282.131,156.074 284.262,157.546 286.393,150.675 288.525,160 290.656,158.037 292.787,156.564 294.918,158.037 297.049,156.074 299.18,160 301.311,154.11 303.443,160 305.574,159.509 307.705,160 309.836,160 311.967,157.546 314.098,160 316.23,160 318.361,160 320.492,160 322.623,160 324.754,160 326.885,160 329.016,160 331.148,160 333.279,160 335.41,160 337.541,160 339.672,160 341.803,160 343.934,160 346.066,160 348.197,154.601 350.328,158.037 352.459,160 354.59,160 356.721,160 358.852,160 360.984,160 363.115,160 365.246,160 367.377,160 369.508,160 371.639,160 373.77,160 375.902,160 378.033,160 380.164,160 382.295,160 384.426,160 386.557,160 388.689,160 390.82,160 392.951,160 395.082,160 397.213,157.055 399.344,160 401.475,160 403.607,160 405.738,160 407.869,155.092 410,160 412.131,160 414.262,160 416.393,160 418.525,137.423 420.656,153.62 422.787,80 424.918,155.092 427.049,149.202 429.18,155.092 431.311,158.037 433.443,158.528 435.574,159.509 437.705,156.074 439.836,160 441.967,159.018 444.098,160 446.23,159.509 448.361,159.018 450.492,159.509 452.623,160 454.754,158.528 456.885,160 459.016,159.018 461.148,159.018 463.279,157.546 465.41,157.055 467.541,160 469.672,160 471.803,159.509 473.934,159.509 476.066,158.528 478.197,159.509 480.328,157.055 482.459,157.055 484.59,159.018 486.721,158.528 488.852,147.239 490.984,157.055 493.115,129.08 495.246,147.239 497.377,153.129 499.508,160 501.639,160 503.77,160 505.902,151.656 508.033,158.528 510.164,160 512.295,160 514.426,138.405 516.557,158.528 518.689,160 520.82,160 522.951,160 525.082,160 527.213,160 529.344,160 531.475,160 533.607,160 535.738,160 537.869,160 540,160 542.131,160 544.262,160 546.393,160 548.525,160 550.656,159.509 552.787,160 554.918,160 557.049,160 559.18,160 561.311,160 563.443,160 565.574,160 567.705,160 569.836,160 571.967,159.509 574.098,158.037 576.23,160 578.361,160 580.492,160 582.623,160 584.754,160 586.885,160 589.016,160 591.148,160 593.279,160 595.41,160 597.541,160 599.672,159.509 601.803,158.037 603.934,157.055 606.066,160 608.197,160 610.328,160 612.459,156.564 614.59,157.546 616.721,147.239 618.852,160 620.984,160 623.115,160 625.246,155.092 627.377,148.221 629.508,160 631.639,160 633.77,158.037 635.902,160 638.033,158.037 640.164,160 642.295,160 644.426,160 646.557,160 648.689,160 650.82,160 652.951,159.018 655.082,144.294 657.213,159.018 659.344,160 661.475,139.387 663.607,121.718 665.738,120.736 667.869,147.73 670,146.258 672.131,157.055 674.262,160 676.393,160 678.525,160 680.656,160 682.787,160 684.918,160 687.049,160 689.18,160 691.311,157.546 693.443,153.62 695.574,148.712 697.705,160 699.836,149.202 701.967,149.693 704.098,134.969 706.23,146.258 708.361,145.767 710.492,146.258 712.623,150.184 714.754,154.11 716.885,154.601 719.016,154.11 721.148,157.055 723.279,156.564 725.41,159.509 727.541,160 729.672,160 731.803,160 733.934,160 736.066,160 738.197,160 740.328,160 742.459,160 744.59,158.528 746.721,159.509 748.852,160 750.984,160 753.115,159.509 755.246,142.331 757.377,144.785 759.508,157.055 761.639,158.528 763.77,160 765.902,160 768.033,159.509 770.164,160 772.295,160 774.426,159.018 776.557,153.62 778.689,159.018 780.82,160 782.951,160 785.082,149.693 787.213,155.583 789.344,158.528 791.475,156.074 793.607,155.583 795.738,159.509 797.869,159.509 800,160" fill="none" stroke="var(--accent)" stroke-width="1.5" stroke-linecap="round" stroke-linejoin="round"/>
</svg>

