<svg xmlns="http://www.w3.org/2000/svg" width="820" height="180" viewBox="0 0 820 180">

<style>
  :root {
    --bg:        #f6f8fa;
    --card:      #ffffff;
    --border:    #d0d7de;
    --primary:   #1f2328;
    --secondary: #636c76;
    --muted:     #8c959f;
    --accent:    #0969da;
    --green:     #1a7f37;
    --yellow:    #9a6700;
    --red:       #cf222e;
    --hover:     #f3f4f6;
    --spark-bg:  #f0f3f6;
    --spark:     #0969da;
    --pill:      #eaf1fb;
    --pill-txt:  #0969da;
    --div:       #d0d7de;
  }
  @media (prefers-color-scheme: dark) {
    :root {
      --bg:        #0d1117;
      --card:      #161b22;
      --border:    #30363d;
      --primary:   #e6edf3;
      --secondary: #848d97;
      --muted:     #7d8590;
      --accent:    #2f81f7;
      --green:     #3fb950;
      --yellow:    #d29922;
      --red:       #f85149;
      --hover:     #21262d;
      --spark-bg:  #1c2128;
      --spark:     #58a6ff;
      --pill:      #1c2d3f;
      --pill-txt:  #58a6ff;
      --div:       #30363d;
    }
  }
  
  .bg          { fill: var(--bg); }
  .card        { fill: var(--card); stroke: var(--border); stroke-width: 1; }
  .lang-pill   { fill: var(--pill); }
  .spark-bg    { fill: var(--spark-bg); }
  .spark-line  { stroke: var(--spark); }
  .divider     { stroke: var(--div); stroke-width: 1; }
  .clr-primary   { fill: var(--primary); }
  .clr-secondary { fill: var(--secondary); }
  .clr-muted     { fill: var(--muted); }
  .clr-accent    { fill: var(--accent); }
  .clr-green     { fill: var(--green); }
  .clr-yellow    { fill: var(--yellow); }
  .clr-red       { fill: var(--red); }
  .txt-bold    { font-weight: 600; }
  svg text     { font-family: -apple-system, BlinkMacSystemFont, "Segoe UI", Helvetica, Arial, sans-serif; }
</style>

<rect x="0" y="0" width="820" height="180" rx="8" class="card"/>
  <text x="20" y="24" class="clr-primary txt-bold" text-anchor="start" font-size="14">Contribution History &amp; Activity</text>
  <line x1="20" y1="36" x2="800" y2="36" class="divider"/>
  <text x="20" y="60" class="clr-muted" text-anchor="start" font-size="12">Years Active:</text>
  <text x="100" y="60" class="clr-primary txt-bold" text-anchor="start" font-size="12">5.7</text>
  <text x="160" y="60" class="clr-muted" text-anchor="start" font-size="12">Commits (Last Year):</text>
  <text x="290" y="60" class="clr-primary txt-bold" text-anchor="start" font-size="12">1204</text>
  <text x="360" y="60" class="clr-muted" text-anchor="start" font-size="12">Highest Daily:</text>
  <text x="450" y="60" class="clr-primary txt-bold" text-anchor="start" font-size="12">163</text>
  <polygon points="20,160 20,160 22.137,160 24.274,160 26.411,160 28.5479,160 30.6849,160 32.8219,160 34.9589,160 37.0959,160 39.2329,160 41.3699,160 43.5068,160 45.6438,160 47.7808,160 49.9178,160 52.0548,160 54.1918,159.018 56.3288,160 58.4658,160 60.6027,160 62.7397,145.276 64.8767,155.583 67.0137,157.546 69.1507,155.583 71.2877,157.055 73.4247,156.074 75.5616,160 77.6986,160 79.8356,160 81.9726,158.037 84.1096,159.018 86.2466,158.037 88.3836,156.564 90.5205,160 92.6575,158.528 94.7945,156.564 96.9315,160 99.0685,154.11 101.205,149.202 103.342,149.202 105.479,153.62 107.616,141.84 109.753,154.601 111.89,160 114.027,154.601 116.164,160 118.301,160 120.438,157.546 122.575,148.221 124.712,159.018 126.849,160 128.986,158.037 131.123,160 133.26,159.509 135.397,160 137.534,160 139.671,160 141.808,160 143.945,151.656 146.082,155.583 148.219,156.074 150.356,157.546 152.493,150.675 154.63,160 156.767,158.037 158.904,156.564 161.041,158.037 163.178,156.074 165.315,160 167.452,154.11 169.589,160 171.726,159.509 173.863,160 176,160 178.137,157.546 180.274,160 182.411,160 184.548,160 186.685,160 188.822,160 190.959,160 193.096,160 195.233,160 197.37,160 199.507,160 201.644,160 203.781,160 205.918,160 208.055,160 210.192,160 212.329,160 214.466,154.601 216.603,158.037 218.74,160 220.877,160 223.014,160 225.151,160 227.288,160 229.425,160 231.562,160 233.699,160 235.836,160 237.973,160 240.11,160 242.247,160 244.384,160 246.521,160 248.658,160 250.795,160 252.932,160 255.068,160 257.205,160 259.342,160 261.479,160 263.616,157.055 265.753,160 267.89,160 270.027,160 272.164,160 274.301,155.092 276.438,160 278.575,160 280.712,160 282.849,160 284.986,137.423 287.123,153.62 289.26,80 291.397,155.092 293.534,149.202 295.671,155.092 297.808,158.037 299.945,158.528 302.082,159.509 304.219,156.074 306.356,160 308.493,159.018 310.63,160 312.767,159.509 314.904,159.018 317.041,159.509 319.178,160 321.315,158.528 323.452,160 325.589,159.018 327.726,159.018 329.863,157.546 332,157.055 334.137,160 336.274,160 338.411,159.509 340.548,159.509 342.685,158.528 344.822,159.509 346.959,157.055 349.096,157.055 351.233,159.018 353.37,158.528 355.507,147.239 357.644,157.055 359.781,129.08 361.918,147.239 364.055,153.129 366.192,160 368.329,160 370.466,160 372.603,151.656 374.74,158.528 376.877,160 379.014,160 381.151,138.405 383.288,158.528 385.425,160 387.562,160 389.699,160 391.836,160 393.973,160 396.11,160 398.247,160 400.384,160 402.521,160 404.658,160 406.795,160 408.932,160 411.068,160 413.205,160 415.342,160 417.479,159.509 419.616,160 421.753,160 423.89,160 426.027,160 428.164,160 430.301,160 432.438,160 434.575,160 436.712,160 438.849,159.509 440.986,158.037 443.123,160 445.26,160 447.397,160 449.534,160 451.671,160 453.808,160 455.945,160 458.082,160 460.219,160 462.356,160 464.493,160 466.63,159.509 468.767,158.037 470.904,157.055 473.041,160 475.178,160 477.315,160 479.452,156.564 481.589,157.546 483.726,147.239 485.863,160 488,160 490.137,160 492.274,155.092 494.411,148.221 496.548,160 498.685,160 500.822,158.037 502.959,160 505.096,158.037 507.233,160 509.37,160 511.507,160 513.644,160 515.781,160 517.918,160 520.055,159.018 522.192,144.294 524.329,159.018 526.466,160 528.603,139.387 530.74,121.718 532.877,120.736 535.014,147.73 537.151,146.258 539.288,157.055 541.425,160 543.562,160 545.699,160 547.836,160 549.973,160 552.11,160 554.247,160 556.384,160 558.521,157.546 560.658,153.62 562.795,148.712 564.932,160 567.068,149.202 569.205,149.693 571.342,134.969 573.479,146.258 575.616,145.767 577.753,146.258 579.89,150.184 582.027,154.11 584.164,154.601 586.301,154.11 588.438,157.055 590.575,156.564 592.712,159.509 594.849,160 596.986,160 599.123,160 601.26,160 603.397,160 605.534,160 607.671,160 609.808,160 611.945,158.528 614.082,159.509 616.219,160 618.356,160 620.493,159.509 622.63,142.331 624.767,144.785 626.904,157.055 629.041,158.528 631.178,160 633.315,160 635.452,159.509 637.589,160 639.726,160 641.863,159.018 644,153.62 646.137,159.018 648.274,160 650.411,160 652.548,149.693 654.685,155.583 656.822,158.528 658.959,156.074 661.096,155.583 663.233,159.509 665.37,159.509 667.507,160 669.644,160 671.781,151.656 673.918,140.859 676.055,155.092 678.192,160 680.329,141.84 682.466,150.184 684.603,152.147 686.74,160 688.877,160 691.014,160 693.151,160 695.288,160 697.425,160 699.562,160 701.699,160 703.836,160 705.973,160 708.11,160 710.247,160 712.384,158.037 714.521,160 716.658,160 718.795,160 720.932,160 723.068,160 725.205,160 727.342,160 729.479,160 731.616,160 733.753,160 735.89,160 738.027,160 740.164,160 742.301,160 744.438,156.564 746.575,154.601 748.712,160 750.849,160 752.986,160 755.123,160 757.26,159.509 759.397,160 761.534,160 763.671,159.509 765.808,159.509 767.945,160 770.082,159.509 772.219,160 774.356,160 776.493,156.074 778.63,159.509 780.767,159.509 782.904,160 785.041,158.037 787.178,160 789.315,160 791.452,160 793.589,160 795.726,160 797.863,160 800,160 800,160" fill="var(--pill)" opacity="0.6"/>
  <polyline points="20,160 22.137,160 24.274,160 26.411,160 28.5479,160 30.6849,160 32.8219,160 34.9589,160 37.0959,160 39.2329,160 41.3699,160 43.5068,160 45.6438,160 47.7808,160 49.9178,160 52.0548,160 54.1918,159.018 56.3288,160 58.4658,160 60.6027,160 62.7397,145.276 64.8767,155.583 67.0137,157.546 69.1507,155.583 71.2877,157.055 73.4247,156.074 75.5616,160 77.6986,160 79.8356,160 81.9726,158.037 84.1096,159.018 86.2466,158.037 88.3836,156.564 90.5205,160 92.6575,158.528 94.7945,156.564 96.9315,160 99.0685,154.11 101.205,149.202 103.342,149.202 105.479,153.62 107.616,141.84 109.753,154.601 111.89,160 114.027,154.601 116.164,160 118.301,160 120.438,157.546 122.575,148.221 124.712,159.018 126.849,160 128.986,158.037 131.123,160 133.26,159.509 135.397,160 137.534,160 139.671,160 141.808,160 143.945,151.656 146.082,155.583 148.219,156.074 150.356,157.546 152.493,150.675 154.63,160 156.767,158.037 158.904,156.564 161.041,158.037 163.178,156.074 165.315,160 167.452,154.11 169.589,160 171.726,159.509 173.863,160 176,160 178.137,157.546 180.274,160 182.411,160 184.548,160 186.685,160 188.822,160 190.959,160 193.096,160 195.233,160 197.37,160 199.507,160 201.644,160 203.781,160 205.918,160 208.055,160 210.192,160 212.329,160 214.466,154.601 216.603,158.037 218.74,160 220.877,160 223.014,160 225.151,160 227.288,160 229.425,160 231.562,160 233.699,160 235.836,160 237.973,160 240.11,160 242.247,160 244.384,160 246.521,160 248.658,160 250.795,160 252.932,160 255.068,160 257.205,160 259.342,160 261.479,160 263.616,157.055 265.753,160 267.89,160 270.027,160 272.164,160 274.301,155.092 276.438,160 278.575,160 280.712,160 282.849,160 284.986,137.423 287.123,153.62 289.26,80 291.397,155.092 293.534,149.202 295.671,155.092 297.808,158.037 299.945,158.528 302.082,159.509 304.219,156.074 306.356,160 308.493,159.018 310.63,160 312.767,159.509 314.904,159.018 317.041,159.509 319.178,160 321.315,158.528 323.452,160 325.589,159.018 327.726,159.018 329.863,157.546 332,157.055 334.137,160 336.274,160 338.411,159.509 340.548,159.509 342.685,158.528 344.822,159.509 346.959,157.055 349.096,157.055 351.233,159.018 353.37,158.528 355.507,147.239 357.644,157.055 359.781,129.08 361.918,147.239 364.055,153.129 366.192,160 368.329,160 370.466,160 372.603,151.656 374.74,158.528 376.877,160 379.014,160 381.151,138.405 383.288,158.528 385.425,160 387.562,160 389.699,160 391.836,160 393.973,160 396.11,160 398.247,160 400.384,160 402.521,160 404.658,160 406.795,160 408.932,160 411.068,160 413.205,160 415.342,160 417.479,159.509 419.616,160 421.753,160 423.89,160 426.027,160 428.164,160 430.301,160 432.438,160 434.575,160 436.712,160 438.849,159.509 440.986,158.037 443.123,160 445.26,160 447.397,160 449.534,160 451.671,160 453.808,160 455.945,160 458.082,160 460.219,160 462.356,160 464.493,160 466.63,159.509 468.767,158.037 470.904,157.055 473.041,160 475.178,160 477.315,160 479.452,156.564 481.589,157.546 483.726,147.239 485.863,160 488,160 490.137,160 492.274,155.092 494.411,148.221 496.548,160 498.685,160 500.822,158.037 502.959,160 505.096,158.037 507.233,160 509.37,160 511.507,160 513.644,160 515.781,160 517.918,160 520.055,159.018 522.192,144.294 524.329,159.018 526.466,160 528.603,139.387 530.74,121.718 532.877,120.736 535.014,147.73 537.151,146.258 539.288,157.055 541.425,160 543.562,160 545.699,160 547.836,160 549.973,160 552.11,160 554.247,160 556.384,160 558.521,157.546 560.658,153.62 562.795,148.712 564.932,160 567.068,149.202 569.205,149.693 571.342,134.969 573.479,146.258 575.616,145.767 577.753,146.258 579.89,150.184 582.027,154.11 584.164,154.601 586.301,154.11 588.438,157.055 590.575,156.564 592.712,159.509 594.849,160 596.986,160 599.123,160 601.26,160 603.397,160 605.534,160 607.671,160 609.808,160 611.945,158.528 614.082,159.509 616.219,160 618.356,160 620.493,159.509 622.63,142.331 624.767,144.785 626.904,157.055 629.041,158.528 631.178,160 633.315,160 635.452,159.509 637.589,160 639.726,160 641.863,159.018 644,153.62 646.137,159.018 648.274,160 650.411,160 652.548,149.693 654.685,155.583 656.822,158.528 658.959,156.074 661.096,155.583 663.233,159.509 665.37,159.509 667.507,160 669.644,160 671.781,151.656 673.918,140.859 676.055,155.092 678.192,160 680.329,141.84 682.466,150.184 684.603,152.147 686.74,160 688.877,160 691.014,160 693.151,160 695.288,160 697.425,160 699.562,160 701.699,160 703.836,160 705.973,160 708.11,160 710.247,160 712.384,158.037 714.521,160 716.658,160 718.795,160 720.932,160 723.068,160 725.205,160 727.342,160 729.479,160 731.616,160 733.753,160 735.89,160 738.027,160 740.164,160 742.301,160 744.438,156.564 746.575,154.601 748.712,160 750.849,160 752.986,160 755.123,160 757.26,159.509 759.397,160 761.534,160 763.671,159.509 765.808,159.509 767.945,160 770.082,159.509 772.219,160 774.356,160 776.493,156.074 778.63,159.509 780.767,159.509 782.904,160 785.041,158.037 787.178,160 789.315,160 791.452,160 793.589,160 795.726,160 797.863,160 800,160" fill="none" stroke="var(--accent)" stroke-width="1.5" stroke-linecap="round" stroke-linejoin="round"/>
</svg>

