<svg xmlns="http://www.w3.org/2000/svg" width="820" height="180" viewBox="0 0 820 180">

<style>
  :root {
    --bg:        #f6f8fa;
    --card:      #ffffff;
    --border:    #d0d7de;
    --primary:   #1f2328;
    --secondary: #636c76;
    --muted:     #8c959f;
    --accent:    #0969da;
    --green:     #1a7f37;
    --yellow:    #9a6700;
    --red:       #cf222e;
    --hover:     #f3f4f6;
    --spark-bg:  #f0f3f6;
    --spark:     #0969da;
    --pill:      #eaf1fb;
    --pill-txt:  #0969da;
    --div:       #d0d7de;
  }
  @media (prefers-color-scheme: dark) {
    :root {
      --bg:        #0d1117;
      --card:      #161b22;
      --border:    #30363d;
      --primary:   #e6edf3;
      --secondary: #848d97;
      --muted:     #7d8590;
      --accent:    #2f81f7;
      --green:     #3fb950;
      --yellow:    #d29922;
      --red:       #f85149;
      --hover:     #21262d;
      --spark-bg:  #1c2128;
      --spark:     #58a6ff;
      --pill:      #1c2d3f;
      --pill-txt:  #58a6ff;
      --div:       #30363d;
    }
  }
  
  .bg          { fill: var(--bg); }
  .card        { fill: var(--card); stroke: var(--border); stroke-width: 1; }
  .lang-pill   { fill: var(--pill); }
  .spark-bg    { fill: var(--spark-bg); }
  .spark-line  { stroke: var(--spark); }
  .divider     { stroke: var(--div); stroke-width: 1; }
  .clr-primary   { fill: var(--primary); }
  .clr-secondary { fill: var(--secondary); }
  .clr-muted     { fill: var(--muted); }
  .clr-accent    { fill: var(--accent); }
  .clr-green     { fill: var(--green); }
  .clr-yellow    { fill: var(--yellow); }
  .clr-red       { fill: var(--red); }
  .txt-bold    { font-weight: 600; }
  svg text     { font-family: -apple-system, BlinkMacSystemFont, "Segoe UI", Helvetica, Arial, sans-serif; }
</style>

<rect x="0" y="0" width="820" height="180" rx="8" class="card"/>
  <text x="20" y="24" class="clr-primary txt-bold" text-anchor="start" font-size="14">Contribution History &amp; Activity</text>
  <line x1="20" y1="36" x2="800" y2="36" class="divider"/>
  <text x="20" y="60" class="clr-muted" text-anchor="start" font-size="12">Years Active:</text>
  <text x="100" y="60" class="clr-primary txt-bold" text-anchor="start" font-size="12">5.6</text>
  <text x="160" y="60" class="clr-muted" text-anchor="start" font-size="12">Commits (Last Year):</text>
  <text x="290" y="60" class="clr-primary txt-bold" text-anchor="start" font-size="12">1130</text>
  <text x="360" y="60" class="clr-muted" text-anchor="start" font-size="12">Highest Daily:</text>
  <text x="450" y="60" class="clr-primary txt-bold" text-anchor="start" font-size="12">163</text>
  <polygon points="20,160 20,160 22.1429,160 24.2857,160 26.4286,154.11 28.5714,157.055 30.7143,160 32.8571,160 35,160 37.1429,160 39.2857,160 41.4286,160 43.5714,159.018 45.7143,160 47.8571,160 50,160 52.1429,160 54.2857,160 56.4286,160 58.5714,160 60.7143,160 62.8571,160 65,160 67.1429,160 69.2857,160 71.4286,160 73.5714,160 75.7143,160 77.8571,160 80,160 82.1429,160 84.2857,160 86.4286,160 88.5714,160 90.7143,160 92.8571,160 95,160 97.1429,160 99.2857,160 101.429,160 103.571,160 105.714,160 107.857,160 110,160 112.143,160 114.286,160 116.429,160 118.571,159.509 120.714,160 122.857,160 125,160 127.143,160 129.286,160 131.429,160 133.571,160 135.714,160 137.857,160 140,160 142.143,160 144.286,160 146.429,160 148.571,160 150.714,160 152.857,160 155,160 157.143,160 159.286,160 161.429,160 163.571,160 165.714,160 167.857,160 170,160 172.143,160 174.286,159.018 176.429,160 178.571,160 180.714,160 182.857,145.276 185,155.583 187.143,157.546 189.286,155.583 191.429,157.055 193.571,156.074 195.714,160 197.857,160 200,160 202.143,158.037 204.286,159.018 206.429,158.037 208.571,156.564 210.714,160 212.857,158.528 215,156.564 217.143,160 219.286,154.11 221.429,149.202 223.571,149.202 225.714,153.62 227.857,141.84 230,154.601 232.143,160 234.286,154.601 236.429,160 238.571,160 240.714,157.546 242.857,148.221 245,159.018 247.143,160 249.286,158.037 251.429,160 253.571,159.509 255.714,160 257.857,160 260,160 262.143,160 264.286,151.656 266.429,155.583 268.571,156.074 270.714,157.546 272.857,150.675 275,160 277.143,158.037 279.286,156.564 281.429,158.037 283.571,156.074 285.714,160 287.857,154.11 290,160 292.143,159.509 294.286,160 296.429,160 298.571,157.546 300.714,160 302.857,160 305,160 307.143,160 309.286,160 311.429,160 313.571,160 315.714,160 317.857,160 320,160 322.143,160 324.286,160 326.429,160 328.571,160 330.714,160 332.857,160 335,154.601 337.143,158.037 339.286,160 341.429,160 343.571,160 345.714,160 347.857,160 350,160 352.143,160 354.286,160 356.429,160 358.571,160 360.714,160 362.857,160 365,160 367.143,160 369.286,160 371.429,160 373.571,160 375.714,160 377.857,160 380,160 382.143,160 384.286,157.055 386.429,160 388.571,160 390.714,160 392.857,160 395,155.092 397.143,160 399.286,160 401.429,160 403.571,160 405.714,137.423 407.857,153.62 410,80 412.143,155.092 414.286,149.202 416.429,155.092 418.571,158.037 420.714,158.528 422.857,159.509 425,156.074 427.143,160 429.286,159.018 431.429,160 433.571,159.509 435.714,159.018 437.857,159.509 440,160 442.143,158.528 444.286,160 446.429,159.018 448.571,159.018 450.714,157.546 452.857,157.055 455,160 457.143,160 459.286,159.509 461.429,159.509 463.571,158.528 465.714,159.509 467.857,157.055 470,157.055 472.143,159.018 474.286,158.528 476.429,147.239 478.571,157.055 480.714,129.08 482.857,147.239 485,153.129 487.143,160 489.286,160 491.429,160 493.571,151.656 495.714,158.528 497.857,160 500,160 502.143,138.405 504.286,158.528 506.429,160 508.571,160 510.714,160 512.857,160 515,160 517.143,160 519.286,160 521.429,160 523.571,160 525.714,160 527.857,160 530,160 532.143,160 534.286,160 536.429,160 538.571,159.509 540.714,160 542.857,160 545,160 547.143,160 549.286,160 551.429,160 553.571,160 555.714,160 557.857,160 560,159.509 562.143,158.037 564.286,160 566.429,160 568.571,160 570.714,160 572.857,160 575,160 577.143,160 579.286,160 581.429,160 583.571,160 585.714,160 587.857,159.509 590,158.037 592.143,157.055 594.286,160 596.429,160 598.571,160 600.714,156.564 602.857,157.546 605,147.239 607.143,160 609.286,160 611.429,160 613.571,155.092 615.714,148.221 617.857,160 620,160 622.143,158.037 624.286,160 626.429,158.037 628.571,160 630.714,160 632.857,160 635,160 637.143,160 639.286,160 641.429,159.018 643.571,144.294 645.714,159.018 647.857,160 650,139.387 652.143,121.718 654.286,120.736 656.429,147.73 658.571,146.258 660.714,157.055 662.857,160 665,160 667.143,160 669.286,160 671.429,160 673.571,160 675.714,160 677.857,160 680,157.546 682.143,153.62 684.286,148.712 686.429,160 688.571,149.202 690.714,149.693 692.857,134.969 695,146.258 697.143,145.767 699.286,146.258 701.429,150.184 703.571,154.11 705.714,154.601 707.857,154.11 710,157.055 712.143,156.564 714.286,159.509 716.429,160 718.571,160 720.714,160 722.857,160 725,160 727.143,160 729.286,160 731.429,160 733.571,158.528 735.714,159.509 737.857,160 740,160 742.143,159.509 744.286,142.331 746.429,144.785 748.571,157.055 750.714,158.528 752.857,160 755,160 757.143,159.509 759.286,160 761.429,160 763.571,159.018 765.714,153.62 767.857,159.018 770,160 772.143,160 774.286,149.693 776.429,155.583 778.571,158.528 780.714,156.074 782.857,155.583 785,159.509 787.143,159.509 789.286,160 791.429,160 793.571,151.656 795.714,140.859 797.857,155.092 800,160 800,160" fill="var(--pill)" opacity="0.6"/>
  <polyline points="20,160 22.1429,160 24.2857,160 26.4286,154.11 28.5714,157.055 30.7143,160 32.8571,160 35,160 37.1429,160 39.2857,160 41.4286,160 43.5714,159.018 45.7143,160 47.8571,160 50,160 52.1429,160 54.2857,160 56.4286,160 58.5714,160 60.7143,160 62.8571,160 65,160 67.1429,160 69.2857,160 71.4286,160 73.5714,160 75.7143,160 77.8571,160 80,160 82.1429,160 84.2857,160 86.4286,160 88.5714,160 90.7143,160 92.8571,160 95,160 97.1429,160 99.2857,160 101.429,160 103.571,160 105.714,160 107.857,160 110,160 112.143,160 114.286,160 116.429,160 118.571,159.509 120.714,160 122.857,160 125,160 127.143,160 129.286,160 131.429,160 133.571,160 135.714,160 137.857,160 140,160 142.143,160 144.286,160 146.429,160 148.571,160 150.714,160 152.857,160 155,160 157.143,160 159.286,160 161.429,160 163.571,160 165.714,160 167.857,160 170,160 172.143,160 174.286,159.018 176.429,160 178.571,160 180.714,160 182.857,145.276 185,155.583 187.143,157.546 189.286,155.583 191.429,157.055 193.571,156.074 195.714,160 197.857,160 200,160 202.143,158.037 204.286,159.018 206.429,158.037 208.571,156.564 210.714,160 212.857,158.528 215,156.564 217.143,160 219.286,154.11 221.429,149.202 223.571,149.202 225.714,153.62 227.857,141.84 230,154.601 232.143,160 234.286,154.601 236.429,160 238.571,160 240.714,157.546 242.857,148.221 245,159.018 247.143,160 249.286,158.037 251.429,160 253.571,159.509 255.714,160 257.857,160 260,160 262.143,160 264.286,151.656 266.429,155.583 268.571,156.074 270.714,157.546 272.857,150.675 275,160 277.143,158.037 279.286,156.564 281.429,158.037 283.571,156.074 285.714,160 287.857,154.11 290,160 292.143,159.509 294.286,160 296.429,160 298.571,157.546 300.714,160 302.857,160 305,160 307.143,160 309.286,160 311.429,160 313.571,160 315.714,160 317.857,160 320,160 322.143,160 324.286,160 326.429,160 328.571,160 330.714,160 332.857,160 335,154.601 337.143,158.037 339.286,160 341.429,160 343.571,160 345.714,160 347.857,160 350,160 352.143,160 354.286,160 356.429,160 358.571,160 360.714,160 362.857,160 365,160 367.143,160 369.286,160 371.429,160 373.571,160 375.714,160 377.857,160 380,160 382.143,160 384.286,157.055 386.429,160 388.571,160 390.714,160 392.857,160 395,155.092 397.143,160 399.286,160 401.429,160 403.571,160 405.714,137.423 407.857,153.62 410,80 412.143,155.092 414.286,149.202 416.429,155.092 418.571,158.037 420.714,158.528 422.857,159.509 425,156.074 427.143,160 429.286,159.018 431.429,160 433.571,159.509 435.714,159.018 437.857,159.509 440,160 442.143,158.528 444.286,160 446.429,159.018 448.571,159.018 450.714,157.546 452.857,157.055 455,160 457.143,160 459.286,159.509 461.429,159.509 463.571,158.528 465.714,159.509 467.857,157.055 470,157.055 472.143,159.018 474.286,158.528 476.429,147.239 478.571,157.055 480.714,129.08 482.857,147.239 485,153.129 487.143,160 489.286,160 491.429,160 493.571,151.656 495.714,158.528 497.857,160 500,160 502.143,138.405 504.286,158.528 506.429,160 508.571,160 510.714,160 512.857,160 515,160 517.143,160 519.286,160 521.429,160 523.571,160 525.714,160 527.857,160 530,160 532.143,160 534.286,160 536.429,160 538.571,159.509 540.714,160 542.857,160 545,160 547.143,160 549.286,160 551.429,160 553.571,160 555.714,160 557.857,160 560,159.509 562.143,158.037 564.286,160 566.429,160 568.571,160 570.714,160 572.857,160 575,160 577.143,160 579.286,160 581.429,160 583.571,160 585.714,160 587.857,159.509 590,158.037 592.143,157.055 594.286,160 596.429,160 598.571,160 600.714,156.564 602.857,157.546 605,147.239 607.143,160 609.286,160 611.429,160 613.571,155.092 615.714,148.221 617.857,160 620,160 622.143,158.037 624.286,160 626.429,158.037 628.571,160 630.714,160 632.857,160 635,160 637.143,160 639.286,160 641.429,159.018 643.571,144.294 645.714,159.018 647.857,160 650,139.387 652.143,121.718 654.286,120.736 656.429,147.73 658.571,146.258 660.714,157.055 662.857,160 665,160 667.143,160 669.286,160 671.429,160 673.571,160 675.714,160 677.857,160 680,157.546 682.143,153.62 684.286,148.712 686.429,160 688.571,149.202 690.714,149.693 692.857,134.969 695,146.258 697.143,145.767 699.286,146.258 701.429,150.184 703.571,154.11 705.714,154.601 707.857,154.11 710,157.055 712.143,156.564 714.286,159.509 716.429,160 718.571,160 720.714,160 722.857,160 725,160 727.143,160 729.286,160 731.429,160 733.571,158.528 735.714,159.509 737.857,160 740,160 742.143,159.509 744.286,142.331 746.429,144.785 748.571,157.055 750.714,158.528 752.857,160 755,160 757.143,159.509 759.286,160 761.429,160 763.571,159.018 765.714,153.62 767.857,159.018 770,160 772.143,160 774.286,149.693 776.429,155.583 778.571,158.528 780.714,156.074 782.857,155.583 785,159.509 787.143,159.509 789.286,160 791.429,160 793.571,151.656 795.714,140.859 797.857,155.092 800,160" fill="none" stroke="var(--accent)" stroke-width="1.5" stroke-linecap="round" stroke-linejoin="round"/>
</svg>

