<svg xmlns="http://www.w3.org/2000/svg" width="820" height="180" viewBox="0 0 820 180">

<style>
  :root {
    --bg:        #f6f8fa;
    --card:      #ffffff;
    --border:    #d0d7de;
    --primary:   #1f2328;
    --secondary: #636c76;
    --muted:     #8c959f;
    --accent:    #0969da;
    --green:     #1a7f37;
    --yellow:    #9a6700;
    --red:       #cf222e;
    --hover:     #f3f4f6;
    --spark-bg:  #f0f3f6;
    --spark:     #0969da;
    --pill:      #eaf1fb;
    --pill-txt:  #0969da;
    --div:       #d0d7de;
  }
  @media (prefers-color-scheme: dark) {
    :root {
      --bg:        #0d1117;
      --card:      #161b22;
      --border:    #30363d;
      --primary:   #e6edf3;
      --secondary: #848d97;
      --muted:     #7d8590;
      --accent:    #2f81f7;
      --green:     #3fb950;
      --yellow:    #d29922;
      --red:       #f85149;
      --hover:     #21262d;
      --spark-bg:  #1c2128;
      --spark:     #58a6ff;
      --pill:      #1c2d3f;
      --pill-txt:  #58a6ff;
      --div:       #30363d;
    }
  }
  
  .bg          { fill: var(--bg); }
  .card        { fill: var(--card); stroke: var(--border); stroke-width: 1; }
  .lang-pill   { fill: var(--pill); }
  .spark-bg    { fill: var(--spark-bg); }
  .spark-line  { stroke: var(--spark); }
  .divider     { stroke: var(--div); stroke-width: 1; }
  .clr-primary   { fill: var(--primary); }
  .clr-secondary { fill: var(--secondary); }
  .clr-muted     { fill: var(--muted); }
  .clr-accent    { fill: var(--accent); }
  .clr-green     { fill: var(--green); }
  .clr-yellow    { fill: var(--yellow); }
  .clr-red       { fill: var(--red); }
  .txt-bold    { font-weight: 600; }
  svg text     { font-family: -apple-system, BlinkMacSystemFont, "Segoe UI", Helvetica, Arial, sans-serif; }
</style>

<rect x="0" y="0" width="820" height="180" rx="8" class="card"/>
  <text x="20" y="24" class="clr-primary txt-bold" text-anchor="start" font-size="14">Contribution History &amp; Activity</text>
  <line x1="20" y1="36" x2="800" y2="36" class="divider"/>
  <text x="20" y="60" class="clr-muted" text-anchor="start" font-size="12">Years Active:</text>
  <text x="100" y="60" class="clr-primary txt-bold" text-anchor="start" font-size="12">5.7</text>
  <text x="160" y="60" class="clr-muted" text-anchor="start" font-size="12">Commits (Last Year):</text>
  <text x="290" y="60" class="clr-primary txt-bold" text-anchor="start" font-size="12">1192</text>
  <text x="360" y="60" class="clr-muted" text-anchor="start" font-size="12">Highest Daily:</text>
  <text x="450" y="60" class="clr-primary txt-bold" text-anchor="start" font-size="12">163</text>
  <polygon points="20,160 20,160 22.1429,160 24.2857,160 26.4286,160 28.5714,160 30.7143,160 32.8571,160 35,160 37.1429,160 39.2857,160 41.4286,160 43.5714,160 45.7143,160 47.8571,160 50,160 52.1429,160 54.2857,160 56.4286,160 58.5714,160 60.7143,160 62.8571,160 65,160 67.1429,160 69.2857,159.018 71.4286,160 73.5714,160 75.7143,160 77.8571,145.276 80,155.583 82.1429,157.546 84.2857,155.583 86.4286,157.055 88.5714,156.074 90.7143,160 92.8571,160 95,160 97.1429,158.037 99.2857,159.018 101.429,158.037 103.571,156.564 105.714,160 107.857,158.528 110,156.564 112.143,160 114.286,154.11 116.429,149.202 118.571,149.202 120.714,153.62 122.857,141.84 125,154.601 127.143,160 129.286,154.601 131.429,160 133.571,160 135.714,157.546 137.857,148.221 140,159.018 142.143,160 144.286,158.037 146.429,160 148.571,159.509 150.714,160 152.857,160 155,160 157.143,160 159.286,151.656 161.429,155.583 163.571,156.074 165.714,157.546 167.857,150.675 170,160 172.143,158.037 174.286,156.564 176.429,158.037 178.571,156.074 180.714,160 182.857,154.11 185,160 187.143,159.509 189.286,160 191.429,160 193.571,157.546 195.714,160 197.857,160 200,160 202.143,160 204.286,160 206.429,160 208.571,160 210.714,160 212.857,160 215,160 217.143,160 219.286,160 221.429,160 223.571,160 225.714,160 227.857,160 230,154.601 232.143,158.037 234.286,160 236.429,160 238.571,160 240.714,160 242.857,160 245,160 247.143,160 249.286,160 251.429,160 253.571,160 255.714,160 257.857,160 260,160 262.143,160 264.286,160 266.429,160 268.571,160 270.714,160 272.857,160 275,160 277.143,160 279.286,157.055 281.429,160 283.571,160 285.714,160 287.857,160 290,155.092 292.143,160 294.286,160 296.429,160 298.571,160 300.714,137.423 302.857,153.62 305,80 307.143,155.092 309.286,149.202 311.429,155.092 313.571,158.037 315.714,158.528 317.857,159.509 320,156.074 322.143,160 324.286,159.018 326.429,160 328.571,159.509 330.714,159.018 332.857,159.509 335,160 337.143,158.528 339.286,160 341.429,159.018 343.571,159.018 345.714,157.546 347.857,157.055 350,160 352.143,160 354.286,159.509 356.429,159.509 358.571,158.528 360.714,159.509 362.857,157.055 365,157.055 367.143,159.018 369.286,158.528 371.429,147.239 373.571,157.055 375.714,129.08 377.857,147.239 380,153.129 382.143,160 384.286,160 386.429,160 388.571,151.656 390.714,158.528 392.857,160 395,160 397.143,138.405 399.286,158.528 401.429,160 403.571,160 405.714,160 407.857,160 410,160 412.143,160 414.286,160 416.429,160 418.571,160 420.714,160 422.857,160 425,160 427.143,160 429.286,160 431.429,160 433.571,159.509 435.714,160 437.857,160 440,160 442.143,160 444.286,160 446.429,160 448.571,160 450.714,160 452.857,160 455,159.509 457.143,158.037 459.286,160 461.429,160 463.571,160 465.714,160 467.857,160 470,160 472.143,160 474.286,160 476.429,160 478.571,160 480.714,160 482.857,159.509 485,158.037 487.143,157.055 489.286,160 491.429,160 493.571,160 495.714,156.564 497.857,157.546 500,147.239 502.143,160 504.286,160 506.429,160 508.571,155.092 510.714,148.221 512.857,160 515,160 517.143,158.037 519.286,160 521.429,158.037 523.571,160 525.714,160 527.857,160 530,160 532.143,160 534.286,160 536.429,159.018 538.571,144.294 540.714,159.018 542.857,160 545,139.387 547.143,121.718 549.286,120.736 551.429,147.73 553.571,146.258 555.714,157.055 557.857,160 560,160 562.143,160 564.286,160 566.429,160 568.571,160 570.714,160 572.857,160 575,157.546 577.143,153.62 579.286,148.712 581.429,160 583.571,149.202 585.714,149.693 587.857,134.969 590,146.258 592.143,145.767 594.286,146.258 596.429,150.184 598.571,154.11 600.714,154.601 602.857,154.11 605,157.055 607.143,156.564 609.286,159.509 611.429,160 613.571,160 615.714,160 617.857,160 620,160 622.143,160 624.286,160 626.429,160 628.571,158.528 630.714,159.509 632.857,160 635,160 637.143,159.509 639.286,142.331 641.429,144.785 643.571,157.055 645.714,158.528 647.857,160 650,160 652.143,159.509 654.286,160 656.429,160 658.571,159.018 660.714,153.62 662.857,159.018 665,160 667.143,160 669.286,149.693 671.429,155.583 673.571,158.528 675.714,156.074 677.857,155.583 680,159.509 682.143,159.509 684.286,160 686.429,160 688.571,151.656 690.714,140.859 692.857,155.092 695,160 697.143,141.84 699.286,150.184 701.429,152.147 703.571,160 705.714,160 707.857,160 710,160 712.143,160 714.286,160 716.429,160 718.571,160 720.714,160 722.857,160 725,160 727.143,160 729.286,158.037 731.429,160 733.571,160 735.714,160 737.857,160 740,160 742.143,160 744.286,160 746.429,160 748.571,160 750.714,160 752.857,160 755,160 757.143,160 759.286,160 761.429,156.564 763.571,154.601 765.714,160 767.857,160 770,160 772.143,160 774.286,159.509 776.429,160 778.571,160 780.714,159.509 782.857,159.509 785,160 787.143,159.509 789.286,160 791.429,160 793.571,159.509 795.714,160 797.857,160 800,160 800,160" fill="var(--pill)" opacity="0.6"/>
  <polyline points="20,160 22.1429,160 24.2857,160 26.4286,160 28.5714,160 30.7143,160 32.8571,160 35,160 37.1429,160 39.2857,160 41.4286,160 43.5714,160 45.7143,160 47.8571,160 50,160 52.1429,160 54.2857,160 56.4286,160 58.5714,160 60.7143,160 62.8571,160 65,160 67.1429,160 69.2857,159.018 71.4286,160 73.5714,160 75.7143,160 77.8571,145.276 80,155.583 82.1429,157.546 84.2857,155.583 86.4286,157.055 88.5714,156.074 90.7143,160 92.8571,160 95,160 97.1429,158.037 99.2857,159.018 101.429,158.037 103.571,156.564 105.714,160 107.857,158.528 110,156.564 112.143,160 114.286,154.11 116.429,149.202 118.571,149.202 120.714,153.62 122.857,141.84 125,154.601 127.143,160 129.286,154.601 131.429,160 133.571,160 135.714,157.546 137.857,148.221 140,159.018 142.143,160 144.286,158.037 146.429,160 148.571,159.509 150.714,160 152.857,160 155,160 157.143,160 159.286,151.656 161.429,155.583 163.571,156.074 165.714,157.546 167.857,150.675 170,160 172.143,158.037 174.286,156.564 176.429,158.037 178.571,156.074 180.714,160 182.857,154.11 185,160 187.143,159.509 189.286,160 191.429,160 193.571,157.546 195.714,160 197.857,160 200,160 202.143,160 204.286,160 206.429,160 208.571,160 210.714,160 212.857,160 215,160 217.143,160 219.286,160 221.429,160 223.571,160 225.714,160 227.857,160 230,154.601 232.143,158.037 234.286,160 236.429,160 238.571,160 240.714,160 242.857,160 245,160 247.143,160 249.286,160 251.429,160 253.571,160 255.714,160 257.857,160 260,160 262.143,160 264.286,160 266.429,160 268.571,160 270.714,160 272.857,160 275,160 277.143,160 279.286,157.055 281.429,160 283.571,160 285.714,160 287.857,160 290,155.092 292.143,160 294.286,160 296.429,160 298.571,160 300.714,137.423 302.857,153.62 305,80 307.143,155.092 309.286,149.202 311.429,155.092 313.571,158.037 315.714,158.528 317.857,159.509 320,156.074 322.143,160 324.286,159.018 326.429,160 328.571,159.509 330.714,159.018 332.857,159.509 335,160 337.143,158.528 339.286,160 341.429,159.018 343.571,159.018 345.714,157.546 347.857,157.055 350,160 352.143,160 354.286,159.509 356.429,159.509 358.571,158.528 360.714,159.509 362.857,157.055 365,157.055 367.143,159.018 369.286,158.528 371.429,147.239 373.571,157.055 375.714,129.08 377.857,147.239 380,153.129 382.143,160 384.286,160 386.429,160 388.571,151.656 390.714,158.528 392.857,160 395,160 397.143,138.405 399.286,158.528 401.429,160 403.571,160 405.714,160 407.857,160 410,160 412.143,160 414.286,160 416.429,160 418.571,160 420.714,160 422.857,160 425,160 427.143,160 429.286,160 431.429,160 433.571,159.509 435.714,160 437.857,160 440,160 442.143,160 444.286,160 446.429,160 448.571,160 450.714,160 452.857,160 455,159.509 457.143,158.037 459.286,160 461.429,160 463.571,160 465.714,160 467.857,160 470,160 472.143,160 474.286,160 476.429,160 478.571,160 480.714,160 482.857,159.509 485,158.037 487.143,157.055 489.286,160 491.429,160 493.571,160 495.714,156.564 497.857,157.546 500,147.239 502.143,160 504.286,160 506.429,160 508.571,155.092 510.714,148.221 512.857,160 515,160 517.143,158.037 519.286,160 521.429,158.037 523.571,160 525.714,160 527.857,160 530,160 532.143,160 534.286,160 536.429,159.018 538.571,144.294 540.714,159.018 542.857,160 545,139.387 547.143,121.718 549.286,120.736 551.429,147.73 553.571,146.258 555.714,157.055 557.857,160 560,160 562.143,160 564.286,160 566.429,160 568.571,160 570.714,160 572.857,160 575,157.546 577.143,153.62 579.286,148.712 581.429,160 583.571,149.202 585.714,149.693 587.857,134.969 590,146.258 592.143,145.767 594.286,146.258 596.429,150.184 598.571,154.11 600.714,154.601 602.857,154.11 605,157.055 607.143,156.564 609.286,159.509 611.429,160 613.571,160 615.714,160 617.857,160 620,160 622.143,160 624.286,160 626.429,160 628.571,158.528 630.714,159.509 632.857,160 635,160 637.143,159.509 639.286,142.331 641.429,144.785 643.571,157.055 645.714,158.528 647.857,160 650,160 652.143,159.509 654.286,160 656.429,160 658.571,159.018 660.714,153.62 662.857,159.018 665,160 667.143,160 669.286,149.693 671.429,155.583 673.571,158.528 675.714,156.074 677.857,155.583 680,159.509 682.143,159.509 684.286,160 686.429,160 688.571,151.656 690.714,140.859 692.857,155.092 695,160 697.143,141.84 699.286,150.184 701.429,152.147 703.571,160 705.714,160 707.857,160 710,160 712.143,160 714.286,160 716.429,160 718.571,160 720.714,160 722.857,160 725,160 727.143,160 729.286,158.037 731.429,160 733.571,160 735.714,160 737.857,160 740,160 742.143,160 744.286,160 746.429,160 748.571,160 750.714,160 752.857,160 755,160 757.143,160 759.286,160 761.429,156.564 763.571,154.601 765.714,160 767.857,160 770,160 772.143,160 774.286,159.509 776.429,160 778.571,160 780.714,159.509 782.857,159.509 785,160 787.143,159.509 789.286,160 791.429,160 793.571,159.509 795.714,160 797.857,160 800,160" fill="none" stroke="var(--accent)" stroke-width="1.5" stroke-linecap="round" stroke-linejoin="round"/>
</svg>

