<svg xmlns="http://www.w3.org/2000/svg" width="820" height="180" viewBox="0 0 820 180">

<style>
  :root {
    --bg:        #f6f8fa;
    --card:      #ffffff;
    --border:    #d0d7de;
    --primary:   #1f2328;
    --secondary: #636c76;
    --muted:     #8c959f;
    --accent:    #0969da;
    --green:     #1a7f37;
    --yellow:    #9a6700;
    --red:       #cf222e;
    --hover:     #f3f4f6;
    --spark-bg:  #f0f3f6;
    --spark:     #0969da;
    --pill:      #eaf1fb;
    --pill-txt:  #0969da;
    --div:       #d0d7de;
  }
  @media (prefers-color-scheme: dark) {
    :root {
      --bg:        #0d1117;
      --card:      #161b22;
      --border:    #30363d;
      --primary:   #e6edf3;
      --secondary: #848d97;
      --muted:     #7d8590;
      --accent:    #2f81f7;
      --green:     #3fb950;
      --yellow:    #d29922;
      --red:       #f85149;
      --hover:     #21262d;
      --spark-bg:  #1c2128;
      --spark:     #58a6ff;
      --pill:      #1c2d3f;
      --pill-txt:  #58a6ff;
      --div:       #30363d;
    }
  }
  
  .bg          { fill: var(--bg); }
  .card        { fill: var(--card); stroke: var(--border); stroke-width: 1; }
  .lang-pill   { fill: var(--pill); }
  .spark-bg    { fill: var(--spark-bg); }
  .spark-line  { stroke: var(--spark); }
  .divider     { stroke: var(--div); stroke-width: 1; }
  .clr-primary   { fill: var(--primary); }
  .clr-secondary { fill: var(--secondary); }
  .clr-muted     { fill: var(--muted); }
  .clr-accent    { fill: var(--accent); }
  .clr-green     { fill: var(--green); }
  .clr-yellow    { fill: var(--yellow); }
  .clr-red       { fill: var(--red); }
  .txt-bold    { font-weight: 600; }
  svg text     { font-family: -apple-system, BlinkMacSystemFont, "Segoe UI", Helvetica, Arial, sans-serif; }
</style>

<rect x="0" y="0" width="820" height="180" rx="8" class="card"/>
  <text x="20" y="24" class="clr-primary txt-bold" text-anchor="start" font-size="14">Contribution History &amp; Activity</text>
  <line x1="20" y1="36" x2="800" y2="36" class="divider"/>
  <text x="20" y="60" class="clr-muted" text-anchor="start" font-size="12">Years Active:</text>
  <text x="100" y="60" class="clr-primary txt-bold" text-anchor="start" font-size="12">5.6</text>
  <text x="160" y="60" class="clr-muted" text-anchor="start" font-size="12">Commits (Last Year):</text>
  <text x="290" y="60" class="clr-primary txt-bold" text-anchor="start" font-size="12">1042</text>
  <text x="360" y="60" class="clr-muted" text-anchor="start" font-size="12">Highest Daily:</text>
  <text x="450" y="60" class="clr-primary txt-bold" text-anchor="start" font-size="12">163</text>
  <polygon points="20,160 20,160 22.1253,157.055 24.2507,158.037 26.376,160 28.5014,160 30.6267,160 32.752,160 34.8774,160 37.0027,160 39.1281,160 41.2534,160 43.3787,160 45.5041,160 47.6294,153.62 49.7548,160 51.8801,160 54.0054,160 56.1308,154.11 58.2561,157.055 60.3815,160 62.5068,160 64.6322,160 66.7575,160 68.8828,160 71.0082,160 73.1335,159.018 75.2589,160 77.3842,160 79.5095,160 81.6349,160 83.7602,160 85.8856,160 88.0109,160 90.1362,160 92.2616,160 94.3869,160 96.5123,160 98.6376,160 100.763,160 102.888,160 105.014,160 107.139,160 109.264,160 111.39,160 113.515,160 115.64,160 117.766,160 119.891,160 122.016,160 124.142,160 126.267,160 128.392,160 130.518,160 132.643,160 134.768,160 136.894,160 139.019,160 141.144,160 143.27,160 145.395,160 147.52,159.509 149.646,160 151.771,160 153.896,160 156.022,160 158.147,160 160.272,160 162.398,160 164.523,160 166.649,160 168.774,160 170.899,160 173.025,160 175.15,160 177.275,160 179.401,160 181.526,160 183.651,160 185.777,160 187.902,160 190.027,160 192.153,160 194.278,160 196.403,160 198.529,160 200.654,160 202.779,159.018 204.905,160 207.03,160 209.155,160 211.281,145.276 213.406,155.583 215.531,157.546 217.657,155.583 219.782,157.055 221.907,156.074 224.033,160 226.158,160 228.283,160 230.409,158.037 232.534,159.018 234.659,158.037 236.785,156.564 238.91,160 241.035,158.528 243.161,156.564 245.286,160 247.411,154.11 249.537,149.202 251.662,149.202 253.787,153.62 255.913,141.84 258.038,154.601 260.163,160 262.289,154.601 264.414,160 266.54,160 268.665,157.546 270.79,148.221 272.916,159.018 275.041,160 277.166,158.037 279.292,160 281.417,159.509 283.542,160 285.668,160 287.793,160 289.918,160 292.044,151.656 294.169,155.583 296.294,156.074 298.42,157.546 300.545,150.675 302.67,160 304.796,158.037 306.921,156.564 309.046,158.037 311.172,156.074 313.297,160 315.422,154.11 317.548,160 319.673,159.509 321.798,160 323.924,160 326.049,157.546 328.174,160 330.3,160 332.425,160 334.55,160 336.676,160 338.801,160 340.926,160 343.052,160 345.177,160 347.302,160 349.428,160 351.553,160 353.678,160 355.804,160 357.929,160 360.054,160 362.18,154.601 364.305,158.037 366.431,160 368.556,160 370.681,160 372.807,160 374.932,160 377.057,160 379.183,160 381.308,160 383.433,160 385.559,160 387.684,160 389.809,160 391.935,160 394.06,160 396.185,160 398.311,160 400.436,160 402.561,160 404.687,160 406.812,160 408.937,160 411.063,157.055 413.188,160 415.313,160 417.439,160 419.564,160 421.689,155.092 423.815,160 425.94,160 428.065,160 430.191,160 432.316,137.423 434.441,153.62 436.567,80 438.692,155.092 440.817,149.202 442.943,155.092 445.068,158.037 447.193,158.528 449.319,159.509 451.444,156.074 453.569,160 455.695,159.018 457.82,160 459.946,159.509 462.071,159.018 464.196,159.509 466.322,160 468.447,158.528 470.572,160 472.698,159.018 474.823,159.018 476.948,157.546 479.074,157.055 481.199,160 483.324,160 485.45,159.509 487.575,159.509 489.7,158.528 491.826,159.509 493.951,157.055 496.076,157.055 498.202,159.018 500.327,158.528 502.452,147.239 504.578,157.055 506.703,129.08 508.828,147.239 510.954,153.129 513.079,160 515.204,160 517.33,160 519.455,151.656 521.58,158.528 523.706,160 525.831,160 527.956,138.405 530.082,158.528 532.207,160 534.332,160 536.458,160 538.583,160 540.708,160 542.834,160 544.959,160 547.084,160 549.21,160 551.335,160 553.46,160 555.586,160 557.711,160 559.837,160 561.962,160 564.087,159.509 566.213,160 568.338,160 570.463,160 572.589,160 574.714,160 576.839,160 578.965,160 581.09,160 583.215,160 585.341,159.509 587.466,158.037 589.591,160 591.717,160 593.842,160 595.967,160 598.093,160 600.218,160 602.343,160 604.469,160 606.594,160 608.719,160 610.845,160 612.97,159.509 615.095,158.037 617.221,157.055 619.346,160 621.471,160 623.597,160 625.722,156.564 627.847,157.546 629.973,147.239 632.098,160 634.223,160 636.349,160 638.474,155.092 640.599,148.221 642.725,160 644.85,160 646.975,158.037 649.101,160 651.226,158.037 653.351,160 655.477,160 657.602,160 659.728,160 661.853,160 663.978,160 666.104,159.018 668.229,144.294 670.354,159.018 672.48,160 674.605,139.387 676.73,121.718 678.856,120.736 680.981,147.73 683.106,146.258 685.232,157.055 687.357,160 689.482,160 691.608,160 693.733,160 695.858,160 697.984,160 700.109,160 702.234,160 704.36,157.546 706.485,153.62 708.61,148.712 710.736,160 712.861,149.202 714.986,149.693 717.112,134.969 719.237,146.258 721.362,145.767 723.488,146.258 725.613,150.184 727.738,154.11 729.864,154.601 731.989,154.11 734.114,157.055 736.24,156.564 738.365,159.509 740.49,160 742.616,160 744.741,160 746.866,160 748.992,160 751.117,160 753.243,160 755.368,160 757.493,158.528 759.619,159.509 761.744,160 763.869,160 765.995,159.509 768.12,142.331 770.245,144.785 772.371,157.055 774.496,158.528 776.621,160 778.747,160 780.872,159.509 782.997,160 785.123,160 787.248,159.018 789.373,153.62 791.499,159.018 793.624,160 795.749,160 797.875,151.166 800,160 800,160" fill="var(--pill)" opacity="0.6"/>
  <polyline points="20,160 22.1253,157.055 24.2507,158.037 26.376,160 28.5014,160 30.6267,160 32.752,160 34.8774,160 37.0027,160 39.1281,160 41.2534,160 43.3787,160 45.5041,160 47.6294,153.62 49.7548,160 51.8801,160 54.0054,160 56.1308,154.11 58.2561,157.055 60.3815,160 62.5068,160 64.6322,160 66.7575,160 68.8828,160 71.0082,160 73.1335,159.018 75.2589,160 77.3842,160 79.5095,160 81.6349,160 83.7602,160 85.8856,160 88.0109,160 90.1362,160 92.2616,160 94.3869,160 96.5123,160 98.6376,160 100.763,160 102.888,160 105.014,160 107.139,160 109.264,160 111.39,160 113.515,160 115.64,160 117.766,160 119.891,160 122.016,160 124.142,160 126.267,160 128.392,160 130.518,160 132.643,160 134.768,160 136.894,160 139.019,160 141.144,160 143.27,160 145.395,160 147.52,159.509 149.646,160 151.771,160 153.896,160 156.022,160 158.147,160 160.272,160 162.398,160 164.523,160 166.649,160 168.774,160 170.899,160 173.025,160 175.15,160 177.275,160 179.401,160 181.526,160 183.651,160 185.777,160 187.902,160 190.027,160 192.153,160 194.278,160 196.403,160 198.529,160 200.654,160 202.779,159.018 204.905,160 207.03,160 209.155,160 211.281,145.276 213.406,155.583 215.531,157.546 217.657,155.583 219.782,157.055 221.907,156.074 224.033,160 226.158,160 228.283,160 230.409,158.037 232.534,159.018 234.659,158.037 236.785,156.564 238.91,160 241.035,158.528 243.161,156.564 245.286,160 247.411,154.11 249.537,149.202 251.662,149.202 253.787,153.62 255.913,141.84 258.038,154.601 260.163,160 262.289,154.601 264.414,160 266.54,160 268.665,157.546 270.79,148.221 272.916,159.018 275.041,160 277.166,158.037 279.292,160 281.417,159.509 283.542,160 285.668,160 287.793,160 289.918,160 292.044,151.656 294.169,155.583 296.294,156.074 298.42,157.546 300.545,150.675 302.67,160 304.796,158.037 306.921,156.564 309.046,158.037 311.172,156.074 313.297,160 315.422,154.11 317.548,160 319.673,159.509 321.798,160 323.924,160 326.049,157.546 328.174,160 330.3,160 332.425,160 334.55,160 336.676,160 338.801,160 340.926,160 343.052,160 345.177,160 347.302,160 349.428,160 351.553,160 353.678,160 355.804,160 357.929,160 360.054,160 362.18,154.601 364.305,158.037 366.431,160 368.556,160 370.681,160 372.807,160 374.932,160 377.057,160 379.183,160 381.308,160 383.433,160 385.559,160 387.684,160 389.809,160 391.935,160 394.06,160 396.185,160 398.311,160 400.436,160 402.561,160 404.687,160 406.812,160 408.937,160 411.063,157.055 413.188,160 415.313,160 417.439,160 419.564,160 421.689,155.092 423.815,160 425.94,160 428.065,160 430.191,160 432.316,137.423 434.441,153.62 436.567,80 438.692,155.092 440.817,149.202 442.943,155.092 445.068,158.037 447.193,158.528 449.319,159.509 451.444,156.074 453.569,160 455.695,159.018 457.82,160 459.946,159.509 462.071,159.018 464.196,159.509 466.322,160 468.447,158.528 470.572,160 472.698,159.018 474.823,159.018 476.948,157.546 479.074,157.055 481.199,160 483.324,160 485.45,159.509 487.575,159.509 489.7,158.528 491.826,159.509 493.951,157.055 496.076,157.055 498.202,159.018 500.327,158.528 502.452,147.239 504.578,157.055 506.703,129.08 508.828,147.239 510.954,153.129 513.079,160 515.204,160 517.33,160 519.455,151.656 521.58,158.528 523.706,160 525.831,160 527.956,138.405 530.082,158.528 532.207,160 534.332,160 536.458,160 538.583,160 540.708,160 542.834,160 544.959,160 547.084,160 549.21,160 551.335,160 553.46,160 555.586,160 557.711,160 559.837,160 561.962,160 564.087,159.509 566.213,160 568.338,160 570.463,160 572.589,160 574.714,160 576.839,160 578.965,160 581.09,160 583.215,160 585.341,159.509 587.466,158.037 589.591,160 591.717,160 593.842,160 595.967,160 598.093,160 600.218,160 602.343,160 604.469,160 606.594,160 608.719,160 610.845,160 612.97,159.509 615.095,158.037 617.221,157.055 619.346,160 621.471,160 623.597,160 625.722,156.564 627.847,157.546 629.973,147.239 632.098,160 634.223,160 636.349,160 638.474,155.092 640.599,148.221 642.725,160 644.85,160 646.975,158.037 649.101,160 651.226,158.037 653.351,160 655.477,160 657.602,160 659.728,160 661.853,160 663.978,160 666.104,159.018 668.229,144.294 670.354,159.018 672.48,160 674.605,139.387 676.73,121.718 678.856,120.736 680.981,147.73 683.106,146.258 685.232,157.055 687.357,160 689.482,160 691.608,160 693.733,160 695.858,160 697.984,160 700.109,160 702.234,160 704.36,157.546 706.485,153.62 708.61,148.712 710.736,160 712.861,149.202 714.986,149.693 717.112,134.969 719.237,146.258 721.362,145.767 723.488,146.258 725.613,150.184 727.738,154.11 729.864,154.601 731.989,154.11 734.114,157.055 736.24,156.564 738.365,159.509 740.49,160 742.616,160 744.741,160 746.866,160 748.992,160 751.117,160 753.243,160 755.368,160 757.493,158.528 759.619,159.509 761.744,160 763.869,160 765.995,159.509 768.12,142.331 770.245,144.785 772.371,157.055 774.496,158.528 776.621,160 778.747,160 780.872,159.509 782.997,160 785.123,160 787.248,159.018 789.373,153.62 791.499,159.018 793.624,160 795.749,160 797.875,151.166 800,160" fill="none" stroke="var(--accent)" stroke-width="1.5" stroke-linecap="round" stroke-linejoin="round"/>
</svg>

