<svg xmlns="http://www.w3.org/2000/svg" width="820" height="180" viewBox="0 0 820 180">

<style>
  :root {
    --bg:        #f6f8fa;
    --card:      #ffffff;
    --border:    #d0d7de;
    --primary:   #1f2328;
    --secondary: #636c76;
    --muted:     #8c959f;
    --accent:    #0969da;
    --green:     #1a7f37;
    --yellow:    #9a6700;
    --red:       #cf222e;
    --hover:     #f3f4f6;
    --spark-bg:  #f0f3f6;
    --spark:     #0969da;
    --pill:      #eaf1fb;
    --pill-txt:  #0969da;
    --div:       #d0d7de;
  }
  @media (prefers-color-scheme: dark) {
    :root {
      --bg:        #0d1117;
      --card:      #161b22;
      --border:    #30363d;
      --primary:   #e6edf3;
      --secondary: #848d97;
      --muted:     #7d8590;
      --accent:    #2f81f7;
      --green:     #3fb950;
      --yellow:    #d29922;
      --red:       #f85149;
      --hover:     #21262d;
      --spark-bg:  #1c2128;
      --spark:     #58a6ff;
      --pill:      #1c2d3f;
      --pill-txt:  #58a6ff;
      --div:       #30363d;
    }
  }
  
  .bg          { fill: var(--bg); }
  .card        { fill: var(--card); stroke: var(--border); stroke-width: 1; }
  .lang-pill   { fill: var(--pill); }
  .spark-bg    { fill: var(--spark-bg); }
  .spark-line  { stroke: var(--spark); }
  .divider     { stroke: var(--div); stroke-width: 1; }
  .clr-primary   { fill: var(--primary); }
  .clr-secondary { fill: var(--secondary); }
  .clr-muted     { fill: var(--muted); }
  .clr-accent    { fill: var(--accent); }
  .clr-green     { fill: var(--green); }
  .clr-yellow    { fill: var(--yellow); }
  .clr-red       { fill: var(--red); }
  .txt-bold    { font-weight: 600; }
  svg text     { font-family: -apple-system, BlinkMacSystemFont, "Segoe UI", Helvetica, Arial, sans-serif; }
</style>

<rect x="0" y="0" width="820" height="180" rx="8" class="card"/>
  <text x="20" y="24" class="clr-primary txt-bold" text-anchor="start" font-size="14">Contribution History &amp; Activity</text>
  <line x1="20" y1="36" x2="800" y2="36" class="divider"/>
  <text x="20" y="60" class="clr-muted" text-anchor="start" font-size="12">Years Active:</text>
  <text x="100" y="60" class="clr-primary txt-bold" text-anchor="start" font-size="12">5.6</text>
  <text x="160" y="60" class="clr-muted" text-anchor="start" font-size="12">Commits (Last Year):</text>
  <text x="290" y="60" class="clr-primary txt-bold" text-anchor="start" font-size="12">1053</text>
  <text x="360" y="60" class="clr-muted" text-anchor="start" font-size="12">Highest Daily:</text>
  <text x="450" y="60" class="clr-primary txt-bold" text-anchor="start" font-size="12">163</text>
  <polygon points="20,160 20,160 22.1138,157.055 24.2276,158.037 26.3415,160 28.4553,160 30.5691,160 32.6829,160 34.7967,160 36.9106,160 39.0244,160 41.1382,160 43.252,160 45.3659,160 47.4797,153.62 49.5935,160 51.7073,160 53.8211,160 55.935,154.11 58.0488,157.055 60.1626,160 62.2764,160 64.3902,160 66.5041,160 68.6179,160 70.7317,160 72.8455,159.018 74.9593,160 77.0732,160 79.187,160 81.3008,160 83.4146,160 85.5285,160 87.6423,160 89.7561,160 91.8699,160 93.9837,160 96.0976,160 98.2114,160 100.325,160 102.439,160 104.553,160 106.667,160 108.78,160 110.894,160 113.008,160 115.122,160 117.236,160 119.35,160 121.463,160 123.577,160 125.691,160 127.805,160 129.919,160 132.033,160 134.146,160 136.26,160 138.374,160 140.488,160 142.602,160 144.715,160 146.829,159.509 148.943,160 151.057,160 153.171,160 155.285,160 157.398,160 159.512,160 161.626,160 163.74,160 165.854,160 167.967,160 170.081,160 172.195,160 174.309,160 176.423,160 178.537,160 180.65,160 182.764,160 184.878,160 186.992,160 189.106,160 191.22,160 193.333,160 195.447,160 197.561,160 199.675,160 201.789,159.018 203.902,160 206.016,160 208.13,160 210.244,145.276 212.358,155.583 214.472,157.546 216.585,155.583 218.699,157.055 220.813,156.074 222.927,160 225.041,160 227.154,160 229.268,158.037 231.382,159.018 233.496,158.037 235.61,156.564 237.724,160 239.837,158.528 241.951,156.564 244.065,160 246.179,154.11 248.293,149.202 250.407,149.202 252.52,153.62 254.634,141.84 256.748,154.601 258.862,160 260.976,154.601 263.089,160 265.203,160 267.317,157.546 269.431,148.221 271.545,159.018 273.659,160 275.772,158.037 277.886,160 280,159.509 282.114,160 284.228,160 286.341,160 288.455,160 290.569,151.656 292.683,155.583 294.797,156.074 296.911,157.546 299.024,150.675 301.138,160 303.252,158.037 305.366,156.564 307.48,158.037 309.593,156.074 311.707,160 313.821,154.11 315.935,160 318.049,159.509 320.163,160 322.276,160 324.39,157.546 326.504,160 328.618,160 330.732,160 332.846,160 334.959,160 337.073,160 339.187,160 341.301,160 343.415,160 345.528,160 347.642,160 349.756,160 351.87,160 353.984,160 356.098,160 358.211,160 360.325,154.601 362.439,158.037 364.553,160 366.667,160 368.78,160 370.894,160 373.008,160 375.122,160 377.236,160 379.35,160 381.463,160 383.577,160 385.691,160 387.805,160 389.919,160 392.033,160 394.146,160 396.26,160 398.374,160 400.488,160 402.602,160 404.715,160 406.829,160 408.943,157.055 411.057,160 413.171,160 415.285,160 417.398,160 419.512,155.092 421.626,160 423.74,160 425.854,160 427.967,160 430.081,137.423 432.195,153.62 434.309,80 436.423,155.092 438.537,149.202 440.65,155.092 442.764,158.037 444.878,158.528 446.992,159.509 449.106,156.074 451.22,160 453.333,159.018 455.447,160 457.561,159.509 459.675,159.018 461.789,159.509 463.902,160 466.016,158.528 468.13,160 470.244,159.018 472.358,159.018 474.472,157.546 476.585,157.055 478.699,160 480.813,160 482.927,159.509 485.041,159.509 487.154,158.528 489.268,159.509 491.382,157.055 493.496,157.055 495.61,159.018 497.724,158.528 499.837,147.239 501.951,157.055 504.065,129.08 506.179,147.239 508.293,153.129 510.407,160 512.52,160 514.634,160 516.748,151.656 518.862,158.528 520.976,160 523.089,160 525.203,138.405 527.317,158.528 529.431,160 531.545,160 533.659,160 535.772,160 537.886,160 540,160 542.114,160 544.228,160 546.341,160 548.455,160 550.569,160 552.683,160 554.797,160 556.911,160 559.024,160 561.138,159.509 563.252,160 565.366,160 567.48,160 569.593,160 571.707,160 573.821,160 575.935,160 578.049,160 580.163,160 582.276,159.509 584.39,158.037 586.504,160 588.618,160 590.732,160 592.846,160 594.959,160 597.073,160 599.187,160 601.301,160 603.415,160 605.528,160 607.642,160 609.756,159.509 611.87,158.037 613.984,157.055 616.098,160 618.211,160 620.325,160 622.439,156.564 624.553,157.546 626.667,147.239 628.78,160 630.894,160 633.008,160 635.122,155.092 637.236,148.221 639.35,160 641.463,160 643.577,158.037 645.691,160 647.805,158.037 649.919,160 652.033,160 654.146,160 656.26,160 658.374,160 660.488,160 662.602,159.018 664.715,144.294 666.829,159.018 668.943,160 671.057,139.387 673.171,121.718 675.285,120.736 677.398,147.73 679.512,146.258 681.626,157.055 683.74,160 685.854,160 687.967,160 690.081,160 692.195,160 694.309,160 696.423,160 698.537,160 700.65,157.546 702.764,153.62 704.878,148.712 706.992,160 709.106,149.202 711.22,149.693 713.333,134.969 715.447,146.258 717.561,145.767 719.675,146.258 721.789,150.184 723.902,154.11 726.016,154.601 728.13,154.11 730.244,157.055 732.358,156.564 734.472,159.509 736.585,160 738.699,160 740.813,160 742.927,160 745.041,160 747.154,160 749.268,160 751.382,160 753.496,158.528 755.61,159.509 757.724,160 759.837,160 761.951,159.509 764.065,142.331 766.179,144.785 768.293,157.055 770.407,158.528 772.52,160 774.634,160 776.748,159.509 778.862,160 780.976,160 783.089,159.018 785.203,153.62 787.317,159.018 789.431,160 791.545,160 793.659,149.693 795.772,155.583 797.886,159.509 800,160 800,160" fill="var(--pill)" opacity="0.6"/>
  <polyline points="20,160 22.1138,157.055 24.2276,158.037 26.3415,160 28.4553,160 30.5691,160 32.6829,160 34.7967,160 36.9106,160 39.0244,160 41.1382,160 43.252,160 45.3659,160 47.4797,153.62 49.5935,160 51.7073,160 53.8211,160 55.935,154.11 58.0488,157.055 60.1626,160 62.2764,160 64.3902,160 66.5041,160 68.6179,160 70.7317,160 72.8455,159.018 74.9593,160 77.0732,160 79.187,160 81.3008,160 83.4146,160 85.5285,160 87.6423,160 89.7561,160 91.8699,160 93.9837,160 96.0976,160 98.2114,160 100.325,160 102.439,160 104.553,160 106.667,160 108.78,160 110.894,160 113.008,160 115.122,160 117.236,160 119.35,160 121.463,160 123.577,160 125.691,160 127.805,160 129.919,160 132.033,160 134.146,160 136.26,160 138.374,160 140.488,160 142.602,160 144.715,160 146.829,159.509 148.943,160 151.057,160 153.171,160 155.285,160 157.398,160 159.512,160 161.626,160 163.74,160 165.854,160 167.967,160 170.081,160 172.195,160 174.309,160 176.423,160 178.537,160 180.65,160 182.764,160 184.878,160 186.992,160 189.106,160 191.22,160 193.333,160 195.447,160 197.561,160 199.675,160 201.789,159.018 203.902,160 206.016,160 208.13,160 210.244,145.276 212.358,155.583 214.472,157.546 216.585,155.583 218.699,157.055 220.813,156.074 222.927,160 225.041,160 227.154,160 229.268,158.037 231.382,159.018 233.496,158.037 235.61,156.564 237.724,160 239.837,158.528 241.951,156.564 244.065,160 246.179,154.11 248.293,149.202 250.407,149.202 252.52,153.62 254.634,141.84 256.748,154.601 258.862,160 260.976,154.601 263.089,160 265.203,160 267.317,157.546 269.431,148.221 271.545,159.018 273.659,160 275.772,158.037 277.886,160 280,159.509 282.114,160 284.228,160 286.341,160 288.455,160 290.569,151.656 292.683,155.583 294.797,156.074 296.911,157.546 299.024,150.675 301.138,160 303.252,158.037 305.366,156.564 307.48,158.037 309.593,156.074 311.707,160 313.821,154.11 315.935,160 318.049,159.509 320.163,160 322.276,160 324.39,157.546 326.504,160 328.618,160 330.732,160 332.846,160 334.959,160 337.073,160 339.187,160 341.301,160 343.415,160 345.528,160 347.642,160 349.756,160 351.87,160 353.984,160 356.098,160 358.211,160 360.325,154.601 362.439,158.037 364.553,160 366.667,160 368.78,160 370.894,160 373.008,160 375.122,160 377.236,160 379.35,160 381.463,160 383.577,160 385.691,160 387.805,160 389.919,160 392.033,160 394.146,160 396.26,160 398.374,160 400.488,160 402.602,160 404.715,160 406.829,160 408.943,157.055 411.057,160 413.171,160 415.285,160 417.398,160 419.512,155.092 421.626,160 423.74,160 425.854,160 427.967,160 430.081,137.423 432.195,153.62 434.309,80 436.423,155.092 438.537,149.202 440.65,155.092 442.764,158.037 444.878,158.528 446.992,159.509 449.106,156.074 451.22,160 453.333,159.018 455.447,160 457.561,159.509 459.675,159.018 461.789,159.509 463.902,160 466.016,158.528 468.13,160 470.244,159.018 472.358,159.018 474.472,157.546 476.585,157.055 478.699,160 480.813,160 482.927,159.509 485.041,159.509 487.154,158.528 489.268,159.509 491.382,157.055 493.496,157.055 495.61,159.018 497.724,158.528 499.837,147.239 501.951,157.055 504.065,129.08 506.179,147.239 508.293,153.129 510.407,160 512.52,160 514.634,160 516.748,151.656 518.862,158.528 520.976,160 523.089,160 525.203,138.405 527.317,158.528 529.431,160 531.545,160 533.659,160 535.772,160 537.886,160 540,160 542.114,160 544.228,160 546.341,160 548.455,160 550.569,160 552.683,160 554.797,160 556.911,160 559.024,160 561.138,159.509 563.252,160 565.366,160 567.48,160 569.593,160 571.707,160 573.821,160 575.935,160 578.049,160 580.163,160 582.276,159.509 584.39,158.037 586.504,160 588.618,160 590.732,160 592.846,160 594.959,160 597.073,160 599.187,160 601.301,160 603.415,160 605.528,160 607.642,160 609.756,159.509 611.87,158.037 613.984,157.055 616.098,160 618.211,160 620.325,160 622.439,156.564 624.553,157.546 626.667,147.239 628.78,160 630.894,160 633.008,160 635.122,155.092 637.236,148.221 639.35,160 641.463,160 643.577,158.037 645.691,160 647.805,158.037 649.919,160 652.033,160 654.146,160 656.26,160 658.374,160 660.488,160 662.602,159.018 664.715,144.294 666.829,159.018 668.943,160 671.057,139.387 673.171,121.718 675.285,120.736 677.398,147.73 679.512,146.258 681.626,157.055 683.74,160 685.854,160 687.967,160 690.081,160 692.195,160 694.309,160 696.423,160 698.537,160 700.65,157.546 702.764,153.62 704.878,148.712 706.992,160 709.106,149.202 711.22,149.693 713.333,134.969 715.447,146.258 717.561,145.767 719.675,146.258 721.789,150.184 723.902,154.11 726.016,154.601 728.13,154.11 730.244,157.055 732.358,156.564 734.472,159.509 736.585,160 738.699,160 740.813,160 742.927,160 745.041,160 747.154,160 749.268,160 751.382,160 753.496,158.528 755.61,159.509 757.724,160 759.837,160 761.951,159.509 764.065,142.331 766.179,144.785 768.293,157.055 770.407,158.528 772.52,160 774.634,160 776.748,159.509 778.862,160 780.976,160 783.089,159.018 785.203,153.62 787.317,159.018 789.431,160 791.545,160 793.659,149.693 795.772,155.583 797.886,159.509 800,160" fill="none" stroke="var(--accent)" stroke-width="1.5" stroke-linecap="round" stroke-linejoin="round"/>
</svg>

