<svg xmlns="http://www.w3.org/2000/svg" width="820" height="180" viewBox="0 0 820 180">

<style>
  :root {
    --bg:        #f6f8fa;
    --card:      #ffffff;
    --border:    #d0d7de;
    --primary:   #1f2328;
    --secondary: #636c76;
    --muted:     #8c959f;
    --accent:    #0969da;
    --green:     #1a7f37;
    --yellow:    #9a6700;
    --red:       #cf222e;
    --hover:     #f3f4f6;
    --spark-bg:  #f0f3f6;
    --spark:     #0969da;
    --pill:      #eaf1fb;
    --pill-txt:  #0969da;
    --div:       #d0d7de;
  }
  @media (prefers-color-scheme: dark) {
    :root {
      --bg:        #0d1117;
      --card:      #161b22;
      --border:    #30363d;
      --primary:   #e6edf3;
      --secondary: #848d97;
      --muted:     #7d8590;
      --accent:    #2f81f7;
      --green:     #3fb950;
      --yellow:    #d29922;
      --red:       #f85149;
      --hover:     #21262d;
      --spark-bg:  #1c2128;
      --spark:     #58a6ff;
      --pill:      #1c2d3f;
      --pill-txt:  #58a6ff;
      --div:       #30363d;
    }
  }
  
  .bg          { fill: var(--bg); }
  .card        { fill: var(--card); stroke: var(--border); stroke-width: 1; }
  .lang-pill   { fill: var(--pill); }
  .spark-bg    { fill: var(--spark-bg); }
  .spark-line  { stroke: var(--spark); }
  .divider     { stroke: var(--div); stroke-width: 1; }
  .clr-primary   { fill: var(--primary); }
  .clr-secondary { fill: var(--secondary); }
  .clr-muted     { fill: var(--muted); }
  .clr-accent    { fill: var(--accent); }
  .clr-green     { fill: var(--green); }
  .clr-yellow    { fill: var(--yellow); }
  .clr-red       { fill: var(--red); }
  .txt-bold    { font-weight: 600; }
  svg text     { font-family: -apple-system, BlinkMacSystemFont, "Segoe UI", Helvetica, Arial, sans-serif; }
</style>

<rect x="0" y="0" width="820" height="180" rx="8" class="card"/>
  <text x="20" y="24" class="clr-primary txt-bold" text-anchor="start" font-size="14">Contribution History &amp; Activity</text>
  <line x1="20" y1="36" x2="800" y2="36" class="divider"/>
  <text x="20" y="60" class="clr-muted" text-anchor="start" font-size="12">Years Active:</text>
  <text x="100" y="60" class="clr-primary txt-bold" text-anchor="start" font-size="12">5.7</text>
  <text x="160" y="60" class="clr-muted" text-anchor="start" font-size="12">Commits (Last Year):</text>
  <text x="290" y="60" class="clr-primary txt-bold" text-anchor="start" font-size="12">1173</text>
  <text x="360" y="60" class="clr-muted" text-anchor="start" font-size="12">Highest Daily:</text>
  <text x="450" y="60" class="clr-primary txt-bold" text-anchor="start" font-size="12">163</text>
  <polygon points="20,160 20,160 22.1081,160 24.2162,160 26.3243,160 28.4324,160 30.5405,160 32.6486,160 34.7568,160 36.8649,160 38.973,160 41.0811,160 43.1892,160 45.2973,160 47.4054,160 49.5135,160 51.6216,160 53.7297,160 55.8378,160 57.9459,160 60.0541,160 62.1622,160 64.2703,160 66.3784,160 68.4865,160 70.5946,160 72.7027,159.509 74.8108,160 76.9189,160 79.027,160 81.1351,160 83.2432,160 85.3514,160 87.4595,160 89.5676,160 91.6757,160 93.7838,160 95.8919,160 98,160 100.108,160 102.216,160 104.324,160 106.432,160 108.541,160 110.649,160 112.757,160 114.865,160 116.973,160 119.081,160 121.189,160 123.297,160 125.405,160 127.514,159.018 129.622,160 131.73,160 133.838,160 135.946,145.276 138.054,155.583 140.162,157.546 142.27,155.583 144.378,157.055 146.486,156.074 148.595,160 150.703,160 152.811,160 154.919,158.037 157.027,159.018 159.135,158.037 161.243,156.564 163.351,160 165.459,158.528 167.568,156.564 169.676,160 171.784,154.11 173.892,149.202 176,149.202 178.108,153.62 180.216,141.84 182.324,154.601 184.432,160 186.541,154.601 188.649,160 190.757,160 192.865,157.546 194.973,148.221 197.081,159.018 199.189,160 201.297,158.037 203.405,160 205.514,159.509 207.622,160 209.73,160 211.838,160 213.946,160 216.054,151.656 218.162,155.583 220.27,156.074 222.378,157.546 224.486,150.675 226.595,160 228.703,158.037 230.811,156.564 232.919,158.037 235.027,156.074 237.135,160 239.243,154.11 241.351,160 243.459,159.509 245.568,160 247.676,160 249.784,157.546 251.892,160 254,160 256.108,160 258.216,160 260.324,160 262.432,160 264.541,160 266.649,160 268.757,160 270.865,160 272.973,160 275.081,160 277.189,160 279.297,160 281.405,160 283.514,160 285.622,154.601 287.73,158.037 289.838,160 291.946,160 294.054,160 296.162,160 298.27,160 300.378,160 302.486,160 304.595,160 306.703,160 308.811,160 310.919,160 313.027,160 315.135,160 317.243,160 319.351,160 321.459,160 323.568,160 325.676,160 327.784,160 329.892,160 332,160 334.108,157.055 336.216,160 338.324,160 340.432,160 342.541,160 344.649,155.092 346.757,160 348.865,160 350.973,160 353.081,160 355.189,137.423 357.297,153.62 359.405,80 361.514,155.092 363.622,149.202 365.73,155.092 367.838,158.037 369.946,158.528 372.054,159.509 374.162,156.074 376.27,160 378.378,159.018 380.486,160 382.595,159.509 384.703,159.018 386.811,159.509 388.919,160 391.027,158.528 393.135,160 395.243,159.018 397.351,159.018 399.459,157.546 401.568,157.055 403.676,160 405.784,160 407.892,159.509 410,159.509 412.108,158.528 414.216,159.509 416.324,157.055 418.432,157.055 420.541,159.018 422.649,158.528 424.757,147.239 426.865,157.055 428.973,129.08 431.081,147.239 433.189,153.129 435.297,160 437.405,160 439.514,160 441.622,151.656 443.73,158.528 445.838,160 447.946,160 450.054,138.405 452.162,158.528 454.27,160 456.378,160 458.486,160 460.595,160 462.703,160 464.811,160 466.919,160 469.027,160 471.135,160 473.243,160 475.351,160 477.459,160 479.568,160 481.676,160 483.784,160 485.892,159.509 488,160 490.108,160 492.216,160 494.324,160 496.432,160 498.541,160 500.649,160 502.757,160 504.865,160 506.973,159.509 509.081,158.037 511.189,160 513.297,160 515.405,160 517.514,160 519.622,160 521.73,160 523.838,160 525.946,160 528.054,160 530.162,160 532.27,160 534.378,159.509 536.486,158.037 538.595,157.055 540.703,160 542.811,160 544.919,160 547.027,156.564 549.135,157.546 551.243,147.239 553.351,160 555.459,160 557.568,160 559.676,155.092 561.784,148.221 563.892,160 566,160 568.108,158.037 570.216,160 572.324,158.037 574.432,160 576.541,160 578.649,160 580.757,160 582.865,160 584.973,160 587.081,159.018 589.189,144.294 591.297,159.018 593.405,160 595.514,139.387 597.622,121.718 599.73,120.736 601.838,147.73 603.946,146.258 606.054,157.055 608.162,160 610.27,160 612.378,160 614.486,160 616.595,160 618.703,160 620.811,160 622.919,160 625.027,157.546 627.135,153.62 629.243,148.712 631.351,160 633.459,149.202 635.568,149.693 637.676,134.969 639.784,146.258 641.892,145.767 644,146.258 646.108,150.184 648.216,154.11 650.324,154.601 652.432,154.11 654.541,157.055 656.649,156.564 658.757,159.509 660.865,160 662.973,160 665.081,160 667.189,160 669.297,160 671.405,160 673.514,160 675.622,160 677.73,158.528 679.838,159.509 681.946,160 684.054,160 686.162,159.509 688.27,142.331 690.378,144.785 692.486,157.055 694.595,158.528 696.703,160 698.811,160 700.919,159.509 703.027,160 705.135,160 707.243,159.018 709.351,153.62 711.459,159.018 713.568,160 715.676,160 717.784,149.693 719.892,155.583 722,158.528 724.108,156.074 726.216,155.583 728.324,159.509 730.432,159.509 732.541,160 734.649,160 736.757,151.656 738.865,140.859 740.973,155.092 743.081,160 745.189,141.84 747.297,150.184 749.405,152.147 751.514,160 753.622,160 755.73,160 757.838,160 759.946,160 762.054,160 764.162,160 766.27,160 768.378,160 770.486,160 772.595,160 774.703,160 776.811,158.037 778.919,160 781.027,160 783.135,160 785.243,160 787.351,160 789.459,160 791.568,160 793.676,160 795.784,160 797.892,160 800,160 800,160" fill="var(--pill)" opacity="0.6"/>
  <polyline points="20,160 22.1081,160 24.2162,160 26.3243,160 28.4324,160 30.5405,160 32.6486,160 34.7568,160 36.8649,160 38.973,160 41.0811,160 43.1892,160 45.2973,160 47.4054,160 49.5135,160 51.6216,160 53.7297,160 55.8378,160 57.9459,160 60.0541,160 62.1622,160 64.2703,160 66.3784,160 68.4865,160 70.5946,160 72.7027,159.509 74.8108,160 76.9189,160 79.027,160 81.1351,160 83.2432,160 85.3514,160 87.4595,160 89.5676,160 91.6757,160 93.7838,160 95.8919,160 98,160 100.108,160 102.216,160 104.324,160 106.432,160 108.541,160 110.649,160 112.757,160 114.865,160 116.973,160 119.081,160 121.189,160 123.297,160 125.405,160 127.514,159.018 129.622,160 131.73,160 133.838,160 135.946,145.276 138.054,155.583 140.162,157.546 142.27,155.583 144.378,157.055 146.486,156.074 148.595,160 150.703,160 152.811,160 154.919,158.037 157.027,159.018 159.135,158.037 161.243,156.564 163.351,160 165.459,158.528 167.568,156.564 169.676,160 171.784,154.11 173.892,149.202 176,149.202 178.108,153.62 180.216,141.84 182.324,154.601 184.432,160 186.541,154.601 188.649,160 190.757,160 192.865,157.546 194.973,148.221 197.081,159.018 199.189,160 201.297,158.037 203.405,160 205.514,159.509 207.622,160 209.73,160 211.838,160 213.946,160 216.054,151.656 218.162,155.583 220.27,156.074 222.378,157.546 224.486,150.675 226.595,160 228.703,158.037 230.811,156.564 232.919,158.037 235.027,156.074 237.135,160 239.243,154.11 241.351,160 243.459,159.509 245.568,160 247.676,160 249.784,157.546 251.892,160 254,160 256.108,160 258.216,160 260.324,160 262.432,160 264.541,160 266.649,160 268.757,160 270.865,160 272.973,160 275.081,160 277.189,160 279.297,160 281.405,160 283.514,160 285.622,154.601 287.73,158.037 289.838,160 291.946,160 294.054,160 296.162,160 298.27,160 300.378,160 302.486,160 304.595,160 306.703,160 308.811,160 310.919,160 313.027,160 315.135,160 317.243,160 319.351,160 321.459,160 323.568,160 325.676,160 327.784,160 329.892,160 332,160 334.108,157.055 336.216,160 338.324,160 340.432,160 342.541,160 344.649,155.092 346.757,160 348.865,160 350.973,160 353.081,160 355.189,137.423 357.297,153.62 359.405,80 361.514,155.092 363.622,149.202 365.73,155.092 367.838,158.037 369.946,158.528 372.054,159.509 374.162,156.074 376.27,160 378.378,159.018 380.486,160 382.595,159.509 384.703,159.018 386.811,159.509 388.919,160 391.027,158.528 393.135,160 395.243,159.018 397.351,159.018 399.459,157.546 401.568,157.055 403.676,160 405.784,160 407.892,159.509 410,159.509 412.108,158.528 414.216,159.509 416.324,157.055 418.432,157.055 420.541,159.018 422.649,158.528 424.757,147.239 426.865,157.055 428.973,129.08 431.081,147.239 433.189,153.129 435.297,160 437.405,160 439.514,160 441.622,151.656 443.73,158.528 445.838,160 447.946,160 450.054,138.405 452.162,158.528 454.27,160 456.378,160 458.486,160 460.595,160 462.703,160 464.811,160 466.919,160 469.027,160 471.135,160 473.243,160 475.351,160 477.459,160 479.568,160 481.676,160 483.784,160 485.892,159.509 488,160 490.108,160 492.216,160 494.324,160 496.432,160 498.541,160 500.649,160 502.757,160 504.865,160 506.973,159.509 509.081,158.037 511.189,160 513.297,160 515.405,160 517.514,160 519.622,160 521.73,160 523.838,160 525.946,160 528.054,160 530.162,160 532.27,160 534.378,159.509 536.486,158.037 538.595,157.055 540.703,160 542.811,160 544.919,160 547.027,156.564 549.135,157.546 551.243,147.239 553.351,160 555.459,160 557.568,160 559.676,155.092 561.784,148.221 563.892,160 566,160 568.108,158.037 570.216,160 572.324,158.037 574.432,160 576.541,160 578.649,160 580.757,160 582.865,160 584.973,160 587.081,159.018 589.189,144.294 591.297,159.018 593.405,160 595.514,139.387 597.622,121.718 599.73,120.736 601.838,147.73 603.946,146.258 606.054,157.055 608.162,160 610.27,160 612.378,160 614.486,160 616.595,160 618.703,160 620.811,160 622.919,160 625.027,157.546 627.135,153.62 629.243,148.712 631.351,160 633.459,149.202 635.568,149.693 637.676,134.969 639.784,146.258 641.892,145.767 644,146.258 646.108,150.184 648.216,154.11 650.324,154.601 652.432,154.11 654.541,157.055 656.649,156.564 658.757,159.509 660.865,160 662.973,160 665.081,160 667.189,160 669.297,160 671.405,160 673.514,160 675.622,160 677.73,158.528 679.838,159.509 681.946,160 684.054,160 686.162,159.509 688.27,142.331 690.378,144.785 692.486,157.055 694.595,158.528 696.703,160 698.811,160 700.919,159.509 703.027,160 705.135,160 707.243,159.018 709.351,153.62 711.459,159.018 713.568,160 715.676,160 717.784,149.693 719.892,155.583 722,158.528 724.108,156.074 726.216,155.583 728.324,159.509 730.432,159.509 732.541,160 734.649,160 736.757,151.656 738.865,140.859 740.973,155.092 743.081,160 745.189,141.84 747.297,150.184 749.405,152.147 751.514,160 753.622,160 755.73,160 757.838,160 759.946,160 762.054,160 764.162,160 766.27,160 768.378,160 770.486,160 772.595,160 774.703,160 776.811,158.037 778.919,160 781.027,160 783.135,160 785.243,160 787.351,160 789.459,160 791.568,160 793.676,160 795.784,160 797.892,160 800,160" fill="none" stroke="var(--accent)" stroke-width="1.5" stroke-linecap="round" stroke-linejoin="round"/>
</svg>

