<svg xmlns="http://www.w3.org/2000/svg" width="820" height="180" viewBox="0 0 820 180">

<style>
  :root {
    --bg:        #f6f8fa;
    --card:      #ffffff;
    --border:    #d0d7de;
    --primary:   #1f2328;
    --secondary: #636c76;
    --muted:     #8c959f;
    --accent:    #0969da;
    --green:     #1a7f37;
    --yellow:    #9a6700;
    --red:       #cf222e;
    --hover:     #f3f4f6;
    --spark-bg:  #f0f3f6;
    --spark:     #0969da;
    --pill:      #eaf1fb;
    --pill-txt:  #0969da;
    --div:       #d0d7de;
  }
  @media (prefers-color-scheme: dark) {
    :root {
      --bg:        #0d1117;
      --card:      #161b22;
      --border:    #30363d;
      --primary:   #e6edf3;
      --secondary: #848d97;
      --muted:     #7d8590;
      --accent:    #2f81f7;
      --green:     #3fb950;
      --yellow:    #d29922;
      --red:       #f85149;
      --hover:     #21262d;
      --spark-bg:  #1c2128;
      --spark:     #58a6ff;
      --pill:      #1c2d3f;
      --pill-txt:  #58a6ff;
      --div:       #30363d;
    }
  }
  
  .bg          { fill: var(--bg); }
  .card        { fill: var(--card); stroke: var(--border); stroke-width: 1; }
  .lang-pill   { fill: var(--pill); }
  .spark-bg    { fill: var(--spark-bg); }
  .spark-line  { stroke: var(--spark); }
  .divider     { stroke: var(--div); stroke-width: 1; }
  .clr-primary   { fill: var(--primary); }
  .clr-secondary { fill: var(--secondary); }
  .clr-muted     { fill: var(--muted); }
  .clr-accent    { fill: var(--accent); }
  .clr-green     { fill: var(--green); }
  .clr-yellow    { fill: var(--yellow); }
  .clr-red       { fill: var(--red); }
  .txt-bold    { font-weight: 600; }
  svg text     { font-family: -apple-system, BlinkMacSystemFont, "Segoe UI", Helvetica, Arial, sans-serif; }
</style>

<rect x="0" y="0" width="820" height="180" rx="8" class="card"/>
  <text x="20" y="24" class="clr-primary txt-bold" text-anchor="start" font-size="14">Contribution History &amp; Activity</text>
  <line x1="20" y1="36" x2="800" y2="36" class="divider"/>
  <text x="20" y="60" class="clr-muted" text-anchor="start" font-size="12">Years Active:</text>
  <text x="100" y="60" class="clr-primary txt-bold" text-anchor="start" font-size="12">5.8</text>
  <text x="160" y="60" class="clr-muted" text-anchor="start" font-size="12">Commits (Last Year):</text>
  <text x="290" y="60" class="clr-primary txt-bold" text-anchor="start" font-size="12">1229</text>
  <text x="360" y="60" class="clr-muted" text-anchor="start" font-size="12">Highest Daily:</text>
  <text x="450" y="60" class="clr-primary txt-bold" text-anchor="start" font-size="12">163</text>
  <polygon points="20,160 20,160 22.1311,160 24.2623,159.018 26.3934,160 28.5246,160 30.6557,160 32.7869,145.276 34.918,155.583 37.0492,157.546 39.1803,155.583 41.3115,157.055 43.4426,156.074 45.5738,160 47.7049,160 49.8361,160 51.9672,158.037 54.0984,159.018 56.2295,158.037 58.3607,156.564 60.4918,160 62.623,158.528 64.7541,156.564 66.8852,160 69.0164,154.11 71.1475,149.202 73.2787,149.202 75.4098,153.62 77.541,141.84 79.6721,154.601 81.8033,160 83.9344,154.601 86.0656,160 88.1967,160 90.3279,157.546 92.459,148.221 94.5902,159.018 96.7213,160 98.8525,158.037 100.984,160 103.115,159.509 105.246,160 107.377,160 109.508,160 111.639,160 113.77,151.656 115.902,155.583 118.033,156.074 120.164,157.546 122.295,150.675 124.426,160 126.557,158.037 128.689,156.564 130.82,158.037 132.951,156.074 135.082,160 137.213,154.11 139.344,160 141.475,159.509 143.607,160 145.738,160 147.869,157.546 150,160 152.131,160 154.262,160 156.393,160 158.525,160 160.656,160 162.787,160 164.918,160 167.049,160 169.18,160 171.311,160 173.443,160 175.574,160 177.705,160 179.836,160 181.967,160 184.098,154.601 186.23,158.037 188.361,160 190.492,160 192.623,160 194.754,160 196.885,160 199.016,160 201.148,160 203.279,160 205.41,160 207.541,160 209.672,160 211.803,160 213.934,160 216.066,160 218.197,160 220.328,160 222.459,160 224.59,160 226.721,160 228.852,160 230.984,160 233.115,157.055 235.246,160 237.377,160 239.508,160 241.639,160 243.77,155.092 245.902,160 248.033,160 250.164,160 252.295,160 254.426,137.423 256.557,153.62 258.689,80 260.82,155.092 262.951,149.202 265.082,155.092 267.213,158.037 269.344,158.528 271.475,159.509 273.607,156.074 275.738,160 277.869,159.018 280,160 282.131,159.509 284.262,159.018 286.393,159.509 288.525,160 290.656,158.528 292.787,160 294.918,159.018 297.049,159.018 299.18,157.546 301.311,157.055 303.443,160 305.574,160 307.705,159.509 309.836,159.509 311.967,158.528 314.098,159.509 316.23,157.055 318.361,157.055 320.492,159.018 322.623,158.528 324.754,147.239 326.885,157.055 329.016,129.08 331.148,147.239 333.279,153.129 335.41,160 337.541,160 339.672,160 341.803,151.656 343.934,158.528 346.066,160 348.197,160 350.328,138.405 352.459,158.528 354.59,160 356.721,160 358.852,160 360.984,160 363.115,160 365.246,160 367.377,160 369.508,160 371.639,160 373.77,160 375.902,160 378.033,160 380.164,160 382.295,160 384.426,160 386.557,159.509 388.689,160 390.82,160 392.951,160 395.082,160 397.213,160 399.344,160 401.475,160 403.607,160 405.738,160 407.869,159.509 410,158.037 412.131,160 414.262,160 416.393,160 418.525,160 420.656,160 422.787,160 424.918,160 427.049,160 429.18,160 431.311,160 433.443,160 435.574,159.509 437.705,158.037 439.836,157.055 441.967,160 444.098,160 446.23,160 448.361,156.564 450.492,157.546 452.623,147.239 454.754,160 456.885,160 459.016,160 461.148,155.092 463.279,148.221 465.41,160 467.541,160 469.672,158.037 471.803,160 473.934,158.037 476.066,160 478.197,160 480.328,160 482.459,160 484.59,160 486.721,160 488.852,159.018 490.984,144.294 493.115,159.018 495.246,160 497.377,139.387 499.508,121.718 501.639,120.736 503.77,147.73 505.902,146.258 508.033,157.055 510.164,160 512.295,160 514.426,160 516.557,160 518.689,160 520.82,160 522.951,160 525.082,160 527.213,157.546 529.344,153.62 531.475,148.712 533.607,160 535.738,149.202 537.869,149.693 540,134.969 542.131,146.258 544.262,145.767 546.393,146.258 548.525,150.184 550.656,154.11 552.787,154.601 554.918,154.11 557.049,157.055 559.18,156.564 561.311,159.509 563.443,160 565.574,160 567.705,160 569.836,160 571.967,160 574.098,160 576.23,160 578.361,160 580.492,158.528 582.623,159.509 584.754,160 586.885,160 589.016,159.509 591.148,142.331 593.279,144.785 595.41,157.055 597.541,158.528 599.672,160 601.803,160 603.934,159.509 606.066,160 608.197,160 610.328,159.018 612.459,153.62 614.59,159.018 616.721,160 618.852,160 620.984,149.693 623.115,155.583 625.246,158.528 627.377,156.074 629.508,155.583 631.639,159.509 633.77,159.509 635.902,160 638.033,160 640.164,151.656 642.295,140.859 644.426,155.092 646.557,160 648.689,141.84 650.82,150.184 652.951,152.147 655.082,160 657.213,160 659.344,160 661.475,160 663.607,160 665.738,160 667.869,160 670,160 672.131,160 674.262,160 676.393,160 678.525,160 680.656,158.037 682.787,160 684.918,160 687.049,160 689.18,160 691.311,160 693.443,160 695.574,160 697.705,160 699.836,160 701.967,160 704.098,160 706.23,160 708.361,160 710.492,160 712.623,156.564 714.754,154.601 716.885,160 719.016,160 721.148,160 723.279,160 725.41,159.509 727.541,160 729.672,160 731.803,159.509 733.934,159.509 736.066,160 738.197,159.509 740.328,160 742.459,160 744.59,156.074 746.721,159.509 748.852,159.509 750.984,160 753.115,158.037 755.246,160 757.377,160 759.508,160 761.639,160 763.77,160 765.902,160 768.033,160 770.164,150.184 772.295,158.528 774.426,159.509 776.557,159.018 778.689,160 780.82,160 782.951,160 785.082,160 787.213,160 789.344,160 791.475,160 793.607,160 795.738,160 797.869,160 800,160 800,160" fill="var(--pill)" opacity="0.6"/>
  <polyline points="20,160 22.1311,160 24.2623,159.018 26.3934,160 28.5246,160 30.6557,160 32.7869,145.276 34.918,155.583 37.0492,157.546 39.1803,155.583 41.3115,157.055 43.4426,156.074 45.5738,160 47.7049,160 49.8361,160 51.9672,158.037 54.0984,159.018 56.2295,158.037 58.3607,156.564 60.4918,160 62.623,158.528 64.7541,156.564 66.8852,160 69.0164,154.11 71.1475,149.202 73.2787,149.202 75.4098,153.62 77.541,141.84 79.6721,154.601 81.8033,160 83.9344,154.601 86.0656,160 88.1967,160 90.3279,157.546 92.459,148.221 94.5902,159.018 96.7213,160 98.8525,158.037 100.984,160 103.115,159.509 105.246,160 107.377,160 109.508,160 111.639,160 113.77,151.656 115.902,155.583 118.033,156.074 120.164,157.546 122.295,150.675 124.426,160 126.557,158.037 128.689,156.564 130.82,158.037 132.951,156.074 135.082,160 137.213,154.11 139.344,160 141.475,159.509 143.607,160 145.738,160 147.869,157.546 150,160 152.131,160 154.262,160 156.393,160 158.525,160 160.656,160 162.787,160 164.918,160 167.049,160 169.18,160 171.311,160 173.443,160 175.574,160 177.705,160 179.836,160 181.967,160 184.098,154.601 186.23,158.037 188.361,160 190.492,160 192.623,160 194.754,160 196.885,160 199.016,160 201.148,160 203.279,160 205.41,160 207.541,160 209.672,160 211.803,160 213.934,160 216.066,160 218.197,160 220.328,160 222.459,160 224.59,160 226.721,160 228.852,160 230.984,160 233.115,157.055 235.246,160 237.377,160 239.508,160 241.639,160 243.77,155.092 245.902,160 248.033,160 250.164,160 252.295,160 254.426,137.423 256.557,153.62 258.689,80 260.82,155.092 262.951,149.202 265.082,155.092 267.213,158.037 269.344,158.528 271.475,159.509 273.607,156.074 275.738,160 277.869,159.018 280,160 282.131,159.509 284.262,159.018 286.393,159.509 288.525,160 290.656,158.528 292.787,160 294.918,159.018 297.049,159.018 299.18,157.546 301.311,157.055 303.443,160 305.574,160 307.705,159.509 309.836,159.509 311.967,158.528 314.098,159.509 316.23,157.055 318.361,157.055 320.492,159.018 322.623,158.528 324.754,147.239 326.885,157.055 329.016,129.08 331.148,147.239 333.279,153.129 335.41,160 337.541,160 339.672,160 341.803,151.656 343.934,158.528 346.066,160 348.197,160 350.328,138.405 352.459,158.528 354.59,160 356.721,160 358.852,160 360.984,160 363.115,160 365.246,160 367.377,160 369.508,160 371.639,160 373.77,160 375.902,160 378.033,160 380.164,160 382.295,160 384.426,160 386.557,159.509 388.689,160 390.82,160 392.951,160 395.082,160 397.213,160 399.344,160 401.475,160 403.607,160 405.738,160 407.869,159.509 410,158.037 412.131,160 414.262,160 416.393,160 418.525,160 420.656,160 422.787,160 424.918,160 427.049,160 429.18,160 431.311,160 433.443,160 435.574,159.509 437.705,158.037 439.836,157.055 441.967,160 444.098,160 446.23,160 448.361,156.564 450.492,157.546 452.623,147.239 454.754,160 456.885,160 459.016,160 461.148,155.092 463.279,148.221 465.41,160 467.541,160 469.672,158.037 471.803,160 473.934,158.037 476.066,160 478.197,160 480.328,160 482.459,160 484.59,160 486.721,160 488.852,159.018 490.984,144.294 493.115,159.018 495.246,160 497.377,139.387 499.508,121.718 501.639,120.736 503.77,147.73 505.902,146.258 508.033,157.055 510.164,160 512.295,160 514.426,160 516.557,160 518.689,160 520.82,160 522.951,160 525.082,160 527.213,157.546 529.344,153.62 531.475,148.712 533.607,160 535.738,149.202 537.869,149.693 540,134.969 542.131,146.258 544.262,145.767 546.393,146.258 548.525,150.184 550.656,154.11 552.787,154.601 554.918,154.11 557.049,157.055 559.18,156.564 561.311,159.509 563.443,160 565.574,160 567.705,160 569.836,160 571.967,160 574.098,160 576.23,160 578.361,160 580.492,158.528 582.623,159.509 584.754,160 586.885,160 589.016,159.509 591.148,142.331 593.279,144.785 595.41,157.055 597.541,158.528 599.672,160 601.803,160 603.934,159.509 606.066,160 608.197,160 610.328,159.018 612.459,153.62 614.59,159.018 616.721,160 618.852,160 620.984,149.693 623.115,155.583 625.246,158.528 627.377,156.074 629.508,155.583 631.639,159.509 633.77,159.509 635.902,160 638.033,160 640.164,151.656 642.295,140.859 644.426,155.092 646.557,160 648.689,141.84 650.82,150.184 652.951,152.147 655.082,160 657.213,160 659.344,160 661.475,160 663.607,160 665.738,160 667.869,160 670,160 672.131,160 674.262,160 676.393,160 678.525,160 680.656,158.037 682.787,160 684.918,160 687.049,160 689.18,160 691.311,160 693.443,160 695.574,160 697.705,160 699.836,160 701.967,160 704.098,160 706.23,160 708.361,160 710.492,160 712.623,156.564 714.754,154.601 716.885,160 719.016,160 721.148,160 723.279,160 725.41,159.509 727.541,160 729.672,160 731.803,159.509 733.934,159.509 736.066,160 738.197,159.509 740.328,160 742.459,160 744.59,156.074 746.721,159.509 748.852,159.509 750.984,160 753.115,158.037 755.246,160 757.377,160 759.508,160 761.639,160 763.77,160 765.902,160 768.033,160 770.164,150.184 772.295,158.528 774.426,159.509 776.557,159.018 778.689,160 780.82,160 782.951,160 785.082,160 787.213,160 789.344,160 791.475,160 793.607,160 795.738,160 797.869,160 800,160" fill="none" stroke="var(--accent)" stroke-width="1.5" stroke-linecap="round" stroke-linejoin="round"/>
</svg>

