<svg xmlns="http://www.w3.org/2000/svg" width="820" height="180" viewBox="0 0 820 180">

<style>
  :root {
    --bg:        #f6f8fa;
    --card:      #ffffff;
    --border:    #d0d7de;
    --primary:   #1f2328;
    --secondary: #636c76;
    --muted:     #8c959f;
    --accent:    #0969da;
    --green:     #1a7f37;
    --yellow:    #9a6700;
    --red:       #cf222e;
    --hover:     #f3f4f6;
    --spark-bg:  #f0f3f6;
    --spark:     #0969da;
    --pill:      #eaf1fb;
    --pill-txt:  #0969da;
    --div:       #d0d7de;
  }
  @media (prefers-color-scheme: dark) {
    :root {
      --bg:        #0d1117;
      --card:      #161b22;
      --border:    #30363d;
      --primary:   #e6edf3;
      --secondary: #848d97;
      --muted:     #7d8590;
      --accent:    #2f81f7;
      --green:     #3fb950;
      --yellow:    #d29922;
      --red:       #f85149;
      --hover:     #21262d;
      --spark-bg:  #1c2128;
      --spark:     #58a6ff;
      --pill:      #1c2d3f;
      --pill-txt:  #58a6ff;
      --div:       #30363d;
    }
  }
  
  .bg          { fill: var(--bg); }
  .card        { fill: var(--card); stroke: var(--border); stroke-width: 1; }
  .lang-pill   { fill: var(--pill); }
  .spark-bg    { fill: var(--spark-bg); }
  .spark-line  { stroke: var(--spark); }
  .divider     { stroke: var(--div); stroke-width: 1; }
  .clr-primary   { fill: var(--primary); }
  .clr-secondary { fill: var(--secondary); }
  .clr-muted     { fill: var(--muted); }
  .clr-accent    { fill: var(--accent); }
  .clr-green     { fill: var(--green); }
  .clr-yellow    { fill: var(--yellow); }
  .clr-red       { fill: var(--red); }
  .txt-bold    { font-weight: 600; }
  svg text     { font-family: -apple-system, BlinkMacSystemFont, "Segoe UI", Helvetica, Arial, sans-serif; }
</style>

<rect x="0" y="0" width="820" height="180" rx="8" class="card"/>
  <text x="20" y="24" class="clr-primary txt-bold" text-anchor="start" font-size="14">Contribution History &amp; Activity</text>
  <line x1="20" y1="36" x2="800" y2="36" class="divider"/>
  <text x="20" y="60" class="clr-muted" text-anchor="start" font-size="12">Years Active:</text>
  <text x="100" y="60" class="clr-primary txt-bold" text-anchor="start" font-size="12">5.8</text>
  <text x="160" y="60" class="clr-muted" text-anchor="start" font-size="12">Commits (Last Year):</text>
  <text x="290" y="60" class="clr-primary txt-bold" text-anchor="start" font-size="12">1229</text>
  <text x="360" y="60" class="clr-muted" text-anchor="start" font-size="12">Highest Daily:</text>
  <text x="450" y="60" class="clr-primary txt-bold" text-anchor="start" font-size="12">163</text>
  <polygon points="20,160 20,160 22.137,160 24.274,160 26.411,160 28.5479,160 30.6849,160 32.8219,160 34.9589,160 37.0959,160 39.2329,159.018 41.3699,160 43.5068,160 45.6438,160 47.7808,145.276 49.9178,155.583 52.0548,157.546 54.1918,155.583 56.3288,157.055 58.4658,156.074 60.6027,160 62.7397,160 64.8767,160 67.0137,158.037 69.1507,159.018 71.2877,158.037 73.4247,156.564 75.5616,160 77.6986,158.528 79.8356,156.564 81.9726,160 84.1096,154.11 86.2466,149.202 88.3836,149.202 90.5205,153.62 92.6575,141.84 94.7945,154.601 96.9315,160 99.0685,154.601 101.205,160 103.342,160 105.479,157.546 107.616,148.221 109.753,159.018 111.89,160 114.027,158.037 116.164,160 118.301,159.509 120.438,160 122.575,160 124.712,160 126.849,160 128.986,151.656 131.123,155.583 133.26,156.074 135.397,157.546 137.534,150.675 139.671,160 141.808,158.037 143.945,156.564 146.082,158.037 148.219,156.074 150.356,160 152.493,154.11 154.63,160 156.767,159.509 158.904,160 161.041,160 163.178,157.546 165.315,160 167.452,160 169.589,160 171.726,160 173.863,160 176,160 178.137,160 180.274,160 182.411,160 184.548,160 186.685,160 188.822,160 190.959,160 193.096,160 195.233,160 197.37,160 199.507,154.601 201.644,158.037 203.781,160 205.918,160 208.055,160 210.192,160 212.329,160 214.466,160 216.603,160 218.74,160 220.877,160 223.014,160 225.151,160 227.288,160 229.425,160 231.562,160 233.699,160 235.836,160 237.973,160 240.11,160 242.247,160 244.384,160 246.521,160 248.658,157.055 250.795,160 252.932,160 255.068,160 257.205,160 259.342,155.092 261.479,160 263.616,160 265.753,160 267.89,160 270.027,137.423 272.164,153.62 274.301,80 276.438,155.092 278.575,149.202 280.712,155.092 282.849,158.037 284.986,158.528 287.123,159.509 289.26,156.074 291.397,160 293.534,159.018 295.671,160 297.808,159.509 299.945,159.018 302.082,159.509 304.219,160 306.356,158.528 308.493,160 310.63,159.018 312.767,159.018 314.904,157.546 317.041,157.055 319.178,160 321.315,160 323.452,159.509 325.589,159.509 327.726,158.528 329.863,159.509 332,157.055 334.137,157.055 336.274,159.018 338.411,158.528 340.548,147.239 342.685,157.055 344.822,129.08 346.959,147.239 349.096,153.129 351.233,160 353.37,160 355.507,160 357.644,151.656 359.781,158.528 361.918,160 364.055,160 366.192,138.405 368.329,158.528 370.466,160 372.603,160 374.74,160 376.877,160 379.014,160 381.151,160 383.288,160 385.425,160 387.562,160 389.699,160 391.836,160 393.973,160 396.11,160 398.247,160 400.384,160 402.521,159.509 404.658,160 406.795,160 408.932,160 411.068,160 413.205,160 415.342,160 417.479,160 419.616,160 421.753,160 423.89,159.509 426.027,158.037 428.164,160 430.301,160 432.438,160 434.575,160 436.712,160 438.849,160 440.986,160 443.123,160 445.26,160 447.397,160 449.534,160 451.671,159.509 453.808,158.037 455.945,157.055 458.082,160 460.219,160 462.356,160 464.493,156.564 466.63,157.546 468.767,147.239 470.904,160 473.041,160 475.178,160 477.315,155.092 479.452,148.221 481.589,160 483.726,160 485.863,158.037 488,160 490.137,158.037 492.274,160 494.411,160 496.548,160 498.685,160 500.822,160 502.959,160 505.096,159.018 507.233,144.294 509.37,159.018 511.507,160 513.644,139.387 515.781,121.718 517.918,120.736 520.055,147.73 522.192,146.258 524.329,157.055 526.466,160 528.603,160 530.74,160 532.877,160 535.014,160 537.151,160 539.288,160 541.425,160 543.562,157.546 545.699,153.62 547.836,148.712 549.973,160 552.11,149.202 554.247,149.693 556.384,134.969 558.521,146.258 560.658,145.767 562.795,146.258 564.932,150.184 567.068,154.11 569.205,154.601 571.342,154.11 573.479,157.055 575.616,156.564 577.753,159.509 579.89,160 582.027,160 584.164,160 586.301,160 588.438,160 590.575,160 592.712,160 594.849,160 596.986,158.528 599.123,159.509 601.26,160 603.397,160 605.534,159.509 607.671,142.331 609.808,144.785 611.945,157.055 614.082,158.528 616.219,160 618.356,160 620.493,159.509 622.63,160 624.767,160 626.904,159.018 629.041,153.62 631.178,159.018 633.315,160 635.452,160 637.589,149.693 639.726,155.583 641.863,158.528 644,156.074 646.137,155.583 648.274,159.509 650.411,159.509 652.548,160 654.685,160 656.822,151.656 658.959,140.859 661.096,155.092 663.233,160 665.37,141.84 667.507,150.184 669.644,152.147 671.781,160 673.918,160 676.055,160 678.192,160 680.329,160 682.466,160 684.603,160 686.74,160 688.877,160 691.014,160 693.151,160 695.288,160 697.425,158.037 699.562,160 701.699,160 703.836,160 705.973,160 708.11,160 710.247,160 712.384,160 714.521,160 716.658,160 718.795,160 720.932,160 723.068,160 725.205,160 727.342,160 729.479,156.564 731.616,154.601 733.753,160 735.89,160 738.027,160 740.164,160 742.301,159.509 744.438,160 746.575,160 748.712,159.509 750.849,159.509 752.986,160 755.123,159.509 757.26,160 759.397,160 761.534,156.074 763.671,159.509 765.808,159.509 767.945,160 770.082,158.037 772.219,160 774.356,160 776.493,160 778.63,160 780.767,160 782.904,160 785.041,160 787.178,150.184 789.315,158.528 791.452,159.509 793.589,159.018 795.726,160 797.863,160 800,160 800,160" fill="var(--pill)" opacity="0.6"/>
  <polyline points="20,160 22.137,160 24.274,160 26.411,160 28.5479,160 30.6849,160 32.8219,160 34.9589,160 37.0959,160 39.2329,159.018 41.3699,160 43.5068,160 45.6438,160 47.7808,145.276 49.9178,155.583 52.0548,157.546 54.1918,155.583 56.3288,157.055 58.4658,156.074 60.6027,160 62.7397,160 64.8767,160 67.0137,158.037 69.1507,159.018 71.2877,158.037 73.4247,156.564 75.5616,160 77.6986,158.528 79.8356,156.564 81.9726,160 84.1096,154.11 86.2466,149.202 88.3836,149.202 90.5205,153.62 92.6575,141.84 94.7945,154.601 96.9315,160 99.0685,154.601 101.205,160 103.342,160 105.479,157.546 107.616,148.221 109.753,159.018 111.89,160 114.027,158.037 116.164,160 118.301,159.509 120.438,160 122.575,160 124.712,160 126.849,160 128.986,151.656 131.123,155.583 133.26,156.074 135.397,157.546 137.534,150.675 139.671,160 141.808,158.037 143.945,156.564 146.082,158.037 148.219,156.074 150.356,160 152.493,154.11 154.63,160 156.767,159.509 158.904,160 161.041,160 163.178,157.546 165.315,160 167.452,160 169.589,160 171.726,160 173.863,160 176,160 178.137,160 180.274,160 182.411,160 184.548,160 186.685,160 188.822,160 190.959,160 193.096,160 195.233,160 197.37,160 199.507,154.601 201.644,158.037 203.781,160 205.918,160 208.055,160 210.192,160 212.329,160 214.466,160 216.603,160 218.74,160 220.877,160 223.014,160 225.151,160 227.288,160 229.425,160 231.562,160 233.699,160 235.836,160 237.973,160 240.11,160 242.247,160 244.384,160 246.521,160 248.658,157.055 250.795,160 252.932,160 255.068,160 257.205,160 259.342,155.092 261.479,160 263.616,160 265.753,160 267.89,160 270.027,137.423 272.164,153.62 274.301,80 276.438,155.092 278.575,149.202 280.712,155.092 282.849,158.037 284.986,158.528 287.123,159.509 289.26,156.074 291.397,160 293.534,159.018 295.671,160 297.808,159.509 299.945,159.018 302.082,159.509 304.219,160 306.356,158.528 308.493,160 310.63,159.018 312.767,159.018 314.904,157.546 317.041,157.055 319.178,160 321.315,160 323.452,159.509 325.589,159.509 327.726,158.528 329.863,159.509 332,157.055 334.137,157.055 336.274,159.018 338.411,158.528 340.548,147.239 342.685,157.055 344.822,129.08 346.959,147.239 349.096,153.129 351.233,160 353.37,160 355.507,160 357.644,151.656 359.781,158.528 361.918,160 364.055,160 366.192,138.405 368.329,158.528 370.466,160 372.603,160 374.74,160 376.877,160 379.014,160 381.151,160 383.288,160 385.425,160 387.562,160 389.699,160 391.836,160 393.973,160 396.11,160 398.247,160 400.384,160 402.521,159.509 404.658,160 406.795,160 408.932,160 411.068,160 413.205,160 415.342,160 417.479,160 419.616,160 421.753,160 423.89,159.509 426.027,158.037 428.164,160 430.301,160 432.438,160 434.575,160 436.712,160 438.849,160 440.986,160 443.123,160 445.26,160 447.397,160 449.534,160 451.671,159.509 453.808,158.037 455.945,157.055 458.082,160 460.219,160 462.356,160 464.493,156.564 466.63,157.546 468.767,147.239 470.904,160 473.041,160 475.178,160 477.315,155.092 479.452,148.221 481.589,160 483.726,160 485.863,158.037 488,160 490.137,158.037 492.274,160 494.411,160 496.548,160 498.685,160 500.822,160 502.959,160 505.096,159.018 507.233,144.294 509.37,159.018 511.507,160 513.644,139.387 515.781,121.718 517.918,120.736 520.055,147.73 522.192,146.258 524.329,157.055 526.466,160 528.603,160 530.74,160 532.877,160 535.014,160 537.151,160 539.288,160 541.425,160 543.562,157.546 545.699,153.62 547.836,148.712 549.973,160 552.11,149.202 554.247,149.693 556.384,134.969 558.521,146.258 560.658,145.767 562.795,146.258 564.932,150.184 567.068,154.11 569.205,154.601 571.342,154.11 573.479,157.055 575.616,156.564 577.753,159.509 579.89,160 582.027,160 584.164,160 586.301,160 588.438,160 590.575,160 592.712,160 594.849,160 596.986,158.528 599.123,159.509 601.26,160 603.397,160 605.534,159.509 607.671,142.331 609.808,144.785 611.945,157.055 614.082,158.528 616.219,160 618.356,160 620.493,159.509 622.63,160 624.767,160 626.904,159.018 629.041,153.62 631.178,159.018 633.315,160 635.452,160 637.589,149.693 639.726,155.583 641.863,158.528 644,156.074 646.137,155.583 648.274,159.509 650.411,159.509 652.548,160 654.685,160 656.822,151.656 658.959,140.859 661.096,155.092 663.233,160 665.37,141.84 667.507,150.184 669.644,152.147 671.781,160 673.918,160 676.055,160 678.192,160 680.329,160 682.466,160 684.603,160 686.74,160 688.877,160 691.014,160 693.151,160 695.288,160 697.425,158.037 699.562,160 701.699,160 703.836,160 705.973,160 708.11,160 710.247,160 712.384,160 714.521,160 716.658,160 718.795,160 720.932,160 723.068,160 725.205,160 727.342,160 729.479,156.564 731.616,154.601 733.753,160 735.89,160 738.027,160 740.164,160 742.301,159.509 744.438,160 746.575,160 748.712,159.509 750.849,159.509 752.986,160 755.123,159.509 757.26,160 759.397,160 761.534,156.074 763.671,159.509 765.808,159.509 767.945,160 770.082,158.037 772.219,160 774.356,160 776.493,160 778.63,160 780.767,160 782.904,160 785.041,160 787.178,150.184 789.315,158.528 791.452,159.509 793.589,159.018 795.726,160 797.863,160 800,160" fill="none" stroke="var(--accent)" stroke-width="1.5" stroke-linecap="round" stroke-linejoin="round"/>
</svg>

