<svg xmlns="http://www.w3.org/2000/svg" width="820" height="180" viewBox="0 0 820 180">

<style>
  :root {
    --bg:        #f6f8fa;
    --card:      #ffffff;
    --border:    #d0d7de;
    --primary:   #1f2328;
    --secondary: #636c76;
    --muted:     #8c959f;
    --accent:    #0969da;
    --green:     #1a7f37;
    --yellow:    #9a6700;
    --red:       #cf222e;
    --hover:     #f3f4f6;
    --spark-bg:  #f0f3f6;
    --spark:     #0969da;
    --pill:      #eaf1fb;
    --pill-txt:  #0969da;
    --div:       #d0d7de;
  }
  @media (prefers-color-scheme: dark) {
    :root {
      --bg:        #0d1117;
      --card:      #161b22;
      --border:    #30363d;
      --primary:   #e6edf3;
      --secondary: #848d97;
      --muted:     #7d8590;
      --accent:    #2f81f7;
      --green:     #3fb950;
      --yellow:    #d29922;
      --red:       #f85149;
      --hover:     #21262d;
      --spark-bg:  #1c2128;
      --spark:     #58a6ff;
      --pill:      #1c2d3f;
      --pill-txt:  #58a6ff;
      --div:       #30363d;
    }
  }
  
  .bg          { fill: var(--bg); }
  .card        { fill: var(--card); stroke: var(--border); stroke-width: 1; }
  .lang-pill   { fill: var(--pill); }
  .spark-bg    { fill: var(--spark-bg); }
  .spark-line  { stroke: var(--spark); }
  .divider     { stroke: var(--div); stroke-width: 1; }
  .clr-primary   { fill: var(--primary); }
  .clr-secondary { fill: var(--secondary); }
  .clr-muted     { fill: var(--muted); }
  .clr-accent    { fill: var(--accent); }
  .clr-green     { fill: var(--green); }
  .clr-yellow    { fill: var(--yellow); }
  .clr-red       { fill: var(--red); }
  .txt-bold    { font-weight: 600; }
  svg text     { font-family: -apple-system, BlinkMacSystemFont, "Segoe UI", Helvetica, Arial, sans-serif; }
</style>

<rect x="0" y="0" width="820" height="180" rx="8" class="card"/>
  <text x="20" y="24" class="clr-primary txt-bold" text-anchor="start" font-size="14">Contribution History &amp; Activity</text>
  <line x1="20" y1="36" x2="800" y2="36" class="divider"/>
  <text x="20" y="60" class="clr-muted" text-anchor="start" font-size="12">Years Active:</text>
  <text x="100" y="60" class="clr-primary txt-bold" text-anchor="start" font-size="12">5.7</text>
  <text x="160" y="60" class="clr-muted" text-anchor="start" font-size="12">Commits (Last Year):</text>
  <text x="290" y="60" class="clr-primary txt-bold" text-anchor="start" font-size="12">1204</text>
  <text x="360" y="60" class="clr-muted" text-anchor="start" font-size="12">Highest Daily:</text>
  <text x="450" y="60" class="clr-primary txt-bold" text-anchor="start" font-size="12">163</text>
  <polygon points="20,160 20,160 22.1311,160 24.2623,160 26.3934,160 28.5246,160 30.6557,160 32.7869,160 34.918,160 37.0492,160 39.1803,160 41.3115,160 43.4426,160 45.5738,160 47.7049,160 49.8361,160 51.9672,160 54.0984,159.018 56.2295,160 58.3607,160 60.4918,160 62.623,145.276 64.7541,155.583 66.8852,157.546 69.0164,155.583 71.1475,157.055 73.2787,156.074 75.4098,160 77.541,160 79.6721,160 81.8033,158.037 83.9344,159.018 86.0656,158.037 88.1967,156.564 90.3279,160 92.459,158.528 94.5902,156.564 96.7213,160 98.8525,154.11 100.984,149.202 103.115,149.202 105.246,153.62 107.377,141.84 109.508,154.601 111.639,160 113.77,154.601 115.902,160 118.033,160 120.164,157.546 122.295,148.221 124.426,159.018 126.557,160 128.689,158.037 130.82,160 132.951,159.509 135.082,160 137.213,160 139.344,160 141.475,160 143.607,151.656 145.738,155.583 147.869,156.074 150,157.546 152.131,150.675 154.262,160 156.393,158.037 158.525,156.564 160.656,158.037 162.787,156.074 164.918,160 167.049,154.11 169.18,160 171.311,159.509 173.443,160 175.574,160 177.705,157.546 179.836,160 181.967,160 184.098,160 186.23,160 188.361,160 190.492,160 192.623,160 194.754,160 196.885,160 199.016,160 201.148,160 203.279,160 205.41,160 207.541,160 209.672,160 211.803,160 213.934,154.601 216.066,158.037 218.197,160 220.328,160 222.459,160 224.59,160 226.721,160 228.852,160 230.984,160 233.115,160 235.246,160 237.377,160 239.508,160 241.639,160 243.77,160 245.902,160 248.033,160 250.164,160 252.295,160 254.426,160 256.557,160 258.689,160 260.82,160 262.951,157.055 265.082,160 267.213,160 269.344,160 271.475,160 273.607,155.092 275.738,160 277.869,160 280,160 282.131,160 284.262,137.423 286.393,153.62 288.525,80 290.656,155.092 292.787,149.202 294.918,155.092 297.049,158.037 299.18,158.528 301.311,159.509 303.443,156.074 305.574,160 307.705,159.018 309.836,160 311.967,159.509 314.098,159.018 316.23,159.509 318.361,160 320.492,158.528 322.623,160 324.754,159.018 326.885,159.018 329.016,157.546 331.148,157.055 333.279,160 335.41,160 337.541,159.509 339.672,159.509 341.803,158.528 343.934,159.509 346.066,157.055 348.197,157.055 350.328,159.018 352.459,158.528 354.59,147.239 356.721,157.055 358.852,129.08 360.984,147.239 363.115,153.129 365.246,160 367.377,160 369.508,160 371.639,151.656 373.77,158.528 375.902,160 378.033,160 380.164,138.405 382.295,158.528 384.426,160 386.557,160 388.689,160 390.82,160 392.951,160 395.082,160 397.213,160 399.344,160 401.475,160 403.607,160 405.738,160 407.869,160 410,160 412.131,160 414.262,160 416.393,159.509 418.525,160 420.656,160 422.787,160 424.918,160 427.049,160 429.18,160 431.311,160 433.443,160 435.574,160 437.705,159.509 439.836,158.037 441.967,160 444.098,160 446.23,160 448.361,160 450.492,160 452.623,160 454.754,160 456.885,160 459.016,160 461.148,160 463.279,160 465.41,159.509 467.541,158.037 469.672,157.055 471.803,160 473.934,160 476.066,160 478.197,156.564 480.328,157.546 482.459,147.239 484.59,160 486.721,160 488.852,160 490.984,155.092 493.115,148.221 495.246,160 497.377,160 499.508,158.037 501.639,160 503.77,158.037 505.902,160 508.033,160 510.164,160 512.295,160 514.426,160 516.557,160 518.689,159.018 520.82,144.294 522.951,159.018 525.082,160 527.213,139.387 529.344,121.718 531.475,120.736 533.607,147.73 535.738,146.258 537.869,157.055 540,160 542.131,160 544.262,160 546.393,160 548.525,160 550.656,160 552.787,160 554.918,160 557.049,157.546 559.18,153.62 561.311,148.712 563.443,160 565.574,149.202 567.705,149.693 569.836,134.969 571.967,146.258 574.098,145.767 576.23,146.258 578.361,150.184 580.492,154.11 582.623,154.601 584.754,154.11 586.885,157.055 589.016,156.564 591.148,159.509 593.279,160 595.41,160 597.541,160 599.672,160 601.803,160 603.934,160 606.066,160 608.197,160 610.328,158.528 612.459,159.509 614.59,160 616.721,160 618.852,159.509 620.984,142.331 623.115,144.785 625.246,157.055 627.377,158.528 629.508,160 631.639,160 633.77,159.509 635.902,160 638.033,160 640.164,159.018 642.295,153.62 644.426,159.018 646.557,160 648.689,160 650.82,149.693 652.951,155.583 655.082,158.528 657.213,156.074 659.344,155.583 661.475,159.509 663.607,159.509 665.738,160 667.869,160 670,151.656 672.131,140.859 674.262,155.092 676.393,160 678.525,141.84 680.656,150.184 682.787,152.147 684.918,160 687.049,160 689.18,160 691.311,160 693.443,160 695.574,160 697.705,160 699.836,160 701.967,160 704.098,160 706.23,160 708.361,160 710.492,158.037 712.623,160 714.754,160 716.885,160 719.016,160 721.148,160 723.279,160 725.41,160 727.541,160 729.672,160 731.803,160 733.934,160 736.066,160 738.197,160 740.328,160 742.459,156.564 744.59,154.601 746.721,160 748.852,160 750.984,160 753.115,160 755.246,159.509 757.377,160 759.508,160 761.639,159.509 763.77,159.509 765.902,160 768.033,159.509 770.164,160 772.295,160 774.426,156.074 776.557,159.509 778.689,159.509 780.82,160 782.951,158.037 785.082,160 787.213,160 789.344,160 791.475,160 793.607,160 795.738,160 797.869,160 800,160 800,160" fill="var(--pill)" opacity="0.6"/>
  <polyline points="20,160 22.1311,160 24.2623,160 26.3934,160 28.5246,160 30.6557,160 32.7869,160 34.918,160 37.0492,160 39.1803,160 41.3115,160 43.4426,160 45.5738,160 47.7049,160 49.8361,160 51.9672,160 54.0984,159.018 56.2295,160 58.3607,160 60.4918,160 62.623,145.276 64.7541,155.583 66.8852,157.546 69.0164,155.583 71.1475,157.055 73.2787,156.074 75.4098,160 77.541,160 79.6721,160 81.8033,158.037 83.9344,159.018 86.0656,158.037 88.1967,156.564 90.3279,160 92.459,158.528 94.5902,156.564 96.7213,160 98.8525,154.11 100.984,149.202 103.115,149.202 105.246,153.62 107.377,141.84 109.508,154.601 111.639,160 113.77,154.601 115.902,160 118.033,160 120.164,157.546 122.295,148.221 124.426,159.018 126.557,160 128.689,158.037 130.82,160 132.951,159.509 135.082,160 137.213,160 139.344,160 141.475,160 143.607,151.656 145.738,155.583 147.869,156.074 150,157.546 152.131,150.675 154.262,160 156.393,158.037 158.525,156.564 160.656,158.037 162.787,156.074 164.918,160 167.049,154.11 169.18,160 171.311,159.509 173.443,160 175.574,160 177.705,157.546 179.836,160 181.967,160 184.098,160 186.23,160 188.361,160 190.492,160 192.623,160 194.754,160 196.885,160 199.016,160 201.148,160 203.279,160 205.41,160 207.541,160 209.672,160 211.803,160 213.934,154.601 216.066,158.037 218.197,160 220.328,160 222.459,160 224.59,160 226.721,160 228.852,160 230.984,160 233.115,160 235.246,160 237.377,160 239.508,160 241.639,160 243.77,160 245.902,160 248.033,160 250.164,160 252.295,160 254.426,160 256.557,160 258.689,160 260.82,160 262.951,157.055 265.082,160 267.213,160 269.344,160 271.475,160 273.607,155.092 275.738,160 277.869,160 280,160 282.131,160 284.262,137.423 286.393,153.62 288.525,80 290.656,155.092 292.787,149.202 294.918,155.092 297.049,158.037 299.18,158.528 301.311,159.509 303.443,156.074 305.574,160 307.705,159.018 309.836,160 311.967,159.509 314.098,159.018 316.23,159.509 318.361,160 320.492,158.528 322.623,160 324.754,159.018 326.885,159.018 329.016,157.546 331.148,157.055 333.279,160 335.41,160 337.541,159.509 339.672,159.509 341.803,158.528 343.934,159.509 346.066,157.055 348.197,157.055 350.328,159.018 352.459,158.528 354.59,147.239 356.721,157.055 358.852,129.08 360.984,147.239 363.115,153.129 365.246,160 367.377,160 369.508,160 371.639,151.656 373.77,158.528 375.902,160 378.033,160 380.164,138.405 382.295,158.528 384.426,160 386.557,160 388.689,160 390.82,160 392.951,160 395.082,160 397.213,160 399.344,160 401.475,160 403.607,160 405.738,160 407.869,160 410,160 412.131,160 414.262,160 416.393,159.509 418.525,160 420.656,160 422.787,160 424.918,160 427.049,160 429.18,160 431.311,160 433.443,160 435.574,160 437.705,159.509 439.836,158.037 441.967,160 444.098,160 446.23,160 448.361,160 450.492,160 452.623,160 454.754,160 456.885,160 459.016,160 461.148,160 463.279,160 465.41,159.509 467.541,158.037 469.672,157.055 471.803,160 473.934,160 476.066,160 478.197,156.564 480.328,157.546 482.459,147.239 484.59,160 486.721,160 488.852,160 490.984,155.092 493.115,148.221 495.246,160 497.377,160 499.508,158.037 501.639,160 503.77,158.037 505.902,160 508.033,160 510.164,160 512.295,160 514.426,160 516.557,160 518.689,159.018 520.82,144.294 522.951,159.018 525.082,160 527.213,139.387 529.344,121.718 531.475,120.736 533.607,147.73 535.738,146.258 537.869,157.055 540,160 542.131,160 544.262,160 546.393,160 548.525,160 550.656,160 552.787,160 554.918,160 557.049,157.546 559.18,153.62 561.311,148.712 563.443,160 565.574,149.202 567.705,149.693 569.836,134.969 571.967,146.258 574.098,145.767 576.23,146.258 578.361,150.184 580.492,154.11 582.623,154.601 584.754,154.11 586.885,157.055 589.016,156.564 591.148,159.509 593.279,160 595.41,160 597.541,160 599.672,160 601.803,160 603.934,160 606.066,160 608.197,160 610.328,158.528 612.459,159.509 614.59,160 616.721,160 618.852,159.509 620.984,142.331 623.115,144.785 625.246,157.055 627.377,158.528 629.508,160 631.639,160 633.77,159.509 635.902,160 638.033,160 640.164,159.018 642.295,153.62 644.426,159.018 646.557,160 648.689,160 650.82,149.693 652.951,155.583 655.082,158.528 657.213,156.074 659.344,155.583 661.475,159.509 663.607,159.509 665.738,160 667.869,160 670,151.656 672.131,140.859 674.262,155.092 676.393,160 678.525,141.84 680.656,150.184 682.787,152.147 684.918,160 687.049,160 689.18,160 691.311,160 693.443,160 695.574,160 697.705,160 699.836,160 701.967,160 704.098,160 706.23,160 708.361,160 710.492,158.037 712.623,160 714.754,160 716.885,160 719.016,160 721.148,160 723.279,160 725.41,160 727.541,160 729.672,160 731.803,160 733.934,160 736.066,160 738.197,160 740.328,160 742.459,156.564 744.59,154.601 746.721,160 748.852,160 750.984,160 753.115,160 755.246,159.509 757.377,160 759.508,160 761.639,159.509 763.77,159.509 765.902,160 768.033,159.509 770.164,160 772.295,160 774.426,156.074 776.557,159.509 778.689,159.509 780.82,160 782.951,158.037 785.082,160 787.213,160 789.344,160 791.475,160 793.607,160 795.738,160 797.869,160 800,160" fill="none" stroke="var(--accent)" stroke-width="1.5" stroke-linecap="round" stroke-linejoin="round"/>
</svg>

