<svg xmlns="http://www.w3.org/2000/svg" width="820" height="180" viewBox="0 0 820 180">

<style>
  :root {
    --bg:        #f6f8fa;
    --card:      #ffffff;
    --border:    #d0d7de;
    --primary:   #1f2328;
    --secondary: #636c76;
    --muted:     #8c959f;
    --accent:    #0969da;
    --green:     #1a7f37;
    --yellow:    #9a6700;
    --red:       #cf222e;
    --hover:     #f3f4f6;
    --spark-bg:  #f0f3f6;
    --spark:     #0969da;
    --pill:      #eaf1fb;
    --pill-txt:  #0969da;
    --div:       #d0d7de;
  }
  @media (prefers-color-scheme: dark) {
    :root {
      --bg:        #0d1117;
      --card:      #161b22;
      --border:    #30363d;
      --primary:   #e6edf3;
      --secondary: #848d97;
      --muted:     #7d8590;
      --accent:    #2f81f7;
      --green:     #3fb950;
      --yellow:    #d29922;
      --red:       #f85149;
      --hover:     #21262d;
      --spark-bg:  #1c2128;
      --spark:     #58a6ff;
      --pill:      #1c2d3f;
      --pill-txt:  #58a6ff;
      --div:       #30363d;
    }
  }
  
  .bg          { fill: var(--bg); }
  .card        { fill: var(--card); stroke: var(--border); stroke-width: 1; }
  .lang-pill   { fill: var(--pill); }
  .spark-bg    { fill: var(--spark-bg); }
  .spark-line  { stroke: var(--spark); }
  .divider     { stroke: var(--div); stroke-width: 1; }
  .clr-primary   { fill: var(--primary); }
  .clr-secondary { fill: var(--secondary); }
  .clr-muted     { fill: var(--muted); }
  .clr-accent    { fill: var(--accent); }
  .clr-green     { fill: var(--green); }
  .clr-yellow    { fill: var(--yellow); }
  .clr-red       { fill: var(--red); }
  .txt-bold    { font-weight: 600; }
  svg text     { font-family: -apple-system, BlinkMacSystemFont, "Segoe UI", Helvetica, Arial, sans-serif; }
</style>

<rect x="0" y="0" width="820" height="180" rx="8" class="card"/>
  <text x="20" y="24" class="clr-primary txt-bold" text-anchor="start" font-size="14">Contribution History &amp; Activity</text>
  <line x1="20" y1="36" x2="800" y2="36" class="divider"/>
  <text x="20" y="60" class="clr-muted" text-anchor="start" font-size="12">Years Active:</text>
  <text x="100" y="60" class="clr-primary txt-bold" text-anchor="start" font-size="12">5.8</text>
  <text x="160" y="60" class="clr-muted" text-anchor="start" font-size="12">Commits (Last Year):</text>
  <text x="290" y="60" class="clr-primary txt-bold" text-anchor="start" font-size="12">1229</text>
  <text x="360" y="60" class="clr-muted" text-anchor="start" font-size="12">Highest Daily:</text>
  <text x="450" y="60" class="clr-primary txt-bold" text-anchor="start" font-size="12">163</text>
  <polygon points="20,160 20,160 22.1196,160 24.2391,160 26.3587,160 28.4783,160 30.5978,160 32.7174,160 34.837,160 36.9565,160 39.0761,159.018 41.1957,160 43.3152,160 45.4348,160 47.5543,145.276 49.6739,155.583 51.7935,157.546 53.913,155.583 56.0326,157.055 58.1522,156.074 60.2717,160 62.3913,160 64.5109,160 66.6304,158.037 68.75,159.018 70.8696,158.037 72.9891,156.564 75.1087,160 77.2283,158.528 79.3478,156.564 81.4674,160 83.587,154.11 85.7065,149.202 87.8261,149.202 89.9457,153.62 92.0652,141.84 94.1848,154.601 96.3043,160 98.4239,154.601 100.543,160 102.663,160 104.783,157.546 106.902,148.221 109.022,159.018 111.141,160 113.261,158.037 115.38,160 117.5,159.509 119.62,160 121.739,160 123.859,160 125.978,160 128.098,151.656 130.217,155.583 132.337,156.074 134.457,157.546 136.576,150.675 138.696,160 140.815,158.037 142.935,156.564 145.054,158.037 147.174,156.074 149.293,160 151.413,154.11 153.533,160 155.652,159.509 157.772,160 159.891,160 162.011,157.546 164.13,160 166.25,160 168.37,160 170.489,160 172.609,160 174.728,160 176.848,160 178.967,160 181.087,160 183.207,160 185.326,160 187.446,160 189.565,160 191.685,160 193.804,160 195.924,160 198.043,154.601 200.163,158.037 202.283,160 204.402,160 206.522,160 208.641,160 210.761,160 212.88,160 215,160 217.12,160 219.239,160 221.359,160 223.478,160 225.598,160 227.717,160 229.837,160 231.957,160 234.076,160 236.196,160 238.315,160 240.435,160 242.554,160 244.674,160 246.793,157.055 248.913,160 251.033,160 253.152,160 255.272,160 257.391,155.092 259.511,160 261.63,160 263.75,160 265.87,160 267.989,137.423 270.109,153.62 272.228,80 274.348,155.092 276.467,149.202 278.587,155.092 280.707,158.037 282.826,158.528 284.946,159.509 287.065,156.074 289.185,160 291.304,159.018 293.424,160 295.543,159.509 297.663,159.018 299.783,159.509 301.902,160 304.022,158.528 306.141,160 308.261,159.018 310.38,159.018 312.5,157.546 314.62,157.055 316.739,160 318.859,160 320.978,159.509 323.098,159.509 325.217,158.528 327.337,159.509 329.457,157.055 331.576,157.055 333.696,159.018 335.815,158.528 337.935,147.239 340.054,157.055 342.174,129.08 344.293,147.239 346.413,153.129 348.533,160 350.652,160 352.772,160 354.891,151.656 357.011,158.528 359.13,160 361.25,160 363.37,138.405 365.489,158.528 367.609,160 369.728,160 371.848,160 373.967,160 376.087,160 378.207,160 380.326,160 382.446,160 384.565,160 386.685,160 388.804,160 390.924,160 393.043,160 395.163,160 397.283,160 399.402,159.509 401.522,160 403.641,160 405.761,160 407.88,160 410,160 412.12,160 414.239,160 416.359,160 418.478,160 420.598,159.509 422.717,158.037 424.837,160 426.957,160 429.076,160 431.196,160 433.315,160 435.435,160 437.554,160 439.674,160 441.793,160 443.913,160 446.033,160 448.152,159.509 450.272,158.037 452.391,157.055 454.511,160 456.63,160 458.75,160 460.87,156.564 462.989,157.546 465.109,147.239 467.228,160 469.348,160 471.467,160 473.587,155.092 475.707,148.221 477.826,160 479.946,160 482.065,158.037 484.185,160 486.304,158.037 488.424,160 490.543,160 492.663,160 494.783,160 496.902,160 499.022,160 501.141,159.018 503.261,144.294 505.38,159.018 507.5,160 509.62,139.387 511.739,121.718 513.859,120.736 515.978,147.73 518.098,146.258 520.217,157.055 522.337,160 524.457,160 526.576,160 528.696,160 530.815,160 532.935,160 535.054,160 537.174,160 539.293,157.546 541.413,153.62 543.533,148.712 545.652,160 547.772,149.202 549.891,149.693 552.011,134.969 554.13,146.258 556.25,145.767 558.37,146.258 560.489,150.184 562.609,154.11 564.728,154.601 566.848,154.11 568.967,157.055 571.087,156.564 573.207,159.509 575.326,160 577.446,160 579.565,160 581.685,160 583.804,160 585.924,160 588.043,160 590.163,160 592.283,158.528 594.402,159.509 596.522,160 598.641,160 600.761,159.509 602.88,142.331 605,144.785 607.12,157.055 609.239,158.528 611.359,160 613.478,160 615.598,159.509 617.717,160 619.837,160 621.957,159.018 624.076,153.62 626.196,159.018 628.315,160 630.435,160 632.554,149.693 634.674,155.583 636.793,158.528 638.913,156.074 641.033,155.583 643.152,159.509 645.272,159.509 647.391,160 649.511,160 651.63,151.656 653.75,140.859 655.87,155.092 657.989,160 660.109,141.84 662.228,150.184 664.348,152.147 666.467,160 668.587,160 670.707,160 672.826,160 674.946,160 677.065,160 679.185,160 681.304,160 683.424,160 685.543,160 687.663,160 689.783,160 691.902,158.037 694.022,160 696.141,160 698.261,160 700.38,160 702.5,160 704.62,160 706.739,160 708.859,160 710.978,160 713.098,160 715.217,160 717.337,160 719.457,160 721.576,160 723.696,156.564 725.815,154.601 727.935,160 730.054,160 732.174,160 734.293,160 736.413,159.509 738.533,160 740.652,160 742.772,159.509 744.891,159.509 747.011,160 749.13,159.509 751.25,160 753.37,160 755.489,156.074 757.609,159.509 759.728,159.509 761.848,160 763.967,158.037 766.087,160 768.207,160 770.326,160 772.446,160 774.565,160 776.685,160 778.804,160 780.924,150.184 783.043,158.528 785.163,159.509 787.283,159.018 789.402,160 791.522,160 793.641,160 795.761,160 797.88,160 800,160 800,160" fill="var(--pill)" opacity="0.6"/>
  <polyline points="20,160 22.1196,160 24.2391,160 26.3587,160 28.4783,160 30.5978,160 32.7174,160 34.837,160 36.9565,160 39.0761,159.018 41.1957,160 43.3152,160 45.4348,160 47.5543,145.276 49.6739,155.583 51.7935,157.546 53.913,155.583 56.0326,157.055 58.1522,156.074 60.2717,160 62.3913,160 64.5109,160 66.6304,158.037 68.75,159.018 70.8696,158.037 72.9891,156.564 75.1087,160 77.2283,158.528 79.3478,156.564 81.4674,160 83.587,154.11 85.7065,149.202 87.8261,149.202 89.9457,153.62 92.0652,141.84 94.1848,154.601 96.3043,160 98.4239,154.601 100.543,160 102.663,160 104.783,157.546 106.902,148.221 109.022,159.018 111.141,160 113.261,158.037 115.38,160 117.5,159.509 119.62,160 121.739,160 123.859,160 125.978,160 128.098,151.656 130.217,155.583 132.337,156.074 134.457,157.546 136.576,150.675 138.696,160 140.815,158.037 142.935,156.564 145.054,158.037 147.174,156.074 149.293,160 151.413,154.11 153.533,160 155.652,159.509 157.772,160 159.891,160 162.011,157.546 164.13,160 166.25,160 168.37,160 170.489,160 172.609,160 174.728,160 176.848,160 178.967,160 181.087,160 183.207,160 185.326,160 187.446,160 189.565,160 191.685,160 193.804,160 195.924,160 198.043,154.601 200.163,158.037 202.283,160 204.402,160 206.522,160 208.641,160 210.761,160 212.88,160 215,160 217.12,160 219.239,160 221.359,160 223.478,160 225.598,160 227.717,160 229.837,160 231.957,160 234.076,160 236.196,160 238.315,160 240.435,160 242.554,160 244.674,160 246.793,157.055 248.913,160 251.033,160 253.152,160 255.272,160 257.391,155.092 259.511,160 261.63,160 263.75,160 265.87,160 267.989,137.423 270.109,153.62 272.228,80 274.348,155.092 276.467,149.202 278.587,155.092 280.707,158.037 282.826,158.528 284.946,159.509 287.065,156.074 289.185,160 291.304,159.018 293.424,160 295.543,159.509 297.663,159.018 299.783,159.509 301.902,160 304.022,158.528 306.141,160 308.261,159.018 310.38,159.018 312.5,157.546 314.62,157.055 316.739,160 318.859,160 320.978,159.509 323.098,159.509 325.217,158.528 327.337,159.509 329.457,157.055 331.576,157.055 333.696,159.018 335.815,158.528 337.935,147.239 340.054,157.055 342.174,129.08 344.293,147.239 346.413,153.129 348.533,160 350.652,160 352.772,160 354.891,151.656 357.011,158.528 359.13,160 361.25,160 363.37,138.405 365.489,158.528 367.609,160 369.728,160 371.848,160 373.967,160 376.087,160 378.207,160 380.326,160 382.446,160 384.565,160 386.685,160 388.804,160 390.924,160 393.043,160 395.163,160 397.283,160 399.402,159.509 401.522,160 403.641,160 405.761,160 407.88,160 410,160 412.12,160 414.239,160 416.359,160 418.478,160 420.598,159.509 422.717,158.037 424.837,160 426.957,160 429.076,160 431.196,160 433.315,160 435.435,160 437.554,160 439.674,160 441.793,160 443.913,160 446.033,160 448.152,159.509 450.272,158.037 452.391,157.055 454.511,160 456.63,160 458.75,160 460.87,156.564 462.989,157.546 465.109,147.239 467.228,160 469.348,160 471.467,160 473.587,155.092 475.707,148.221 477.826,160 479.946,160 482.065,158.037 484.185,160 486.304,158.037 488.424,160 490.543,160 492.663,160 494.783,160 496.902,160 499.022,160 501.141,159.018 503.261,144.294 505.38,159.018 507.5,160 509.62,139.387 511.739,121.718 513.859,120.736 515.978,147.73 518.098,146.258 520.217,157.055 522.337,160 524.457,160 526.576,160 528.696,160 530.815,160 532.935,160 535.054,160 537.174,160 539.293,157.546 541.413,153.62 543.533,148.712 545.652,160 547.772,149.202 549.891,149.693 552.011,134.969 554.13,146.258 556.25,145.767 558.37,146.258 560.489,150.184 562.609,154.11 564.728,154.601 566.848,154.11 568.967,157.055 571.087,156.564 573.207,159.509 575.326,160 577.446,160 579.565,160 581.685,160 583.804,160 585.924,160 588.043,160 590.163,160 592.283,158.528 594.402,159.509 596.522,160 598.641,160 600.761,159.509 602.88,142.331 605,144.785 607.12,157.055 609.239,158.528 611.359,160 613.478,160 615.598,159.509 617.717,160 619.837,160 621.957,159.018 624.076,153.62 626.196,159.018 628.315,160 630.435,160 632.554,149.693 634.674,155.583 636.793,158.528 638.913,156.074 641.033,155.583 643.152,159.509 645.272,159.509 647.391,160 649.511,160 651.63,151.656 653.75,140.859 655.87,155.092 657.989,160 660.109,141.84 662.228,150.184 664.348,152.147 666.467,160 668.587,160 670.707,160 672.826,160 674.946,160 677.065,160 679.185,160 681.304,160 683.424,160 685.543,160 687.663,160 689.783,160 691.902,158.037 694.022,160 696.141,160 698.261,160 700.38,160 702.5,160 704.62,160 706.739,160 708.859,160 710.978,160 713.098,160 715.217,160 717.337,160 719.457,160 721.576,160 723.696,156.564 725.815,154.601 727.935,160 730.054,160 732.174,160 734.293,160 736.413,159.509 738.533,160 740.652,160 742.772,159.509 744.891,159.509 747.011,160 749.13,159.509 751.25,160 753.37,160 755.489,156.074 757.609,159.509 759.728,159.509 761.848,160 763.967,158.037 766.087,160 768.207,160 770.326,160 772.446,160 774.565,160 776.685,160 778.804,160 780.924,150.184 783.043,158.528 785.163,159.509 787.283,159.018 789.402,160 791.522,160 793.641,160 795.761,160 797.88,160 800,160" fill="none" stroke="var(--accent)" stroke-width="1.5" stroke-linecap="round" stroke-linejoin="round"/>
</svg>

