<svg xmlns="http://www.w3.org/2000/svg" width="820" height="180" viewBox="0 0 820 180">

<style>
  :root {
    --bg:        #f6f8fa;
    --card:      #ffffff;
    --border:    #d0d7de;
    --primary:   #1f2328;
    --secondary: #636c76;
    --muted:     #8c959f;
    --accent:    #0969da;
    --green:     #1a7f37;
    --yellow:    #9a6700;
    --red:       #cf222e;
    --hover:     #f3f4f6;
    --spark-bg:  #f0f3f6;
    --spark:     #0969da;
    --pill:      #eaf1fb;
    --pill-txt:  #0969da;
    --div:       #d0d7de;
  }
  @media (prefers-color-scheme: dark) {
    :root {
      --bg:        #0d1117;
      --card:      #161b22;
      --border:    #30363d;
      --primary:   #e6edf3;
      --secondary: #848d97;
      --muted:     #7d8590;
      --accent:    #2f81f7;
      --green:     #3fb950;
      --yellow:    #d29922;
      --red:       #f85149;
      --hover:     #21262d;
      --spark-bg:  #1c2128;
      --spark:     #58a6ff;
      --pill:      #1c2d3f;
      --pill-txt:  #58a6ff;
      --div:       #30363d;
    }
  }
  
  .bg          { fill: var(--bg); }
  .card        { fill: var(--card); stroke: var(--border); stroke-width: 1; }
  .lang-pill   { fill: var(--pill); }
  .spark-bg    { fill: var(--spark-bg); }
  .spark-line  { stroke: var(--spark); }
  .divider     { stroke: var(--div); stroke-width: 1; }
  .clr-primary   { fill: var(--primary); }
  .clr-secondary { fill: var(--secondary); }
  .clr-muted     { fill: var(--muted); }
  .clr-accent    { fill: var(--accent); }
  .clr-green     { fill: var(--green); }
  .clr-yellow    { fill: var(--yellow); }
  .clr-red       { fill: var(--red); }
  .txt-bold    { font-weight: 600; }
  svg text     { font-family: -apple-system, BlinkMacSystemFont, "Segoe UI", Helvetica, Arial, sans-serif; }
</style>

<rect x="0" y="0" width="820" height="180" rx="8" class="card"/>
  <text x="20" y="24" class="clr-primary txt-bold" text-anchor="start" font-size="14">Contribution History &amp; Activity</text>
  <line x1="20" y1="36" x2="800" y2="36" class="divider"/>
  <text x="20" y="60" class="clr-muted" text-anchor="start" font-size="12">Years Active:</text>
  <text x="100" y="60" class="clr-primary txt-bold" text-anchor="start" font-size="12">5.8</text>
  <text x="160" y="60" class="clr-muted" text-anchor="start" font-size="12">Commits (Last Year):</text>
  <text x="290" y="60" class="clr-primary txt-bold" text-anchor="start" font-size="12">1229</text>
  <text x="360" y="60" class="clr-muted" text-anchor="start" font-size="12">Highest Daily:</text>
  <text x="450" y="60" class="clr-primary txt-bold" text-anchor="start" font-size="12">163</text>
  <polygon points="20,160 20,160 22.1311,160 24.2623,160 26.3934,160 28.5246,160 30.6557,160 32.7869,160 34.918,160 37.0492,160 39.1803,159.018 41.3115,160 43.4426,160 45.5738,160 47.7049,145.276 49.8361,155.583 51.9672,157.546 54.0984,155.583 56.2295,157.055 58.3607,156.074 60.4918,160 62.623,160 64.7541,160 66.8852,158.037 69.0164,159.018 71.1475,158.037 73.2787,156.564 75.4098,160 77.541,158.528 79.6721,156.564 81.8033,160 83.9344,154.11 86.0656,149.202 88.1967,149.202 90.3279,153.62 92.459,141.84 94.5902,154.601 96.7213,160 98.8525,154.601 100.984,160 103.115,160 105.246,157.546 107.377,148.221 109.508,159.018 111.639,160 113.77,158.037 115.902,160 118.033,159.509 120.164,160 122.295,160 124.426,160 126.557,160 128.689,151.656 130.82,155.583 132.951,156.074 135.082,157.546 137.213,150.675 139.344,160 141.475,158.037 143.607,156.564 145.738,158.037 147.869,156.074 150,160 152.131,154.11 154.262,160 156.393,159.509 158.525,160 160.656,160 162.787,157.546 164.918,160 167.049,160 169.18,160 171.311,160 173.443,160 175.574,160 177.705,160 179.836,160 181.967,160 184.098,160 186.23,160 188.361,160 190.492,160 192.623,160 194.754,160 196.885,160 199.016,154.601 201.148,158.037 203.279,160 205.41,160 207.541,160 209.672,160 211.803,160 213.934,160 216.066,160 218.197,160 220.328,160 222.459,160 224.59,160 226.721,160 228.852,160 230.984,160 233.115,160 235.246,160 237.377,160 239.508,160 241.639,160 243.77,160 245.902,160 248.033,157.055 250.164,160 252.295,160 254.426,160 256.557,160 258.689,155.092 260.82,160 262.951,160 265.082,160 267.213,160 269.344,137.423 271.475,153.62 273.607,80 275.738,155.092 277.869,149.202 280,155.092 282.131,158.037 284.262,158.528 286.393,159.509 288.525,156.074 290.656,160 292.787,159.018 294.918,160 297.049,159.509 299.18,159.018 301.311,159.509 303.443,160 305.574,158.528 307.705,160 309.836,159.018 311.967,159.018 314.098,157.546 316.23,157.055 318.361,160 320.492,160 322.623,159.509 324.754,159.509 326.885,158.528 329.016,159.509 331.148,157.055 333.279,157.055 335.41,159.018 337.541,158.528 339.672,147.239 341.803,157.055 343.934,129.08 346.066,147.239 348.197,153.129 350.328,160 352.459,160 354.59,160 356.721,151.656 358.852,158.528 360.984,160 363.115,160 365.246,138.405 367.377,158.528 369.508,160 371.639,160 373.77,160 375.902,160 378.033,160 380.164,160 382.295,160 384.426,160 386.557,160 388.689,160 390.82,160 392.951,160 395.082,160 397.213,160 399.344,160 401.475,159.509 403.607,160 405.738,160 407.869,160 410,160 412.131,160 414.262,160 416.393,160 418.525,160 420.656,160 422.787,159.509 424.918,158.037 427.049,160 429.18,160 431.311,160 433.443,160 435.574,160 437.705,160 439.836,160 441.967,160 444.098,160 446.23,160 448.361,160 450.492,159.509 452.623,158.037 454.754,157.055 456.885,160 459.016,160 461.148,160 463.279,156.564 465.41,157.546 467.541,147.239 469.672,160 471.803,160 473.934,160 476.066,155.092 478.197,148.221 480.328,160 482.459,160 484.59,158.037 486.721,160 488.852,158.037 490.984,160 493.115,160 495.246,160 497.377,160 499.508,160 501.639,160 503.77,159.018 505.902,144.294 508.033,159.018 510.164,160 512.295,139.387 514.426,121.718 516.557,120.736 518.689,147.73 520.82,146.258 522.951,157.055 525.082,160 527.213,160 529.344,160 531.475,160 533.607,160 535.738,160 537.869,160 540,160 542.131,157.546 544.262,153.62 546.393,148.712 548.525,160 550.656,149.202 552.787,149.693 554.918,134.969 557.049,146.258 559.18,145.767 561.311,146.258 563.443,150.184 565.574,154.11 567.705,154.601 569.836,154.11 571.967,157.055 574.098,156.564 576.23,159.509 578.361,160 580.492,160 582.623,160 584.754,160 586.885,160 589.016,160 591.148,160 593.279,160 595.41,158.528 597.541,159.509 599.672,160 601.803,160 603.934,159.509 606.066,142.331 608.197,144.785 610.328,157.055 612.459,158.528 614.59,160 616.721,160 618.852,159.509 620.984,160 623.115,160 625.246,159.018 627.377,153.62 629.508,159.018 631.639,160 633.77,160 635.902,149.693 638.033,155.583 640.164,158.528 642.295,156.074 644.426,155.583 646.557,159.509 648.689,159.509 650.82,160 652.951,160 655.082,151.656 657.213,140.859 659.344,155.092 661.475,160 663.607,141.84 665.738,150.184 667.869,152.147 670,160 672.131,160 674.262,160 676.393,160 678.525,160 680.656,160 682.787,160 684.918,160 687.049,160 689.18,160 691.311,160 693.443,160 695.574,158.037 697.705,160 699.836,160 701.967,160 704.098,160 706.23,160 708.361,160 710.492,160 712.623,160 714.754,160 716.885,160 719.016,160 721.148,160 723.279,160 725.41,160 727.541,156.564 729.672,154.601 731.803,160 733.934,160 736.066,160 738.197,160 740.328,159.509 742.459,160 744.59,160 746.721,159.509 748.852,159.509 750.984,160 753.115,159.509 755.246,160 757.377,160 759.508,156.074 761.639,159.509 763.77,159.509 765.902,160 768.033,158.037 770.164,160 772.295,160 774.426,160 776.557,160 778.689,160 780.82,160 782.951,160 785.082,150.184 787.213,158.528 789.344,159.509 791.475,159.018 793.607,160 795.738,160 797.869,160 800,160 800,160" fill="var(--pill)" opacity="0.6"/>
  <polyline points="20,160 22.1311,160 24.2623,160 26.3934,160 28.5246,160 30.6557,160 32.7869,160 34.918,160 37.0492,160 39.1803,159.018 41.3115,160 43.4426,160 45.5738,160 47.7049,145.276 49.8361,155.583 51.9672,157.546 54.0984,155.583 56.2295,157.055 58.3607,156.074 60.4918,160 62.623,160 64.7541,160 66.8852,158.037 69.0164,159.018 71.1475,158.037 73.2787,156.564 75.4098,160 77.541,158.528 79.6721,156.564 81.8033,160 83.9344,154.11 86.0656,149.202 88.1967,149.202 90.3279,153.62 92.459,141.84 94.5902,154.601 96.7213,160 98.8525,154.601 100.984,160 103.115,160 105.246,157.546 107.377,148.221 109.508,159.018 111.639,160 113.77,158.037 115.902,160 118.033,159.509 120.164,160 122.295,160 124.426,160 126.557,160 128.689,151.656 130.82,155.583 132.951,156.074 135.082,157.546 137.213,150.675 139.344,160 141.475,158.037 143.607,156.564 145.738,158.037 147.869,156.074 150,160 152.131,154.11 154.262,160 156.393,159.509 158.525,160 160.656,160 162.787,157.546 164.918,160 167.049,160 169.18,160 171.311,160 173.443,160 175.574,160 177.705,160 179.836,160 181.967,160 184.098,160 186.23,160 188.361,160 190.492,160 192.623,160 194.754,160 196.885,160 199.016,154.601 201.148,158.037 203.279,160 205.41,160 207.541,160 209.672,160 211.803,160 213.934,160 216.066,160 218.197,160 220.328,160 222.459,160 224.59,160 226.721,160 228.852,160 230.984,160 233.115,160 235.246,160 237.377,160 239.508,160 241.639,160 243.77,160 245.902,160 248.033,157.055 250.164,160 252.295,160 254.426,160 256.557,160 258.689,155.092 260.82,160 262.951,160 265.082,160 267.213,160 269.344,137.423 271.475,153.62 273.607,80 275.738,155.092 277.869,149.202 280,155.092 282.131,158.037 284.262,158.528 286.393,159.509 288.525,156.074 290.656,160 292.787,159.018 294.918,160 297.049,159.509 299.18,159.018 301.311,159.509 303.443,160 305.574,158.528 307.705,160 309.836,159.018 311.967,159.018 314.098,157.546 316.23,157.055 318.361,160 320.492,160 322.623,159.509 324.754,159.509 326.885,158.528 329.016,159.509 331.148,157.055 333.279,157.055 335.41,159.018 337.541,158.528 339.672,147.239 341.803,157.055 343.934,129.08 346.066,147.239 348.197,153.129 350.328,160 352.459,160 354.59,160 356.721,151.656 358.852,158.528 360.984,160 363.115,160 365.246,138.405 367.377,158.528 369.508,160 371.639,160 373.77,160 375.902,160 378.033,160 380.164,160 382.295,160 384.426,160 386.557,160 388.689,160 390.82,160 392.951,160 395.082,160 397.213,160 399.344,160 401.475,159.509 403.607,160 405.738,160 407.869,160 410,160 412.131,160 414.262,160 416.393,160 418.525,160 420.656,160 422.787,159.509 424.918,158.037 427.049,160 429.18,160 431.311,160 433.443,160 435.574,160 437.705,160 439.836,160 441.967,160 444.098,160 446.23,160 448.361,160 450.492,159.509 452.623,158.037 454.754,157.055 456.885,160 459.016,160 461.148,160 463.279,156.564 465.41,157.546 467.541,147.239 469.672,160 471.803,160 473.934,160 476.066,155.092 478.197,148.221 480.328,160 482.459,160 484.59,158.037 486.721,160 488.852,158.037 490.984,160 493.115,160 495.246,160 497.377,160 499.508,160 501.639,160 503.77,159.018 505.902,144.294 508.033,159.018 510.164,160 512.295,139.387 514.426,121.718 516.557,120.736 518.689,147.73 520.82,146.258 522.951,157.055 525.082,160 527.213,160 529.344,160 531.475,160 533.607,160 535.738,160 537.869,160 540,160 542.131,157.546 544.262,153.62 546.393,148.712 548.525,160 550.656,149.202 552.787,149.693 554.918,134.969 557.049,146.258 559.18,145.767 561.311,146.258 563.443,150.184 565.574,154.11 567.705,154.601 569.836,154.11 571.967,157.055 574.098,156.564 576.23,159.509 578.361,160 580.492,160 582.623,160 584.754,160 586.885,160 589.016,160 591.148,160 593.279,160 595.41,158.528 597.541,159.509 599.672,160 601.803,160 603.934,159.509 606.066,142.331 608.197,144.785 610.328,157.055 612.459,158.528 614.59,160 616.721,160 618.852,159.509 620.984,160 623.115,160 625.246,159.018 627.377,153.62 629.508,159.018 631.639,160 633.77,160 635.902,149.693 638.033,155.583 640.164,158.528 642.295,156.074 644.426,155.583 646.557,159.509 648.689,159.509 650.82,160 652.951,160 655.082,151.656 657.213,140.859 659.344,155.092 661.475,160 663.607,141.84 665.738,150.184 667.869,152.147 670,160 672.131,160 674.262,160 676.393,160 678.525,160 680.656,160 682.787,160 684.918,160 687.049,160 689.18,160 691.311,160 693.443,160 695.574,158.037 697.705,160 699.836,160 701.967,160 704.098,160 706.23,160 708.361,160 710.492,160 712.623,160 714.754,160 716.885,160 719.016,160 721.148,160 723.279,160 725.41,160 727.541,156.564 729.672,154.601 731.803,160 733.934,160 736.066,160 738.197,160 740.328,159.509 742.459,160 744.59,160 746.721,159.509 748.852,159.509 750.984,160 753.115,159.509 755.246,160 757.377,160 759.508,156.074 761.639,159.509 763.77,159.509 765.902,160 768.033,158.037 770.164,160 772.295,160 774.426,160 776.557,160 778.689,160 780.82,160 782.951,160 785.082,150.184 787.213,158.528 789.344,159.509 791.475,159.018 793.607,160 795.738,160 797.869,160 800,160" fill="none" stroke="var(--accent)" stroke-width="1.5" stroke-linecap="round" stroke-linejoin="round"/>
</svg>

