<svg xmlns="http://www.w3.org/2000/svg" width="820" height="180" viewBox="0 0 820 180">

<style>
  :root {
    --bg:        #f6f8fa;
    --card:      #ffffff;
    --border:    #d0d7de;
    --primary:   #1f2328;
    --secondary: #636c76;
    --muted:     #8c959f;
    --accent:    #0969da;
    --green:     #1a7f37;
    --yellow:    #9a6700;
    --red:       #cf222e;
    --hover:     #f3f4f6;
    --spark-bg:  #f0f3f6;
    --spark:     #0969da;
    --pill:      #eaf1fb;
    --pill-txt:  #0969da;
    --div:       #d0d7de;
  }
  @media (prefers-color-scheme: dark) {
    :root {
      --bg:        #0d1117;
      --card:      #161b22;
      --border:    #30363d;
      --primary:   #e6edf3;
      --secondary: #848d97;
      --muted:     #7d8590;
      --accent:    #2f81f7;
      --green:     #3fb950;
      --yellow:    #d29922;
      --red:       #f85149;
      --hover:     #21262d;
      --spark-bg:  #1c2128;
      --spark:     #58a6ff;
      --pill:      #1c2d3f;
      --pill-txt:  #58a6ff;
      --div:       #30363d;
    }
  }
  
  .bg          { fill: var(--bg); }
  .card        { fill: var(--card); stroke: var(--border); stroke-width: 1; }
  .lang-pill   { fill: var(--pill); }
  .spark-bg    { fill: var(--spark-bg); }
  .spark-line  { stroke: var(--spark); }
  .divider     { stroke: var(--div); stroke-width: 1; }
  .clr-primary   { fill: var(--primary); }
  .clr-secondary { fill: var(--secondary); }
  .clr-muted     { fill: var(--muted); }
  .clr-accent    { fill: var(--accent); }
  .clr-green     { fill: var(--green); }
  .clr-yellow    { fill: var(--yellow); }
  .clr-red       { fill: var(--red); }
  .txt-bold    { font-weight: 600; }
  svg text     { font-family: -apple-system, BlinkMacSystemFont, "Segoe UI", Helvetica, Arial, sans-serif; }
</style>

<rect x="0" y="0" width="820" height="180" rx="8" class="card"/>
  <text x="20" y="24" class="clr-primary txt-bold" text-anchor="start" font-size="14">Contribution History &amp; Activity</text>
  <line x1="20" y1="36" x2="800" y2="36" class="divider"/>
  <text x="20" y="60" class="clr-muted" text-anchor="start" font-size="12">Years Active:</text>
  <text x="100" y="60" class="clr-primary txt-bold" text-anchor="start" font-size="12">5.8</text>
  <text x="160" y="60" class="clr-muted" text-anchor="start" font-size="12">Commits (Last Year):</text>
  <text x="290" y="60" class="clr-primary txt-bold" text-anchor="start" font-size="12">1229</text>
  <text x="360" y="60" class="clr-muted" text-anchor="start" font-size="12">Highest Daily:</text>
  <text x="450" y="60" class="clr-primary txt-bold" text-anchor="start" font-size="12">163</text>
  <polygon points="20,160 20,160 22.1081,160 24.2162,160 26.3243,160 28.4324,160 30.5405,160 32.6486,160 34.7568,160 36.8649,160 38.973,159.018 41.0811,160 43.1892,160 45.2973,160 47.4054,145.276 49.5135,155.583 51.6216,157.546 53.7297,155.583 55.8378,157.055 57.9459,156.074 60.0541,160 62.1622,160 64.2703,160 66.3784,158.037 68.4865,159.018 70.5946,158.037 72.7027,156.564 74.8108,160 76.9189,158.528 79.027,156.564 81.1351,160 83.2432,154.11 85.3514,149.202 87.4595,149.202 89.5676,153.62 91.6757,141.84 93.7838,154.601 95.8919,160 98,154.601 100.108,160 102.216,160 104.324,157.546 106.432,148.221 108.541,159.018 110.649,160 112.757,158.037 114.865,160 116.973,159.509 119.081,160 121.189,160 123.297,160 125.405,160 127.514,151.656 129.622,155.583 131.73,156.074 133.838,157.546 135.946,150.675 138.054,160 140.162,158.037 142.27,156.564 144.378,158.037 146.486,156.074 148.595,160 150.703,154.11 152.811,160 154.919,159.509 157.027,160 159.135,160 161.243,157.546 163.351,160 165.459,160 167.568,160 169.676,160 171.784,160 173.892,160 176,160 178.108,160 180.216,160 182.324,160 184.432,160 186.541,160 188.649,160 190.757,160 192.865,160 194.973,160 197.081,154.601 199.189,158.037 201.297,160 203.405,160 205.514,160 207.622,160 209.73,160 211.838,160 213.946,160 216.054,160 218.162,160 220.27,160 222.378,160 224.486,160 226.595,160 228.703,160 230.811,160 232.919,160 235.027,160 237.135,160 239.243,160 241.351,160 243.459,160 245.568,157.055 247.676,160 249.784,160 251.892,160 254,160 256.108,155.092 258.216,160 260.324,160 262.432,160 264.541,160 266.649,137.423 268.757,153.62 270.865,80 272.973,155.092 275.081,149.202 277.189,155.092 279.297,158.037 281.405,158.528 283.514,159.509 285.622,156.074 287.73,160 289.838,159.018 291.946,160 294.054,159.509 296.162,159.018 298.27,159.509 300.378,160 302.486,158.528 304.595,160 306.703,159.018 308.811,159.018 310.919,157.546 313.027,157.055 315.135,160 317.243,160 319.351,159.509 321.459,159.509 323.568,158.528 325.676,159.509 327.784,157.055 329.892,157.055 332,159.018 334.108,158.528 336.216,147.239 338.324,157.055 340.432,129.08 342.541,147.239 344.649,153.129 346.757,160 348.865,160 350.973,160 353.081,151.656 355.189,158.528 357.297,160 359.405,160 361.514,138.405 363.622,158.528 365.73,160 367.838,160 369.946,160 372.054,160 374.162,160 376.27,160 378.378,160 380.486,160 382.595,160 384.703,160 386.811,160 388.919,160 391.027,160 393.135,160 395.243,160 397.351,159.509 399.459,160 401.568,160 403.676,160 405.784,160 407.892,160 410,160 412.108,160 414.216,160 416.324,160 418.432,159.509 420.541,158.037 422.649,160 424.757,160 426.865,160 428.973,160 431.081,160 433.189,160 435.297,160 437.405,160 439.514,160 441.622,160 443.73,160 445.838,159.509 447.946,158.037 450.054,157.055 452.162,160 454.27,160 456.378,160 458.486,156.564 460.595,157.546 462.703,147.239 464.811,160 466.919,160 469.027,160 471.135,155.092 473.243,148.221 475.351,160 477.459,160 479.568,158.037 481.676,160 483.784,158.037 485.892,160 488,160 490.108,160 492.216,160 494.324,160 496.432,160 498.541,159.018 500.649,144.294 502.757,159.018 504.865,160 506.973,139.387 509.081,121.718 511.189,120.736 513.297,147.73 515.405,146.258 517.514,157.055 519.622,160 521.73,160 523.838,160 525.946,160 528.054,160 530.162,160 532.27,160 534.378,160 536.486,157.546 538.595,153.62 540.703,148.712 542.811,160 544.919,149.202 547.027,149.693 549.135,134.969 551.243,146.258 553.351,145.767 555.459,146.258 557.568,150.184 559.676,154.11 561.784,154.601 563.892,154.11 566,157.055 568.108,156.564 570.216,159.509 572.324,160 574.432,160 576.541,160 578.649,160 580.757,160 582.865,160 584.973,160 587.081,160 589.189,158.528 591.297,159.509 593.405,160 595.514,160 597.622,159.509 599.73,142.331 601.838,144.785 603.946,157.055 606.054,158.528 608.162,160 610.27,160 612.378,159.509 614.486,160 616.595,160 618.703,159.018 620.811,153.62 622.919,159.018 625.027,160 627.135,160 629.243,149.693 631.351,155.583 633.459,158.528 635.568,156.074 637.676,155.583 639.784,159.509 641.892,159.509 644,160 646.108,160 648.216,151.656 650.324,140.859 652.432,155.092 654.541,160 656.649,141.84 658.757,150.184 660.865,152.147 662.973,160 665.081,160 667.189,160 669.297,160 671.405,160 673.514,160 675.622,160 677.73,160 679.838,160 681.946,160 684.054,160 686.162,160 688.27,158.037 690.378,160 692.486,160 694.595,160 696.703,160 698.811,160 700.919,160 703.027,160 705.135,160 707.243,160 709.351,160 711.459,160 713.568,160 715.676,160 717.784,160 719.892,156.564 722,154.601 724.108,160 726.216,160 728.324,160 730.432,160 732.541,159.509 734.649,160 736.757,160 738.865,159.509 740.973,159.509 743.081,160 745.189,159.509 747.297,160 749.405,160 751.514,156.074 753.622,159.509 755.73,159.509 757.838,160 759.946,158.037 762.054,160 764.162,160 766.27,160 768.378,160 770.486,160 772.595,160 774.703,160 776.811,150.184 778.919,158.528 781.027,159.509 783.135,159.018 785.243,160 787.351,160 789.459,160 791.568,160 793.676,160 795.784,160 797.892,160 800,160 800,160" fill="var(--pill)" opacity="0.6"/>
  <polyline points="20,160 22.1081,160 24.2162,160 26.3243,160 28.4324,160 30.5405,160 32.6486,160 34.7568,160 36.8649,160 38.973,159.018 41.0811,160 43.1892,160 45.2973,160 47.4054,145.276 49.5135,155.583 51.6216,157.546 53.7297,155.583 55.8378,157.055 57.9459,156.074 60.0541,160 62.1622,160 64.2703,160 66.3784,158.037 68.4865,159.018 70.5946,158.037 72.7027,156.564 74.8108,160 76.9189,158.528 79.027,156.564 81.1351,160 83.2432,154.11 85.3514,149.202 87.4595,149.202 89.5676,153.62 91.6757,141.84 93.7838,154.601 95.8919,160 98,154.601 100.108,160 102.216,160 104.324,157.546 106.432,148.221 108.541,159.018 110.649,160 112.757,158.037 114.865,160 116.973,159.509 119.081,160 121.189,160 123.297,160 125.405,160 127.514,151.656 129.622,155.583 131.73,156.074 133.838,157.546 135.946,150.675 138.054,160 140.162,158.037 142.27,156.564 144.378,158.037 146.486,156.074 148.595,160 150.703,154.11 152.811,160 154.919,159.509 157.027,160 159.135,160 161.243,157.546 163.351,160 165.459,160 167.568,160 169.676,160 171.784,160 173.892,160 176,160 178.108,160 180.216,160 182.324,160 184.432,160 186.541,160 188.649,160 190.757,160 192.865,160 194.973,160 197.081,154.601 199.189,158.037 201.297,160 203.405,160 205.514,160 207.622,160 209.73,160 211.838,160 213.946,160 216.054,160 218.162,160 220.27,160 222.378,160 224.486,160 226.595,160 228.703,160 230.811,160 232.919,160 235.027,160 237.135,160 239.243,160 241.351,160 243.459,160 245.568,157.055 247.676,160 249.784,160 251.892,160 254,160 256.108,155.092 258.216,160 260.324,160 262.432,160 264.541,160 266.649,137.423 268.757,153.62 270.865,80 272.973,155.092 275.081,149.202 277.189,155.092 279.297,158.037 281.405,158.528 283.514,159.509 285.622,156.074 287.73,160 289.838,159.018 291.946,160 294.054,159.509 296.162,159.018 298.27,159.509 300.378,160 302.486,158.528 304.595,160 306.703,159.018 308.811,159.018 310.919,157.546 313.027,157.055 315.135,160 317.243,160 319.351,159.509 321.459,159.509 323.568,158.528 325.676,159.509 327.784,157.055 329.892,157.055 332,159.018 334.108,158.528 336.216,147.239 338.324,157.055 340.432,129.08 342.541,147.239 344.649,153.129 346.757,160 348.865,160 350.973,160 353.081,151.656 355.189,158.528 357.297,160 359.405,160 361.514,138.405 363.622,158.528 365.73,160 367.838,160 369.946,160 372.054,160 374.162,160 376.27,160 378.378,160 380.486,160 382.595,160 384.703,160 386.811,160 388.919,160 391.027,160 393.135,160 395.243,160 397.351,159.509 399.459,160 401.568,160 403.676,160 405.784,160 407.892,160 410,160 412.108,160 414.216,160 416.324,160 418.432,159.509 420.541,158.037 422.649,160 424.757,160 426.865,160 428.973,160 431.081,160 433.189,160 435.297,160 437.405,160 439.514,160 441.622,160 443.73,160 445.838,159.509 447.946,158.037 450.054,157.055 452.162,160 454.27,160 456.378,160 458.486,156.564 460.595,157.546 462.703,147.239 464.811,160 466.919,160 469.027,160 471.135,155.092 473.243,148.221 475.351,160 477.459,160 479.568,158.037 481.676,160 483.784,158.037 485.892,160 488,160 490.108,160 492.216,160 494.324,160 496.432,160 498.541,159.018 500.649,144.294 502.757,159.018 504.865,160 506.973,139.387 509.081,121.718 511.189,120.736 513.297,147.73 515.405,146.258 517.514,157.055 519.622,160 521.73,160 523.838,160 525.946,160 528.054,160 530.162,160 532.27,160 534.378,160 536.486,157.546 538.595,153.62 540.703,148.712 542.811,160 544.919,149.202 547.027,149.693 549.135,134.969 551.243,146.258 553.351,145.767 555.459,146.258 557.568,150.184 559.676,154.11 561.784,154.601 563.892,154.11 566,157.055 568.108,156.564 570.216,159.509 572.324,160 574.432,160 576.541,160 578.649,160 580.757,160 582.865,160 584.973,160 587.081,160 589.189,158.528 591.297,159.509 593.405,160 595.514,160 597.622,159.509 599.73,142.331 601.838,144.785 603.946,157.055 606.054,158.528 608.162,160 610.27,160 612.378,159.509 614.486,160 616.595,160 618.703,159.018 620.811,153.62 622.919,159.018 625.027,160 627.135,160 629.243,149.693 631.351,155.583 633.459,158.528 635.568,156.074 637.676,155.583 639.784,159.509 641.892,159.509 644,160 646.108,160 648.216,151.656 650.324,140.859 652.432,155.092 654.541,160 656.649,141.84 658.757,150.184 660.865,152.147 662.973,160 665.081,160 667.189,160 669.297,160 671.405,160 673.514,160 675.622,160 677.73,160 679.838,160 681.946,160 684.054,160 686.162,160 688.27,158.037 690.378,160 692.486,160 694.595,160 696.703,160 698.811,160 700.919,160 703.027,160 705.135,160 707.243,160 709.351,160 711.459,160 713.568,160 715.676,160 717.784,160 719.892,156.564 722,154.601 724.108,160 726.216,160 728.324,160 730.432,160 732.541,159.509 734.649,160 736.757,160 738.865,159.509 740.973,159.509 743.081,160 745.189,159.509 747.297,160 749.405,160 751.514,156.074 753.622,159.509 755.73,159.509 757.838,160 759.946,158.037 762.054,160 764.162,160 766.27,160 768.378,160 770.486,160 772.595,160 774.703,160 776.811,150.184 778.919,158.528 781.027,159.509 783.135,159.018 785.243,160 787.351,160 789.459,160 791.568,160 793.676,160 795.784,160 797.892,160 800,160" fill="none" stroke="var(--accent)" stroke-width="1.5" stroke-linecap="round" stroke-linejoin="round"/>
</svg>

