<svg xmlns="http://www.w3.org/2000/svg" width="820" height="180" viewBox="0 0 820 180">

<style>
  :root {
    --bg:        #f6f8fa;
    --card:      #ffffff;
    --border:    #d0d7de;
    --primary:   #1f2328;
    --secondary: #636c76;
    --muted:     #8c959f;
    --accent:    #0969da;
    --green:     #1a7f37;
    --yellow:    #9a6700;
    --red:       #cf222e;
    --hover:     #f3f4f6;
    --spark-bg:  #f0f3f6;
    --spark:     #0969da;
    --pill:      #eaf1fb;
    --pill-txt:  #0969da;
    --div:       #d0d7de;
  }
  @media (prefers-color-scheme: dark) {
    :root {
      --bg:        #0d1117;
      --card:      #161b22;
      --border:    #30363d;
      --primary:   #e6edf3;
      --secondary: #848d97;
      --muted:     #7d8590;
      --accent:    #2f81f7;
      --green:     #3fb950;
      --yellow:    #d29922;
      --red:       #f85149;
      --hover:     #21262d;
      --spark-bg:  #1c2128;
      --spark:     #58a6ff;
      --pill:      #1c2d3f;
      --pill-txt:  #58a6ff;
      --div:       #30363d;
    }
  }
  
  .bg          { fill: var(--bg); }
  .card        { fill: var(--card); stroke: var(--border); stroke-width: 1; }
  .lang-pill   { fill: var(--pill); }
  .spark-bg    { fill: var(--spark-bg); }
  .spark-line  { stroke: var(--spark); }
  .divider     { stroke: var(--div); stroke-width: 1; }
  .clr-primary   { fill: var(--primary); }
  .clr-secondary { fill: var(--secondary); }
  .clr-muted     { fill: var(--muted); }
  .clr-accent    { fill: var(--accent); }
  .clr-green     { fill: var(--green); }
  .clr-yellow    { fill: var(--yellow); }
  .clr-red       { fill: var(--red); }
  .txt-bold    { font-weight: 600; }
  svg text     { font-family: -apple-system, BlinkMacSystemFont, "Segoe UI", Helvetica, Arial, sans-serif; }
</style>

<rect x="0" y="0" width="820" height="180" rx="8" class="card"/>
  <text x="20" y="24" class="clr-primary txt-bold" text-anchor="start" font-size="14">Contribution History &amp; Activity</text>
  <line x1="20" y1="36" x2="800" y2="36" class="divider"/>
  <text x="20" y="60" class="clr-muted" text-anchor="start" font-size="12">Years Active:</text>
  <text x="100" y="60" class="clr-primary txt-bold" text-anchor="start" font-size="12">5.7</text>
  <text x="160" y="60" class="clr-muted" text-anchor="start" font-size="12">Commits (Last Year):</text>
  <text x="290" y="60" class="clr-primary txt-bold" text-anchor="start" font-size="12">1204</text>
  <text x="360" y="60" class="clr-muted" text-anchor="start" font-size="12">Highest Daily:</text>
  <text x="450" y="60" class="clr-primary txt-bold" text-anchor="start" font-size="12">163</text>
  <polygon points="20,160 20,160 22.1253,160 24.2507,160 26.376,160 28.5014,160 30.6267,160 32.752,160 34.8774,160 37.0027,160 39.1281,160 41.2534,160 43.3787,160 45.5041,160 47.6294,160 49.7548,160 51.8801,160 54.0054,160 56.1308,160 58.2561,160 60.3815,160 62.5068,160 64.6322,160 66.7575,160 68.8828,159.018 71.0082,160 73.1335,160 75.2589,160 77.3842,145.276 79.5095,155.583 81.6349,157.546 83.7602,155.583 85.8856,157.055 88.0109,156.074 90.1362,160 92.2616,160 94.3869,160 96.5123,158.037 98.6376,159.018 100.763,158.037 102.888,156.564 105.014,160 107.139,158.528 109.264,156.564 111.39,160 113.515,154.11 115.64,149.202 117.766,149.202 119.891,153.62 122.016,141.84 124.142,154.601 126.267,160 128.392,154.601 130.518,160 132.643,160 134.768,157.546 136.894,148.221 139.019,159.018 141.144,160 143.27,158.037 145.395,160 147.52,159.509 149.646,160 151.771,160 153.896,160 156.022,160 158.147,151.656 160.272,155.583 162.398,156.074 164.523,157.546 166.649,150.675 168.774,160 170.899,158.037 173.025,156.564 175.15,158.037 177.275,156.074 179.401,160 181.526,154.11 183.651,160 185.777,159.509 187.902,160 190.027,160 192.153,157.546 194.278,160 196.403,160 198.529,160 200.654,160 202.779,160 204.905,160 207.03,160 209.155,160 211.281,160 213.406,160 215.531,160 217.657,160 219.782,160 221.907,160 224.033,160 226.158,160 228.283,154.601 230.409,158.037 232.534,160 234.659,160 236.785,160 238.91,160 241.035,160 243.161,160 245.286,160 247.411,160 249.537,160 251.662,160 253.787,160 255.913,160 258.038,160 260.163,160 262.289,160 264.414,160 266.54,160 268.665,160 270.79,160 272.916,160 275.041,160 277.166,157.055 279.292,160 281.417,160 283.542,160 285.668,160 287.793,155.092 289.918,160 292.044,160 294.169,160 296.294,160 298.42,137.423 300.545,153.62 302.67,80 304.796,155.092 306.921,149.202 309.046,155.092 311.172,158.037 313.297,158.528 315.422,159.509 317.548,156.074 319.673,160 321.798,159.018 323.924,160 326.049,159.509 328.174,159.018 330.3,159.509 332.425,160 334.55,158.528 336.676,160 338.801,159.018 340.926,159.018 343.052,157.546 345.177,157.055 347.302,160 349.428,160 351.553,159.509 353.678,159.509 355.804,158.528 357.929,159.509 360.054,157.055 362.18,157.055 364.305,159.018 366.431,158.528 368.556,147.239 370.681,157.055 372.807,129.08 374.932,147.239 377.057,153.129 379.183,160 381.308,160 383.433,160 385.559,151.656 387.684,158.528 389.809,160 391.935,160 394.06,138.405 396.185,158.528 398.311,160 400.436,160 402.561,160 404.687,160 406.812,160 408.937,160 411.063,160 413.188,160 415.313,160 417.439,160 419.564,160 421.689,160 423.815,160 425.94,160 428.065,160 430.191,159.509 432.316,160 434.441,160 436.567,160 438.692,160 440.817,160 442.943,160 445.068,160 447.193,160 449.319,160 451.444,159.509 453.569,158.037 455.695,160 457.82,160 459.946,160 462.071,160 464.196,160 466.322,160 468.447,160 470.572,160 472.698,160 474.823,160 476.948,160 479.074,159.509 481.199,158.037 483.324,157.055 485.45,160 487.575,160 489.7,160 491.826,156.564 493.951,157.546 496.076,147.239 498.202,160 500.327,160 502.452,160 504.578,155.092 506.703,148.221 508.828,160 510.954,160 513.079,158.037 515.204,160 517.33,158.037 519.455,160 521.58,160 523.706,160 525.831,160 527.956,160 530.082,160 532.207,159.018 534.332,144.294 536.458,159.018 538.583,160 540.708,139.387 542.834,121.718 544.959,120.736 547.084,147.73 549.21,146.258 551.335,157.055 553.46,160 555.586,160 557.711,160 559.837,160 561.962,160 564.087,160 566.213,160 568.338,160 570.463,157.546 572.589,153.62 574.714,148.712 576.839,160 578.965,149.202 581.09,149.693 583.215,134.969 585.341,146.258 587.466,145.767 589.591,146.258 591.717,150.184 593.842,154.11 595.967,154.601 598.093,154.11 600.218,157.055 602.343,156.564 604.469,159.509 606.594,160 608.719,160 610.845,160 612.97,160 615.095,160 617.221,160 619.346,160 621.471,160 623.597,158.528 625.722,159.509 627.847,160 629.973,160 632.098,159.509 634.223,142.331 636.349,144.785 638.474,157.055 640.599,158.528 642.725,160 644.85,160 646.975,159.509 649.101,160 651.226,160 653.351,159.018 655.477,153.62 657.602,159.018 659.728,160 661.853,160 663.978,149.693 666.104,155.583 668.229,158.528 670.354,156.074 672.48,155.583 674.605,159.509 676.73,159.509 678.856,160 680.981,160 683.106,151.656 685.232,140.859 687.357,155.092 689.482,160 691.608,141.84 693.733,150.184 695.858,152.147 697.984,160 700.109,160 702.234,160 704.36,160 706.485,160 708.61,160 710.736,160 712.861,160 714.986,160 717.112,160 719.237,160 721.362,160 723.488,158.037 725.613,160 727.738,160 729.864,160 731.989,160 734.114,160 736.24,160 738.365,160 740.49,160 742.616,160 744.741,160 746.866,160 748.992,160 751.117,160 753.243,160 755.368,156.564 757.493,154.601 759.619,160 761.744,160 763.869,160 765.995,160 768.12,159.509 770.245,160 772.371,160 774.496,159.509 776.621,159.509 778.747,160 780.872,159.509 782.997,160 785.123,160 787.248,156.074 789.373,159.509 791.499,159.509 793.624,160 795.749,158.037 797.875,160 800,160 800,160" fill="var(--pill)" opacity="0.6"/>
  <polyline points="20,160 22.1253,160 24.2507,160 26.376,160 28.5014,160 30.6267,160 32.752,160 34.8774,160 37.0027,160 39.1281,160 41.2534,160 43.3787,160 45.5041,160 47.6294,160 49.7548,160 51.8801,160 54.0054,160 56.1308,160 58.2561,160 60.3815,160 62.5068,160 64.6322,160 66.7575,160 68.8828,159.018 71.0082,160 73.1335,160 75.2589,160 77.3842,145.276 79.5095,155.583 81.6349,157.546 83.7602,155.583 85.8856,157.055 88.0109,156.074 90.1362,160 92.2616,160 94.3869,160 96.5123,158.037 98.6376,159.018 100.763,158.037 102.888,156.564 105.014,160 107.139,158.528 109.264,156.564 111.39,160 113.515,154.11 115.64,149.202 117.766,149.202 119.891,153.62 122.016,141.84 124.142,154.601 126.267,160 128.392,154.601 130.518,160 132.643,160 134.768,157.546 136.894,148.221 139.019,159.018 141.144,160 143.27,158.037 145.395,160 147.52,159.509 149.646,160 151.771,160 153.896,160 156.022,160 158.147,151.656 160.272,155.583 162.398,156.074 164.523,157.546 166.649,150.675 168.774,160 170.899,158.037 173.025,156.564 175.15,158.037 177.275,156.074 179.401,160 181.526,154.11 183.651,160 185.777,159.509 187.902,160 190.027,160 192.153,157.546 194.278,160 196.403,160 198.529,160 200.654,160 202.779,160 204.905,160 207.03,160 209.155,160 211.281,160 213.406,160 215.531,160 217.657,160 219.782,160 221.907,160 224.033,160 226.158,160 228.283,154.601 230.409,158.037 232.534,160 234.659,160 236.785,160 238.91,160 241.035,160 243.161,160 245.286,160 247.411,160 249.537,160 251.662,160 253.787,160 255.913,160 258.038,160 260.163,160 262.289,160 264.414,160 266.54,160 268.665,160 270.79,160 272.916,160 275.041,160 277.166,157.055 279.292,160 281.417,160 283.542,160 285.668,160 287.793,155.092 289.918,160 292.044,160 294.169,160 296.294,160 298.42,137.423 300.545,153.62 302.67,80 304.796,155.092 306.921,149.202 309.046,155.092 311.172,158.037 313.297,158.528 315.422,159.509 317.548,156.074 319.673,160 321.798,159.018 323.924,160 326.049,159.509 328.174,159.018 330.3,159.509 332.425,160 334.55,158.528 336.676,160 338.801,159.018 340.926,159.018 343.052,157.546 345.177,157.055 347.302,160 349.428,160 351.553,159.509 353.678,159.509 355.804,158.528 357.929,159.509 360.054,157.055 362.18,157.055 364.305,159.018 366.431,158.528 368.556,147.239 370.681,157.055 372.807,129.08 374.932,147.239 377.057,153.129 379.183,160 381.308,160 383.433,160 385.559,151.656 387.684,158.528 389.809,160 391.935,160 394.06,138.405 396.185,158.528 398.311,160 400.436,160 402.561,160 404.687,160 406.812,160 408.937,160 411.063,160 413.188,160 415.313,160 417.439,160 419.564,160 421.689,160 423.815,160 425.94,160 428.065,160 430.191,159.509 432.316,160 434.441,160 436.567,160 438.692,160 440.817,160 442.943,160 445.068,160 447.193,160 449.319,160 451.444,159.509 453.569,158.037 455.695,160 457.82,160 459.946,160 462.071,160 464.196,160 466.322,160 468.447,160 470.572,160 472.698,160 474.823,160 476.948,160 479.074,159.509 481.199,158.037 483.324,157.055 485.45,160 487.575,160 489.7,160 491.826,156.564 493.951,157.546 496.076,147.239 498.202,160 500.327,160 502.452,160 504.578,155.092 506.703,148.221 508.828,160 510.954,160 513.079,158.037 515.204,160 517.33,158.037 519.455,160 521.58,160 523.706,160 525.831,160 527.956,160 530.082,160 532.207,159.018 534.332,144.294 536.458,159.018 538.583,160 540.708,139.387 542.834,121.718 544.959,120.736 547.084,147.73 549.21,146.258 551.335,157.055 553.46,160 555.586,160 557.711,160 559.837,160 561.962,160 564.087,160 566.213,160 568.338,160 570.463,157.546 572.589,153.62 574.714,148.712 576.839,160 578.965,149.202 581.09,149.693 583.215,134.969 585.341,146.258 587.466,145.767 589.591,146.258 591.717,150.184 593.842,154.11 595.967,154.601 598.093,154.11 600.218,157.055 602.343,156.564 604.469,159.509 606.594,160 608.719,160 610.845,160 612.97,160 615.095,160 617.221,160 619.346,160 621.471,160 623.597,158.528 625.722,159.509 627.847,160 629.973,160 632.098,159.509 634.223,142.331 636.349,144.785 638.474,157.055 640.599,158.528 642.725,160 644.85,160 646.975,159.509 649.101,160 651.226,160 653.351,159.018 655.477,153.62 657.602,159.018 659.728,160 661.853,160 663.978,149.693 666.104,155.583 668.229,158.528 670.354,156.074 672.48,155.583 674.605,159.509 676.73,159.509 678.856,160 680.981,160 683.106,151.656 685.232,140.859 687.357,155.092 689.482,160 691.608,141.84 693.733,150.184 695.858,152.147 697.984,160 700.109,160 702.234,160 704.36,160 706.485,160 708.61,160 710.736,160 712.861,160 714.986,160 717.112,160 719.237,160 721.362,160 723.488,158.037 725.613,160 727.738,160 729.864,160 731.989,160 734.114,160 736.24,160 738.365,160 740.49,160 742.616,160 744.741,160 746.866,160 748.992,160 751.117,160 753.243,160 755.368,156.564 757.493,154.601 759.619,160 761.744,160 763.869,160 765.995,160 768.12,159.509 770.245,160 772.371,160 774.496,159.509 776.621,159.509 778.747,160 780.872,159.509 782.997,160 785.123,160 787.248,156.074 789.373,159.509 791.499,159.509 793.624,160 795.749,158.037 797.875,160 800,160" fill="none" stroke="var(--accent)" stroke-width="1.5" stroke-linecap="round" stroke-linejoin="round"/>
</svg>

