<svg xmlns="http://www.w3.org/2000/svg" width="820" height="180" viewBox="0 0 820 180">

<style>
  :root {
    --bg:        #f6f8fa;
    --card:      #ffffff;
    --border:    #d0d7de;
    --primary:   #1f2328;
    --secondary: #636c76;
    --muted:     #8c959f;
    --accent:    #0969da;
    --green:     #1a7f37;
    --yellow:    #9a6700;
    --red:       #cf222e;
    --hover:     #f3f4f6;
    --spark-bg:  #f0f3f6;
    --spark:     #0969da;
    --pill:      #eaf1fb;
    --pill-txt:  #0969da;
    --div:       #d0d7de;
  }
  @media (prefers-color-scheme: dark) {
    :root {
      --bg:        #0d1117;
      --card:      #161b22;
      --border:    #30363d;
      --primary:   #e6edf3;
      --secondary: #848d97;
      --muted:     #7d8590;
      --accent:    #2f81f7;
      --green:     #3fb950;
      --yellow:    #d29922;
      --red:       #f85149;
      --hover:     #21262d;
      --spark-bg:  #1c2128;
      --spark:     #58a6ff;
      --pill:      #1c2d3f;
      --pill-txt:  #58a6ff;
      --div:       #30363d;
    }
  }
  
  .bg          { fill: var(--bg); }
  .card        { fill: var(--card); stroke: var(--border); stroke-width: 1; }
  .lang-pill   { fill: var(--pill); }
  .spark-bg    { fill: var(--spark-bg); }
  .spark-line  { stroke: var(--spark); }
  .divider     { stroke: var(--div); stroke-width: 1; }
  .clr-primary   { fill: var(--primary); }
  .clr-secondary { fill: var(--secondary); }
  .clr-muted     { fill: var(--muted); }
  .clr-accent    { fill: var(--accent); }
  .clr-green     { fill: var(--green); }
  .clr-yellow    { fill: var(--yellow); }
  .clr-red       { fill: var(--red); }
  .txt-bold    { font-weight: 600; }
  svg text     { font-family: -apple-system, BlinkMacSystemFont, "Segoe UI", Helvetica, Arial, sans-serif; }
</style>

<rect x="0" y="0" width="820" height="180" rx="8" class="card"/>
  <text x="20" y="24" class="clr-primary txt-bold" text-anchor="start" font-size="14">Contribution History &amp; Activity</text>
  <line x1="20" y1="36" x2="800" y2="36" class="divider"/>
  <text x="20" y="60" class="clr-muted" text-anchor="start" font-size="12">Years Active:</text>
  <text x="100" y="60" class="clr-primary txt-bold" text-anchor="start" font-size="12">5.6</text>
  <text x="160" y="60" class="clr-muted" text-anchor="start" font-size="12">Commits (Last Year):</text>
  <text x="290" y="60" class="clr-primary txt-bold" text-anchor="start" font-size="12">1122</text>
  <text x="360" y="60" class="clr-muted" text-anchor="start" font-size="12">Highest Daily:</text>
  <text x="450" y="60" class="clr-primary txt-bold" text-anchor="start" font-size="12">163</text>
  <polygon points="20,160 20,160 22.1081,160 24.2162,160 26.3243,160 28.4324,160 30.5405,160 32.6486,153.62 34.7568,160 36.8649,160 38.973,160 41.0811,154.11 43.1892,157.055 45.2973,160 47.4054,160 49.5135,160 51.6216,160 53.7297,160 55.8378,160 57.9459,159.018 60.0541,160 62.1622,160 64.2703,160 66.3784,160 68.4865,160 70.5946,160 72.7027,160 74.8108,160 76.9189,160 79.027,160 81.1351,160 83.2432,160 85.3514,160 87.4595,160 89.5676,160 91.6757,160 93.7838,160 95.8919,160 98,160 100.108,160 102.216,160 104.324,160 106.432,160 108.541,160 110.649,160 112.757,160 114.865,160 116.973,160 119.081,160 121.189,160 123.297,160 125.405,160 127.514,160 129.622,160 131.73,159.509 133.838,160 135.946,160 138.054,160 140.162,160 142.27,160 144.378,160 146.486,160 148.595,160 150.703,160 152.811,160 154.919,160 157.027,160 159.135,160 161.243,160 163.351,160 165.459,160 167.568,160 169.676,160 171.784,160 173.892,160 176,160 178.108,160 180.216,160 182.324,160 184.432,160 186.541,159.018 188.649,160 190.757,160 192.865,160 194.973,145.276 197.081,155.583 199.189,157.546 201.297,155.583 203.405,157.055 205.514,156.074 207.622,160 209.73,160 211.838,160 213.946,158.037 216.054,159.018 218.162,158.037 220.27,156.564 222.378,160 224.486,158.528 226.595,156.564 228.703,160 230.811,154.11 232.919,149.202 235.027,149.202 237.135,153.62 239.243,141.84 241.351,154.601 243.459,160 245.568,154.601 247.676,160 249.784,160 251.892,157.546 254,148.221 256.108,159.018 258.216,160 260.324,158.037 262.432,160 264.541,159.509 266.649,160 268.757,160 270.865,160 272.973,160 275.081,151.656 277.189,155.583 279.297,156.074 281.405,157.546 283.514,150.675 285.622,160 287.73,158.037 289.838,156.564 291.946,158.037 294.054,156.074 296.162,160 298.27,154.11 300.378,160 302.486,159.509 304.595,160 306.703,160 308.811,157.546 310.919,160 313.027,160 315.135,160 317.243,160 319.351,160 321.459,160 323.568,160 325.676,160 327.784,160 329.892,160 332,160 334.108,160 336.216,160 338.324,160 340.432,160 342.541,160 344.649,154.601 346.757,158.037 348.865,160 350.973,160 353.081,160 355.189,160 357.297,160 359.405,160 361.514,160 363.622,160 365.73,160 367.838,160 369.946,160 372.054,160 374.162,160 376.27,160 378.378,160 380.486,160 382.595,160 384.703,160 386.811,160 388.919,160 391.027,160 393.135,157.055 395.243,160 397.351,160 399.459,160 401.568,160 403.676,155.092 405.784,160 407.892,160 410,160 412.108,160 414.216,137.423 416.324,153.62 418.432,80 420.541,155.092 422.649,149.202 424.757,155.092 426.865,158.037 428.973,158.528 431.081,159.509 433.189,156.074 435.297,160 437.405,159.018 439.514,160 441.622,159.509 443.73,159.018 445.838,159.509 447.946,160 450.054,158.528 452.162,160 454.27,159.018 456.378,159.018 458.486,157.546 460.595,157.055 462.703,160 464.811,160 466.919,159.509 469.027,159.509 471.135,158.528 473.243,159.509 475.351,157.055 477.459,157.055 479.568,159.018 481.676,158.528 483.784,147.239 485.892,157.055 488,129.08 490.108,147.239 492.216,153.129 494.324,160 496.432,160 498.541,160 500.649,151.656 502.757,158.528 504.865,160 506.973,160 509.081,138.405 511.189,158.528 513.297,160 515.405,160 517.514,160 519.622,160 521.73,160 523.838,160 525.946,160 528.054,160 530.162,160 532.27,160 534.378,160 536.486,160 538.595,160 540.703,160 542.811,160 544.919,159.509 547.027,160 549.135,160 551.243,160 553.351,160 555.459,160 557.568,160 559.676,160 561.784,160 563.892,160 566,159.509 568.108,158.037 570.216,160 572.324,160 574.432,160 576.541,160 578.649,160 580.757,160 582.865,160 584.973,160 587.081,160 589.189,160 591.297,160 593.405,159.509 595.514,158.037 597.622,157.055 599.73,160 601.838,160 603.946,160 606.054,156.564 608.162,157.546 610.27,147.239 612.378,160 614.486,160 616.595,160 618.703,155.092 620.811,148.221 622.919,160 625.027,160 627.135,158.037 629.243,160 631.351,158.037 633.459,160 635.568,160 637.676,160 639.784,160 641.892,160 644,160 646.108,159.018 648.216,144.294 650.324,159.018 652.432,160 654.541,139.387 656.649,121.718 658.757,120.736 660.865,147.73 662.973,146.258 665.081,157.055 667.189,160 669.297,160 671.405,160 673.514,160 675.622,160 677.73,160 679.838,160 681.946,160 684.054,157.546 686.162,153.62 688.27,148.712 690.378,160 692.486,149.202 694.595,149.693 696.703,134.969 698.811,146.258 700.919,145.767 703.027,146.258 705.135,150.184 707.243,154.11 709.351,154.601 711.459,154.11 713.568,157.055 715.676,156.564 717.784,159.509 719.892,160 722,160 724.108,160 726.216,160 728.324,160 730.432,160 732.541,160 734.649,160 736.757,158.528 738.865,159.509 740.973,160 743.081,160 745.189,159.509 747.297,142.331 749.405,144.785 751.514,157.055 753.622,158.528 755.73,160 757.838,160 759.946,159.509 762.054,160 764.162,160 766.27,159.018 768.378,153.62 770.486,159.018 772.595,160 774.703,160 776.811,149.693 778.919,155.583 781.027,158.528 783.135,156.074 785.243,155.583 787.351,159.509 789.459,159.509 791.568,160 793.676,160 795.784,151.656 797.892,140.859 800,159.018 800,160" fill="var(--pill)" opacity="0.6"/>
  <polyline points="20,160 22.1081,160 24.2162,160 26.3243,160 28.4324,160 30.5405,160 32.6486,153.62 34.7568,160 36.8649,160 38.973,160 41.0811,154.11 43.1892,157.055 45.2973,160 47.4054,160 49.5135,160 51.6216,160 53.7297,160 55.8378,160 57.9459,159.018 60.0541,160 62.1622,160 64.2703,160 66.3784,160 68.4865,160 70.5946,160 72.7027,160 74.8108,160 76.9189,160 79.027,160 81.1351,160 83.2432,160 85.3514,160 87.4595,160 89.5676,160 91.6757,160 93.7838,160 95.8919,160 98,160 100.108,160 102.216,160 104.324,160 106.432,160 108.541,160 110.649,160 112.757,160 114.865,160 116.973,160 119.081,160 121.189,160 123.297,160 125.405,160 127.514,160 129.622,160 131.73,159.509 133.838,160 135.946,160 138.054,160 140.162,160 142.27,160 144.378,160 146.486,160 148.595,160 150.703,160 152.811,160 154.919,160 157.027,160 159.135,160 161.243,160 163.351,160 165.459,160 167.568,160 169.676,160 171.784,160 173.892,160 176,160 178.108,160 180.216,160 182.324,160 184.432,160 186.541,159.018 188.649,160 190.757,160 192.865,160 194.973,145.276 197.081,155.583 199.189,157.546 201.297,155.583 203.405,157.055 205.514,156.074 207.622,160 209.73,160 211.838,160 213.946,158.037 216.054,159.018 218.162,158.037 220.27,156.564 222.378,160 224.486,158.528 226.595,156.564 228.703,160 230.811,154.11 232.919,149.202 235.027,149.202 237.135,153.62 239.243,141.84 241.351,154.601 243.459,160 245.568,154.601 247.676,160 249.784,160 251.892,157.546 254,148.221 256.108,159.018 258.216,160 260.324,158.037 262.432,160 264.541,159.509 266.649,160 268.757,160 270.865,160 272.973,160 275.081,151.656 277.189,155.583 279.297,156.074 281.405,157.546 283.514,150.675 285.622,160 287.73,158.037 289.838,156.564 291.946,158.037 294.054,156.074 296.162,160 298.27,154.11 300.378,160 302.486,159.509 304.595,160 306.703,160 308.811,157.546 310.919,160 313.027,160 315.135,160 317.243,160 319.351,160 321.459,160 323.568,160 325.676,160 327.784,160 329.892,160 332,160 334.108,160 336.216,160 338.324,160 340.432,160 342.541,160 344.649,154.601 346.757,158.037 348.865,160 350.973,160 353.081,160 355.189,160 357.297,160 359.405,160 361.514,160 363.622,160 365.73,160 367.838,160 369.946,160 372.054,160 374.162,160 376.27,160 378.378,160 380.486,160 382.595,160 384.703,160 386.811,160 388.919,160 391.027,160 393.135,157.055 395.243,160 397.351,160 399.459,160 401.568,160 403.676,155.092 405.784,160 407.892,160 410,160 412.108,160 414.216,137.423 416.324,153.62 418.432,80 420.541,155.092 422.649,149.202 424.757,155.092 426.865,158.037 428.973,158.528 431.081,159.509 433.189,156.074 435.297,160 437.405,159.018 439.514,160 441.622,159.509 443.73,159.018 445.838,159.509 447.946,160 450.054,158.528 452.162,160 454.27,159.018 456.378,159.018 458.486,157.546 460.595,157.055 462.703,160 464.811,160 466.919,159.509 469.027,159.509 471.135,158.528 473.243,159.509 475.351,157.055 477.459,157.055 479.568,159.018 481.676,158.528 483.784,147.239 485.892,157.055 488,129.08 490.108,147.239 492.216,153.129 494.324,160 496.432,160 498.541,160 500.649,151.656 502.757,158.528 504.865,160 506.973,160 509.081,138.405 511.189,158.528 513.297,160 515.405,160 517.514,160 519.622,160 521.73,160 523.838,160 525.946,160 528.054,160 530.162,160 532.27,160 534.378,160 536.486,160 538.595,160 540.703,160 542.811,160 544.919,159.509 547.027,160 549.135,160 551.243,160 553.351,160 555.459,160 557.568,160 559.676,160 561.784,160 563.892,160 566,159.509 568.108,158.037 570.216,160 572.324,160 574.432,160 576.541,160 578.649,160 580.757,160 582.865,160 584.973,160 587.081,160 589.189,160 591.297,160 593.405,159.509 595.514,158.037 597.622,157.055 599.73,160 601.838,160 603.946,160 606.054,156.564 608.162,157.546 610.27,147.239 612.378,160 614.486,160 616.595,160 618.703,155.092 620.811,148.221 622.919,160 625.027,160 627.135,158.037 629.243,160 631.351,158.037 633.459,160 635.568,160 637.676,160 639.784,160 641.892,160 644,160 646.108,159.018 648.216,144.294 650.324,159.018 652.432,160 654.541,139.387 656.649,121.718 658.757,120.736 660.865,147.73 662.973,146.258 665.081,157.055 667.189,160 669.297,160 671.405,160 673.514,160 675.622,160 677.73,160 679.838,160 681.946,160 684.054,157.546 686.162,153.62 688.27,148.712 690.378,160 692.486,149.202 694.595,149.693 696.703,134.969 698.811,146.258 700.919,145.767 703.027,146.258 705.135,150.184 707.243,154.11 709.351,154.601 711.459,154.11 713.568,157.055 715.676,156.564 717.784,159.509 719.892,160 722,160 724.108,160 726.216,160 728.324,160 730.432,160 732.541,160 734.649,160 736.757,158.528 738.865,159.509 740.973,160 743.081,160 745.189,159.509 747.297,142.331 749.405,144.785 751.514,157.055 753.622,158.528 755.73,160 757.838,160 759.946,159.509 762.054,160 764.162,160 766.27,159.018 768.378,153.62 770.486,159.018 772.595,160 774.703,160 776.811,149.693 778.919,155.583 781.027,158.528 783.135,156.074 785.243,155.583 787.351,159.509 789.459,159.509 791.568,160 793.676,160 795.784,151.656 797.892,140.859 800,159.018" fill="none" stroke="var(--accent)" stroke-width="1.5" stroke-linecap="round" stroke-linejoin="round"/>
</svg>

