<svg xmlns="http://www.w3.org/2000/svg" width="820" height="180" viewBox="0 0 820 180">

<style>
  :root {
    --bg:        #f6f8fa;
    --card:      #ffffff;
    --border:    #d0d7de;
    --primary:   #1f2328;
    --secondary: #636c76;
    --muted:     #8c959f;
    --accent:    #0969da;
    --green:     #1a7f37;
    --yellow:    #9a6700;
    --red:       #cf222e;
    --hover:     #f3f4f6;
    --spark-bg:  #f0f3f6;
    --spark:     #0969da;
    --pill:      #eaf1fb;
    --pill-txt:  #0969da;
    --div:       #d0d7de;
  }
  @media (prefers-color-scheme: dark) {
    :root {
      --bg:        #0d1117;
      --card:      #161b22;
      --border:    #30363d;
      --primary:   #e6edf3;
      --secondary: #848d97;
      --muted:     #7d8590;
      --accent:    #2f81f7;
      --green:     #3fb950;
      --yellow:    #d29922;
      --red:       #f85149;
      --hover:     #21262d;
      --spark-bg:  #1c2128;
      --spark:     #58a6ff;
      --pill:      #1c2d3f;
      --pill-txt:  #58a6ff;
      --div:       #30363d;
    }
  }
  
  .bg          { fill: var(--bg); }
  .card        { fill: var(--card); stroke: var(--border); stroke-width: 1; }
  .lang-pill   { fill: var(--pill); }
  .spark-bg    { fill: var(--spark-bg); }
  .spark-line  { stroke: var(--spark); }
  .divider     { stroke: var(--div); stroke-width: 1; }
  .clr-primary   { fill: var(--primary); }
  .clr-secondary { fill: var(--secondary); }
  .clr-muted     { fill: var(--muted); }
  .clr-accent    { fill: var(--accent); }
  .clr-green     { fill: var(--green); }
  .clr-yellow    { fill: var(--yellow); }
  .clr-red       { fill: var(--red); }
  .txt-bold    { font-weight: 600; }
  svg text     { font-family: -apple-system, BlinkMacSystemFont, "Segoe UI", Helvetica, Arial, sans-serif; }
</style>

<rect x="0" y="0" width="820" height="180" rx="8" class="card"/>
  <text x="20" y="24" class="clr-primary txt-bold" text-anchor="start" font-size="14">Contribution History &amp; Activity</text>
  <line x1="20" y1="36" x2="800" y2="36" class="divider"/>
  <text x="20" y="60" class="clr-muted" text-anchor="start" font-size="12">Years Active:</text>
  <text x="100" y="60" class="clr-primary txt-bold" text-anchor="start" font-size="12">5.6</text>
  <text x="160" y="60" class="clr-muted" text-anchor="start" font-size="12">Commits (Last Year):</text>
  <text x="290" y="60" class="clr-primary txt-bold" text-anchor="start" font-size="12">1170</text>
  <text x="360" y="60" class="clr-muted" text-anchor="start" font-size="12">Highest Daily:</text>
  <text x="450" y="60" class="clr-primary txt-bold" text-anchor="start" font-size="12">163</text>
  <polygon points="20,160 20,160 22.1196,160 24.2391,160 26.3587,160 28.4783,159.018 30.5978,160 32.7174,160 34.837,160 36.9565,160 39.0761,160 41.1957,160 43.3152,160 45.4348,160 47.5543,160 49.6739,160 51.7935,160 53.913,160 56.0326,160 58.1522,160 60.2717,160 62.3913,160 64.5109,160 66.6304,160 68.75,160 70.8696,160 72.9891,160 75.1087,160 77.2283,160 79.3478,160 81.4674,160 83.587,160 85.7065,160 87.8261,160 89.9457,160 92.0652,160 94.1848,160 96.3043,160 98.4239,160 100.543,160 102.663,159.509 104.783,160 106.902,160 109.022,160 111.141,160 113.261,160 115.38,160 117.5,160 119.62,160 121.739,160 123.859,160 125.978,160 128.098,160 130.217,160 132.337,160 134.457,160 136.576,160 138.696,160 140.815,160 142.935,160 145.054,160 147.174,160 149.293,160 151.413,160 153.533,160 155.652,160 157.772,159.018 159.891,160 162.011,160 164.13,160 166.25,145.276 168.37,155.583 170.489,157.546 172.609,155.583 174.728,157.055 176.848,156.074 178.967,160 181.087,160 183.207,160 185.326,158.037 187.446,159.018 189.565,158.037 191.685,156.564 193.804,160 195.924,158.528 198.043,156.564 200.163,160 202.283,154.11 204.402,149.202 206.522,149.202 208.641,153.62 210.761,141.84 212.88,154.601 215,160 217.12,154.601 219.239,160 221.359,160 223.478,157.546 225.598,148.221 227.717,159.018 229.837,160 231.957,158.037 234.076,160 236.196,159.509 238.315,160 240.435,160 242.554,160 244.674,160 246.793,151.656 248.913,155.583 251.033,156.074 253.152,157.546 255.272,150.675 257.391,160 259.511,158.037 261.63,156.564 263.75,158.037 265.87,156.074 267.989,160 270.109,154.11 272.228,160 274.348,159.509 276.467,160 278.587,160 280.707,157.546 282.826,160 284.946,160 287.065,160 289.185,160 291.304,160 293.424,160 295.543,160 297.663,160 299.783,160 301.902,160 304.022,160 306.141,160 308.261,160 310.38,160 312.5,160 314.62,160 316.739,154.601 318.859,158.037 320.978,160 323.098,160 325.217,160 327.337,160 329.457,160 331.576,160 333.696,160 335.815,160 337.935,160 340.054,160 342.174,160 344.293,160 346.413,160 348.533,160 350.652,160 352.772,160 354.891,160 357.011,160 359.13,160 361.25,160 363.37,160 365.489,157.055 367.609,160 369.728,160 371.848,160 373.967,160 376.087,155.092 378.207,160 380.326,160 382.446,160 384.565,160 386.685,137.423 388.804,153.62 390.924,80 393.043,155.092 395.163,149.202 397.283,155.092 399.402,158.037 401.522,158.528 403.641,159.509 405.761,156.074 407.88,160 410,159.018 412.12,160 414.239,159.509 416.359,159.018 418.478,159.509 420.598,160 422.717,158.528 424.837,160 426.957,159.018 429.076,159.018 431.196,157.546 433.315,157.055 435.435,160 437.554,160 439.674,159.509 441.793,159.509 443.913,158.528 446.033,159.509 448.152,157.055 450.272,157.055 452.391,159.018 454.511,158.528 456.63,147.239 458.75,157.055 460.87,129.08 462.989,147.239 465.109,153.129 467.228,160 469.348,160 471.467,160 473.587,151.656 475.707,158.528 477.826,160 479.946,160 482.065,138.405 484.185,158.528 486.304,160 488.424,160 490.543,160 492.663,160 494.783,160 496.902,160 499.022,160 501.141,160 503.261,160 505.38,160 507.5,160 509.62,160 511.739,160 513.859,160 515.978,160 518.098,159.509 520.217,160 522.337,160 524.457,160 526.576,160 528.696,160 530.815,160 532.935,160 535.054,160 537.174,160 539.293,159.509 541.413,158.037 543.533,160 545.652,160 547.772,160 549.891,160 552.011,160 554.13,160 556.25,160 558.37,160 560.489,160 562.609,160 564.728,160 566.848,159.509 568.967,158.037 571.087,157.055 573.207,160 575.326,160 577.446,160 579.565,156.564 581.685,157.546 583.804,147.239 585.924,160 588.043,160 590.163,160 592.283,155.092 594.402,148.221 596.522,160 598.641,160 600.761,158.037 602.88,160 605,158.037 607.12,160 609.239,160 611.359,160 613.478,160 615.598,160 617.717,160 619.837,159.018 621.957,144.294 624.076,159.018 626.196,160 628.315,139.387 630.435,121.718 632.554,120.736 634.674,147.73 636.793,146.258 638.913,157.055 641.033,160 643.152,160 645.272,160 647.391,160 649.511,160 651.63,160 653.75,160 655.87,160 657.989,157.546 660.109,153.62 662.228,148.712 664.348,160 666.467,149.202 668.587,149.693 670.707,134.969 672.826,146.258 674.946,145.767 677.065,146.258 679.185,150.184 681.304,154.11 683.424,154.601 685.543,154.11 687.663,157.055 689.783,156.564 691.902,159.509 694.022,160 696.141,160 698.261,160 700.38,160 702.5,160 704.62,160 706.739,160 708.859,160 710.978,158.528 713.098,159.509 715.217,160 717.337,160 719.457,159.509 721.576,142.331 723.696,144.785 725.815,157.055 727.935,158.528 730.054,160 732.174,160 734.293,159.509 736.413,160 738.533,160 740.652,159.018 742.772,153.62 744.891,159.018 747.011,160 749.13,160 751.25,149.693 753.37,155.583 755.489,158.528 757.609,156.074 759.728,155.583 761.848,159.509 763.967,159.509 766.087,160 768.207,160 770.326,151.656 772.446,140.859 774.565,155.092 776.685,160 778.804,141.84 780.924,150.184 783.043,152.147 785.163,160 787.283,160 789.402,160 791.522,160 793.641,160 795.761,160 797.88,160 800,160 800,160" fill="var(--pill)" opacity="0.6"/>
  <polyline points="20,160 22.1196,160 24.2391,160 26.3587,160 28.4783,159.018 30.5978,160 32.7174,160 34.837,160 36.9565,160 39.0761,160 41.1957,160 43.3152,160 45.4348,160 47.5543,160 49.6739,160 51.7935,160 53.913,160 56.0326,160 58.1522,160 60.2717,160 62.3913,160 64.5109,160 66.6304,160 68.75,160 70.8696,160 72.9891,160 75.1087,160 77.2283,160 79.3478,160 81.4674,160 83.587,160 85.7065,160 87.8261,160 89.9457,160 92.0652,160 94.1848,160 96.3043,160 98.4239,160 100.543,160 102.663,159.509 104.783,160 106.902,160 109.022,160 111.141,160 113.261,160 115.38,160 117.5,160 119.62,160 121.739,160 123.859,160 125.978,160 128.098,160 130.217,160 132.337,160 134.457,160 136.576,160 138.696,160 140.815,160 142.935,160 145.054,160 147.174,160 149.293,160 151.413,160 153.533,160 155.652,160 157.772,159.018 159.891,160 162.011,160 164.13,160 166.25,145.276 168.37,155.583 170.489,157.546 172.609,155.583 174.728,157.055 176.848,156.074 178.967,160 181.087,160 183.207,160 185.326,158.037 187.446,159.018 189.565,158.037 191.685,156.564 193.804,160 195.924,158.528 198.043,156.564 200.163,160 202.283,154.11 204.402,149.202 206.522,149.202 208.641,153.62 210.761,141.84 212.88,154.601 215,160 217.12,154.601 219.239,160 221.359,160 223.478,157.546 225.598,148.221 227.717,159.018 229.837,160 231.957,158.037 234.076,160 236.196,159.509 238.315,160 240.435,160 242.554,160 244.674,160 246.793,151.656 248.913,155.583 251.033,156.074 253.152,157.546 255.272,150.675 257.391,160 259.511,158.037 261.63,156.564 263.75,158.037 265.87,156.074 267.989,160 270.109,154.11 272.228,160 274.348,159.509 276.467,160 278.587,160 280.707,157.546 282.826,160 284.946,160 287.065,160 289.185,160 291.304,160 293.424,160 295.543,160 297.663,160 299.783,160 301.902,160 304.022,160 306.141,160 308.261,160 310.38,160 312.5,160 314.62,160 316.739,154.601 318.859,158.037 320.978,160 323.098,160 325.217,160 327.337,160 329.457,160 331.576,160 333.696,160 335.815,160 337.935,160 340.054,160 342.174,160 344.293,160 346.413,160 348.533,160 350.652,160 352.772,160 354.891,160 357.011,160 359.13,160 361.25,160 363.37,160 365.489,157.055 367.609,160 369.728,160 371.848,160 373.967,160 376.087,155.092 378.207,160 380.326,160 382.446,160 384.565,160 386.685,137.423 388.804,153.62 390.924,80 393.043,155.092 395.163,149.202 397.283,155.092 399.402,158.037 401.522,158.528 403.641,159.509 405.761,156.074 407.88,160 410,159.018 412.12,160 414.239,159.509 416.359,159.018 418.478,159.509 420.598,160 422.717,158.528 424.837,160 426.957,159.018 429.076,159.018 431.196,157.546 433.315,157.055 435.435,160 437.554,160 439.674,159.509 441.793,159.509 443.913,158.528 446.033,159.509 448.152,157.055 450.272,157.055 452.391,159.018 454.511,158.528 456.63,147.239 458.75,157.055 460.87,129.08 462.989,147.239 465.109,153.129 467.228,160 469.348,160 471.467,160 473.587,151.656 475.707,158.528 477.826,160 479.946,160 482.065,138.405 484.185,158.528 486.304,160 488.424,160 490.543,160 492.663,160 494.783,160 496.902,160 499.022,160 501.141,160 503.261,160 505.38,160 507.5,160 509.62,160 511.739,160 513.859,160 515.978,160 518.098,159.509 520.217,160 522.337,160 524.457,160 526.576,160 528.696,160 530.815,160 532.935,160 535.054,160 537.174,160 539.293,159.509 541.413,158.037 543.533,160 545.652,160 547.772,160 549.891,160 552.011,160 554.13,160 556.25,160 558.37,160 560.489,160 562.609,160 564.728,160 566.848,159.509 568.967,158.037 571.087,157.055 573.207,160 575.326,160 577.446,160 579.565,156.564 581.685,157.546 583.804,147.239 585.924,160 588.043,160 590.163,160 592.283,155.092 594.402,148.221 596.522,160 598.641,160 600.761,158.037 602.88,160 605,158.037 607.12,160 609.239,160 611.359,160 613.478,160 615.598,160 617.717,160 619.837,159.018 621.957,144.294 624.076,159.018 626.196,160 628.315,139.387 630.435,121.718 632.554,120.736 634.674,147.73 636.793,146.258 638.913,157.055 641.033,160 643.152,160 645.272,160 647.391,160 649.511,160 651.63,160 653.75,160 655.87,160 657.989,157.546 660.109,153.62 662.228,148.712 664.348,160 666.467,149.202 668.587,149.693 670.707,134.969 672.826,146.258 674.946,145.767 677.065,146.258 679.185,150.184 681.304,154.11 683.424,154.601 685.543,154.11 687.663,157.055 689.783,156.564 691.902,159.509 694.022,160 696.141,160 698.261,160 700.38,160 702.5,160 704.62,160 706.739,160 708.859,160 710.978,158.528 713.098,159.509 715.217,160 717.337,160 719.457,159.509 721.576,142.331 723.696,144.785 725.815,157.055 727.935,158.528 730.054,160 732.174,160 734.293,159.509 736.413,160 738.533,160 740.652,159.018 742.772,153.62 744.891,159.018 747.011,160 749.13,160 751.25,149.693 753.37,155.583 755.489,158.528 757.609,156.074 759.728,155.583 761.848,159.509 763.967,159.509 766.087,160 768.207,160 770.326,151.656 772.446,140.859 774.565,155.092 776.685,160 778.804,141.84 780.924,150.184 783.043,152.147 785.163,160 787.283,160 789.402,160 791.522,160 793.641,160 795.761,160 797.88,160 800,160" fill="none" stroke="var(--accent)" stroke-width="1.5" stroke-linecap="round" stroke-linejoin="round"/>
</svg>

