<svg xmlns="http://www.w3.org/2000/svg" width="820" height="180" viewBox="0 0 820 180">

<style>
  :root {
    --bg:        #f6f8fa;
    --card:      #ffffff;
    --border:    #d0d7de;
    --primary:   #1f2328;
    --secondary: #636c76;
    --muted:     #8c959f;
    --accent:    #0969da;
    --green:     #1a7f37;
    --yellow:    #9a6700;
    --red:       #cf222e;
    --hover:     #f3f4f6;
    --spark-bg:  #f0f3f6;
    --spark:     #0969da;
    --pill:      #eaf1fb;
    --pill-txt:  #0969da;
    --div:       #d0d7de;
  }
  @media (prefers-color-scheme: dark) {
    :root {
      --bg:        #0d1117;
      --card:      #161b22;
      --border:    #30363d;
      --primary:   #e6edf3;
      --secondary: #848d97;
      --muted:     #7d8590;
      --accent:    #2f81f7;
      --green:     #3fb950;
      --yellow:    #d29922;
      --red:       #f85149;
      --hover:     #21262d;
      --spark-bg:  #1c2128;
      --spark:     #58a6ff;
      --pill:      #1c2d3f;
      --pill-txt:  #58a6ff;
      --div:       #30363d;
    }
  }
  
  .bg          { fill: var(--bg); }
  .card        { fill: var(--card); stroke: var(--border); stroke-width: 1; }
  .lang-pill   { fill: var(--pill); }
  .spark-bg    { fill: var(--spark-bg); }
  .spark-line  { stroke: var(--spark); }
  .divider     { stroke: var(--div); stroke-width: 1; }
  .clr-primary   { fill: var(--primary); }
  .clr-secondary { fill: var(--secondary); }
  .clr-muted     { fill: var(--muted); }
  .clr-accent    { fill: var(--accent); }
  .clr-green     { fill: var(--green); }
  .clr-yellow    { fill: var(--yellow); }
  .clr-red       { fill: var(--red); }
  .txt-bold    { font-weight: 600; }
  svg text     { font-family: -apple-system, BlinkMacSystemFont, "Segoe UI", Helvetica, Arial, sans-serif; }
</style>

<rect x="0" y="0" width="820" height="180" rx="8" class="card"/>
  <text x="20" y="24" class="clr-primary txt-bold" text-anchor="start" font-size="14">Contribution History &amp; Activity</text>
  <line x1="20" y1="36" x2="800" y2="36" class="divider"/>
  <text x="20" y="60" class="clr-muted" text-anchor="start" font-size="12">Years Active:</text>
  <text x="100" y="60" class="clr-primary txt-bold" text-anchor="start" font-size="12">5.7</text>
  <text x="160" y="60" class="clr-muted" text-anchor="start" font-size="12">Commits (Last Year):</text>
  <text x="290" y="60" class="clr-primary txt-bold" text-anchor="start" font-size="12">1213</text>
  <text x="360" y="60" class="clr-muted" text-anchor="start" font-size="12">Highest Daily:</text>
  <text x="450" y="60" class="clr-primary txt-bold" text-anchor="start" font-size="12">163</text>
  <polygon points="20,160 20,160 22.1253,160 24.2507,160 26.376,160 28.5014,160 30.6267,160 32.752,160 34.8774,160 37.0027,160 39.1281,160 41.2534,160 43.3787,160 45.5041,160 47.6294,160 49.7548,160 51.8801,160 54.0054,159.018 56.1308,160 58.2561,160 60.3815,160 62.5068,145.276 64.6322,155.583 66.7575,157.546 68.8828,155.583 71.0082,157.055 73.1335,156.074 75.2589,160 77.3842,160 79.5095,160 81.6349,158.037 83.7602,159.018 85.8856,158.037 88.0109,156.564 90.1362,160 92.2616,158.528 94.3869,156.564 96.5123,160 98.6376,154.11 100.763,149.202 102.888,149.202 105.014,153.62 107.139,141.84 109.264,154.601 111.39,160 113.515,154.601 115.64,160 117.766,160 119.891,157.546 122.016,148.221 124.142,159.018 126.267,160 128.392,158.037 130.518,160 132.643,159.509 134.768,160 136.894,160 139.019,160 141.144,160 143.27,151.656 145.395,155.583 147.52,156.074 149.646,157.546 151.771,150.675 153.896,160 156.022,158.037 158.147,156.564 160.272,158.037 162.398,156.074 164.523,160 166.649,154.11 168.774,160 170.899,159.509 173.025,160 175.15,160 177.275,157.546 179.401,160 181.526,160 183.651,160 185.777,160 187.902,160 190.027,160 192.153,160 194.278,160 196.403,160 198.529,160 200.654,160 202.779,160 204.905,160 207.03,160 209.155,160 211.281,160 213.406,154.601 215.531,158.037 217.657,160 219.782,160 221.907,160 224.033,160 226.158,160 228.283,160 230.409,160 232.534,160 234.659,160 236.785,160 238.91,160 241.035,160 243.161,160 245.286,160 247.411,160 249.537,160 251.662,160 253.787,160 255.913,160 258.038,160 260.163,160 262.289,157.055 264.414,160 266.54,160 268.665,160 270.79,160 272.916,155.092 275.041,160 277.166,160 279.292,160 281.417,160 283.542,137.423 285.668,153.62 287.793,80 289.918,155.092 292.044,149.202 294.169,155.092 296.294,158.037 298.42,158.528 300.545,159.509 302.67,156.074 304.796,160 306.921,159.018 309.046,160 311.172,159.509 313.297,159.018 315.422,159.509 317.548,160 319.673,158.528 321.798,160 323.924,159.018 326.049,159.018 328.174,157.546 330.3,157.055 332.425,160 334.55,160 336.676,159.509 338.801,159.509 340.926,158.528 343.052,159.509 345.177,157.055 347.302,157.055 349.428,159.018 351.553,158.528 353.678,147.239 355.804,157.055 357.929,129.08 360.054,147.239 362.18,153.129 364.305,160 366.431,160 368.556,160 370.681,151.656 372.807,158.528 374.932,160 377.057,160 379.183,138.405 381.308,158.528 383.433,160 385.559,160 387.684,160 389.809,160 391.935,160 394.06,160 396.185,160 398.311,160 400.436,160 402.561,160 404.687,160 406.812,160 408.937,160 411.063,160 413.188,160 415.313,159.509 417.439,160 419.564,160 421.689,160 423.815,160 425.94,160 428.065,160 430.191,160 432.316,160 434.441,160 436.567,159.509 438.692,158.037 440.817,160 442.943,160 445.068,160 447.193,160 449.319,160 451.444,160 453.569,160 455.695,160 457.82,160 459.946,160 462.071,160 464.196,159.509 466.322,158.037 468.447,157.055 470.572,160 472.698,160 474.823,160 476.948,156.564 479.074,157.546 481.199,147.239 483.324,160 485.45,160 487.575,160 489.7,155.092 491.826,148.221 493.951,160 496.076,160 498.202,158.037 500.327,160 502.452,158.037 504.578,160 506.703,160 508.828,160 510.954,160 513.079,160 515.204,160 517.33,159.018 519.455,144.294 521.58,159.018 523.706,160 525.831,139.387 527.956,121.718 530.082,120.736 532.207,147.73 534.332,146.258 536.458,157.055 538.583,160 540.708,160 542.834,160 544.959,160 547.084,160 549.21,160 551.335,160 553.46,160 555.586,157.546 557.711,153.62 559.837,148.712 561.962,160 564.087,149.202 566.213,149.693 568.338,134.969 570.463,146.258 572.589,145.767 574.714,146.258 576.839,150.184 578.965,154.11 581.09,154.601 583.215,154.11 585.341,157.055 587.466,156.564 589.591,159.509 591.717,160 593.842,160 595.967,160 598.093,160 600.218,160 602.343,160 604.469,160 606.594,160 608.719,158.528 610.845,159.509 612.97,160 615.095,160 617.221,159.509 619.346,142.331 621.471,144.785 623.597,157.055 625.722,158.528 627.847,160 629.973,160 632.098,159.509 634.223,160 636.349,160 638.474,159.018 640.599,153.62 642.725,159.018 644.85,160 646.975,160 649.101,149.693 651.226,155.583 653.351,158.528 655.477,156.074 657.602,155.583 659.728,159.509 661.853,159.509 663.978,160 666.104,160 668.229,151.656 670.354,140.859 672.48,155.092 674.605,160 676.73,141.84 678.856,150.184 680.981,152.147 683.106,160 685.232,160 687.357,160 689.482,160 691.608,160 693.733,160 695.858,160 697.984,160 700.109,160 702.234,160 704.36,160 706.485,160 708.61,158.037 710.736,160 712.861,160 714.986,160 717.112,160 719.237,160 721.362,160 723.488,160 725.613,160 727.738,160 729.864,160 731.989,160 734.114,160 736.24,160 738.365,160 740.49,156.564 742.616,154.601 744.741,160 746.866,160 748.992,160 751.117,160 753.243,159.509 755.368,160 757.493,160 759.619,159.509 761.744,159.509 763.869,160 765.995,159.509 768.12,160 770.245,160 772.371,156.074 774.496,159.509 776.621,159.509 778.747,160 780.872,158.037 782.997,160 785.123,160 787.248,160 789.373,160 791.499,160 793.624,160 795.749,160 797.875,155.583 800,159.509 800,160" fill="var(--pill)" opacity="0.6"/>
  <polyline points="20,160 22.1253,160 24.2507,160 26.376,160 28.5014,160 30.6267,160 32.752,160 34.8774,160 37.0027,160 39.1281,160 41.2534,160 43.3787,160 45.5041,160 47.6294,160 49.7548,160 51.8801,160 54.0054,159.018 56.1308,160 58.2561,160 60.3815,160 62.5068,145.276 64.6322,155.583 66.7575,157.546 68.8828,155.583 71.0082,157.055 73.1335,156.074 75.2589,160 77.3842,160 79.5095,160 81.6349,158.037 83.7602,159.018 85.8856,158.037 88.0109,156.564 90.1362,160 92.2616,158.528 94.3869,156.564 96.5123,160 98.6376,154.11 100.763,149.202 102.888,149.202 105.014,153.62 107.139,141.84 109.264,154.601 111.39,160 113.515,154.601 115.64,160 117.766,160 119.891,157.546 122.016,148.221 124.142,159.018 126.267,160 128.392,158.037 130.518,160 132.643,159.509 134.768,160 136.894,160 139.019,160 141.144,160 143.27,151.656 145.395,155.583 147.52,156.074 149.646,157.546 151.771,150.675 153.896,160 156.022,158.037 158.147,156.564 160.272,158.037 162.398,156.074 164.523,160 166.649,154.11 168.774,160 170.899,159.509 173.025,160 175.15,160 177.275,157.546 179.401,160 181.526,160 183.651,160 185.777,160 187.902,160 190.027,160 192.153,160 194.278,160 196.403,160 198.529,160 200.654,160 202.779,160 204.905,160 207.03,160 209.155,160 211.281,160 213.406,154.601 215.531,158.037 217.657,160 219.782,160 221.907,160 224.033,160 226.158,160 228.283,160 230.409,160 232.534,160 234.659,160 236.785,160 238.91,160 241.035,160 243.161,160 245.286,160 247.411,160 249.537,160 251.662,160 253.787,160 255.913,160 258.038,160 260.163,160 262.289,157.055 264.414,160 266.54,160 268.665,160 270.79,160 272.916,155.092 275.041,160 277.166,160 279.292,160 281.417,160 283.542,137.423 285.668,153.62 287.793,80 289.918,155.092 292.044,149.202 294.169,155.092 296.294,158.037 298.42,158.528 300.545,159.509 302.67,156.074 304.796,160 306.921,159.018 309.046,160 311.172,159.509 313.297,159.018 315.422,159.509 317.548,160 319.673,158.528 321.798,160 323.924,159.018 326.049,159.018 328.174,157.546 330.3,157.055 332.425,160 334.55,160 336.676,159.509 338.801,159.509 340.926,158.528 343.052,159.509 345.177,157.055 347.302,157.055 349.428,159.018 351.553,158.528 353.678,147.239 355.804,157.055 357.929,129.08 360.054,147.239 362.18,153.129 364.305,160 366.431,160 368.556,160 370.681,151.656 372.807,158.528 374.932,160 377.057,160 379.183,138.405 381.308,158.528 383.433,160 385.559,160 387.684,160 389.809,160 391.935,160 394.06,160 396.185,160 398.311,160 400.436,160 402.561,160 404.687,160 406.812,160 408.937,160 411.063,160 413.188,160 415.313,159.509 417.439,160 419.564,160 421.689,160 423.815,160 425.94,160 428.065,160 430.191,160 432.316,160 434.441,160 436.567,159.509 438.692,158.037 440.817,160 442.943,160 445.068,160 447.193,160 449.319,160 451.444,160 453.569,160 455.695,160 457.82,160 459.946,160 462.071,160 464.196,159.509 466.322,158.037 468.447,157.055 470.572,160 472.698,160 474.823,160 476.948,156.564 479.074,157.546 481.199,147.239 483.324,160 485.45,160 487.575,160 489.7,155.092 491.826,148.221 493.951,160 496.076,160 498.202,158.037 500.327,160 502.452,158.037 504.578,160 506.703,160 508.828,160 510.954,160 513.079,160 515.204,160 517.33,159.018 519.455,144.294 521.58,159.018 523.706,160 525.831,139.387 527.956,121.718 530.082,120.736 532.207,147.73 534.332,146.258 536.458,157.055 538.583,160 540.708,160 542.834,160 544.959,160 547.084,160 549.21,160 551.335,160 553.46,160 555.586,157.546 557.711,153.62 559.837,148.712 561.962,160 564.087,149.202 566.213,149.693 568.338,134.969 570.463,146.258 572.589,145.767 574.714,146.258 576.839,150.184 578.965,154.11 581.09,154.601 583.215,154.11 585.341,157.055 587.466,156.564 589.591,159.509 591.717,160 593.842,160 595.967,160 598.093,160 600.218,160 602.343,160 604.469,160 606.594,160 608.719,158.528 610.845,159.509 612.97,160 615.095,160 617.221,159.509 619.346,142.331 621.471,144.785 623.597,157.055 625.722,158.528 627.847,160 629.973,160 632.098,159.509 634.223,160 636.349,160 638.474,159.018 640.599,153.62 642.725,159.018 644.85,160 646.975,160 649.101,149.693 651.226,155.583 653.351,158.528 655.477,156.074 657.602,155.583 659.728,159.509 661.853,159.509 663.978,160 666.104,160 668.229,151.656 670.354,140.859 672.48,155.092 674.605,160 676.73,141.84 678.856,150.184 680.981,152.147 683.106,160 685.232,160 687.357,160 689.482,160 691.608,160 693.733,160 695.858,160 697.984,160 700.109,160 702.234,160 704.36,160 706.485,160 708.61,158.037 710.736,160 712.861,160 714.986,160 717.112,160 719.237,160 721.362,160 723.488,160 725.613,160 727.738,160 729.864,160 731.989,160 734.114,160 736.24,160 738.365,160 740.49,156.564 742.616,154.601 744.741,160 746.866,160 748.992,160 751.117,160 753.243,159.509 755.368,160 757.493,160 759.619,159.509 761.744,159.509 763.869,160 765.995,159.509 768.12,160 770.245,160 772.371,156.074 774.496,159.509 776.621,159.509 778.747,160 780.872,158.037 782.997,160 785.123,160 787.248,160 789.373,160 791.499,160 793.624,160 795.749,160 797.875,155.583 800,159.509" fill="none" stroke="var(--accent)" stroke-width="1.5" stroke-linecap="round" stroke-linejoin="round"/>
</svg>

