<svg xmlns="http://www.w3.org/2000/svg" width="820" height="180" viewBox="0 0 820 180">

<style>
  :root {
    --bg:        #f6f8fa;
    --card:      #ffffff;
    --border:    #d0d7de;
    --primary:   #1f2328;
    --secondary: #636c76;
    --muted:     #8c959f;
    --accent:    #0969da;
    --green:     #1a7f37;
    --yellow:    #9a6700;
    --red:       #cf222e;
    --hover:     #f3f4f6;
    --spark-bg:  #f0f3f6;
    --spark:     #0969da;
    --pill:      #eaf1fb;
    --pill-txt:  #0969da;
    --div:       #d0d7de;
  }
  @media (prefers-color-scheme: dark) {
    :root {
      --bg:        #0d1117;
      --card:      #161b22;
      --border:    #30363d;
      --primary:   #e6edf3;
      --secondary: #848d97;
      --muted:     #7d8590;
      --accent:    #2f81f7;
      --green:     #3fb950;
      --yellow:    #d29922;
      --red:       #f85149;
      --hover:     #21262d;
      --spark-bg:  #1c2128;
      --spark:     #58a6ff;
      --pill:      #1c2d3f;
      --pill-txt:  #58a6ff;
      --div:       #30363d;
    }
  }
  
  .bg          { fill: var(--bg); }
  .card        { fill: var(--card); stroke: var(--border); stroke-width: 1; }
  .lang-pill   { fill: var(--pill); }
  .spark-bg    { fill: var(--spark-bg); }
  .spark-line  { stroke: var(--spark); }
  .divider     { stroke: var(--div); stroke-width: 1; }
  .clr-primary   { fill: var(--primary); }
  .clr-secondary { fill: var(--secondary); }
  .clr-muted     { fill: var(--muted); }
  .clr-accent    { fill: var(--accent); }
  .clr-green     { fill: var(--green); }
  .clr-yellow    { fill: var(--yellow); }
  .clr-red       { fill: var(--red); }
  .txt-bold    { font-weight: 600; }
  svg text     { font-family: -apple-system, BlinkMacSystemFont, "Segoe UI", Helvetica, Arial, sans-serif; }
</style>

<rect x="0" y="0" width="820" height="180" rx="8" class="card"/>
  <text x="20" y="24" class="clr-primary txt-bold" text-anchor="start" font-size="14">Contribution History &amp; Activity</text>
  <line x1="20" y1="36" x2="800" y2="36" class="divider"/>
  <text x="20" y="60" class="clr-muted" text-anchor="start" font-size="12">Years Active:</text>
  <text x="100" y="60" class="clr-primary txt-bold" text-anchor="start" font-size="12">5.6</text>
  <text x="160" y="60" class="clr-muted" text-anchor="start" font-size="12">Commits (Last Year):</text>
  <text x="290" y="60" class="clr-primary txt-bold" text-anchor="start" font-size="12">1170</text>
  <text x="360" y="60" class="clr-muted" text-anchor="start" font-size="12">Highest Daily:</text>
  <text x="450" y="60" class="clr-primary txt-bold" text-anchor="start" font-size="12">163</text>
  <polygon points="20,160 20,160 22.137,160 24.274,160 26.411,160 28.5479,159.018 30.6849,160 32.8219,160 34.9589,160 37.0959,160 39.2329,160 41.3699,160 43.5068,160 45.6438,160 47.7808,160 49.9178,160 52.0548,160 54.1918,160 56.3288,160 58.4658,160 60.6027,160 62.7397,160 64.8767,160 67.0137,160 69.1507,160 71.2877,160 73.4247,160 75.5616,160 77.6986,160 79.8356,160 81.9726,160 84.1096,160 86.2466,160 88.3836,160 90.5205,160 92.6575,160 94.7945,160 96.9315,160 99.0685,160 101.205,160 103.342,159.509 105.479,160 107.616,160 109.753,160 111.89,160 114.027,160 116.164,160 118.301,160 120.438,160 122.575,160 124.712,160 126.849,160 128.986,160 131.123,160 133.26,160 135.397,160 137.534,160 139.671,160 141.808,160 143.945,160 146.082,160 148.219,160 150.356,160 152.493,160 154.63,160 156.767,160 158.904,159.018 161.041,160 163.178,160 165.315,160 167.452,145.276 169.589,155.583 171.726,157.546 173.863,155.583 176,157.055 178.137,156.074 180.274,160 182.411,160 184.548,160 186.685,158.037 188.822,159.018 190.959,158.037 193.096,156.564 195.233,160 197.37,158.528 199.507,156.564 201.644,160 203.781,154.11 205.918,149.202 208.055,149.202 210.192,153.62 212.329,141.84 214.466,154.601 216.603,160 218.74,154.601 220.877,160 223.014,160 225.151,157.546 227.288,148.221 229.425,159.018 231.562,160 233.699,158.037 235.836,160 237.973,159.509 240.11,160 242.247,160 244.384,160 246.521,160 248.658,151.656 250.795,155.583 252.932,156.074 255.068,157.546 257.205,150.675 259.342,160 261.479,158.037 263.616,156.564 265.753,158.037 267.89,156.074 270.027,160 272.164,154.11 274.301,160 276.438,159.509 278.575,160 280.712,160 282.849,157.546 284.986,160 287.123,160 289.26,160 291.397,160 293.534,160 295.671,160 297.808,160 299.945,160 302.082,160 304.219,160 306.356,160 308.493,160 310.63,160 312.767,160 314.904,160 317.041,160 319.178,154.601 321.315,158.037 323.452,160 325.589,160 327.726,160 329.863,160 332,160 334.137,160 336.274,160 338.411,160 340.548,160 342.685,160 344.822,160 346.959,160 349.096,160 351.233,160 353.37,160 355.507,160 357.644,160 359.781,160 361.918,160 364.055,160 366.192,160 368.329,157.055 370.466,160 372.603,160 374.74,160 376.877,160 379.014,155.092 381.151,160 383.288,160 385.425,160 387.562,160 389.699,137.423 391.836,153.62 393.973,80 396.11,155.092 398.247,149.202 400.384,155.092 402.521,158.037 404.658,158.528 406.795,159.509 408.932,156.074 411.068,160 413.205,159.018 415.342,160 417.479,159.509 419.616,159.018 421.753,159.509 423.89,160 426.027,158.528 428.164,160 430.301,159.018 432.438,159.018 434.575,157.546 436.712,157.055 438.849,160 440.986,160 443.123,159.509 445.26,159.509 447.397,158.528 449.534,159.509 451.671,157.055 453.808,157.055 455.945,159.018 458.082,158.528 460.219,147.239 462.356,157.055 464.493,129.08 466.63,147.239 468.767,153.129 470.904,160 473.041,160 475.178,160 477.315,151.656 479.452,158.528 481.589,160 483.726,160 485.863,138.405 488,158.528 490.137,160 492.274,160 494.411,160 496.548,160 498.685,160 500.822,160 502.959,160 505.096,160 507.233,160 509.37,160 511.507,160 513.644,160 515.781,160 517.918,160 520.055,160 522.192,159.509 524.329,160 526.466,160 528.603,160 530.74,160 532.877,160 535.014,160 537.151,160 539.288,160 541.425,160 543.562,159.509 545.699,158.037 547.836,160 549.973,160 552.11,160 554.247,160 556.384,160 558.521,160 560.658,160 562.795,160 564.932,160 567.068,160 569.205,160 571.342,159.509 573.479,158.037 575.616,157.055 577.753,160 579.89,160 582.027,160 584.164,156.564 586.301,157.546 588.438,147.239 590.575,160 592.712,160 594.849,160 596.986,155.092 599.123,148.221 601.26,160 603.397,160 605.534,158.037 607.671,160 609.808,158.037 611.945,160 614.082,160 616.219,160 618.356,160 620.493,160 622.63,160 624.767,159.018 626.904,144.294 629.041,159.018 631.178,160 633.315,139.387 635.452,121.718 637.589,120.736 639.726,147.73 641.863,146.258 644,157.055 646.137,160 648.274,160 650.411,160 652.548,160 654.685,160 656.822,160 658.959,160 661.096,160 663.233,157.546 665.37,153.62 667.507,148.712 669.644,160 671.781,149.202 673.918,149.693 676.055,134.969 678.192,146.258 680.329,145.767 682.466,146.258 684.603,150.184 686.74,154.11 688.877,154.601 691.014,154.11 693.151,157.055 695.288,156.564 697.425,159.509 699.562,160 701.699,160 703.836,160 705.973,160 708.11,160 710.247,160 712.384,160 714.521,160 716.658,158.528 718.795,159.509 720.932,160 723.068,160 725.205,159.509 727.342,142.331 729.479,144.785 731.616,157.055 733.753,158.528 735.89,160 738.027,160 740.164,159.509 742.301,160 744.438,160 746.575,159.018 748.712,153.62 750.849,159.018 752.986,160 755.123,160 757.26,149.693 759.397,155.583 761.534,158.528 763.671,156.074 765.808,155.583 767.945,159.509 770.082,159.509 772.219,160 774.356,160 776.493,151.656 778.63,140.859 780.767,155.092 782.904,160 785.041,141.84 787.178,150.184 789.315,152.147 791.452,160 793.589,160 795.726,160 797.863,160 800,160 800,160" fill="var(--pill)" opacity="0.6"/>
  <polyline points="20,160 22.137,160 24.274,160 26.411,160 28.5479,159.018 30.6849,160 32.8219,160 34.9589,160 37.0959,160 39.2329,160 41.3699,160 43.5068,160 45.6438,160 47.7808,160 49.9178,160 52.0548,160 54.1918,160 56.3288,160 58.4658,160 60.6027,160 62.7397,160 64.8767,160 67.0137,160 69.1507,160 71.2877,160 73.4247,160 75.5616,160 77.6986,160 79.8356,160 81.9726,160 84.1096,160 86.2466,160 88.3836,160 90.5205,160 92.6575,160 94.7945,160 96.9315,160 99.0685,160 101.205,160 103.342,159.509 105.479,160 107.616,160 109.753,160 111.89,160 114.027,160 116.164,160 118.301,160 120.438,160 122.575,160 124.712,160 126.849,160 128.986,160 131.123,160 133.26,160 135.397,160 137.534,160 139.671,160 141.808,160 143.945,160 146.082,160 148.219,160 150.356,160 152.493,160 154.63,160 156.767,160 158.904,159.018 161.041,160 163.178,160 165.315,160 167.452,145.276 169.589,155.583 171.726,157.546 173.863,155.583 176,157.055 178.137,156.074 180.274,160 182.411,160 184.548,160 186.685,158.037 188.822,159.018 190.959,158.037 193.096,156.564 195.233,160 197.37,158.528 199.507,156.564 201.644,160 203.781,154.11 205.918,149.202 208.055,149.202 210.192,153.62 212.329,141.84 214.466,154.601 216.603,160 218.74,154.601 220.877,160 223.014,160 225.151,157.546 227.288,148.221 229.425,159.018 231.562,160 233.699,158.037 235.836,160 237.973,159.509 240.11,160 242.247,160 244.384,160 246.521,160 248.658,151.656 250.795,155.583 252.932,156.074 255.068,157.546 257.205,150.675 259.342,160 261.479,158.037 263.616,156.564 265.753,158.037 267.89,156.074 270.027,160 272.164,154.11 274.301,160 276.438,159.509 278.575,160 280.712,160 282.849,157.546 284.986,160 287.123,160 289.26,160 291.397,160 293.534,160 295.671,160 297.808,160 299.945,160 302.082,160 304.219,160 306.356,160 308.493,160 310.63,160 312.767,160 314.904,160 317.041,160 319.178,154.601 321.315,158.037 323.452,160 325.589,160 327.726,160 329.863,160 332,160 334.137,160 336.274,160 338.411,160 340.548,160 342.685,160 344.822,160 346.959,160 349.096,160 351.233,160 353.37,160 355.507,160 357.644,160 359.781,160 361.918,160 364.055,160 366.192,160 368.329,157.055 370.466,160 372.603,160 374.74,160 376.877,160 379.014,155.092 381.151,160 383.288,160 385.425,160 387.562,160 389.699,137.423 391.836,153.62 393.973,80 396.11,155.092 398.247,149.202 400.384,155.092 402.521,158.037 404.658,158.528 406.795,159.509 408.932,156.074 411.068,160 413.205,159.018 415.342,160 417.479,159.509 419.616,159.018 421.753,159.509 423.89,160 426.027,158.528 428.164,160 430.301,159.018 432.438,159.018 434.575,157.546 436.712,157.055 438.849,160 440.986,160 443.123,159.509 445.26,159.509 447.397,158.528 449.534,159.509 451.671,157.055 453.808,157.055 455.945,159.018 458.082,158.528 460.219,147.239 462.356,157.055 464.493,129.08 466.63,147.239 468.767,153.129 470.904,160 473.041,160 475.178,160 477.315,151.656 479.452,158.528 481.589,160 483.726,160 485.863,138.405 488,158.528 490.137,160 492.274,160 494.411,160 496.548,160 498.685,160 500.822,160 502.959,160 505.096,160 507.233,160 509.37,160 511.507,160 513.644,160 515.781,160 517.918,160 520.055,160 522.192,159.509 524.329,160 526.466,160 528.603,160 530.74,160 532.877,160 535.014,160 537.151,160 539.288,160 541.425,160 543.562,159.509 545.699,158.037 547.836,160 549.973,160 552.11,160 554.247,160 556.384,160 558.521,160 560.658,160 562.795,160 564.932,160 567.068,160 569.205,160 571.342,159.509 573.479,158.037 575.616,157.055 577.753,160 579.89,160 582.027,160 584.164,156.564 586.301,157.546 588.438,147.239 590.575,160 592.712,160 594.849,160 596.986,155.092 599.123,148.221 601.26,160 603.397,160 605.534,158.037 607.671,160 609.808,158.037 611.945,160 614.082,160 616.219,160 618.356,160 620.493,160 622.63,160 624.767,159.018 626.904,144.294 629.041,159.018 631.178,160 633.315,139.387 635.452,121.718 637.589,120.736 639.726,147.73 641.863,146.258 644,157.055 646.137,160 648.274,160 650.411,160 652.548,160 654.685,160 656.822,160 658.959,160 661.096,160 663.233,157.546 665.37,153.62 667.507,148.712 669.644,160 671.781,149.202 673.918,149.693 676.055,134.969 678.192,146.258 680.329,145.767 682.466,146.258 684.603,150.184 686.74,154.11 688.877,154.601 691.014,154.11 693.151,157.055 695.288,156.564 697.425,159.509 699.562,160 701.699,160 703.836,160 705.973,160 708.11,160 710.247,160 712.384,160 714.521,160 716.658,158.528 718.795,159.509 720.932,160 723.068,160 725.205,159.509 727.342,142.331 729.479,144.785 731.616,157.055 733.753,158.528 735.89,160 738.027,160 740.164,159.509 742.301,160 744.438,160 746.575,159.018 748.712,153.62 750.849,159.018 752.986,160 755.123,160 757.26,149.693 759.397,155.583 761.534,158.528 763.671,156.074 765.808,155.583 767.945,159.509 770.082,159.509 772.219,160 774.356,160 776.493,151.656 778.63,140.859 780.767,155.092 782.904,160 785.041,141.84 787.178,150.184 789.315,152.147 791.452,160 793.589,160 795.726,160 797.863,160 800,160" fill="none" stroke="var(--accent)" stroke-width="1.5" stroke-linecap="round" stroke-linejoin="round"/>
</svg>

