<svg xmlns="http://www.w3.org/2000/svg" width="820" height="180" viewBox="0 0 820 180">

<style>
  :root {
    --bg:        #f6f8fa;
    --card:      #ffffff;
    --border:    #d0d7de;
    --primary:   #1f2328;
    --secondary: #636c76;
    --muted:     #8c959f;
    --accent:    #0969da;
    --green:     #1a7f37;
    --yellow:    #9a6700;
    --red:       #cf222e;
    --hover:     #f3f4f6;
    --spark-bg:  #f0f3f6;
    --spark:     #0969da;
    --pill:      #eaf1fb;
    --pill-txt:  #0969da;
    --div:       #d0d7de;
  }
  @media (prefers-color-scheme: dark) {
    :root {
      --bg:        #0d1117;
      --card:      #161b22;
      --border:    #30363d;
      --primary:   #e6edf3;
      --secondary: #848d97;
      --muted:     #7d8590;
      --accent:    #2f81f7;
      --green:     #3fb950;
      --yellow:    #d29922;
      --red:       #f85149;
      --hover:     #21262d;
      --spark-bg:  #1c2128;
      --spark:     #58a6ff;
      --pill:      #1c2d3f;
      --pill-txt:  #58a6ff;
      --div:       #30363d;
    }
  }
  
  .bg          { fill: var(--bg); }
  .card        { fill: var(--card); stroke: var(--border); stroke-width: 1; }
  .lang-pill   { fill: var(--pill); }
  .spark-bg    { fill: var(--spark-bg); }
  .spark-line  { stroke: var(--spark); }
  .divider     { stroke: var(--div); stroke-width: 1; }
  .clr-primary   { fill: var(--primary); }
  .clr-secondary { fill: var(--secondary); }
  .clr-muted     { fill: var(--muted); }
  .clr-accent    { fill: var(--accent); }
  .clr-green     { fill: var(--green); }
  .clr-yellow    { fill: var(--yellow); }
  .clr-red       { fill: var(--red); }
  .txt-bold    { font-weight: 600; }
  svg text     { font-family: -apple-system, BlinkMacSystemFont, "Segoe UI", Helvetica, Arial, sans-serif; }
</style>

<rect x="0" y="0" width="820" height="180" rx="8" class="card"/>
  <text x="20" y="24" class="clr-primary txt-bold" text-anchor="start" font-size="14">Contribution History &amp; Activity</text>
  <line x1="20" y1="36" x2="800" y2="36" class="divider"/>
  <text x="20" y="60" class="clr-muted" text-anchor="start" font-size="12">Years Active:</text>
  <text x="100" y="60" class="clr-primary txt-bold" text-anchor="start" font-size="12">5.7</text>
  <text x="160" y="60" class="clr-muted" text-anchor="start" font-size="12">Commits (Last Year):</text>
  <text x="290" y="60" class="clr-primary txt-bold" text-anchor="start" font-size="12">1192</text>
  <text x="360" y="60" class="clr-muted" text-anchor="start" font-size="12">Highest Daily:</text>
  <text x="450" y="60" class="clr-primary txt-bold" text-anchor="start" font-size="12">163</text>
  <polygon points="20,160 20,160 22.1429,160 24.2857,160 26.4286,160 28.5714,159.509 30.7143,160 32.8571,160 35,160 37.1429,160 39.2857,160 41.4286,160 43.5714,160 45.7143,160 47.8571,160 50,160 52.1429,160 54.2857,160 56.4286,160 58.5714,160 60.7143,160 62.8571,160 65,160 67.1429,160 69.2857,160 71.4286,160 73.5714,160 75.7143,160 77.8571,160 80,160 82.1429,160 84.2857,159.018 86.4286,160 88.5714,160 90.7143,160 92.8571,145.276 95,155.583 97.1429,157.546 99.2857,155.583 101.429,157.055 103.571,156.074 105.714,160 107.857,160 110,160 112.143,158.037 114.286,159.018 116.429,158.037 118.571,156.564 120.714,160 122.857,158.528 125,156.564 127.143,160 129.286,154.11 131.429,149.202 133.571,149.202 135.714,153.62 137.857,141.84 140,154.601 142.143,160 144.286,154.601 146.429,160 148.571,160 150.714,157.546 152.857,148.221 155,159.018 157.143,160 159.286,158.037 161.429,160 163.571,159.509 165.714,160 167.857,160 170,160 172.143,160 174.286,151.656 176.429,155.583 178.571,156.074 180.714,157.546 182.857,150.675 185,160 187.143,158.037 189.286,156.564 191.429,158.037 193.571,156.074 195.714,160 197.857,154.11 200,160 202.143,159.509 204.286,160 206.429,160 208.571,157.546 210.714,160 212.857,160 215,160 217.143,160 219.286,160 221.429,160 223.571,160 225.714,160 227.857,160 230,160 232.143,160 234.286,160 236.429,160 238.571,160 240.714,160 242.857,160 245,154.601 247.143,158.037 249.286,160 251.429,160 253.571,160 255.714,160 257.857,160 260,160 262.143,160 264.286,160 266.429,160 268.571,160 270.714,160 272.857,160 275,160 277.143,160 279.286,160 281.429,160 283.571,160 285.714,160 287.857,160 290,160 292.143,160 294.286,157.055 296.429,160 298.571,160 300.714,160 302.857,160 305,155.092 307.143,160 309.286,160 311.429,160 313.571,160 315.714,137.423 317.857,153.62 320,80 322.143,155.092 324.286,149.202 326.429,155.092 328.571,158.037 330.714,158.528 332.857,159.509 335,156.074 337.143,160 339.286,159.018 341.429,160 343.571,159.509 345.714,159.018 347.857,159.509 350,160 352.143,158.528 354.286,160 356.429,159.018 358.571,159.018 360.714,157.546 362.857,157.055 365,160 367.143,160 369.286,159.509 371.429,159.509 373.571,158.528 375.714,159.509 377.857,157.055 380,157.055 382.143,159.018 384.286,158.528 386.429,147.239 388.571,157.055 390.714,129.08 392.857,147.239 395,153.129 397.143,160 399.286,160 401.429,160 403.571,151.656 405.714,158.528 407.857,160 410,160 412.143,138.405 414.286,158.528 416.429,160 418.571,160 420.714,160 422.857,160 425,160 427.143,160 429.286,160 431.429,160 433.571,160 435.714,160 437.857,160 440,160 442.143,160 444.286,160 446.429,160 448.571,159.509 450.714,160 452.857,160 455,160 457.143,160 459.286,160 461.429,160 463.571,160 465.714,160 467.857,160 470,159.509 472.143,158.037 474.286,160 476.429,160 478.571,160 480.714,160 482.857,160 485,160 487.143,160 489.286,160 491.429,160 493.571,160 495.714,160 497.857,159.509 500,158.037 502.143,157.055 504.286,160 506.429,160 508.571,160 510.714,156.564 512.857,157.546 515,147.239 517.143,160 519.286,160 521.429,160 523.571,155.092 525.714,148.221 527.857,160 530,160 532.143,158.037 534.286,160 536.429,158.037 538.571,160 540.714,160 542.857,160 545,160 547.143,160 549.286,160 551.429,159.018 553.571,144.294 555.714,159.018 557.857,160 560,139.387 562.143,121.718 564.286,120.736 566.429,147.73 568.571,146.258 570.714,157.055 572.857,160 575,160 577.143,160 579.286,160 581.429,160 583.571,160 585.714,160 587.857,160 590,157.546 592.143,153.62 594.286,148.712 596.429,160 598.571,149.202 600.714,149.693 602.857,134.969 605,146.258 607.143,145.767 609.286,146.258 611.429,150.184 613.571,154.11 615.714,154.601 617.857,154.11 620,157.055 622.143,156.564 624.286,159.509 626.429,160 628.571,160 630.714,160 632.857,160 635,160 637.143,160 639.286,160 641.429,160 643.571,158.528 645.714,159.509 647.857,160 650,160 652.143,159.509 654.286,142.331 656.429,144.785 658.571,157.055 660.714,158.528 662.857,160 665,160 667.143,159.509 669.286,160 671.429,160 673.571,159.018 675.714,153.62 677.857,159.018 680,160 682.143,160 684.286,149.693 686.429,155.583 688.571,158.528 690.714,156.074 692.857,155.583 695,159.509 697.143,159.509 699.286,160 701.429,160 703.571,151.656 705.714,140.859 707.857,155.092 710,160 712.143,141.84 714.286,150.184 716.429,152.147 718.571,160 720.714,160 722.857,160 725,160 727.143,160 729.286,160 731.429,160 733.571,160 735.714,160 737.857,160 740,160 742.143,160 744.286,158.037 746.429,160 748.571,160 750.714,160 752.857,160 755,160 757.143,160 759.286,160 761.429,160 763.571,160 765.714,160 767.857,160 770,160 772.143,160 774.286,160 776.429,156.564 778.571,154.601 780.714,160 782.857,160 785,160 787.143,160 789.286,159.509 791.429,160 793.571,160 795.714,159.509 797.857,159.509 800,160 800,160" fill="var(--pill)" opacity="0.6"/>
  <polyline points="20,160 22.1429,160 24.2857,160 26.4286,160 28.5714,159.509 30.7143,160 32.8571,160 35,160 37.1429,160 39.2857,160 41.4286,160 43.5714,160 45.7143,160 47.8571,160 50,160 52.1429,160 54.2857,160 56.4286,160 58.5714,160 60.7143,160 62.8571,160 65,160 67.1429,160 69.2857,160 71.4286,160 73.5714,160 75.7143,160 77.8571,160 80,160 82.1429,160 84.2857,159.018 86.4286,160 88.5714,160 90.7143,160 92.8571,145.276 95,155.583 97.1429,157.546 99.2857,155.583 101.429,157.055 103.571,156.074 105.714,160 107.857,160 110,160 112.143,158.037 114.286,159.018 116.429,158.037 118.571,156.564 120.714,160 122.857,158.528 125,156.564 127.143,160 129.286,154.11 131.429,149.202 133.571,149.202 135.714,153.62 137.857,141.84 140,154.601 142.143,160 144.286,154.601 146.429,160 148.571,160 150.714,157.546 152.857,148.221 155,159.018 157.143,160 159.286,158.037 161.429,160 163.571,159.509 165.714,160 167.857,160 170,160 172.143,160 174.286,151.656 176.429,155.583 178.571,156.074 180.714,157.546 182.857,150.675 185,160 187.143,158.037 189.286,156.564 191.429,158.037 193.571,156.074 195.714,160 197.857,154.11 200,160 202.143,159.509 204.286,160 206.429,160 208.571,157.546 210.714,160 212.857,160 215,160 217.143,160 219.286,160 221.429,160 223.571,160 225.714,160 227.857,160 230,160 232.143,160 234.286,160 236.429,160 238.571,160 240.714,160 242.857,160 245,154.601 247.143,158.037 249.286,160 251.429,160 253.571,160 255.714,160 257.857,160 260,160 262.143,160 264.286,160 266.429,160 268.571,160 270.714,160 272.857,160 275,160 277.143,160 279.286,160 281.429,160 283.571,160 285.714,160 287.857,160 290,160 292.143,160 294.286,157.055 296.429,160 298.571,160 300.714,160 302.857,160 305,155.092 307.143,160 309.286,160 311.429,160 313.571,160 315.714,137.423 317.857,153.62 320,80 322.143,155.092 324.286,149.202 326.429,155.092 328.571,158.037 330.714,158.528 332.857,159.509 335,156.074 337.143,160 339.286,159.018 341.429,160 343.571,159.509 345.714,159.018 347.857,159.509 350,160 352.143,158.528 354.286,160 356.429,159.018 358.571,159.018 360.714,157.546 362.857,157.055 365,160 367.143,160 369.286,159.509 371.429,159.509 373.571,158.528 375.714,159.509 377.857,157.055 380,157.055 382.143,159.018 384.286,158.528 386.429,147.239 388.571,157.055 390.714,129.08 392.857,147.239 395,153.129 397.143,160 399.286,160 401.429,160 403.571,151.656 405.714,158.528 407.857,160 410,160 412.143,138.405 414.286,158.528 416.429,160 418.571,160 420.714,160 422.857,160 425,160 427.143,160 429.286,160 431.429,160 433.571,160 435.714,160 437.857,160 440,160 442.143,160 444.286,160 446.429,160 448.571,159.509 450.714,160 452.857,160 455,160 457.143,160 459.286,160 461.429,160 463.571,160 465.714,160 467.857,160 470,159.509 472.143,158.037 474.286,160 476.429,160 478.571,160 480.714,160 482.857,160 485,160 487.143,160 489.286,160 491.429,160 493.571,160 495.714,160 497.857,159.509 500,158.037 502.143,157.055 504.286,160 506.429,160 508.571,160 510.714,156.564 512.857,157.546 515,147.239 517.143,160 519.286,160 521.429,160 523.571,155.092 525.714,148.221 527.857,160 530,160 532.143,158.037 534.286,160 536.429,158.037 538.571,160 540.714,160 542.857,160 545,160 547.143,160 549.286,160 551.429,159.018 553.571,144.294 555.714,159.018 557.857,160 560,139.387 562.143,121.718 564.286,120.736 566.429,147.73 568.571,146.258 570.714,157.055 572.857,160 575,160 577.143,160 579.286,160 581.429,160 583.571,160 585.714,160 587.857,160 590,157.546 592.143,153.62 594.286,148.712 596.429,160 598.571,149.202 600.714,149.693 602.857,134.969 605,146.258 607.143,145.767 609.286,146.258 611.429,150.184 613.571,154.11 615.714,154.601 617.857,154.11 620,157.055 622.143,156.564 624.286,159.509 626.429,160 628.571,160 630.714,160 632.857,160 635,160 637.143,160 639.286,160 641.429,160 643.571,158.528 645.714,159.509 647.857,160 650,160 652.143,159.509 654.286,142.331 656.429,144.785 658.571,157.055 660.714,158.528 662.857,160 665,160 667.143,159.509 669.286,160 671.429,160 673.571,159.018 675.714,153.62 677.857,159.018 680,160 682.143,160 684.286,149.693 686.429,155.583 688.571,158.528 690.714,156.074 692.857,155.583 695,159.509 697.143,159.509 699.286,160 701.429,160 703.571,151.656 705.714,140.859 707.857,155.092 710,160 712.143,141.84 714.286,150.184 716.429,152.147 718.571,160 720.714,160 722.857,160 725,160 727.143,160 729.286,160 731.429,160 733.571,160 735.714,160 737.857,160 740,160 742.143,160 744.286,158.037 746.429,160 748.571,160 750.714,160 752.857,160 755,160 757.143,160 759.286,160 761.429,160 763.571,160 765.714,160 767.857,160 770,160 772.143,160 774.286,160 776.429,156.564 778.571,154.601 780.714,160 782.857,160 785,160 787.143,160 789.286,159.509 791.429,160 793.571,160 795.714,159.509 797.857,159.509 800,160" fill="none" stroke="var(--accent)" stroke-width="1.5" stroke-linecap="round" stroke-linejoin="round"/>
</svg>

