<svg xmlns="http://www.w3.org/2000/svg" width="820" height="180" viewBox="0 0 820 180">

<style>
  :root {
    --bg:        #f6f8fa;
    --card:      #ffffff;
    --border:    #d0d7de;
    --primary:   #1f2328;
    --secondary: #636c76;
    --muted:     #8c959f;
    --accent:    #0969da;
    --green:     #1a7f37;
    --yellow:    #9a6700;
    --red:       #cf222e;
    --hover:     #f3f4f6;
    --spark-bg:  #f0f3f6;
    --spark:     #0969da;
    --pill:      #eaf1fb;
    --pill-txt:  #0969da;
    --div:       #d0d7de;
  }
  @media (prefers-color-scheme: dark) {
    :root {
      --bg:        #0d1117;
      --card:      #161b22;
      --border:    #30363d;
      --primary:   #e6edf3;
      --secondary: #848d97;
      --muted:     #7d8590;
      --accent:    #2f81f7;
      --green:     #3fb950;
      --yellow:    #d29922;
      --red:       #f85149;
      --hover:     #21262d;
      --spark-bg:  #1c2128;
      --spark:     #58a6ff;
      --pill:      #1c2d3f;
      --pill-txt:  #58a6ff;
      --div:       #30363d;
    }
  }
  
  .bg          { fill: var(--bg); }
  .card        { fill: var(--card); stroke: var(--border); stroke-width: 1; }
  .lang-pill   { fill: var(--pill); }
  .spark-bg    { fill: var(--spark-bg); }
  .spark-line  { stroke: var(--spark); }
  .divider     { stroke: var(--div); stroke-width: 1; }
  .clr-primary   { fill: var(--primary); }
  .clr-secondary { fill: var(--secondary); }
  .clr-muted     { fill: var(--muted); }
  .clr-accent    { fill: var(--accent); }
  .clr-green     { fill: var(--green); }
  .clr-yellow    { fill: var(--yellow); }
  .clr-red       { fill: var(--red); }
  .txt-bold    { font-weight: 600; }
  svg text     { font-family: -apple-system, BlinkMacSystemFont, "Segoe UI", Helvetica, Arial, sans-serif; }
</style>

<rect x="0" y="0" width="820" height="180" rx="8" class="card"/>
  <text x="20" y="24" class="clr-primary txt-bold" text-anchor="start" font-size="14">Contribution History &amp; Activity</text>
  <line x1="20" y1="36" x2="800" y2="36" class="divider"/>
  <text x="20" y="60" class="clr-muted" text-anchor="start" font-size="12">Years Active:</text>
  <text x="100" y="60" class="clr-primary txt-bold" text-anchor="start" font-size="12">5.8</text>
  <text x="160" y="60" class="clr-muted" text-anchor="start" font-size="12">Commits (Last Year):</text>
  <text x="290" y="60" class="clr-primary txt-bold" text-anchor="start" font-size="12">1229</text>
  <text x="360" y="60" class="clr-muted" text-anchor="start" font-size="12">Highest Daily:</text>
  <text x="450" y="60" class="clr-primary txt-bold" text-anchor="start" font-size="12">163</text>
  <polygon points="20,160 20,160 22.1429,160 24.2857,159.018 26.4286,160 28.5714,160 30.7143,160 32.8571,145.276 35,155.583 37.1429,157.546 39.2857,155.583 41.4286,157.055 43.5714,156.074 45.7143,160 47.8571,160 50,160 52.1429,158.037 54.2857,159.018 56.4286,158.037 58.5714,156.564 60.7143,160 62.8571,158.528 65,156.564 67.1429,160 69.2857,154.11 71.4286,149.202 73.5714,149.202 75.7143,153.62 77.8571,141.84 80,154.601 82.1429,160 84.2857,154.601 86.4286,160 88.5714,160 90.7143,157.546 92.8571,148.221 95,159.018 97.1429,160 99.2857,158.037 101.429,160 103.571,159.509 105.714,160 107.857,160 110,160 112.143,160 114.286,151.656 116.429,155.583 118.571,156.074 120.714,157.546 122.857,150.675 125,160 127.143,158.037 129.286,156.564 131.429,158.037 133.571,156.074 135.714,160 137.857,154.11 140,160 142.143,159.509 144.286,160 146.429,160 148.571,157.546 150.714,160 152.857,160 155,160 157.143,160 159.286,160 161.429,160 163.571,160 165.714,160 167.857,160 170,160 172.143,160 174.286,160 176.429,160 178.571,160 180.714,160 182.857,160 185,154.601 187.143,158.037 189.286,160 191.429,160 193.571,160 195.714,160 197.857,160 200,160 202.143,160 204.286,160 206.429,160 208.571,160 210.714,160 212.857,160 215,160 217.143,160 219.286,160 221.429,160 223.571,160 225.714,160 227.857,160 230,160 232.143,160 234.286,157.055 236.429,160 238.571,160 240.714,160 242.857,160 245,155.092 247.143,160 249.286,160 251.429,160 253.571,160 255.714,137.423 257.857,153.62 260,80 262.143,155.092 264.286,149.202 266.429,155.092 268.571,158.037 270.714,158.528 272.857,159.509 275,156.074 277.143,160 279.286,159.018 281.429,160 283.571,159.509 285.714,159.018 287.857,159.509 290,160 292.143,158.528 294.286,160 296.429,159.018 298.571,159.018 300.714,157.546 302.857,157.055 305,160 307.143,160 309.286,159.509 311.429,159.509 313.571,158.528 315.714,159.509 317.857,157.055 320,157.055 322.143,159.018 324.286,158.528 326.429,147.239 328.571,157.055 330.714,129.08 332.857,147.239 335,153.129 337.143,160 339.286,160 341.429,160 343.571,151.656 345.714,158.528 347.857,160 350,160 352.143,138.405 354.286,158.528 356.429,160 358.571,160 360.714,160 362.857,160 365,160 367.143,160 369.286,160 371.429,160 373.571,160 375.714,160 377.857,160 380,160 382.143,160 384.286,160 386.429,160 388.571,159.509 390.714,160 392.857,160 395,160 397.143,160 399.286,160 401.429,160 403.571,160 405.714,160 407.857,160 410,159.509 412.143,158.037 414.286,160 416.429,160 418.571,160 420.714,160 422.857,160 425,160 427.143,160 429.286,160 431.429,160 433.571,160 435.714,160 437.857,159.509 440,158.037 442.143,157.055 444.286,160 446.429,160 448.571,160 450.714,156.564 452.857,157.546 455,147.239 457.143,160 459.286,160 461.429,160 463.571,155.092 465.714,148.221 467.857,160 470,160 472.143,158.037 474.286,160 476.429,158.037 478.571,160 480.714,160 482.857,160 485,160 487.143,160 489.286,160 491.429,159.018 493.571,144.294 495.714,159.018 497.857,160 500,139.387 502.143,121.718 504.286,120.736 506.429,147.73 508.571,146.258 510.714,157.055 512.857,160 515,160 517.143,160 519.286,160 521.429,160 523.571,160 525.714,160 527.857,160 530,157.546 532.143,153.62 534.286,148.712 536.429,160 538.571,149.202 540.714,149.693 542.857,134.969 545,146.258 547.143,145.767 549.286,146.258 551.429,150.184 553.571,154.11 555.714,154.601 557.857,154.11 560,157.055 562.143,156.564 564.286,159.509 566.429,160 568.571,160 570.714,160 572.857,160 575,160 577.143,160 579.286,160 581.429,160 583.571,158.528 585.714,159.509 587.857,160 590,160 592.143,159.509 594.286,142.331 596.429,144.785 598.571,157.055 600.714,158.528 602.857,160 605,160 607.143,159.509 609.286,160 611.429,160 613.571,159.018 615.714,153.62 617.857,159.018 620,160 622.143,160 624.286,149.693 626.429,155.583 628.571,158.528 630.714,156.074 632.857,155.583 635,159.509 637.143,159.509 639.286,160 641.429,160 643.571,151.656 645.714,140.859 647.857,155.092 650,160 652.143,141.84 654.286,150.184 656.429,152.147 658.571,160 660.714,160 662.857,160 665,160 667.143,160 669.286,160 671.429,160 673.571,160 675.714,160 677.857,160 680,160 682.143,160 684.286,158.037 686.429,160 688.571,160 690.714,160 692.857,160 695,160 697.143,160 699.286,160 701.429,160 703.571,160 705.714,160 707.857,160 710,160 712.143,160 714.286,160 716.429,156.564 718.571,154.601 720.714,160 722.857,160 725,160 727.143,160 729.286,159.509 731.429,160 733.571,160 735.714,159.509 737.857,159.509 740,160 742.143,159.509 744.286,160 746.429,160 748.571,156.074 750.714,159.509 752.857,159.509 755,160 757.143,158.037 759.286,160 761.429,160 763.571,160 765.714,160 767.857,160 770,160 772.143,160 774.286,150.184 776.429,158.528 778.571,159.509 780.714,159.018 782.857,160 785,160 787.143,160 789.286,160 791.429,160 793.571,160 795.714,160 797.857,160 800,160 800,160" fill="var(--pill)" opacity="0.6"/>
  <polyline points="20,160 22.1429,160 24.2857,159.018 26.4286,160 28.5714,160 30.7143,160 32.8571,145.276 35,155.583 37.1429,157.546 39.2857,155.583 41.4286,157.055 43.5714,156.074 45.7143,160 47.8571,160 50,160 52.1429,158.037 54.2857,159.018 56.4286,158.037 58.5714,156.564 60.7143,160 62.8571,158.528 65,156.564 67.1429,160 69.2857,154.11 71.4286,149.202 73.5714,149.202 75.7143,153.62 77.8571,141.84 80,154.601 82.1429,160 84.2857,154.601 86.4286,160 88.5714,160 90.7143,157.546 92.8571,148.221 95,159.018 97.1429,160 99.2857,158.037 101.429,160 103.571,159.509 105.714,160 107.857,160 110,160 112.143,160 114.286,151.656 116.429,155.583 118.571,156.074 120.714,157.546 122.857,150.675 125,160 127.143,158.037 129.286,156.564 131.429,158.037 133.571,156.074 135.714,160 137.857,154.11 140,160 142.143,159.509 144.286,160 146.429,160 148.571,157.546 150.714,160 152.857,160 155,160 157.143,160 159.286,160 161.429,160 163.571,160 165.714,160 167.857,160 170,160 172.143,160 174.286,160 176.429,160 178.571,160 180.714,160 182.857,160 185,154.601 187.143,158.037 189.286,160 191.429,160 193.571,160 195.714,160 197.857,160 200,160 202.143,160 204.286,160 206.429,160 208.571,160 210.714,160 212.857,160 215,160 217.143,160 219.286,160 221.429,160 223.571,160 225.714,160 227.857,160 230,160 232.143,160 234.286,157.055 236.429,160 238.571,160 240.714,160 242.857,160 245,155.092 247.143,160 249.286,160 251.429,160 253.571,160 255.714,137.423 257.857,153.62 260,80 262.143,155.092 264.286,149.202 266.429,155.092 268.571,158.037 270.714,158.528 272.857,159.509 275,156.074 277.143,160 279.286,159.018 281.429,160 283.571,159.509 285.714,159.018 287.857,159.509 290,160 292.143,158.528 294.286,160 296.429,159.018 298.571,159.018 300.714,157.546 302.857,157.055 305,160 307.143,160 309.286,159.509 311.429,159.509 313.571,158.528 315.714,159.509 317.857,157.055 320,157.055 322.143,159.018 324.286,158.528 326.429,147.239 328.571,157.055 330.714,129.08 332.857,147.239 335,153.129 337.143,160 339.286,160 341.429,160 343.571,151.656 345.714,158.528 347.857,160 350,160 352.143,138.405 354.286,158.528 356.429,160 358.571,160 360.714,160 362.857,160 365,160 367.143,160 369.286,160 371.429,160 373.571,160 375.714,160 377.857,160 380,160 382.143,160 384.286,160 386.429,160 388.571,159.509 390.714,160 392.857,160 395,160 397.143,160 399.286,160 401.429,160 403.571,160 405.714,160 407.857,160 410,159.509 412.143,158.037 414.286,160 416.429,160 418.571,160 420.714,160 422.857,160 425,160 427.143,160 429.286,160 431.429,160 433.571,160 435.714,160 437.857,159.509 440,158.037 442.143,157.055 444.286,160 446.429,160 448.571,160 450.714,156.564 452.857,157.546 455,147.239 457.143,160 459.286,160 461.429,160 463.571,155.092 465.714,148.221 467.857,160 470,160 472.143,158.037 474.286,160 476.429,158.037 478.571,160 480.714,160 482.857,160 485,160 487.143,160 489.286,160 491.429,159.018 493.571,144.294 495.714,159.018 497.857,160 500,139.387 502.143,121.718 504.286,120.736 506.429,147.73 508.571,146.258 510.714,157.055 512.857,160 515,160 517.143,160 519.286,160 521.429,160 523.571,160 525.714,160 527.857,160 530,157.546 532.143,153.62 534.286,148.712 536.429,160 538.571,149.202 540.714,149.693 542.857,134.969 545,146.258 547.143,145.767 549.286,146.258 551.429,150.184 553.571,154.11 555.714,154.601 557.857,154.11 560,157.055 562.143,156.564 564.286,159.509 566.429,160 568.571,160 570.714,160 572.857,160 575,160 577.143,160 579.286,160 581.429,160 583.571,158.528 585.714,159.509 587.857,160 590,160 592.143,159.509 594.286,142.331 596.429,144.785 598.571,157.055 600.714,158.528 602.857,160 605,160 607.143,159.509 609.286,160 611.429,160 613.571,159.018 615.714,153.62 617.857,159.018 620,160 622.143,160 624.286,149.693 626.429,155.583 628.571,158.528 630.714,156.074 632.857,155.583 635,159.509 637.143,159.509 639.286,160 641.429,160 643.571,151.656 645.714,140.859 647.857,155.092 650,160 652.143,141.84 654.286,150.184 656.429,152.147 658.571,160 660.714,160 662.857,160 665,160 667.143,160 669.286,160 671.429,160 673.571,160 675.714,160 677.857,160 680,160 682.143,160 684.286,158.037 686.429,160 688.571,160 690.714,160 692.857,160 695,160 697.143,160 699.286,160 701.429,160 703.571,160 705.714,160 707.857,160 710,160 712.143,160 714.286,160 716.429,156.564 718.571,154.601 720.714,160 722.857,160 725,160 727.143,160 729.286,159.509 731.429,160 733.571,160 735.714,159.509 737.857,159.509 740,160 742.143,159.509 744.286,160 746.429,160 748.571,156.074 750.714,159.509 752.857,159.509 755,160 757.143,158.037 759.286,160 761.429,160 763.571,160 765.714,160 767.857,160 770,160 772.143,160 774.286,150.184 776.429,158.528 778.571,159.509 780.714,159.018 782.857,160 785,160 787.143,160 789.286,160 791.429,160 793.571,160 795.714,160 797.857,160 800,160" fill="none" stroke="var(--accent)" stroke-width="1.5" stroke-linecap="round" stroke-linejoin="round"/>
</svg>

