<svg xmlns="http://www.w3.org/2000/svg" width="820" height="180" viewBox="0 0 820 180">

<style>
  :root {
    --bg:        #f6f8fa;
    --card:      #ffffff;
    --border:    #d0d7de;
    --primary:   #1f2328;
    --secondary: #636c76;
    --muted:     #8c959f;
    --accent:    #0969da;
    --green:     #1a7f37;
    --yellow:    #9a6700;
    --red:       #cf222e;
    --hover:     #f3f4f6;
    --spark-bg:  #f0f3f6;
    --spark:     #0969da;
    --pill:      #eaf1fb;
    --pill-txt:  #0969da;
    --div:       #d0d7de;
  }
  @media (prefers-color-scheme: dark) {
    :root {
      --bg:        #0d1117;
      --card:      #161b22;
      --border:    #30363d;
      --primary:   #e6edf3;
      --secondary: #848d97;
      --muted:     #7d8590;
      --accent:    #2f81f7;
      --green:     #3fb950;
      --yellow:    #d29922;
      --red:       #f85149;
      --hover:     #21262d;
      --spark-bg:  #1c2128;
      --spark:     #58a6ff;
      --pill:      #1c2d3f;
      --pill-txt:  #58a6ff;
      --div:       #30363d;
    }
  }
  
  .bg          { fill: var(--bg); }
  .card        { fill: var(--card); stroke: var(--border); stroke-width: 1; }
  .lang-pill   { fill: var(--pill); }
  .spark-bg    { fill: var(--spark-bg); }
  .spark-line  { stroke: var(--spark); }
  .divider     { stroke: var(--div); stroke-width: 1; }
  .clr-primary   { fill: var(--primary); }
  .clr-secondary { fill: var(--secondary); }
  .clr-muted     { fill: var(--muted); }
  .clr-accent    { fill: var(--accent); }
  .clr-green     { fill: var(--green); }
  .clr-yellow    { fill: var(--yellow); }
  .clr-red       { fill: var(--red); }
  .txt-bold    { font-weight: 600; }
  svg text     { font-family: -apple-system, BlinkMacSystemFont, "Segoe UI", Helvetica, Arial, sans-serif; }
</style>

<rect x="0" y="0" width="820" height="180" rx="8" class="card"/>
  <text x="20" y="24" class="clr-primary txt-bold" text-anchor="start" font-size="14">Contribution History &amp; Activity</text>
  <line x1="20" y1="36" x2="800" y2="36" class="divider"/>
  <text x="20" y="60" class="clr-muted" text-anchor="start" font-size="12">Years Active:</text>
  <text x="100" y="60" class="clr-primary txt-bold" text-anchor="start" font-size="12">5.6</text>
  <text x="160" y="60" class="clr-muted" text-anchor="start" font-size="12">Commits (Last Year):</text>
  <text x="290" y="60" class="clr-primary txt-bold" text-anchor="start" font-size="12">1188</text>
  <text x="360" y="60" class="clr-muted" text-anchor="start" font-size="12">Highest Daily:</text>
  <text x="450" y="60" class="clr-primary txt-bold" text-anchor="start" font-size="12">163</text>
  <polygon points="20,160 20,160 22.1429,160 24.2857,160 26.4286,160 28.5714,159.018 30.7143,160 32.8571,160 35,160 37.1429,160 39.2857,160 41.4286,160 43.5714,160 45.7143,160 47.8571,160 50,160 52.1429,160 54.2857,160 56.4286,160 58.5714,160 60.7143,160 62.8571,160 65,160 67.1429,160 69.2857,160 71.4286,160 73.5714,160 75.7143,160 77.8571,160 80,160 82.1429,160 84.2857,160 86.4286,160 88.5714,160 90.7143,160 92.8571,160 95,160 97.1429,160 99.2857,160 101.429,160 103.571,159.509 105.714,160 107.857,160 110,160 112.143,160 114.286,160 116.429,160 118.571,160 120.714,160 122.857,160 125,160 127.143,160 129.286,160 131.429,160 133.571,160 135.714,160 137.857,160 140,160 142.143,160 144.286,160 146.429,160 148.571,160 150.714,160 152.857,160 155,160 157.143,160 159.286,159.018 161.429,160 163.571,160 165.714,160 167.857,145.276 170,155.583 172.143,157.546 174.286,155.583 176.429,157.055 178.571,156.074 180.714,160 182.857,160 185,160 187.143,158.037 189.286,159.018 191.429,158.037 193.571,156.564 195.714,160 197.857,158.528 200,156.564 202.143,160 204.286,154.11 206.429,149.202 208.571,149.202 210.714,153.62 212.857,141.84 215,154.601 217.143,160 219.286,154.601 221.429,160 223.571,160 225.714,157.546 227.857,148.221 230,159.018 232.143,160 234.286,158.037 236.429,160 238.571,159.509 240.714,160 242.857,160 245,160 247.143,160 249.286,151.656 251.429,155.583 253.571,156.074 255.714,157.546 257.857,150.675 260,160 262.143,158.037 264.286,156.564 266.429,158.037 268.571,156.074 270.714,160 272.857,154.11 275,160 277.143,159.509 279.286,160 281.429,160 283.571,157.546 285.714,160 287.857,160 290,160 292.143,160 294.286,160 296.429,160 298.571,160 300.714,160 302.857,160 305,160 307.143,160 309.286,160 311.429,160 313.571,160 315.714,160 317.857,160 320,154.601 322.143,158.037 324.286,160 326.429,160 328.571,160 330.714,160 332.857,160 335,160 337.143,160 339.286,160 341.429,160 343.571,160 345.714,160 347.857,160 350,160 352.143,160 354.286,160 356.429,160 358.571,160 360.714,160 362.857,160 365,160 367.143,160 369.286,157.055 371.429,160 373.571,160 375.714,160 377.857,160 380,155.092 382.143,160 384.286,160 386.429,160 388.571,160 390.714,137.423 392.857,153.62 395,80 397.143,155.092 399.286,149.202 401.429,155.092 403.571,158.037 405.714,158.528 407.857,159.509 410,156.074 412.143,160 414.286,159.018 416.429,160 418.571,159.509 420.714,159.018 422.857,159.509 425,160 427.143,158.528 429.286,160 431.429,159.018 433.571,159.018 435.714,157.546 437.857,157.055 440,160 442.143,160 444.286,159.509 446.429,159.509 448.571,158.528 450.714,159.509 452.857,157.055 455,157.055 457.143,159.018 459.286,158.528 461.429,147.239 463.571,157.055 465.714,129.08 467.857,147.239 470,153.129 472.143,160 474.286,160 476.429,160 478.571,151.656 480.714,158.528 482.857,160 485,160 487.143,138.405 489.286,158.528 491.429,160 493.571,160 495.714,160 497.857,160 500,160 502.143,160 504.286,160 506.429,160 508.571,160 510.714,160 512.857,160 515,160 517.143,160 519.286,160 521.429,160 523.571,159.509 525.714,160 527.857,160 530,160 532.143,160 534.286,160 536.429,160 538.571,160 540.714,160 542.857,160 545,159.509 547.143,158.037 549.286,160 551.429,160 553.571,160 555.714,160 557.857,160 560,160 562.143,160 564.286,160 566.429,160 568.571,160 570.714,160 572.857,159.509 575,158.037 577.143,157.055 579.286,160 581.429,160 583.571,160 585.714,156.564 587.857,157.546 590,147.239 592.143,160 594.286,160 596.429,160 598.571,155.092 600.714,148.221 602.857,160 605,160 607.143,158.037 609.286,160 611.429,158.037 613.571,160 615.714,160 617.857,160 620,160 622.143,160 624.286,160 626.429,159.018 628.571,144.294 630.714,159.018 632.857,160 635,139.387 637.143,121.718 639.286,120.736 641.429,147.73 643.571,146.258 645.714,157.055 647.857,160 650,160 652.143,160 654.286,160 656.429,160 658.571,160 660.714,160 662.857,160 665,157.546 667.143,153.62 669.286,148.712 671.429,160 673.571,149.202 675.714,149.693 677.857,134.969 680,146.258 682.143,145.767 684.286,146.258 686.429,150.184 688.571,154.11 690.714,154.601 692.857,154.11 695,157.055 697.143,156.564 699.286,159.509 701.429,160 703.571,160 705.714,160 707.857,160 710,160 712.143,160 714.286,160 716.429,160 718.571,158.528 720.714,159.509 722.857,160 725,160 727.143,159.509 729.286,142.331 731.429,144.785 733.571,157.055 735.714,158.528 737.857,160 740,160 742.143,159.509 744.286,160 746.429,160 748.571,159.018 750.714,153.62 752.857,159.018 755,160 757.143,160 759.286,149.693 761.429,155.583 763.571,158.528 765.714,156.074 767.857,155.583 770,159.509 772.143,159.509 774.286,160 776.429,160 778.571,151.656 780.714,140.859 782.857,155.092 785,160 787.143,141.84 789.286,150.184 791.429,152.147 793.571,160 795.714,160 797.857,160 800,160 800,160" fill="var(--pill)" opacity="0.6"/>
  <polyline points="20,160 22.1429,160 24.2857,160 26.4286,160 28.5714,159.018 30.7143,160 32.8571,160 35,160 37.1429,160 39.2857,160 41.4286,160 43.5714,160 45.7143,160 47.8571,160 50,160 52.1429,160 54.2857,160 56.4286,160 58.5714,160 60.7143,160 62.8571,160 65,160 67.1429,160 69.2857,160 71.4286,160 73.5714,160 75.7143,160 77.8571,160 80,160 82.1429,160 84.2857,160 86.4286,160 88.5714,160 90.7143,160 92.8571,160 95,160 97.1429,160 99.2857,160 101.429,160 103.571,159.509 105.714,160 107.857,160 110,160 112.143,160 114.286,160 116.429,160 118.571,160 120.714,160 122.857,160 125,160 127.143,160 129.286,160 131.429,160 133.571,160 135.714,160 137.857,160 140,160 142.143,160 144.286,160 146.429,160 148.571,160 150.714,160 152.857,160 155,160 157.143,160 159.286,159.018 161.429,160 163.571,160 165.714,160 167.857,145.276 170,155.583 172.143,157.546 174.286,155.583 176.429,157.055 178.571,156.074 180.714,160 182.857,160 185,160 187.143,158.037 189.286,159.018 191.429,158.037 193.571,156.564 195.714,160 197.857,158.528 200,156.564 202.143,160 204.286,154.11 206.429,149.202 208.571,149.202 210.714,153.62 212.857,141.84 215,154.601 217.143,160 219.286,154.601 221.429,160 223.571,160 225.714,157.546 227.857,148.221 230,159.018 232.143,160 234.286,158.037 236.429,160 238.571,159.509 240.714,160 242.857,160 245,160 247.143,160 249.286,151.656 251.429,155.583 253.571,156.074 255.714,157.546 257.857,150.675 260,160 262.143,158.037 264.286,156.564 266.429,158.037 268.571,156.074 270.714,160 272.857,154.11 275,160 277.143,159.509 279.286,160 281.429,160 283.571,157.546 285.714,160 287.857,160 290,160 292.143,160 294.286,160 296.429,160 298.571,160 300.714,160 302.857,160 305,160 307.143,160 309.286,160 311.429,160 313.571,160 315.714,160 317.857,160 320,154.601 322.143,158.037 324.286,160 326.429,160 328.571,160 330.714,160 332.857,160 335,160 337.143,160 339.286,160 341.429,160 343.571,160 345.714,160 347.857,160 350,160 352.143,160 354.286,160 356.429,160 358.571,160 360.714,160 362.857,160 365,160 367.143,160 369.286,157.055 371.429,160 373.571,160 375.714,160 377.857,160 380,155.092 382.143,160 384.286,160 386.429,160 388.571,160 390.714,137.423 392.857,153.62 395,80 397.143,155.092 399.286,149.202 401.429,155.092 403.571,158.037 405.714,158.528 407.857,159.509 410,156.074 412.143,160 414.286,159.018 416.429,160 418.571,159.509 420.714,159.018 422.857,159.509 425,160 427.143,158.528 429.286,160 431.429,159.018 433.571,159.018 435.714,157.546 437.857,157.055 440,160 442.143,160 444.286,159.509 446.429,159.509 448.571,158.528 450.714,159.509 452.857,157.055 455,157.055 457.143,159.018 459.286,158.528 461.429,147.239 463.571,157.055 465.714,129.08 467.857,147.239 470,153.129 472.143,160 474.286,160 476.429,160 478.571,151.656 480.714,158.528 482.857,160 485,160 487.143,138.405 489.286,158.528 491.429,160 493.571,160 495.714,160 497.857,160 500,160 502.143,160 504.286,160 506.429,160 508.571,160 510.714,160 512.857,160 515,160 517.143,160 519.286,160 521.429,160 523.571,159.509 525.714,160 527.857,160 530,160 532.143,160 534.286,160 536.429,160 538.571,160 540.714,160 542.857,160 545,159.509 547.143,158.037 549.286,160 551.429,160 553.571,160 555.714,160 557.857,160 560,160 562.143,160 564.286,160 566.429,160 568.571,160 570.714,160 572.857,159.509 575,158.037 577.143,157.055 579.286,160 581.429,160 583.571,160 585.714,156.564 587.857,157.546 590,147.239 592.143,160 594.286,160 596.429,160 598.571,155.092 600.714,148.221 602.857,160 605,160 607.143,158.037 609.286,160 611.429,158.037 613.571,160 615.714,160 617.857,160 620,160 622.143,160 624.286,160 626.429,159.018 628.571,144.294 630.714,159.018 632.857,160 635,139.387 637.143,121.718 639.286,120.736 641.429,147.73 643.571,146.258 645.714,157.055 647.857,160 650,160 652.143,160 654.286,160 656.429,160 658.571,160 660.714,160 662.857,160 665,157.546 667.143,153.62 669.286,148.712 671.429,160 673.571,149.202 675.714,149.693 677.857,134.969 680,146.258 682.143,145.767 684.286,146.258 686.429,150.184 688.571,154.11 690.714,154.601 692.857,154.11 695,157.055 697.143,156.564 699.286,159.509 701.429,160 703.571,160 705.714,160 707.857,160 710,160 712.143,160 714.286,160 716.429,160 718.571,158.528 720.714,159.509 722.857,160 725,160 727.143,159.509 729.286,142.331 731.429,144.785 733.571,157.055 735.714,158.528 737.857,160 740,160 742.143,159.509 744.286,160 746.429,160 748.571,159.018 750.714,153.62 752.857,159.018 755,160 757.143,160 759.286,149.693 761.429,155.583 763.571,158.528 765.714,156.074 767.857,155.583 770,159.509 772.143,159.509 774.286,160 776.429,160 778.571,151.656 780.714,140.859 782.857,155.092 785,160 787.143,141.84 789.286,150.184 791.429,152.147 793.571,160 795.714,160 797.857,160 800,160" fill="none" stroke="var(--accent)" stroke-width="1.5" stroke-linecap="round" stroke-linejoin="round"/>
</svg>

