<svg xmlns="http://www.w3.org/2000/svg" width="820" height="180" viewBox="0 0 820 180">

<style>
  :root {
    --bg:        #f6f8fa;
    --card:      #ffffff;
    --border:    #d0d7de;
    --primary:   #1f2328;
    --secondary: #636c76;
    --muted:     #8c959f;
    --accent:    #0969da;
    --green:     #1a7f37;
    --yellow:    #9a6700;
    --red:       #cf222e;
    --hover:     #f3f4f6;
    --spark-bg:  #f0f3f6;
    --spark:     #0969da;
    --pill:      #eaf1fb;
    --pill-txt:  #0969da;
    --div:       #d0d7de;
  }
  @media (prefers-color-scheme: dark) {
    :root {
      --bg:        #0d1117;
      --card:      #161b22;
      --border:    #30363d;
      --primary:   #e6edf3;
      --secondary: #848d97;
      --muted:     #7d8590;
      --accent:    #2f81f7;
      --green:     #3fb950;
      --yellow:    #d29922;
      --red:       #f85149;
      --hover:     #21262d;
      --spark-bg:  #1c2128;
      --spark:     #58a6ff;
      --pill:      #1c2d3f;
      --pill-txt:  #58a6ff;
      --div:       #30363d;
    }
  }
  
  .bg          { fill: var(--bg); }
  .card        { fill: var(--card); stroke: var(--border); stroke-width: 1; }
  .lang-pill   { fill: var(--pill); }
  .spark-bg    { fill: var(--spark-bg); }
  .spark-line  { stroke: var(--spark); }
  .divider     { stroke: var(--div); stroke-width: 1; }
  .clr-primary   { fill: var(--primary); }
  .clr-secondary { fill: var(--secondary); }
  .clr-muted     { fill: var(--muted); }
  .clr-accent    { fill: var(--accent); }
  .clr-green     { fill: var(--green); }
  .clr-yellow    { fill: var(--yellow); }
  .clr-red       { fill: var(--red); }
  .txt-bold    { font-weight: 600; }
  svg text     { font-family: -apple-system, BlinkMacSystemFont, "Segoe UI", Helvetica, Arial, sans-serif; }
</style>

<rect x="0" y="0" width="820" height="180" rx="8" class="card"/>
  <text x="20" y="24" class="clr-primary txt-bold" text-anchor="start" font-size="14">Contribution History &amp; Activity</text>
  <line x1="20" y1="36" x2="800" y2="36" class="divider"/>
  <text x="20" y="60" class="clr-muted" text-anchor="start" font-size="12">Years Active:</text>
  <text x="100" y="60" class="clr-primary txt-bold" text-anchor="start" font-size="12">5.6</text>
  <text x="160" y="60" class="clr-muted" text-anchor="start" font-size="12">Commits (Last Year):</text>
  <text x="290" y="60" class="clr-primary txt-bold" text-anchor="start" font-size="12">1186</text>
  <text x="360" y="60" class="clr-muted" text-anchor="start" font-size="12">Highest Daily:</text>
  <text x="450" y="60" class="clr-primary txt-bold" text-anchor="start" font-size="12">163</text>
  <polygon points="20,160 20,160 22.1253,160 24.2507,160 26.376,154.11 28.5014,157.055 30.6267,160 32.752,160 34.8774,160 37.0027,160 39.1281,160 41.2534,160 43.3787,159.018 45.5041,160 47.6294,160 49.7548,160 51.8801,160 54.0054,160 56.1308,160 58.2561,160 60.3815,160 62.5068,160 64.6322,160 66.7575,160 68.8828,160 71.0082,160 73.1335,160 75.2589,160 77.3842,160 79.5095,160 81.6349,160 83.7602,160 85.8856,160 88.0109,160 90.1362,160 92.2616,160 94.3869,160 96.5123,160 98.6376,160 100.763,160 102.888,160 105.014,160 107.139,160 109.264,160 111.39,160 113.515,160 115.64,160 117.766,159.509 119.891,160 122.016,160 124.142,160 126.267,160 128.392,160 130.518,160 132.643,160 134.768,160 136.894,160 139.019,160 141.144,160 143.27,160 145.395,160 147.52,160 149.646,160 151.771,160 153.896,160 156.022,160 158.147,160 160.272,160 162.398,160 164.523,160 166.649,160 168.774,160 170.899,160 173.025,159.018 175.15,160 177.275,160 179.401,160 181.526,145.276 183.651,155.583 185.777,157.546 187.902,155.583 190.027,157.055 192.153,156.074 194.278,160 196.403,160 198.529,160 200.654,158.037 202.779,159.018 204.905,158.037 207.03,156.564 209.155,160 211.281,158.528 213.406,156.564 215.531,160 217.657,154.11 219.782,149.202 221.907,149.202 224.033,153.62 226.158,141.84 228.283,154.601 230.409,160 232.534,154.601 234.659,160 236.785,160 238.91,157.546 241.035,148.221 243.161,159.018 245.286,160 247.411,158.037 249.537,160 251.662,159.509 253.787,160 255.913,160 258.038,160 260.163,160 262.289,151.656 264.414,155.583 266.54,156.074 268.665,157.546 270.79,150.675 272.916,160 275.041,158.037 277.166,156.564 279.292,158.037 281.417,156.074 283.542,160 285.668,154.11 287.793,160 289.918,159.509 292.044,160 294.169,160 296.294,157.546 298.42,160 300.545,160 302.67,160 304.796,160 306.921,160 309.046,160 311.172,160 313.297,160 315.422,160 317.548,160 319.673,160 321.798,160 323.924,160 326.049,160 328.174,160 330.3,160 332.425,154.601 334.55,158.037 336.676,160 338.801,160 340.926,160 343.052,160 345.177,160 347.302,160 349.428,160 351.553,160 353.678,160 355.804,160 357.929,160 360.054,160 362.18,160 364.305,160 366.431,160 368.556,160 370.681,160 372.807,160 374.932,160 377.057,160 379.183,160 381.308,157.055 383.433,160 385.559,160 387.684,160 389.809,160 391.935,155.092 394.06,160 396.185,160 398.311,160 400.436,160 402.561,137.423 404.687,153.62 406.812,80 408.937,155.092 411.063,149.202 413.188,155.092 415.313,158.037 417.439,158.528 419.564,159.509 421.689,156.074 423.815,160 425.94,159.018 428.065,160 430.191,159.509 432.316,159.018 434.441,159.509 436.567,160 438.692,158.528 440.817,160 442.943,159.018 445.068,159.018 447.193,157.546 449.319,157.055 451.444,160 453.569,160 455.695,159.509 457.82,159.509 459.946,158.528 462.071,159.509 464.196,157.055 466.322,157.055 468.447,159.018 470.572,158.528 472.698,147.239 474.823,157.055 476.948,129.08 479.074,147.239 481.199,153.129 483.324,160 485.45,160 487.575,160 489.7,151.656 491.826,158.528 493.951,160 496.076,160 498.202,138.405 500.327,158.528 502.452,160 504.578,160 506.703,160 508.828,160 510.954,160 513.079,160 515.204,160 517.33,160 519.455,160 521.58,160 523.706,160 525.831,160 527.956,160 530.082,160 532.207,160 534.332,159.509 536.458,160 538.583,160 540.708,160 542.834,160 544.959,160 547.084,160 549.21,160 551.335,160 553.46,160 555.586,159.509 557.711,158.037 559.837,160 561.962,160 564.087,160 566.213,160 568.338,160 570.463,160 572.589,160 574.714,160 576.839,160 578.965,160 581.09,160 583.215,159.509 585.341,158.037 587.466,157.055 589.591,160 591.717,160 593.842,160 595.967,156.564 598.093,157.546 600.218,147.239 602.343,160 604.469,160 606.594,160 608.719,155.092 610.845,148.221 612.97,160 615.095,160 617.221,158.037 619.346,160 621.471,158.037 623.597,160 625.722,160 627.847,160 629.973,160 632.098,160 634.223,160 636.349,159.018 638.474,144.294 640.599,159.018 642.725,160 644.85,139.387 646.975,121.718 649.101,120.736 651.226,147.73 653.351,146.258 655.477,157.055 657.602,160 659.728,160 661.853,160 663.978,160 666.104,160 668.229,160 670.354,160 672.48,160 674.605,157.546 676.73,153.62 678.856,148.712 680.981,160 683.106,149.202 685.232,149.693 687.357,134.969 689.482,146.258 691.608,145.767 693.733,146.258 695.858,150.184 697.984,154.11 700.109,154.601 702.234,154.11 704.36,157.055 706.485,156.564 708.61,159.509 710.736,160 712.861,160 714.986,160 717.112,160 719.237,160 721.362,160 723.488,160 725.613,160 727.738,158.528 729.864,159.509 731.989,160 734.114,160 736.24,159.509 738.365,142.331 740.49,144.785 742.616,157.055 744.741,158.528 746.866,160 748.992,160 751.117,159.509 753.243,160 755.368,160 757.493,159.018 759.619,153.62 761.744,159.018 763.869,160 765.995,160 768.12,149.693 770.245,155.583 772.371,158.528 774.496,156.074 776.621,155.583 778.747,159.509 780.872,159.509 782.997,160 785.123,160 787.248,151.656 789.373,140.859 791.499,155.092 793.624,160 795.749,141.84 797.875,150.184 800,153.129 800,160" fill="var(--pill)" opacity="0.6"/>
  <polyline points="20,160 22.1253,160 24.2507,160 26.376,154.11 28.5014,157.055 30.6267,160 32.752,160 34.8774,160 37.0027,160 39.1281,160 41.2534,160 43.3787,159.018 45.5041,160 47.6294,160 49.7548,160 51.8801,160 54.0054,160 56.1308,160 58.2561,160 60.3815,160 62.5068,160 64.6322,160 66.7575,160 68.8828,160 71.0082,160 73.1335,160 75.2589,160 77.3842,160 79.5095,160 81.6349,160 83.7602,160 85.8856,160 88.0109,160 90.1362,160 92.2616,160 94.3869,160 96.5123,160 98.6376,160 100.763,160 102.888,160 105.014,160 107.139,160 109.264,160 111.39,160 113.515,160 115.64,160 117.766,159.509 119.891,160 122.016,160 124.142,160 126.267,160 128.392,160 130.518,160 132.643,160 134.768,160 136.894,160 139.019,160 141.144,160 143.27,160 145.395,160 147.52,160 149.646,160 151.771,160 153.896,160 156.022,160 158.147,160 160.272,160 162.398,160 164.523,160 166.649,160 168.774,160 170.899,160 173.025,159.018 175.15,160 177.275,160 179.401,160 181.526,145.276 183.651,155.583 185.777,157.546 187.902,155.583 190.027,157.055 192.153,156.074 194.278,160 196.403,160 198.529,160 200.654,158.037 202.779,159.018 204.905,158.037 207.03,156.564 209.155,160 211.281,158.528 213.406,156.564 215.531,160 217.657,154.11 219.782,149.202 221.907,149.202 224.033,153.62 226.158,141.84 228.283,154.601 230.409,160 232.534,154.601 234.659,160 236.785,160 238.91,157.546 241.035,148.221 243.161,159.018 245.286,160 247.411,158.037 249.537,160 251.662,159.509 253.787,160 255.913,160 258.038,160 260.163,160 262.289,151.656 264.414,155.583 266.54,156.074 268.665,157.546 270.79,150.675 272.916,160 275.041,158.037 277.166,156.564 279.292,158.037 281.417,156.074 283.542,160 285.668,154.11 287.793,160 289.918,159.509 292.044,160 294.169,160 296.294,157.546 298.42,160 300.545,160 302.67,160 304.796,160 306.921,160 309.046,160 311.172,160 313.297,160 315.422,160 317.548,160 319.673,160 321.798,160 323.924,160 326.049,160 328.174,160 330.3,160 332.425,154.601 334.55,158.037 336.676,160 338.801,160 340.926,160 343.052,160 345.177,160 347.302,160 349.428,160 351.553,160 353.678,160 355.804,160 357.929,160 360.054,160 362.18,160 364.305,160 366.431,160 368.556,160 370.681,160 372.807,160 374.932,160 377.057,160 379.183,160 381.308,157.055 383.433,160 385.559,160 387.684,160 389.809,160 391.935,155.092 394.06,160 396.185,160 398.311,160 400.436,160 402.561,137.423 404.687,153.62 406.812,80 408.937,155.092 411.063,149.202 413.188,155.092 415.313,158.037 417.439,158.528 419.564,159.509 421.689,156.074 423.815,160 425.94,159.018 428.065,160 430.191,159.509 432.316,159.018 434.441,159.509 436.567,160 438.692,158.528 440.817,160 442.943,159.018 445.068,159.018 447.193,157.546 449.319,157.055 451.444,160 453.569,160 455.695,159.509 457.82,159.509 459.946,158.528 462.071,159.509 464.196,157.055 466.322,157.055 468.447,159.018 470.572,158.528 472.698,147.239 474.823,157.055 476.948,129.08 479.074,147.239 481.199,153.129 483.324,160 485.45,160 487.575,160 489.7,151.656 491.826,158.528 493.951,160 496.076,160 498.202,138.405 500.327,158.528 502.452,160 504.578,160 506.703,160 508.828,160 510.954,160 513.079,160 515.204,160 517.33,160 519.455,160 521.58,160 523.706,160 525.831,160 527.956,160 530.082,160 532.207,160 534.332,159.509 536.458,160 538.583,160 540.708,160 542.834,160 544.959,160 547.084,160 549.21,160 551.335,160 553.46,160 555.586,159.509 557.711,158.037 559.837,160 561.962,160 564.087,160 566.213,160 568.338,160 570.463,160 572.589,160 574.714,160 576.839,160 578.965,160 581.09,160 583.215,159.509 585.341,158.037 587.466,157.055 589.591,160 591.717,160 593.842,160 595.967,156.564 598.093,157.546 600.218,147.239 602.343,160 604.469,160 606.594,160 608.719,155.092 610.845,148.221 612.97,160 615.095,160 617.221,158.037 619.346,160 621.471,158.037 623.597,160 625.722,160 627.847,160 629.973,160 632.098,160 634.223,160 636.349,159.018 638.474,144.294 640.599,159.018 642.725,160 644.85,139.387 646.975,121.718 649.101,120.736 651.226,147.73 653.351,146.258 655.477,157.055 657.602,160 659.728,160 661.853,160 663.978,160 666.104,160 668.229,160 670.354,160 672.48,160 674.605,157.546 676.73,153.62 678.856,148.712 680.981,160 683.106,149.202 685.232,149.693 687.357,134.969 689.482,146.258 691.608,145.767 693.733,146.258 695.858,150.184 697.984,154.11 700.109,154.601 702.234,154.11 704.36,157.055 706.485,156.564 708.61,159.509 710.736,160 712.861,160 714.986,160 717.112,160 719.237,160 721.362,160 723.488,160 725.613,160 727.738,158.528 729.864,159.509 731.989,160 734.114,160 736.24,159.509 738.365,142.331 740.49,144.785 742.616,157.055 744.741,158.528 746.866,160 748.992,160 751.117,159.509 753.243,160 755.368,160 757.493,159.018 759.619,153.62 761.744,159.018 763.869,160 765.995,160 768.12,149.693 770.245,155.583 772.371,158.528 774.496,156.074 776.621,155.583 778.747,159.509 780.872,159.509 782.997,160 785.123,160 787.248,151.656 789.373,140.859 791.499,155.092 793.624,160 795.749,141.84 797.875,150.184 800,153.129" fill="none" stroke="var(--accent)" stroke-width="1.5" stroke-linecap="round" stroke-linejoin="round"/>
</svg>

