<svg xmlns="http://www.w3.org/2000/svg" width="820" height="180" viewBox="0 0 820 180">

<style>
  :root {
    --bg:        #f6f8fa;
    --card:      #ffffff;
    --border:    #d0d7de;
    --primary:   #1f2328;
    --secondary: #636c76;
    --muted:     #8c959f;
    --accent:    #0969da;
    --green:     #1a7f37;
    --yellow:    #9a6700;
    --red:       #cf222e;
    --hover:     #f3f4f6;
    --spark-bg:  #f0f3f6;
    --spark:     #0969da;
    --pill:      #eaf1fb;
    --pill-txt:  #0969da;
    --div:       #d0d7de;
  }
  @media (prefers-color-scheme: dark) {
    :root {
      --bg:        #0d1117;
      --card:      #161b22;
      --border:    #30363d;
      --primary:   #e6edf3;
      --secondary: #848d97;
      --muted:     #7d8590;
      --accent:    #2f81f7;
      --green:     #3fb950;
      --yellow:    #d29922;
      --red:       #f85149;
      --hover:     #21262d;
      --spark-bg:  #1c2128;
      --spark:     #58a6ff;
      --pill:      #1c2d3f;
      --pill-txt:  #58a6ff;
      --div:       #30363d;
    }
  }
  
  .bg          { fill: var(--bg); }
  .card        { fill: var(--card); stroke: var(--border); stroke-width: 1; }
  .lang-pill   { fill: var(--pill); }
  .spark-bg    { fill: var(--spark-bg); }
  .spark-line  { stroke: var(--spark); }
  .divider     { stroke: var(--div); stroke-width: 1; }
  .clr-primary   { fill: var(--primary); }
  .clr-secondary { fill: var(--secondary); }
  .clr-muted     { fill: var(--muted); }
  .clr-accent    { fill: var(--accent); }
  .clr-green     { fill: var(--green); }
  .clr-yellow    { fill: var(--yellow); }
  .clr-red       { fill: var(--red); }
  .txt-bold    { font-weight: 600; }
  svg text     { font-family: -apple-system, BlinkMacSystemFont, "Segoe UI", Helvetica, Arial, sans-serif; }
</style>

<rect x="0" y="0" width="820" height="180" rx="8" class="card"/>
  <text x="20" y="24" class="clr-primary txt-bold" text-anchor="start" font-size="14">Contribution History &amp; Activity</text>
  <line x1="20" y1="36" x2="800" y2="36" class="divider"/>
  <text x="20" y="60" class="clr-muted" text-anchor="start" font-size="12">Years Active:</text>
  <text x="100" y="60" class="clr-primary txt-bold" text-anchor="start" font-size="12">5.9</text>
  <text x="160" y="60" class="clr-muted" text-anchor="start" font-size="12">Commits (Last Year):</text>
  <text x="290" y="60" class="clr-primary txt-bold" text-anchor="start" font-size="12">1066</text>
  <text x="360" y="60" class="clr-muted" text-anchor="start" font-size="12">Highest Daily:</text>
  <text x="450" y="60" class="clr-primary txt-bold" text-anchor="start" font-size="12">163</text>
  <polygon points="20,160 20,154.601 22.1311,160 24.2623,154.601 26.3934,160 28.5246,160 30.6557,157.546 32.7869,148.221 34.918,159.018 37.0492,160 39.1803,158.037 41.3115,160 43.4426,159.509 45.5738,160 47.7049,160 49.8361,160 51.9672,160 54.0984,151.656 56.2295,155.583 58.3607,156.074 60.4918,157.546 62.623,150.675 64.7541,160 66.8852,158.037 69.0164,156.564 71.1475,158.037 73.2787,156.074 75.4098,160 77.541,154.11 79.6721,160 81.8033,159.509 83.9344,160 86.0656,160 88.1967,157.546 90.3279,160 92.459,160 94.5902,160 96.7213,160 98.8525,160 100.984,160 103.115,160 105.246,160 107.377,160 109.508,160 111.639,160 113.77,160 115.902,160 118.033,160 120.164,160 122.295,160 124.426,154.601 126.557,158.037 128.689,160 130.82,160 132.951,160 135.082,160 137.213,160 139.344,160 141.475,160 143.607,160 145.738,160 147.869,160 150,160 152.131,160 154.262,160 156.393,160 158.525,160 160.656,160 162.787,160 164.918,160 167.049,160 169.18,160 171.311,160 173.443,157.055 175.574,160 177.705,160 179.836,160 181.967,160 184.098,155.092 186.23,160 188.361,160 190.492,160 192.623,160 194.754,137.423 196.885,153.62 199.016,80 201.148,155.092 203.279,150.184 205.41,160 207.541,160 209.672,159.509 211.803,160 213.934,160 216.066,160 218.197,159.018 220.328,160 222.459,160 224.59,160 226.721,160 228.852,160 230.984,160 233.115,160 235.246,160 237.377,160 239.508,160 241.639,160 243.77,160 245.902,160 248.033,160 250.164,160 252.295,160 254.426,160 256.557,157.546 258.689,157.546 260.82,159.018 262.951,160 265.082,160 267.213,160 269.344,160 271.475,160 273.607,160 275.738,160 277.869,160 280,160 282.131,160 284.262,160 286.393,160 288.525,160 290.656,160 292.787,160 294.918,160 297.049,160 299.18,160 301.311,160 303.443,160 305.574,160 307.705,160 309.836,160 311.967,160 314.098,160 316.23,160 318.361,160 320.492,160 322.623,160 324.754,160 326.885,159.509 329.016,160 331.148,160 333.279,160 335.41,160 337.541,160 339.672,160 341.803,160 343.934,160 346.066,160 348.197,159.509 350.328,160 352.459,160 354.59,160 356.721,160 358.852,160 360.984,160 363.115,160 365.246,160 367.377,160 369.508,160 371.639,160 373.77,160 375.902,159.509 378.033,158.037 380.164,157.055 382.295,160 384.426,160 386.557,160 388.689,156.564 390.82,157.546 392.951,147.239 395.082,160 397.213,160 399.344,160 401.475,155.092 403.607,148.221 405.738,160 407.869,160 410,158.037 412.131,160 414.262,158.037 416.393,160 418.525,160 420.656,160 422.787,160 424.918,160 427.049,160 429.18,159.018 431.311,145.276 433.443,159.018 435.574,160 437.705,140.368 439.836,121.718 441.967,120.736 444.098,147.73 446.23,146.258 448.361,157.055 450.492,160 452.623,160 454.754,160 456.885,160 459.016,160 461.148,160 463.279,160 465.41,160 467.541,157.546 469.672,153.62 471.803,148.712 473.934,160 476.066,149.202 478.197,149.693 480.328,134.969 482.459,146.258 484.59,145.767 486.721,146.258 488.852,150.184 490.984,154.11 493.115,154.601 495.246,154.11 497.377,157.055 499.508,156.564 501.639,159.509 503.77,160 505.902,160 508.033,160 510.164,160 512.295,160 514.426,160 516.557,160 518.689,160 520.82,158.528 522.951,159.509 525.082,160 527.213,160 529.344,159.509 531.475,142.331 533.607,144.785 535.738,157.055 537.869,158.528 540,160 542.131,160 544.262,159.509 546.393,160 548.525,160 550.656,159.018 552.787,153.62 554.918,159.018 557.049,160 559.18,160 561.311,149.693 563.443,155.583 565.574,158.528 567.705,156.074 569.836,155.583 571.967,159.509 574.098,159.509 576.23,160 578.361,160 580.492,151.656 582.623,140.859 584.754,155.092 586.885,160 589.016,141.84 591.148,150.184 593.279,152.147 595.41,160 597.541,160 599.672,160 601.803,160 603.934,160 606.066,160 608.197,160 610.328,160 612.459,160 614.59,160 616.721,160 618.852,160 620.984,158.037 623.115,160 625.246,160 627.377,160 629.508,160 631.639,160 633.77,160 635.902,160 638.033,160 640.164,160 642.295,160 644.426,160 646.557,160 648.689,160 650.82,160 652.951,156.564 655.082,154.601 657.213,160 659.344,160 661.475,160 663.607,160 665.738,159.509 667.869,160 670,160 672.131,159.509 674.262,159.509 676.393,160 678.525,159.509 680.656,160 682.787,160 684.918,156.074 687.049,159.509 689.18,159.509 691.311,160 693.443,158.037 695.574,160 697.705,160 699.836,160 701.967,160 704.098,160 706.23,160 708.361,160 710.492,150.184 712.623,158.528 714.754,159.509 716.885,159.018 719.016,160 721.148,160 723.279,160 725.41,160 727.541,160 729.672,160 731.803,160 733.934,160 736.066,160 738.197,160 740.328,160 742.459,160 744.59,160 746.721,160 748.852,160 750.984,160 753.115,159.018 755.246,160 757.377,159.018 759.508,158.037 761.639,159.509 763.77,160 765.902,157.055 768.033,157.546 770.164,158.037 772.295,159.018 774.426,160 776.557,160 778.689,160 780.82,160 782.951,160 785.082,160 787.213,160 789.344,160 791.475,160 793.607,160 795.738,160 797.869,160 800,160 800,160" fill="var(--pill)" opacity="0.6"/>
  <polyline points="20,154.601 22.1311,160 24.2623,154.601 26.3934,160 28.5246,160 30.6557,157.546 32.7869,148.221 34.918,159.018 37.0492,160 39.1803,158.037 41.3115,160 43.4426,159.509 45.5738,160 47.7049,160 49.8361,160 51.9672,160 54.0984,151.656 56.2295,155.583 58.3607,156.074 60.4918,157.546 62.623,150.675 64.7541,160 66.8852,158.037 69.0164,156.564 71.1475,158.037 73.2787,156.074 75.4098,160 77.541,154.11 79.6721,160 81.8033,159.509 83.9344,160 86.0656,160 88.1967,157.546 90.3279,160 92.459,160 94.5902,160 96.7213,160 98.8525,160 100.984,160 103.115,160 105.246,160 107.377,160 109.508,160 111.639,160 113.77,160 115.902,160 118.033,160 120.164,160 122.295,160 124.426,154.601 126.557,158.037 128.689,160 130.82,160 132.951,160 135.082,160 137.213,160 139.344,160 141.475,160 143.607,160 145.738,160 147.869,160 150,160 152.131,160 154.262,160 156.393,160 158.525,160 160.656,160 162.787,160 164.918,160 167.049,160 169.18,160 171.311,160 173.443,157.055 175.574,160 177.705,160 179.836,160 181.967,160 184.098,155.092 186.23,160 188.361,160 190.492,160 192.623,160 194.754,137.423 196.885,153.62 199.016,80 201.148,155.092 203.279,150.184 205.41,160 207.541,160 209.672,159.509 211.803,160 213.934,160 216.066,160 218.197,159.018 220.328,160 222.459,160 224.59,160 226.721,160 228.852,160 230.984,160 233.115,160 235.246,160 237.377,160 239.508,160 241.639,160 243.77,160 245.902,160 248.033,160 250.164,160 252.295,160 254.426,160 256.557,157.546 258.689,157.546 260.82,159.018 262.951,160 265.082,160 267.213,160 269.344,160 271.475,160 273.607,160 275.738,160 277.869,160 280,160 282.131,160 284.262,160 286.393,160 288.525,160 290.656,160 292.787,160 294.918,160 297.049,160 299.18,160 301.311,160 303.443,160 305.574,160 307.705,160 309.836,160 311.967,160 314.098,160 316.23,160 318.361,160 320.492,160 322.623,160 324.754,160 326.885,159.509 329.016,160 331.148,160 333.279,160 335.41,160 337.541,160 339.672,160 341.803,160 343.934,160 346.066,160 348.197,159.509 350.328,160 352.459,160 354.59,160 356.721,160 358.852,160 360.984,160 363.115,160 365.246,160 367.377,160 369.508,160 371.639,160 373.77,160 375.902,159.509 378.033,158.037 380.164,157.055 382.295,160 384.426,160 386.557,160 388.689,156.564 390.82,157.546 392.951,147.239 395.082,160 397.213,160 399.344,160 401.475,155.092 403.607,148.221 405.738,160 407.869,160 410,158.037 412.131,160 414.262,158.037 416.393,160 418.525,160 420.656,160 422.787,160 424.918,160 427.049,160 429.18,159.018 431.311,145.276 433.443,159.018 435.574,160 437.705,140.368 439.836,121.718 441.967,120.736 444.098,147.73 446.23,146.258 448.361,157.055 450.492,160 452.623,160 454.754,160 456.885,160 459.016,160 461.148,160 463.279,160 465.41,160 467.541,157.546 469.672,153.62 471.803,148.712 473.934,160 476.066,149.202 478.197,149.693 480.328,134.969 482.459,146.258 484.59,145.767 486.721,146.258 488.852,150.184 490.984,154.11 493.115,154.601 495.246,154.11 497.377,157.055 499.508,156.564 501.639,159.509 503.77,160 505.902,160 508.033,160 510.164,160 512.295,160 514.426,160 516.557,160 518.689,160 520.82,158.528 522.951,159.509 525.082,160 527.213,160 529.344,159.509 531.475,142.331 533.607,144.785 535.738,157.055 537.869,158.528 540,160 542.131,160 544.262,159.509 546.393,160 548.525,160 550.656,159.018 552.787,153.62 554.918,159.018 557.049,160 559.18,160 561.311,149.693 563.443,155.583 565.574,158.528 567.705,156.074 569.836,155.583 571.967,159.509 574.098,159.509 576.23,160 578.361,160 580.492,151.656 582.623,140.859 584.754,155.092 586.885,160 589.016,141.84 591.148,150.184 593.279,152.147 595.41,160 597.541,160 599.672,160 601.803,160 603.934,160 606.066,160 608.197,160 610.328,160 612.459,160 614.59,160 616.721,160 618.852,160 620.984,158.037 623.115,160 625.246,160 627.377,160 629.508,160 631.639,160 633.77,160 635.902,160 638.033,160 640.164,160 642.295,160 644.426,160 646.557,160 648.689,160 650.82,160 652.951,156.564 655.082,154.601 657.213,160 659.344,160 661.475,160 663.607,160 665.738,159.509 667.869,160 670,160 672.131,159.509 674.262,159.509 676.393,160 678.525,159.509 680.656,160 682.787,160 684.918,156.074 687.049,159.509 689.18,159.509 691.311,160 693.443,158.037 695.574,160 697.705,160 699.836,160 701.967,160 704.098,160 706.23,160 708.361,160 710.492,150.184 712.623,158.528 714.754,159.509 716.885,159.018 719.016,160 721.148,160 723.279,160 725.41,160 727.541,160 729.672,160 731.803,160 733.934,160 736.066,160 738.197,160 740.328,160 742.459,160 744.59,160 746.721,160 748.852,160 750.984,160 753.115,159.018 755.246,160 757.377,159.018 759.508,158.037 761.639,159.509 763.77,160 765.902,157.055 768.033,157.546 770.164,158.037 772.295,159.018 774.426,160 776.557,160 778.689,160 780.82,160 782.951,160 785.082,160 787.213,160 789.344,160 791.475,160 793.607,160 795.738,160 797.869,160 800,160" fill="none" stroke="var(--accent)" stroke-width="1.5" stroke-linecap="round" stroke-linejoin="round"/>
</svg>

