<svg xmlns="http://www.w3.org/2000/svg" width="820" height="180" viewBox="0 0 820 180">

<style>
  :root {
    --bg:        #f6f8fa;
    --card:      #ffffff;
    --border:    #d0d7de;
    --primary:   #1f2328;
    --secondary: #636c76;
    --muted:     #8c959f;
    --accent:    #0969da;
    --green:     #1a7f37;
    --yellow:    #9a6700;
    --red:       #cf222e;
    --hover:     #f3f4f6;
    --spark-bg:  #f0f3f6;
    --spark:     #0969da;
    --pill:      #eaf1fb;
    --pill-txt:  #0969da;
    --div:       #d0d7de;
  }
  @media (prefers-color-scheme: dark) {
    :root {
      --bg:        #0d1117;
      --card:      #161b22;
      --border:    #30363d;
      --primary:   #e6edf3;
      --secondary: #848d97;
      --muted:     #7d8590;
      --accent:    #2f81f7;
      --green:     #3fb950;
      --yellow:    #d29922;
      --red:       #f85149;
      --hover:     #21262d;
      --spark-bg:  #1c2128;
      --spark:     #58a6ff;
      --pill:      #1c2d3f;
      --pill-txt:  #58a6ff;
      --div:       #30363d;
    }
  }
  
  .bg          { fill: var(--bg); }
  .card        { fill: var(--card); stroke: var(--border); stroke-width: 1; }
  .lang-pill   { fill: var(--pill); }
  .spark-bg    { fill: var(--spark-bg); }
  .spark-line  { stroke: var(--spark); }
  .divider     { stroke: var(--div); stroke-width: 1; }
  .clr-primary   { fill: var(--primary); }
  .clr-secondary { fill: var(--secondary); }
  .clr-muted     { fill: var(--muted); }
  .clr-accent    { fill: var(--accent); }
  .clr-green     { fill: var(--green); }
  .clr-yellow    { fill: var(--yellow); }
  .clr-red       { fill: var(--red); }
  .txt-bold    { font-weight: 600; }
  svg text     { font-family: -apple-system, BlinkMacSystemFont, "Segoe UI", Helvetica, Arial, sans-serif; }
</style>

<rect x="0" y="0" width="820" height="180" rx="8" class="card"/>
  <text x="20" y="24" class="clr-primary txt-bold" text-anchor="start" font-size="14">Contribution History &amp; Activity</text>
  <line x1="20" y1="36" x2="800" y2="36" class="divider"/>
  <text x="20" y="60" class="clr-muted" text-anchor="start" font-size="12">Years Active:</text>
  <text x="100" y="60" class="clr-primary txt-bold" text-anchor="start" font-size="12">5.6</text>
  <text x="160" y="60" class="clr-muted" text-anchor="start" font-size="12">Commits (Last Year):</text>
  <text x="290" y="60" class="clr-primary txt-bold" text-anchor="start" font-size="12">1173</text>
  <text x="360" y="60" class="clr-muted" text-anchor="start" font-size="12">Highest Daily:</text>
  <text x="450" y="60" class="clr-primary txt-bold" text-anchor="start" font-size="12">163</text>
  <polygon points="20,160 20,160 22.1138,160 24.2276,160 26.3415,160 28.4553,160 30.5691,160 32.6829,160 34.7967,160 36.9106,160 39.0244,160 41.1382,160 43.252,160 45.3659,160 47.4797,160 49.5935,160 51.7073,160 53.8211,160 55.935,160 58.0488,160 60.1626,160 62.2764,160 64.3902,160 66.5041,160 68.6179,160 70.7317,160 72.8455,160 74.9593,160 77.0732,160 79.187,160 81.3008,160 83.4146,160 85.5285,160 87.6423,159.509 89.7561,160 91.8699,160 93.9837,160 96.0976,160 98.2114,160 100.325,160 102.439,160 104.553,160 106.667,160 108.78,160 110.894,160 113.008,160 115.122,160 117.236,160 119.35,160 121.463,160 123.577,160 125.691,160 127.805,160 129.919,160 132.033,160 134.146,160 136.26,160 138.374,160 140.488,160 142.602,159.018 144.715,160 146.829,160 148.943,160 151.057,145.276 153.171,155.583 155.285,157.546 157.398,155.583 159.512,157.055 161.626,156.074 163.74,160 165.854,160 167.967,160 170.081,158.037 172.195,159.018 174.309,158.037 176.423,156.564 178.537,160 180.65,158.528 182.764,156.564 184.878,160 186.992,154.11 189.106,149.202 191.22,149.202 193.333,153.62 195.447,141.84 197.561,154.601 199.675,160 201.789,154.601 203.902,160 206.016,160 208.13,157.546 210.244,148.221 212.358,159.018 214.472,160 216.585,158.037 218.699,160 220.813,159.509 222.927,160 225.041,160 227.154,160 229.268,160 231.382,151.656 233.496,155.583 235.61,156.074 237.724,157.546 239.837,150.675 241.951,160 244.065,158.037 246.179,156.564 248.293,158.037 250.407,156.074 252.52,160 254.634,154.11 256.748,160 258.862,159.509 260.976,160 263.089,160 265.203,157.546 267.317,160 269.431,160 271.545,160 273.659,160 275.772,160 277.886,160 280,160 282.114,160 284.228,160 286.341,160 288.455,160 290.569,160 292.683,160 294.797,160 296.911,160 299.024,160 301.138,154.601 303.252,158.037 305.366,160 307.48,160 309.593,160 311.707,160 313.821,160 315.935,160 318.049,160 320.163,160 322.276,160 324.39,160 326.504,160 328.618,160 330.732,160 332.846,160 334.959,160 337.073,160 339.187,160 341.301,160 343.415,160 345.528,160 347.642,160 349.756,157.055 351.87,160 353.984,160 356.098,160 358.211,160 360.325,155.092 362.439,160 364.553,160 366.667,160 368.78,160 370.894,137.423 373.008,153.62 375.122,80 377.236,155.092 379.35,149.202 381.463,155.092 383.577,158.037 385.691,158.528 387.805,159.509 389.919,156.074 392.033,160 394.146,159.018 396.26,160 398.374,159.509 400.488,159.018 402.602,159.509 404.715,160 406.829,158.528 408.943,160 411.057,159.018 413.171,159.018 415.285,157.546 417.398,157.055 419.512,160 421.626,160 423.74,159.509 425.854,159.509 427.967,158.528 430.081,159.509 432.195,157.055 434.309,157.055 436.423,159.018 438.537,158.528 440.65,147.239 442.764,157.055 444.878,129.08 446.992,147.239 449.106,153.129 451.22,160 453.333,160 455.447,160 457.561,151.656 459.675,158.528 461.789,160 463.902,160 466.016,138.405 468.13,158.528 470.244,160 472.358,160 474.472,160 476.585,160 478.699,160 480.813,160 482.927,160 485.041,160 487.154,160 489.268,160 491.382,160 493.496,160 495.61,160 497.724,160 499.837,160 501.951,159.509 504.065,160 506.179,160 508.293,160 510.407,160 512.52,160 514.634,160 516.748,160 518.862,160 520.976,160 523.089,159.509 525.203,158.037 527.317,160 529.431,160 531.545,160 533.659,160 535.772,160 537.886,160 540,160 542.114,160 544.228,160 546.341,160 548.455,160 550.569,159.509 552.683,158.037 554.797,157.055 556.911,160 559.024,160 561.138,160 563.252,156.564 565.366,157.546 567.48,147.239 569.593,160 571.707,160 573.821,160 575.935,155.092 578.049,148.221 580.163,160 582.276,160 584.39,158.037 586.504,160 588.618,158.037 590.732,160 592.846,160 594.959,160 597.073,160 599.187,160 601.301,160 603.415,159.018 605.528,144.294 607.642,159.018 609.756,160 611.87,139.387 613.984,121.718 616.098,120.736 618.211,147.73 620.325,146.258 622.439,157.055 624.553,160 626.667,160 628.78,160 630.894,160 633.008,160 635.122,160 637.236,160 639.35,160 641.463,157.546 643.577,153.62 645.691,148.712 647.805,160 649.919,149.202 652.033,149.693 654.146,134.969 656.26,146.258 658.374,145.767 660.488,146.258 662.602,150.184 664.715,154.11 666.829,154.601 668.943,154.11 671.057,157.055 673.171,156.564 675.285,159.509 677.398,160 679.512,160 681.626,160 683.74,160 685.854,160 687.967,160 690.081,160 692.195,160 694.309,158.528 696.423,159.509 698.537,160 700.65,160 702.764,159.509 704.878,142.331 706.992,144.785 709.106,157.055 711.22,158.528 713.333,160 715.447,160 717.561,159.509 719.675,160 721.789,160 723.902,159.018 726.016,153.62 728.13,159.018 730.244,160 732.358,160 734.472,149.693 736.585,155.583 738.699,158.528 740.813,156.074 742.927,155.583 745.041,159.509 747.154,159.509 749.268,160 751.382,160 753.496,151.656 755.61,140.859 757.724,155.092 759.837,160 761.951,141.84 764.065,150.184 766.179,152.147 768.293,160 770.407,160 772.52,160 774.634,160 776.748,160 778.862,160 780.976,160 783.089,160 785.203,160 787.317,160 789.431,160 791.545,160 793.659,158.037 795.772,160 797.886,160 800,160 800,160" fill="var(--pill)" opacity="0.6"/>
  <polyline points="20,160 22.1138,160 24.2276,160 26.3415,160 28.4553,160 30.5691,160 32.6829,160 34.7967,160 36.9106,160 39.0244,160 41.1382,160 43.252,160 45.3659,160 47.4797,160 49.5935,160 51.7073,160 53.8211,160 55.935,160 58.0488,160 60.1626,160 62.2764,160 64.3902,160 66.5041,160 68.6179,160 70.7317,160 72.8455,160 74.9593,160 77.0732,160 79.187,160 81.3008,160 83.4146,160 85.5285,160 87.6423,159.509 89.7561,160 91.8699,160 93.9837,160 96.0976,160 98.2114,160 100.325,160 102.439,160 104.553,160 106.667,160 108.78,160 110.894,160 113.008,160 115.122,160 117.236,160 119.35,160 121.463,160 123.577,160 125.691,160 127.805,160 129.919,160 132.033,160 134.146,160 136.26,160 138.374,160 140.488,160 142.602,159.018 144.715,160 146.829,160 148.943,160 151.057,145.276 153.171,155.583 155.285,157.546 157.398,155.583 159.512,157.055 161.626,156.074 163.74,160 165.854,160 167.967,160 170.081,158.037 172.195,159.018 174.309,158.037 176.423,156.564 178.537,160 180.65,158.528 182.764,156.564 184.878,160 186.992,154.11 189.106,149.202 191.22,149.202 193.333,153.62 195.447,141.84 197.561,154.601 199.675,160 201.789,154.601 203.902,160 206.016,160 208.13,157.546 210.244,148.221 212.358,159.018 214.472,160 216.585,158.037 218.699,160 220.813,159.509 222.927,160 225.041,160 227.154,160 229.268,160 231.382,151.656 233.496,155.583 235.61,156.074 237.724,157.546 239.837,150.675 241.951,160 244.065,158.037 246.179,156.564 248.293,158.037 250.407,156.074 252.52,160 254.634,154.11 256.748,160 258.862,159.509 260.976,160 263.089,160 265.203,157.546 267.317,160 269.431,160 271.545,160 273.659,160 275.772,160 277.886,160 280,160 282.114,160 284.228,160 286.341,160 288.455,160 290.569,160 292.683,160 294.797,160 296.911,160 299.024,160 301.138,154.601 303.252,158.037 305.366,160 307.48,160 309.593,160 311.707,160 313.821,160 315.935,160 318.049,160 320.163,160 322.276,160 324.39,160 326.504,160 328.618,160 330.732,160 332.846,160 334.959,160 337.073,160 339.187,160 341.301,160 343.415,160 345.528,160 347.642,160 349.756,157.055 351.87,160 353.984,160 356.098,160 358.211,160 360.325,155.092 362.439,160 364.553,160 366.667,160 368.78,160 370.894,137.423 373.008,153.62 375.122,80 377.236,155.092 379.35,149.202 381.463,155.092 383.577,158.037 385.691,158.528 387.805,159.509 389.919,156.074 392.033,160 394.146,159.018 396.26,160 398.374,159.509 400.488,159.018 402.602,159.509 404.715,160 406.829,158.528 408.943,160 411.057,159.018 413.171,159.018 415.285,157.546 417.398,157.055 419.512,160 421.626,160 423.74,159.509 425.854,159.509 427.967,158.528 430.081,159.509 432.195,157.055 434.309,157.055 436.423,159.018 438.537,158.528 440.65,147.239 442.764,157.055 444.878,129.08 446.992,147.239 449.106,153.129 451.22,160 453.333,160 455.447,160 457.561,151.656 459.675,158.528 461.789,160 463.902,160 466.016,138.405 468.13,158.528 470.244,160 472.358,160 474.472,160 476.585,160 478.699,160 480.813,160 482.927,160 485.041,160 487.154,160 489.268,160 491.382,160 493.496,160 495.61,160 497.724,160 499.837,160 501.951,159.509 504.065,160 506.179,160 508.293,160 510.407,160 512.52,160 514.634,160 516.748,160 518.862,160 520.976,160 523.089,159.509 525.203,158.037 527.317,160 529.431,160 531.545,160 533.659,160 535.772,160 537.886,160 540,160 542.114,160 544.228,160 546.341,160 548.455,160 550.569,159.509 552.683,158.037 554.797,157.055 556.911,160 559.024,160 561.138,160 563.252,156.564 565.366,157.546 567.48,147.239 569.593,160 571.707,160 573.821,160 575.935,155.092 578.049,148.221 580.163,160 582.276,160 584.39,158.037 586.504,160 588.618,158.037 590.732,160 592.846,160 594.959,160 597.073,160 599.187,160 601.301,160 603.415,159.018 605.528,144.294 607.642,159.018 609.756,160 611.87,139.387 613.984,121.718 616.098,120.736 618.211,147.73 620.325,146.258 622.439,157.055 624.553,160 626.667,160 628.78,160 630.894,160 633.008,160 635.122,160 637.236,160 639.35,160 641.463,157.546 643.577,153.62 645.691,148.712 647.805,160 649.919,149.202 652.033,149.693 654.146,134.969 656.26,146.258 658.374,145.767 660.488,146.258 662.602,150.184 664.715,154.11 666.829,154.601 668.943,154.11 671.057,157.055 673.171,156.564 675.285,159.509 677.398,160 679.512,160 681.626,160 683.74,160 685.854,160 687.967,160 690.081,160 692.195,160 694.309,158.528 696.423,159.509 698.537,160 700.65,160 702.764,159.509 704.878,142.331 706.992,144.785 709.106,157.055 711.22,158.528 713.333,160 715.447,160 717.561,159.509 719.675,160 721.789,160 723.902,159.018 726.016,153.62 728.13,159.018 730.244,160 732.358,160 734.472,149.693 736.585,155.583 738.699,158.528 740.813,156.074 742.927,155.583 745.041,159.509 747.154,159.509 749.268,160 751.382,160 753.496,151.656 755.61,140.859 757.724,155.092 759.837,160 761.951,141.84 764.065,150.184 766.179,152.147 768.293,160 770.407,160 772.52,160 774.634,160 776.748,160 778.862,160 780.976,160 783.089,160 785.203,160 787.317,160 789.431,160 791.545,160 793.659,158.037 795.772,160 797.886,160 800,160" fill="none" stroke="var(--accent)" stroke-width="1.5" stroke-linecap="round" stroke-linejoin="round"/>
</svg>

