<svg xmlns="http://www.w3.org/2000/svg" width="820" height="180" viewBox="0 0 820 180">

<style>
  :root {
    --bg:        #f6f8fa;
    --card:      #ffffff;
    --border:    #d0d7de;
    --primary:   #1f2328;
    --secondary: #636c76;
    --muted:     #8c959f;
    --accent:    #0969da;
    --green:     #1a7f37;
    --yellow:    #9a6700;
    --red:       #cf222e;
    --hover:     #f3f4f6;
    --spark-bg:  #f0f3f6;
    --spark:     #0969da;
    --pill:      #eaf1fb;
    --pill-txt:  #0969da;
    --div:       #d0d7de;
  }
  @media (prefers-color-scheme: dark) {
    :root {
      --bg:        #0d1117;
      --card:      #161b22;
      --border:    #30363d;
      --primary:   #e6edf3;
      --secondary: #848d97;
      --muted:     #7d8590;
      --accent:    #2f81f7;
      --green:     #3fb950;
      --yellow:    #d29922;
      --red:       #f85149;
      --hover:     #21262d;
      --spark-bg:  #1c2128;
      --spark:     #58a6ff;
      --pill:      #1c2d3f;
      --pill-txt:  #58a6ff;
      --div:       #30363d;
    }
  }
  
  .bg          { fill: var(--bg); }
  .card        { fill: var(--card); stroke: var(--border); stroke-width: 1; }
  .lang-pill   { fill: var(--pill); }
  .spark-bg    { fill: var(--spark-bg); }
  .spark-line  { stroke: var(--spark); }
  .divider     { stroke: var(--div); stroke-width: 1; }
  .clr-primary   { fill: var(--primary); }
  .clr-secondary { fill: var(--secondary); }
  .clr-muted     { fill: var(--muted); }
  .clr-accent    { fill: var(--accent); }
  .clr-green     { fill: var(--green); }
  .clr-yellow    { fill: var(--yellow); }
  .clr-red       { fill: var(--red); }
  .txt-bold    { font-weight: 600; }
  svg text     { font-family: -apple-system, BlinkMacSystemFont, "Segoe UI", Helvetica, Arial, sans-serif; }
</style>

<rect x="0" y="0" width="820" height="180" rx="8" class="card"/>
  <text x="20" y="24" class="clr-primary txt-bold" text-anchor="start" font-size="14">Contribution History &amp; Activity</text>
  <line x1="20" y1="36" x2="800" y2="36" class="divider"/>
  <text x="20" y="60" class="clr-muted" text-anchor="start" font-size="12">Years Active:</text>
  <text x="100" y="60" class="clr-primary txt-bold" text-anchor="start" font-size="12">5.7</text>
  <text x="160" y="60" class="clr-muted" text-anchor="start" font-size="12">Commits (Last Year):</text>
  <text x="290" y="60" class="clr-primary txt-bold" text-anchor="start" font-size="12">1204</text>
  <text x="360" y="60" class="clr-muted" text-anchor="start" font-size="12">Highest Daily:</text>
  <text x="450" y="60" class="clr-primary txt-bold" text-anchor="start" font-size="12">163</text>
  <polygon points="20,160 20,160 22.1081,160 24.2162,160 26.3243,160 28.4324,160 30.5405,160 32.6486,160 34.7568,160 36.8649,160 38.973,160 41.0811,160 43.1892,160 45.2973,160 47.4054,160 49.5135,160 51.6216,160 53.7297,160 55.8378,160 57.9459,160 60.0541,160 62.1622,160 64.2703,160 66.3784,160 68.4865,159.018 70.5946,160 72.7027,160 74.8108,160 76.9189,145.276 79.027,155.583 81.1351,157.546 83.2432,155.583 85.3514,157.055 87.4595,156.074 89.5676,160 91.6757,160 93.7838,160 95.8919,158.037 98,159.018 100.108,158.037 102.216,156.564 104.324,160 106.432,158.528 108.541,156.564 110.649,160 112.757,154.11 114.865,149.202 116.973,149.202 119.081,153.62 121.189,141.84 123.297,154.601 125.405,160 127.514,154.601 129.622,160 131.73,160 133.838,157.546 135.946,148.221 138.054,159.018 140.162,160 142.27,158.037 144.378,160 146.486,159.509 148.595,160 150.703,160 152.811,160 154.919,160 157.027,151.656 159.135,155.583 161.243,156.074 163.351,157.546 165.459,150.675 167.568,160 169.676,158.037 171.784,156.564 173.892,158.037 176,156.074 178.108,160 180.216,154.11 182.324,160 184.432,159.509 186.541,160 188.649,160 190.757,157.546 192.865,160 194.973,160 197.081,160 199.189,160 201.297,160 203.405,160 205.514,160 207.622,160 209.73,160 211.838,160 213.946,160 216.054,160 218.162,160 220.27,160 222.378,160 224.486,160 226.595,154.601 228.703,158.037 230.811,160 232.919,160 235.027,160 237.135,160 239.243,160 241.351,160 243.459,160 245.568,160 247.676,160 249.784,160 251.892,160 254,160 256.108,160 258.216,160 260.324,160 262.432,160 264.541,160 266.649,160 268.757,160 270.865,160 272.973,160 275.081,157.055 277.189,160 279.297,160 281.405,160 283.514,160 285.622,155.092 287.73,160 289.838,160 291.946,160 294.054,160 296.162,137.423 298.27,153.62 300.378,80 302.486,155.092 304.595,149.202 306.703,155.092 308.811,158.037 310.919,158.528 313.027,159.509 315.135,156.074 317.243,160 319.351,159.018 321.459,160 323.568,159.509 325.676,159.018 327.784,159.509 329.892,160 332,158.528 334.108,160 336.216,159.018 338.324,159.018 340.432,157.546 342.541,157.055 344.649,160 346.757,160 348.865,159.509 350.973,159.509 353.081,158.528 355.189,159.509 357.297,157.055 359.405,157.055 361.514,159.018 363.622,158.528 365.73,147.239 367.838,157.055 369.946,129.08 372.054,147.239 374.162,153.129 376.27,160 378.378,160 380.486,160 382.595,151.656 384.703,158.528 386.811,160 388.919,160 391.027,138.405 393.135,158.528 395.243,160 397.351,160 399.459,160 401.568,160 403.676,160 405.784,160 407.892,160 410,160 412.108,160 414.216,160 416.324,160 418.432,160 420.541,160 422.649,160 424.757,160 426.865,159.509 428.973,160 431.081,160 433.189,160 435.297,160 437.405,160 439.514,160 441.622,160 443.73,160 445.838,160 447.946,159.509 450.054,158.037 452.162,160 454.27,160 456.378,160 458.486,160 460.595,160 462.703,160 464.811,160 466.919,160 469.027,160 471.135,160 473.243,160 475.351,159.509 477.459,158.037 479.568,157.055 481.676,160 483.784,160 485.892,160 488,156.564 490.108,157.546 492.216,147.239 494.324,160 496.432,160 498.541,160 500.649,155.092 502.757,148.221 504.865,160 506.973,160 509.081,158.037 511.189,160 513.297,158.037 515.405,160 517.514,160 519.622,160 521.73,160 523.838,160 525.946,160 528.054,159.018 530.162,144.294 532.27,159.018 534.378,160 536.486,139.387 538.595,121.718 540.703,120.736 542.811,147.73 544.919,146.258 547.027,157.055 549.135,160 551.243,160 553.351,160 555.459,160 557.568,160 559.676,160 561.784,160 563.892,160 566,157.546 568.108,153.62 570.216,148.712 572.324,160 574.432,149.202 576.541,149.693 578.649,134.969 580.757,146.258 582.865,145.767 584.973,146.258 587.081,150.184 589.189,154.11 591.297,154.601 593.405,154.11 595.514,157.055 597.622,156.564 599.73,159.509 601.838,160 603.946,160 606.054,160 608.162,160 610.27,160 612.378,160 614.486,160 616.595,160 618.703,158.528 620.811,159.509 622.919,160 625.027,160 627.135,159.509 629.243,142.331 631.351,144.785 633.459,157.055 635.568,158.528 637.676,160 639.784,160 641.892,159.509 644,160 646.108,160 648.216,159.018 650.324,153.62 652.432,159.018 654.541,160 656.649,160 658.757,149.693 660.865,155.583 662.973,158.528 665.081,156.074 667.189,155.583 669.297,159.509 671.405,159.509 673.514,160 675.622,160 677.73,151.656 679.838,140.859 681.946,155.092 684.054,160 686.162,141.84 688.27,150.184 690.378,152.147 692.486,160 694.595,160 696.703,160 698.811,160 700.919,160 703.027,160 705.135,160 707.243,160 709.351,160 711.459,160 713.568,160 715.676,160 717.784,158.037 719.892,160 722,160 724.108,160 726.216,160 728.324,160 730.432,160 732.541,160 734.649,160 736.757,160 738.865,160 740.973,160 743.081,160 745.189,160 747.297,160 749.405,156.564 751.514,154.601 753.622,160 755.73,160 757.838,160 759.946,160 762.054,159.509 764.162,160 766.27,160 768.378,159.509 770.486,159.509 772.595,160 774.703,159.509 776.811,160 778.919,160 781.027,156.074 783.135,159.509 785.243,159.509 787.351,160 789.459,158.037 791.568,160 793.676,160 795.784,160 797.892,160 800,160 800,160" fill="var(--pill)" opacity="0.6"/>
  <polyline points="20,160 22.1081,160 24.2162,160 26.3243,160 28.4324,160 30.5405,160 32.6486,160 34.7568,160 36.8649,160 38.973,160 41.0811,160 43.1892,160 45.2973,160 47.4054,160 49.5135,160 51.6216,160 53.7297,160 55.8378,160 57.9459,160 60.0541,160 62.1622,160 64.2703,160 66.3784,160 68.4865,159.018 70.5946,160 72.7027,160 74.8108,160 76.9189,145.276 79.027,155.583 81.1351,157.546 83.2432,155.583 85.3514,157.055 87.4595,156.074 89.5676,160 91.6757,160 93.7838,160 95.8919,158.037 98,159.018 100.108,158.037 102.216,156.564 104.324,160 106.432,158.528 108.541,156.564 110.649,160 112.757,154.11 114.865,149.202 116.973,149.202 119.081,153.62 121.189,141.84 123.297,154.601 125.405,160 127.514,154.601 129.622,160 131.73,160 133.838,157.546 135.946,148.221 138.054,159.018 140.162,160 142.27,158.037 144.378,160 146.486,159.509 148.595,160 150.703,160 152.811,160 154.919,160 157.027,151.656 159.135,155.583 161.243,156.074 163.351,157.546 165.459,150.675 167.568,160 169.676,158.037 171.784,156.564 173.892,158.037 176,156.074 178.108,160 180.216,154.11 182.324,160 184.432,159.509 186.541,160 188.649,160 190.757,157.546 192.865,160 194.973,160 197.081,160 199.189,160 201.297,160 203.405,160 205.514,160 207.622,160 209.73,160 211.838,160 213.946,160 216.054,160 218.162,160 220.27,160 222.378,160 224.486,160 226.595,154.601 228.703,158.037 230.811,160 232.919,160 235.027,160 237.135,160 239.243,160 241.351,160 243.459,160 245.568,160 247.676,160 249.784,160 251.892,160 254,160 256.108,160 258.216,160 260.324,160 262.432,160 264.541,160 266.649,160 268.757,160 270.865,160 272.973,160 275.081,157.055 277.189,160 279.297,160 281.405,160 283.514,160 285.622,155.092 287.73,160 289.838,160 291.946,160 294.054,160 296.162,137.423 298.27,153.62 300.378,80 302.486,155.092 304.595,149.202 306.703,155.092 308.811,158.037 310.919,158.528 313.027,159.509 315.135,156.074 317.243,160 319.351,159.018 321.459,160 323.568,159.509 325.676,159.018 327.784,159.509 329.892,160 332,158.528 334.108,160 336.216,159.018 338.324,159.018 340.432,157.546 342.541,157.055 344.649,160 346.757,160 348.865,159.509 350.973,159.509 353.081,158.528 355.189,159.509 357.297,157.055 359.405,157.055 361.514,159.018 363.622,158.528 365.73,147.239 367.838,157.055 369.946,129.08 372.054,147.239 374.162,153.129 376.27,160 378.378,160 380.486,160 382.595,151.656 384.703,158.528 386.811,160 388.919,160 391.027,138.405 393.135,158.528 395.243,160 397.351,160 399.459,160 401.568,160 403.676,160 405.784,160 407.892,160 410,160 412.108,160 414.216,160 416.324,160 418.432,160 420.541,160 422.649,160 424.757,160 426.865,159.509 428.973,160 431.081,160 433.189,160 435.297,160 437.405,160 439.514,160 441.622,160 443.73,160 445.838,160 447.946,159.509 450.054,158.037 452.162,160 454.27,160 456.378,160 458.486,160 460.595,160 462.703,160 464.811,160 466.919,160 469.027,160 471.135,160 473.243,160 475.351,159.509 477.459,158.037 479.568,157.055 481.676,160 483.784,160 485.892,160 488,156.564 490.108,157.546 492.216,147.239 494.324,160 496.432,160 498.541,160 500.649,155.092 502.757,148.221 504.865,160 506.973,160 509.081,158.037 511.189,160 513.297,158.037 515.405,160 517.514,160 519.622,160 521.73,160 523.838,160 525.946,160 528.054,159.018 530.162,144.294 532.27,159.018 534.378,160 536.486,139.387 538.595,121.718 540.703,120.736 542.811,147.73 544.919,146.258 547.027,157.055 549.135,160 551.243,160 553.351,160 555.459,160 557.568,160 559.676,160 561.784,160 563.892,160 566,157.546 568.108,153.62 570.216,148.712 572.324,160 574.432,149.202 576.541,149.693 578.649,134.969 580.757,146.258 582.865,145.767 584.973,146.258 587.081,150.184 589.189,154.11 591.297,154.601 593.405,154.11 595.514,157.055 597.622,156.564 599.73,159.509 601.838,160 603.946,160 606.054,160 608.162,160 610.27,160 612.378,160 614.486,160 616.595,160 618.703,158.528 620.811,159.509 622.919,160 625.027,160 627.135,159.509 629.243,142.331 631.351,144.785 633.459,157.055 635.568,158.528 637.676,160 639.784,160 641.892,159.509 644,160 646.108,160 648.216,159.018 650.324,153.62 652.432,159.018 654.541,160 656.649,160 658.757,149.693 660.865,155.583 662.973,158.528 665.081,156.074 667.189,155.583 669.297,159.509 671.405,159.509 673.514,160 675.622,160 677.73,151.656 679.838,140.859 681.946,155.092 684.054,160 686.162,141.84 688.27,150.184 690.378,152.147 692.486,160 694.595,160 696.703,160 698.811,160 700.919,160 703.027,160 705.135,160 707.243,160 709.351,160 711.459,160 713.568,160 715.676,160 717.784,158.037 719.892,160 722,160 724.108,160 726.216,160 728.324,160 730.432,160 732.541,160 734.649,160 736.757,160 738.865,160 740.973,160 743.081,160 745.189,160 747.297,160 749.405,156.564 751.514,154.601 753.622,160 755.73,160 757.838,160 759.946,160 762.054,159.509 764.162,160 766.27,160 768.378,159.509 770.486,159.509 772.595,160 774.703,159.509 776.811,160 778.919,160 781.027,156.074 783.135,159.509 785.243,159.509 787.351,160 789.459,158.037 791.568,160 793.676,160 795.784,160 797.892,160 800,160" fill="none" stroke="var(--accent)" stroke-width="1.5" stroke-linecap="round" stroke-linejoin="round"/>
</svg>

