<svg xmlns="http://www.w3.org/2000/svg" width="820" height="180" viewBox="0 0 820 180">

<style>
  :root {
    --bg:        #f6f8fa;
    --card:      #ffffff;
    --border:    #d0d7de;
    --primary:   #1f2328;
    --secondary: #636c76;
    --muted:     #8c959f;
    --accent:    #0969da;
    --green:     #1a7f37;
    --yellow:    #9a6700;
    --red:       #cf222e;
    --hover:     #f3f4f6;
    --spark-bg:  #f0f3f6;
    --spark:     #0969da;
    --pill:      #eaf1fb;
    --pill-txt:  #0969da;
    --div:       #d0d7de;
  }
  @media (prefers-color-scheme: dark) {
    :root {
      --bg:        #0d1117;
      --card:      #161b22;
      --border:    #30363d;
      --primary:   #e6edf3;
      --secondary: #848d97;
      --muted:     #7d8590;
      --accent:    #2f81f7;
      --green:     #3fb950;
      --yellow:    #d29922;
      --red:       #f85149;
      --hover:     #21262d;
      --spark-bg:  #1c2128;
      --spark:     #58a6ff;
      --pill:      #1c2d3f;
      --pill-txt:  #58a6ff;
      --div:       #30363d;
    }
  }
  
  .bg          { fill: var(--bg); }
  .card        { fill: var(--card); stroke: var(--border); stroke-width: 1; }
  .lang-pill   { fill: var(--pill); }
  .spark-bg    { fill: var(--spark-bg); }
  .spark-line  { stroke: var(--spark); }
  .divider     { stroke: var(--div); stroke-width: 1; }
  .clr-primary   { fill: var(--primary); }
  .clr-secondary { fill: var(--secondary); }
  .clr-muted     { fill: var(--muted); }
  .clr-accent    { fill: var(--accent); }
  .clr-green     { fill: var(--green); }
  .clr-yellow    { fill: var(--yellow); }
  .clr-red       { fill: var(--red); }
  .txt-bold    { font-weight: 600; }
  svg text     { font-family: -apple-system, BlinkMacSystemFont, "Segoe UI", Helvetica, Arial, sans-serif; }
</style>

<rect x="0" y="0" width="820" height="180" rx="8" class="card"/>
  <text x="20" y="24" class="clr-primary txt-bold" text-anchor="start" font-size="14">Contribution History &amp; Activity</text>
  <line x1="20" y1="36" x2="800" y2="36" class="divider"/>
  <text x="20" y="60" class="clr-muted" text-anchor="start" font-size="12">Years Active:</text>
  <text x="100" y="60" class="clr-primary txt-bold" text-anchor="start" font-size="12">5.6</text>
  <text x="160" y="60" class="clr-muted" text-anchor="start" font-size="12">Commits (Last Year):</text>
  <text x="290" y="60" class="clr-primary txt-bold" text-anchor="start" font-size="12">1067</text>
  <text x="360" y="60" class="clr-muted" text-anchor="start" font-size="12">Highest Daily:</text>
  <text x="450" y="60" class="clr-primary txt-bold" text-anchor="start" font-size="12">163</text>
  <polygon points="20,160 20,160 22.1196,160 24.2391,160 26.3587,160 28.4783,160 30.5978,160 32.7174,153.62 34.837,160 36.9565,160 39.0761,160 41.1957,154.11 43.3152,157.055 45.4348,160 47.5543,160 49.6739,160 51.7935,160 53.913,160 56.0326,160 58.1522,159.018 60.2717,160 62.3913,160 64.5109,160 66.6304,160 68.75,160 70.8696,160 72.9891,160 75.1087,160 77.2283,160 79.3478,160 81.4674,160 83.587,160 85.7065,160 87.8261,160 89.9457,160 92.0652,160 94.1848,160 96.3043,160 98.4239,160 100.543,160 102.663,160 104.783,160 106.902,160 109.022,160 111.141,160 113.261,160 115.38,160 117.5,160 119.62,160 121.739,160 123.859,160 125.978,160 128.098,160 130.217,160 132.337,159.509 134.457,160 136.576,160 138.696,160 140.815,160 142.935,160 145.054,160 147.174,160 149.293,160 151.413,160 153.533,160 155.652,160 157.772,160 159.891,160 162.011,160 164.13,160 166.25,160 168.37,160 170.489,160 172.609,160 174.728,160 176.848,160 178.967,160 181.087,160 183.207,160 185.326,160 187.446,159.018 189.565,160 191.685,160 193.804,160 195.924,145.276 198.043,155.583 200.163,157.546 202.283,155.583 204.402,157.055 206.522,156.074 208.641,160 210.761,160 212.88,160 215,158.037 217.12,159.018 219.239,158.037 221.359,156.564 223.478,160 225.598,158.528 227.717,156.564 229.837,160 231.957,154.11 234.076,149.202 236.196,149.202 238.315,153.62 240.435,141.84 242.554,154.601 244.674,160 246.793,154.601 248.913,160 251.033,160 253.152,157.546 255.272,148.221 257.391,159.018 259.511,160 261.63,158.037 263.75,160 265.87,159.509 267.989,160 270.109,160 272.228,160 274.348,160 276.467,151.656 278.587,155.583 280.707,156.074 282.826,157.546 284.946,150.675 287.065,160 289.185,158.037 291.304,156.564 293.424,158.037 295.543,156.074 297.663,160 299.783,154.11 301.902,160 304.022,159.509 306.141,160 308.261,160 310.38,157.546 312.5,160 314.62,160 316.739,160 318.859,160 320.978,160 323.098,160 325.217,160 327.337,160 329.457,160 331.576,160 333.696,160 335.815,160 337.935,160 340.054,160 342.174,160 344.293,160 346.413,154.601 348.533,158.037 350.652,160 352.772,160 354.891,160 357.011,160 359.13,160 361.25,160 363.37,160 365.489,160 367.609,160 369.728,160 371.848,160 373.967,160 376.087,160 378.207,160 380.326,160 382.446,160 384.565,160 386.685,160 388.804,160 390.924,160 393.043,160 395.163,157.055 397.283,160 399.402,160 401.522,160 403.641,160 405.761,155.092 407.88,160 410,160 412.12,160 414.239,160 416.359,137.423 418.478,153.62 420.598,80 422.717,155.092 424.837,149.202 426.957,155.092 429.076,158.037 431.196,158.528 433.315,159.509 435.435,156.074 437.554,160 439.674,159.018 441.793,160 443.913,159.509 446.033,159.018 448.152,159.509 450.272,160 452.391,158.528 454.511,160 456.63,159.018 458.75,159.018 460.87,157.546 462.989,157.055 465.109,160 467.228,160 469.348,159.509 471.467,159.509 473.587,158.528 475.707,159.509 477.826,157.055 479.946,157.055 482.065,159.018 484.185,158.528 486.304,147.239 488.424,157.055 490.543,129.08 492.663,147.239 494.783,153.129 496.902,160 499.022,160 501.141,160 503.261,151.656 505.38,158.528 507.5,160 509.62,160 511.739,138.405 513.859,158.528 515.978,160 518.098,160 520.217,160 522.337,160 524.457,160 526.576,160 528.696,160 530.815,160 532.935,160 535.054,160 537.174,160 539.293,160 541.413,160 543.533,160 545.652,160 547.772,159.509 549.891,160 552.011,160 554.13,160 556.25,160 558.37,160 560.489,160 562.609,160 564.728,160 566.848,160 568.967,159.509 571.087,158.037 573.207,160 575.326,160 577.446,160 579.565,160 581.685,160 583.804,160 585.924,160 588.043,160 590.163,160 592.283,160 594.402,160 596.522,159.509 598.641,158.037 600.761,157.055 602.88,160 605,160 607.12,160 609.239,156.564 611.359,157.546 613.478,147.239 615.598,160 617.717,160 619.837,160 621.957,155.092 624.076,148.221 626.196,160 628.315,160 630.435,158.037 632.554,160 634.674,158.037 636.793,160 638.913,160 641.033,160 643.152,160 645.272,160 647.391,160 649.511,159.018 651.63,144.294 653.75,159.018 655.87,160 657.989,139.387 660.109,121.718 662.228,120.736 664.348,147.73 666.467,146.258 668.587,157.055 670.707,160 672.826,160 674.946,160 677.065,160 679.185,160 681.304,160 683.424,160 685.543,160 687.663,157.546 689.783,153.62 691.902,148.712 694.022,160 696.141,149.202 698.261,149.693 700.38,134.969 702.5,146.258 704.62,145.767 706.739,146.258 708.859,150.184 710.978,154.11 713.098,154.601 715.217,154.11 717.337,157.055 719.457,156.564 721.576,159.509 723.696,160 725.815,160 727.935,160 730.054,160 732.174,160 734.293,160 736.413,160 738.533,160 740.652,158.528 742.772,159.509 744.891,160 747.011,160 749.13,159.509 751.25,142.331 753.37,144.785 755.489,157.055 757.609,158.528 759.728,160 761.848,160 763.967,159.509 766.087,160 768.207,160 770.326,159.018 772.446,153.62 774.565,159.018 776.685,160 778.804,160 780.924,149.693 783.043,155.583 785.163,158.528 787.283,156.074 789.402,155.583 791.522,159.509 793.641,159.509 795.761,160 797.88,160 800,160 800,160" fill="var(--pill)" opacity="0.6"/>
  <polyline points="20,160 22.1196,160 24.2391,160 26.3587,160 28.4783,160 30.5978,160 32.7174,153.62 34.837,160 36.9565,160 39.0761,160 41.1957,154.11 43.3152,157.055 45.4348,160 47.5543,160 49.6739,160 51.7935,160 53.913,160 56.0326,160 58.1522,159.018 60.2717,160 62.3913,160 64.5109,160 66.6304,160 68.75,160 70.8696,160 72.9891,160 75.1087,160 77.2283,160 79.3478,160 81.4674,160 83.587,160 85.7065,160 87.8261,160 89.9457,160 92.0652,160 94.1848,160 96.3043,160 98.4239,160 100.543,160 102.663,160 104.783,160 106.902,160 109.022,160 111.141,160 113.261,160 115.38,160 117.5,160 119.62,160 121.739,160 123.859,160 125.978,160 128.098,160 130.217,160 132.337,159.509 134.457,160 136.576,160 138.696,160 140.815,160 142.935,160 145.054,160 147.174,160 149.293,160 151.413,160 153.533,160 155.652,160 157.772,160 159.891,160 162.011,160 164.13,160 166.25,160 168.37,160 170.489,160 172.609,160 174.728,160 176.848,160 178.967,160 181.087,160 183.207,160 185.326,160 187.446,159.018 189.565,160 191.685,160 193.804,160 195.924,145.276 198.043,155.583 200.163,157.546 202.283,155.583 204.402,157.055 206.522,156.074 208.641,160 210.761,160 212.88,160 215,158.037 217.12,159.018 219.239,158.037 221.359,156.564 223.478,160 225.598,158.528 227.717,156.564 229.837,160 231.957,154.11 234.076,149.202 236.196,149.202 238.315,153.62 240.435,141.84 242.554,154.601 244.674,160 246.793,154.601 248.913,160 251.033,160 253.152,157.546 255.272,148.221 257.391,159.018 259.511,160 261.63,158.037 263.75,160 265.87,159.509 267.989,160 270.109,160 272.228,160 274.348,160 276.467,151.656 278.587,155.583 280.707,156.074 282.826,157.546 284.946,150.675 287.065,160 289.185,158.037 291.304,156.564 293.424,158.037 295.543,156.074 297.663,160 299.783,154.11 301.902,160 304.022,159.509 306.141,160 308.261,160 310.38,157.546 312.5,160 314.62,160 316.739,160 318.859,160 320.978,160 323.098,160 325.217,160 327.337,160 329.457,160 331.576,160 333.696,160 335.815,160 337.935,160 340.054,160 342.174,160 344.293,160 346.413,154.601 348.533,158.037 350.652,160 352.772,160 354.891,160 357.011,160 359.13,160 361.25,160 363.37,160 365.489,160 367.609,160 369.728,160 371.848,160 373.967,160 376.087,160 378.207,160 380.326,160 382.446,160 384.565,160 386.685,160 388.804,160 390.924,160 393.043,160 395.163,157.055 397.283,160 399.402,160 401.522,160 403.641,160 405.761,155.092 407.88,160 410,160 412.12,160 414.239,160 416.359,137.423 418.478,153.62 420.598,80 422.717,155.092 424.837,149.202 426.957,155.092 429.076,158.037 431.196,158.528 433.315,159.509 435.435,156.074 437.554,160 439.674,159.018 441.793,160 443.913,159.509 446.033,159.018 448.152,159.509 450.272,160 452.391,158.528 454.511,160 456.63,159.018 458.75,159.018 460.87,157.546 462.989,157.055 465.109,160 467.228,160 469.348,159.509 471.467,159.509 473.587,158.528 475.707,159.509 477.826,157.055 479.946,157.055 482.065,159.018 484.185,158.528 486.304,147.239 488.424,157.055 490.543,129.08 492.663,147.239 494.783,153.129 496.902,160 499.022,160 501.141,160 503.261,151.656 505.38,158.528 507.5,160 509.62,160 511.739,138.405 513.859,158.528 515.978,160 518.098,160 520.217,160 522.337,160 524.457,160 526.576,160 528.696,160 530.815,160 532.935,160 535.054,160 537.174,160 539.293,160 541.413,160 543.533,160 545.652,160 547.772,159.509 549.891,160 552.011,160 554.13,160 556.25,160 558.37,160 560.489,160 562.609,160 564.728,160 566.848,160 568.967,159.509 571.087,158.037 573.207,160 575.326,160 577.446,160 579.565,160 581.685,160 583.804,160 585.924,160 588.043,160 590.163,160 592.283,160 594.402,160 596.522,159.509 598.641,158.037 600.761,157.055 602.88,160 605,160 607.12,160 609.239,156.564 611.359,157.546 613.478,147.239 615.598,160 617.717,160 619.837,160 621.957,155.092 624.076,148.221 626.196,160 628.315,160 630.435,158.037 632.554,160 634.674,158.037 636.793,160 638.913,160 641.033,160 643.152,160 645.272,160 647.391,160 649.511,159.018 651.63,144.294 653.75,159.018 655.87,160 657.989,139.387 660.109,121.718 662.228,120.736 664.348,147.73 666.467,146.258 668.587,157.055 670.707,160 672.826,160 674.946,160 677.065,160 679.185,160 681.304,160 683.424,160 685.543,160 687.663,157.546 689.783,153.62 691.902,148.712 694.022,160 696.141,149.202 698.261,149.693 700.38,134.969 702.5,146.258 704.62,145.767 706.739,146.258 708.859,150.184 710.978,154.11 713.098,154.601 715.217,154.11 717.337,157.055 719.457,156.564 721.576,159.509 723.696,160 725.815,160 727.935,160 730.054,160 732.174,160 734.293,160 736.413,160 738.533,160 740.652,158.528 742.772,159.509 744.891,160 747.011,160 749.13,159.509 751.25,142.331 753.37,144.785 755.489,157.055 757.609,158.528 759.728,160 761.848,160 763.967,159.509 766.087,160 768.207,160 770.326,159.018 772.446,153.62 774.565,159.018 776.685,160 778.804,160 780.924,149.693 783.043,155.583 785.163,158.528 787.283,156.074 789.402,155.583 791.522,159.509 793.641,159.509 795.761,160 797.88,160 800,160" fill="none" stroke="var(--accent)" stroke-width="1.5" stroke-linecap="round" stroke-linejoin="round"/>
</svg>

