<svg xmlns="http://www.w3.org/2000/svg" width="820" height="180" viewBox="0 0 820 180">

<style>
  :root {
    --bg:        #f6f8fa;
    --card:      #ffffff;
    --border:    #d0d7de;
    --primary:   #1f2328;
    --secondary: #636c76;
    --muted:     #8c959f;
    --accent:    #0969da;
    --green:     #1a7f37;
    --yellow:    #9a6700;
    --red:       #cf222e;
    --hover:     #f3f4f6;
    --spark-bg:  #f0f3f6;
    --spark:     #0969da;
    --pill:      #eaf1fb;
    --pill-txt:  #0969da;
    --div:       #d0d7de;
  }
  @media (prefers-color-scheme: dark) {
    :root {
      --bg:        #0d1117;
      --card:      #161b22;
      --border:    #30363d;
      --primary:   #e6edf3;
      --secondary: #848d97;
      --muted:     #7d8590;
      --accent:    #2f81f7;
      --green:     #3fb950;
      --yellow:    #d29922;
      --red:       #f85149;
      --hover:     #21262d;
      --spark-bg:  #1c2128;
      --spark:     #58a6ff;
      --pill:      #1c2d3f;
      --pill-txt:  #58a6ff;
      --div:       #30363d;
    }
  }
  
  .bg          { fill: var(--bg); }
  .card        { fill: var(--card); stroke: var(--border); stroke-width: 1; }
  .lang-pill   { fill: var(--pill); }
  .spark-bg    { fill: var(--spark-bg); }
  .spark-line  { stroke: var(--spark); }
  .divider     { stroke: var(--div); stroke-width: 1; }
  .clr-primary   { fill: var(--primary); }
  .clr-secondary { fill: var(--secondary); }
  .clr-muted     { fill: var(--muted); }
  .clr-accent    { fill: var(--accent); }
  .clr-green     { fill: var(--green); }
  .clr-yellow    { fill: var(--yellow); }
  .clr-red       { fill: var(--red); }
  .txt-bold    { font-weight: 600; }
  svg text     { font-family: -apple-system, BlinkMacSystemFont, "Segoe UI", Helvetica, Arial, sans-serif; }
</style>

<rect x="0" y="0" width="820" height="180" rx="8" class="card"/>
  <text x="20" y="24" class="clr-primary txt-bold" text-anchor="start" font-size="14">Contribution History &amp; Activity</text>
  <line x1="20" y1="36" x2="800" y2="36" class="divider"/>
  <text x="20" y="60" class="clr-muted" text-anchor="start" font-size="12">Years Active:</text>
  <text x="100" y="60" class="clr-primary txt-bold" text-anchor="start" font-size="12">5.6</text>
  <text x="160" y="60" class="clr-muted" text-anchor="start" font-size="12">Commits (Last Year):</text>
  <text x="290" y="60" class="clr-primary txt-bold" text-anchor="start" font-size="12">1173</text>
  <text x="360" y="60" class="clr-muted" text-anchor="start" font-size="12">Highest Daily:</text>
  <text x="450" y="60" class="clr-primary txt-bold" text-anchor="start" font-size="12">163</text>
  <polygon points="20,160 20,160 22.1081,160 24.2162,160 26.3243,160 28.4324,160 30.5405,160 32.6486,160 34.7568,160 36.8649,160 38.973,160 41.0811,160 43.1892,160 45.2973,160 47.4054,160 49.5135,160 51.6216,160 53.7297,160 55.8378,160 57.9459,160 60.0541,160 62.1622,160 64.2703,160 66.3784,160 68.4865,160 70.5946,160 72.7027,160 74.8108,160 76.9189,160 79.027,160 81.1351,160 83.2432,160 85.3514,160 87.4595,159.509 89.5676,160 91.6757,160 93.7838,160 95.8919,160 98,160 100.108,160 102.216,160 104.324,160 106.432,160 108.541,160 110.649,160 112.757,160 114.865,160 116.973,160 119.081,160 121.189,160 123.297,160 125.405,160 127.514,160 129.622,160 131.73,160 133.838,160 135.946,160 138.054,160 140.162,160 142.27,159.018 144.378,160 146.486,160 148.595,160 150.703,145.276 152.811,155.583 154.919,157.546 157.027,155.583 159.135,157.055 161.243,156.074 163.351,160 165.459,160 167.568,160 169.676,158.037 171.784,159.018 173.892,158.037 176,156.564 178.108,160 180.216,158.528 182.324,156.564 184.432,160 186.541,154.11 188.649,149.202 190.757,149.202 192.865,153.62 194.973,141.84 197.081,154.601 199.189,160 201.297,154.601 203.405,160 205.514,160 207.622,157.546 209.73,148.221 211.838,159.018 213.946,160 216.054,158.037 218.162,160 220.27,159.509 222.378,160 224.486,160 226.595,160 228.703,160 230.811,151.656 232.919,155.583 235.027,156.074 237.135,157.546 239.243,150.675 241.351,160 243.459,158.037 245.568,156.564 247.676,158.037 249.784,156.074 251.892,160 254,154.11 256.108,160 258.216,159.509 260.324,160 262.432,160 264.541,157.546 266.649,160 268.757,160 270.865,160 272.973,160 275.081,160 277.189,160 279.297,160 281.405,160 283.514,160 285.622,160 287.73,160 289.838,160 291.946,160 294.054,160 296.162,160 298.27,160 300.378,154.601 302.486,158.037 304.595,160 306.703,160 308.811,160 310.919,160 313.027,160 315.135,160 317.243,160 319.351,160 321.459,160 323.568,160 325.676,160 327.784,160 329.892,160 332,160 334.108,160 336.216,160 338.324,160 340.432,160 342.541,160 344.649,160 346.757,160 348.865,157.055 350.973,160 353.081,160 355.189,160 357.297,160 359.405,155.092 361.514,160 363.622,160 365.73,160 367.838,160 369.946,137.423 372.054,153.62 374.162,80 376.27,155.092 378.378,149.202 380.486,155.092 382.595,158.037 384.703,158.528 386.811,159.509 388.919,156.074 391.027,160 393.135,159.018 395.243,160 397.351,159.509 399.459,159.018 401.568,159.509 403.676,160 405.784,158.528 407.892,160 410,159.018 412.108,159.018 414.216,157.546 416.324,157.055 418.432,160 420.541,160 422.649,159.509 424.757,159.509 426.865,158.528 428.973,159.509 431.081,157.055 433.189,157.055 435.297,159.018 437.405,158.528 439.514,147.239 441.622,157.055 443.73,129.08 445.838,147.239 447.946,153.129 450.054,160 452.162,160 454.27,160 456.378,151.656 458.486,158.528 460.595,160 462.703,160 464.811,138.405 466.919,158.528 469.027,160 471.135,160 473.243,160 475.351,160 477.459,160 479.568,160 481.676,160 483.784,160 485.892,160 488,160 490.108,160 492.216,160 494.324,160 496.432,160 498.541,160 500.649,159.509 502.757,160 504.865,160 506.973,160 509.081,160 511.189,160 513.297,160 515.405,160 517.514,160 519.622,160 521.73,159.509 523.838,158.037 525.946,160 528.054,160 530.162,160 532.27,160 534.378,160 536.486,160 538.595,160 540.703,160 542.811,160 544.919,160 547.027,160 549.135,159.509 551.243,158.037 553.351,157.055 555.459,160 557.568,160 559.676,160 561.784,156.564 563.892,157.546 566,147.239 568.108,160 570.216,160 572.324,160 574.432,155.092 576.541,148.221 578.649,160 580.757,160 582.865,158.037 584.973,160 587.081,158.037 589.189,160 591.297,160 593.405,160 595.514,160 597.622,160 599.73,160 601.838,159.018 603.946,144.294 606.054,159.018 608.162,160 610.27,139.387 612.378,121.718 614.486,120.736 616.595,147.73 618.703,146.258 620.811,157.055 622.919,160 625.027,160 627.135,160 629.243,160 631.351,160 633.459,160 635.568,160 637.676,160 639.784,157.546 641.892,153.62 644,148.712 646.108,160 648.216,149.202 650.324,149.693 652.432,134.969 654.541,146.258 656.649,145.767 658.757,146.258 660.865,150.184 662.973,154.11 665.081,154.601 667.189,154.11 669.297,157.055 671.405,156.564 673.514,159.509 675.622,160 677.73,160 679.838,160 681.946,160 684.054,160 686.162,160 688.27,160 690.378,160 692.486,158.528 694.595,159.509 696.703,160 698.811,160 700.919,159.509 703.027,142.331 705.135,144.785 707.243,157.055 709.351,158.528 711.459,160 713.568,160 715.676,159.509 717.784,160 719.892,160 722,159.018 724.108,153.62 726.216,159.018 728.324,160 730.432,160 732.541,149.693 734.649,155.583 736.757,158.528 738.865,156.074 740.973,155.583 743.081,159.509 745.189,159.509 747.297,160 749.405,160 751.514,151.656 753.622,140.859 755.73,155.092 757.838,160 759.946,141.84 762.054,150.184 764.162,152.147 766.27,160 768.378,160 770.486,160 772.595,160 774.703,160 776.811,160 778.919,160 781.027,160 783.135,160 785.243,160 787.351,160 789.459,160 791.568,158.037 793.676,160 795.784,160 797.892,160 800,160 800,160" fill="var(--pill)" opacity="0.6"/>
  <polyline points="20,160 22.1081,160 24.2162,160 26.3243,160 28.4324,160 30.5405,160 32.6486,160 34.7568,160 36.8649,160 38.973,160 41.0811,160 43.1892,160 45.2973,160 47.4054,160 49.5135,160 51.6216,160 53.7297,160 55.8378,160 57.9459,160 60.0541,160 62.1622,160 64.2703,160 66.3784,160 68.4865,160 70.5946,160 72.7027,160 74.8108,160 76.9189,160 79.027,160 81.1351,160 83.2432,160 85.3514,160 87.4595,159.509 89.5676,160 91.6757,160 93.7838,160 95.8919,160 98,160 100.108,160 102.216,160 104.324,160 106.432,160 108.541,160 110.649,160 112.757,160 114.865,160 116.973,160 119.081,160 121.189,160 123.297,160 125.405,160 127.514,160 129.622,160 131.73,160 133.838,160 135.946,160 138.054,160 140.162,160 142.27,159.018 144.378,160 146.486,160 148.595,160 150.703,145.276 152.811,155.583 154.919,157.546 157.027,155.583 159.135,157.055 161.243,156.074 163.351,160 165.459,160 167.568,160 169.676,158.037 171.784,159.018 173.892,158.037 176,156.564 178.108,160 180.216,158.528 182.324,156.564 184.432,160 186.541,154.11 188.649,149.202 190.757,149.202 192.865,153.62 194.973,141.84 197.081,154.601 199.189,160 201.297,154.601 203.405,160 205.514,160 207.622,157.546 209.73,148.221 211.838,159.018 213.946,160 216.054,158.037 218.162,160 220.27,159.509 222.378,160 224.486,160 226.595,160 228.703,160 230.811,151.656 232.919,155.583 235.027,156.074 237.135,157.546 239.243,150.675 241.351,160 243.459,158.037 245.568,156.564 247.676,158.037 249.784,156.074 251.892,160 254,154.11 256.108,160 258.216,159.509 260.324,160 262.432,160 264.541,157.546 266.649,160 268.757,160 270.865,160 272.973,160 275.081,160 277.189,160 279.297,160 281.405,160 283.514,160 285.622,160 287.73,160 289.838,160 291.946,160 294.054,160 296.162,160 298.27,160 300.378,154.601 302.486,158.037 304.595,160 306.703,160 308.811,160 310.919,160 313.027,160 315.135,160 317.243,160 319.351,160 321.459,160 323.568,160 325.676,160 327.784,160 329.892,160 332,160 334.108,160 336.216,160 338.324,160 340.432,160 342.541,160 344.649,160 346.757,160 348.865,157.055 350.973,160 353.081,160 355.189,160 357.297,160 359.405,155.092 361.514,160 363.622,160 365.73,160 367.838,160 369.946,137.423 372.054,153.62 374.162,80 376.27,155.092 378.378,149.202 380.486,155.092 382.595,158.037 384.703,158.528 386.811,159.509 388.919,156.074 391.027,160 393.135,159.018 395.243,160 397.351,159.509 399.459,159.018 401.568,159.509 403.676,160 405.784,158.528 407.892,160 410,159.018 412.108,159.018 414.216,157.546 416.324,157.055 418.432,160 420.541,160 422.649,159.509 424.757,159.509 426.865,158.528 428.973,159.509 431.081,157.055 433.189,157.055 435.297,159.018 437.405,158.528 439.514,147.239 441.622,157.055 443.73,129.08 445.838,147.239 447.946,153.129 450.054,160 452.162,160 454.27,160 456.378,151.656 458.486,158.528 460.595,160 462.703,160 464.811,138.405 466.919,158.528 469.027,160 471.135,160 473.243,160 475.351,160 477.459,160 479.568,160 481.676,160 483.784,160 485.892,160 488,160 490.108,160 492.216,160 494.324,160 496.432,160 498.541,160 500.649,159.509 502.757,160 504.865,160 506.973,160 509.081,160 511.189,160 513.297,160 515.405,160 517.514,160 519.622,160 521.73,159.509 523.838,158.037 525.946,160 528.054,160 530.162,160 532.27,160 534.378,160 536.486,160 538.595,160 540.703,160 542.811,160 544.919,160 547.027,160 549.135,159.509 551.243,158.037 553.351,157.055 555.459,160 557.568,160 559.676,160 561.784,156.564 563.892,157.546 566,147.239 568.108,160 570.216,160 572.324,160 574.432,155.092 576.541,148.221 578.649,160 580.757,160 582.865,158.037 584.973,160 587.081,158.037 589.189,160 591.297,160 593.405,160 595.514,160 597.622,160 599.73,160 601.838,159.018 603.946,144.294 606.054,159.018 608.162,160 610.27,139.387 612.378,121.718 614.486,120.736 616.595,147.73 618.703,146.258 620.811,157.055 622.919,160 625.027,160 627.135,160 629.243,160 631.351,160 633.459,160 635.568,160 637.676,160 639.784,157.546 641.892,153.62 644,148.712 646.108,160 648.216,149.202 650.324,149.693 652.432,134.969 654.541,146.258 656.649,145.767 658.757,146.258 660.865,150.184 662.973,154.11 665.081,154.601 667.189,154.11 669.297,157.055 671.405,156.564 673.514,159.509 675.622,160 677.73,160 679.838,160 681.946,160 684.054,160 686.162,160 688.27,160 690.378,160 692.486,158.528 694.595,159.509 696.703,160 698.811,160 700.919,159.509 703.027,142.331 705.135,144.785 707.243,157.055 709.351,158.528 711.459,160 713.568,160 715.676,159.509 717.784,160 719.892,160 722,159.018 724.108,153.62 726.216,159.018 728.324,160 730.432,160 732.541,149.693 734.649,155.583 736.757,158.528 738.865,156.074 740.973,155.583 743.081,159.509 745.189,159.509 747.297,160 749.405,160 751.514,151.656 753.622,140.859 755.73,155.092 757.838,160 759.946,141.84 762.054,150.184 764.162,152.147 766.27,160 768.378,160 770.486,160 772.595,160 774.703,160 776.811,160 778.919,160 781.027,160 783.135,160 785.243,160 787.351,160 789.459,160 791.568,158.037 793.676,160 795.784,160 797.892,160 800,160" fill="none" stroke="var(--accent)" stroke-width="1.5" stroke-linecap="round" stroke-linejoin="round"/>
</svg>

