<svg xmlns="http://www.w3.org/2000/svg" width="820" height="180" viewBox="0 0 820 180">

<style>
  :root {
    --bg:        #f6f8fa;
    --card:      #ffffff;
    --border:    #d0d7de;
    --primary:   #1f2328;
    --secondary: #636c76;
    --muted:     #8c959f;
    --accent:    #0969da;
    --green:     #1a7f37;
    --yellow:    #9a6700;
    --red:       #cf222e;
    --hover:     #f3f4f6;
    --spark-bg:  #f0f3f6;
    --spark:     #0969da;
    --pill:      #eaf1fb;
    --pill-txt:  #0969da;
    --div:       #d0d7de;
  }
  @media (prefers-color-scheme: dark) {
    :root {
      --bg:        #0d1117;
      --card:      #161b22;
      --border:    #30363d;
      --primary:   #e6edf3;
      --secondary: #848d97;
      --muted:     #7d8590;
      --accent:    #2f81f7;
      --green:     #3fb950;
      --yellow:    #d29922;
      --red:       #f85149;
      --hover:     #21262d;
      --spark-bg:  #1c2128;
      --spark:     #58a6ff;
      --pill:      #1c2d3f;
      --pill-txt:  #58a6ff;
      --div:       #30363d;
    }
  }
  
  .bg          { fill: var(--bg); }
  .card        { fill: var(--card); stroke: var(--border); stroke-width: 1; }
  .lang-pill   { fill: var(--pill); }
  .spark-bg    { fill: var(--spark-bg); }
  .spark-line  { stroke: var(--spark); }
  .divider     { stroke: var(--div); stroke-width: 1; }
  .clr-primary   { fill: var(--primary); }
  .clr-secondary { fill: var(--secondary); }
  .clr-muted     { fill: var(--muted); }
  .clr-accent    { fill: var(--accent); }
  .clr-green     { fill: var(--green); }
  .clr-yellow    { fill: var(--yellow); }
  .clr-red       { fill: var(--red); }
  .txt-bold    { font-weight: 600; }
  svg text     { font-family: -apple-system, BlinkMacSystemFont, "Segoe UI", Helvetica, Arial, sans-serif; }
</style>

<rect x="0" y="0" width="820" height="180" rx="8" class="card"/>
  <text x="20" y="24" class="clr-primary txt-bold" text-anchor="start" font-size="14">Contribution History &amp; Activity</text>
  <line x1="20" y1="36" x2="800" y2="36" class="divider"/>
  <text x="20" y="60" class="clr-muted" text-anchor="start" font-size="12">Years Active:</text>
  <text x="100" y="60" class="clr-primary txt-bold" text-anchor="start" font-size="12">5.7</text>
  <text x="160" y="60" class="clr-muted" text-anchor="start" font-size="12">Commits (Last Year):</text>
  <text x="290" y="60" class="clr-primary txt-bold" text-anchor="start" font-size="12">1191</text>
  <text x="360" y="60" class="clr-muted" text-anchor="start" font-size="12">Highest Daily:</text>
  <text x="450" y="60" class="clr-primary txt-bold" text-anchor="start" font-size="12">163</text>
  <polygon points="20,160 20,160 22.1429,160 24.2857,160 26.4286,160 28.5714,160 30.7143,160 32.8571,160 35,160 37.1429,160 39.2857,160 41.4286,160 43.5714,159.509 45.7143,160 47.8571,160 50,160 52.1429,160 54.2857,160 56.4286,160 58.5714,160 60.7143,160 62.8571,160 65,160 67.1429,160 69.2857,160 71.4286,160 73.5714,160 75.7143,160 77.8571,160 80,160 82.1429,160 84.2857,160 86.4286,160 88.5714,160 90.7143,160 92.8571,160 95,160 97.1429,160 99.2857,159.018 101.429,160 103.571,160 105.714,160 107.857,145.276 110,155.583 112.143,157.546 114.286,155.583 116.429,157.055 118.571,156.074 120.714,160 122.857,160 125,160 127.143,158.037 129.286,159.018 131.429,158.037 133.571,156.564 135.714,160 137.857,158.528 140,156.564 142.143,160 144.286,154.11 146.429,149.202 148.571,149.202 150.714,153.62 152.857,141.84 155,154.601 157.143,160 159.286,154.601 161.429,160 163.571,160 165.714,157.546 167.857,148.221 170,159.018 172.143,160 174.286,158.037 176.429,160 178.571,159.509 180.714,160 182.857,160 185,160 187.143,160 189.286,151.656 191.429,155.583 193.571,156.074 195.714,157.546 197.857,150.675 200,160 202.143,158.037 204.286,156.564 206.429,158.037 208.571,156.074 210.714,160 212.857,154.11 215,160 217.143,159.509 219.286,160 221.429,160 223.571,157.546 225.714,160 227.857,160 230,160 232.143,160 234.286,160 236.429,160 238.571,160 240.714,160 242.857,160 245,160 247.143,160 249.286,160 251.429,160 253.571,160 255.714,160 257.857,160 260,154.601 262.143,158.037 264.286,160 266.429,160 268.571,160 270.714,160 272.857,160 275,160 277.143,160 279.286,160 281.429,160 283.571,160 285.714,160 287.857,160 290,160 292.143,160 294.286,160 296.429,160 298.571,160 300.714,160 302.857,160 305,160 307.143,160 309.286,157.055 311.429,160 313.571,160 315.714,160 317.857,160 320,155.092 322.143,160 324.286,160 326.429,160 328.571,160 330.714,137.423 332.857,153.62 335,80 337.143,155.092 339.286,149.202 341.429,155.092 343.571,158.037 345.714,158.528 347.857,159.509 350,156.074 352.143,160 354.286,159.018 356.429,160 358.571,159.509 360.714,159.018 362.857,159.509 365,160 367.143,158.528 369.286,160 371.429,159.018 373.571,159.018 375.714,157.546 377.857,157.055 380,160 382.143,160 384.286,159.509 386.429,159.509 388.571,158.528 390.714,159.509 392.857,157.055 395,157.055 397.143,159.018 399.286,158.528 401.429,147.239 403.571,157.055 405.714,129.08 407.857,147.239 410,153.129 412.143,160 414.286,160 416.429,160 418.571,151.656 420.714,158.528 422.857,160 425,160 427.143,138.405 429.286,158.528 431.429,160 433.571,160 435.714,160 437.857,160 440,160 442.143,160 444.286,160 446.429,160 448.571,160 450.714,160 452.857,160 455,160 457.143,160 459.286,160 461.429,160 463.571,159.509 465.714,160 467.857,160 470,160 472.143,160 474.286,160 476.429,160 478.571,160 480.714,160 482.857,160 485,159.509 487.143,158.037 489.286,160 491.429,160 493.571,160 495.714,160 497.857,160 500,160 502.143,160 504.286,160 506.429,160 508.571,160 510.714,160 512.857,159.509 515,158.037 517.143,157.055 519.286,160 521.429,160 523.571,160 525.714,156.564 527.857,157.546 530,147.239 532.143,160 534.286,160 536.429,160 538.571,155.092 540.714,148.221 542.857,160 545,160 547.143,158.037 549.286,160 551.429,158.037 553.571,160 555.714,160 557.857,160 560,160 562.143,160 564.286,160 566.429,159.018 568.571,144.294 570.714,159.018 572.857,160 575,139.387 577.143,121.718 579.286,120.736 581.429,147.73 583.571,146.258 585.714,157.055 587.857,160 590,160 592.143,160 594.286,160 596.429,160 598.571,160 600.714,160 602.857,160 605,157.546 607.143,153.62 609.286,148.712 611.429,160 613.571,149.202 615.714,149.693 617.857,134.969 620,146.258 622.143,145.767 624.286,146.258 626.429,150.184 628.571,154.11 630.714,154.601 632.857,154.11 635,157.055 637.143,156.564 639.286,159.509 641.429,160 643.571,160 645.714,160 647.857,160 650,160 652.143,160 654.286,160 656.429,160 658.571,158.528 660.714,159.509 662.857,160 665,160 667.143,159.509 669.286,142.331 671.429,144.785 673.571,157.055 675.714,158.528 677.857,160 680,160 682.143,159.509 684.286,160 686.429,160 688.571,159.018 690.714,153.62 692.857,159.018 695,160 697.143,160 699.286,149.693 701.429,155.583 703.571,158.528 705.714,156.074 707.857,155.583 710,159.509 712.143,159.509 714.286,160 716.429,160 718.571,151.656 720.714,140.859 722.857,155.092 725,160 727.143,141.84 729.286,150.184 731.429,152.147 733.571,160 735.714,160 737.857,160 740,160 742.143,160 744.286,160 746.429,160 748.571,160 750.714,160 752.857,160 755,160 757.143,160 759.286,158.037 761.429,160 763.571,160 765.714,160 767.857,160 770,160 772.143,160 774.286,160 776.429,160 778.571,160 780.714,160 782.857,160 785,160 787.143,160 789.286,160 791.429,156.564 793.571,154.601 795.714,160 797.857,160 800,160 800,160" fill="var(--pill)" opacity="0.6"/>
  <polyline points="20,160 22.1429,160 24.2857,160 26.4286,160 28.5714,160 30.7143,160 32.8571,160 35,160 37.1429,160 39.2857,160 41.4286,160 43.5714,159.509 45.7143,160 47.8571,160 50,160 52.1429,160 54.2857,160 56.4286,160 58.5714,160 60.7143,160 62.8571,160 65,160 67.1429,160 69.2857,160 71.4286,160 73.5714,160 75.7143,160 77.8571,160 80,160 82.1429,160 84.2857,160 86.4286,160 88.5714,160 90.7143,160 92.8571,160 95,160 97.1429,160 99.2857,159.018 101.429,160 103.571,160 105.714,160 107.857,145.276 110,155.583 112.143,157.546 114.286,155.583 116.429,157.055 118.571,156.074 120.714,160 122.857,160 125,160 127.143,158.037 129.286,159.018 131.429,158.037 133.571,156.564 135.714,160 137.857,158.528 140,156.564 142.143,160 144.286,154.11 146.429,149.202 148.571,149.202 150.714,153.62 152.857,141.84 155,154.601 157.143,160 159.286,154.601 161.429,160 163.571,160 165.714,157.546 167.857,148.221 170,159.018 172.143,160 174.286,158.037 176.429,160 178.571,159.509 180.714,160 182.857,160 185,160 187.143,160 189.286,151.656 191.429,155.583 193.571,156.074 195.714,157.546 197.857,150.675 200,160 202.143,158.037 204.286,156.564 206.429,158.037 208.571,156.074 210.714,160 212.857,154.11 215,160 217.143,159.509 219.286,160 221.429,160 223.571,157.546 225.714,160 227.857,160 230,160 232.143,160 234.286,160 236.429,160 238.571,160 240.714,160 242.857,160 245,160 247.143,160 249.286,160 251.429,160 253.571,160 255.714,160 257.857,160 260,154.601 262.143,158.037 264.286,160 266.429,160 268.571,160 270.714,160 272.857,160 275,160 277.143,160 279.286,160 281.429,160 283.571,160 285.714,160 287.857,160 290,160 292.143,160 294.286,160 296.429,160 298.571,160 300.714,160 302.857,160 305,160 307.143,160 309.286,157.055 311.429,160 313.571,160 315.714,160 317.857,160 320,155.092 322.143,160 324.286,160 326.429,160 328.571,160 330.714,137.423 332.857,153.62 335,80 337.143,155.092 339.286,149.202 341.429,155.092 343.571,158.037 345.714,158.528 347.857,159.509 350,156.074 352.143,160 354.286,159.018 356.429,160 358.571,159.509 360.714,159.018 362.857,159.509 365,160 367.143,158.528 369.286,160 371.429,159.018 373.571,159.018 375.714,157.546 377.857,157.055 380,160 382.143,160 384.286,159.509 386.429,159.509 388.571,158.528 390.714,159.509 392.857,157.055 395,157.055 397.143,159.018 399.286,158.528 401.429,147.239 403.571,157.055 405.714,129.08 407.857,147.239 410,153.129 412.143,160 414.286,160 416.429,160 418.571,151.656 420.714,158.528 422.857,160 425,160 427.143,138.405 429.286,158.528 431.429,160 433.571,160 435.714,160 437.857,160 440,160 442.143,160 444.286,160 446.429,160 448.571,160 450.714,160 452.857,160 455,160 457.143,160 459.286,160 461.429,160 463.571,159.509 465.714,160 467.857,160 470,160 472.143,160 474.286,160 476.429,160 478.571,160 480.714,160 482.857,160 485,159.509 487.143,158.037 489.286,160 491.429,160 493.571,160 495.714,160 497.857,160 500,160 502.143,160 504.286,160 506.429,160 508.571,160 510.714,160 512.857,159.509 515,158.037 517.143,157.055 519.286,160 521.429,160 523.571,160 525.714,156.564 527.857,157.546 530,147.239 532.143,160 534.286,160 536.429,160 538.571,155.092 540.714,148.221 542.857,160 545,160 547.143,158.037 549.286,160 551.429,158.037 553.571,160 555.714,160 557.857,160 560,160 562.143,160 564.286,160 566.429,159.018 568.571,144.294 570.714,159.018 572.857,160 575,139.387 577.143,121.718 579.286,120.736 581.429,147.73 583.571,146.258 585.714,157.055 587.857,160 590,160 592.143,160 594.286,160 596.429,160 598.571,160 600.714,160 602.857,160 605,157.546 607.143,153.62 609.286,148.712 611.429,160 613.571,149.202 615.714,149.693 617.857,134.969 620,146.258 622.143,145.767 624.286,146.258 626.429,150.184 628.571,154.11 630.714,154.601 632.857,154.11 635,157.055 637.143,156.564 639.286,159.509 641.429,160 643.571,160 645.714,160 647.857,160 650,160 652.143,160 654.286,160 656.429,160 658.571,158.528 660.714,159.509 662.857,160 665,160 667.143,159.509 669.286,142.331 671.429,144.785 673.571,157.055 675.714,158.528 677.857,160 680,160 682.143,159.509 684.286,160 686.429,160 688.571,159.018 690.714,153.62 692.857,159.018 695,160 697.143,160 699.286,149.693 701.429,155.583 703.571,158.528 705.714,156.074 707.857,155.583 710,159.509 712.143,159.509 714.286,160 716.429,160 718.571,151.656 720.714,140.859 722.857,155.092 725,160 727.143,141.84 729.286,150.184 731.429,152.147 733.571,160 735.714,160 737.857,160 740,160 742.143,160 744.286,160 746.429,160 748.571,160 750.714,160 752.857,160 755,160 757.143,160 759.286,158.037 761.429,160 763.571,160 765.714,160 767.857,160 770,160 772.143,160 774.286,160 776.429,160 778.571,160 780.714,160 782.857,160 785,160 787.143,160 789.286,160 791.429,156.564 793.571,154.601 795.714,160 797.857,160 800,160" fill="none" stroke="var(--accent)" stroke-width="1.5" stroke-linecap="round" stroke-linejoin="round"/>
</svg>

