<svg xmlns="http://www.w3.org/2000/svg" width="820" height="180" viewBox="0 0 820 180">

<style>
  :root {
    --bg:        #f6f8fa;
    --card:      #ffffff;
    --border:    #d0d7de;
    --primary:   #1f2328;
    --secondary: #636c76;
    --muted:     #8c959f;
    --accent:    #0969da;
    --green:     #1a7f37;
    --yellow:    #9a6700;
    --red:       #cf222e;
    --hover:     #f3f4f6;
    --spark-bg:  #f0f3f6;
    --spark:     #0969da;
    --pill:      #eaf1fb;
    --pill-txt:  #0969da;
    --div:       #d0d7de;
  }
  @media (prefers-color-scheme: dark) {
    :root {
      --bg:        #0d1117;
      --card:      #161b22;
      --border:    #30363d;
      --primary:   #e6edf3;
      --secondary: #848d97;
      --muted:     #7d8590;
      --accent:    #2f81f7;
      --green:     #3fb950;
      --yellow:    #d29922;
      --red:       #f85149;
      --hover:     #21262d;
      --spark-bg:  #1c2128;
      --spark:     #58a6ff;
      --pill:      #1c2d3f;
      --pill-txt:  #58a6ff;
      --div:       #30363d;
    }
  }
  
  .bg          { fill: var(--bg); }
  .card        { fill: var(--card); stroke: var(--border); stroke-width: 1; }
  .lang-pill   { fill: var(--pill); }
  .spark-bg    { fill: var(--spark-bg); }
  .spark-line  { stroke: var(--spark); }
  .divider     { stroke: var(--div); stroke-width: 1; }
  .clr-primary   { fill: var(--primary); }
  .clr-secondary { fill: var(--secondary); }
  .clr-muted     { fill: var(--muted); }
  .clr-accent    { fill: var(--accent); }
  .clr-green     { fill: var(--green); }
  .clr-yellow    { fill: var(--yellow); }
  .clr-red       { fill: var(--red); }
  .txt-bold    { font-weight: 600; }
  svg text     { font-family: -apple-system, BlinkMacSystemFont, "Segoe UI", Helvetica, Arial, sans-serif; }
</style>

<rect x="0" y="0" width="820" height="180" rx="8" class="card"/>
  <text x="20" y="24" class="clr-primary txt-bold" text-anchor="start" font-size="14">Contribution History &amp; Activity</text>
  <line x1="20" y1="36" x2="800" y2="36" class="divider"/>
  <text x="20" y="60" class="clr-muted" text-anchor="start" font-size="12">Years Active:</text>
  <text x="100" y="60" class="clr-primary txt-bold" text-anchor="start" font-size="12">5.7</text>
  <text x="160" y="60" class="clr-muted" text-anchor="start" font-size="12">Commits (Last Year):</text>
  <text x="290" y="60" class="clr-primary txt-bold" text-anchor="start" font-size="12">1173</text>
  <text x="360" y="60" class="clr-muted" text-anchor="start" font-size="12">Highest Daily:</text>
  <text x="450" y="60" class="clr-primary txt-bold" text-anchor="start" font-size="12">163</text>
  <polygon points="20,160 20,160 22.1138,160 24.2276,160 26.3415,160 28.4553,160 30.5691,160 32.6829,160 34.7967,160 36.9106,160 39.0244,160 41.1382,160 43.252,160 45.3659,160 47.4797,160 49.5935,160 51.7073,160 53.8211,160 55.935,160 58.0488,160 60.1626,160 62.2764,160 64.3902,160 66.5041,160 68.6179,160 70.7317,160 72.8455,159.509 74.9593,160 77.0732,160 79.187,160 81.3008,160 83.4146,160 85.5285,160 87.6423,160 89.7561,160 91.8699,160 93.9837,160 96.0976,160 98.2114,160 100.325,160 102.439,160 104.553,160 106.667,160 108.78,160 110.894,160 113.008,160 115.122,160 117.236,160 119.35,160 121.463,160 123.577,160 125.691,160 127.805,159.018 129.919,160 132.033,160 134.146,160 136.26,145.276 138.374,155.583 140.488,157.546 142.602,155.583 144.715,157.055 146.829,156.074 148.943,160 151.057,160 153.171,160 155.285,158.037 157.398,159.018 159.512,158.037 161.626,156.564 163.74,160 165.854,158.528 167.967,156.564 170.081,160 172.195,154.11 174.309,149.202 176.423,149.202 178.537,153.62 180.65,141.84 182.764,154.601 184.878,160 186.992,154.601 189.106,160 191.22,160 193.333,157.546 195.447,148.221 197.561,159.018 199.675,160 201.789,158.037 203.902,160 206.016,159.509 208.13,160 210.244,160 212.358,160 214.472,160 216.585,151.656 218.699,155.583 220.813,156.074 222.927,157.546 225.041,150.675 227.154,160 229.268,158.037 231.382,156.564 233.496,158.037 235.61,156.074 237.724,160 239.837,154.11 241.951,160 244.065,159.509 246.179,160 248.293,160 250.407,157.546 252.52,160 254.634,160 256.748,160 258.862,160 260.976,160 263.089,160 265.203,160 267.317,160 269.431,160 271.545,160 273.659,160 275.772,160 277.886,160 280,160 282.114,160 284.228,160 286.341,154.601 288.455,158.037 290.569,160 292.683,160 294.797,160 296.911,160 299.024,160 301.138,160 303.252,160 305.366,160 307.48,160 309.593,160 311.707,160 313.821,160 315.935,160 318.049,160 320.163,160 322.276,160 324.39,160 326.504,160 328.618,160 330.732,160 332.846,160 334.959,157.055 337.073,160 339.187,160 341.301,160 343.415,160 345.528,155.092 347.642,160 349.756,160 351.87,160 353.984,160 356.098,137.423 358.211,153.62 360.325,80 362.439,155.092 364.553,149.202 366.667,155.092 368.78,158.037 370.894,158.528 373.008,159.509 375.122,156.074 377.236,160 379.35,159.018 381.463,160 383.577,159.509 385.691,159.018 387.805,159.509 389.919,160 392.033,158.528 394.146,160 396.26,159.018 398.374,159.018 400.488,157.546 402.602,157.055 404.715,160 406.829,160 408.943,159.509 411.057,159.509 413.171,158.528 415.285,159.509 417.398,157.055 419.512,157.055 421.626,159.018 423.74,158.528 425.854,147.239 427.967,157.055 430.081,129.08 432.195,147.239 434.309,153.129 436.423,160 438.537,160 440.65,160 442.764,151.656 444.878,158.528 446.992,160 449.106,160 451.22,138.405 453.333,158.528 455.447,160 457.561,160 459.675,160 461.789,160 463.902,160 466.016,160 468.13,160 470.244,160 472.358,160 474.472,160 476.585,160 478.699,160 480.813,160 482.927,160 485.041,160 487.154,159.509 489.268,160 491.382,160 493.496,160 495.61,160 497.724,160 499.837,160 501.951,160 504.065,160 506.179,160 508.293,159.509 510.407,158.037 512.52,160 514.634,160 516.748,160 518.862,160 520.976,160 523.089,160 525.203,160 527.317,160 529.431,160 531.545,160 533.659,160 535.772,159.509 537.886,158.037 540,157.055 542.114,160 544.228,160 546.341,160 548.455,156.564 550.569,157.546 552.683,147.239 554.797,160 556.911,160 559.024,160 561.138,155.092 563.252,148.221 565.366,160 567.48,160 569.593,158.037 571.707,160 573.821,158.037 575.935,160 578.049,160 580.163,160 582.276,160 584.39,160 586.504,160 588.618,159.018 590.732,144.294 592.846,159.018 594.959,160 597.073,139.387 599.187,121.718 601.301,120.736 603.415,147.73 605.528,146.258 607.642,157.055 609.756,160 611.87,160 613.984,160 616.098,160 618.211,160 620.325,160 622.439,160 624.553,160 626.667,157.546 628.78,153.62 630.894,148.712 633.008,160 635.122,149.202 637.236,149.693 639.35,134.969 641.463,146.258 643.577,145.767 645.691,146.258 647.805,150.184 649.919,154.11 652.033,154.601 654.146,154.11 656.26,157.055 658.374,156.564 660.488,159.509 662.602,160 664.715,160 666.829,160 668.943,160 671.057,160 673.171,160 675.285,160 677.398,160 679.512,158.528 681.626,159.509 683.74,160 685.854,160 687.967,159.509 690.081,142.331 692.195,144.785 694.309,157.055 696.423,158.528 698.537,160 700.65,160 702.764,159.509 704.878,160 706.992,160 709.106,159.018 711.22,153.62 713.333,159.018 715.447,160 717.561,160 719.675,149.693 721.789,155.583 723.902,158.528 726.016,156.074 728.13,155.583 730.244,159.509 732.358,159.509 734.472,160 736.585,160 738.699,151.656 740.813,140.859 742.927,155.092 745.041,160 747.154,141.84 749.268,150.184 751.382,152.147 753.496,160 755.61,160 757.724,160 759.837,160 761.951,160 764.065,160 766.179,160 768.293,160 770.407,160 772.52,160 774.634,160 776.748,160 778.862,158.037 780.976,160 783.089,160 785.203,160 787.317,160 789.431,160 791.545,160 793.659,160 795.772,160 797.886,160 800,160 800,160" fill="var(--pill)" opacity="0.6"/>
  <polyline points="20,160 22.1138,160 24.2276,160 26.3415,160 28.4553,160 30.5691,160 32.6829,160 34.7967,160 36.9106,160 39.0244,160 41.1382,160 43.252,160 45.3659,160 47.4797,160 49.5935,160 51.7073,160 53.8211,160 55.935,160 58.0488,160 60.1626,160 62.2764,160 64.3902,160 66.5041,160 68.6179,160 70.7317,160 72.8455,159.509 74.9593,160 77.0732,160 79.187,160 81.3008,160 83.4146,160 85.5285,160 87.6423,160 89.7561,160 91.8699,160 93.9837,160 96.0976,160 98.2114,160 100.325,160 102.439,160 104.553,160 106.667,160 108.78,160 110.894,160 113.008,160 115.122,160 117.236,160 119.35,160 121.463,160 123.577,160 125.691,160 127.805,159.018 129.919,160 132.033,160 134.146,160 136.26,145.276 138.374,155.583 140.488,157.546 142.602,155.583 144.715,157.055 146.829,156.074 148.943,160 151.057,160 153.171,160 155.285,158.037 157.398,159.018 159.512,158.037 161.626,156.564 163.74,160 165.854,158.528 167.967,156.564 170.081,160 172.195,154.11 174.309,149.202 176.423,149.202 178.537,153.62 180.65,141.84 182.764,154.601 184.878,160 186.992,154.601 189.106,160 191.22,160 193.333,157.546 195.447,148.221 197.561,159.018 199.675,160 201.789,158.037 203.902,160 206.016,159.509 208.13,160 210.244,160 212.358,160 214.472,160 216.585,151.656 218.699,155.583 220.813,156.074 222.927,157.546 225.041,150.675 227.154,160 229.268,158.037 231.382,156.564 233.496,158.037 235.61,156.074 237.724,160 239.837,154.11 241.951,160 244.065,159.509 246.179,160 248.293,160 250.407,157.546 252.52,160 254.634,160 256.748,160 258.862,160 260.976,160 263.089,160 265.203,160 267.317,160 269.431,160 271.545,160 273.659,160 275.772,160 277.886,160 280,160 282.114,160 284.228,160 286.341,154.601 288.455,158.037 290.569,160 292.683,160 294.797,160 296.911,160 299.024,160 301.138,160 303.252,160 305.366,160 307.48,160 309.593,160 311.707,160 313.821,160 315.935,160 318.049,160 320.163,160 322.276,160 324.39,160 326.504,160 328.618,160 330.732,160 332.846,160 334.959,157.055 337.073,160 339.187,160 341.301,160 343.415,160 345.528,155.092 347.642,160 349.756,160 351.87,160 353.984,160 356.098,137.423 358.211,153.62 360.325,80 362.439,155.092 364.553,149.202 366.667,155.092 368.78,158.037 370.894,158.528 373.008,159.509 375.122,156.074 377.236,160 379.35,159.018 381.463,160 383.577,159.509 385.691,159.018 387.805,159.509 389.919,160 392.033,158.528 394.146,160 396.26,159.018 398.374,159.018 400.488,157.546 402.602,157.055 404.715,160 406.829,160 408.943,159.509 411.057,159.509 413.171,158.528 415.285,159.509 417.398,157.055 419.512,157.055 421.626,159.018 423.74,158.528 425.854,147.239 427.967,157.055 430.081,129.08 432.195,147.239 434.309,153.129 436.423,160 438.537,160 440.65,160 442.764,151.656 444.878,158.528 446.992,160 449.106,160 451.22,138.405 453.333,158.528 455.447,160 457.561,160 459.675,160 461.789,160 463.902,160 466.016,160 468.13,160 470.244,160 472.358,160 474.472,160 476.585,160 478.699,160 480.813,160 482.927,160 485.041,160 487.154,159.509 489.268,160 491.382,160 493.496,160 495.61,160 497.724,160 499.837,160 501.951,160 504.065,160 506.179,160 508.293,159.509 510.407,158.037 512.52,160 514.634,160 516.748,160 518.862,160 520.976,160 523.089,160 525.203,160 527.317,160 529.431,160 531.545,160 533.659,160 535.772,159.509 537.886,158.037 540,157.055 542.114,160 544.228,160 546.341,160 548.455,156.564 550.569,157.546 552.683,147.239 554.797,160 556.911,160 559.024,160 561.138,155.092 563.252,148.221 565.366,160 567.48,160 569.593,158.037 571.707,160 573.821,158.037 575.935,160 578.049,160 580.163,160 582.276,160 584.39,160 586.504,160 588.618,159.018 590.732,144.294 592.846,159.018 594.959,160 597.073,139.387 599.187,121.718 601.301,120.736 603.415,147.73 605.528,146.258 607.642,157.055 609.756,160 611.87,160 613.984,160 616.098,160 618.211,160 620.325,160 622.439,160 624.553,160 626.667,157.546 628.78,153.62 630.894,148.712 633.008,160 635.122,149.202 637.236,149.693 639.35,134.969 641.463,146.258 643.577,145.767 645.691,146.258 647.805,150.184 649.919,154.11 652.033,154.601 654.146,154.11 656.26,157.055 658.374,156.564 660.488,159.509 662.602,160 664.715,160 666.829,160 668.943,160 671.057,160 673.171,160 675.285,160 677.398,160 679.512,158.528 681.626,159.509 683.74,160 685.854,160 687.967,159.509 690.081,142.331 692.195,144.785 694.309,157.055 696.423,158.528 698.537,160 700.65,160 702.764,159.509 704.878,160 706.992,160 709.106,159.018 711.22,153.62 713.333,159.018 715.447,160 717.561,160 719.675,149.693 721.789,155.583 723.902,158.528 726.016,156.074 728.13,155.583 730.244,159.509 732.358,159.509 734.472,160 736.585,160 738.699,151.656 740.813,140.859 742.927,155.092 745.041,160 747.154,141.84 749.268,150.184 751.382,152.147 753.496,160 755.61,160 757.724,160 759.837,160 761.951,160 764.065,160 766.179,160 768.293,160 770.407,160 772.52,160 774.634,160 776.748,160 778.862,158.037 780.976,160 783.089,160 785.203,160 787.317,160 789.431,160 791.545,160 793.659,160 795.772,160 797.886,160 800,160" fill="none" stroke="var(--accent)" stroke-width="1.5" stroke-linecap="round" stroke-linejoin="round"/>
</svg>

