<svg xmlns="http://www.w3.org/2000/svg" width="820" height="180" viewBox="0 0 820 180">

<style>
  :root {
    --bg:        #f6f8fa;
    --card:      #ffffff;
    --border:    #d0d7de;
    --primary:   #1f2328;
    --secondary: #636c76;
    --muted:     #8c959f;
    --accent:    #0969da;
    --green:     #1a7f37;
    --yellow:    #9a6700;
    --red:       #cf222e;
    --hover:     #f3f4f6;
    --spark-bg:  #f0f3f6;
    --spark:     #0969da;
    --pill:      #eaf1fb;
    --pill-txt:  #0969da;
    --div:       #d0d7de;
  }
  @media (prefers-color-scheme: dark) {
    :root {
      --bg:        #0d1117;
      --card:      #161b22;
      --border:    #30363d;
      --primary:   #e6edf3;
      --secondary: #848d97;
      --muted:     #7d8590;
      --accent:    #2f81f7;
      --green:     #3fb950;
      --yellow:    #d29922;
      --red:       #f85149;
      --hover:     #21262d;
      --spark-bg:  #1c2128;
      --spark:     #58a6ff;
      --pill:      #1c2d3f;
      --pill-txt:  #58a6ff;
      --div:       #30363d;
    }
  }
  
  .bg          { fill: var(--bg); }
  .card        { fill: var(--card); stroke: var(--border); stroke-width: 1; }
  .lang-pill   { fill: var(--pill); }
  .spark-bg    { fill: var(--spark-bg); }
  .spark-line  { stroke: var(--spark); }
  .divider     { stroke: var(--div); stroke-width: 1; }
  .clr-primary   { fill: var(--primary); }
  .clr-secondary { fill: var(--secondary); }
  .clr-muted     { fill: var(--muted); }
  .clr-accent    { fill: var(--accent); }
  .clr-green     { fill: var(--green); }
  .clr-yellow    { fill: var(--yellow); }
  .clr-red       { fill: var(--red); }
  .txt-bold    { font-weight: 600; }
  svg text     { font-family: -apple-system, BlinkMacSystemFont, "Segoe UI", Helvetica, Arial, sans-serif; }
</style>

<rect x="0" y="0" width="820" height="180" rx="8" class="card"/>
  <text x="20" y="24" class="clr-primary txt-bold" text-anchor="start" font-size="14">Contribution History &amp; Activity</text>
  <line x1="20" y1="36" x2="800" y2="36" class="divider"/>
  <text x="20" y="60" class="clr-muted" text-anchor="start" font-size="12">Years Active:</text>
  <text x="100" y="60" class="clr-primary txt-bold" text-anchor="start" font-size="12">5.6</text>
  <text x="160" y="60" class="clr-muted" text-anchor="start" font-size="12">Commits (Last Year):</text>
  <text x="290" y="60" class="clr-primary txt-bold" text-anchor="start" font-size="12">1101</text>
  <text x="360" y="60" class="clr-muted" text-anchor="start" font-size="12">Highest Daily:</text>
  <text x="450" y="60" class="clr-primary txt-bold" text-anchor="start" font-size="12">163</text>
  <polygon points="20,160 20,160 22.1138,160 24.2276,160 26.3415,160 28.4553,160 30.5691,160 32.6829,153.62 34.7967,160 36.9106,160 39.0244,160 41.1382,154.11 43.252,157.055 45.3659,160 47.4797,160 49.5935,160 51.7073,160 53.8211,160 55.935,160 58.0488,159.018 60.1626,160 62.2764,160 64.3902,160 66.5041,160 68.6179,160 70.7317,160 72.8455,160 74.9593,160 77.0732,160 79.187,160 81.3008,160 83.4146,160 85.5285,160 87.6423,160 89.7561,160 91.8699,160 93.9837,160 96.0976,160 98.2114,160 100.325,160 102.439,160 104.553,160 106.667,160 108.78,160 110.894,160 113.008,160 115.122,160 117.236,160 119.35,160 121.463,160 123.577,160 125.691,160 127.805,160 129.919,160 132.033,159.509 134.146,160 136.26,160 138.374,160 140.488,160 142.602,160 144.715,160 146.829,160 148.943,160 151.057,160 153.171,160 155.285,160 157.398,160 159.512,160 161.626,160 163.74,160 165.854,160 167.967,160 170.081,160 172.195,160 174.309,160 176.423,160 178.537,160 180.65,160 182.764,160 184.878,160 186.992,159.018 189.106,160 191.22,160 193.333,160 195.447,145.276 197.561,155.583 199.675,157.546 201.789,155.583 203.902,157.055 206.016,156.074 208.13,160 210.244,160 212.358,160 214.472,158.037 216.585,159.018 218.699,158.037 220.813,156.564 222.927,160 225.041,158.528 227.154,156.564 229.268,160 231.382,154.11 233.496,149.202 235.61,149.202 237.724,153.62 239.837,141.84 241.951,154.601 244.065,160 246.179,154.601 248.293,160 250.407,160 252.52,157.546 254.634,148.221 256.748,159.018 258.862,160 260.976,158.037 263.089,160 265.203,159.509 267.317,160 269.431,160 271.545,160 273.659,160 275.772,151.656 277.886,155.583 280,156.074 282.114,157.546 284.228,150.675 286.341,160 288.455,158.037 290.569,156.564 292.683,158.037 294.797,156.074 296.911,160 299.024,154.11 301.138,160 303.252,159.509 305.366,160 307.48,160 309.593,157.546 311.707,160 313.821,160 315.935,160 318.049,160 320.163,160 322.276,160 324.39,160 326.504,160 328.618,160 330.732,160 332.846,160 334.959,160 337.073,160 339.187,160 341.301,160 343.415,160 345.528,154.601 347.642,158.037 349.756,160 351.87,160 353.984,160 356.098,160 358.211,160 360.325,160 362.439,160 364.553,160 366.667,160 368.78,160 370.894,160 373.008,160 375.122,160 377.236,160 379.35,160 381.463,160 383.577,160 385.691,160 387.805,160 389.919,160 392.033,160 394.146,157.055 396.26,160 398.374,160 400.488,160 402.602,160 404.715,155.092 406.829,160 408.943,160 411.057,160 413.171,160 415.285,137.423 417.398,153.62 419.512,80 421.626,155.092 423.74,149.202 425.854,155.092 427.967,158.037 430.081,158.528 432.195,159.509 434.309,156.074 436.423,160 438.537,159.018 440.65,160 442.764,159.509 444.878,159.018 446.992,159.509 449.106,160 451.22,158.528 453.333,160 455.447,159.018 457.561,159.018 459.675,157.546 461.789,157.055 463.902,160 466.016,160 468.13,159.509 470.244,159.509 472.358,158.528 474.472,159.509 476.585,157.055 478.699,157.055 480.813,159.018 482.927,158.528 485.041,147.239 487.154,157.055 489.268,129.08 491.382,147.239 493.496,153.129 495.61,160 497.724,160 499.837,160 501.951,151.656 504.065,158.528 506.179,160 508.293,160 510.407,138.405 512.52,158.528 514.634,160 516.748,160 518.862,160 520.976,160 523.089,160 525.203,160 527.317,160 529.431,160 531.545,160 533.659,160 535.772,160 537.886,160 540,160 542.114,160 544.228,160 546.341,159.509 548.455,160 550.569,160 552.683,160 554.797,160 556.911,160 559.024,160 561.138,160 563.252,160 565.366,160 567.48,159.509 569.593,158.037 571.707,160 573.821,160 575.935,160 578.049,160 580.163,160 582.276,160 584.39,160 586.504,160 588.618,160 590.732,160 592.846,160 594.959,159.509 597.073,158.037 599.187,157.055 601.301,160 603.415,160 605.528,160 607.642,156.564 609.756,157.546 611.87,147.239 613.984,160 616.098,160 618.211,160 620.325,155.092 622.439,148.221 624.553,160 626.667,160 628.78,158.037 630.894,160 633.008,158.037 635.122,160 637.236,160 639.35,160 641.463,160 643.577,160 645.691,160 647.805,159.018 649.919,144.294 652.033,159.018 654.146,160 656.26,139.387 658.374,121.718 660.488,120.736 662.602,147.73 664.715,146.258 666.829,157.055 668.943,160 671.057,160 673.171,160 675.285,160 677.398,160 679.512,160 681.626,160 683.74,160 685.854,157.546 687.967,153.62 690.081,148.712 692.195,160 694.309,149.202 696.423,149.693 698.537,134.969 700.65,146.258 702.764,145.767 704.878,146.258 706.992,150.184 709.106,154.11 711.22,154.601 713.333,154.11 715.447,157.055 717.561,156.564 719.675,159.509 721.789,160 723.902,160 726.016,160 728.13,160 730.244,160 732.358,160 734.472,160 736.585,160 738.699,158.528 740.813,159.509 742.927,160 745.041,160 747.154,159.509 749.268,142.331 751.382,144.785 753.496,157.055 755.61,158.528 757.724,160 759.837,160 761.951,159.509 764.065,160 766.179,160 768.293,159.018 770.407,153.62 772.52,159.018 774.634,160 776.748,160 778.862,149.693 780.976,155.583 783.089,158.528 785.203,156.074 787.317,155.583 789.431,159.509 791.545,159.509 793.659,160 795.772,160 797.886,151.656 800,150.184 800,160" fill="var(--pill)" opacity="0.6"/>
  <polyline points="20,160 22.1138,160 24.2276,160 26.3415,160 28.4553,160 30.5691,160 32.6829,153.62 34.7967,160 36.9106,160 39.0244,160 41.1382,154.11 43.252,157.055 45.3659,160 47.4797,160 49.5935,160 51.7073,160 53.8211,160 55.935,160 58.0488,159.018 60.1626,160 62.2764,160 64.3902,160 66.5041,160 68.6179,160 70.7317,160 72.8455,160 74.9593,160 77.0732,160 79.187,160 81.3008,160 83.4146,160 85.5285,160 87.6423,160 89.7561,160 91.8699,160 93.9837,160 96.0976,160 98.2114,160 100.325,160 102.439,160 104.553,160 106.667,160 108.78,160 110.894,160 113.008,160 115.122,160 117.236,160 119.35,160 121.463,160 123.577,160 125.691,160 127.805,160 129.919,160 132.033,159.509 134.146,160 136.26,160 138.374,160 140.488,160 142.602,160 144.715,160 146.829,160 148.943,160 151.057,160 153.171,160 155.285,160 157.398,160 159.512,160 161.626,160 163.74,160 165.854,160 167.967,160 170.081,160 172.195,160 174.309,160 176.423,160 178.537,160 180.65,160 182.764,160 184.878,160 186.992,159.018 189.106,160 191.22,160 193.333,160 195.447,145.276 197.561,155.583 199.675,157.546 201.789,155.583 203.902,157.055 206.016,156.074 208.13,160 210.244,160 212.358,160 214.472,158.037 216.585,159.018 218.699,158.037 220.813,156.564 222.927,160 225.041,158.528 227.154,156.564 229.268,160 231.382,154.11 233.496,149.202 235.61,149.202 237.724,153.62 239.837,141.84 241.951,154.601 244.065,160 246.179,154.601 248.293,160 250.407,160 252.52,157.546 254.634,148.221 256.748,159.018 258.862,160 260.976,158.037 263.089,160 265.203,159.509 267.317,160 269.431,160 271.545,160 273.659,160 275.772,151.656 277.886,155.583 280,156.074 282.114,157.546 284.228,150.675 286.341,160 288.455,158.037 290.569,156.564 292.683,158.037 294.797,156.074 296.911,160 299.024,154.11 301.138,160 303.252,159.509 305.366,160 307.48,160 309.593,157.546 311.707,160 313.821,160 315.935,160 318.049,160 320.163,160 322.276,160 324.39,160 326.504,160 328.618,160 330.732,160 332.846,160 334.959,160 337.073,160 339.187,160 341.301,160 343.415,160 345.528,154.601 347.642,158.037 349.756,160 351.87,160 353.984,160 356.098,160 358.211,160 360.325,160 362.439,160 364.553,160 366.667,160 368.78,160 370.894,160 373.008,160 375.122,160 377.236,160 379.35,160 381.463,160 383.577,160 385.691,160 387.805,160 389.919,160 392.033,160 394.146,157.055 396.26,160 398.374,160 400.488,160 402.602,160 404.715,155.092 406.829,160 408.943,160 411.057,160 413.171,160 415.285,137.423 417.398,153.62 419.512,80 421.626,155.092 423.74,149.202 425.854,155.092 427.967,158.037 430.081,158.528 432.195,159.509 434.309,156.074 436.423,160 438.537,159.018 440.65,160 442.764,159.509 444.878,159.018 446.992,159.509 449.106,160 451.22,158.528 453.333,160 455.447,159.018 457.561,159.018 459.675,157.546 461.789,157.055 463.902,160 466.016,160 468.13,159.509 470.244,159.509 472.358,158.528 474.472,159.509 476.585,157.055 478.699,157.055 480.813,159.018 482.927,158.528 485.041,147.239 487.154,157.055 489.268,129.08 491.382,147.239 493.496,153.129 495.61,160 497.724,160 499.837,160 501.951,151.656 504.065,158.528 506.179,160 508.293,160 510.407,138.405 512.52,158.528 514.634,160 516.748,160 518.862,160 520.976,160 523.089,160 525.203,160 527.317,160 529.431,160 531.545,160 533.659,160 535.772,160 537.886,160 540,160 542.114,160 544.228,160 546.341,159.509 548.455,160 550.569,160 552.683,160 554.797,160 556.911,160 559.024,160 561.138,160 563.252,160 565.366,160 567.48,159.509 569.593,158.037 571.707,160 573.821,160 575.935,160 578.049,160 580.163,160 582.276,160 584.39,160 586.504,160 588.618,160 590.732,160 592.846,160 594.959,159.509 597.073,158.037 599.187,157.055 601.301,160 603.415,160 605.528,160 607.642,156.564 609.756,157.546 611.87,147.239 613.984,160 616.098,160 618.211,160 620.325,155.092 622.439,148.221 624.553,160 626.667,160 628.78,158.037 630.894,160 633.008,158.037 635.122,160 637.236,160 639.35,160 641.463,160 643.577,160 645.691,160 647.805,159.018 649.919,144.294 652.033,159.018 654.146,160 656.26,139.387 658.374,121.718 660.488,120.736 662.602,147.73 664.715,146.258 666.829,157.055 668.943,160 671.057,160 673.171,160 675.285,160 677.398,160 679.512,160 681.626,160 683.74,160 685.854,157.546 687.967,153.62 690.081,148.712 692.195,160 694.309,149.202 696.423,149.693 698.537,134.969 700.65,146.258 702.764,145.767 704.878,146.258 706.992,150.184 709.106,154.11 711.22,154.601 713.333,154.11 715.447,157.055 717.561,156.564 719.675,159.509 721.789,160 723.902,160 726.016,160 728.13,160 730.244,160 732.358,160 734.472,160 736.585,160 738.699,158.528 740.813,159.509 742.927,160 745.041,160 747.154,159.509 749.268,142.331 751.382,144.785 753.496,157.055 755.61,158.528 757.724,160 759.837,160 761.951,159.509 764.065,160 766.179,160 768.293,159.018 770.407,153.62 772.52,159.018 774.634,160 776.748,160 778.862,149.693 780.976,155.583 783.089,158.528 785.203,156.074 787.317,155.583 789.431,159.509 791.545,159.509 793.659,160 795.772,160 797.886,151.656 800,150.184" fill="none" stroke="var(--accent)" stroke-width="1.5" stroke-linecap="round" stroke-linejoin="round"/>
</svg>

