<svg xmlns="http://www.w3.org/2000/svg" width="820" height="180" viewBox="0 0 820 180">

<style>
  :root {
    --bg:        #f6f8fa;
    --card:      #ffffff;
    --border:    #d0d7de;
    --primary:   #1f2328;
    --secondary: #636c76;
    --muted:     #8c959f;
    --accent:    #0969da;
    --green:     #1a7f37;
    --yellow:    #9a6700;
    --red:       #cf222e;
    --hover:     #f3f4f6;
    --spark-bg:  #f0f3f6;
    --spark:     #0969da;
    --pill:      #eaf1fb;
    --pill-txt:  #0969da;
    --div:       #d0d7de;
  }
  @media (prefers-color-scheme: dark) {
    :root {
      --bg:        #0d1117;
      --card:      #161b22;
      --border:    #30363d;
      --primary:   #e6edf3;
      --secondary: #848d97;
      --muted:     #7d8590;
      --accent:    #2f81f7;
      --green:     #3fb950;
      --yellow:    #d29922;
      --red:       #f85149;
      --hover:     #21262d;
      --spark-bg:  #1c2128;
      --spark:     #58a6ff;
      --pill:      #1c2d3f;
      --pill-txt:  #58a6ff;
      --div:       #30363d;
    }
  }
  
  .bg          { fill: var(--bg); }
  .card        { fill: var(--card); stroke: var(--border); stroke-width: 1; }
  .lang-pill   { fill: var(--pill); }
  .spark-bg    { fill: var(--spark-bg); }
  .spark-line  { stroke: var(--spark); }
  .divider     { stroke: var(--div); stroke-width: 1; }
  .clr-primary   { fill: var(--primary); }
  .clr-secondary { fill: var(--secondary); }
  .clr-muted     { fill: var(--muted); }
  .clr-accent    { fill: var(--accent); }
  .clr-green     { fill: var(--green); }
  .clr-yellow    { fill: var(--yellow); }
  .clr-red       { fill: var(--red); }
  .txt-bold    { font-weight: 600; }
  svg text     { font-family: -apple-system, BlinkMacSystemFont, "Segoe UI", Helvetica, Arial, sans-serif; }
</style>

<rect x="0" y="0" width="820" height="180" rx="8" class="card"/>
  <text x="20" y="24" class="clr-primary txt-bold" text-anchor="start" font-size="14">Contribution History &amp; Activity</text>
  <line x1="20" y1="36" x2="800" y2="36" class="divider"/>
  <text x="20" y="60" class="clr-muted" text-anchor="start" font-size="12">Years Active:</text>
  <text x="100" y="60" class="clr-primary txt-bold" text-anchor="start" font-size="12">5.8</text>
  <text x="160" y="60" class="clr-muted" text-anchor="start" font-size="12">Commits (Last Year):</text>
  <text x="290" y="60" class="clr-primary txt-bold" text-anchor="start" font-size="12">1229</text>
  <text x="360" y="60" class="clr-muted" text-anchor="start" font-size="12">Highest Daily:</text>
  <text x="450" y="60" class="clr-primary txt-bold" text-anchor="start" font-size="12">163</text>
  <polygon points="20,160 20,160 22.1429,160 24.2857,160 26.4286,160 28.5714,160 30.7143,160 32.8571,160 35,160 37.1429,160 39.2857,159.018 41.4286,160 43.5714,160 45.7143,160 47.8571,145.276 50,155.583 52.1429,157.546 54.2857,155.583 56.4286,157.055 58.5714,156.074 60.7143,160 62.8571,160 65,160 67.1429,158.037 69.2857,159.018 71.4286,158.037 73.5714,156.564 75.7143,160 77.8571,158.528 80,156.564 82.1429,160 84.2857,154.11 86.4286,149.202 88.5714,149.202 90.7143,153.62 92.8571,141.84 95,154.601 97.1429,160 99.2857,154.601 101.429,160 103.571,160 105.714,157.546 107.857,148.221 110,159.018 112.143,160 114.286,158.037 116.429,160 118.571,159.509 120.714,160 122.857,160 125,160 127.143,160 129.286,151.656 131.429,155.583 133.571,156.074 135.714,157.546 137.857,150.675 140,160 142.143,158.037 144.286,156.564 146.429,158.037 148.571,156.074 150.714,160 152.857,154.11 155,160 157.143,159.509 159.286,160 161.429,160 163.571,157.546 165.714,160 167.857,160 170,160 172.143,160 174.286,160 176.429,160 178.571,160 180.714,160 182.857,160 185,160 187.143,160 189.286,160 191.429,160 193.571,160 195.714,160 197.857,160 200,154.601 202.143,158.037 204.286,160 206.429,160 208.571,160 210.714,160 212.857,160 215,160 217.143,160 219.286,160 221.429,160 223.571,160 225.714,160 227.857,160 230,160 232.143,160 234.286,160 236.429,160 238.571,160 240.714,160 242.857,160 245,160 247.143,160 249.286,157.055 251.429,160 253.571,160 255.714,160 257.857,160 260,155.092 262.143,160 264.286,160 266.429,160 268.571,160 270.714,137.423 272.857,153.62 275,80 277.143,155.092 279.286,149.202 281.429,155.092 283.571,158.037 285.714,158.528 287.857,159.509 290,156.074 292.143,160 294.286,159.018 296.429,160 298.571,159.509 300.714,159.018 302.857,159.509 305,160 307.143,158.528 309.286,160 311.429,159.018 313.571,159.018 315.714,157.546 317.857,157.055 320,160 322.143,160 324.286,159.509 326.429,159.509 328.571,158.528 330.714,159.509 332.857,157.055 335,157.055 337.143,159.018 339.286,158.528 341.429,147.239 343.571,157.055 345.714,129.08 347.857,147.239 350,153.129 352.143,160 354.286,160 356.429,160 358.571,151.656 360.714,158.528 362.857,160 365,160 367.143,138.405 369.286,158.528 371.429,160 373.571,160 375.714,160 377.857,160 380,160 382.143,160 384.286,160 386.429,160 388.571,160 390.714,160 392.857,160 395,160 397.143,160 399.286,160 401.429,160 403.571,159.509 405.714,160 407.857,160 410,160 412.143,160 414.286,160 416.429,160 418.571,160 420.714,160 422.857,160 425,159.509 427.143,158.037 429.286,160 431.429,160 433.571,160 435.714,160 437.857,160 440,160 442.143,160 444.286,160 446.429,160 448.571,160 450.714,160 452.857,159.509 455,158.037 457.143,157.055 459.286,160 461.429,160 463.571,160 465.714,156.564 467.857,157.546 470,147.239 472.143,160 474.286,160 476.429,160 478.571,155.092 480.714,148.221 482.857,160 485,160 487.143,158.037 489.286,160 491.429,158.037 493.571,160 495.714,160 497.857,160 500,160 502.143,160 504.286,160 506.429,159.018 508.571,144.294 510.714,159.018 512.857,160 515,139.387 517.143,121.718 519.286,120.736 521.429,147.73 523.571,146.258 525.714,157.055 527.857,160 530,160 532.143,160 534.286,160 536.429,160 538.571,160 540.714,160 542.857,160 545,157.546 547.143,153.62 549.286,148.712 551.429,160 553.571,149.202 555.714,149.693 557.857,134.969 560,146.258 562.143,145.767 564.286,146.258 566.429,150.184 568.571,154.11 570.714,154.601 572.857,154.11 575,157.055 577.143,156.564 579.286,159.509 581.429,160 583.571,160 585.714,160 587.857,160 590,160 592.143,160 594.286,160 596.429,160 598.571,158.528 600.714,159.509 602.857,160 605,160 607.143,159.509 609.286,142.331 611.429,144.785 613.571,157.055 615.714,158.528 617.857,160 620,160 622.143,159.509 624.286,160 626.429,160 628.571,159.018 630.714,153.62 632.857,159.018 635,160 637.143,160 639.286,149.693 641.429,155.583 643.571,158.528 645.714,156.074 647.857,155.583 650,159.509 652.143,159.509 654.286,160 656.429,160 658.571,151.656 660.714,140.859 662.857,155.092 665,160 667.143,141.84 669.286,150.184 671.429,152.147 673.571,160 675.714,160 677.857,160 680,160 682.143,160 684.286,160 686.429,160 688.571,160 690.714,160 692.857,160 695,160 697.143,160 699.286,158.037 701.429,160 703.571,160 705.714,160 707.857,160 710,160 712.143,160 714.286,160 716.429,160 718.571,160 720.714,160 722.857,160 725,160 727.143,160 729.286,160 731.429,156.564 733.571,154.601 735.714,160 737.857,160 740,160 742.143,160 744.286,159.509 746.429,160 748.571,160 750.714,159.509 752.857,159.509 755,160 757.143,159.509 759.286,160 761.429,160 763.571,156.074 765.714,159.509 767.857,159.509 770,160 772.143,158.037 774.286,160 776.429,160 778.571,160 780.714,160 782.857,160 785,160 787.143,160 789.286,150.184 791.429,158.528 793.571,159.509 795.714,159.018 797.857,160 800,160 800,160" fill="var(--pill)" opacity="0.6"/>
  <polyline points="20,160 22.1429,160 24.2857,160 26.4286,160 28.5714,160 30.7143,160 32.8571,160 35,160 37.1429,160 39.2857,159.018 41.4286,160 43.5714,160 45.7143,160 47.8571,145.276 50,155.583 52.1429,157.546 54.2857,155.583 56.4286,157.055 58.5714,156.074 60.7143,160 62.8571,160 65,160 67.1429,158.037 69.2857,159.018 71.4286,158.037 73.5714,156.564 75.7143,160 77.8571,158.528 80,156.564 82.1429,160 84.2857,154.11 86.4286,149.202 88.5714,149.202 90.7143,153.62 92.8571,141.84 95,154.601 97.1429,160 99.2857,154.601 101.429,160 103.571,160 105.714,157.546 107.857,148.221 110,159.018 112.143,160 114.286,158.037 116.429,160 118.571,159.509 120.714,160 122.857,160 125,160 127.143,160 129.286,151.656 131.429,155.583 133.571,156.074 135.714,157.546 137.857,150.675 140,160 142.143,158.037 144.286,156.564 146.429,158.037 148.571,156.074 150.714,160 152.857,154.11 155,160 157.143,159.509 159.286,160 161.429,160 163.571,157.546 165.714,160 167.857,160 170,160 172.143,160 174.286,160 176.429,160 178.571,160 180.714,160 182.857,160 185,160 187.143,160 189.286,160 191.429,160 193.571,160 195.714,160 197.857,160 200,154.601 202.143,158.037 204.286,160 206.429,160 208.571,160 210.714,160 212.857,160 215,160 217.143,160 219.286,160 221.429,160 223.571,160 225.714,160 227.857,160 230,160 232.143,160 234.286,160 236.429,160 238.571,160 240.714,160 242.857,160 245,160 247.143,160 249.286,157.055 251.429,160 253.571,160 255.714,160 257.857,160 260,155.092 262.143,160 264.286,160 266.429,160 268.571,160 270.714,137.423 272.857,153.62 275,80 277.143,155.092 279.286,149.202 281.429,155.092 283.571,158.037 285.714,158.528 287.857,159.509 290,156.074 292.143,160 294.286,159.018 296.429,160 298.571,159.509 300.714,159.018 302.857,159.509 305,160 307.143,158.528 309.286,160 311.429,159.018 313.571,159.018 315.714,157.546 317.857,157.055 320,160 322.143,160 324.286,159.509 326.429,159.509 328.571,158.528 330.714,159.509 332.857,157.055 335,157.055 337.143,159.018 339.286,158.528 341.429,147.239 343.571,157.055 345.714,129.08 347.857,147.239 350,153.129 352.143,160 354.286,160 356.429,160 358.571,151.656 360.714,158.528 362.857,160 365,160 367.143,138.405 369.286,158.528 371.429,160 373.571,160 375.714,160 377.857,160 380,160 382.143,160 384.286,160 386.429,160 388.571,160 390.714,160 392.857,160 395,160 397.143,160 399.286,160 401.429,160 403.571,159.509 405.714,160 407.857,160 410,160 412.143,160 414.286,160 416.429,160 418.571,160 420.714,160 422.857,160 425,159.509 427.143,158.037 429.286,160 431.429,160 433.571,160 435.714,160 437.857,160 440,160 442.143,160 444.286,160 446.429,160 448.571,160 450.714,160 452.857,159.509 455,158.037 457.143,157.055 459.286,160 461.429,160 463.571,160 465.714,156.564 467.857,157.546 470,147.239 472.143,160 474.286,160 476.429,160 478.571,155.092 480.714,148.221 482.857,160 485,160 487.143,158.037 489.286,160 491.429,158.037 493.571,160 495.714,160 497.857,160 500,160 502.143,160 504.286,160 506.429,159.018 508.571,144.294 510.714,159.018 512.857,160 515,139.387 517.143,121.718 519.286,120.736 521.429,147.73 523.571,146.258 525.714,157.055 527.857,160 530,160 532.143,160 534.286,160 536.429,160 538.571,160 540.714,160 542.857,160 545,157.546 547.143,153.62 549.286,148.712 551.429,160 553.571,149.202 555.714,149.693 557.857,134.969 560,146.258 562.143,145.767 564.286,146.258 566.429,150.184 568.571,154.11 570.714,154.601 572.857,154.11 575,157.055 577.143,156.564 579.286,159.509 581.429,160 583.571,160 585.714,160 587.857,160 590,160 592.143,160 594.286,160 596.429,160 598.571,158.528 600.714,159.509 602.857,160 605,160 607.143,159.509 609.286,142.331 611.429,144.785 613.571,157.055 615.714,158.528 617.857,160 620,160 622.143,159.509 624.286,160 626.429,160 628.571,159.018 630.714,153.62 632.857,159.018 635,160 637.143,160 639.286,149.693 641.429,155.583 643.571,158.528 645.714,156.074 647.857,155.583 650,159.509 652.143,159.509 654.286,160 656.429,160 658.571,151.656 660.714,140.859 662.857,155.092 665,160 667.143,141.84 669.286,150.184 671.429,152.147 673.571,160 675.714,160 677.857,160 680,160 682.143,160 684.286,160 686.429,160 688.571,160 690.714,160 692.857,160 695,160 697.143,160 699.286,158.037 701.429,160 703.571,160 705.714,160 707.857,160 710,160 712.143,160 714.286,160 716.429,160 718.571,160 720.714,160 722.857,160 725,160 727.143,160 729.286,160 731.429,156.564 733.571,154.601 735.714,160 737.857,160 740,160 742.143,160 744.286,159.509 746.429,160 748.571,160 750.714,159.509 752.857,159.509 755,160 757.143,159.509 759.286,160 761.429,160 763.571,156.074 765.714,159.509 767.857,159.509 770,160 772.143,158.037 774.286,160 776.429,160 778.571,160 780.714,160 782.857,160 785,160 787.143,160 789.286,150.184 791.429,158.528 793.571,159.509 795.714,159.018 797.857,160 800,160" fill="none" stroke="var(--accent)" stroke-width="1.5" stroke-linecap="round" stroke-linejoin="round"/>
</svg>

