<svg xmlns="http://www.w3.org/2000/svg" width="820" height="180" viewBox="0 0 820 180">

<style>
  :root {
    --bg:        #f6f8fa;
    --card:      #ffffff;
    --border:    #d0d7de;
    --primary:   #1f2328;
    --secondary: #636c76;
    --muted:     #8c959f;
    --accent:    #0969da;
    --green:     #1a7f37;
    --yellow:    #9a6700;
    --red:       #cf222e;
    --hover:     #f3f4f6;
    --spark-bg:  #f0f3f6;
    --spark:     #0969da;
    --pill:      #eaf1fb;
    --pill-txt:  #0969da;
    --div:       #d0d7de;
  }
  @media (prefers-color-scheme: dark) {
    :root {
      --bg:        #0d1117;
      --card:      #161b22;
      --border:    #30363d;
      --primary:   #e6edf3;
      --secondary: #848d97;
      --muted:     #7d8590;
      --accent:    #2f81f7;
      --green:     #3fb950;
      --yellow:    #d29922;
      --red:       #f85149;
      --hover:     #21262d;
      --spark-bg:  #1c2128;
      --spark:     #58a6ff;
      --pill:      #1c2d3f;
      --pill-txt:  #58a6ff;
      --div:       #30363d;
    }
  }
  
  .bg          { fill: var(--bg); }
  .card        { fill: var(--card); stroke: var(--border); stroke-width: 1; }
  .lang-pill   { fill: var(--pill); }
  .spark-bg    { fill: var(--spark-bg); }
  .spark-line  { stroke: var(--spark); }
  .divider     { stroke: var(--div); stroke-width: 1; }
  .clr-primary   { fill: var(--primary); }
  .clr-secondary { fill: var(--secondary); }
  .clr-muted     { fill: var(--muted); }
  .clr-accent    { fill: var(--accent); }
  .clr-green     { fill: var(--green); }
  .clr-yellow    { fill: var(--yellow); }
  .clr-red       { fill: var(--red); }
  .txt-bold    { font-weight: 600; }
  svg text     { font-family: -apple-system, BlinkMacSystemFont, "Segoe UI", Helvetica, Arial, sans-serif; }
</style>

<rect x="0" y="0" width="820" height="180" rx="8" class="card"/>
  <text x="20" y="24" class="clr-primary txt-bold" text-anchor="start" font-size="14">Contribution History &amp; Activity</text>
  <line x1="20" y1="36" x2="800" y2="36" class="divider"/>
  <text x="20" y="60" class="clr-muted" text-anchor="start" font-size="12">Years Active:</text>
  <text x="100" y="60" class="clr-primary txt-bold" text-anchor="start" font-size="12">5.6</text>
  <text x="160" y="60" class="clr-muted" text-anchor="start" font-size="12">Commits (Last Year):</text>
  <text x="290" y="60" class="clr-primary txt-bold" text-anchor="start" font-size="12">1053</text>
  <text x="360" y="60" class="clr-muted" text-anchor="start" font-size="12">Highest Daily:</text>
  <text x="450" y="60" class="clr-primary txt-bold" text-anchor="start" font-size="12">163</text>
  <polygon points="20,160 20,160 22.1196,157.055 24.2391,158.037 26.3587,160 28.4783,160 30.5978,160 32.7174,160 34.837,160 36.9565,160 39.0761,160 41.1957,160 43.3152,160 45.4348,160 47.5543,153.62 49.6739,160 51.7935,160 53.913,160 56.0326,154.11 58.1522,157.055 60.2717,160 62.3913,160 64.5109,160 66.6304,160 68.75,160 70.8696,160 72.9891,159.018 75.1087,160 77.2283,160 79.3478,160 81.4674,160 83.587,160 85.7065,160 87.8261,160 89.9457,160 92.0652,160 94.1848,160 96.3043,160 98.4239,160 100.543,160 102.663,160 104.783,160 106.902,160 109.022,160 111.141,160 113.261,160 115.38,160 117.5,160 119.62,160 121.739,160 123.859,160 125.978,160 128.098,160 130.217,160 132.337,160 134.457,160 136.576,160 138.696,160 140.815,160 142.935,160 145.054,160 147.174,159.509 149.293,160 151.413,160 153.533,160 155.652,160 157.772,160 159.891,160 162.011,160 164.13,160 166.25,160 168.37,160 170.489,160 172.609,160 174.728,160 176.848,160 178.967,160 181.087,160 183.207,160 185.326,160 187.446,160 189.565,160 191.685,160 193.804,160 195.924,160 198.043,160 200.163,160 202.283,159.018 204.402,160 206.522,160 208.641,160 210.761,145.276 212.88,155.583 215,157.546 217.12,155.583 219.239,157.055 221.359,156.074 223.478,160 225.598,160 227.717,160 229.837,158.037 231.957,159.018 234.076,158.037 236.196,156.564 238.315,160 240.435,158.528 242.554,156.564 244.674,160 246.793,154.11 248.913,149.202 251.033,149.202 253.152,153.62 255.272,141.84 257.391,154.601 259.511,160 261.63,154.601 263.75,160 265.87,160 267.989,157.546 270.109,148.221 272.228,159.018 274.348,160 276.467,158.037 278.587,160 280.707,159.509 282.826,160 284.946,160 287.065,160 289.185,160 291.304,151.656 293.424,155.583 295.543,156.074 297.663,157.546 299.783,150.675 301.902,160 304.022,158.037 306.141,156.564 308.261,158.037 310.38,156.074 312.5,160 314.62,154.11 316.739,160 318.859,159.509 320.978,160 323.098,160 325.217,157.546 327.337,160 329.457,160 331.576,160 333.696,160 335.815,160 337.935,160 340.054,160 342.174,160 344.293,160 346.413,160 348.533,160 350.652,160 352.772,160 354.891,160 357.011,160 359.13,160 361.25,154.601 363.37,158.037 365.489,160 367.609,160 369.728,160 371.848,160 373.967,160 376.087,160 378.207,160 380.326,160 382.446,160 384.565,160 386.685,160 388.804,160 390.924,160 393.043,160 395.163,160 397.283,160 399.402,160 401.522,160 403.641,160 405.761,160 407.88,160 410,157.055 412.12,160 414.239,160 416.359,160 418.478,160 420.598,155.092 422.717,160 424.837,160 426.957,160 429.076,160 431.196,137.423 433.315,153.62 435.435,80 437.554,155.092 439.674,149.202 441.793,155.092 443.913,158.037 446.033,158.528 448.152,159.509 450.272,156.074 452.391,160 454.511,159.018 456.63,160 458.75,159.509 460.87,159.018 462.989,159.509 465.109,160 467.228,158.528 469.348,160 471.467,159.018 473.587,159.018 475.707,157.546 477.826,157.055 479.946,160 482.065,160 484.185,159.509 486.304,159.509 488.424,158.528 490.543,159.509 492.663,157.055 494.783,157.055 496.902,159.018 499.022,158.528 501.141,147.239 503.261,157.055 505.38,129.08 507.5,147.239 509.62,153.129 511.739,160 513.859,160 515.978,160 518.098,151.656 520.217,158.528 522.337,160 524.457,160 526.576,138.405 528.696,158.528 530.815,160 532.935,160 535.054,160 537.174,160 539.293,160 541.413,160 543.533,160 545.652,160 547.772,160 549.891,160 552.011,160 554.13,160 556.25,160 558.37,160 560.489,160 562.609,159.509 564.728,160 566.848,160 568.967,160 571.087,160 573.207,160 575.326,160 577.446,160 579.565,160 581.685,160 583.804,159.509 585.924,158.037 588.043,160 590.163,160 592.283,160 594.402,160 596.522,160 598.641,160 600.761,160 602.88,160 605,160 607.12,160 609.239,160 611.359,159.509 613.478,158.037 615.598,157.055 617.717,160 619.837,160 621.957,160 624.076,156.564 626.196,157.546 628.315,147.239 630.435,160 632.554,160 634.674,160 636.793,155.092 638.913,148.221 641.033,160 643.152,160 645.272,158.037 647.391,160 649.511,158.037 651.63,160 653.75,160 655.87,160 657.989,160 660.109,160 662.228,160 664.348,159.018 666.467,144.294 668.587,159.018 670.707,160 672.826,139.387 674.946,121.718 677.065,120.736 679.185,147.73 681.304,146.258 683.424,157.055 685.543,160 687.663,160 689.783,160 691.902,160 694.022,160 696.141,160 698.261,160 700.38,160 702.5,157.546 704.62,153.62 706.739,148.712 708.859,160 710.978,149.202 713.098,149.693 715.217,134.969 717.337,146.258 719.457,145.767 721.576,146.258 723.696,150.184 725.815,154.11 727.935,154.601 730.054,154.11 732.174,157.055 734.293,156.564 736.413,159.509 738.533,160 740.652,160 742.772,160 744.891,160 747.011,160 749.13,160 751.25,160 753.37,160 755.489,158.528 757.609,159.509 759.728,160 761.848,160 763.967,159.509 766.087,142.331 768.207,144.785 770.326,157.055 772.446,158.528 774.565,160 776.685,160 778.804,159.509 780.924,160 783.043,160 785.163,159.018 787.283,153.62 789.402,159.018 791.522,160 793.641,160 795.761,149.693 797.88,155.583 800,160 800,160" fill="var(--pill)" opacity="0.6"/>
  <polyline points="20,160 22.1196,157.055 24.2391,158.037 26.3587,160 28.4783,160 30.5978,160 32.7174,160 34.837,160 36.9565,160 39.0761,160 41.1957,160 43.3152,160 45.4348,160 47.5543,153.62 49.6739,160 51.7935,160 53.913,160 56.0326,154.11 58.1522,157.055 60.2717,160 62.3913,160 64.5109,160 66.6304,160 68.75,160 70.8696,160 72.9891,159.018 75.1087,160 77.2283,160 79.3478,160 81.4674,160 83.587,160 85.7065,160 87.8261,160 89.9457,160 92.0652,160 94.1848,160 96.3043,160 98.4239,160 100.543,160 102.663,160 104.783,160 106.902,160 109.022,160 111.141,160 113.261,160 115.38,160 117.5,160 119.62,160 121.739,160 123.859,160 125.978,160 128.098,160 130.217,160 132.337,160 134.457,160 136.576,160 138.696,160 140.815,160 142.935,160 145.054,160 147.174,159.509 149.293,160 151.413,160 153.533,160 155.652,160 157.772,160 159.891,160 162.011,160 164.13,160 166.25,160 168.37,160 170.489,160 172.609,160 174.728,160 176.848,160 178.967,160 181.087,160 183.207,160 185.326,160 187.446,160 189.565,160 191.685,160 193.804,160 195.924,160 198.043,160 200.163,160 202.283,159.018 204.402,160 206.522,160 208.641,160 210.761,145.276 212.88,155.583 215,157.546 217.12,155.583 219.239,157.055 221.359,156.074 223.478,160 225.598,160 227.717,160 229.837,158.037 231.957,159.018 234.076,158.037 236.196,156.564 238.315,160 240.435,158.528 242.554,156.564 244.674,160 246.793,154.11 248.913,149.202 251.033,149.202 253.152,153.62 255.272,141.84 257.391,154.601 259.511,160 261.63,154.601 263.75,160 265.87,160 267.989,157.546 270.109,148.221 272.228,159.018 274.348,160 276.467,158.037 278.587,160 280.707,159.509 282.826,160 284.946,160 287.065,160 289.185,160 291.304,151.656 293.424,155.583 295.543,156.074 297.663,157.546 299.783,150.675 301.902,160 304.022,158.037 306.141,156.564 308.261,158.037 310.38,156.074 312.5,160 314.62,154.11 316.739,160 318.859,159.509 320.978,160 323.098,160 325.217,157.546 327.337,160 329.457,160 331.576,160 333.696,160 335.815,160 337.935,160 340.054,160 342.174,160 344.293,160 346.413,160 348.533,160 350.652,160 352.772,160 354.891,160 357.011,160 359.13,160 361.25,154.601 363.37,158.037 365.489,160 367.609,160 369.728,160 371.848,160 373.967,160 376.087,160 378.207,160 380.326,160 382.446,160 384.565,160 386.685,160 388.804,160 390.924,160 393.043,160 395.163,160 397.283,160 399.402,160 401.522,160 403.641,160 405.761,160 407.88,160 410,157.055 412.12,160 414.239,160 416.359,160 418.478,160 420.598,155.092 422.717,160 424.837,160 426.957,160 429.076,160 431.196,137.423 433.315,153.62 435.435,80 437.554,155.092 439.674,149.202 441.793,155.092 443.913,158.037 446.033,158.528 448.152,159.509 450.272,156.074 452.391,160 454.511,159.018 456.63,160 458.75,159.509 460.87,159.018 462.989,159.509 465.109,160 467.228,158.528 469.348,160 471.467,159.018 473.587,159.018 475.707,157.546 477.826,157.055 479.946,160 482.065,160 484.185,159.509 486.304,159.509 488.424,158.528 490.543,159.509 492.663,157.055 494.783,157.055 496.902,159.018 499.022,158.528 501.141,147.239 503.261,157.055 505.38,129.08 507.5,147.239 509.62,153.129 511.739,160 513.859,160 515.978,160 518.098,151.656 520.217,158.528 522.337,160 524.457,160 526.576,138.405 528.696,158.528 530.815,160 532.935,160 535.054,160 537.174,160 539.293,160 541.413,160 543.533,160 545.652,160 547.772,160 549.891,160 552.011,160 554.13,160 556.25,160 558.37,160 560.489,160 562.609,159.509 564.728,160 566.848,160 568.967,160 571.087,160 573.207,160 575.326,160 577.446,160 579.565,160 581.685,160 583.804,159.509 585.924,158.037 588.043,160 590.163,160 592.283,160 594.402,160 596.522,160 598.641,160 600.761,160 602.88,160 605,160 607.12,160 609.239,160 611.359,159.509 613.478,158.037 615.598,157.055 617.717,160 619.837,160 621.957,160 624.076,156.564 626.196,157.546 628.315,147.239 630.435,160 632.554,160 634.674,160 636.793,155.092 638.913,148.221 641.033,160 643.152,160 645.272,158.037 647.391,160 649.511,158.037 651.63,160 653.75,160 655.87,160 657.989,160 660.109,160 662.228,160 664.348,159.018 666.467,144.294 668.587,159.018 670.707,160 672.826,139.387 674.946,121.718 677.065,120.736 679.185,147.73 681.304,146.258 683.424,157.055 685.543,160 687.663,160 689.783,160 691.902,160 694.022,160 696.141,160 698.261,160 700.38,160 702.5,157.546 704.62,153.62 706.739,148.712 708.859,160 710.978,149.202 713.098,149.693 715.217,134.969 717.337,146.258 719.457,145.767 721.576,146.258 723.696,150.184 725.815,154.11 727.935,154.601 730.054,154.11 732.174,157.055 734.293,156.564 736.413,159.509 738.533,160 740.652,160 742.772,160 744.891,160 747.011,160 749.13,160 751.25,160 753.37,160 755.489,158.528 757.609,159.509 759.728,160 761.848,160 763.967,159.509 766.087,142.331 768.207,144.785 770.326,157.055 772.446,158.528 774.565,160 776.685,160 778.804,159.509 780.924,160 783.043,160 785.163,159.018 787.283,153.62 789.402,159.018 791.522,160 793.641,160 795.761,149.693 797.88,155.583 800,160" fill="none" stroke="var(--accent)" stroke-width="1.5" stroke-linecap="round" stroke-linejoin="round"/>
</svg>

