<svg xmlns="http://www.w3.org/2000/svg" width="820" height="180" viewBox="0 0 820 180">

<style>
  :root {
    --bg:        #f6f8fa;
    --card:      #ffffff;
    --border:    #d0d7de;
    --primary:   #1f2328;
    --secondary: #636c76;
    --muted:     #8c959f;
    --accent:    #0969da;
    --green:     #1a7f37;
    --yellow:    #9a6700;
    --red:       #cf222e;
    --hover:     #f3f4f6;
    --spark-bg:  #f0f3f6;
    --spark:     #0969da;
    --pill:      #eaf1fb;
    --pill-txt:  #0969da;
    --div:       #d0d7de;
  }
  @media (prefers-color-scheme: dark) {
    :root {
      --bg:        #0d1117;
      --card:      #161b22;
      --border:    #30363d;
      --primary:   #e6edf3;
      --secondary: #848d97;
      --muted:     #7d8590;
      --accent:    #2f81f7;
      --green:     #3fb950;
      --yellow:    #d29922;
      --red:       #f85149;
      --hover:     #21262d;
      --spark-bg:  #1c2128;
      --spark:     #58a6ff;
      --pill:      #1c2d3f;
      --pill-txt:  #58a6ff;
      --div:       #30363d;
    }
  }
  
  .bg          { fill: var(--bg); }
  .card        { fill: var(--card); stroke: var(--border); stroke-width: 1; }
  .lang-pill   { fill: var(--pill); }
  .spark-bg    { fill: var(--spark-bg); }
  .spark-line  { stroke: var(--spark); }
  .divider     { stroke: var(--div); stroke-width: 1; }
  .clr-primary   { fill: var(--primary); }
  .clr-secondary { fill: var(--secondary); }
  .clr-muted     { fill: var(--muted); }
  .clr-accent    { fill: var(--accent); }
  .clr-green     { fill: var(--green); }
  .clr-yellow    { fill: var(--yellow); }
  .clr-red       { fill: var(--red); }
  .txt-bold    { font-weight: 600; }
  svg text     { font-family: -apple-system, BlinkMacSystemFont, "Segoe UI", Helvetica, Arial, sans-serif; }
</style>

<rect x="0" y="0" width="820" height="180" rx="8" class="card"/>
  <text x="20" y="24" class="clr-primary txt-bold" text-anchor="start" font-size="14">Contribution History &amp; Activity</text>
  <line x1="20" y1="36" x2="800" y2="36" class="divider"/>
  <text x="20" y="60" class="clr-muted" text-anchor="start" font-size="12">Years Active:</text>
  <text x="100" y="60" class="clr-primary txt-bold" text-anchor="start" font-size="12">5.6</text>
  <text x="160" y="60" class="clr-muted" text-anchor="start" font-size="12">Commits (Last Year):</text>
  <text x="290" y="60" class="clr-primary txt-bold" text-anchor="start" font-size="12">1188</text>
  <text x="360" y="60" class="clr-muted" text-anchor="start" font-size="12">Highest Daily:</text>
  <text x="450" y="60" class="clr-primary txt-bold" text-anchor="start" font-size="12">163</text>
  <polygon points="20,160 20,160 22.1081,160 24.2162,160 26.3243,154.11 28.4324,157.055 30.5405,160 32.6486,160 34.7568,160 36.8649,160 38.973,160 41.0811,160 43.1892,159.018 45.2973,160 47.4054,160 49.5135,160 51.6216,160 53.7297,160 55.8378,160 57.9459,160 60.0541,160 62.1622,160 64.2703,160 66.3784,160 68.4865,160 70.5946,160 72.7027,160 74.8108,160 76.9189,160 79.027,160 81.1351,160 83.2432,160 85.3514,160 87.4595,160 89.5676,160 91.6757,160 93.7838,160 95.8919,160 98,160 100.108,160 102.216,160 104.324,160 106.432,160 108.541,160 110.649,160 112.757,160 114.865,160 116.973,159.509 119.081,160 121.189,160 123.297,160 125.405,160 127.514,160 129.622,160 131.73,160 133.838,160 135.946,160 138.054,160 140.162,160 142.27,160 144.378,160 146.486,160 148.595,160 150.703,160 152.811,160 154.919,160 157.027,160 159.135,160 161.243,160 163.351,160 165.459,160 167.568,160 169.676,160 171.784,159.018 173.892,160 176,160 178.108,160 180.216,145.276 182.324,155.583 184.432,157.546 186.541,155.583 188.649,157.055 190.757,156.074 192.865,160 194.973,160 197.081,160 199.189,158.037 201.297,159.018 203.405,158.037 205.514,156.564 207.622,160 209.73,158.528 211.838,156.564 213.946,160 216.054,154.11 218.162,149.202 220.27,149.202 222.378,153.62 224.486,141.84 226.595,154.601 228.703,160 230.811,154.601 232.919,160 235.027,160 237.135,157.546 239.243,148.221 241.351,159.018 243.459,160 245.568,158.037 247.676,160 249.784,159.509 251.892,160 254,160 256.108,160 258.216,160 260.324,151.656 262.432,155.583 264.541,156.074 266.649,157.546 268.757,150.675 270.865,160 272.973,158.037 275.081,156.564 277.189,158.037 279.297,156.074 281.405,160 283.514,154.11 285.622,160 287.73,159.509 289.838,160 291.946,160 294.054,157.546 296.162,160 298.27,160 300.378,160 302.486,160 304.595,160 306.703,160 308.811,160 310.919,160 313.027,160 315.135,160 317.243,160 319.351,160 321.459,160 323.568,160 325.676,160 327.784,160 329.892,154.601 332,158.037 334.108,160 336.216,160 338.324,160 340.432,160 342.541,160 344.649,160 346.757,160 348.865,160 350.973,160 353.081,160 355.189,160 357.297,160 359.405,160 361.514,160 363.622,160 365.73,160 367.838,160 369.946,160 372.054,160 374.162,160 376.27,160 378.378,157.055 380.486,160 382.595,160 384.703,160 386.811,160 388.919,155.092 391.027,160 393.135,160 395.243,160 397.351,160 399.459,137.423 401.568,153.62 403.676,80 405.784,155.092 407.892,149.202 410,155.092 412.108,158.037 414.216,158.528 416.324,159.509 418.432,156.074 420.541,160 422.649,159.018 424.757,160 426.865,159.509 428.973,159.018 431.081,159.509 433.189,160 435.297,158.528 437.405,160 439.514,159.018 441.622,159.018 443.73,157.546 445.838,157.055 447.946,160 450.054,160 452.162,159.509 454.27,159.509 456.378,158.528 458.486,159.509 460.595,157.055 462.703,157.055 464.811,159.018 466.919,158.528 469.027,147.239 471.135,157.055 473.243,129.08 475.351,147.239 477.459,153.129 479.568,160 481.676,160 483.784,160 485.892,151.656 488,158.528 490.108,160 492.216,160 494.324,138.405 496.432,158.528 498.541,160 500.649,160 502.757,160 504.865,160 506.973,160 509.081,160 511.189,160 513.297,160 515.405,160 517.514,160 519.622,160 521.73,160 523.838,160 525.946,160 528.054,160 530.162,159.509 532.27,160 534.378,160 536.486,160 538.595,160 540.703,160 542.811,160 544.919,160 547.027,160 549.135,160 551.243,159.509 553.351,158.037 555.459,160 557.568,160 559.676,160 561.784,160 563.892,160 566,160 568.108,160 570.216,160 572.324,160 574.432,160 576.541,160 578.649,159.509 580.757,158.037 582.865,157.055 584.973,160 587.081,160 589.189,160 591.297,156.564 593.405,157.546 595.514,147.239 597.622,160 599.73,160 601.838,160 603.946,155.092 606.054,148.221 608.162,160 610.27,160 612.378,158.037 614.486,160 616.595,158.037 618.703,160 620.811,160 622.919,160 625.027,160 627.135,160 629.243,160 631.351,159.018 633.459,144.294 635.568,159.018 637.676,160 639.784,139.387 641.892,121.718 644,120.736 646.108,147.73 648.216,146.258 650.324,157.055 652.432,160 654.541,160 656.649,160 658.757,160 660.865,160 662.973,160 665.081,160 667.189,160 669.297,157.546 671.405,153.62 673.514,148.712 675.622,160 677.73,149.202 679.838,149.693 681.946,134.969 684.054,146.258 686.162,145.767 688.27,146.258 690.378,150.184 692.486,154.11 694.595,154.601 696.703,154.11 698.811,157.055 700.919,156.564 703.027,159.509 705.135,160 707.243,160 709.351,160 711.459,160 713.568,160 715.676,160 717.784,160 719.892,160 722,158.528 724.108,159.509 726.216,160 728.324,160 730.432,159.509 732.541,142.331 734.649,144.785 736.757,157.055 738.865,158.528 740.973,160 743.081,160 745.189,159.509 747.297,160 749.405,160 751.514,159.018 753.622,153.62 755.73,159.018 757.838,160 759.946,160 762.054,149.693 764.162,155.583 766.27,158.528 768.378,156.074 770.486,155.583 772.595,159.509 774.703,159.509 776.811,160 778.919,160 781.027,151.656 783.135,140.859 785.243,155.092 787.351,160 789.459,141.84 791.568,150.184 793.676,152.147 795.784,160 797.892,160 800,160 800,160" fill="var(--pill)" opacity="0.6"/>
  <polyline points="20,160 22.1081,160 24.2162,160 26.3243,154.11 28.4324,157.055 30.5405,160 32.6486,160 34.7568,160 36.8649,160 38.973,160 41.0811,160 43.1892,159.018 45.2973,160 47.4054,160 49.5135,160 51.6216,160 53.7297,160 55.8378,160 57.9459,160 60.0541,160 62.1622,160 64.2703,160 66.3784,160 68.4865,160 70.5946,160 72.7027,160 74.8108,160 76.9189,160 79.027,160 81.1351,160 83.2432,160 85.3514,160 87.4595,160 89.5676,160 91.6757,160 93.7838,160 95.8919,160 98,160 100.108,160 102.216,160 104.324,160 106.432,160 108.541,160 110.649,160 112.757,160 114.865,160 116.973,159.509 119.081,160 121.189,160 123.297,160 125.405,160 127.514,160 129.622,160 131.73,160 133.838,160 135.946,160 138.054,160 140.162,160 142.27,160 144.378,160 146.486,160 148.595,160 150.703,160 152.811,160 154.919,160 157.027,160 159.135,160 161.243,160 163.351,160 165.459,160 167.568,160 169.676,160 171.784,159.018 173.892,160 176,160 178.108,160 180.216,145.276 182.324,155.583 184.432,157.546 186.541,155.583 188.649,157.055 190.757,156.074 192.865,160 194.973,160 197.081,160 199.189,158.037 201.297,159.018 203.405,158.037 205.514,156.564 207.622,160 209.73,158.528 211.838,156.564 213.946,160 216.054,154.11 218.162,149.202 220.27,149.202 222.378,153.62 224.486,141.84 226.595,154.601 228.703,160 230.811,154.601 232.919,160 235.027,160 237.135,157.546 239.243,148.221 241.351,159.018 243.459,160 245.568,158.037 247.676,160 249.784,159.509 251.892,160 254,160 256.108,160 258.216,160 260.324,151.656 262.432,155.583 264.541,156.074 266.649,157.546 268.757,150.675 270.865,160 272.973,158.037 275.081,156.564 277.189,158.037 279.297,156.074 281.405,160 283.514,154.11 285.622,160 287.73,159.509 289.838,160 291.946,160 294.054,157.546 296.162,160 298.27,160 300.378,160 302.486,160 304.595,160 306.703,160 308.811,160 310.919,160 313.027,160 315.135,160 317.243,160 319.351,160 321.459,160 323.568,160 325.676,160 327.784,160 329.892,154.601 332,158.037 334.108,160 336.216,160 338.324,160 340.432,160 342.541,160 344.649,160 346.757,160 348.865,160 350.973,160 353.081,160 355.189,160 357.297,160 359.405,160 361.514,160 363.622,160 365.73,160 367.838,160 369.946,160 372.054,160 374.162,160 376.27,160 378.378,157.055 380.486,160 382.595,160 384.703,160 386.811,160 388.919,155.092 391.027,160 393.135,160 395.243,160 397.351,160 399.459,137.423 401.568,153.62 403.676,80 405.784,155.092 407.892,149.202 410,155.092 412.108,158.037 414.216,158.528 416.324,159.509 418.432,156.074 420.541,160 422.649,159.018 424.757,160 426.865,159.509 428.973,159.018 431.081,159.509 433.189,160 435.297,158.528 437.405,160 439.514,159.018 441.622,159.018 443.73,157.546 445.838,157.055 447.946,160 450.054,160 452.162,159.509 454.27,159.509 456.378,158.528 458.486,159.509 460.595,157.055 462.703,157.055 464.811,159.018 466.919,158.528 469.027,147.239 471.135,157.055 473.243,129.08 475.351,147.239 477.459,153.129 479.568,160 481.676,160 483.784,160 485.892,151.656 488,158.528 490.108,160 492.216,160 494.324,138.405 496.432,158.528 498.541,160 500.649,160 502.757,160 504.865,160 506.973,160 509.081,160 511.189,160 513.297,160 515.405,160 517.514,160 519.622,160 521.73,160 523.838,160 525.946,160 528.054,160 530.162,159.509 532.27,160 534.378,160 536.486,160 538.595,160 540.703,160 542.811,160 544.919,160 547.027,160 549.135,160 551.243,159.509 553.351,158.037 555.459,160 557.568,160 559.676,160 561.784,160 563.892,160 566,160 568.108,160 570.216,160 572.324,160 574.432,160 576.541,160 578.649,159.509 580.757,158.037 582.865,157.055 584.973,160 587.081,160 589.189,160 591.297,156.564 593.405,157.546 595.514,147.239 597.622,160 599.73,160 601.838,160 603.946,155.092 606.054,148.221 608.162,160 610.27,160 612.378,158.037 614.486,160 616.595,158.037 618.703,160 620.811,160 622.919,160 625.027,160 627.135,160 629.243,160 631.351,159.018 633.459,144.294 635.568,159.018 637.676,160 639.784,139.387 641.892,121.718 644,120.736 646.108,147.73 648.216,146.258 650.324,157.055 652.432,160 654.541,160 656.649,160 658.757,160 660.865,160 662.973,160 665.081,160 667.189,160 669.297,157.546 671.405,153.62 673.514,148.712 675.622,160 677.73,149.202 679.838,149.693 681.946,134.969 684.054,146.258 686.162,145.767 688.27,146.258 690.378,150.184 692.486,154.11 694.595,154.601 696.703,154.11 698.811,157.055 700.919,156.564 703.027,159.509 705.135,160 707.243,160 709.351,160 711.459,160 713.568,160 715.676,160 717.784,160 719.892,160 722,158.528 724.108,159.509 726.216,160 728.324,160 730.432,159.509 732.541,142.331 734.649,144.785 736.757,157.055 738.865,158.528 740.973,160 743.081,160 745.189,159.509 747.297,160 749.405,160 751.514,159.018 753.622,153.62 755.73,159.018 757.838,160 759.946,160 762.054,149.693 764.162,155.583 766.27,158.528 768.378,156.074 770.486,155.583 772.595,159.509 774.703,159.509 776.811,160 778.919,160 781.027,151.656 783.135,140.859 785.243,155.092 787.351,160 789.459,141.84 791.568,150.184 793.676,152.147 795.784,160 797.892,160 800,160" fill="none" stroke="var(--accent)" stroke-width="1.5" stroke-linecap="round" stroke-linejoin="round"/>
</svg>

