<svg xmlns="http://www.w3.org/2000/svg" width="820" height="180" viewBox="0 0 820 180">

<style>
  :root {
    --bg:        #f6f8fa;
    --card:      #ffffff;
    --border:    #d0d7de;
    --primary:   #1f2328;
    --secondary: #636c76;
    --muted:     #8c959f;
    --accent:    #0969da;
    --green:     #1a7f37;
    --yellow:    #9a6700;
    --red:       #cf222e;
    --hover:     #f3f4f6;
    --spark-bg:  #f0f3f6;
    --spark:     #0969da;
    --pill:      #eaf1fb;
    --pill-txt:  #0969da;
    --div:       #d0d7de;
  }
  @media (prefers-color-scheme: dark) {
    :root {
      --bg:        #0d1117;
      --card:      #161b22;
      --border:    #30363d;
      --primary:   #e6edf3;
      --secondary: #848d97;
      --muted:     #7d8590;
      --accent:    #2f81f7;
      --green:     #3fb950;
      --yellow:    #d29922;
      --red:       #f85149;
      --hover:     #21262d;
      --spark-bg:  #1c2128;
      --spark:     #58a6ff;
      --pill:      #1c2d3f;
      --pill-txt:  #58a6ff;
      --div:       #30363d;
    }
  }
  
  .bg          { fill: var(--bg); }
  .card        { fill: var(--card); stroke: var(--border); stroke-width: 1; }
  .lang-pill   { fill: var(--pill); }
  .spark-bg    { fill: var(--spark-bg); }
  .spark-line  { stroke: var(--spark); }
  .divider     { stroke: var(--div); stroke-width: 1; }
  .clr-primary   { fill: var(--primary); }
  .clr-secondary { fill: var(--secondary); }
  .clr-muted     { fill: var(--muted); }
  .clr-accent    { fill: var(--accent); }
  .clr-green     { fill: var(--green); }
  .clr-yellow    { fill: var(--yellow); }
  .clr-red       { fill: var(--red); }
  .txt-bold    { font-weight: 600; }
  svg text     { font-family: -apple-system, BlinkMacSystemFont, "Segoe UI", Helvetica, Arial, sans-serif; }
</style>

<rect x="0" y="0" width="820" height="180" rx="8" class="card"/>
  <text x="20" y="24" class="clr-primary txt-bold" text-anchor="start" font-size="14">Contribution History &amp; Activity</text>
  <line x1="20" y1="36" x2="800" y2="36" class="divider"/>
  <text x="20" y="60" class="clr-muted" text-anchor="start" font-size="12">Years Active:</text>
  <text x="100" y="60" class="clr-primary txt-bold" text-anchor="start" font-size="12">5.6</text>
  <text x="160" y="60" class="clr-muted" text-anchor="start" font-size="12">Commits (Last Year):</text>
  <text x="290" y="60" class="clr-primary txt-bold" text-anchor="start" font-size="12">1173</text>
  <text x="360" y="60" class="clr-muted" text-anchor="start" font-size="12">Highest Daily:</text>
  <text x="450" y="60" class="clr-primary txt-bold" text-anchor="start" font-size="12">163</text>
  <polygon points="20,160 20,160 22.1253,160 24.2507,160 26.376,160 28.5014,160 30.6267,160 32.752,160 34.8774,160 37.0027,160 39.1281,160 41.2534,160 43.3787,160 45.5041,160 47.6294,160 49.7548,160 51.8801,160 54.0054,160 56.1308,160 58.2561,160 60.3815,160 62.5068,160 64.6322,160 66.7575,160 68.8828,160 71.0082,160 73.1335,159.509 75.2589,160 77.3842,160 79.5095,160 81.6349,160 83.7602,160 85.8856,160 88.0109,160 90.1362,160 92.2616,160 94.3869,160 96.5123,160 98.6376,160 100.763,160 102.888,160 105.014,160 107.139,160 109.264,160 111.39,160 113.515,160 115.64,160 117.766,160 119.891,160 122.016,160 124.142,160 126.267,160 128.392,159.018 130.518,160 132.643,160 134.768,160 136.894,145.276 139.019,155.583 141.144,157.546 143.27,155.583 145.395,157.055 147.52,156.074 149.646,160 151.771,160 153.896,160 156.022,158.037 158.147,159.018 160.272,158.037 162.398,156.564 164.523,160 166.649,158.528 168.774,156.564 170.899,160 173.025,154.11 175.15,149.202 177.275,149.202 179.401,153.62 181.526,141.84 183.651,154.601 185.777,160 187.902,154.601 190.027,160 192.153,160 194.278,157.546 196.403,148.221 198.529,159.018 200.654,160 202.779,158.037 204.905,160 207.03,159.509 209.155,160 211.281,160 213.406,160 215.531,160 217.657,151.656 219.782,155.583 221.907,156.074 224.033,157.546 226.158,150.675 228.283,160 230.409,158.037 232.534,156.564 234.659,158.037 236.785,156.074 238.91,160 241.035,154.11 243.161,160 245.286,159.509 247.411,160 249.537,160 251.662,157.546 253.787,160 255.913,160 258.038,160 260.163,160 262.289,160 264.414,160 266.54,160 268.665,160 270.79,160 272.916,160 275.041,160 277.166,160 279.292,160 281.417,160 283.542,160 285.668,160 287.793,154.601 289.918,158.037 292.044,160 294.169,160 296.294,160 298.42,160 300.545,160 302.67,160 304.796,160 306.921,160 309.046,160 311.172,160 313.297,160 315.422,160 317.548,160 319.673,160 321.798,160 323.924,160 326.049,160 328.174,160 330.3,160 332.425,160 334.55,160 336.676,157.055 338.801,160 340.926,160 343.052,160 345.177,160 347.302,155.092 349.428,160 351.553,160 353.678,160 355.804,160 357.929,137.423 360.054,153.62 362.18,80 364.305,155.092 366.431,149.202 368.556,155.092 370.681,158.037 372.807,158.528 374.932,159.509 377.057,156.074 379.183,160 381.308,159.018 383.433,160 385.559,159.509 387.684,159.018 389.809,159.509 391.935,160 394.06,158.528 396.185,160 398.311,159.018 400.436,159.018 402.561,157.546 404.687,157.055 406.812,160 408.937,160 411.063,159.509 413.188,159.509 415.313,158.528 417.439,159.509 419.564,157.055 421.689,157.055 423.815,159.018 425.94,158.528 428.065,147.239 430.191,157.055 432.316,129.08 434.441,147.239 436.567,153.129 438.692,160 440.817,160 442.943,160 445.068,151.656 447.193,158.528 449.319,160 451.444,160 453.569,138.405 455.695,158.528 457.82,160 459.946,160 462.071,160 464.196,160 466.322,160 468.447,160 470.572,160 472.698,160 474.823,160 476.948,160 479.074,160 481.199,160 483.324,160 485.45,160 487.575,160 489.7,159.509 491.826,160 493.951,160 496.076,160 498.202,160 500.327,160 502.452,160 504.578,160 506.703,160 508.828,160 510.954,159.509 513.079,158.037 515.204,160 517.33,160 519.455,160 521.58,160 523.706,160 525.831,160 527.956,160 530.082,160 532.207,160 534.332,160 536.458,160 538.583,159.509 540.708,158.037 542.834,157.055 544.959,160 547.084,160 549.21,160 551.335,156.564 553.46,157.546 555.586,147.239 557.711,160 559.837,160 561.962,160 564.087,155.092 566.213,148.221 568.338,160 570.463,160 572.589,158.037 574.714,160 576.839,158.037 578.965,160 581.09,160 583.215,160 585.341,160 587.466,160 589.591,160 591.717,159.018 593.842,144.294 595.967,159.018 598.093,160 600.218,139.387 602.343,121.718 604.469,120.736 606.594,147.73 608.719,146.258 610.845,157.055 612.97,160 615.095,160 617.221,160 619.346,160 621.471,160 623.597,160 625.722,160 627.847,160 629.973,157.546 632.098,153.62 634.223,148.712 636.349,160 638.474,149.202 640.599,149.693 642.725,134.969 644.85,146.258 646.975,145.767 649.101,146.258 651.226,150.184 653.351,154.11 655.477,154.601 657.602,154.11 659.728,157.055 661.853,156.564 663.978,159.509 666.104,160 668.229,160 670.354,160 672.48,160 674.605,160 676.73,160 678.856,160 680.981,160 683.106,158.528 685.232,159.509 687.357,160 689.482,160 691.608,159.509 693.733,142.331 695.858,144.785 697.984,157.055 700.109,158.528 702.234,160 704.36,160 706.485,159.509 708.61,160 710.736,160 712.861,159.018 714.986,153.62 717.112,159.018 719.237,160 721.362,160 723.488,149.693 725.613,155.583 727.738,158.528 729.864,156.074 731.989,155.583 734.114,159.509 736.24,159.509 738.365,160 740.49,160 742.616,151.656 744.741,140.859 746.866,155.092 748.992,160 751.117,141.84 753.243,150.184 755.368,152.147 757.493,160 759.619,160 761.744,160 763.869,160 765.995,160 768.12,160 770.245,160 772.371,160 774.496,160 776.621,160 778.747,160 780.872,160 782.997,158.037 785.123,160 787.248,160 789.373,160 791.499,160 793.624,160 795.749,160 797.875,160 800,160 800,160" fill="var(--pill)" opacity="0.6"/>
  <polyline points="20,160 22.1253,160 24.2507,160 26.376,160 28.5014,160 30.6267,160 32.752,160 34.8774,160 37.0027,160 39.1281,160 41.2534,160 43.3787,160 45.5041,160 47.6294,160 49.7548,160 51.8801,160 54.0054,160 56.1308,160 58.2561,160 60.3815,160 62.5068,160 64.6322,160 66.7575,160 68.8828,160 71.0082,160 73.1335,159.509 75.2589,160 77.3842,160 79.5095,160 81.6349,160 83.7602,160 85.8856,160 88.0109,160 90.1362,160 92.2616,160 94.3869,160 96.5123,160 98.6376,160 100.763,160 102.888,160 105.014,160 107.139,160 109.264,160 111.39,160 113.515,160 115.64,160 117.766,160 119.891,160 122.016,160 124.142,160 126.267,160 128.392,159.018 130.518,160 132.643,160 134.768,160 136.894,145.276 139.019,155.583 141.144,157.546 143.27,155.583 145.395,157.055 147.52,156.074 149.646,160 151.771,160 153.896,160 156.022,158.037 158.147,159.018 160.272,158.037 162.398,156.564 164.523,160 166.649,158.528 168.774,156.564 170.899,160 173.025,154.11 175.15,149.202 177.275,149.202 179.401,153.62 181.526,141.84 183.651,154.601 185.777,160 187.902,154.601 190.027,160 192.153,160 194.278,157.546 196.403,148.221 198.529,159.018 200.654,160 202.779,158.037 204.905,160 207.03,159.509 209.155,160 211.281,160 213.406,160 215.531,160 217.657,151.656 219.782,155.583 221.907,156.074 224.033,157.546 226.158,150.675 228.283,160 230.409,158.037 232.534,156.564 234.659,158.037 236.785,156.074 238.91,160 241.035,154.11 243.161,160 245.286,159.509 247.411,160 249.537,160 251.662,157.546 253.787,160 255.913,160 258.038,160 260.163,160 262.289,160 264.414,160 266.54,160 268.665,160 270.79,160 272.916,160 275.041,160 277.166,160 279.292,160 281.417,160 283.542,160 285.668,160 287.793,154.601 289.918,158.037 292.044,160 294.169,160 296.294,160 298.42,160 300.545,160 302.67,160 304.796,160 306.921,160 309.046,160 311.172,160 313.297,160 315.422,160 317.548,160 319.673,160 321.798,160 323.924,160 326.049,160 328.174,160 330.3,160 332.425,160 334.55,160 336.676,157.055 338.801,160 340.926,160 343.052,160 345.177,160 347.302,155.092 349.428,160 351.553,160 353.678,160 355.804,160 357.929,137.423 360.054,153.62 362.18,80 364.305,155.092 366.431,149.202 368.556,155.092 370.681,158.037 372.807,158.528 374.932,159.509 377.057,156.074 379.183,160 381.308,159.018 383.433,160 385.559,159.509 387.684,159.018 389.809,159.509 391.935,160 394.06,158.528 396.185,160 398.311,159.018 400.436,159.018 402.561,157.546 404.687,157.055 406.812,160 408.937,160 411.063,159.509 413.188,159.509 415.313,158.528 417.439,159.509 419.564,157.055 421.689,157.055 423.815,159.018 425.94,158.528 428.065,147.239 430.191,157.055 432.316,129.08 434.441,147.239 436.567,153.129 438.692,160 440.817,160 442.943,160 445.068,151.656 447.193,158.528 449.319,160 451.444,160 453.569,138.405 455.695,158.528 457.82,160 459.946,160 462.071,160 464.196,160 466.322,160 468.447,160 470.572,160 472.698,160 474.823,160 476.948,160 479.074,160 481.199,160 483.324,160 485.45,160 487.575,160 489.7,159.509 491.826,160 493.951,160 496.076,160 498.202,160 500.327,160 502.452,160 504.578,160 506.703,160 508.828,160 510.954,159.509 513.079,158.037 515.204,160 517.33,160 519.455,160 521.58,160 523.706,160 525.831,160 527.956,160 530.082,160 532.207,160 534.332,160 536.458,160 538.583,159.509 540.708,158.037 542.834,157.055 544.959,160 547.084,160 549.21,160 551.335,156.564 553.46,157.546 555.586,147.239 557.711,160 559.837,160 561.962,160 564.087,155.092 566.213,148.221 568.338,160 570.463,160 572.589,158.037 574.714,160 576.839,158.037 578.965,160 581.09,160 583.215,160 585.341,160 587.466,160 589.591,160 591.717,159.018 593.842,144.294 595.967,159.018 598.093,160 600.218,139.387 602.343,121.718 604.469,120.736 606.594,147.73 608.719,146.258 610.845,157.055 612.97,160 615.095,160 617.221,160 619.346,160 621.471,160 623.597,160 625.722,160 627.847,160 629.973,157.546 632.098,153.62 634.223,148.712 636.349,160 638.474,149.202 640.599,149.693 642.725,134.969 644.85,146.258 646.975,145.767 649.101,146.258 651.226,150.184 653.351,154.11 655.477,154.601 657.602,154.11 659.728,157.055 661.853,156.564 663.978,159.509 666.104,160 668.229,160 670.354,160 672.48,160 674.605,160 676.73,160 678.856,160 680.981,160 683.106,158.528 685.232,159.509 687.357,160 689.482,160 691.608,159.509 693.733,142.331 695.858,144.785 697.984,157.055 700.109,158.528 702.234,160 704.36,160 706.485,159.509 708.61,160 710.736,160 712.861,159.018 714.986,153.62 717.112,159.018 719.237,160 721.362,160 723.488,149.693 725.613,155.583 727.738,158.528 729.864,156.074 731.989,155.583 734.114,159.509 736.24,159.509 738.365,160 740.49,160 742.616,151.656 744.741,140.859 746.866,155.092 748.992,160 751.117,141.84 753.243,150.184 755.368,152.147 757.493,160 759.619,160 761.744,160 763.869,160 765.995,160 768.12,160 770.245,160 772.371,160 774.496,160 776.621,160 778.747,160 780.872,160 782.997,158.037 785.123,160 787.248,160 789.373,160 791.499,160 793.624,160 795.749,160 797.875,160 800,160" fill="none" stroke="var(--accent)" stroke-width="1.5" stroke-linecap="round" stroke-linejoin="round"/>
</svg>

