<svg xmlns="http://www.w3.org/2000/svg" width="820" height="180" viewBox="0 0 820 180">

<style>
  :root {
    --bg:        #f6f8fa;
    --card:      #ffffff;
    --border:    #d0d7de;
    --primary:   #1f2328;
    --secondary: #636c76;
    --muted:     #8c959f;
    --accent:    #0969da;
    --green:     #1a7f37;
    --yellow:    #9a6700;
    --red:       #cf222e;
    --hover:     #f3f4f6;
    --spark-bg:  #f0f3f6;
    --spark:     #0969da;
    --pill:      #eaf1fb;
    --pill-txt:  #0969da;
    --div:       #d0d7de;
  }
  @media (prefers-color-scheme: dark) {
    :root {
      --bg:        #0d1117;
      --card:      #161b22;
      --border:    #30363d;
      --primary:   #e6edf3;
      --secondary: #848d97;
      --muted:     #7d8590;
      --accent:    #2f81f7;
      --green:     #3fb950;
      --yellow:    #d29922;
      --red:       #f85149;
      --hover:     #21262d;
      --spark-bg:  #1c2128;
      --spark:     #58a6ff;
      --pill:      #1c2d3f;
      --pill-txt:  #58a6ff;
      --div:       #30363d;
    }
  }
  
  .bg          { fill: var(--bg); }
  .card        { fill: var(--card); stroke: var(--border); stroke-width: 1; }
  .lang-pill   { fill: var(--pill); }
  .spark-bg    { fill: var(--spark-bg); }
  .spark-line  { stroke: var(--spark); }
  .divider     { stroke: var(--div); stroke-width: 1; }
  .clr-primary   { fill: var(--primary); }
  .clr-secondary { fill: var(--secondary); }
  .clr-muted     { fill: var(--muted); }
  .clr-accent    { fill: var(--accent); }
  .clr-green     { fill: var(--green); }
  .clr-yellow    { fill: var(--yellow); }
  .clr-red       { fill: var(--red); }
  .txt-bold    { font-weight: 600; }
  svg text     { font-family: -apple-system, BlinkMacSystemFont, "Segoe UI", Helvetica, Arial, sans-serif; }
</style>

<rect x="0" y="0" width="820" height="180" rx="8" class="card"/>
  <text x="20" y="24" class="clr-primary txt-bold" text-anchor="start" font-size="14">Contribution History &amp; Activity</text>
  <line x1="20" y1="36" x2="800" y2="36" class="divider"/>
  <text x="20" y="60" class="clr-muted" text-anchor="start" font-size="12">Years Active:</text>
  <text x="100" y="60" class="clr-primary txt-bold" text-anchor="start" font-size="12">5.7</text>
  <text x="160" y="60" class="clr-muted" text-anchor="start" font-size="12">Commits (Last Year):</text>
  <text x="290" y="60" class="clr-primary txt-bold" text-anchor="start" font-size="12">1173</text>
  <text x="360" y="60" class="clr-muted" text-anchor="start" font-size="12">Highest Daily:</text>
  <text x="450" y="60" class="clr-primary txt-bold" text-anchor="start" font-size="12">163</text>
  <polygon points="20,160 20,160 22.1196,160 24.2391,160 26.3587,160 28.4783,160 30.5978,160 32.7174,160 34.837,160 36.9565,160 39.0761,160 41.1957,160 43.3152,160 45.4348,160 47.5543,160 49.6739,160 51.7935,160 53.913,160 56.0326,160 58.1522,159.509 60.2717,160 62.3913,160 64.5109,160 66.6304,160 68.75,160 70.8696,160 72.9891,160 75.1087,160 77.2283,160 79.3478,160 81.4674,160 83.587,160 85.7065,160 87.8261,160 89.9457,160 92.0652,160 94.1848,160 96.3043,160 98.4239,160 100.543,160 102.663,160 104.783,160 106.902,160 109.022,160 111.141,160 113.261,159.018 115.38,160 117.5,160 119.62,160 121.739,145.276 123.859,155.583 125.978,157.546 128.098,155.583 130.217,157.055 132.337,156.074 134.457,160 136.576,160 138.696,160 140.815,158.037 142.935,159.018 145.054,158.037 147.174,156.564 149.293,160 151.413,158.528 153.533,156.564 155.652,160 157.772,154.11 159.891,149.202 162.011,149.202 164.13,153.62 166.25,141.84 168.37,154.601 170.489,160 172.609,154.601 174.728,160 176.848,160 178.967,157.546 181.087,148.221 183.207,159.018 185.326,160 187.446,158.037 189.565,160 191.685,159.509 193.804,160 195.924,160 198.043,160 200.163,160 202.283,151.656 204.402,155.583 206.522,156.074 208.641,157.546 210.761,150.675 212.88,160 215,158.037 217.12,156.564 219.239,158.037 221.359,156.074 223.478,160 225.598,154.11 227.717,160 229.837,159.509 231.957,160 234.076,160 236.196,157.546 238.315,160 240.435,160 242.554,160 244.674,160 246.793,160 248.913,160 251.033,160 253.152,160 255.272,160 257.391,160 259.511,160 261.63,160 263.75,160 265.87,160 267.989,160 270.109,160 272.228,154.601 274.348,158.037 276.467,160 278.587,160 280.707,160 282.826,160 284.946,160 287.065,160 289.185,160 291.304,160 293.424,160 295.543,160 297.663,160 299.783,160 301.902,160 304.022,160 306.141,160 308.261,160 310.38,160 312.5,160 314.62,160 316.739,160 318.859,160 320.978,157.055 323.098,160 325.217,160 327.337,160 329.457,160 331.576,155.092 333.696,160 335.815,160 337.935,160 340.054,160 342.174,137.423 344.293,153.62 346.413,80 348.533,155.092 350.652,149.202 352.772,155.092 354.891,158.037 357.011,158.528 359.13,159.509 361.25,156.074 363.37,160 365.489,159.018 367.609,160 369.728,159.509 371.848,159.018 373.967,159.509 376.087,160 378.207,158.528 380.326,160 382.446,159.018 384.565,159.018 386.685,157.546 388.804,157.055 390.924,160 393.043,160 395.163,159.509 397.283,159.509 399.402,158.528 401.522,159.509 403.641,157.055 405.761,157.055 407.88,159.018 410,158.528 412.12,147.239 414.239,157.055 416.359,129.08 418.478,147.239 420.598,153.129 422.717,160 424.837,160 426.957,160 429.076,151.656 431.196,158.528 433.315,160 435.435,160 437.554,138.405 439.674,158.528 441.793,160 443.913,160 446.033,160 448.152,160 450.272,160 452.391,160 454.511,160 456.63,160 458.75,160 460.87,160 462.989,160 465.109,160 467.228,160 469.348,160 471.467,160 473.587,159.509 475.707,160 477.826,160 479.946,160 482.065,160 484.185,160 486.304,160 488.424,160 490.543,160 492.663,160 494.783,159.509 496.902,158.037 499.022,160 501.141,160 503.261,160 505.38,160 507.5,160 509.62,160 511.739,160 513.859,160 515.978,160 518.098,160 520.217,160 522.337,159.509 524.457,158.037 526.576,157.055 528.696,160 530.815,160 532.935,160 535.054,156.564 537.174,157.546 539.293,147.239 541.413,160 543.533,160 545.652,160 547.772,155.092 549.891,148.221 552.011,160 554.13,160 556.25,158.037 558.37,160 560.489,158.037 562.609,160 564.728,160 566.848,160 568.967,160 571.087,160 573.207,160 575.326,159.018 577.446,144.294 579.565,159.018 581.685,160 583.804,139.387 585.924,121.718 588.043,120.736 590.163,147.73 592.283,146.258 594.402,157.055 596.522,160 598.641,160 600.761,160 602.88,160 605,160 607.12,160 609.239,160 611.359,160 613.478,157.546 615.598,153.62 617.717,148.712 619.837,160 621.957,149.202 624.076,149.693 626.196,134.969 628.315,146.258 630.435,145.767 632.554,146.258 634.674,150.184 636.793,154.11 638.913,154.601 641.033,154.11 643.152,157.055 645.272,156.564 647.391,159.509 649.511,160 651.63,160 653.75,160 655.87,160 657.989,160 660.109,160 662.228,160 664.348,160 666.467,158.528 668.587,159.509 670.707,160 672.826,160 674.946,159.509 677.065,142.331 679.185,144.785 681.304,157.055 683.424,158.528 685.543,160 687.663,160 689.783,159.509 691.902,160 694.022,160 696.141,159.018 698.261,153.62 700.38,159.018 702.5,160 704.62,160 706.739,149.693 708.859,155.583 710.978,158.528 713.098,156.074 715.217,155.583 717.337,159.509 719.457,159.509 721.576,160 723.696,160 725.815,151.656 727.935,140.859 730.054,155.092 732.174,160 734.293,141.84 736.413,150.184 738.533,152.147 740.652,160 742.772,160 744.891,160 747.011,160 749.13,160 751.25,160 753.37,160 755.489,160 757.609,160 759.728,160 761.848,160 763.967,160 766.087,158.037 768.207,160 770.326,160 772.446,160 774.565,160 776.685,160 778.804,160 780.924,160 783.043,160 785.163,160 787.283,160 789.402,160 791.522,160 793.641,160 795.761,160 797.88,160 800,160 800,160" fill="var(--pill)" opacity="0.6"/>
  <polyline points="20,160 22.1196,160 24.2391,160 26.3587,160 28.4783,160 30.5978,160 32.7174,160 34.837,160 36.9565,160 39.0761,160 41.1957,160 43.3152,160 45.4348,160 47.5543,160 49.6739,160 51.7935,160 53.913,160 56.0326,160 58.1522,159.509 60.2717,160 62.3913,160 64.5109,160 66.6304,160 68.75,160 70.8696,160 72.9891,160 75.1087,160 77.2283,160 79.3478,160 81.4674,160 83.587,160 85.7065,160 87.8261,160 89.9457,160 92.0652,160 94.1848,160 96.3043,160 98.4239,160 100.543,160 102.663,160 104.783,160 106.902,160 109.022,160 111.141,160 113.261,159.018 115.38,160 117.5,160 119.62,160 121.739,145.276 123.859,155.583 125.978,157.546 128.098,155.583 130.217,157.055 132.337,156.074 134.457,160 136.576,160 138.696,160 140.815,158.037 142.935,159.018 145.054,158.037 147.174,156.564 149.293,160 151.413,158.528 153.533,156.564 155.652,160 157.772,154.11 159.891,149.202 162.011,149.202 164.13,153.62 166.25,141.84 168.37,154.601 170.489,160 172.609,154.601 174.728,160 176.848,160 178.967,157.546 181.087,148.221 183.207,159.018 185.326,160 187.446,158.037 189.565,160 191.685,159.509 193.804,160 195.924,160 198.043,160 200.163,160 202.283,151.656 204.402,155.583 206.522,156.074 208.641,157.546 210.761,150.675 212.88,160 215,158.037 217.12,156.564 219.239,158.037 221.359,156.074 223.478,160 225.598,154.11 227.717,160 229.837,159.509 231.957,160 234.076,160 236.196,157.546 238.315,160 240.435,160 242.554,160 244.674,160 246.793,160 248.913,160 251.033,160 253.152,160 255.272,160 257.391,160 259.511,160 261.63,160 263.75,160 265.87,160 267.989,160 270.109,160 272.228,154.601 274.348,158.037 276.467,160 278.587,160 280.707,160 282.826,160 284.946,160 287.065,160 289.185,160 291.304,160 293.424,160 295.543,160 297.663,160 299.783,160 301.902,160 304.022,160 306.141,160 308.261,160 310.38,160 312.5,160 314.62,160 316.739,160 318.859,160 320.978,157.055 323.098,160 325.217,160 327.337,160 329.457,160 331.576,155.092 333.696,160 335.815,160 337.935,160 340.054,160 342.174,137.423 344.293,153.62 346.413,80 348.533,155.092 350.652,149.202 352.772,155.092 354.891,158.037 357.011,158.528 359.13,159.509 361.25,156.074 363.37,160 365.489,159.018 367.609,160 369.728,159.509 371.848,159.018 373.967,159.509 376.087,160 378.207,158.528 380.326,160 382.446,159.018 384.565,159.018 386.685,157.546 388.804,157.055 390.924,160 393.043,160 395.163,159.509 397.283,159.509 399.402,158.528 401.522,159.509 403.641,157.055 405.761,157.055 407.88,159.018 410,158.528 412.12,147.239 414.239,157.055 416.359,129.08 418.478,147.239 420.598,153.129 422.717,160 424.837,160 426.957,160 429.076,151.656 431.196,158.528 433.315,160 435.435,160 437.554,138.405 439.674,158.528 441.793,160 443.913,160 446.033,160 448.152,160 450.272,160 452.391,160 454.511,160 456.63,160 458.75,160 460.87,160 462.989,160 465.109,160 467.228,160 469.348,160 471.467,160 473.587,159.509 475.707,160 477.826,160 479.946,160 482.065,160 484.185,160 486.304,160 488.424,160 490.543,160 492.663,160 494.783,159.509 496.902,158.037 499.022,160 501.141,160 503.261,160 505.38,160 507.5,160 509.62,160 511.739,160 513.859,160 515.978,160 518.098,160 520.217,160 522.337,159.509 524.457,158.037 526.576,157.055 528.696,160 530.815,160 532.935,160 535.054,156.564 537.174,157.546 539.293,147.239 541.413,160 543.533,160 545.652,160 547.772,155.092 549.891,148.221 552.011,160 554.13,160 556.25,158.037 558.37,160 560.489,158.037 562.609,160 564.728,160 566.848,160 568.967,160 571.087,160 573.207,160 575.326,159.018 577.446,144.294 579.565,159.018 581.685,160 583.804,139.387 585.924,121.718 588.043,120.736 590.163,147.73 592.283,146.258 594.402,157.055 596.522,160 598.641,160 600.761,160 602.88,160 605,160 607.12,160 609.239,160 611.359,160 613.478,157.546 615.598,153.62 617.717,148.712 619.837,160 621.957,149.202 624.076,149.693 626.196,134.969 628.315,146.258 630.435,145.767 632.554,146.258 634.674,150.184 636.793,154.11 638.913,154.601 641.033,154.11 643.152,157.055 645.272,156.564 647.391,159.509 649.511,160 651.63,160 653.75,160 655.87,160 657.989,160 660.109,160 662.228,160 664.348,160 666.467,158.528 668.587,159.509 670.707,160 672.826,160 674.946,159.509 677.065,142.331 679.185,144.785 681.304,157.055 683.424,158.528 685.543,160 687.663,160 689.783,159.509 691.902,160 694.022,160 696.141,159.018 698.261,153.62 700.38,159.018 702.5,160 704.62,160 706.739,149.693 708.859,155.583 710.978,158.528 713.098,156.074 715.217,155.583 717.337,159.509 719.457,159.509 721.576,160 723.696,160 725.815,151.656 727.935,140.859 730.054,155.092 732.174,160 734.293,141.84 736.413,150.184 738.533,152.147 740.652,160 742.772,160 744.891,160 747.011,160 749.13,160 751.25,160 753.37,160 755.489,160 757.609,160 759.728,160 761.848,160 763.967,160 766.087,158.037 768.207,160 770.326,160 772.446,160 774.565,160 776.685,160 778.804,160 780.924,160 783.043,160 785.163,160 787.283,160 789.402,160 791.522,160 793.641,160 795.761,160 797.88,160 800,160" fill="none" stroke="var(--accent)" stroke-width="1.5" stroke-linecap="round" stroke-linejoin="round"/>
</svg>

