<svg xmlns="http://www.w3.org/2000/svg" width="820" height="180" viewBox="0 0 820 180">

<style>
  :root {
    --bg:        #f6f8fa;
    --card:      #ffffff;
    --border:    #d0d7de;
    --primary:   #1f2328;
    --secondary: #636c76;
    --muted:     #8c959f;
    --accent:    #0969da;
    --green:     #1a7f37;
    --yellow:    #9a6700;
    --red:       #cf222e;
    --hover:     #f3f4f6;
    --spark-bg:  #f0f3f6;
    --spark:     #0969da;
    --pill:      #eaf1fb;
    --pill-txt:  #0969da;
    --div:       #d0d7de;
  }
  @media (prefers-color-scheme: dark) {
    :root {
      --bg:        #0d1117;
      --card:      #161b22;
      --border:    #30363d;
      --primary:   #e6edf3;
      --secondary: #848d97;
      --muted:     #7d8590;
      --accent:    #2f81f7;
      --green:     #3fb950;
      --yellow:    #d29922;
      --red:       #f85149;
      --hover:     #21262d;
      --spark-bg:  #1c2128;
      --spark:     #58a6ff;
      --pill:      #1c2d3f;
      --pill-txt:  #58a6ff;
      --div:       #30363d;
    }
  }
  
  .bg          { fill: var(--bg); }
  .card        { fill: var(--card); stroke: var(--border); stroke-width: 1; }
  .lang-pill   { fill: var(--pill); }
  .spark-bg    { fill: var(--spark-bg); }
  .spark-line  { stroke: var(--spark); }
  .divider     { stroke: var(--div); stroke-width: 1; }
  .clr-primary   { fill: var(--primary); }
  .clr-secondary { fill: var(--secondary); }
  .clr-muted     { fill: var(--muted); }
  .clr-accent    { fill: var(--accent); }
  .clr-green     { fill: var(--green); }
  .clr-yellow    { fill: var(--yellow); }
  .clr-red       { fill: var(--red); }
  .txt-bold    { font-weight: 600; }
  svg text     { font-family: -apple-system, BlinkMacSystemFont, "Segoe UI", Helvetica, Arial, sans-serif; }
</style>

<rect x="0" y="0" width="820" height="180" rx="8" class="card"/>
  <text x="20" y="24" class="clr-primary txt-bold" text-anchor="start" font-size="14">Contribution History &amp; Activity</text>
  <line x1="20" y1="36" x2="800" y2="36" class="divider"/>
  <text x="20" y="60" class="clr-muted" text-anchor="start" font-size="12">Years Active:</text>
  <text x="100" y="60" class="clr-primary txt-bold" text-anchor="start" font-size="12">5.7</text>
  <text x="160" y="60" class="clr-muted" text-anchor="start" font-size="12">Commits (Last Year):</text>
  <text x="290" y="60" class="clr-primary txt-bold" text-anchor="start" font-size="12">1192</text>
  <text x="360" y="60" class="clr-muted" text-anchor="start" font-size="12">Highest Daily:</text>
  <text x="450" y="60" class="clr-primary txt-bold" text-anchor="start" font-size="12">163</text>
  <polygon points="20,160 20,160 22.137,160 24.274,160 26.411,160 28.5479,159.509 30.6849,160 32.8219,160 34.9589,160 37.0959,160 39.2329,160 41.3699,160 43.5068,160 45.6438,160 47.7808,160 49.9178,160 52.0548,160 54.1918,160 56.3288,160 58.4658,160 60.6027,160 62.7397,160 64.8767,160 67.0137,160 69.1507,160 71.2877,160 73.4247,160 75.5616,160 77.6986,160 79.8356,160 81.9726,160 84.1096,159.018 86.2466,160 88.3836,160 90.5205,160 92.6575,145.276 94.7945,155.583 96.9315,157.546 99.0685,155.583 101.205,157.055 103.342,156.074 105.479,160 107.616,160 109.753,160 111.89,158.037 114.027,159.018 116.164,158.037 118.301,156.564 120.438,160 122.575,158.528 124.712,156.564 126.849,160 128.986,154.11 131.123,149.202 133.26,149.202 135.397,153.62 137.534,141.84 139.671,154.601 141.808,160 143.945,154.601 146.082,160 148.219,160 150.356,157.546 152.493,148.221 154.63,159.018 156.767,160 158.904,158.037 161.041,160 163.178,159.509 165.315,160 167.452,160 169.589,160 171.726,160 173.863,151.656 176,155.583 178.137,156.074 180.274,157.546 182.411,150.675 184.548,160 186.685,158.037 188.822,156.564 190.959,158.037 193.096,156.074 195.233,160 197.37,154.11 199.507,160 201.644,159.509 203.781,160 205.918,160 208.055,157.546 210.192,160 212.329,160 214.466,160 216.603,160 218.74,160 220.877,160 223.014,160 225.151,160 227.288,160 229.425,160 231.562,160 233.699,160 235.836,160 237.973,160 240.11,160 242.247,160 244.384,154.601 246.521,158.037 248.658,160 250.795,160 252.932,160 255.068,160 257.205,160 259.342,160 261.479,160 263.616,160 265.753,160 267.89,160 270.027,160 272.164,160 274.301,160 276.438,160 278.575,160 280.712,160 282.849,160 284.986,160 287.123,160 289.26,160 291.397,160 293.534,157.055 295.671,160 297.808,160 299.945,160 302.082,160 304.219,155.092 306.356,160 308.493,160 310.63,160 312.767,160 314.904,137.423 317.041,153.62 319.178,80 321.315,155.092 323.452,149.202 325.589,155.092 327.726,158.037 329.863,158.528 332,159.509 334.137,156.074 336.274,160 338.411,159.018 340.548,160 342.685,159.509 344.822,159.018 346.959,159.509 349.096,160 351.233,158.528 353.37,160 355.507,159.018 357.644,159.018 359.781,157.546 361.918,157.055 364.055,160 366.192,160 368.329,159.509 370.466,159.509 372.603,158.528 374.74,159.509 376.877,157.055 379.014,157.055 381.151,159.018 383.288,158.528 385.425,147.239 387.562,157.055 389.699,129.08 391.836,147.239 393.973,153.129 396.11,160 398.247,160 400.384,160 402.521,151.656 404.658,158.528 406.795,160 408.932,160 411.068,138.405 413.205,158.528 415.342,160 417.479,160 419.616,160 421.753,160 423.89,160 426.027,160 428.164,160 430.301,160 432.438,160 434.575,160 436.712,160 438.849,160 440.986,160 443.123,160 445.26,160 447.397,159.509 449.534,160 451.671,160 453.808,160 455.945,160 458.082,160 460.219,160 462.356,160 464.493,160 466.63,160 468.767,159.509 470.904,158.037 473.041,160 475.178,160 477.315,160 479.452,160 481.589,160 483.726,160 485.863,160 488,160 490.137,160 492.274,160 494.411,160 496.548,159.509 498.685,158.037 500.822,157.055 502.959,160 505.096,160 507.233,160 509.37,156.564 511.507,157.546 513.644,147.239 515.781,160 517.918,160 520.055,160 522.192,155.092 524.329,148.221 526.466,160 528.603,160 530.74,158.037 532.877,160 535.014,158.037 537.151,160 539.288,160 541.425,160 543.562,160 545.699,160 547.836,160 549.973,159.018 552.11,144.294 554.247,159.018 556.384,160 558.521,139.387 560.658,121.718 562.795,120.736 564.932,147.73 567.068,146.258 569.205,157.055 571.342,160 573.479,160 575.616,160 577.753,160 579.89,160 582.027,160 584.164,160 586.301,160 588.438,157.546 590.575,153.62 592.712,148.712 594.849,160 596.986,149.202 599.123,149.693 601.26,134.969 603.397,146.258 605.534,145.767 607.671,146.258 609.808,150.184 611.945,154.11 614.082,154.601 616.219,154.11 618.356,157.055 620.493,156.564 622.63,159.509 624.767,160 626.904,160 629.041,160 631.178,160 633.315,160 635.452,160 637.589,160 639.726,160 641.863,158.528 644,159.509 646.137,160 648.274,160 650.411,159.509 652.548,142.331 654.685,144.785 656.822,157.055 658.959,158.528 661.096,160 663.233,160 665.37,159.509 667.507,160 669.644,160 671.781,159.018 673.918,153.62 676.055,159.018 678.192,160 680.329,160 682.466,149.693 684.603,155.583 686.74,158.528 688.877,156.074 691.014,155.583 693.151,159.509 695.288,159.509 697.425,160 699.562,160 701.699,151.656 703.836,140.859 705.973,155.092 708.11,160 710.247,141.84 712.384,150.184 714.521,152.147 716.658,160 718.795,160 720.932,160 723.068,160 725.205,160 727.342,160 729.479,160 731.616,160 733.753,160 735.89,160 738.027,160 740.164,160 742.301,158.037 744.438,160 746.575,160 748.712,160 750.849,160 752.986,160 755.123,160 757.26,160 759.397,160 761.534,160 763.671,160 765.808,160 767.945,160 770.082,160 772.219,160 774.356,156.564 776.493,154.601 778.63,160 780.767,160 782.904,160 785.041,160 787.178,159.509 789.315,160 791.452,160 793.589,159.509 795.726,159.509 797.863,160 800,160 800,160" fill="var(--pill)" opacity="0.6"/>
  <polyline points="20,160 22.137,160 24.274,160 26.411,160 28.5479,159.509 30.6849,160 32.8219,160 34.9589,160 37.0959,160 39.2329,160 41.3699,160 43.5068,160 45.6438,160 47.7808,160 49.9178,160 52.0548,160 54.1918,160 56.3288,160 58.4658,160 60.6027,160 62.7397,160 64.8767,160 67.0137,160 69.1507,160 71.2877,160 73.4247,160 75.5616,160 77.6986,160 79.8356,160 81.9726,160 84.1096,159.018 86.2466,160 88.3836,160 90.5205,160 92.6575,145.276 94.7945,155.583 96.9315,157.546 99.0685,155.583 101.205,157.055 103.342,156.074 105.479,160 107.616,160 109.753,160 111.89,158.037 114.027,159.018 116.164,158.037 118.301,156.564 120.438,160 122.575,158.528 124.712,156.564 126.849,160 128.986,154.11 131.123,149.202 133.26,149.202 135.397,153.62 137.534,141.84 139.671,154.601 141.808,160 143.945,154.601 146.082,160 148.219,160 150.356,157.546 152.493,148.221 154.63,159.018 156.767,160 158.904,158.037 161.041,160 163.178,159.509 165.315,160 167.452,160 169.589,160 171.726,160 173.863,151.656 176,155.583 178.137,156.074 180.274,157.546 182.411,150.675 184.548,160 186.685,158.037 188.822,156.564 190.959,158.037 193.096,156.074 195.233,160 197.37,154.11 199.507,160 201.644,159.509 203.781,160 205.918,160 208.055,157.546 210.192,160 212.329,160 214.466,160 216.603,160 218.74,160 220.877,160 223.014,160 225.151,160 227.288,160 229.425,160 231.562,160 233.699,160 235.836,160 237.973,160 240.11,160 242.247,160 244.384,154.601 246.521,158.037 248.658,160 250.795,160 252.932,160 255.068,160 257.205,160 259.342,160 261.479,160 263.616,160 265.753,160 267.89,160 270.027,160 272.164,160 274.301,160 276.438,160 278.575,160 280.712,160 282.849,160 284.986,160 287.123,160 289.26,160 291.397,160 293.534,157.055 295.671,160 297.808,160 299.945,160 302.082,160 304.219,155.092 306.356,160 308.493,160 310.63,160 312.767,160 314.904,137.423 317.041,153.62 319.178,80 321.315,155.092 323.452,149.202 325.589,155.092 327.726,158.037 329.863,158.528 332,159.509 334.137,156.074 336.274,160 338.411,159.018 340.548,160 342.685,159.509 344.822,159.018 346.959,159.509 349.096,160 351.233,158.528 353.37,160 355.507,159.018 357.644,159.018 359.781,157.546 361.918,157.055 364.055,160 366.192,160 368.329,159.509 370.466,159.509 372.603,158.528 374.74,159.509 376.877,157.055 379.014,157.055 381.151,159.018 383.288,158.528 385.425,147.239 387.562,157.055 389.699,129.08 391.836,147.239 393.973,153.129 396.11,160 398.247,160 400.384,160 402.521,151.656 404.658,158.528 406.795,160 408.932,160 411.068,138.405 413.205,158.528 415.342,160 417.479,160 419.616,160 421.753,160 423.89,160 426.027,160 428.164,160 430.301,160 432.438,160 434.575,160 436.712,160 438.849,160 440.986,160 443.123,160 445.26,160 447.397,159.509 449.534,160 451.671,160 453.808,160 455.945,160 458.082,160 460.219,160 462.356,160 464.493,160 466.63,160 468.767,159.509 470.904,158.037 473.041,160 475.178,160 477.315,160 479.452,160 481.589,160 483.726,160 485.863,160 488,160 490.137,160 492.274,160 494.411,160 496.548,159.509 498.685,158.037 500.822,157.055 502.959,160 505.096,160 507.233,160 509.37,156.564 511.507,157.546 513.644,147.239 515.781,160 517.918,160 520.055,160 522.192,155.092 524.329,148.221 526.466,160 528.603,160 530.74,158.037 532.877,160 535.014,158.037 537.151,160 539.288,160 541.425,160 543.562,160 545.699,160 547.836,160 549.973,159.018 552.11,144.294 554.247,159.018 556.384,160 558.521,139.387 560.658,121.718 562.795,120.736 564.932,147.73 567.068,146.258 569.205,157.055 571.342,160 573.479,160 575.616,160 577.753,160 579.89,160 582.027,160 584.164,160 586.301,160 588.438,157.546 590.575,153.62 592.712,148.712 594.849,160 596.986,149.202 599.123,149.693 601.26,134.969 603.397,146.258 605.534,145.767 607.671,146.258 609.808,150.184 611.945,154.11 614.082,154.601 616.219,154.11 618.356,157.055 620.493,156.564 622.63,159.509 624.767,160 626.904,160 629.041,160 631.178,160 633.315,160 635.452,160 637.589,160 639.726,160 641.863,158.528 644,159.509 646.137,160 648.274,160 650.411,159.509 652.548,142.331 654.685,144.785 656.822,157.055 658.959,158.528 661.096,160 663.233,160 665.37,159.509 667.507,160 669.644,160 671.781,159.018 673.918,153.62 676.055,159.018 678.192,160 680.329,160 682.466,149.693 684.603,155.583 686.74,158.528 688.877,156.074 691.014,155.583 693.151,159.509 695.288,159.509 697.425,160 699.562,160 701.699,151.656 703.836,140.859 705.973,155.092 708.11,160 710.247,141.84 712.384,150.184 714.521,152.147 716.658,160 718.795,160 720.932,160 723.068,160 725.205,160 727.342,160 729.479,160 731.616,160 733.753,160 735.89,160 738.027,160 740.164,160 742.301,158.037 744.438,160 746.575,160 748.712,160 750.849,160 752.986,160 755.123,160 757.26,160 759.397,160 761.534,160 763.671,160 765.808,160 767.945,160 770.082,160 772.219,160 774.356,156.564 776.493,154.601 778.63,160 780.767,160 782.904,160 785.041,160 787.178,159.509 789.315,160 791.452,160 793.589,159.509 795.726,159.509 797.863,160 800,160" fill="none" stroke="var(--accent)" stroke-width="1.5" stroke-linecap="round" stroke-linejoin="round"/>
</svg>

