<svg xmlns="http://www.w3.org/2000/svg" width="820" height="180" viewBox="0 0 820 180">

<style>
  :root {
    --bg:        #f6f8fa;
    --card:      #ffffff;
    --border:    #d0d7de;
    --primary:   #1f2328;
    --secondary: #636c76;
    --muted:     #8c959f;
    --accent:    #0969da;
    --green:     #1a7f37;
    --yellow:    #9a6700;
    --red:       #cf222e;
    --hover:     #f3f4f6;
    --spark-bg:  #f0f3f6;
    --spark:     #0969da;
    --pill:      #eaf1fb;
    --pill-txt:  #0969da;
    --div:       #d0d7de;
  }
  @media (prefers-color-scheme: dark) {
    :root {
      --bg:        #0d1117;
      --card:      #161b22;
      --border:    #30363d;
      --primary:   #e6edf3;
      --secondary: #848d97;
      --muted:     #7d8590;
      --accent:    #2f81f7;
      --green:     #3fb950;
      --yellow:    #d29922;
      --red:       #f85149;
      --hover:     #21262d;
      --spark-bg:  #1c2128;
      --spark:     #58a6ff;
      --pill:      #1c2d3f;
      --pill-txt:  #58a6ff;
      --div:       #30363d;
    }
  }
  
  .bg          { fill: var(--bg); }
  .card        { fill: var(--card); stroke: var(--border); stroke-width: 1; }
  .lang-pill   { fill: var(--pill); }
  .spark-bg    { fill: var(--spark-bg); }
  .spark-line  { stroke: var(--spark); }
  .divider     { stroke: var(--div); stroke-width: 1; }
  .clr-primary   { fill: var(--primary); }
  .clr-secondary { fill: var(--secondary); }
  .clr-muted     { fill: var(--muted); }
  .clr-accent    { fill: var(--accent); }
  .clr-green     { fill: var(--green); }
  .clr-yellow    { fill: var(--yellow); }
  .clr-red       { fill: var(--red); }
  .txt-bold    { font-weight: 600; }
  svg text     { font-family: -apple-system, BlinkMacSystemFont, "Segoe UI", Helvetica, Arial, sans-serif; }
</style>

<rect x="0" y="0" width="820" height="180" rx="8" class="card"/>
  <text x="20" y="24" class="clr-primary txt-bold" text-anchor="start" font-size="14">Contribution History &amp; Activity</text>
  <line x1="20" y1="36" x2="800" y2="36" class="divider"/>
  <text x="20" y="60" class="clr-muted" text-anchor="start" font-size="12">Years Active:</text>
  <text x="100" y="60" class="clr-primary txt-bold" text-anchor="start" font-size="12">5.6</text>
  <text x="160" y="60" class="clr-muted" text-anchor="start" font-size="12">Commits (Last Year):</text>
  <text x="290" y="60" class="clr-primary txt-bold" text-anchor="start" font-size="12">1170</text>
  <text x="360" y="60" class="clr-muted" text-anchor="start" font-size="12">Highest Daily:</text>
  <text x="450" y="60" class="clr-primary txt-bold" text-anchor="start" font-size="12">163</text>
  <polygon points="20,160 20,160 22.1138,160 24.2276,160 26.3415,160 28.4553,159.018 30.5691,160 32.6829,160 34.7967,160 36.9106,160 39.0244,160 41.1382,160 43.252,160 45.3659,160 47.4797,160 49.5935,160 51.7073,160 53.8211,160 55.935,160 58.0488,160 60.1626,160 62.2764,160 64.3902,160 66.5041,160 68.6179,160 70.7317,160 72.8455,160 74.9593,160 77.0732,160 79.187,160 81.3008,160 83.4146,160 85.5285,160 87.6423,160 89.7561,160 91.8699,160 93.9837,160 96.0976,160 98.2114,160 100.325,160 102.439,159.509 104.553,160 106.667,160 108.78,160 110.894,160 113.008,160 115.122,160 117.236,160 119.35,160 121.463,160 123.577,160 125.691,160 127.805,160 129.919,160 132.033,160 134.146,160 136.26,160 138.374,160 140.488,160 142.602,160 144.715,160 146.829,160 148.943,160 151.057,160 153.171,160 155.285,160 157.398,159.018 159.512,160 161.626,160 163.74,160 165.854,145.276 167.967,155.583 170.081,157.546 172.195,155.583 174.309,157.055 176.423,156.074 178.537,160 180.65,160 182.764,160 184.878,158.037 186.992,159.018 189.106,158.037 191.22,156.564 193.333,160 195.447,158.528 197.561,156.564 199.675,160 201.789,154.11 203.902,149.202 206.016,149.202 208.13,153.62 210.244,141.84 212.358,154.601 214.472,160 216.585,154.601 218.699,160 220.813,160 222.927,157.546 225.041,148.221 227.154,159.018 229.268,160 231.382,158.037 233.496,160 235.61,159.509 237.724,160 239.837,160 241.951,160 244.065,160 246.179,151.656 248.293,155.583 250.407,156.074 252.52,157.546 254.634,150.675 256.748,160 258.862,158.037 260.976,156.564 263.089,158.037 265.203,156.074 267.317,160 269.431,154.11 271.545,160 273.659,159.509 275.772,160 277.886,160 280,157.546 282.114,160 284.228,160 286.341,160 288.455,160 290.569,160 292.683,160 294.797,160 296.911,160 299.024,160 301.138,160 303.252,160 305.366,160 307.48,160 309.593,160 311.707,160 313.821,160 315.935,154.601 318.049,158.037 320.163,160 322.276,160 324.39,160 326.504,160 328.618,160 330.732,160 332.846,160 334.959,160 337.073,160 339.187,160 341.301,160 343.415,160 345.528,160 347.642,160 349.756,160 351.87,160 353.984,160 356.098,160 358.211,160 360.325,160 362.439,160 364.553,157.055 366.667,160 368.78,160 370.894,160 373.008,160 375.122,155.092 377.236,160 379.35,160 381.463,160 383.577,160 385.691,137.423 387.805,153.62 389.919,80 392.033,155.092 394.146,149.202 396.26,155.092 398.374,158.037 400.488,158.528 402.602,159.509 404.715,156.074 406.829,160 408.943,159.018 411.057,160 413.171,159.509 415.285,159.018 417.398,159.509 419.512,160 421.626,158.528 423.74,160 425.854,159.018 427.967,159.018 430.081,157.546 432.195,157.055 434.309,160 436.423,160 438.537,159.509 440.65,159.509 442.764,158.528 444.878,159.509 446.992,157.055 449.106,157.055 451.22,159.018 453.333,158.528 455.447,147.239 457.561,157.055 459.675,129.08 461.789,147.239 463.902,153.129 466.016,160 468.13,160 470.244,160 472.358,151.656 474.472,158.528 476.585,160 478.699,160 480.813,138.405 482.927,158.528 485.041,160 487.154,160 489.268,160 491.382,160 493.496,160 495.61,160 497.724,160 499.837,160 501.951,160 504.065,160 506.179,160 508.293,160 510.407,160 512.52,160 514.634,160 516.748,159.509 518.862,160 520.976,160 523.089,160 525.203,160 527.317,160 529.431,160 531.545,160 533.659,160 535.772,160 537.886,159.509 540,158.037 542.114,160 544.228,160 546.341,160 548.455,160 550.569,160 552.683,160 554.797,160 556.911,160 559.024,160 561.138,160 563.252,160 565.366,159.509 567.48,158.037 569.593,157.055 571.707,160 573.821,160 575.935,160 578.049,156.564 580.163,157.546 582.276,147.239 584.39,160 586.504,160 588.618,160 590.732,155.092 592.846,148.221 594.959,160 597.073,160 599.187,158.037 601.301,160 603.415,158.037 605.528,160 607.642,160 609.756,160 611.87,160 613.984,160 616.098,160 618.211,159.018 620.325,144.294 622.439,159.018 624.553,160 626.667,139.387 628.78,121.718 630.894,120.736 633.008,147.73 635.122,146.258 637.236,157.055 639.35,160 641.463,160 643.577,160 645.691,160 647.805,160 649.919,160 652.033,160 654.146,160 656.26,157.546 658.374,153.62 660.488,148.712 662.602,160 664.715,149.202 666.829,149.693 668.943,134.969 671.057,146.258 673.171,145.767 675.285,146.258 677.398,150.184 679.512,154.11 681.626,154.601 683.74,154.11 685.854,157.055 687.967,156.564 690.081,159.509 692.195,160 694.309,160 696.423,160 698.537,160 700.65,160 702.764,160 704.878,160 706.992,160 709.106,158.528 711.22,159.509 713.333,160 715.447,160 717.561,159.509 719.675,142.331 721.789,144.785 723.902,157.055 726.016,158.528 728.13,160 730.244,160 732.358,159.509 734.472,160 736.585,160 738.699,159.018 740.813,153.62 742.927,159.018 745.041,160 747.154,160 749.268,149.693 751.382,155.583 753.496,158.528 755.61,156.074 757.724,155.583 759.837,159.509 761.951,159.509 764.065,160 766.179,160 768.293,151.656 770.407,140.859 772.52,155.092 774.634,160 776.748,141.84 778.862,150.184 780.976,152.147 783.089,160 785.203,160 787.317,160 789.431,160 791.545,160 793.659,160 795.772,160 797.886,160 800,160 800,160" fill="var(--pill)" opacity="0.6"/>
  <polyline points="20,160 22.1138,160 24.2276,160 26.3415,160 28.4553,159.018 30.5691,160 32.6829,160 34.7967,160 36.9106,160 39.0244,160 41.1382,160 43.252,160 45.3659,160 47.4797,160 49.5935,160 51.7073,160 53.8211,160 55.935,160 58.0488,160 60.1626,160 62.2764,160 64.3902,160 66.5041,160 68.6179,160 70.7317,160 72.8455,160 74.9593,160 77.0732,160 79.187,160 81.3008,160 83.4146,160 85.5285,160 87.6423,160 89.7561,160 91.8699,160 93.9837,160 96.0976,160 98.2114,160 100.325,160 102.439,159.509 104.553,160 106.667,160 108.78,160 110.894,160 113.008,160 115.122,160 117.236,160 119.35,160 121.463,160 123.577,160 125.691,160 127.805,160 129.919,160 132.033,160 134.146,160 136.26,160 138.374,160 140.488,160 142.602,160 144.715,160 146.829,160 148.943,160 151.057,160 153.171,160 155.285,160 157.398,159.018 159.512,160 161.626,160 163.74,160 165.854,145.276 167.967,155.583 170.081,157.546 172.195,155.583 174.309,157.055 176.423,156.074 178.537,160 180.65,160 182.764,160 184.878,158.037 186.992,159.018 189.106,158.037 191.22,156.564 193.333,160 195.447,158.528 197.561,156.564 199.675,160 201.789,154.11 203.902,149.202 206.016,149.202 208.13,153.62 210.244,141.84 212.358,154.601 214.472,160 216.585,154.601 218.699,160 220.813,160 222.927,157.546 225.041,148.221 227.154,159.018 229.268,160 231.382,158.037 233.496,160 235.61,159.509 237.724,160 239.837,160 241.951,160 244.065,160 246.179,151.656 248.293,155.583 250.407,156.074 252.52,157.546 254.634,150.675 256.748,160 258.862,158.037 260.976,156.564 263.089,158.037 265.203,156.074 267.317,160 269.431,154.11 271.545,160 273.659,159.509 275.772,160 277.886,160 280,157.546 282.114,160 284.228,160 286.341,160 288.455,160 290.569,160 292.683,160 294.797,160 296.911,160 299.024,160 301.138,160 303.252,160 305.366,160 307.48,160 309.593,160 311.707,160 313.821,160 315.935,154.601 318.049,158.037 320.163,160 322.276,160 324.39,160 326.504,160 328.618,160 330.732,160 332.846,160 334.959,160 337.073,160 339.187,160 341.301,160 343.415,160 345.528,160 347.642,160 349.756,160 351.87,160 353.984,160 356.098,160 358.211,160 360.325,160 362.439,160 364.553,157.055 366.667,160 368.78,160 370.894,160 373.008,160 375.122,155.092 377.236,160 379.35,160 381.463,160 383.577,160 385.691,137.423 387.805,153.62 389.919,80 392.033,155.092 394.146,149.202 396.26,155.092 398.374,158.037 400.488,158.528 402.602,159.509 404.715,156.074 406.829,160 408.943,159.018 411.057,160 413.171,159.509 415.285,159.018 417.398,159.509 419.512,160 421.626,158.528 423.74,160 425.854,159.018 427.967,159.018 430.081,157.546 432.195,157.055 434.309,160 436.423,160 438.537,159.509 440.65,159.509 442.764,158.528 444.878,159.509 446.992,157.055 449.106,157.055 451.22,159.018 453.333,158.528 455.447,147.239 457.561,157.055 459.675,129.08 461.789,147.239 463.902,153.129 466.016,160 468.13,160 470.244,160 472.358,151.656 474.472,158.528 476.585,160 478.699,160 480.813,138.405 482.927,158.528 485.041,160 487.154,160 489.268,160 491.382,160 493.496,160 495.61,160 497.724,160 499.837,160 501.951,160 504.065,160 506.179,160 508.293,160 510.407,160 512.52,160 514.634,160 516.748,159.509 518.862,160 520.976,160 523.089,160 525.203,160 527.317,160 529.431,160 531.545,160 533.659,160 535.772,160 537.886,159.509 540,158.037 542.114,160 544.228,160 546.341,160 548.455,160 550.569,160 552.683,160 554.797,160 556.911,160 559.024,160 561.138,160 563.252,160 565.366,159.509 567.48,158.037 569.593,157.055 571.707,160 573.821,160 575.935,160 578.049,156.564 580.163,157.546 582.276,147.239 584.39,160 586.504,160 588.618,160 590.732,155.092 592.846,148.221 594.959,160 597.073,160 599.187,158.037 601.301,160 603.415,158.037 605.528,160 607.642,160 609.756,160 611.87,160 613.984,160 616.098,160 618.211,159.018 620.325,144.294 622.439,159.018 624.553,160 626.667,139.387 628.78,121.718 630.894,120.736 633.008,147.73 635.122,146.258 637.236,157.055 639.35,160 641.463,160 643.577,160 645.691,160 647.805,160 649.919,160 652.033,160 654.146,160 656.26,157.546 658.374,153.62 660.488,148.712 662.602,160 664.715,149.202 666.829,149.693 668.943,134.969 671.057,146.258 673.171,145.767 675.285,146.258 677.398,150.184 679.512,154.11 681.626,154.601 683.74,154.11 685.854,157.055 687.967,156.564 690.081,159.509 692.195,160 694.309,160 696.423,160 698.537,160 700.65,160 702.764,160 704.878,160 706.992,160 709.106,158.528 711.22,159.509 713.333,160 715.447,160 717.561,159.509 719.675,142.331 721.789,144.785 723.902,157.055 726.016,158.528 728.13,160 730.244,160 732.358,159.509 734.472,160 736.585,160 738.699,159.018 740.813,153.62 742.927,159.018 745.041,160 747.154,160 749.268,149.693 751.382,155.583 753.496,158.528 755.61,156.074 757.724,155.583 759.837,159.509 761.951,159.509 764.065,160 766.179,160 768.293,151.656 770.407,140.859 772.52,155.092 774.634,160 776.748,141.84 778.862,150.184 780.976,152.147 783.089,160 785.203,160 787.317,160 789.431,160 791.545,160 793.659,160 795.772,160 797.886,160 800,160" fill="none" stroke="var(--accent)" stroke-width="1.5" stroke-linecap="round" stroke-linejoin="round"/>
</svg>

