<svg xmlns="http://www.w3.org/2000/svg" width="820" height="180" viewBox="0 0 820 180">

<style>
  :root {
    --bg:        #f6f8fa;
    --card:      #ffffff;
    --border:    #d0d7de;
    --primary:   #1f2328;
    --secondary: #636c76;
    --muted:     #8c959f;
    --accent:    #0969da;
    --green:     #1a7f37;
    --yellow:    #9a6700;
    --red:       #cf222e;
    --hover:     #f3f4f6;
    --spark-bg:  #f0f3f6;
    --spark:     #0969da;
    --pill:      #eaf1fb;
    --pill-txt:  #0969da;
    --div:       #d0d7de;
  }
  @media (prefers-color-scheme: dark) {
    :root {
      --bg:        #0d1117;
      --card:      #161b22;
      --border:    #30363d;
      --primary:   #e6edf3;
      --secondary: #848d97;
      --muted:     #7d8590;
      --accent:    #2f81f7;
      --green:     #3fb950;
      --yellow:    #d29922;
      --red:       #f85149;
      --hover:     #21262d;
      --spark-bg:  #1c2128;
      --spark:     #58a6ff;
      --pill:      #1c2d3f;
      --pill-txt:  #58a6ff;
      --div:       #30363d;
    }
  }
  
  .bg          { fill: var(--bg); }
  .card        { fill: var(--card); stroke: var(--border); stroke-width: 1; }
  .lang-pill   { fill: var(--pill); }
  .spark-bg    { fill: var(--spark-bg); }
  .spark-line  { stroke: var(--spark); }
  .divider     { stroke: var(--div); stroke-width: 1; }
  .clr-primary   { fill: var(--primary); }
  .clr-secondary { fill: var(--secondary); }
  .clr-muted     { fill: var(--muted); }
  .clr-accent    { fill: var(--accent); }
  .clr-green     { fill: var(--green); }
  .clr-yellow    { fill: var(--yellow); }
  .clr-red       { fill: var(--red); }
  .txt-bold    { font-weight: 600; }
  svg text     { font-family: -apple-system, BlinkMacSystemFont, "Segoe UI", Helvetica, Arial, sans-serif; }
</style>

<rect x="0" y="0" width="820" height="180" rx="8" class="card"/>
  <text x="20" y="24" class="clr-primary txt-bold" text-anchor="start" font-size="14">Contribution History &amp; Activity</text>
  <line x1="20" y1="36" x2="800" y2="36" class="divider"/>
  <text x="20" y="60" class="clr-muted" text-anchor="start" font-size="12">Years Active:</text>
  <text x="100" y="60" class="clr-primary txt-bold" text-anchor="start" font-size="12">5.8</text>
  <text x="160" y="60" class="clr-muted" text-anchor="start" font-size="12">Commits (Last Year):</text>
  <text x="290" y="60" class="clr-primary txt-bold" text-anchor="start" font-size="12">1229</text>
  <text x="360" y="60" class="clr-muted" text-anchor="start" font-size="12">Highest Daily:</text>
  <text x="450" y="60" class="clr-primary txt-bold" text-anchor="start" font-size="12">163</text>
  <polygon points="20,160 20,160 22.1253,160 24.2507,159.018 26.376,160 28.5014,160 30.6267,160 32.752,145.276 34.8774,155.583 37.0027,157.546 39.1281,155.583 41.2534,157.055 43.3787,156.074 45.5041,160 47.6294,160 49.7548,160 51.8801,158.037 54.0054,159.018 56.1308,158.037 58.2561,156.564 60.3815,160 62.5068,158.528 64.6322,156.564 66.7575,160 68.8828,154.11 71.0082,149.202 73.1335,149.202 75.2589,153.62 77.3842,141.84 79.5095,154.601 81.6349,160 83.7602,154.601 85.8856,160 88.0109,160 90.1362,157.546 92.2616,148.221 94.3869,159.018 96.5123,160 98.6376,158.037 100.763,160 102.888,159.509 105.014,160 107.139,160 109.264,160 111.39,160 113.515,151.656 115.64,155.583 117.766,156.074 119.891,157.546 122.016,150.675 124.142,160 126.267,158.037 128.392,156.564 130.518,158.037 132.643,156.074 134.768,160 136.894,154.11 139.019,160 141.144,159.509 143.27,160 145.395,160 147.52,157.546 149.646,160 151.771,160 153.896,160 156.022,160 158.147,160 160.272,160 162.398,160 164.523,160 166.649,160 168.774,160 170.899,160 173.025,160 175.15,160 177.275,160 179.401,160 181.526,160 183.651,154.601 185.777,158.037 187.902,160 190.027,160 192.153,160 194.278,160 196.403,160 198.529,160 200.654,160 202.779,160 204.905,160 207.03,160 209.155,160 211.281,160 213.406,160 215.531,160 217.657,160 219.782,160 221.907,160 224.033,160 226.158,160 228.283,160 230.409,160 232.534,157.055 234.659,160 236.785,160 238.91,160 241.035,160 243.161,155.092 245.286,160 247.411,160 249.537,160 251.662,160 253.787,137.423 255.913,153.62 258.038,80 260.163,155.092 262.289,149.202 264.414,155.092 266.54,158.037 268.665,158.528 270.79,159.509 272.916,156.074 275.041,160 277.166,159.018 279.292,160 281.417,159.509 283.542,159.018 285.668,159.509 287.793,160 289.918,158.528 292.044,160 294.169,159.018 296.294,159.018 298.42,157.546 300.545,157.055 302.67,160 304.796,160 306.921,159.509 309.046,159.509 311.172,158.528 313.297,159.509 315.422,157.055 317.548,157.055 319.673,159.018 321.798,158.528 323.924,147.239 326.049,157.055 328.174,129.08 330.3,147.239 332.425,153.129 334.55,160 336.676,160 338.801,160 340.926,151.656 343.052,158.528 345.177,160 347.302,160 349.428,138.405 351.553,158.528 353.678,160 355.804,160 357.929,160 360.054,160 362.18,160 364.305,160 366.431,160 368.556,160 370.681,160 372.807,160 374.932,160 377.057,160 379.183,160 381.308,160 383.433,160 385.559,159.509 387.684,160 389.809,160 391.935,160 394.06,160 396.185,160 398.311,160 400.436,160 402.561,160 404.687,160 406.812,159.509 408.937,158.037 411.063,160 413.188,160 415.313,160 417.439,160 419.564,160 421.689,160 423.815,160 425.94,160 428.065,160 430.191,160 432.316,160 434.441,159.509 436.567,158.037 438.692,157.055 440.817,160 442.943,160 445.068,160 447.193,156.564 449.319,157.546 451.444,147.239 453.569,160 455.695,160 457.82,160 459.946,155.092 462.071,148.221 464.196,160 466.322,160 468.447,158.037 470.572,160 472.698,158.037 474.823,160 476.948,160 479.074,160 481.199,160 483.324,160 485.45,160 487.575,159.018 489.7,144.294 491.826,159.018 493.951,160 496.076,139.387 498.202,121.718 500.327,120.736 502.452,147.73 504.578,146.258 506.703,157.055 508.828,160 510.954,160 513.079,160 515.204,160 517.33,160 519.455,160 521.58,160 523.706,160 525.831,157.546 527.956,153.62 530.082,148.712 532.207,160 534.332,149.202 536.458,149.693 538.583,134.969 540.708,146.258 542.834,145.767 544.959,146.258 547.084,150.184 549.21,154.11 551.335,154.601 553.46,154.11 555.586,157.055 557.711,156.564 559.837,159.509 561.962,160 564.087,160 566.213,160 568.338,160 570.463,160 572.589,160 574.714,160 576.839,160 578.965,158.528 581.09,159.509 583.215,160 585.341,160 587.466,159.509 589.591,142.331 591.717,144.785 593.842,157.055 595.967,158.528 598.093,160 600.218,160 602.343,159.509 604.469,160 606.594,160 608.719,159.018 610.845,153.62 612.97,159.018 615.095,160 617.221,160 619.346,149.693 621.471,155.583 623.597,158.528 625.722,156.074 627.847,155.583 629.973,159.509 632.098,159.509 634.223,160 636.349,160 638.474,151.656 640.599,140.859 642.725,155.092 644.85,160 646.975,141.84 649.101,150.184 651.226,152.147 653.351,160 655.477,160 657.602,160 659.728,160 661.853,160 663.978,160 666.104,160 668.229,160 670.354,160 672.48,160 674.605,160 676.73,160 678.856,158.037 680.981,160 683.106,160 685.232,160 687.357,160 689.482,160 691.608,160 693.733,160 695.858,160 697.984,160 700.109,160 702.234,160 704.36,160 706.485,160 708.61,160 710.736,156.564 712.861,154.601 714.986,160 717.112,160 719.237,160 721.362,160 723.488,159.509 725.613,160 727.738,160 729.864,159.509 731.989,159.509 734.114,160 736.24,159.509 738.365,160 740.49,160 742.616,156.074 744.741,159.509 746.866,159.509 748.992,160 751.117,158.037 753.243,160 755.368,160 757.493,160 759.619,160 761.744,160 763.869,160 765.995,160 768.12,150.184 770.245,158.528 772.371,159.509 774.496,159.018 776.621,160 778.747,160 780.872,160 782.997,160 785.123,160 787.248,160 789.373,160 791.499,160 793.624,160 795.749,160 797.875,160 800,160 800,160" fill="var(--pill)" opacity="0.6"/>
  <polyline points="20,160 22.1253,160 24.2507,159.018 26.376,160 28.5014,160 30.6267,160 32.752,145.276 34.8774,155.583 37.0027,157.546 39.1281,155.583 41.2534,157.055 43.3787,156.074 45.5041,160 47.6294,160 49.7548,160 51.8801,158.037 54.0054,159.018 56.1308,158.037 58.2561,156.564 60.3815,160 62.5068,158.528 64.6322,156.564 66.7575,160 68.8828,154.11 71.0082,149.202 73.1335,149.202 75.2589,153.62 77.3842,141.84 79.5095,154.601 81.6349,160 83.7602,154.601 85.8856,160 88.0109,160 90.1362,157.546 92.2616,148.221 94.3869,159.018 96.5123,160 98.6376,158.037 100.763,160 102.888,159.509 105.014,160 107.139,160 109.264,160 111.39,160 113.515,151.656 115.64,155.583 117.766,156.074 119.891,157.546 122.016,150.675 124.142,160 126.267,158.037 128.392,156.564 130.518,158.037 132.643,156.074 134.768,160 136.894,154.11 139.019,160 141.144,159.509 143.27,160 145.395,160 147.52,157.546 149.646,160 151.771,160 153.896,160 156.022,160 158.147,160 160.272,160 162.398,160 164.523,160 166.649,160 168.774,160 170.899,160 173.025,160 175.15,160 177.275,160 179.401,160 181.526,160 183.651,154.601 185.777,158.037 187.902,160 190.027,160 192.153,160 194.278,160 196.403,160 198.529,160 200.654,160 202.779,160 204.905,160 207.03,160 209.155,160 211.281,160 213.406,160 215.531,160 217.657,160 219.782,160 221.907,160 224.033,160 226.158,160 228.283,160 230.409,160 232.534,157.055 234.659,160 236.785,160 238.91,160 241.035,160 243.161,155.092 245.286,160 247.411,160 249.537,160 251.662,160 253.787,137.423 255.913,153.62 258.038,80 260.163,155.092 262.289,149.202 264.414,155.092 266.54,158.037 268.665,158.528 270.79,159.509 272.916,156.074 275.041,160 277.166,159.018 279.292,160 281.417,159.509 283.542,159.018 285.668,159.509 287.793,160 289.918,158.528 292.044,160 294.169,159.018 296.294,159.018 298.42,157.546 300.545,157.055 302.67,160 304.796,160 306.921,159.509 309.046,159.509 311.172,158.528 313.297,159.509 315.422,157.055 317.548,157.055 319.673,159.018 321.798,158.528 323.924,147.239 326.049,157.055 328.174,129.08 330.3,147.239 332.425,153.129 334.55,160 336.676,160 338.801,160 340.926,151.656 343.052,158.528 345.177,160 347.302,160 349.428,138.405 351.553,158.528 353.678,160 355.804,160 357.929,160 360.054,160 362.18,160 364.305,160 366.431,160 368.556,160 370.681,160 372.807,160 374.932,160 377.057,160 379.183,160 381.308,160 383.433,160 385.559,159.509 387.684,160 389.809,160 391.935,160 394.06,160 396.185,160 398.311,160 400.436,160 402.561,160 404.687,160 406.812,159.509 408.937,158.037 411.063,160 413.188,160 415.313,160 417.439,160 419.564,160 421.689,160 423.815,160 425.94,160 428.065,160 430.191,160 432.316,160 434.441,159.509 436.567,158.037 438.692,157.055 440.817,160 442.943,160 445.068,160 447.193,156.564 449.319,157.546 451.444,147.239 453.569,160 455.695,160 457.82,160 459.946,155.092 462.071,148.221 464.196,160 466.322,160 468.447,158.037 470.572,160 472.698,158.037 474.823,160 476.948,160 479.074,160 481.199,160 483.324,160 485.45,160 487.575,159.018 489.7,144.294 491.826,159.018 493.951,160 496.076,139.387 498.202,121.718 500.327,120.736 502.452,147.73 504.578,146.258 506.703,157.055 508.828,160 510.954,160 513.079,160 515.204,160 517.33,160 519.455,160 521.58,160 523.706,160 525.831,157.546 527.956,153.62 530.082,148.712 532.207,160 534.332,149.202 536.458,149.693 538.583,134.969 540.708,146.258 542.834,145.767 544.959,146.258 547.084,150.184 549.21,154.11 551.335,154.601 553.46,154.11 555.586,157.055 557.711,156.564 559.837,159.509 561.962,160 564.087,160 566.213,160 568.338,160 570.463,160 572.589,160 574.714,160 576.839,160 578.965,158.528 581.09,159.509 583.215,160 585.341,160 587.466,159.509 589.591,142.331 591.717,144.785 593.842,157.055 595.967,158.528 598.093,160 600.218,160 602.343,159.509 604.469,160 606.594,160 608.719,159.018 610.845,153.62 612.97,159.018 615.095,160 617.221,160 619.346,149.693 621.471,155.583 623.597,158.528 625.722,156.074 627.847,155.583 629.973,159.509 632.098,159.509 634.223,160 636.349,160 638.474,151.656 640.599,140.859 642.725,155.092 644.85,160 646.975,141.84 649.101,150.184 651.226,152.147 653.351,160 655.477,160 657.602,160 659.728,160 661.853,160 663.978,160 666.104,160 668.229,160 670.354,160 672.48,160 674.605,160 676.73,160 678.856,158.037 680.981,160 683.106,160 685.232,160 687.357,160 689.482,160 691.608,160 693.733,160 695.858,160 697.984,160 700.109,160 702.234,160 704.36,160 706.485,160 708.61,160 710.736,156.564 712.861,154.601 714.986,160 717.112,160 719.237,160 721.362,160 723.488,159.509 725.613,160 727.738,160 729.864,159.509 731.989,159.509 734.114,160 736.24,159.509 738.365,160 740.49,160 742.616,156.074 744.741,159.509 746.866,159.509 748.992,160 751.117,158.037 753.243,160 755.368,160 757.493,160 759.619,160 761.744,160 763.869,160 765.995,160 768.12,150.184 770.245,158.528 772.371,159.509 774.496,159.018 776.621,160 778.747,160 780.872,160 782.997,160 785.123,160 787.248,160 789.373,160 791.499,160 793.624,160 795.749,160 797.875,160 800,160" fill="none" stroke="var(--accent)" stroke-width="1.5" stroke-linecap="round" stroke-linejoin="round"/>
</svg>

