<svg xmlns="http://www.w3.org/2000/svg" width="820" height="180" viewBox="0 0 820 180">

<style>
  :root {
    --bg:        #f6f8fa;
    --card:      #ffffff;
    --border:    #d0d7de;
    --primary:   #1f2328;
    --secondary: #636c76;
    --muted:     #8c959f;
    --accent:    #0969da;
    --green:     #1a7f37;
    --yellow:    #9a6700;
    --red:       #cf222e;
    --hover:     #f3f4f6;
    --spark-bg:  #f0f3f6;
    --spark:     #0969da;
    --pill:      #eaf1fb;
    --pill-txt:  #0969da;
    --div:       #d0d7de;
  }
  @media (prefers-color-scheme: dark) {
    :root {
      --bg:        #0d1117;
      --card:      #161b22;
      --border:    #30363d;
      --primary:   #e6edf3;
      --secondary: #848d97;
      --muted:     #7d8590;
      --accent:    #2f81f7;
      --green:     #3fb950;
      --yellow:    #d29922;
      --red:       #f85149;
      --hover:     #21262d;
      --spark-bg:  #1c2128;
      --spark:     #58a6ff;
      --pill:      #1c2d3f;
      --pill-txt:  #58a6ff;
      --div:       #30363d;
    }
  }
  
  .bg          { fill: var(--bg); }
  .card        { fill: var(--card); stroke: var(--border); stroke-width: 1; }
  .lang-pill   { fill: var(--pill); }
  .spark-bg    { fill: var(--spark-bg); }
  .spark-line  { stroke: var(--spark); }
  .divider     { stroke: var(--div); stroke-width: 1; }
  .clr-primary   { fill: var(--primary); }
  .clr-secondary { fill: var(--secondary); }
  .clr-muted     { fill: var(--muted); }
  .clr-accent    { fill: var(--accent); }
  .clr-green     { fill: var(--green); }
  .clr-yellow    { fill: var(--yellow); }
  .clr-red       { fill: var(--red); }
  .txt-bold    { font-weight: 600; }
  svg text     { font-family: -apple-system, BlinkMacSystemFont, "Segoe UI", Helvetica, Arial, sans-serif; }
</style>

<rect x="0" y="0" width="820" height="180" rx="8" class="card"/>
  <text x="20" y="24" class="clr-primary txt-bold" text-anchor="start" font-size="14">Contribution History &amp; Activity</text>
  <line x1="20" y1="36" x2="800" y2="36" class="divider"/>
  <text x="20" y="60" class="clr-muted" text-anchor="start" font-size="12">Years Active:</text>
  <text x="100" y="60" class="clr-primary txt-bold" text-anchor="start" font-size="12">5.7</text>
  <text x="160" y="60" class="clr-muted" text-anchor="start" font-size="12">Commits (Last Year):</text>
  <text x="290" y="60" class="clr-primary txt-bold" text-anchor="start" font-size="12">1191</text>
  <text x="360" y="60" class="clr-muted" text-anchor="start" font-size="12">Highest Daily:</text>
  <text x="450" y="60" class="clr-primary txt-bold" text-anchor="start" font-size="12">163</text>
  <polygon points="20,160 20,160 22.1196,160 24.2391,160 26.3587,160 28.4783,160 30.5978,160 32.7174,160 34.837,160 36.9565,160 39.0761,160 41.1957,160 43.3152,159.509 45.4348,160 47.5543,160 49.6739,160 51.7935,160 53.913,160 56.0326,160 58.1522,160 60.2717,160 62.3913,160 64.5109,160 66.6304,160 68.75,160 70.8696,160 72.9891,160 75.1087,160 77.2283,160 79.3478,160 81.4674,160 83.587,160 85.7065,160 87.8261,160 89.9457,160 92.0652,160 94.1848,160 96.3043,160 98.4239,159.018 100.543,160 102.663,160 104.783,160 106.902,145.276 109.022,155.583 111.141,157.546 113.261,155.583 115.38,157.055 117.5,156.074 119.62,160 121.739,160 123.859,160 125.978,158.037 128.098,159.018 130.217,158.037 132.337,156.564 134.457,160 136.576,158.528 138.696,156.564 140.815,160 142.935,154.11 145.054,149.202 147.174,149.202 149.293,153.62 151.413,141.84 153.533,154.601 155.652,160 157.772,154.601 159.891,160 162.011,160 164.13,157.546 166.25,148.221 168.37,159.018 170.489,160 172.609,158.037 174.728,160 176.848,159.509 178.967,160 181.087,160 183.207,160 185.326,160 187.446,151.656 189.565,155.583 191.685,156.074 193.804,157.546 195.924,150.675 198.043,160 200.163,158.037 202.283,156.564 204.402,158.037 206.522,156.074 208.641,160 210.761,154.11 212.88,160 215,159.509 217.12,160 219.239,160 221.359,157.546 223.478,160 225.598,160 227.717,160 229.837,160 231.957,160 234.076,160 236.196,160 238.315,160 240.435,160 242.554,160 244.674,160 246.793,160 248.913,160 251.033,160 253.152,160 255.272,160 257.391,154.601 259.511,158.037 261.63,160 263.75,160 265.87,160 267.989,160 270.109,160 272.228,160 274.348,160 276.467,160 278.587,160 280.707,160 282.826,160 284.946,160 287.065,160 289.185,160 291.304,160 293.424,160 295.543,160 297.663,160 299.783,160 301.902,160 304.022,160 306.141,157.055 308.261,160 310.38,160 312.5,160 314.62,160 316.739,155.092 318.859,160 320.978,160 323.098,160 325.217,160 327.337,137.423 329.457,153.62 331.576,80 333.696,155.092 335.815,149.202 337.935,155.092 340.054,158.037 342.174,158.528 344.293,159.509 346.413,156.074 348.533,160 350.652,159.018 352.772,160 354.891,159.509 357.011,159.018 359.13,159.509 361.25,160 363.37,158.528 365.489,160 367.609,159.018 369.728,159.018 371.848,157.546 373.967,157.055 376.087,160 378.207,160 380.326,159.509 382.446,159.509 384.565,158.528 386.685,159.509 388.804,157.055 390.924,157.055 393.043,159.018 395.163,158.528 397.283,147.239 399.402,157.055 401.522,129.08 403.641,147.239 405.761,153.129 407.88,160 410,160 412.12,160 414.239,151.656 416.359,158.528 418.478,160 420.598,160 422.717,138.405 424.837,158.528 426.957,160 429.076,160 431.196,160 433.315,160 435.435,160 437.554,160 439.674,160 441.793,160 443.913,160 446.033,160 448.152,160 450.272,160 452.391,160 454.511,160 456.63,160 458.75,159.509 460.87,160 462.989,160 465.109,160 467.228,160 469.348,160 471.467,160 473.587,160 475.707,160 477.826,160 479.946,159.509 482.065,158.037 484.185,160 486.304,160 488.424,160 490.543,160 492.663,160 494.783,160 496.902,160 499.022,160 501.141,160 503.261,160 505.38,160 507.5,159.509 509.62,158.037 511.739,157.055 513.859,160 515.978,160 518.098,160 520.217,156.564 522.337,157.546 524.457,147.239 526.576,160 528.696,160 530.815,160 532.935,155.092 535.054,148.221 537.174,160 539.293,160 541.413,158.037 543.533,160 545.652,158.037 547.772,160 549.891,160 552.011,160 554.13,160 556.25,160 558.37,160 560.489,159.018 562.609,144.294 564.728,159.018 566.848,160 568.967,139.387 571.087,121.718 573.207,120.736 575.326,147.73 577.446,146.258 579.565,157.055 581.685,160 583.804,160 585.924,160 588.043,160 590.163,160 592.283,160 594.402,160 596.522,160 598.641,157.546 600.761,153.62 602.88,148.712 605,160 607.12,149.202 609.239,149.693 611.359,134.969 613.478,146.258 615.598,145.767 617.717,146.258 619.837,150.184 621.957,154.11 624.076,154.601 626.196,154.11 628.315,157.055 630.435,156.564 632.554,159.509 634.674,160 636.793,160 638.913,160 641.033,160 643.152,160 645.272,160 647.391,160 649.511,160 651.63,158.528 653.75,159.509 655.87,160 657.989,160 660.109,159.509 662.228,142.331 664.348,144.785 666.467,157.055 668.587,158.528 670.707,160 672.826,160 674.946,159.509 677.065,160 679.185,160 681.304,159.018 683.424,153.62 685.543,159.018 687.663,160 689.783,160 691.902,149.693 694.022,155.583 696.141,158.528 698.261,156.074 700.38,155.583 702.5,159.509 704.62,159.509 706.739,160 708.859,160 710.978,151.656 713.098,140.859 715.217,155.092 717.337,160 719.457,141.84 721.576,150.184 723.696,152.147 725.815,160 727.935,160 730.054,160 732.174,160 734.293,160 736.413,160 738.533,160 740.652,160 742.772,160 744.891,160 747.011,160 749.13,160 751.25,158.037 753.37,160 755.489,160 757.609,160 759.728,160 761.848,160 763.967,160 766.087,160 768.207,160 770.326,160 772.446,160 774.565,160 776.685,160 778.804,160 780.924,160 783.043,156.564 785.163,154.601 787.283,160 789.402,160 791.522,160 793.641,160 795.761,159.509 797.88,160 800,160 800,160" fill="var(--pill)" opacity="0.6"/>
  <polyline points="20,160 22.1196,160 24.2391,160 26.3587,160 28.4783,160 30.5978,160 32.7174,160 34.837,160 36.9565,160 39.0761,160 41.1957,160 43.3152,159.509 45.4348,160 47.5543,160 49.6739,160 51.7935,160 53.913,160 56.0326,160 58.1522,160 60.2717,160 62.3913,160 64.5109,160 66.6304,160 68.75,160 70.8696,160 72.9891,160 75.1087,160 77.2283,160 79.3478,160 81.4674,160 83.587,160 85.7065,160 87.8261,160 89.9457,160 92.0652,160 94.1848,160 96.3043,160 98.4239,159.018 100.543,160 102.663,160 104.783,160 106.902,145.276 109.022,155.583 111.141,157.546 113.261,155.583 115.38,157.055 117.5,156.074 119.62,160 121.739,160 123.859,160 125.978,158.037 128.098,159.018 130.217,158.037 132.337,156.564 134.457,160 136.576,158.528 138.696,156.564 140.815,160 142.935,154.11 145.054,149.202 147.174,149.202 149.293,153.62 151.413,141.84 153.533,154.601 155.652,160 157.772,154.601 159.891,160 162.011,160 164.13,157.546 166.25,148.221 168.37,159.018 170.489,160 172.609,158.037 174.728,160 176.848,159.509 178.967,160 181.087,160 183.207,160 185.326,160 187.446,151.656 189.565,155.583 191.685,156.074 193.804,157.546 195.924,150.675 198.043,160 200.163,158.037 202.283,156.564 204.402,158.037 206.522,156.074 208.641,160 210.761,154.11 212.88,160 215,159.509 217.12,160 219.239,160 221.359,157.546 223.478,160 225.598,160 227.717,160 229.837,160 231.957,160 234.076,160 236.196,160 238.315,160 240.435,160 242.554,160 244.674,160 246.793,160 248.913,160 251.033,160 253.152,160 255.272,160 257.391,154.601 259.511,158.037 261.63,160 263.75,160 265.87,160 267.989,160 270.109,160 272.228,160 274.348,160 276.467,160 278.587,160 280.707,160 282.826,160 284.946,160 287.065,160 289.185,160 291.304,160 293.424,160 295.543,160 297.663,160 299.783,160 301.902,160 304.022,160 306.141,157.055 308.261,160 310.38,160 312.5,160 314.62,160 316.739,155.092 318.859,160 320.978,160 323.098,160 325.217,160 327.337,137.423 329.457,153.62 331.576,80 333.696,155.092 335.815,149.202 337.935,155.092 340.054,158.037 342.174,158.528 344.293,159.509 346.413,156.074 348.533,160 350.652,159.018 352.772,160 354.891,159.509 357.011,159.018 359.13,159.509 361.25,160 363.37,158.528 365.489,160 367.609,159.018 369.728,159.018 371.848,157.546 373.967,157.055 376.087,160 378.207,160 380.326,159.509 382.446,159.509 384.565,158.528 386.685,159.509 388.804,157.055 390.924,157.055 393.043,159.018 395.163,158.528 397.283,147.239 399.402,157.055 401.522,129.08 403.641,147.239 405.761,153.129 407.88,160 410,160 412.12,160 414.239,151.656 416.359,158.528 418.478,160 420.598,160 422.717,138.405 424.837,158.528 426.957,160 429.076,160 431.196,160 433.315,160 435.435,160 437.554,160 439.674,160 441.793,160 443.913,160 446.033,160 448.152,160 450.272,160 452.391,160 454.511,160 456.63,160 458.75,159.509 460.87,160 462.989,160 465.109,160 467.228,160 469.348,160 471.467,160 473.587,160 475.707,160 477.826,160 479.946,159.509 482.065,158.037 484.185,160 486.304,160 488.424,160 490.543,160 492.663,160 494.783,160 496.902,160 499.022,160 501.141,160 503.261,160 505.38,160 507.5,159.509 509.62,158.037 511.739,157.055 513.859,160 515.978,160 518.098,160 520.217,156.564 522.337,157.546 524.457,147.239 526.576,160 528.696,160 530.815,160 532.935,155.092 535.054,148.221 537.174,160 539.293,160 541.413,158.037 543.533,160 545.652,158.037 547.772,160 549.891,160 552.011,160 554.13,160 556.25,160 558.37,160 560.489,159.018 562.609,144.294 564.728,159.018 566.848,160 568.967,139.387 571.087,121.718 573.207,120.736 575.326,147.73 577.446,146.258 579.565,157.055 581.685,160 583.804,160 585.924,160 588.043,160 590.163,160 592.283,160 594.402,160 596.522,160 598.641,157.546 600.761,153.62 602.88,148.712 605,160 607.12,149.202 609.239,149.693 611.359,134.969 613.478,146.258 615.598,145.767 617.717,146.258 619.837,150.184 621.957,154.11 624.076,154.601 626.196,154.11 628.315,157.055 630.435,156.564 632.554,159.509 634.674,160 636.793,160 638.913,160 641.033,160 643.152,160 645.272,160 647.391,160 649.511,160 651.63,158.528 653.75,159.509 655.87,160 657.989,160 660.109,159.509 662.228,142.331 664.348,144.785 666.467,157.055 668.587,158.528 670.707,160 672.826,160 674.946,159.509 677.065,160 679.185,160 681.304,159.018 683.424,153.62 685.543,159.018 687.663,160 689.783,160 691.902,149.693 694.022,155.583 696.141,158.528 698.261,156.074 700.38,155.583 702.5,159.509 704.62,159.509 706.739,160 708.859,160 710.978,151.656 713.098,140.859 715.217,155.092 717.337,160 719.457,141.84 721.576,150.184 723.696,152.147 725.815,160 727.935,160 730.054,160 732.174,160 734.293,160 736.413,160 738.533,160 740.652,160 742.772,160 744.891,160 747.011,160 749.13,160 751.25,158.037 753.37,160 755.489,160 757.609,160 759.728,160 761.848,160 763.967,160 766.087,160 768.207,160 770.326,160 772.446,160 774.565,160 776.685,160 778.804,160 780.924,160 783.043,156.564 785.163,154.601 787.283,160 789.402,160 791.522,160 793.641,160 795.761,159.509 797.88,160 800,160" fill="none" stroke="var(--accent)" stroke-width="1.5" stroke-linecap="round" stroke-linejoin="round"/>
</svg>

