<svg xmlns="http://www.w3.org/2000/svg" width="820" height="180" viewBox="0 0 820 180">

<style>
  :root {
    --bg:        #f6f8fa;
    --card:      #ffffff;
    --border:    #d0d7de;
    --primary:   #1f2328;
    --secondary: #636c76;
    --muted:     #8c959f;
    --accent:    #0969da;
    --green:     #1a7f37;
    --yellow:    #9a6700;
    --red:       #cf222e;
    --hover:     #f3f4f6;
    --spark-bg:  #f0f3f6;
    --spark:     #0969da;
    --pill:      #eaf1fb;
    --pill-txt:  #0969da;
    --div:       #d0d7de;
  }
  @media (prefers-color-scheme: dark) {
    :root {
      --bg:        #0d1117;
      --card:      #161b22;
      --border:    #30363d;
      --primary:   #e6edf3;
      --secondary: #848d97;
      --muted:     #7d8590;
      --accent:    #2f81f7;
      --green:     #3fb950;
      --yellow:    #d29922;
      --red:       #f85149;
      --hover:     #21262d;
      --spark-bg:  #1c2128;
      --spark:     #58a6ff;
      --pill:      #1c2d3f;
      --pill-txt:  #58a6ff;
      --div:       #30363d;
    }
  }
  
  .bg          { fill: var(--bg); }
  .card        { fill: var(--card); stroke: var(--border); stroke-width: 1; }
  .lang-pill   { fill: var(--pill); }
  .spark-bg    { fill: var(--spark-bg); }
  .spark-line  { stroke: var(--spark); }
  .divider     { stroke: var(--div); stroke-width: 1; }
  .clr-primary   { fill: var(--primary); }
  .clr-secondary { fill: var(--secondary); }
  .clr-muted     { fill: var(--muted); }
  .clr-accent    { fill: var(--accent); }
  .clr-green     { fill: var(--green); }
  .clr-yellow    { fill: var(--yellow); }
  .clr-red       { fill: var(--red); }
  .txt-bold    { font-weight: 600; }
  svg text     { font-family: -apple-system, BlinkMacSystemFont, "Segoe UI", Helvetica, Arial, sans-serif; }
</style>

<rect x="0" y="0" width="820" height="180" rx="8" class="card"/>
  <text x="20" y="24" class="clr-primary txt-bold" text-anchor="start" font-size="14">Contribution History &amp; Activity</text>
  <line x1="20" y1="36" x2="800" y2="36" class="divider"/>
  <text x="20" y="60" class="clr-muted" text-anchor="start" font-size="12">Years Active:</text>
  <text x="100" y="60" class="clr-primary txt-bold" text-anchor="start" font-size="12">5.7</text>
  <text x="160" y="60" class="clr-muted" text-anchor="start" font-size="12">Commits (Last Year):</text>
  <text x="290" y="60" class="clr-primary txt-bold" text-anchor="start" font-size="12">1204</text>
  <text x="360" y="60" class="clr-muted" text-anchor="start" font-size="12">Highest Daily:</text>
  <text x="450" y="60" class="clr-primary txt-bold" text-anchor="start" font-size="12">163</text>
  <polygon points="20,160 20,160 22.1196,160 24.2391,160 26.3587,160 28.4783,160 30.5978,160 32.7174,160 34.837,160 36.9565,160 39.0761,160 41.1957,160 43.3152,160 45.4348,160 47.5543,160 49.6739,160 51.7935,160 53.913,160 56.0326,160 58.1522,160 60.2717,160 62.3913,160 64.5109,160 66.6304,160 68.75,159.018 70.8696,160 72.9891,160 75.1087,160 77.2283,145.276 79.3478,155.583 81.4674,157.546 83.587,155.583 85.7065,157.055 87.8261,156.074 89.9457,160 92.0652,160 94.1848,160 96.3043,158.037 98.4239,159.018 100.543,158.037 102.663,156.564 104.783,160 106.902,158.528 109.022,156.564 111.141,160 113.261,154.11 115.38,149.202 117.5,149.202 119.62,153.62 121.739,141.84 123.859,154.601 125.978,160 128.098,154.601 130.217,160 132.337,160 134.457,157.546 136.576,148.221 138.696,159.018 140.815,160 142.935,158.037 145.054,160 147.174,159.509 149.293,160 151.413,160 153.533,160 155.652,160 157.772,151.656 159.891,155.583 162.011,156.074 164.13,157.546 166.25,150.675 168.37,160 170.489,158.037 172.609,156.564 174.728,158.037 176.848,156.074 178.967,160 181.087,154.11 183.207,160 185.326,159.509 187.446,160 189.565,160 191.685,157.546 193.804,160 195.924,160 198.043,160 200.163,160 202.283,160 204.402,160 206.522,160 208.641,160 210.761,160 212.88,160 215,160 217.12,160 219.239,160 221.359,160 223.478,160 225.598,160 227.717,154.601 229.837,158.037 231.957,160 234.076,160 236.196,160 238.315,160 240.435,160 242.554,160 244.674,160 246.793,160 248.913,160 251.033,160 253.152,160 255.272,160 257.391,160 259.511,160 261.63,160 263.75,160 265.87,160 267.989,160 270.109,160 272.228,160 274.348,160 276.467,157.055 278.587,160 280.707,160 282.826,160 284.946,160 287.065,155.092 289.185,160 291.304,160 293.424,160 295.543,160 297.663,137.423 299.783,153.62 301.902,80 304.022,155.092 306.141,149.202 308.261,155.092 310.38,158.037 312.5,158.528 314.62,159.509 316.739,156.074 318.859,160 320.978,159.018 323.098,160 325.217,159.509 327.337,159.018 329.457,159.509 331.576,160 333.696,158.528 335.815,160 337.935,159.018 340.054,159.018 342.174,157.546 344.293,157.055 346.413,160 348.533,160 350.652,159.509 352.772,159.509 354.891,158.528 357.011,159.509 359.13,157.055 361.25,157.055 363.37,159.018 365.489,158.528 367.609,147.239 369.728,157.055 371.848,129.08 373.967,147.239 376.087,153.129 378.207,160 380.326,160 382.446,160 384.565,151.656 386.685,158.528 388.804,160 390.924,160 393.043,138.405 395.163,158.528 397.283,160 399.402,160 401.522,160 403.641,160 405.761,160 407.88,160 410,160 412.12,160 414.239,160 416.359,160 418.478,160 420.598,160 422.717,160 424.837,160 426.957,160 429.076,159.509 431.196,160 433.315,160 435.435,160 437.554,160 439.674,160 441.793,160 443.913,160 446.033,160 448.152,160 450.272,159.509 452.391,158.037 454.511,160 456.63,160 458.75,160 460.87,160 462.989,160 465.109,160 467.228,160 469.348,160 471.467,160 473.587,160 475.707,160 477.826,159.509 479.946,158.037 482.065,157.055 484.185,160 486.304,160 488.424,160 490.543,156.564 492.663,157.546 494.783,147.239 496.902,160 499.022,160 501.141,160 503.261,155.092 505.38,148.221 507.5,160 509.62,160 511.739,158.037 513.859,160 515.978,158.037 518.098,160 520.217,160 522.337,160 524.457,160 526.576,160 528.696,160 530.815,159.018 532.935,144.294 535.054,159.018 537.174,160 539.293,139.387 541.413,121.718 543.533,120.736 545.652,147.73 547.772,146.258 549.891,157.055 552.011,160 554.13,160 556.25,160 558.37,160 560.489,160 562.609,160 564.728,160 566.848,160 568.967,157.546 571.087,153.62 573.207,148.712 575.326,160 577.446,149.202 579.565,149.693 581.685,134.969 583.804,146.258 585.924,145.767 588.043,146.258 590.163,150.184 592.283,154.11 594.402,154.601 596.522,154.11 598.641,157.055 600.761,156.564 602.88,159.509 605,160 607.12,160 609.239,160 611.359,160 613.478,160 615.598,160 617.717,160 619.837,160 621.957,158.528 624.076,159.509 626.196,160 628.315,160 630.435,159.509 632.554,142.331 634.674,144.785 636.793,157.055 638.913,158.528 641.033,160 643.152,160 645.272,159.509 647.391,160 649.511,160 651.63,159.018 653.75,153.62 655.87,159.018 657.989,160 660.109,160 662.228,149.693 664.348,155.583 666.467,158.528 668.587,156.074 670.707,155.583 672.826,159.509 674.946,159.509 677.065,160 679.185,160 681.304,151.656 683.424,140.859 685.543,155.092 687.663,160 689.783,141.84 691.902,150.184 694.022,152.147 696.141,160 698.261,160 700.38,160 702.5,160 704.62,160 706.739,160 708.859,160 710.978,160 713.098,160 715.217,160 717.337,160 719.457,160 721.576,158.037 723.696,160 725.815,160 727.935,160 730.054,160 732.174,160 734.293,160 736.413,160 738.533,160 740.652,160 742.772,160 744.891,160 747.011,160 749.13,160 751.25,160 753.37,156.564 755.489,154.601 757.609,160 759.728,160 761.848,160 763.967,160 766.087,159.509 768.207,160 770.326,160 772.446,159.509 774.565,159.509 776.685,160 778.804,159.509 780.924,160 783.043,160 785.163,156.074 787.283,159.509 789.402,159.509 791.522,160 793.641,158.037 795.761,160 797.88,160 800,160 800,160" fill="var(--pill)" opacity="0.6"/>
  <polyline points="20,160 22.1196,160 24.2391,160 26.3587,160 28.4783,160 30.5978,160 32.7174,160 34.837,160 36.9565,160 39.0761,160 41.1957,160 43.3152,160 45.4348,160 47.5543,160 49.6739,160 51.7935,160 53.913,160 56.0326,160 58.1522,160 60.2717,160 62.3913,160 64.5109,160 66.6304,160 68.75,159.018 70.8696,160 72.9891,160 75.1087,160 77.2283,145.276 79.3478,155.583 81.4674,157.546 83.587,155.583 85.7065,157.055 87.8261,156.074 89.9457,160 92.0652,160 94.1848,160 96.3043,158.037 98.4239,159.018 100.543,158.037 102.663,156.564 104.783,160 106.902,158.528 109.022,156.564 111.141,160 113.261,154.11 115.38,149.202 117.5,149.202 119.62,153.62 121.739,141.84 123.859,154.601 125.978,160 128.098,154.601 130.217,160 132.337,160 134.457,157.546 136.576,148.221 138.696,159.018 140.815,160 142.935,158.037 145.054,160 147.174,159.509 149.293,160 151.413,160 153.533,160 155.652,160 157.772,151.656 159.891,155.583 162.011,156.074 164.13,157.546 166.25,150.675 168.37,160 170.489,158.037 172.609,156.564 174.728,158.037 176.848,156.074 178.967,160 181.087,154.11 183.207,160 185.326,159.509 187.446,160 189.565,160 191.685,157.546 193.804,160 195.924,160 198.043,160 200.163,160 202.283,160 204.402,160 206.522,160 208.641,160 210.761,160 212.88,160 215,160 217.12,160 219.239,160 221.359,160 223.478,160 225.598,160 227.717,154.601 229.837,158.037 231.957,160 234.076,160 236.196,160 238.315,160 240.435,160 242.554,160 244.674,160 246.793,160 248.913,160 251.033,160 253.152,160 255.272,160 257.391,160 259.511,160 261.63,160 263.75,160 265.87,160 267.989,160 270.109,160 272.228,160 274.348,160 276.467,157.055 278.587,160 280.707,160 282.826,160 284.946,160 287.065,155.092 289.185,160 291.304,160 293.424,160 295.543,160 297.663,137.423 299.783,153.62 301.902,80 304.022,155.092 306.141,149.202 308.261,155.092 310.38,158.037 312.5,158.528 314.62,159.509 316.739,156.074 318.859,160 320.978,159.018 323.098,160 325.217,159.509 327.337,159.018 329.457,159.509 331.576,160 333.696,158.528 335.815,160 337.935,159.018 340.054,159.018 342.174,157.546 344.293,157.055 346.413,160 348.533,160 350.652,159.509 352.772,159.509 354.891,158.528 357.011,159.509 359.13,157.055 361.25,157.055 363.37,159.018 365.489,158.528 367.609,147.239 369.728,157.055 371.848,129.08 373.967,147.239 376.087,153.129 378.207,160 380.326,160 382.446,160 384.565,151.656 386.685,158.528 388.804,160 390.924,160 393.043,138.405 395.163,158.528 397.283,160 399.402,160 401.522,160 403.641,160 405.761,160 407.88,160 410,160 412.12,160 414.239,160 416.359,160 418.478,160 420.598,160 422.717,160 424.837,160 426.957,160 429.076,159.509 431.196,160 433.315,160 435.435,160 437.554,160 439.674,160 441.793,160 443.913,160 446.033,160 448.152,160 450.272,159.509 452.391,158.037 454.511,160 456.63,160 458.75,160 460.87,160 462.989,160 465.109,160 467.228,160 469.348,160 471.467,160 473.587,160 475.707,160 477.826,159.509 479.946,158.037 482.065,157.055 484.185,160 486.304,160 488.424,160 490.543,156.564 492.663,157.546 494.783,147.239 496.902,160 499.022,160 501.141,160 503.261,155.092 505.38,148.221 507.5,160 509.62,160 511.739,158.037 513.859,160 515.978,158.037 518.098,160 520.217,160 522.337,160 524.457,160 526.576,160 528.696,160 530.815,159.018 532.935,144.294 535.054,159.018 537.174,160 539.293,139.387 541.413,121.718 543.533,120.736 545.652,147.73 547.772,146.258 549.891,157.055 552.011,160 554.13,160 556.25,160 558.37,160 560.489,160 562.609,160 564.728,160 566.848,160 568.967,157.546 571.087,153.62 573.207,148.712 575.326,160 577.446,149.202 579.565,149.693 581.685,134.969 583.804,146.258 585.924,145.767 588.043,146.258 590.163,150.184 592.283,154.11 594.402,154.601 596.522,154.11 598.641,157.055 600.761,156.564 602.88,159.509 605,160 607.12,160 609.239,160 611.359,160 613.478,160 615.598,160 617.717,160 619.837,160 621.957,158.528 624.076,159.509 626.196,160 628.315,160 630.435,159.509 632.554,142.331 634.674,144.785 636.793,157.055 638.913,158.528 641.033,160 643.152,160 645.272,159.509 647.391,160 649.511,160 651.63,159.018 653.75,153.62 655.87,159.018 657.989,160 660.109,160 662.228,149.693 664.348,155.583 666.467,158.528 668.587,156.074 670.707,155.583 672.826,159.509 674.946,159.509 677.065,160 679.185,160 681.304,151.656 683.424,140.859 685.543,155.092 687.663,160 689.783,141.84 691.902,150.184 694.022,152.147 696.141,160 698.261,160 700.38,160 702.5,160 704.62,160 706.739,160 708.859,160 710.978,160 713.098,160 715.217,160 717.337,160 719.457,160 721.576,158.037 723.696,160 725.815,160 727.935,160 730.054,160 732.174,160 734.293,160 736.413,160 738.533,160 740.652,160 742.772,160 744.891,160 747.011,160 749.13,160 751.25,160 753.37,156.564 755.489,154.601 757.609,160 759.728,160 761.848,160 763.967,160 766.087,159.509 768.207,160 770.326,160 772.446,159.509 774.565,159.509 776.685,160 778.804,159.509 780.924,160 783.043,160 785.163,156.074 787.283,159.509 789.402,159.509 791.522,160 793.641,158.037 795.761,160 797.88,160 800,160" fill="none" stroke="var(--accent)" stroke-width="1.5" stroke-linecap="round" stroke-linejoin="round"/>
</svg>

