<svg xmlns="http://www.w3.org/2000/svg" width="820" height="180" viewBox="0 0 820 180">

<style>
  :root {
    --bg:        #f6f8fa;
    --card:      #ffffff;
    --border:    #d0d7de;
    --primary:   #1f2328;
    --secondary: #636c76;
    --muted:     #8c959f;
    --accent:    #0969da;
    --green:     #1a7f37;
    --yellow:    #9a6700;
    --red:       #cf222e;
    --hover:     #f3f4f6;
    --spark-bg:  #f0f3f6;
    --spark:     #0969da;
    --pill:      #eaf1fb;
    --pill-txt:  #0969da;
    --div:       #d0d7de;
  }
  @media (prefers-color-scheme: dark) {
    :root {
      --bg:        #0d1117;
      --card:      #161b22;
      --border:    #30363d;
      --primary:   #e6edf3;
      --secondary: #848d97;
      --muted:     #7d8590;
      --accent:    #2f81f7;
      --green:     #3fb950;
      --yellow:    #d29922;
      --red:       #f85149;
      --hover:     #21262d;
      --spark-bg:  #1c2128;
      --spark:     #58a6ff;
      --pill:      #1c2d3f;
      --pill-txt:  #58a6ff;
      --div:       #30363d;
    }
  }
  
  .bg          { fill: var(--bg); }
  .card        { fill: var(--card); stroke: var(--border); stroke-width: 1; }
  .lang-pill   { fill: var(--pill); }
  .spark-bg    { fill: var(--spark-bg); }
  .spark-line  { stroke: var(--spark); }
  .divider     { stroke: var(--div); stroke-width: 1; }
  .clr-primary   { fill: var(--primary); }
  .clr-secondary { fill: var(--secondary); }
  .clr-muted     { fill: var(--muted); }
  .clr-accent    { fill: var(--accent); }
  .clr-green     { fill: var(--green); }
  .clr-yellow    { fill: var(--yellow); }
  .clr-red       { fill: var(--red); }
  .txt-bold    { font-weight: 600; }
  svg text     { font-family: -apple-system, BlinkMacSystemFont, "Segoe UI", Helvetica, Arial, sans-serif; }
</style>

<rect x="0" y="0" width="820" height="180" rx="8" class="card"/>
  <text x="20" y="24" class="clr-primary txt-bold" text-anchor="start" font-size="14">Contribution History &amp; Activity</text>
  <line x1="20" y1="36" x2="800" y2="36" class="divider"/>
  <text x="20" y="60" class="clr-muted" text-anchor="start" font-size="12">Years Active:</text>
  <text x="100" y="60" class="clr-primary txt-bold" text-anchor="start" font-size="12">5.6</text>
  <text x="160" y="60" class="clr-muted" text-anchor="start" font-size="12">Commits (Last Year):</text>
  <text x="290" y="60" class="clr-primary txt-bold" text-anchor="start" font-size="12">1188</text>
  <text x="360" y="60" class="clr-muted" text-anchor="start" font-size="12">Highest Daily:</text>
  <text x="450" y="60" class="clr-primary txt-bold" text-anchor="start" font-size="12">163</text>
  <polygon points="20,160 20,160 22.1138,160 24.2276,160 26.3415,154.11 28.4553,157.055 30.5691,160 32.6829,160 34.7967,160 36.9106,160 39.0244,160 41.1382,160 43.252,159.018 45.3659,160 47.4797,160 49.5935,160 51.7073,160 53.8211,160 55.935,160 58.0488,160 60.1626,160 62.2764,160 64.3902,160 66.5041,160 68.6179,160 70.7317,160 72.8455,160 74.9593,160 77.0732,160 79.187,160 81.3008,160 83.4146,160 85.5285,160 87.6423,160 89.7561,160 91.8699,160 93.9837,160 96.0976,160 98.2114,160 100.325,160 102.439,160 104.553,160 106.667,160 108.78,160 110.894,160 113.008,160 115.122,160 117.236,159.509 119.35,160 121.463,160 123.577,160 125.691,160 127.805,160 129.919,160 132.033,160 134.146,160 136.26,160 138.374,160 140.488,160 142.602,160 144.715,160 146.829,160 148.943,160 151.057,160 153.171,160 155.285,160 157.398,160 159.512,160 161.626,160 163.74,160 165.854,160 167.967,160 170.081,160 172.195,159.018 174.309,160 176.423,160 178.537,160 180.65,145.276 182.764,155.583 184.878,157.546 186.992,155.583 189.106,157.055 191.22,156.074 193.333,160 195.447,160 197.561,160 199.675,158.037 201.789,159.018 203.902,158.037 206.016,156.564 208.13,160 210.244,158.528 212.358,156.564 214.472,160 216.585,154.11 218.699,149.202 220.813,149.202 222.927,153.62 225.041,141.84 227.154,154.601 229.268,160 231.382,154.601 233.496,160 235.61,160 237.724,157.546 239.837,148.221 241.951,159.018 244.065,160 246.179,158.037 248.293,160 250.407,159.509 252.52,160 254.634,160 256.748,160 258.862,160 260.976,151.656 263.089,155.583 265.203,156.074 267.317,157.546 269.431,150.675 271.545,160 273.659,158.037 275.772,156.564 277.886,158.037 280,156.074 282.114,160 284.228,154.11 286.341,160 288.455,159.509 290.569,160 292.683,160 294.797,157.546 296.911,160 299.024,160 301.138,160 303.252,160 305.366,160 307.48,160 309.593,160 311.707,160 313.821,160 315.935,160 318.049,160 320.163,160 322.276,160 324.39,160 326.504,160 328.618,160 330.732,154.601 332.846,158.037 334.959,160 337.073,160 339.187,160 341.301,160 343.415,160 345.528,160 347.642,160 349.756,160 351.87,160 353.984,160 356.098,160 358.211,160 360.325,160 362.439,160 364.553,160 366.667,160 368.78,160 370.894,160 373.008,160 375.122,160 377.236,160 379.35,157.055 381.463,160 383.577,160 385.691,160 387.805,160 389.919,155.092 392.033,160 394.146,160 396.26,160 398.374,160 400.488,137.423 402.602,153.62 404.715,80 406.829,155.092 408.943,149.202 411.057,155.092 413.171,158.037 415.285,158.528 417.398,159.509 419.512,156.074 421.626,160 423.74,159.018 425.854,160 427.967,159.509 430.081,159.018 432.195,159.509 434.309,160 436.423,158.528 438.537,160 440.65,159.018 442.764,159.018 444.878,157.546 446.992,157.055 449.106,160 451.22,160 453.333,159.509 455.447,159.509 457.561,158.528 459.675,159.509 461.789,157.055 463.902,157.055 466.016,159.018 468.13,158.528 470.244,147.239 472.358,157.055 474.472,129.08 476.585,147.239 478.699,153.129 480.813,160 482.927,160 485.041,160 487.154,151.656 489.268,158.528 491.382,160 493.496,160 495.61,138.405 497.724,158.528 499.837,160 501.951,160 504.065,160 506.179,160 508.293,160 510.407,160 512.52,160 514.634,160 516.748,160 518.862,160 520.976,160 523.089,160 525.203,160 527.317,160 529.431,160 531.545,159.509 533.659,160 535.772,160 537.886,160 540,160 542.114,160 544.228,160 546.341,160 548.455,160 550.569,160 552.683,159.509 554.797,158.037 556.911,160 559.024,160 561.138,160 563.252,160 565.366,160 567.48,160 569.593,160 571.707,160 573.821,160 575.935,160 578.049,160 580.163,159.509 582.276,158.037 584.39,157.055 586.504,160 588.618,160 590.732,160 592.846,156.564 594.959,157.546 597.073,147.239 599.187,160 601.301,160 603.415,160 605.528,155.092 607.642,148.221 609.756,160 611.87,160 613.984,158.037 616.098,160 618.211,158.037 620.325,160 622.439,160 624.553,160 626.667,160 628.78,160 630.894,160 633.008,159.018 635.122,144.294 637.236,159.018 639.35,160 641.463,139.387 643.577,121.718 645.691,120.736 647.805,147.73 649.919,146.258 652.033,157.055 654.146,160 656.26,160 658.374,160 660.488,160 662.602,160 664.715,160 666.829,160 668.943,160 671.057,157.546 673.171,153.62 675.285,148.712 677.398,160 679.512,149.202 681.626,149.693 683.74,134.969 685.854,146.258 687.967,145.767 690.081,146.258 692.195,150.184 694.309,154.11 696.423,154.601 698.537,154.11 700.65,157.055 702.764,156.564 704.878,159.509 706.992,160 709.106,160 711.22,160 713.333,160 715.447,160 717.561,160 719.675,160 721.789,160 723.902,158.528 726.016,159.509 728.13,160 730.244,160 732.358,159.509 734.472,142.331 736.585,144.785 738.699,157.055 740.813,158.528 742.927,160 745.041,160 747.154,159.509 749.268,160 751.382,160 753.496,159.018 755.61,153.62 757.724,159.018 759.837,160 761.951,160 764.065,149.693 766.179,155.583 768.293,158.528 770.407,156.074 772.52,155.583 774.634,159.509 776.748,159.509 778.862,160 780.976,160 783.089,151.656 785.203,140.859 787.317,155.092 789.431,160 791.545,141.84 793.659,150.184 795.772,152.147 797.886,160 800,160 800,160" fill="var(--pill)" opacity="0.6"/>
  <polyline points="20,160 22.1138,160 24.2276,160 26.3415,154.11 28.4553,157.055 30.5691,160 32.6829,160 34.7967,160 36.9106,160 39.0244,160 41.1382,160 43.252,159.018 45.3659,160 47.4797,160 49.5935,160 51.7073,160 53.8211,160 55.935,160 58.0488,160 60.1626,160 62.2764,160 64.3902,160 66.5041,160 68.6179,160 70.7317,160 72.8455,160 74.9593,160 77.0732,160 79.187,160 81.3008,160 83.4146,160 85.5285,160 87.6423,160 89.7561,160 91.8699,160 93.9837,160 96.0976,160 98.2114,160 100.325,160 102.439,160 104.553,160 106.667,160 108.78,160 110.894,160 113.008,160 115.122,160 117.236,159.509 119.35,160 121.463,160 123.577,160 125.691,160 127.805,160 129.919,160 132.033,160 134.146,160 136.26,160 138.374,160 140.488,160 142.602,160 144.715,160 146.829,160 148.943,160 151.057,160 153.171,160 155.285,160 157.398,160 159.512,160 161.626,160 163.74,160 165.854,160 167.967,160 170.081,160 172.195,159.018 174.309,160 176.423,160 178.537,160 180.65,145.276 182.764,155.583 184.878,157.546 186.992,155.583 189.106,157.055 191.22,156.074 193.333,160 195.447,160 197.561,160 199.675,158.037 201.789,159.018 203.902,158.037 206.016,156.564 208.13,160 210.244,158.528 212.358,156.564 214.472,160 216.585,154.11 218.699,149.202 220.813,149.202 222.927,153.62 225.041,141.84 227.154,154.601 229.268,160 231.382,154.601 233.496,160 235.61,160 237.724,157.546 239.837,148.221 241.951,159.018 244.065,160 246.179,158.037 248.293,160 250.407,159.509 252.52,160 254.634,160 256.748,160 258.862,160 260.976,151.656 263.089,155.583 265.203,156.074 267.317,157.546 269.431,150.675 271.545,160 273.659,158.037 275.772,156.564 277.886,158.037 280,156.074 282.114,160 284.228,154.11 286.341,160 288.455,159.509 290.569,160 292.683,160 294.797,157.546 296.911,160 299.024,160 301.138,160 303.252,160 305.366,160 307.48,160 309.593,160 311.707,160 313.821,160 315.935,160 318.049,160 320.163,160 322.276,160 324.39,160 326.504,160 328.618,160 330.732,154.601 332.846,158.037 334.959,160 337.073,160 339.187,160 341.301,160 343.415,160 345.528,160 347.642,160 349.756,160 351.87,160 353.984,160 356.098,160 358.211,160 360.325,160 362.439,160 364.553,160 366.667,160 368.78,160 370.894,160 373.008,160 375.122,160 377.236,160 379.35,157.055 381.463,160 383.577,160 385.691,160 387.805,160 389.919,155.092 392.033,160 394.146,160 396.26,160 398.374,160 400.488,137.423 402.602,153.62 404.715,80 406.829,155.092 408.943,149.202 411.057,155.092 413.171,158.037 415.285,158.528 417.398,159.509 419.512,156.074 421.626,160 423.74,159.018 425.854,160 427.967,159.509 430.081,159.018 432.195,159.509 434.309,160 436.423,158.528 438.537,160 440.65,159.018 442.764,159.018 444.878,157.546 446.992,157.055 449.106,160 451.22,160 453.333,159.509 455.447,159.509 457.561,158.528 459.675,159.509 461.789,157.055 463.902,157.055 466.016,159.018 468.13,158.528 470.244,147.239 472.358,157.055 474.472,129.08 476.585,147.239 478.699,153.129 480.813,160 482.927,160 485.041,160 487.154,151.656 489.268,158.528 491.382,160 493.496,160 495.61,138.405 497.724,158.528 499.837,160 501.951,160 504.065,160 506.179,160 508.293,160 510.407,160 512.52,160 514.634,160 516.748,160 518.862,160 520.976,160 523.089,160 525.203,160 527.317,160 529.431,160 531.545,159.509 533.659,160 535.772,160 537.886,160 540,160 542.114,160 544.228,160 546.341,160 548.455,160 550.569,160 552.683,159.509 554.797,158.037 556.911,160 559.024,160 561.138,160 563.252,160 565.366,160 567.48,160 569.593,160 571.707,160 573.821,160 575.935,160 578.049,160 580.163,159.509 582.276,158.037 584.39,157.055 586.504,160 588.618,160 590.732,160 592.846,156.564 594.959,157.546 597.073,147.239 599.187,160 601.301,160 603.415,160 605.528,155.092 607.642,148.221 609.756,160 611.87,160 613.984,158.037 616.098,160 618.211,158.037 620.325,160 622.439,160 624.553,160 626.667,160 628.78,160 630.894,160 633.008,159.018 635.122,144.294 637.236,159.018 639.35,160 641.463,139.387 643.577,121.718 645.691,120.736 647.805,147.73 649.919,146.258 652.033,157.055 654.146,160 656.26,160 658.374,160 660.488,160 662.602,160 664.715,160 666.829,160 668.943,160 671.057,157.546 673.171,153.62 675.285,148.712 677.398,160 679.512,149.202 681.626,149.693 683.74,134.969 685.854,146.258 687.967,145.767 690.081,146.258 692.195,150.184 694.309,154.11 696.423,154.601 698.537,154.11 700.65,157.055 702.764,156.564 704.878,159.509 706.992,160 709.106,160 711.22,160 713.333,160 715.447,160 717.561,160 719.675,160 721.789,160 723.902,158.528 726.016,159.509 728.13,160 730.244,160 732.358,159.509 734.472,142.331 736.585,144.785 738.699,157.055 740.813,158.528 742.927,160 745.041,160 747.154,159.509 749.268,160 751.382,160 753.496,159.018 755.61,153.62 757.724,159.018 759.837,160 761.951,160 764.065,149.693 766.179,155.583 768.293,158.528 770.407,156.074 772.52,155.583 774.634,159.509 776.748,159.509 778.862,160 780.976,160 783.089,151.656 785.203,140.859 787.317,155.092 789.431,160 791.545,141.84 793.659,150.184 795.772,152.147 797.886,160 800,160" fill="none" stroke="var(--accent)" stroke-width="1.5" stroke-linecap="round" stroke-linejoin="round"/>
</svg>

