<svg xmlns="http://www.w3.org/2000/svg" width="820" height="180" viewBox="0 0 820 180">

<style>
  :root {
    --bg:        #f6f8fa;
    --card:      #ffffff;
    --border:    #d0d7de;
    --primary:   #1f2328;
    --secondary: #636c76;
    --muted:     #8c959f;
    --accent:    #0969da;
    --green:     #1a7f37;
    --yellow:    #9a6700;
    --red:       #cf222e;
    --hover:     #f3f4f6;
    --spark-bg:  #f0f3f6;
    --spark:     #0969da;
    --pill:      #eaf1fb;
    --pill-txt:  #0969da;
    --div:       #d0d7de;
  }
  @media (prefers-color-scheme: dark) {
    :root {
      --bg:        #0d1117;
      --card:      #161b22;
      --border:    #30363d;
      --primary:   #e6edf3;
      --secondary: #848d97;
      --muted:     #7d8590;
      --accent:    #2f81f7;
      --green:     #3fb950;
      --yellow:    #d29922;
      --red:       #f85149;
      --hover:     #21262d;
      --spark-bg:  #1c2128;
      --spark:     #58a6ff;
      --pill:      #1c2d3f;
      --pill-txt:  #58a6ff;
      --div:       #30363d;
    }
  }
  
  .bg          { fill: var(--bg); }
  .card        { fill: var(--card); stroke: var(--border); stroke-width: 1; }
  .lang-pill   { fill: var(--pill); }
  .spark-bg    { fill: var(--spark-bg); }
  .spark-line  { stroke: var(--spark); }
  .divider     { stroke: var(--div); stroke-width: 1; }
  .clr-primary   { fill: var(--primary); }
  .clr-secondary { fill: var(--secondary); }
  .clr-muted     { fill: var(--muted); }
  .clr-accent    { fill: var(--accent); }
  .clr-green     { fill: var(--green); }
  .clr-yellow    { fill: var(--yellow); }
  .clr-red       { fill: var(--red); }
  .txt-bold    { font-weight: 600; }
  svg text     { font-family: -apple-system, BlinkMacSystemFont, "Segoe UI", Helvetica, Arial, sans-serif; }
</style>

<rect x="0" y="0" width="820" height="180" rx="8" class="card"/>
  <text x="20" y="24" class="clr-primary txt-bold" text-anchor="start" font-size="14">Contribution History &amp; Activity</text>
  <line x1="20" y1="36" x2="800" y2="36" class="divider"/>
  <text x="20" y="60" class="clr-muted" text-anchor="start" font-size="12">Years Active:</text>
  <text x="100" y="60" class="clr-primary txt-bold" text-anchor="start" font-size="12">5.7</text>
  <text x="160" y="60" class="clr-muted" text-anchor="start" font-size="12">Commits (Last Year):</text>
  <text x="290" y="60" class="clr-primary txt-bold" text-anchor="start" font-size="12">1191</text>
  <text x="360" y="60" class="clr-muted" text-anchor="start" font-size="12">Highest Daily:</text>
  <text x="450" y="60" class="clr-primary txt-bold" text-anchor="start" font-size="12">163</text>
  <polygon points="20,160 20,160 22.1138,160 24.2276,160 26.3415,160 28.4553,160 30.5691,160 32.6829,160 34.7967,160 36.9106,160 39.0244,160 41.1382,160 43.252,159.509 45.3659,160 47.4797,160 49.5935,160 51.7073,160 53.8211,160 55.935,160 58.0488,160 60.1626,160 62.2764,160 64.3902,160 66.5041,160 68.6179,160 70.7317,160 72.8455,160 74.9593,160 77.0732,160 79.187,160 81.3008,160 83.4146,160 85.5285,160 87.6423,160 89.7561,160 91.8699,160 93.9837,160 96.0976,160 98.2114,159.018 100.325,160 102.439,160 104.553,160 106.667,145.276 108.78,155.583 110.894,157.546 113.008,155.583 115.122,157.055 117.236,156.074 119.35,160 121.463,160 123.577,160 125.691,158.037 127.805,159.018 129.919,158.037 132.033,156.564 134.146,160 136.26,158.528 138.374,156.564 140.488,160 142.602,154.11 144.715,149.202 146.829,149.202 148.943,153.62 151.057,141.84 153.171,154.601 155.285,160 157.398,154.601 159.512,160 161.626,160 163.74,157.546 165.854,148.221 167.967,159.018 170.081,160 172.195,158.037 174.309,160 176.423,159.509 178.537,160 180.65,160 182.764,160 184.878,160 186.992,151.656 189.106,155.583 191.22,156.074 193.333,157.546 195.447,150.675 197.561,160 199.675,158.037 201.789,156.564 203.902,158.037 206.016,156.074 208.13,160 210.244,154.11 212.358,160 214.472,159.509 216.585,160 218.699,160 220.813,157.546 222.927,160 225.041,160 227.154,160 229.268,160 231.382,160 233.496,160 235.61,160 237.724,160 239.837,160 241.951,160 244.065,160 246.179,160 248.293,160 250.407,160 252.52,160 254.634,160 256.748,154.601 258.862,158.037 260.976,160 263.089,160 265.203,160 267.317,160 269.431,160 271.545,160 273.659,160 275.772,160 277.886,160 280,160 282.114,160 284.228,160 286.341,160 288.455,160 290.569,160 292.683,160 294.797,160 296.911,160 299.024,160 301.138,160 303.252,160 305.366,157.055 307.48,160 309.593,160 311.707,160 313.821,160 315.935,155.092 318.049,160 320.163,160 322.276,160 324.39,160 326.504,137.423 328.618,153.62 330.732,80 332.846,155.092 334.959,149.202 337.073,155.092 339.187,158.037 341.301,158.528 343.415,159.509 345.528,156.074 347.642,160 349.756,159.018 351.87,160 353.984,159.509 356.098,159.018 358.211,159.509 360.325,160 362.439,158.528 364.553,160 366.667,159.018 368.78,159.018 370.894,157.546 373.008,157.055 375.122,160 377.236,160 379.35,159.509 381.463,159.509 383.577,158.528 385.691,159.509 387.805,157.055 389.919,157.055 392.033,159.018 394.146,158.528 396.26,147.239 398.374,157.055 400.488,129.08 402.602,147.239 404.715,153.129 406.829,160 408.943,160 411.057,160 413.171,151.656 415.285,158.528 417.398,160 419.512,160 421.626,138.405 423.74,158.528 425.854,160 427.967,160 430.081,160 432.195,160 434.309,160 436.423,160 438.537,160 440.65,160 442.764,160 444.878,160 446.992,160 449.106,160 451.22,160 453.333,160 455.447,160 457.561,159.509 459.675,160 461.789,160 463.902,160 466.016,160 468.13,160 470.244,160 472.358,160 474.472,160 476.585,160 478.699,159.509 480.813,158.037 482.927,160 485.041,160 487.154,160 489.268,160 491.382,160 493.496,160 495.61,160 497.724,160 499.837,160 501.951,160 504.065,160 506.179,159.509 508.293,158.037 510.407,157.055 512.52,160 514.634,160 516.748,160 518.862,156.564 520.976,157.546 523.089,147.239 525.203,160 527.317,160 529.431,160 531.545,155.092 533.659,148.221 535.772,160 537.886,160 540,158.037 542.114,160 544.228,158.037 546.341,160 548.455,160 550.569,160 552.683,160 554.797,160 556.911,160 559.024,159.018 561.138,144.294 563.252,159.018 565.366,160 567.48,139.387 569.593,121.718 571.707,120.736 573.821,147.73 575.935,146.258 578.049,157.055 580.163,160 582.276,160 584.39,160 586.504,160 588.618,160 590.732,160 592.846,160 594.959,160 597.073,157.546 599.187,153.62 601.301,148.712 603.415,160 605.528,149.202 607.642,149.693 609.756,134.969 611.87,146.258 613.984,145.767 616.098,146.258 618.211,150.184 620.325,154.11 622.439,154.601 624.553,154.11 626.667,157.055 628.78,156.564 630.894,159.509 633.008,160 635.122,160 637.236,160 639.35,160 641.463,160 643.577,160 645.691,160 647.805,160 649.919,158.528 652.033,159.509 654.146,160 656.26,160 658.374,159.509 660.488,142.331 662.602,144.785 664.715,157.055 666.829,158.528 668.943,160 671.057,160 673.171,159.509 675.285,160 677.398,160 679.512,159.018 681.626,153.62 683.74,159.018 685.854,160 687.967,160 690.081,149.693 692.195,155.583 694.309,158.528 696.423,156.074 698.537,155.583 700.65,159.509 702.764,159.509 704.878,160 706.992,160 709.106,151.656 711.22,140.859 713.333,155.092 715.447,160 717.561,141.84 719.675,150.184 721.789,152.147 723.902,160 726.016,160 728.13,160 730.244,160 732.358,160 734.472,160 736.585,160 738.699,160 740.813,160 742.927,160 745.041,160 747.154,160 749.268,158.037 751.382,160 753.496,160 755.61,160 757.724,160 759.837,160 761.951,160 764.065,160 766.179,160 768.293,160 770.407,160 772.52,160 774.634,160 776.748,160 778.862,160 780.976,156.564 783.089,154.601 785.203,160 787.317,160 789.431,160 791.545,160 793.659,159.509 795.772,160 797.886,160 800,160 800,160" fill="var(--pill)" opacity="0.6"/>
  <polyline points="20,160 22.1138,160 24.2276,160 26.3415,160 28.4553,160 30.5691,160 32.6829,160 34.7967,160 36.9106,160 39.0244,160 41.1382,160 43.252,159.509 45.3659,160 47.4797,160 49.5935,160 51.7073,160 53.8211,160 55.935,160 58.0488,160 60.1626,160 62.2764,160 64.3902,160 66.5041,160 68.6179,160 70.7317,160 72.8455,160 74.9593,160 77.0732,160 79.187,160 81.3008,160 83.4146,160 85.5285,160 87.6423,160 89.7561,160 91.8699,160 93.9837,160 96.0976,160 98.2114,159.018 100.325,160 102.439,160 104.553,160 106.667,145.276 108.78,155.583 110.894,157.546 113.008,155.583 115.122,157.055 117.236,156.074 119.35,160 121.463,160 123.577,160 125.691,158.037 127.805,159.018 129.919,158.037 132.033,156.564 134.146,160 136.26,158.528 138.374,156.564 140.488,160 142.602,154.11 144.715,149.202 146.829,149.202 148.943,153.62 151.057,141.84 153.171,154.601 155.285,160 157.398,154.601 159.512,160 161.626,160 163.74,157.546 165.854,148.221 167.967,159.018 170.081,160 172.195,158.037 174.309,160 176.423,159.509 178.537,160 180.65,160 182.764,160 184.878,160 186.992,151.656 189.106,155.583 191.22,156.074 193.333,157.546 195.447,150.675 197.561,160 199.675,158.037 201.789,156.564 203.902,158.037 206.016,156.074 208.13,160 210.244,154.11 212.358,160 214.472,159.509 216.585,160 218.699,160 220.813,157.546 222.927,160 225.041,160 227.154,160 229.268,160 231.382,160 233.496,160 235.61,160 237.724,160 239.837,160 241.951,160 244.065,160 246.179,160 248.293,160 250.407,160 252.52,160 254.634,160 256.748,154.601 258.862,158.037 260.976,160 263.089,160 265.203,160 267.317,160 269.431,160 271.545,160 273.659,160 275.772,160 277.886,160 280,160 282.114,160 284.228,160 286.341,160 288.455,160 290.569,160 292.683,160 294.797,160 296.911,160 299.024,160 301.138,160 303.252,160 305.366,157.055 307.48,160 309.593,160 311.707,160 313.821,160 315.935,155.092 318.049,160 320.163,160 322.276,160 324.39,160 326.504,137.423 328.618,153.62 330.732,80 332.846,155.092 334.959,149.202 337.073,155.092 339.187,158.037 341.301,158.528 343.415,159.509 345.528,156.074 347.642,160 349.756,159.018 351.87,160 353.984,159.509 356.098,159.018 358.211,159.509 360.325,160 362.439,158.528 364.553,160 366.667,159.018 368.78,159.018 370.894,157.546 373.008,157.055 375.122,160 377.236,160 379.35,159.509 381.463,159.509 383.577,158.528 385.691,159.509 387.805,157.055 389.919,157.055 392.033,159.018 394.146,158.528 396.26,147.239 398.374,157.055 400.488,129.08 402.602,147.239 404.715,153.129 406.829,160 408.943,160 411.057,160 413.171,151.656 415.285,158.528 417.398,160 419.512,160 421.626,138.405 423.74,158.528 425.854,160 427.967,160 430.081,160 432.195,160 434.309,160 436.423,160 438.537,160 440.65,160 442.764,160 444.878,160 446.992,160 449.106,160 451.22,160 453.333,160 455.447,160 457.561,159.509 459.675,160 461.789,160 463.902,160 466.016,160 468.13,160 470.244,160 472.358,160 474.472,160 476.585,160 478.699,159.509 480.813,158.037 482.927,160 485.041,160 487.154,160 489.268,160 491.382,160 493.496,160 495.61,160 497.724,160 499.837,160 501.951,160 504.065,160 506.179,159.509 508.293,158.037 510.407,157.055 512.52,160 514.634,160 516.748,160 518.862,156.564 520.976,157.546 523.089,147.239 525.203,160 527.317,160 529.431,160 531.545,155.092 533.659,148.221 535.772,160 537.886,160 540,158.037 542.114,160 544.228,158.037 546.341,160 548.455,160 550.569,160 552.683,160 554.797,160 556.911,160 559.024,159.018 561.138,144.294 563.252,159.018 565.366,160 567.48,139.387 569.593,121.718 571.707,120.736 573.821,147.73 575.935,146.258 578.049,157.055 580.163,160 582.276,160 584.39,160 586.504,160 588.618,160 590.732,160 592.846,160 594.959,160 597.073,157.546 599.187,153.62 601.301,148.712 603.415,160 605.528,149.202 607.642,149.693 609.756,134.969 611.87,146.258 613.984,145.767 616.098,146.258 618.211,150.184 620.325,154.11 622.439,154.601 624.553,154.11 626.667,157.055 628.78,156.564 630.894,159.509 633.008,160 635.122,160 637.236,160 639.35,160 641.463,160 643.577,160 645.691,160 647.805,160 649.919,158.528 652.033,159.509 654.146,160 656.26,160 658.374,159.509 660.488,142.331 662.602,144.785 664.715,157.055 666.829,158.528 668.943,160 671.057,160 673.171,159.509 675.285,160 677.398,160 679.512,159.018 681.626,153.62 683.74,159.018 685.854,160 687.967,160 690.081,149.693 692.195,155.583 694.309,158.528 696.423,156.074 698.537,155.583 700.65,159.509 702.764,159.509 704.878,160 706.992,160 709.106,151.656 711.22,140.859 713.333,155.092 715.447,160 717.561,141.84 719.675,150.184 721.789,152.147 723.902,160 726.016,160 728.13,160 730.244,160 732.358,160 734.472,160 736.585,160 738.699,160 740.813,160 742.927,160 745.041,160 747.154,160 749.268,158.037 751.382,160 753.496,160 755.61,160 757.724,160 759.837,160 761.951,160 764.065,160 766.179,160 768.293,160 770.407,160 772.52,160 774.634,160 776.748,160 778.862,160 780.976,156.564 783.089,154.601 785.203,160 787.317,160 789.431,160 791.545,160 793.659,159.509 795.772,160 797.886,160 800,160" fill="none" stroke="var(--accent)" stroke-width="1.5" stroke-linecap="round" stroke-linejoin="round"/>
</svg>

