<svg xmlns="http://www.w3.org/2000/svg" width="820" height="180" viewBox="0 0 820 180">

<style>
  :root {
    --bg:        #f6f8fa;
    --card:      #ffffff;
    --border:    #d0d7de;
    --primary:   #1f2328;
    --secondary: #636c76;
    --muted:     #8c959f;
    --accent:    #0969da;
    --green:     #1a7f37;
    --yellow:    #9a6700;
    --red:       #cf222e;
    --hover:     #f3f4f6;
    --spark-bg:  #f0f3f6;
    --spark:     #0969da;
    --pill:      #eaf1fb;
    --pill-txt:  #0969da;
    --div:       #d0d7de;
  }
  @media (prefers-color-scheme: dark) {
    :root {
      --bg:        #0d1117;
      --card:      #161b22;
      --border:    #30363d;
      --primary:   #e6edf3;
      --secondary: #848d97;
      --muted:     #7d8590;
      --accent:    #2f81f7;
      --green:     #3fb950;
      --yellow:    #d29922;
      --red:       #f85149;
      --hover:     #21262d;
      --spark-bg:  #1c2128;
      --spark:     #58a6ff;
      --pill:      #1c2d3f;
      --pill-txt:  #58a6ff;
      --div:       #30363d;
    }
  }
  
  .bg          { fill: var(--bg); }
  .card        { fill: var(--card); stroke: var(--border); stroke-width: 1; }
  .lang-pill   { fill: var(--pill); }
  .spark-bg    { fill: var(--spark-bg); }
  .spark-line  { stroke: var(--spark); }
  .divider     { stroke: var(--div); stroke-width: 1; }
  .clr-primary   { fill: var(--primary); }
  .clr-secondary { fill: var(--secondary); }
  .clr-muted     { fill: var(--muted); }
  .clr-accent    { fill: var(--accent); }
  .clr-green     { fill: var(--green); }
  .clr-yellow    { fill: var(--yellow); }
  .clr-red       { fill: var(--red); }
  .txt-bold    { font-weight: 600; }
  svg text     { font-family: -apple-system, BlinkMacSystemFont, "Segoe UI", Helvetica, Arial, sans-serif; }
</style>

<rect x="0" y="0" width="820" height="180" rx="8" class="card"/>
  <text x="20" y="24" class="clr-primary txt-bold" text-anchor="start" font-size="14">Contribution History &amp; Activity</text>
  <line x1="20" y1="36" x2="800" y2="36" class="divider"/>
  <text x="20" y="60" class="clr-muted" text-anchor="start" font-size="12">Years Active:</text>
  <text x="100" y="60" class="clr-primary txt-bold" text-anchor="start" font-size="12">5.7</text>
  <text x="160" y="60" class="clr-muted" text-anchor="start" font-size="12">Commits (Last Year):</text>
  <text x="290" y="60" class="clr-primary txt-bold" text-anchor="start" font-size="12">1213</text>
  <text x="360" y="60" class="clr-muted" text-anchor="start" font-size="12">Highest Daily:</text>
  <text x="450" y="60" class="clr-primary txt-bold" text-anchor="start" font-size="12">163</text>
  <polygon points="20,160 20,160 22.1196,160 24.2391,160 26.3587,160 28.4783,160 30.5978,160 32.7174,160 34.837,160 36.9565,160 39.0761,160 41.1957,160 43.3152,160 45.4348,160 47.5543,160 49.6739,160 51.7935,160 53.913,159.018 56.0326,160 58.1522,160 60.2717,160 62.3913,145.276 64.5109,155.583 66.6304,157.546 68.75,155.583 70.8696,157.055 72.9891,156.074 75.1087,160 77.2283,160 79.3478,160 81.4674,158.037 83.587,159.018 85.7065,158.037 87.8261,156.564 89.9457,160 92.0652,158.528 94.1848,156.564 96.3043,160 98.4239,154.11 100.543,149.202 102.663,149.202 104.783,153.62 106.902,141.84 109.022,154.601 111.141,160 113.261,154.601 115.38,160 117.5,160 119.62,157.546 121.739,148.221 123.859,159.018 125.978,160 128.098,158.037 130.217,160 132.337,159.509 134.457,160 136.576,160 138.696,160 140.815,160 142.935,151.656 145.054,155.583 147.174,156.074 149.293,157.546 151.413,150.675 153.533,160 155.652,158.037 157.772,156.564 159.891,158.037 162.011,156.074 164.13,160 166.25,154.11 168.37,160 170.489,159.509 172.609,160 174.728,160 176.848,157.546 178.967,160 181.087,160 183.207,160 185.326,160 187.446,160 189.565,160 191.685,160 193.804,160 195.924,160 198.043,160 200.163,160 202.283,160 204.402,160 206.522,160 208.641,160 210.761,160 212.88,154.601 215,158.037 217.12,160 219.239,160 221.359,160 223.478,160 225.598,160 227.717,160 229.837,160 231.957,160 234.076,160 236.196,160 238.315,160 240.435,160 242.554,160 244.674,160 246.793,160 248.913,160 251.033,160 253.152,160 255.272,160 257.391,160 259.511,160 261.63,157.055 263.75,160 265.87,160 267.989,160 270.109,160 272.228,155.092 274.348,160 276.467,160 278.587,160 280.707,160 282.826,137.423 284.946,153.62 287.065,80 289.185,155.092 291.304,149.202 293.424,155.092 295.543,158.037 297.663,158.528 299.783,159.509 301.902,156.074 304.022,160 306.141,159.018 308.261,160 310.38,159.509 312.5,159.018 314.62,159.509 316.739,160 318.859,158.528 320.978,160 323.098,159.018 325.217,159.018 327.337,157.546 329.457,157.055 331.576,160 333.696,160 335.815,159.509 337.935,159.509 340.054,158.528 342.174,159.509 344.293,157.055 346.413,157.055 348.533,159.018 350.652,158.528 352.772,147.239 354.891,157.055 357.011,129.08 359.13,147.239 361.25,153.129 363.37,160 365.489,160 367.609,160 369.728,151.656 371.848,158.528 373.967,160 376.087,160 378.207,138.405 380.326,158.528 382.446,160 384.565,160 386.685,160 388.804,160 390.924,160 393.043,160 395.163,160 397.283,160 399.402,160 401.522,160 403.641,160 405.761,160 407.88,160 410,160 412.12,160 414.239,159.509 416.359,160 418.478,160 420.598,160 422.717,160 424.837,160 426.957,160 429.076,160 431.196,160 433.315,160 435.435,159.509 437.554,158.037 439.674,160 441.793,160 443.913,160 446.033,160 448.152,160 450.272,160 452.391,160 454.511,160 456.63,160 458.75,160 460.87,160 462.989,159.509 465.109,158.037 467.228,157.055 469.348,160 471.467,160 473.587,160 475.707,156.564 477.826,157.546 479.946,147.239 482.065,160 484.185,160 486.304,160 488.424,155.092 490.543,148.221 492.663,160 494.783,160 496.902,158.037 499.022,160 501.141,158.037 503.261,160 505.38,160 507.5,160 509.62,160 511.739,160 513.859,160 515.978,159.018 518.098,144.294 520.217,159.018 522.337,160 524.457,139.387 526.576,121.718 528.696,120.736 530.815,147.73 532.935,146.258 535.054,157.055 537.174,160 539.293,160 541.413,160 543.533,160 545.652,160 547.772,160 549.891,160 552.011,160 554.13,157.546 556.25,153.62 558.37,148.712 560.489,160 562.609,149.202 564.728,149.693 566.848,134.969 568.967,146.258 571.087,145.767 573.207,146.258 575.326,150.184 577.446,154.11 579.565,154.601 581.685,154.11 583.804,157.055 585.924,156.564 588.043,159.509 590.163,160 592.283,160 594.402,160 596.522,160 598.641,160 600.761,160 602.88,160 605,160 607.12,158.528 609.239,159.509 611.359,160 613.478,160 615.598,159.509 617.717,142.331 619.837,144.785 621.957,157.055 624.076,158.528 626.196,160 628.315,160 630.435,159.509 632.554,160 634.674,160 636.793,159.018 638.913,153.62 641.033,159.018 643.152,160 645.272,160 647.391,149.693 649.511,155.583 651.63,158.528 653.75,156.074 655.87,155.583 657.989,159.509 660.109,159.509 662.228,160 664.348,160 666.467,151.656 668.587,140.859 670.707,155.092 672.826,160 674.946,141.84 677.065,150.184 679.185,152.147 681.304,160 683.424,160 685.543,160 687.663,160 689.783,160 691.902,160 694.022,160 696.141,160 698.261,160 700.38,160 702.5,160 704.62,160 706.739,158.037 708.859,160 710.978,160 713.098,160 715.217,160 717.337,160 719.457,160 721.576,160 723.696,160 725.815,160 727.935,160 730.054,160 732.174,160 734.293,160 736.413,160 738.533,156.564 740.652,154.601 742.772,160 744.891,160 747.011,160 749.13,160 751.25,159.509 753.37,160 755.489,160 757.609,159.509 759.728,159.509 761.848,160 763.967,159.509 766.087,160 768.207,160 770.326,156.074 772.446,159.509 774.565,159.509 776.685,160 778.804,158.037 780.924,160 783.043,160 785.163,160 787.283,160 789.402,160 791.522,160 793.641,160 795.761,155.583 797.88,159.509 800,160 800,160" fill="var(--pill)" opacity="0.6"/>
  <polyline points="20,160 22.1196,160 24.2391,160 26.3587,160 28.4783,160 30.5978,160 32.7174,160 34.837,160 36.9565,160 39.0761,160 41.1957,160 43.3152,160 45.4348,160 47.5543,160 49.6739,160 51.7935,160 53.913,159.018 56.0326,160 58.1522,160 60.2717,160 62.3913,145.276 64.5109,155.583 66.6304,157.546 68.75,155.583 70.8696,157.055 72.9891,156.074 75.1087,160 77.2283,160 79.3478,160 81.4674,158.037 83.587,159.018 85.7065,158.037 87.8261,156.564 89.9457,160 92.0652,158.528 94.1848,156.564 96.3043,160 98.4239,154.11 100.543,149.202 102.663,149.202 104.783,153.62 106.902,141.84 109.022,154.601 111.141,160 113.261,154.601 115.38,160 117.5,160 119.62,157.546 121.739,148.221 123.859,159.018 125.978,160 128.098,158.037 130.217,160 132.337,159.509 134.457,160 136.576,160 138.696,160 140.815,160 142.935,151.656 145.054,155.583 147.174,156.074 149.293,157.546 151.413,150.675 153.533,160 155.652,158.037 157.772,156.564 159.891,158.037 162.011,156.074 164.13,160 166.25,154.11 168.37,160 170.489,159.509 172.609,160 174.728,160 176.848,157.546 178.967,160 181.087,160 183.207,160 185.326,160 187.446,160 189.565,160 191.685,160 193.804,160 195.924,160 198.043,160 200.163,160 202.283,160 204.402,160 206.522,160 208.641,160 210.761,160 212.88,154.601 215,158.037 217.12,160 219.239,160 221.359,160 223.478,160 225.598,160 227.717,160 229.837,160 231.957,160 234.076,160 236.196,160 238.315,160 240.435,160 242.554,160 244.674,160 246.793,160 248.913,160 251.033,160 253.152,160 255.272,160 257.391,160 259.511,160 261.63,157.055 263.75,160 265.87,160 267.989,160 270.109,160 272.228,155.092 274.348,160 276.467,160 278.587,160 280.707,160 282.826,137.423 284.946,153.62 287.065,80 289.185,155.092 291.304,149.202 293.424,155.092 295.543,158.037 297.663,158.528 299.783,159.509 301.902,156.074 304.022,160 306.141,159.018 308.261,160 310.38,159.509 312.5,159.018 314.62,159.509 316.739,160 318.859,158.528 320.978,160 323.098,159.018 325.217,159.018 327.337,157.546 329.457,157.055 331.576,160 333.696,160 335.815,159.509 337.935,159.509 340.054,158.528 342.174,159.509 344.293,157.055 346.413,157.055 348.533,159.018 350.652,158.528 352.772,147.239 354.891,157.055 357.011,129.08 359.13,147.239 361.25,153.129 363.37,160 365.489,160 367.609,160 369.728,151.656 371.848,158.528 373.967,160 376.087,160 378.207,138.405 380.326,158.528 382.446,160 384.565,160 386.685,160 388.804,160 390.924,160 393.043,160 395.163,160 397.283,160 399.402,160 401.522,160 403.641,160 405.761,160 407.88,160 410,160 412.12,160 414.239,159.509 416.359,160 418.478,160 420.598,160 422.717,160 424.837,160 426.957,160 429.076,160 431.196,160 433.315,160 435.435,159.509 437.554,158.037 439.674,160 441.793,160 443.913,160 446.033,160 448.152,160 450.272,160 452.391,160 454.511,160 456.63,160 458.75,160 460.87,160 462.989,159.509 465.109,158.037 467.228,157.055 469.348,160 471.467,160 473.587,160 475.707,156.564 477.826,157.546 479.946,147.239 482.065,160 484.185,160 486.304,160 488.424,155.092 490.543,148.221 492.663,160 494.783,160 496.902,158.037 499.022,160 501.141,158.037 503.261,160 505.38,160 507.5,160 509.62,160 511.739,160 513.859,160 515.978,159.018 518.098,144.294 520.217,159.018 522.337,160 524.457,139.387 526.576,121.718 528.696,120.736 530.815,147.73 532.935,146.258 535.054,157.055 537.174,160 539.293,160 541.413,160 543.533,160 545.652,160 547.772,160 549.891,160 552.011,160 554.13,157.546 556.25,153.62 558.37,148.712 560.489,160 562.609,149.202 564.728,149.693 566.848,134.969 568.967,146.258 571.087,145.767 573.207,146.258 575.326,150.184 577.446,154.11 579.565,154.601 581.685,154.11 583.804,157.055 585.924,156.564 588.043,159.509 590.163,160 592.283,160 594.402,160 596.522,160 598.641,160 600.761,160 602.88,160 605,160 607.12,158.528 609.239,159.509 611.359,160 613.478,160 615.598,159.509 617.717,142.331 619.837,144.785 621.957,157.055 624.076,158.528 626.196,160 628.315,160 630.435,159.509 632.554,160 634.674,160 636.793,159.018 638.913,153.62 641.033,159.018 643.152,160 645.272,160 647.391,149.693 649.511,155.583 651.63,158.528 653.75,156.074 655.87,155.583 657.989,159.509 660.109,159.509 662.228,160 664.348,160 666.467,151.656 668.587,140.859 670.707,155.092 672.826,160 674.946,141.84 677.065,150.184 679.185,152.147 681.304,160 683.424,160 685.543,160 687.663,160 689.783,160 691.902,160 694.022,160 696.141,160 698.261,160 700.38,160 702.5,160 704.62,160 706.739,158.037 708.859,160 710.978,160 713.098,160 715.217,160 717.337,160 719.457,160 721.576,160 723.696,160 725.815,160 727.935,160 730.054,160 732.174,160 734.293,160 736.413,160 738.533,156.564 740.652,154.601 742.772,160 744.891,160 747.011,160 749.13,160 751.25,159.509 753.37,160 755.489,160 757.609,159.509 759.728,159.509 761.848,160 763.967,159.509 766.087,160 768.207,160 770.326,156.074 772.446,159.509 774.565,159.509 776.685,160 778.804,158.037 780.924,160 783.043,160 785.163,160 787.283,160 789.402,160 791.522,160 793.641,160 795.761,155.583 797.88,159.509 800,160" fill="none" stroke="var(--accent)" stroke-width="1.5" stroke-linecap="round" stroke-linejoin="round"/>
</svg>

