<svg xmlns="http://www.w3.org/2000/svg" width="820" height="180" viewBox="0 0 820 180">

<style>
  :root {
    --bg:        #f6f8fa;
    --card:      #ffffff;
    --border:    #d0d7de;
    --primary:   #1f2328;
    --secondary: #636c76;
    --muted:     #8c959f;
    --accent:    #0969da;
    --green:     #1a7f37;
    --yellow:    #9a6700;
    --red:       #cf222e;
    --hover:     #f3f4f6;
    --spark-bg:  #f0f3f6;
    --spark:     #0969da;
    --pill:      #eaf1fb;
    --pill-txt:  #0969da;
    --div:       #d0d7de;
  }
  @media (prefers-color-scheme: dark) {
    :root {
      --bg:        #0d1117;
      --card:      #161b22;
      --border:    #30363d;
      --primary:   #e6edf3;
      --secondary: #848d97;
      --muted:     #7d8590;
      --accent:    #2f81f7;
      --green:     #3fb950;
      --yellow:    #d29922;
      --red:       #f85149;
      --hover:     #21262d;
      --spark-bg:  #1c2128;
      --spark:     #58a6ff;
      --pill:      #1c2d3f;
      --pill-txt:  #58a6ff;
      --div:       #30363d;
    }
  }
  
  .bg          { fill: var(--bg); }
  .card        { fill: var(--card); stroke: var(--border); stroke-width: 1; }
  .lang-pill   { fill: var(--pill); }
  .spark-bg    { fill: var(--spark-bg); }
  .spark-line  { stroke: var(--spark); }
  .divider     { stroke: var(--div); stroke-width: 1; }
  .clr-primary   { fill: var(--primary); }
  .clr-secondary { fill: var(--secondary); }
  .clr-muted     { fill: var(--muted); }
  .clr-accent    { fill: var(--accent); }
  .clr-green     { fill: var(--green); }
  .clr-yellow    { fill: var(--yellow); }
  .clr-red       { fill: var(--red); }
  .txt-bold    { font-weight: 600; }
  svg text     { font-family: -apple-system, BlinkMacSystemFont, "Segoe UI", Helvetica, Arial, sans-serif; }
</style>

<rect x="0" y="0" width="820" height="180" rx="8" class="card"/>
  <text x="20" y="24" class="clr-primary txt-bold" text-anchor="start" font-size="14">Contribution History &amp; Activity</text>
  <line x1="20" y1="36" x2="800" y2="36" class="divider"/>
  <text x="20" y="60" class="clr-muted" text-anchor="start" font-size="12">Years Active:</text>
  <text x="100" y="60" class="clr-primary txt-bold" text-anchor="start" font-size="12">5.7</text>
  <text x="160" y="60" class="clr-muted" text-anchor="start" font-size="12">Commits (Last Year):</text>
  <text x="290" y="60" class="clr-primary txt-bold" text-anchor="start" font-size="12">1173</text>
  <text x="360" y="60" class="clr-muted" text-anchor="start" font-size="12">Highest Daily:</text>
  <text x="450" y="60" class="clr-primary txt-bold" text-anchor="start" font-size="12">163</text>
  <polygon points="20,160 20,160 22.137,160 24.274,160 26.411,160 28.5479,160 30.6849,160 32.8219,160 34.9589,160 37.0959,160 39.2329,160 41.3699,160 43.5068,160 45.6438,160 47.7808,160 49.9178,160 52.0548,160 54.1918,160 56.3288,160 58.4658,159.509 60.6027,160 62.7397,160 64.8767,160 67.0137,160 69.1507,160 71.2877,160 73.4247,160 75.5616,160 77.6986,160 79.8356,160 81.9726,160 84.1096,160 86.2466,160 88.3836,160 90.5205,160 92.6575,160 94.7945,160 96.9315,160 99.0685,160 101.205,160 103.342,160 105.479,160 107.616,160 109.753,160 111.89,160 114.027,159.018 116.164,160 118.301,160 120.438,160 122.575,145.276 124.712,155.583 126.849,157.546 128.986,155.583 131.123,157.055 133.26,156.074 135.397,160 137.534,160 139.671,160 141.808,158.037 143.945,159.018 146.082,158.037 148.219,156.564 150.356,160 152.493,158.528 154.63,156.564 156.767,160 158.904,154.11 161.041,149.202 163.178,149.202 165.315,153.62 167.452,141.84 169.589,154.601 171.726,160 173.863,154.601 176,160 178.137,160 180.274,157.546 182.411,148.221 184.548,159.018 186.685,160 188.822,158.037 190.959,160 193.096,159.509 195.233,160 197.37,160 199.507,160 201.644,160 203.781,151.656 205.918,155.583 208.055,156.074 210.192,157.546 212.329,150.675 214.466,160 216.603,158.037 218.74,156.564 220.877,158.037 223.014,156.074 225.151,160 227.288,154.11 229.425,160 231.562,159.509 233.699,160 235.836,160 237.973,157.546 240.11,160 242.247,160 244.384,160 246.521,160 248.658,160 250.795,160 252.932,160 255.068,160 257.205,160 259.342,160 261.479,160 263.616,160 265.753,160 267.89,160 270.027,160 272.164,160 274.301,154.601 276.438,158.037 278.575,160 280.712,160 282.849,160 284.986,160 287.123,160 289.26,160 291.397,160 293.534,160 295.671,160 297.808,160 299.945,160 302.082,160 304.219,160 306.356,160 308.493,160 310.63,160 312.767,160 314.904,160 317.041,160 319.178,160 321.315,160 323.452,157.055 325.589,160 327.726,160 329.863,160 332,160 334.137,155.092 336.274,160 338.411,160 340.548,160 342.685,160 344.822,137.423 346.959,153.62 349.096,80 351.233,155.092 353.37,149.202 355.507,155.092 357.644,158.037 359.781,158.528 361.918,159.509 364.055,156.074 366.192,160 368.329,159.018 370.466,160 372.603,159.509 374.74,159.018 376.877,159.509 379.014,160 381.151,158.528 383.288,160 385.425,159.018 387.562,159.018 389.699,157.546 391.836,157.055 393.973,160 396.11,160 398.247,159.509 400.384,159.509 402.521,158.528 404.658,159.509 406.795,157.055 408.932,157.055 411.068,159.018 413.205,158.528 415.342,147.239 417.479,157.055 419.616,129.08 421.753,147.239 423.89,153.129 426.027,160 428.164,160 430.301,160 432.438,151.656 434.575,158.528 436.712,160 438.849,160 440.986,138.405 443.123,158.528 445.26,160 447.397,160 449.534,160 451.671,160 453.808,160 455.945,160 458.082,160 460.219,160 462.356,160 464.493,160 466.63,160 468.767,160 470.904,160 473.041,160 475.178,160 477.315,159.509 479.452,160 481.589,160 483.726,160 485.863,160 488,160 490.137,160 492.274,160 494.411,160 496.548,160 498.685,159.509 500.822,158.037 502.959,160 505.096,160 507.233,160 509.37,160 511.507,160 513.644,160 515.781,160 517.918,160 520.055,160 522.192,160 524.329,160 526.466,159.509 528.603,158.037 530.74,157.055 532.877,160 535.014,160 537.151,160 539.288,156.564 541.425,157.546 543.562,147.239 545.699,160 547.836,160 549.973,160 552.11,155.092 554.247,148.221 556.384,160 558.521,160 560.658,158.037 562.795,160 564.932,158.037 567.068,160 569.205,160 571.342,160 573.479,160 575.616,160 577.753,160 579.89,159.018 582.027,144.294 584.164,159.018 586.301,160 588.438,139.387 590.575,121.718 592.712,120.736 594.849,147.73 596.986,146.258 599.123,157.055 601.26,160 603.397,160 605.534,160 607.671,160 609.808,160 611.945,160 614.082,160 616.219,160 618.356,157.546 620.493,153.62 622.63,148.712 624.767,160 626.904,149.202 629.041,149.693 631.178,134.969 633.315,146.258 635.452,145.767 637.589,146.258 639.726,150.184 641.863,154.11 644,154.601 646.137,154.11 648.274,157.055 650.411,156.564 652.548,159.509 654.685,160 656.822,160 658.959,160 661.096,160 663.233,160 665.37,160 667.507,160 669.644,160 671.781,158.528 673.918,159.509 676.055,160 678.192,160 680.329,159.509 682.466,142.331 684.603,144.785 686.74,157.055 688.877,158.528 691.014,160 693.151,160 695.288,159.509 697.425,160 699.562,160 701.699,159.018 703.836,153.62 705.973,159.018 708.11,160 710.247,160 712.384,149.693 714.521,155.583 716.658,158.528 718.795,156.074 720.932,155.583 723.068,159.509 725.205,159.509 727.342,160 729.479,160 731.616,151.656 733.753,140.859 735.89,155.092 738.027,160 740.164,141.84 742.301,150.184 744.438,152.147 746.575,160 748.712,160 750.849,160 752.986,160 755.123,160 757.26,160 759.397,160 761.534,160 763.671,160 765.808,160 767.945,160 770.082,160 772.219,158.037 774.356,160 776.493,160 778.63,160 780.767,160 782.904,160 785.041,160 787.178,160 789.315,160 791.452,160 793.589,160 795.726,160 797.863,160 800,160 800,160" fill="var(--pill)" opacity="0.6"/>
  <polyline points="20,160 22.137,160 24.274,160 26.411,160 28.5479,160 30.6849,160 32.8219,160 34.9589,160 37.0959,160 39.2329,160 41.3699,160 43.5068,160 45.6438,160 47.7808,160 49.9178,160 52.0548,160 54.1918,160 56.3288,160 58.4658,159.509 60.6027,160 62.7397,160 64.8767,160 67.0137,160 69.1507,160 71.2877,160 73.4247,160 75.5616,160 77.6986,160 79.8356,160 81.9726,160 84.1096,160 86.2466,160 88.3836,160 90.5205,160 92.6575,160 94.7945,160 96.9315,160 99.0685,160 101.205,160 103.342,160 105.479,160 107.616,160 109.753,160 111.89,160 114.027,159.018 116.164,160 118.301,160 120.438,160 122.575,145.276 124.712,155.583 126.849,157.546 128.986,155.583 131.123,157.055 133.26,156.074 135.397,160 137.534,160 139.671,160 141.808,158.037 143.945,159.018 146.082,158.037 148.219,156.564 150.356,160 152.493,158.528 154.63,156.564 156.767,160 158.904,154.11 161.041,149.202 163.178,149.202 165.315,153.62 167.452,141.84 169.589,154.601 171.726,160 173.863,154.601 176,160 178.137,160 180.274,157.546 182.411,148.221 184.548,159.018 186.685,160 188.822,158.037 190.959,160 193.096,159.509 195.233,160 197.37,160 199.507,160 201.644,160 203.781,151.656 205.918,155.583 208.055,156.074 210.192,157.546 212.329,150.675 214.466,160 216.603,158.037 218.74,156.564 220.877,158.037 223.014,156.074 225.151,160 227.288,154.11 229.425,160 231.562,159.509 233.699,160 235.836,160 237.973,157.546 240.11,160 242.247,160 244.384,160 246.521,160 248.658,160 250.795,160 252.932,160 255.068,160 257.205,160 259.342,160 261.479,160 263.616,160 265.753,160 267.89,160 270.027,160 272.164,160 274.301,154.601 276.438,158.037 278.575,160 280.712,160 282.849,160 284.986,160 287.123,160 289.26,160 291.397,160 293.534,160 295.671,160 297.808,160 299.945,160 302.082,160 304.219,160 306.356,160 308.493,160 310.63,160 312.767,160 314.904,160 317.041,160 319.178,160 321.315,160 323.452,157.055 325.589,160 327.726,160 329.863,160 332,160 334.137,155.092 336.274,160 338.411,160 340.548,160 342.685,160 344.822,137.423 346.959,153.62 349.096,80 351.233,155.092 353.37,149.202 355.507,155.092 357.644,158.037 359.781,158.528 361.918,159.509 364.055,156.074 366.192,160 368.329,159.018 370.466,160 372.603,159.509 374.74,159.018 376.877,159.509 379.014,160 381.151,158.528 383.288,160 385.425,159.018 387.562,159.018 389.699,157.546 391.836,157.055 393.973,160 396.11,160 398.247,159.509 400.384,159.509 402.521,158.528 404.658,159.509 406.795,157.055 408.932,157.055 411.068,159.018 413.205,158.528 415.342,147.239 417.479,157.055 419.616,129.08 421.753,147.239 423.89,153.129 426.027,160 428.164,160 430.301,160 432.438,151.656 434.575,158.528 436.712,160 438.849,160 440.986,138.405 443.123,158.528 445.26,160 447.397,160 449.534,160 451.671,160 453.808,160 455.945,160 458.082,160 460.219,160 462.356,160 464.493,160 466.63,160 468.767,160 470.904,160 473.041,160 475.178,160 477.315,159.509 479.452,160 481.589,160 483.726,160 485.863,160 488,160 490.137,160 492.274,160 494.411,160 496.548,160 498.685,159.509 500.822,158.037 502.959,160 505.096,160 507.233,160 509.37,160 511.507,160 513.644,160 515.781,160 517.918,160 520.055,160 522.192,160 524.329,160 526.466,159.509 528.603,158.037 530.74,157.055 532.877,160 535.014,160 537.151,160 539.288,156.564 541.425,157.546 543.562,147.239 545.699,160 547.836,160 549.973,160 552.11,155.092 554.247,148.221 556.384,160 558.521,160 560.658,158.037 562.795,160 564.932,158.037 567.068,160 569.205,160 571.342,160 573.479,160 575.616,160 577.753,160 579.89,159.018 582.027,144.294 584.164,159.018 586.301,160 588.438,139.387 590.575,121.718 592.712,120.736 594.849,147.73 596.986,146.258 599.123,157.055 601.26,160 603.397,160 605.534,160 607.671,160 609.808,160 611.945,160 614.082,160 616.219,160 618.356,157.546 620.493,153.62 622.63,148.712 624.767,160 626.904,149.202 629.041,149.693 631.178,134.969 633.315,146.258 635.452,145.767 637.589,146.258 639.726,150.184 641.863,154.11 644,154.601 646.137,154.11 648.274,157.055 650.411,156.564 652.548,159.509 654.685,160 656.822,160 658.959,160 661.096,160 663.233,160 665.37,160 667.507,160 669.644,160 671.781,158.528 673.918,159.509 676.055,160 678.192,160 680.329,159.509 682.466,142.331 684.603,144.785 686.74,157.055 688.877,158.528 691.014,160 693.151,160 695.288,159.509 697.425,160 699.562,160 701.699,159.018 703.836,153.62 705.973,159.018 708.11,160 710.247,160 712.384,149.693 714.521,155.583 716.658,158.528 718.795,156.074 720.932,155.583 723.068,159.509 725.205,159.509 727.342,160 729.479,160 731.616,151.656 733.753,140.859 735.89,155.092 738.027,160 740.164,141.84 742.301,150.184 744.438,152.147 746.575,160 748.712,160 750.849,160 752.986,160 755.123,160 757.26,160 759.397,160 761.534,160 763.671,160 765.808,160 767.945,160 770.082,160 772.219,158.037 774.356,160 776.493,160 778.63,160 780.767,160 782.904,160 785.041,160 787.178,160 789.315,160 791.452,160 793.589,160 795.726,160 797.863,160 800,160" fill="none" stroke="var(--accent)" stroke-width="1.5" stroke-linecap="round" stroke-linejoin="round"/>
</svg>

