<svg xmlns="http://www.w3.org/2000/svg" width="820" height="180" viewBox="0 0 820 180">

<style>
  :root {
    --bg:        #f6f8fa;
    --card:      #ffffff;
    --border:    #d0d7de;
    --primary:   #1f2328;
    --secondary: #636c76;
    --muted:     #8c959f;
    --accent:    #0969da;
    --green:     #1a7f37;
    --yellow:    #9a6700;
    --red:       #cf222e;
    --hover:     #f3f4f6;
    --spark-bg:  #f0f3f6;
    --spark:     #0969da;
    --pill:      #eaf1fb;
    --pill-txt:  #0969da;
    --div:       #d0d7de;
  }
  @media (prefers-color-scheme: dark) {
    :root {
      --bg:        #0d1117;
      --card:      #161b22;
      --border:    #30363d;
      --primary:   #e6edf3;
      --secondary: #848d97;
      --muted:     #7d8590;
      --accent:    #2f81f7;
      --green:     #3fb950;
      --yellow:    #d29922;
      --red:       #f85149;
      --hover:     #21262d;
      --spark-bg:  #1c2128;
      --spark:     #58a6ff;
      --pill:      #1c2d3f;
      --pill-txt:  #58a6ff;
      --div:       #30363d;
    }
  }
  
  .bg          { fill: var(--bg); }
  .card        { fill: var(--card); stroke: var(--border); stroke-width: 1; }
  .lang-pill   { fill: var(--pill); }
  .spark-bg    { fill: var(--spark-bg); }
  .spark-line  { stroke: var(--spark); }
  .divider     { stroke: var(--div); stroke-width: 1; }
  .clr-primary   { fill: var(--primary); }
  .clr-secondary { fill: var(--secondary); }
  .clr-muted     { fill: var(--muted); }
  .clr-accent    { fill: var(--accent); }
  .clr-green     { fill: var(--green); }
  .clr-yellow    { fill: var(--yellow); }
  .clr-red       { fill: var(--red); }
  .txt-bold    { font-weight: 600; }
  svg text     { font-family: -apple-system, BlinkMacSystemFont, "Segoe UI", Helvetica, Arial, sans-serif; }
</style>

<rect x="0" y="0" width="820" height="180" rx="8" class="card"/>
  <text x="20" y="24" class="clr-primary txt-bold" text-anchor="start" font-size="14">Contribution History &amp; Activity</text>
  <line x1="20" y1="36" x2="800" y2="36" class="divider"/>
  <text x="20" y="60" class="clr-muted" text-anchor="start" font-size="12">Years Active:</text>
  <text x="100" y="60" class="clr-primary txt-bold" text-anchor="start" font-size="12">5.7</text>
  <text x="160" y="60" class="clr-muted" text-anchor="start" font-size="12">Commits (Last Year):</text>
  <text x="290" y="60" class="clr-primary txt-bold" text-anchor="start" font-size="12">1191</text>
  <text x="360" y="60" class="clr-muted" text-anchor="start" font-size="12">Highest Daily:</text>
  <text x="450" y="60" class="clr-primary txt-bold" text-anchor="start" font-size="12">163</text>
  <polygon points="20,160 20,160 22.1253,160 24.2507,160 26.376,160 28.5014,160 30.6267,160 32.752,160 34.8774,160 37.0027,160 39.1281,160 41.2534,160 43.3787,159.509 45.5041,160 47.6294,160 49.7548,160 51.8801,160 54.0054,160 56.1308,160 58.2561,160 60.3815,160 62.5068,160 64.6322,160 66.7575,160 68.8828,160 71.0082,160 73.1335,160 75.2589,160 77.3842,160 79.5095,160 81.6349,160 83.7602,160 85.8856,160 88.0109,160 90.1362,160 92.2616,160 94.3869,160 96.5123,160 98.6376,159.018 100.763,160 102.888,160 105.014,160 107.139,145.276 109.264,155.583 111.39,157.546 113.515,155.583 115.64,157.055 117.766,156.074 119.891,160 122.016,160 124.142,160 126.267,158.037 128.392,159.018 130.518,158.037 132.643,156.564 134.768,160 136.894,158.528 139.019,156.564 141.144,160 143.27,154.11 145.395,149.202 147.52,149.202 149.646,153.62 151.771,141.84 153.896,154.601 156.022,160 158.147,154.601 160.272,160 162.398,160 164.523,157.546 166.649,148.221 168.774,159.018 170.899,160 173.025,158.037 175.15,160 177.275,159.509 179.401,160 181.526,160 183.651,160 185.777,160 187.902,151.656 190.027,155.583 192.153,156.074 194.278,157.546 196.403,150.675 198.529,160 200.654,158.037 202.779,156.564 204.905,158.037 207.03,156.074 209.155,160 211.281,154.11 213.406,160 215.531,159.509 217.657,160 219.782,160 221.907,157.546 224.033,160 226.158,160 228.283,160 230.409,160 232.534,160 234.659,160 236.785,160 238.91,160 241.035,160 243.161,160 245.286,160 247.411,160 249.537,160 251.662,160 253.787,160 255.913,160 258.038,154.601 260.163,158.037 262.289,160 264.414,160 266.54,160 268.665,160 270.79,160 272.916,160 275.041,160 277.166,160 279.292,160 281.417,160 283.542,160 285.668,160 287.793,160 289.918,160 292.044,160 294.169,160 296.294,160 298.42,160 300.545,160 302.67,160 304.796,160 306.921,157.055 309.046,160 311.172,160 313.297,160 315.422,160 317.548,155.092 319.673,160 321.798,160 323.924,160 326.049,160 328.174,137.423 330.3,153.62 332.425,80 334.55,155.092 336.676,149.202 338.801,155.092 340.926,158.037 343.052,158.528 345.177,159.509 347.302,156.074 349.428,160 351.553,159.018 353.678,160 355.804,159.509 357.929,159.018 360.054,159.509 362.18,160 364.305,158.528 366.431,160 368.556,159.018 370.681,159.018 372.807,157.546 374.932,157.055 377.057,160 379.183,160 381.308,159.509 383.433,159.509 385.559,158.528 387.684,159.509 389.809,157.055 391.935,157.055 394.06,159.018 396.185,158.528 398.311,147.239 400.436,157.055 402.561,129.08 404.687,147.239 406.812,153.129 408.937,160 411.063,160 413.188,160 415.313,151.656 417.439,158.528 419.564,160 421.689,160 423.815,138.405 425.94,158.528 428.065,160 430.191,160 432.316,160 434.441,160 436.567,160 438.692,160 440.817,160 442.943,160 445.068,160 447.193,160 449.319,160 451.444,160 453.569,160 455.695,160 457.82,160 459.946,159.509 462.071,160 464.196,160 466.322,160 468.447,160 470.572,160 472.698,160 474.823,160 476.948,160 479.074,160 481.199,159.509 483.324,158.037 485.45,160 487.575,160 489.7,160 491.826,160 493.951,160 496.076,160 498.202,160 500.327,160 502.452,160 504.578,160 506.703,160 508.828,159.509 510.954,158.037 513.079,157.055 515.204,160 517.33,160 519.455,160 521.58,156.564 523.706,157.546 525.831,147.239 527.956,160 530.082,160 532.207,160 534.332,155.092 536.458,148.221 538.583,160 540.708,160 542.834,158.037 544.959,160 547.084,158.037 549.21,160 551.335,160 553.46,160 555.586,160 557.711,160 559.837,160 561.962,159.018 564.087,144.294 566.213,159.018 568.338,160 570.463,139.387 572.589,121.718 574.714,120.736 576.839,147.73 578.965,146.258 581.09,157.055 583.215,160 585.341,160 587.466,160 589.591,160 591.717,160 593.842,160 595.967,160 598.093,160 600.218,157.546 602.343,153.62 604.469,148.712 606.594,160 608.719,149.202 610.845,149.693 612.97,134.969 615.095,146.258 617.221,145.767 619.346,146.258 621.471,150.184 623.597,154.11 625.722,154.601 627.847,154.11 629.973,157.055 632.098,156.564 634.223,159.509 636.349,160 638.474,160 640.599,160 642.725,160 644.85,160 646.975,160 649.101,160 651.226,160 653.351,158.528 655.477,159.509 657.602,160 659.728,160 661.853,159.509 663.978,142.331 666.104,144.785 668.229,157.055 670.354,158.528 672.48,160 674.605,160 676.73,159.509 678.856,160 680.981,160 683.106,159.018 685.232,153.62 687.357,159.018 689.482,160 691.608,160 693.733,149.693 695.858,155.583 697.984,158.528 700.109,156.074 702.234,155.583 704.36,159.509 706.485,159.509 708.61,160 710.736,160 712.861,151.656 714.986,140.859 717.112,155.092 719.237,160 721.362,141.84 723.488,150.184 725.613,152.147 727.738,160 729.864,160 731.989,160 734.114,160 736.24,160 738.365,160 740.49,160 742.616,160 744.741,160 746.866,160 748.992,160 751.117,160 753.243,158.037 755.368,160 757.493,160 759.619,160 761.744,160 763.869,160 765.995,160 768.12,160 770.245,160 772.371,160 774.496,160 776.621,160 778.747,160 780.872,160 782.997,160 785.123,156.564 787.248,154.601 789.373,160 791.499,160 793.624,160 795.749,160 797.875,159.509 800,160 800,160" fill="var(--pill)" opacity="0.6"/>
  <polyline points="20,160 22.1253,160 24.2507,160 26.376,160 28.5014,160 30.6267,160 32.752,160 34.8774,160 37.0027,160 39.1281,160 41.2534,160 43.3787,159.509 45.5041,160 47.6294,160 49.7548,160 51.8801,160 54.0054,160 56.1308,160 58.2561,160 60.3815,160 62.5068,160 64.6322,160 66.7575,160 68.8828,160 71.0082,160 73.1335,160 75.2589,160 77.3842,160 79.5095,160 81.6349,160 83.7602,160 85.8856,160 88.0109,160 90.1362,160 92.2616,160 94.3869,160 96.5123,160 98.6376,159.018 100.763,160 102.888,160 105.014,160 107.139,145.276 109.264,155.583 111.39,157.546 113.515,155.583 115.64,157.055 117.766,156.074 119.891,160 122.016,160 124.142,160 126.267,158.037 128.392,159.018 130.518,158.037 132.643,156.564 134.768,160 136.894,158.528 139.019,156.564 141.144,160 143.27,154.11 145.395,149.202 147.52,149.202 149.646,153.62 151.771,141.84 153.896,154.601 156.022,160 158.147,154.601 160.272,160 162.398,160 164.523,157.546 166.649,148.221 168.774,159.018 170.899,160 173.025,158.037 175.15,160 177.275,159.509 179.401,160 181.526,160 183.651,160 185.777,160 187.902,151.656 190.027,155.583 192.153,156.074 194.278,157.546 196.403,150.675 198.529,160 200.654,158.037 202.779,156.564 204.905,158.037 207.03,156.074 209.155,160 211.281,154.11 213.406,160 215.531,159.509 217.657,160 219.782,160 221.907,157.546 224.033,160 226.158,160 228.283,160 230.409,160 232.534,160 234.659,160 236.785,160 238.91,160 241.035,160 243.161,160 245.286,160 247.411,160 249.537,160 251.662,160 253.787,160 255.913,160 258.038,154.601 260.163,158.037 262.289,160 264.414,160 266.54,160 268.665,160 270.79,160 272.916,160 275.041,160 277.166,160 279.292,160 281.417,160 283.542,160 285.668,160 287.793,160 289.918,160 292.044,160 294.169,160 296.294,160 298.42,160 300.545,160 302.67,160 304.796,160 306.921,157.055 309.046,160 311.172,160 313.297,160 315.422,160 317.548,155.092 319.673,160 321.798,160 323.924,160 326.049,160 328.174,137.423 330.3,153.62 332.425,80 334.55,155.092 336.676,149.202 338.801,155.092 340.926,158.037 343.052,158.528 345.177,159.509 347.302,156.074 349.428,160 351.553,159.018 353.678,160 355.804,159.509 357.929,159.018 360.054,159.509 362.18,160 364.305,158.528 366.431,160 368.556,159.018 370.681,159.018 372.807,157.546 374.932,157.055 377.057,160 379.183,160 381.308,159.509 383.433,159.509 385.559,158.528 387.684,159.509 389.809,157.055 391.935,157.055 394.06,159.018 396.185,158.528 398.311,147.239 400.436,157.055 402.561,129.08 404.687,147.239 406.812,153.129 408.937,160 411.063,160 413.188,160 415.313,151.656 417.439,158.528 419.564,160 421.689,160 423.815,138.405 425.94,158.528 428.065,160 430.191,160 432.316,160 434.441,160 436.567,160 438.692,160 440.817,160 442.943,160 445.068,160 447.193,160 449.319,160 451.444,160 453.569,160 455.695,160 457.82,160 459.946,159.509 462.071,160 464.196,160 466.322,160 468.447,160 470.572,160 472.698,160 474.823,160 476.948,160 479.074,160 481.199,159.509 483.324,158.037 485.45,160 487.575,160 489.7,160 491.826,160 493.951,160 496.076,160 498.202,160 500.327,160 502.452,160 504.578,160 506.703,160 508.828,159.509 510.954,158.037 513.079,157.055 515.204,160 517.33,160 519.455,160 521.58,156.564 523.706,157.546 525.831,147.239 527.956,160 530.082,160 532.207,160 534.332,155.092 536.458,148.221 538.583,160 540.708,160 542.834,158.037 544.959,160 547.084,158.037 549.21,160 551.335,160 553.46,160 555.586,160 557.711,160 559.837,160 561.962,159.018 564.087,144.294 566.213,159.018 568.338,160 570.463,139.387 572.589,121.718 574.714,120.736 576.839,147.73 578.965,146.258 581.09,157.055 583.215,160 585.341,160 587.466,160 589.591,160 591.717,160 593.842,160 595.967,160 598.093,160 600.218,157.546 602.343,153.62 604.469,148.712 606.594,160 608.719,149.202 610.845,149.693 612.97,134.969 615.095,146.258 617.221,145.767 619.346,146.258 621.471,150.184 623.597,154.11 625.722,154.601 627.847,154.11 629.973,157.055 632.098,156.564 634.223,159.509 636.349,160 638.474,160 640.599,160 642.725,160 644.85,160 646.975,160 649.101,160 651.226,160 653.351,158.528 655.477,159.509 657.602,160 659.728,160 661.853,159.509 663.978,142.331 666.104,144.785 668.229,157.055 670.354,158.528 672.48,160 674.605,160 676.73,159.509 678.856,160 680.981,160 683.106,159.018 685.232,153.62 687.357,159.018 689.482,160 691.608,160 693.733,149.693 695.858,155.583 697.984,158.528 700.109,156.074 702.234,155.583 704.36,159.509 706.485,159.509 708.61,160 710.736,160 712.861,151.656 714.986,140.859 717.112,155.092 719.237,160 721.362,141.84 723.488,150.184 725.613,152.147 727.738,160 729.864,160 731.989,160 734.114,160 736.24,160 738.365,160 740.49,160 742.616,160 744.741,160 746.866,160 748.992,160 751.117,160 753.243,158.037 755.368,160 757.493,160 759.619,160 761.744,160 763.869,160 765.995,160 768.12,160 770.245,160 772.371,160 774.496,160 776.621,160 778.747,160 780.872,160 782.997,160 785.123,156.564 787.248,154.601 789.373,160 791.499,160 793.624,160 795.749,160 797.875,159.509 800,160" fill="none" stroke="var(--accent)" stroke-width="1.5" stroke-linecap="round" stroke-linejoin="round"/>
</svg>

