<svg xmlns="http://www.w3.org/2000/svg" width="820" height="180" viewBox="0 0 820 180">

<style>
  :root {
    --bg:        #f6f8fa;
    --card:      #ffffff;
    --border:    #d0d7de;
    --primary:   #1f2328;
    --secondary: #636c76;
    --muted:     #8c959f;
    --accent:    #0969da;
    --green:     #1a7f37;
    --yellow:    #9a6700;
    --red:       #cf222e;
    --hover:     #f3f4f6;
    --spark-bg:  #f0f3f6;
    --spark:     #0969da;
    --pill:      #eaf1fb;
    --pill-txt:  #0969da;
    --div:       #d0d7de;
  }
  @media (prefers-color-scheme: dark) {
    :root {
      --bg:        #0d1117;
      --card:      #161b22;
      --border:    #30363d;
      --primary:   #e6edf3;
      --secondary: #848d97;
      --muted:     #7d8590;
      --accent:    #2f81f7;
      --green:     #3fb950;
      --yellow:    #d29922;
      --red:       #f85149;
      --hover:     #21262d;
      --spark-bg:  #1c2128;
      --spark:     #58a6ff;
      --pill:      #1c2d3f;
      --pill-txt:  #58a6ff;
      --div:       #30363d;
    }
  }
  
  .bg          { fill: var(--bg); }
  .card        { fill: var(--card); stroke: var(--border); stroke-width: 1; }
  .lang-pill   { fill: var(--pill); }
  .spark-bg    { fill: var(--spark-bg); }
  .spark-line  { stroke: var(--spark); }
  .divider     { stroke: var(--div); stroke-width: 1; }
  .clr-primary   { fill: var(--primary); }
  .clr-secondary { fill: var(--secondary); }
  .clr-muted     { fill: var(--muted); }
  .clr-accent    { fill: var(--accent); }
  .clr-green     { fill: var(--green); }
  .clr-yellow    { fill: var(--yellow); }
  .clr-red       { fill: var(--red); }
  .txt-bold    { font-weight: 600; }
  svg text     { font-family: -apple-system, BlinkMacSystemFont, "Segoe UI", Helvetica, Arial, sans-serif; }
</style>

<rect x="0" y="0" width="820" height="180" rx="8" class="card"/>
  <text x="20" y="24" class="clr-primary txt-bold" text-anchor="start" font-size="14">Contribution History &amp; Activity</text>
  <line x1="20" y1="36" x2="800" y2="36" class="divider"/>
  <text x="20" y="60" class="clr-muted" text-anchor="start" font-size="12">Years Active:</text>
  <text x="100" y="60" class="clr-primary txt-bold" text-anchor="start" font-size="12">5.6</text>
  <text x="160" y="60" class="clr-muted" text-anchor="start" font-size="12">Commits (Last Year):</text>
  <text x="290" y="60" class="clr-primary txt-bold" text-anchor="start" font-size="12">1170</text>
  <text x="360" y="60" class="clr-muted" text-anchor="start" font-size="12">Highest Daily:</text>
  <text x="450" y="60" class="clr-primary txt-bold" text-anchor="start" font-size="12">163</text>
  <polygon points="20,160 20,160 22.1311,160 24.2623,160 26.3934,160 28.5246,160 30.6557,160 32.7869,160 34.918,160 37.0492,160 39.1803,160 41.3115,160 43.4426,160 45.5738,160 47.7049,160 49.8361,160 51.9672,160 54.0984,160 56.2295,160 58.3607,160 60.4918,160 62.623,160 64.7541,160 66.8852,160 69.0164,160 71.1475,160 73.2787,160 75.4098,160 77.541,160 79.6721,160 81.8033,160 83.9344,160 86.0656,160 88.1967,159.509 90.3279,160 92.459,160 94.5902,160 96.7213,160 98.8525,160 100.984,160 103.115,160 105.246,160 107.377,160 109.508,160 111.639,160 113.77,160 115.902,160 118.033,160 120.164,160 122.295,160 124.426,160 126.557,160 128.689,160 130.82,160 132.951,160 135.082,160 137.213,160 139.344,160 141.475,160 143.607,159.018 145.738,160 147.869,160 150,160 152.131,145.276 154.262,155.583 156.393,157.546 158.525,155.583 160.656,157.055 162.787,156.074 164.918,160 167.049,160 169.18,160 171.311,158.037 173.443,159.018 175.574,158.037 177.705,156.564 179.836,160 181.967,158.528 184.098,156.564 186.23,160 188.361,154.11 190.492,149.202 192.623,149.202 194.754,153.62 196.885,141.84 199.016,154.601 201.148,160 203.279,154.601 205.41,160 207.541,160 209.672,157.546 211.803,148.221 213.934,159.018 216.066,160 218.197,158.037 220.328,160 222.459,159.509 224.59,160 226.721,160 228.852,160 230.984,160 233.115,151.656 235.246,155.583 237.377,156.074 239.508,157.546 241.639,150.675 243.77,160 245.902,158.037 248.033,156.564 250.164,158.037 252.295,156.074 254.426,160 256.557,154.11 258.689,160 260.82,159.509 262.951,160 265.082,160 267.213,157.546 269.344,160 271.475,160 273.607,160 275.738,160 277.869,160 280,160 282.131,160 284.262,160 286.393,160 288.525,160 290.656,160 292.787,160 294.918,160 297.049,160 299.18,160 301.311,160 303.443,154.601 305.574,158.037 307.705,160 309.836,160 311.967,160 314.098,160 316.23,160 318.361,160 320.492,160 322.623,160 324.754,160 326.885,160 329.016,160 331.148,160 333.279,160 335.41,160 337.541,160 339.672,160 341.803,160 343.934,160 346.066,160 348.197,160 350.328,160 352.459,157.055 354.59,160 356.721,160 358.852,160 360.984,160 363.115,155.092 365.246,160 367.377,160 369.508,160 371.639,160 373.77,137.423 375.902,153.62 378.033,80 380.164,155.092 382.295,149.202 384.426,155.092 386.557,158.037 388.689,158.528 390.82,159.509 392.951,156.074 395.082,160 397.213,159.018 399.344,160 401.475,159.509 403.607,159.018 405.738,159.509 407.869,160 410,158.528 412.131,160 414.262,159.018 416.393,159.018 418.525,157.546 420.656,157.055 422.787,160 424.918,160 427.049,159.509 429.18,159.509 431.311,158.528 433.443,159.509 435.574,157.055 437.705,157.055 439.836,159.018 441.967,158.528 444.098,147.239 446.23,157.055 448.361,129.08 450.492,147.239 452.623,153.129 454.754,160 456.885,160 459.016,160 461.148,151.656 463.279,158.528 465.41,160 467.541,160 469.672,138.405 471.803,158.528 473.934,160 476.066,160 478.197,160 480.328,160 482.459,160 484.59,160 486.721,160 488.852,160 490.984,160 493.115,160 495.246,160 497.377,160 499.508,160 501.639,160 503.77,160 505.902,159.509 508.033,160 510.164,160 512.295,160 514.426,160 516.557,160 518.689,160 520.82,160 522.951,160 525.082,160 527.213,159.509 529.344,158.037 531.475,160 533.607,160 535.738,160 537.869,160 540,160 542.131,160 544.262,160 546.393,160 548.525,160 550.656,160 552.787,160 554.918,159.509 557.049,158.037 559.18,157.055 561.311,160 563.443,160 565.574,160 567.705,156.564 569.836,157.546 571.967,147.239 574.098,160 576.23,160 578.361,160 580.492,155.092 582.623,148.221 584.754,160 586.885,160 589.016,158.037 591.148,160 593.279,158.037 595.41,160 597.541,160 599.672,160 601.803,160 603.934,160 606.066,160 608.197,159.018 610.328,144.294 612.459,159.018 614.59,160 616.721,139.387 618.852,121.718 620.984,120.736 623.115,147.73 625.246,146.258 627.377,157.055 629.508,160 631.639,160 633.77,160 635.902,160 638.033,160 640.164,160 642.295,160 644.426,160 646.557,157.546 648.689,153.62 650.82,148.712 652.951,160 655.082,149.202 657.213,149.693 659.344,134.969 661.475,146.258 663.607,145.767 665.738,146.258 667.869,150.184 670,154.11 672.131,154.601 674.262,154.11 676.393,157.055 678.525,156.564 680.656,159.509 682.787,160 684.918,160 687.049,160 689.18,160 691.311,160 693.443,160 695.574,160 697.705,160 699.836,158.528 701.967,159.509 704.098,160 706.23,160 708.361,159.509 710.492,142.331 712.623,144.785 714.754,157.055 716.885,158.528 719.016,160 721.148,160 723.279,159.509 725.41,160 727.541,160 729.672,159.018 731.803,153.62 733.934,159.018 736.066,160 738.197,160 740.328,149.693 742.459,155.583 744.59,158.528 746.721,156.074 748.852,155.583 750.984,159.509 753.115,159.509 755.246,160 757.377,160 759.508,151.656 761.639,140.859 763.77,155.092 765.902,160 768.033,141.84 770.164,150.184 772.295,152.147 774.426,160 776.557,160 778.689,160 780.82,160 782.951,160 785.082,160 787.213,160 789.344,160 791.475,160 793.607,160 795.738,160 797.869,160 800,160 800,160" fill="var(--pill)" opacity="0.6"/>
  <polyline points="20,160 22.1311,160 24.2623,160 26.3934,160 28.5246,160 30.6557,160 32.7869,160 34.918,160 37.0492,160 39.1803,160 41.3115,160 43.4426,160 45.5738,160 47.7049,160 49.8361,160 51.9672,160 54.0984,160 56.2295,160 58.3607,160 60.4918,160 62.623,160 64.7541,160 66.8852,160 69.0164,160 71.1475,160 73.2787,160 75.4098,160 77.541,160 79.6721,160 81.8033,160 83.9344,160 86.0656,160 88.1967,159.509 90.3279,160 92.459,160 94.5902,160 96.7213,160 98.8525,160 100.984,160 103.115,160 105.246,160 107.377,160 109.508,160 111.639,160 113.77,160 115.902,160 118.033,160 120.164,160 122.295,160 124.426,160 126.557,160 128.689,160 130.82,160 132.951,160 135.082,160 137.213,160 139.344,160 141.475,160 143.607,159.018 145.738,160 147.869,160 150,160 152.131,145.276 154.262,155.583 156.393,157.546 158.525,155.583 160.656,157.055 162.787,156.074 164.918,160 167.049,160 169.18,160 171.311,158.037 173.443,159.018 175.574,158.037 177.705,156.564 179.836,160 181.967,158.528 184.098,156.564 186.23,160 188.361,154.11 190.492,149.202 192.623,149.202 194.754,153.62 196.885,141.84 199.016,154.601 201.148,160 203.279,154.601 205.41,160 207.541,160 209.672,157.546 211.803,148.221 213.934,159.018 216.066,160 218.197,158.037 220.328,160 222.459,159.509 224.59,160 226.721,160 228.852,160 230.984,160 233.115,151.656 235.246,155.583 237.377,156.074 239.508,157.546 241.639,150.675 243.77,160 245.902,158.037 248.033,156.564 250.164,158.037 252.295,156.074 254.426,160 256.557,154.11 258.689,160 260.82,159.509 262.951,160 265.082,160 267.213,157.546 269.344,160 271.475,160 273.607,160 275.738,160 277.869,160 280,160 282.131,160 284.262,160 286.393,160 288.525,160 290.656,160 292.787,160 294.918,160 297.049,160 299.18,160 301.311,160 303.443,154.601 305.574,158.037 307.705,160 309.836,160 311.967,160 314.098,160 316.23,160 318.361,160 320.492,160 322.623,160 324.754,160 326.885,160 329.016,160 331.148,160 333.279,160 335.41,160 337.541,160 339.672,160 341.803,160 343.934,160 346.066,160 348.197,160 350.328,160 352.459,157.055 354.59,160 356.721,160 358.852,160 360.984,160 363.115,155.092 365.246,160 367.377,160 369.508,160 371.639,160 373.77,137.423 375.902,153.62 378.033,80 380.164,155.092 382.295,149.202 384.426,155.092 386.557,158.037 388.689,158.528 390.82,159.509 392.951,156.074 395.082,160 397.213,159.018 399.344,160 401.475,159.509 403.607,159.018 405.738,159.509 407.869,160 410,158.528 412.131,160 414.262,159.018 416.393,159.018 418.525,157.546 420.656,157.055 422.787,160 424.918,160 427.049,159.509 429.18,159.509 431.311,158.528 433.443,159.509 435.574,157.055 437.705,157.055 439.836,159.018 441.967,158.528 444.098,147.239 446.23,157.055 448.361,129.08 450.492,147.239 452.623,153.129 454.754,160 456.885,160 459.016,160 461.148,151.656 463.279,158.528 465.41,160 467.541,160 469.672,138.405 471.803,158.528 473.934,160 476.066,160 478.197,160 480.328,160 482.459,160 484.59,160 486.721,160 488.852,160 490.984,160 493.115,160 495.246,160 497.377,160 499.508,160 501.639,160 503.77,160 505.902,159.509 508.033,160 510.164,160 512.295,160 514.426,160 516.557,160 518.689,160 520.82,160 522.951,160 525.082,160 527.213,159.509 529.344,158.037 531.475,160 533.607,160 535.738,160 537.869,160 540,160 542.131,160 544.262,160 546.393,160 548.525,160 550.656,160 552.787,160 554.918,159.509 557.049,158.037 559.18,157.055 561.311,160 563.443,160 565.574,160 567.705,156.564 569.836,157.546 571.967,147.239 574.098,160 576.23,160 578.361,160 580.492,155.092 582.623,148.221 584.754,160 586.885,160 589.016,158.037 591.148,160 593.279,158.037 595.41,160 597.541,160 599.672,160 601.803,160 603.934,160 606.066,160 608.197,159.018 610.328,144.294 612.459,159.018 614.59,160 616.721,139.387 618.852,121.718 620.984,120.736 623.115,147.73 625.246,146.258 627.377,157.055 629.508,160 631.639,160 633.77,160 635.902,160 638.033,160 640.164,160 642.295,160 644.426,160 646.557,157.546 648.689,153.62 650.82,148.712 652.951,160 655.082,149.202 657.213,149.693 659.344,134.969 661.475,146.258 663.607,145.767 665.738,146.258 667.869,150.184 670,154.11 672.131,154.601 674.262,154.11 676.393,157.055 678.525,156.564 680.656,159.509 682.787,160 684.918,160 687.049,160 689.18,160 691.311,160 693.443,160 695.574,160 697.705,160 699.836,158.528 701.967,159.509 704.098,160 706.23,160 708.361,159.509 710.492,142.331 712.623,144.785 714.754,157.055 716.885,158.528 719.016,160 721.148,160 723.279,159.509 725.41,160 727.541,160 729.672,159.018 731.803,153.62 733.934,159.018 736.066,160 738.197,160 740.328,149.693 742.459,155.583 744.59,158.528 746.721,156.074 748.852,155.583 750.984,159.509 753.115,159.509 755.246,160 757.377,160 759.508,151.656 761.639,140.859 763.77,155.092 765.902,160 768.033,141.84 770.164,150.184 772.295,152.147 774.426,160 776.557,160 778.689,160 780.82,160 782.951,160 785.082,160 787.213,160 789.344,160 791.475,160 793.607,160 795.738,160 797.869,160 800,160" fill="none" stroke="var(--accent)" stroke-width="1.5" stroke-linecap="round" stroke-linejoin="round"/>
</svg>

