<svg xmlns="http://www.w3.org/2000/svg" width="820" height="180" viewBox="0 0 820 180">

<style>
  :root {
    --bg:        #f6f8fa;
    --card:      #ffffff;
    --border:    #d0d7de;
    --primary:   #1f2328;
    --secondary: #636c76;
    --muted:     #8c959f;
    --accent:    #0969da;
    --green:     #1a7f37;
    --yellow:    #9a6700;
    --red:       #cf222e;
    --hover:     #f3f4f6;
    --spark-bg:  #f0f3f6;
    --spark:     #0969da;
    --pill:      #eaf1fb;
    --pill-txt:  #0969da;
    --div:       #d0d7de;
  }
  @media (prefers-color-scheme: dark) {
    :root {
      --bg:        #0d1117;
      --card:      #161b22;
      --border:    #30363d;
      --primary:   #e6edf3;
      --secondary: #848d97;
      --muted:     #7d8590;
      --accent:    #2f81f7;
      --green:     #3fb950;
      --yellow:    #d29922;
      --red:       #f85149;
      --hover:     #21262d;
      --spark-bg:  #1c2128;
      --spark:     #58a6ff;
      --pill:      #1c2d3f;
      --pill-txt:  #58a6ff;
      --div:       #30363d;
    }
  }
  
  .bg          { fill: var(--bg); }
  .card        { fill: var(--card); stroke: var(--border); stroke-width: 1; }
  .lang-pill   { fill: var(--pill); }
  .spark-bg    { fill: var(--spark-bg); }
  .spark-line  { stroke: var(--spark); }
  .divider     { stroke: var(--div); stroke-width: 1; }
  .clr-primary   { fill: var(--primary); }
  .clr-secondary { fill: var(--secondary); }
  .clr-muted     { fill: var(--muted); }
  .clr-accent    { fill: var(--accent); }
  .clr-green     { fill: var(--green); }
  .clr-yellow    { fill: var(--yellow); }
  .clr-red       { fill: var(--red); }
  .txt-bold    { font-weight: 600; }
  svg text     { font-family: -apple-system, BlinkMacSystemFont, "Segoe UI", Helvetica, Arial, sans-serif; }
</style>

<rect x="0" y="0" width="820" height="180" rx="8" class="card"/>
  <text x="20" y="24" class="clr-primary txt-bold" text-anchor="start" font-size="14">Contribution History &amp; Activity</text>
  <line x1="20" y1="36" x2="800" y2="36" class="divider"/>
  <text x="20" y="60" class="clr-muted" text-anchor="start" font-size="12">Years Active:</text>
  <text x="100" y="60" class="clr-primary txt-bold" text-anchor="start" font-size="12">5.6</text>
  <text x="160" y="60" class="clr-muted" text-anchor="start" font-size="12">Commits (Last Year):</text>
  <text x="290" y="60" class="clr-primary txt-bold" text-anchor="start" font-size="12">1173</text>
  <text x="360" y="60" class="clr-muted" text-anchor="start" font-size="12">Highest Daily:</text>
  <text x="450" y="60" class="clr-primary txt-bold" text-anchor="start" font-size="12">163</text>
  <polygon points="20,160 20,160 22.137,160 24.274,160 26.411,160 28.5479,160 30.6849,160 32.8219,160 34.9589,160 37.0959,160 39.2329,160 41.3699,160 43.5068,160 45.6438,160 47.7808,160 49.9178,160 52.0548,160 54.1918,160 56.3288,160 58.4658,160 60.6027,160 62.7397,160 64.8767,160 67.0137,160 69.1507,160 71.2877,160 73.4247,159.509 75.5616,160 77.6986,160 79.8356,160 81.9726,160 84.1096,160 86.2466,160 88.3836,160 90.5205,160 92.6575,160 94.7945,160 96.9315,160 99.0685,160 101.205,160 103.342,160 105.479,160 107.616,160 109.753,160 111.89,160 114.027,160 116.164,160 118.301,160 120.438,160 122.575,160 124.712,160 126.849,160 128.986,159.018 131.123,160 133.26,160 135.397,160 137.534,145.276 139.671,155.583 141.808,157.546 143.945,155.583 146.082,157.055 148.219,156.074 150.356,160 152.493,160 154.63,160 156.767,158.037 158.904,159.018 161.041,158.037 163.178,156.564 165.315,160 167.452,158.528 169.589,156.564 171.726,160 173.863,154.11 176,149.202 178.137,149.202 180.274,153.62 182.411,141.84 184.548,154.601 186.685,160 188.822,154.601 190.959,160 193.096,160 195.233,157.546 197.37,148.221 199.507,159.018 201.644,160 203.781,158.037 205.918,160 208.055,159.509 210.192,160 212.329,160 214.466,160 216.603,160 218.74,151.656 220.877,155.583 223.014,156.074 225.151,157.546 227.288,150.675 229.425,160 231.562,158.037 233.699,156.564 235.836,158.037 237.973,156.074 240.11,160 242.247,154.11 244.384,160 246.521,159.509 248.658,160 250.795,160 252.932,157.546 255.068,160 257.205,160 259.342,160 261.479,160 263.616,160 265.753,160 267.89,160 270.027,160 272.164,160 274.301,160 276.438,160 278.575,160 280.712,160 282.849,160 284.986,160 287.123,160 289.26,154.601 291.397,158.037 293.534,160 295.671,160 297.808,160 299.945,160 302.082,160 304.219,160 306.356,160 308.493,160 310.63,160 312.767,160 314.904,160 317.041,160 319.178,160 321.315,160 323.452,160 325.589,160 327.726,160 329.863,160 332,160 334.137,160 336.274,160 338.411,157.055 340.548,160 342.685,160 344.822,160 346.959,160 349.096,155.092 351.233,160 353.37,160 355.507,160 357.644,160 359.781,137.423 361.918,153.62 364.055,80 366.192,155.092 368.329,149.202 370.466,155.092 372.603,158.037 374.74,158.528 376.877,159.509 379.014,156.074 381.151,160 383.288,159.018 385.425,160 387.562,159.509 389.699,159.018 391.836,159.509 393.973,160 396.11,158.528 398.247,160 400.384,159.018 402.521,159.018 404.658,157.546 406.795,157.055 408.932,160 411.068,160 413.205,159.509 415.342,159.509 417.479,158.528 419.616,159.509 421.753,157.055 423.89,157.055 426.027,159.018 428.164,158.528 430.301,147.239 432.438,157.055 434.575,129.08 436.712,147.239 438.849,153.129 440.986,160 443.123,160 445.26,160 447.397,151.656 449.534,158.528 451.671,160 453.808,160 455.945,138.405 458.082,158.528 460.219,160 462.356,160 464.493,160 466.63,160 468.767,160 470.904,160 473.041,160 475.178,160 477.315,160 479.452,160 481.589,160 483.726,160 485.863,160 488,160 490.137,160 492.274,159.509 494.411,160 496.548,160 498.685,160 500.822,160 502.959,160 505.096,160 507.233,160 509.37,160 511.507,160 513.644,159.509 515.781,158.037 517.918,160 520.055,160 522.192,160 524.329,160 526.466,160 528.603,160 530.74,160 532.877,160 535.014,160 537.151,160 539.288,160 541.425,159.509 543.562,158.037 545.699,157.055 547.836,160 549.973,160 552.11,160 554.247,156.564 556.384,157.546 558.521,147.239 560.658,160 562.795,160 564.932,160 567.068,155.092 569.205,148.221 571.342,160 573.479,160 575.616,158.037 577.753,160 579.89,158.037 582.027,160 584.164,160 586.301,160 588.438,160 590.575,160 592.712,160 594.849,159.018 596.986,144.294 599.123,159.018 601.26,160 603.397,139.387 605.534,121.718 607.671,120.736 609.808,147.73 611.945,146.258 614.082,157.055 616.219,160 618.356,160 620.493,160 622.63,160 624.767,160 626.904,160 629.041,160 631.178,160 633.315,157.546 635.452,153.62 637.589,148.712 639.726,160 641.863,149.202 644,149.693 646.137,134.969 648.274,146.258 650.411,145.767 652.548,146.258 654.685,150.184 656.822,154.11 658.959,154.601 661.096,154.11 663.233,157.055 665.37,156.564 667.507,159.509 669.644,160 671.781,160 673.918,160 676.055,160 678.192,160 680.329,160 682.466,160 684.603,160 686.74,158.528 688.877,159.509 691.014,160 693.151,160 695.288,159.509 697.425,142.331 699.562,144.785 701.699,157.055 703.836,158.528 705.973,160 708.11,160 710.247,159.509 712.384,160 714.521,160 716.658,159.018 718.795,153.62 720.932,159.018 723.068,160 725.205,160 727.342,149.693 729.479,155.583 731.616,158.528 733.753,156.074 735.89,155.583 738.027,159.509 740.164,159.509 742.301,160 744.438,160 746.575,151.656 748.712,140.859 750.849,155.092 752.986,160 755.123,141.84 757.26,150.184 759.397,152.147 761.534,160 763.671,160 765.808,160 767.945,160 770.082,160 772.219,160 774.356,160 776.493,160 778.63,160 780.767,160 782.904,160 785.041,160 787.178,158.037 789.315,160 791.452,160 793.589,160 795.726,160 797.863,160 800,160 800,160" fill="var(--pill)" opacity="0.6"/>
  <polyline points="20,160 22.137,160 24.274,160 26.411,160 28.5479,160 30.6849,160 32.8219,160 34.9589,160 37.0959,160 39.2329,160 41.3699,160 43.5068,160 45.6438,160 47.7808,160 49.9178,160 52.0548,160 54.1918,160 56.3288,160 58.4658,160 60.6027,160 62.7397,160 64.8767,160 67.0137,160 69.1507,160 71.2877,160 73.4247,159.509 75.5616,160 77.6986,160 79.8356,160 81.9726,160 84.1096,160 86.2466,160 88.3836,160 90.5205,160 92.6575,160 94.7945,160 96.9315,160 99.0685,160 101.205,160 103.342,160 105.479,160 107.616,160 109.753,160 111.89,160 114.027,160 116.164,160 118.301,160 120.438,160 122.575,160 124.712,160 126.849,160 128.986,159.018 131.123,160 133.26,160 135.397,160 137.534,145.276 139.671,155.583 141.808,157.546 143.945,155.583 146.082,157.055 148.219,156.074 150.356,160 152.493,160 154.63,160 156.767,158.037 158.904,159.018 161.041,158.037 163.178,156.564 165.315,160 167.452,158.528 169.589,156.564 171.726,160 173.863,154.11 176,149.202 178.137,149.202 180.274,153.62 182.411,141.84 184.548,154.601 186.685,160 188.822,154.601 190.959,160 193.096,160 195.233,157.546 197.37,148.221 199.507,159.018 201.644,160 203.781,158.037 205.918,160 208.055,159.509 210.192,160 212.329,160 214.466,160 216.603,160 218.74,151.656 220.877,155.583 223.014,156.074 225.151,157.546 227.288,150.675 229.425,160 231.562,158.037 233.699,156.564 235.836,158.037 237.973,156.074 240.11,160 242.247,154.11 244.384,160 246.521,159.509 248.658,160 250.795,160 252.932,157.546 255.068,160 257.205,160 259.342,160 261.479,160 263.616,160 265.753,160 267.89,160 270.027,160 272.164,160 274.301,160 276.438,160 278.575,160 280.712,160 282.849,160 284.986,160 287.123,160 289.26,154.601 291.397,158.037 293.534,160 295.671,160 297.808,160 299.945,160 302.082,160 304.219,160 306.356,160 308.493,160 310.63,160 312.767,160 314.904,160 317.041,160 319.178,160 321.315,160 323.452,160 325.589,160 327.726,160 329.863,160 332,160 334.137,160 336.274,160 338.411,157.055 340.548,160 342.685,160 344.822,160 346.959,160 349.096,155.092 351.233,160 353.37,160 355.507,160 357.644,160 359.781,137.423 361.918,153.62 364.055,80 366.192,155.092 368.329,149.202 370.466,155.092 372.603,158.037 374.74,158.528 376.877,159.509 379.014,156.074 381.151,160 383.288,159.018 385.425,160 387.562,159.509 389.699,159.018 391.836,159.509 393.973,160 396.11,158.528 398.247,160 400.384,159.018 402.521,159.018 404.658,157.546 406.795,157.055 408.932,160 411.068,160 413.205,159.509 415.342,159.509 417.479,158.528 419.616,159.509 421.753,157.055 423.89,157.055 426.027,159.018 428.164,158.528 430.301,147.239 432.438,157.055 434.575,129.08 436.712,147.239 438.849,153.129 440.986,160 443.123,160 445.26,160 447.397,151.656 449.534,158.528 451.671,160 453.808,160 455.945,138.405 458.082,158.528 460.219,160 462.356,160 464.493,160 466.63,160 468.767,160 470.904,160 473.041,160 475.178,160 477.315,160 479.452,160 481.589,160 483.726,160 485.863,160 488,160 490.137,160 492.274,159.509 494.411,160 496.548,160 498.685,160 500.822,160 502.959,160 505.096,160 507.233,160 509.37,160 511.507,160 513.644,159.509 515.781,158.037 517.918,160 520.055,160 522.192,160 524.329,160 526.466,160 528.603,160 530.74,160 532.877,160 535.014,160 537.151,160 539.288,160 541.425,159.509 543.562,158.037 545.699,157.055 547.836,160 549.973,160 552.11,160 554.247,156.564 556.384,157.546 558.521,147.239 560.658,160 562.795,160 564.932,160 567.068,155.092 569.205,148.221 571.342,160 573.479,160 575.616,158.037 577.753,160 579.89,158.037 582.027,160 584.164,160 586.301,160 588.438,160 590.575,160 592.712,160 594.849,159.018 596.986,144.294 599.123,159.018 601.26,160 603.397,139.387 605.534,121.718 607.671,120.736 609.808,147.73 611.945,146.258 614.082,157.055 616.219,160 618.356,160 620.493,160 622.63,160 624.767,160 626.904,160 629.041,160 631.178,160 633.315,157.546 635.452,153.62 637.589,148.712 639.726,160 641.863,149.202 644,149.693 646.137,134.969 648.274,146.258 650.411,145.767 652.548,146.258 654.685,150.184 656.822,154.11 658.959,154.601 661.096,154.11 663.233,157.055 665.37,156.564 667.507,159.509 669.644,160 671.781,160 673.918,160 676.055,160 678.192,160 680.329,160 682.466,160 684.603,160 686.74,158.528 688.877,159.509 691.014,160 693.151,160 695.288,159.509 697.425,142.331 699.562,144.785 701.699,157.055 703.836,158.528 705.973,160 708.11,160 710.247,159.509 712.384,160 714.521,160 716.658,159.018 718.795,153.62 720.932,159.018 723.068,160 725.205,160 727.342,149.693 729.479,155.583 731.616,158.528 733.753,156.074 735.89,155.583 738.027,159.509 740.164,159.509 742.301,160 744.438,160 746.575,151.656 748.712,140.859 750.849,155.092 752.986,160 755.123,141.84 757.26,150.184 759.397,152.147 761.534,160 763.671,160 765.808,160 767.945,160 770.082,160 772.219,160 774.356,160 776.493,160 778.63,160 780.767,160 782.904,160 785.041,160 787.178,158.037 789.315,160 791.452,160 793.589,160 795.726,160 797.863,160 800,160" fill="none" stroke="var(--accent)" stroke-width="1.5" stroke-linecap="round" stroke-linejoin="round"/>
</svg>

