<svg xmlns="http://www.w3.org/2000/svg" width="820" height="180" viewBox="0 0 820 180">

<style>
  :root {
    --bg:        #f6f8fa;
    --card:      #ffffff;
    --border:    #d0d7de;
    --primary:   #1f2328;
    --secondary: #636c76;
    --muted:     #8c959f;
    --accent:    #0969da;
    --green:     #1a7f37;
    --yellow:    #9a6700;
    --red:       #cf222e;
    --hover:     #f3f4f6;
    --spark-bg:  #f0f3f6;
    --spark:     #0969da;
    --pill:      #eaf1fb;
    --pill-txt:  #0969da;
    --div:       #d0d7de;
  }
  @media (prefers-color-scheme: dark) {
    :root {
      --bg:        #0d1117;
      --card:      #161b22;
      --border:    #30363d;
      --primary:   #e6edf3;
      --secondary: #848d97;
      --muted:     #7d8590;
      --accent:    #2f81f7;
      --green:     #3fb950;
      --yellow:    #d29922;
      --red:       #f85149;
      --hover:     #21262d;
      --spark-bg:  #1c2128;
      --spark:     #58a6ff;
      --pill:      #1c2d3f;
      --pill-txt:  #58a6ff;
      --div:       #30363d;
    }
  }
  
  .bg          { fill: var(--bg); }
  .card        { fill: var(--card); stroke: var(--border); stroke-width: 1; }
  .lang-pill   { fill: var(--pill); }
  .spark-bg    { fill: var(--spark-bg); }
  .spark-line  { stroke: var(--spark); }
  .divider     { stroke: var(--div); stroke-width: 1; }
  .clr-primary   { fill: var(--primary); }
  .clr-secondary { fill: var(--secondary); }
  .clr-muted     { fill: var(--muted); }
  .clr-accent    { fill: var(--accent); }
  .clr-green     { fill: var(--green); }
  .clr-yellow    { fill: var(--yellow); }
  .clr-red       { fill: var(--red); }
  .txt-bold    { font-weight: 600; }
  svg text     { font-family: -apple-system, BlinkMacSystemFont, "Segoe UI", Helvetica, Arial, sans-serif; }
</style>

<rect x="0" y="0" width="820" height="180" rx="8" class="card"/>
  <text x="20" y="24" class="clr-primary txt-bold" text-anchor="start" font-size="14">Contribution History &amp; Activity</text>
  <line x1="20" y1="36" x2="800" y2="36" class="divider"/>
  <text x="20" y="60" class="clr-muted" text-anchor="start" font-size="12">Years Active:</text>
  <text x="100" y="60" class="clr-primary txt-bold" text-anchor="start" font-size="12">5.7</text>
  <text x="160" y="60" class="clr-muted" text-anchor="start" font-size="12">Commits (Last Year):</text>
  <text x="290" y="60" class="clr-primary txt-bold" text-anchor="start" font-size="12">1192</text>
  <text x="360" y="60" class="clr-muted" text-anchor="start" font-size="12">Highest Daily:</text>
  <text x="450" y="60" class="clr-primary txt-bold" text-anchor="start" font-size="12">163</text>
  <polygon points="20,160 20,160 22.1196,160 24.2391,160 26.3587,160 28.4783,159.509 30.5978,160 32.7174,160 34.837,160 36.9565,160 39.0761,160 41.1957,160 43.3152,160 45.4348,160 47.5543,160 49.6739,160 51.7935,160 53.913,160 56.0326,160 58.1522,160 60.2717,160 62.3913,160 64.5109,160 66.6304,160 68.75,160 70.8696,160 72.9891,160 75.1087,160 77.2283,160 79.3478,160 81.4674,160 83.587,159.018 85.7065,160 87.8261,160 89.9457,160 92.0652,145.276 94.1848,155.583 96.3043,157.546 98.4239,155.583 100.543,157.055 102.663,156.074 104.783,160 106.902,160 109.022,160 111.141,158.037 113.261,159.018 115.38,158.037 117.5,156.564 119.62,160 121.739,158.528 123.859,156.564 125.978,160 128.098,154.11 130.217,149.202 132.337,149.202 134.457,153.62 136.576,141.84 138.696,154.601 140.815,160 142.935,154.601 145.054,160 147.174,160 149.293,157.546 151.413,148.221 153.533,159.018 155.652,160 157.772,158.037 159.891,160 162.011,159.509 164.13,160 166.25,160 168.37,160 170.489,160 172.609,151.656 174.728,155.583 176.848,156.074 178.967,157.546 181.087,150.675 183.207,160 185.326,158.037 187.446,156.564 189.565,158.037 191.685,156.074 193.804,160 195.924,154.11 198.043,160 200.163,159.509 202.283,160 204.402,160 206.522,157.546 208.641,160 210.761,160 212.88,160 215,160 217.12,160 219.239,160 221.359,160 223.478,160 225.598,160 227.717,160 229.837,160 231.957,160 234.076,160 236.196,160 238.315,160 240.435,160 242.554,154.601 244.674,158.037 246.793,160 248.913,160 251.033,160 253.152,160 255.272,160 257.391,160 259.511,160 261.63,160 263.75,160 265.87,160 267.989,160 270.109,160 272.228,160 274.348,160 276.467,160 278.587,160 280.707,160 282.826,160 284.946,160 287.065,160 289.185,160 291.304,157.055 293.424,160 295.543,160 297.663,160 299.783,160 301.902,155.092 304.022,160 306.141,160 308.261,160 310.38,160 312.5,137.423 314.62,153.62 316.739,80 318.859,155.092 320.978,149.202 323.098,155.092 325.217,158.037 327.337,158.528 329.457,159.509 331.576,156.074 333.696,160 335.815,159.018 337.935,160 340.054,159.509 342.174,159.018 344.293,159.509 346.413,160 348.533,158.528 350.652,160 352.772,159.018 354.891,159.018 357.011,157.546 359.13,157.055 361.25,160 363.37,160 365.489,159.509 367.609,159.509 369.728,158.528 371.848,159.509 373.967,157.055 376.087,157.055 378.207,159.018 380.326,158.528 382.446,147.239 384.565,157.055 386.685,129.08 388.804,147.239 390.924,153.129 393.043,160 395.163,160 397.283,160 399.402,151.656 401.522,158.528 403.641,160 405.761,160 407.88,138.405 410,158.528 412.12,160 414.239,160 416.359,160 418.478,160 420.598,160 422.717,160 424.837,160 426.957,160 429.076,160 431.196,160 433.315,160 435.435,160 437.554,160 439.674,160 441.793,160 443.913,159.509 446.033,160 448.152,160 450.272,160 452.391,160 454.511,160 456.63,160 458.75,160 460.87,160 462.989,160 465.109,159.509 467.228,158.037 469.348,160 471.467,160 473.587,160 475.707,160 477.826,160 479.946,160 482.065,160 484.185,160 486.304,160 488.424,160 490.543,160 492.663,159.509 494.783,158.037 496.902,157.055 499.022,160 501.141,160 503.261,160 505.38,156.564 507.5,157.546 509.62,147.239 511.739,160 513.859,160 515.978,160 518.098,155.092 520.217,148.221 522.337,160 524.457,160 526.576,158.037 528.696,160 530.815,158.037 532.935,160 535.054,160 537.174,160 539.293,160 541.413,160 543.533,160 545.652,159.018 547.772,144.294 549.891,159.018 552.011,160 554.13,139.387 556.25,121.718 558.37,120.736 560.489,147.73 562.609,146.258 564.728,157.055 566.848,160 568.967,160 571.087,160 573.207,160 575.326,160 577.446,160 579.565,160 581.685,160 583.804,157.546 585.924,153.62 588.043,148.712 590.163,160 592.283,149.202 594.402,149.693 596.522,134.969 598.641,146.258 600.761,145.767 602.88,146.258 605,150.184 607.12,154.11 609.239,154.601 611.359,154.11 613.478,157.055 615.598,156.564 617.717,159.509 619.837,160 621.957,160 624.076,160 626.196,160 628.315,160 630.435,160 632.554,160 634.674,160 636.793,158.528 638.913,159.509 641.033,160 643.152,160 645.272,159.509 647.391,142.331 649.511,144.785 651.63,157.055 653.75,158.528 655.87,160 657.989,160 660.109,159.509 662.228,160 664.348,160 666.467,159.018 668.587,153.62 670.707,159.018 672.826,160 674.946,160 677.065,149.693 679.185,155.583 681.304,158.528 683.424,156.074 685.543,155.583 687.663,159.509 689.783,159.509 691.902,160 694.022,160 696.141,151.656 698.261,140.859 700.38,155.092 702.5,160 704.62,141.84 706.739,150.184 708.859,152.147 710.978,160 713.098,160 715.217,160 717.337,160 719.457,160 721.576,160 723.696,160 725.815,160 727.935,160 730.054,160 732.174,160 734.293,160 736.413,158.037 738.533,160 740.652,160 742.772,160 744.891,160 747.011,160 749.13,160 751.25,160 753.37,160 755.489,160 757.609,160 759.728,160 761.848,160 763.967,160 766.087,160 768.207,156.564 770.326,154.601 772.446,160 774.565,160 776.685,160 778.804,160 780.924,159.509 783.043,160 785.163,160 787.283,159.509 789.402,159.509 791.522,160 793.641,159.509 795.761,160 797.88,160 800,160 800,160" fill="var(--pill)" opacity="0.6"/>
  <polyline points="20,160 22.1196,160 24.2391,160 26.3587,160 28.4783,159.509 30.5978,160 32.7174,160 34.837,160 36.9565,160 39.0761,160 41.1957,160 43.3152,160 45.4348,160 47.5543,160 49.6739,160 51.7935,160 53.913,160 56.0326,160 58.1522,160 60.2717,160 62.3913,160 64.5109,160 66.6304,160 68.75,160 70.8696,160 72.9891,160 75.1087,160 77.2283,160 79.3478,160 81.4674,160 83.587,159.018 85.7065,160 87.8261,160 89.9457,160 92.0652,145.276 94.1848,155.583 96.3043,157.546 98.4239,155.583 100.543,157.055 102.663,156.074 104.783,160 106.902,160 109.022,160 111.141,158.037 113.261,159.018 115.38,158.037 117.5,156.564 119.62,160 121.739,158.528 123.859,156.564 125.978,160 128.098,154.11 130.217,149.202 132.337,149.202 134.457,153.62 136.576,141.84 138.696,154.601 140.815,160 142.935,154.601 145.054,160 147.174,160 149.293,157.546 151.413,148.221 153.533,159.018 155.652,160 157.772,158.037 159.891,160 162.011,159.509 164.13,160 166.25,160 168.37,160 170.489,160 172.609,151.656 174.728,155.583 176.848,156.074 178.967,157.546 181.087,150.675 183.207,160 185.326,158.037 187.446,156.564 189.565,158.037 191.685,156.074 193.804,160 195.924,154.11 198.043,160 200.163,159.509 202.283,160 204.402,160 206.522,157.546 208.641,160 210.761,160 212.88,160 215,160 217.12,160 219.239,160 221.359,160 223.478,160 225.598,160 227.717,160 229.837,160 231.957,160 234.076,160 236.196,160 238.315,160 240.435,160 242.554,154.601 244.674,158.037 246.793,160 248.913,160 251.033,160 253.152,160 255.272,160 257.391,160 259.511,160 261.63,160 263.75,160 265.87,160 267.989,160 270.109,160 272.228,160 274.348,160 276.467,160 278.587,160 280.707,160 282.826,160 284.946,160 287.065,160 289.185,160 291.304,157.055 293.424,160 295.543,160 297.663,160 299.783,160 301.902,155.092 304.022,160 306.141,160 308.261,160 310.38,160 312.5,137.423 314.62,153.62 316.739,80 318.859,155.092 320.978,149.202 323.098,155.092 325.217,158.037 327.337,158.528 329.457,159.509 331.576,156.074 333.696,160 335.815,159.018 337.935,160 340.054,159.509 342.174,159.018 344.293,159.509 346.413,160 348.533,158.528 350.652,160 352.772,159.018 354.891,159.018 357.011,157.546 359.13,157.055 361.25,160 363.37,160 365.489,159.509 367.609,159.509 369.728,158.528 371.848,159.509 373.967,157.055 376.087,157.055 378.207,159.018 380.326,158.528 382.446,147.239 384.565,157.055 386.685,129.08 388.804,147.239 390.924,153.129 393.043,160 395.163,160 397.283,160 399.402,151.656 401.522,158.528 403.641,160 405.761,160 407.88,138.405 410,158.528 412.12,160 414.239,160 416.359,160 418.478,160 420.598,160 422.717,160 424.837,160 426.957,160 429.076,160 431.196,160 433.315,160 435.435,160 437.554,160 439.674,160 441.793,160 443.913,159.509 446.033,160 448.152,160 450.272,160 452.391,160 454.511,160 456.63,160 458.75,160 460.87,160 462.989,160 465.109,159.509 467.228,158.037 469.348,160 471.467,160 473.587,160 475.707,160 477.826,160 479.946,160 482.065,160 484.185,160 486.304,160 488.424,160 490.543,160 492.663,159.509 494.783,158.037 496.902,157.055 499.022,160 501.141,160 503.261,160 505.38,156.564 507.5,157.546 509.62,147.239 511.739,160 513.859,160 515.978,160 518.098,155.092 520.217,148.221 522.337,160 524.457,160 526.576,158.037 528.696,160 530.815,158.037 532.935,160 535.054,160 537.174,160 539.293,160 541.413,160 543.533,160 545.652,159.018 547.772,144.294 549.891,159.018 552.011,160 554.13,139.387 556.25,121.718 558.37,120.736 560.489,147.73 562.609,146.258 564.728,157.055 566.848,160 568.967,160 571.087,160 573.207,160 575.326,160 577.446,160 579.565,160 581.685,160 583.804,157.546 585.924,153.62 588.043,148.712 590.163,160 592.283,149.202 594.402,149.693 596.522,134.969 598.641,146.258 600.761,145.767 602.88,146.258 605,150.184 607.12,154.11 609.239,154.601 611.359,154.11 613.478,157.055 615.598,156.564 617.717,159.509 619.837,160 621.957,160 624.076,160 626.196,160 628.315,160 630.435,160 632.554,160 634.674,160 636.793,158.528 638.913,159.509 641.033,160 643.152,160 645.272,159.509 647.391,142.331 649.511,144.785 651.63,157.055 653.75,158.528 655.87,160 657.989,160 660.109,159.509 662.228,160 664.348,160 666.467,159.018 668.587,153.62 670.707,159.018 672.826,160 674.946,160 677.065,149.693 679.185,155.583 681.304,158.528 683.424,156.074 685.543,155.583 687.663,159.509 689.783,159.509 691.902,160 694.022,160 696.141,151.656 698.261,140.859 700.38,155.092 702.5,160 704.62,141.84 706.739,150.184 708.859,152.147 710.978,160 713.098,160 715.217,160 717.337,160 719.457,160 721.576,160 723.696,160 725.815,160 727.935,160 730.054,160 732.174,160 734.293,160 736.413,158.037 738.533,160 740.652,160 742.772,160 744.891,160 747.011,160 749.13,160 751.25,160 753.37,160 755.489,160 757.609,160 759.728,160 761.848,160 763.967,160 766.087,160 768.207,156.564 770.326,154.601 772.446,160 774.565,160 776.685,160 778.804,160 780.924,159.509 783.043,160 785.163,160 787.283,159.509 789.402,159.509 791.522,160 793.641,159.509 795.761,160 797.88,160 800,160" fill="none" stroke="var(--accent)" stroke-width="1.5" stroke-linecap="round" stroke-linejoin="round"/>
</svg>

