<svg xmlns="http://www.w3.org/2000/svg" width="820" height="180" viewBox="0 0 820 180">

<style>
  :root {
    --bg:        #f6f8fa;
    --card:      #ffffff;
    --border:    #d0d7de;
    --primary:   #1f2328;
    --secondary: #636c76;
    --muted:     #8c959f;
    --accent:    #0969da;
    --green:     #1a7f37;
    --yellow:    #9a6700;
    --red:       #cf222e;
    --hover:     #f3f4f6;
    --spark-bg:  #f0f3f6;
    --spark:     #0969da;
    --pill:      #eaf1fb;
    --pill-txt:  #0969da;
    --div:       #d0d7de;
  }
  @media (prefers-color-scheme: dark) {
    :root {
      --bg:        #0d1117;
      --card:      #161b22;
      --border:    #30363d;
      --primary:   #e6edf3;
      --secondary: #848d97;
      --muted:     #7d8590;
      --accent:    #2f81f7;
      --green:     #3fb950;
      --yellow:    #d29922;
      --red:       #f85149;
      --hover:     #21262d;
      --spark-bg:  #1c2128;
      --spark:     #58a6ff;
      --pill:      #1c2d3f;
      --pill-txt:  #58a6ff;
      --div:       #30363d;
    }
  }
  
  .bg          { fill: var(--bg); }
  .card        { fill: var(--card); stroke: var(--border); stroke-width: 1; }
  .lang-pill   { fill: var(--pill); }
  .spark-bg    { fill: var(--spark-bg); }
  .spark-line  { stroke: var(--spark); }
  .divider     { stroke: var(--div); stroke-width: 1; }
  .clr-primary   { fill: var(--primary); }
  .clr-secondary { fill: var(--secondary); }
  .clr-muted     { fill: var(--muted); }
  .clr-accent    { fill: var(--accent); }
  .clr-green     { fill: var(--green); }
  .clr-yellow    { fill: var(--yellow); }
  .clr-red       { fill: var(--red); }
  .txt-bold    { font-weight: 600; }
  svg text     { font-family: -apple-system, BlinkMacSystemFont, "Segoe UI", Helvetica, Arial, sans-serif; }
</style>

<rect x="0" y="0" width="820" height="180" rx="8" class="card"/>
  <text x="20" y="24" class="clr-primary txt-bold" text-anchor="start" font-size="14">Contribution History &amp; Activity</text>
  <line x1="20" y1="36" x2="800" y2="36" class="divider"/>
  <text x="20" y="60" class="clr-muted" text-anchor="start" font-size="12">Years Active:</text>
  <text x="100" y="60" class="clr-primary txt-bold" text-anchor="start" font-size="12">5.7</text>
  <text x="160" y="60" class="clr-muted" text-anchor="start" font-size="12">Commits (Last Year):</text>
  <text x="290" y="60" class="clr-primary txt-bold" text-anchor="start" font-size="12">1191</text>
  <text x="360" y="60" class="clr-muted" text-anchor="start" font-size="12">Highest Daily:</text>
  <text x="450" y="60" class="clr-primary txt-bold" text-anchor="start" font-size="12">163</text>
  <polygon points="20,160 20,160 22.1138,160 24.2276,160 26.3415,160 28.4553,160 30.5691,160 32.6829,160 34.7967,160 36.9106,160 39.0244,160 41.1382,160 43.252,160 45.3659,160 47.4797,160 49.5935,160 51.7073,160 53.8211,160 55.935,160 58.0488,159.509 60.1626,160 62.2764,160 64.3902,160 66.5041,160 68.6179,160 70.7317,160 72.8455,160 74.9593,160 77.0732,160 79.187,160 81.3008,160 83.4146,160 85.5285,160 87.6423,160 89.7561,160 91.8699,160 93.9837,160 96.0976,160 98.2114,160 100.325,160 102.439,160 104.553,160 106.667,160 108.78,160 110.894,160 113.008,159.018 115.122,160 117.236,160 119.35,160 121.463,145.276 123.577,155.583 125.691,157.546 127.805,155.583 129.919,157.055 132.033,156.074 134.146,160 136.26,160 138.374,160 140.488,158.037 142.602,159.018 144.715,158.037 146.829,156.564 148.943,160 151.057,158.528 153.171,156.564 155.285,160 157.398,154.11 159.512,149.202 161.626,149.202 163.74,153.62 165.854,141.84 167.967,154.601 170.081,160 172.195,154.601 174.309,160 176.423,160 178.537,157.546 180.65,148.221 182.764,159.018 184.878,160 186.992,158.037 189.106,160 191.22,159.509 193.333,160 195.447,160 197.561,160 199.675,160 201.789,151.656 203.902,155.583 206.016,156.074 208.13,157.546 210.244,150.675 212.358,160 214.472,158.037 216.585,156.564 218.699,158.037 220.813,156.074 222.927,160 225.041,154.11 227.154,160 229.268,159.509 231.382,160 233.496,160 235.61,157.546 237.724,160 239.837,160 241.951,160 244.065,160 246.179,160 248.293,160 250.407,160 252.52,160 254.634,160 256.748,160 258.862,160 260.976,160 263.089,160 265.203,160 267.317,160 269.431,160 271.545,154.601 273.659,158.037 275.772,160 277.886,160 280,160 282.114,160 284.228,160 286.341,160 288.455,160 290.569,160 292.683,160 294.797,160 296.911,160 299.024,160 301.138,160 303.252,160 305.366,160 307.48,160 309.593,160 311.707,160 313.821,160 315.935,160 318.049,160 320.163,157.055 322.276,160 324.39,160 326.504,160 328.618,160 330.732,155.092 332.846,160 334.959,160 337.073,160 339.187,160 341.301,137.423 343.415,153.62 345.528,80 347.642,155.092 349.756,149.202 351.87,155.092 353.984,158.037 356.098,158.528 358.211,159.509 360.325,156.074 362.439,160 364.553,159.018 366.667,160 368.78,159.509 370.894,159.018 373.008,159.509 375.122,160 377.236,158.528 379.35,160 381.463,159.018 383.577,159.018 385.691,157.546 387.805,157.055 389.919,160 392.033,160 394.146,159.509 396.26,159.509 398.374,158.528 400.488,159.509 402.602,157.055 404.715,157.055 406.829,159.018 408.943,158.528 411.057,147.239 413.171,157.055 415.285,129.08 417.398,147.239 419.512,153.129 421.626,160 423.74,160 425.854,160 427.967,151.656 430.081,158.528 432.195,160 434.309,160 436.423,138.405 438.537,158.528 440.65,160 442.764,160 444.878,160 446.992,160 449.106,160 451.22,160 453.333,160 455.447,160 457.561,160 459.675,160 461.789,160 463.902,160 466.016,160 468.13,160 470.244,160 472.358,159.509 474.472,160 476.585,160 478.699,160 480.813,160 482.927,160 485.041,160 487.154,160 489.268,160 491.382,160 493.496,159.509 495.61,158.037 497.724,160 499.837,160 501.951,160 504.065,160 506.179,160 508.293,160 510.407,160 512.52,160 514.634,160 516.748,160 518.862,160 520.976,159.509 523.089,158.037 525.203,157.055 527.317,160 529.431,160 531.545,160 533.659,156.564 535.772,157.546 537.886,147.239 540,160 542.114,160 544.228,160 546.341,155.092 548.455,148.221 550.569,160 552.683,160 554.797,158.037 556.911,160 559.024,158.037 561.138,160 563.252,160 565.366,160 567.48,160 569.593,160 571.707,160 573.821,159.018 575.935,144.294 578.049,159.018 580.163,160 582.276,139.387 584.39,121.718 586.504,120.736 588.618,147.73 590.732,146.258 592.846,157.055 594.959,160 597.073,160 599.187,160 601.301,160 603.415,160 605.528,160 607.642,160 609.756,160 611.87,157.546 613.984,153.62 616.098,148.712 618.211,160 620.325,149.202 622.439,149.693 624.553,134.969 626.667,146.258 628.78,145.767 630.894,146.258 633.008,150.184 635.122,154.11 637.236,154.601 639.35,154.11 641.463,157.055 643.577,156.564 645.691,159.509 647.805,160 649.919,160 652.033,160 654.146,160 656.26,160 658.374,160 660.488,160 662.602,160 664.715,158.528 666.829,159.509 668.943,160 671.057,160 673.171,159.509 675.285,142.331 677.398,144.785 679.512,157.055 681.626,158.528 683.74,160 685.854,160 687.967,159.509 690.081,160 692.195,160 694.309,159.018 696.423,153.62 698.537,159.018 700.65,160 702.764,160 704.878,149.693 706.992,155.583 709.106,158.528 711.22,156.074 713.333,155.583 715.447,159.509 717.561,159.509 719.675,160 721.789,160 723.902,151.656 726.016,140.859 728.13,155.092 730.244,160 732.358,141.84 734.472,150.184 736.585,152.147 738.699,160 740.813,160 742.927,160 745.041,160 747.154,160 749.268,160 751.382,160 753.496,160 755.61,160 757.724,160 759.837,160 761.951,160 764.065,158.037 766.179,160 768.293,160 770.407,160 772.52,160 774.634,160 776.748,160 778.862,160 780.976,160 783.089,160 785.203,160 787.317,160 789.431,160 791.545,160 793.659,160 795.772,156.564 797.886,154.601 800,160 800,160" fill="var(--pill)" opacity="0.6"/>
  <polyline points="20,160 22.1138,160 24.2276,160 26.3415,160 28.4553,160 30.5691,160 32.6829,160 34.7967,160 36.9106,160 39.0244,160 41.1382,160 43.252,160 45.3659,160 47.4797,160 49.5935,160 51.7073,160 53.8211,160 55.935,160 58.0488,159.509 60.1626,160 62.2764,160 64.3902,160 66.5041,160 68.6179,160 70.7317,160 72.8455,160 74.9593,160 77.0732,160 79.187,160 81.3008,160 83.4146,160 85.5285,160 87.6423,160 89.7561,160 91.8699,160 93.9837,160 96.0976,160 98.2114,160 100.325,160 102.439,160 104.553,160 106.667,160 108.78,160 110.894,160 113.008,159.018 115.122,160 117.236,160 119.35,160 121.463,145.276 123.577,155.583 125.691,157.546 127.805,155.583 129.919,157.055 132.033,156.074 134.146,160 136.26,160 138.374,160 140.488,158.037 142.602,159.018 144.715,158.037 146.829,156.564 148.943,160 151.057,158.528 153.171,156.564 155.285,160 157.398,154.11 159.512,149.202 161.626,149.202 163.74,153.62 165.854,141.84 167.967,154.601 170.081,160 172.195,154.601 174.309,160 176.423,160 178.537,157.546 180.65,148.221 182.764,159.018 184.878,160 186.992,158.037 189.106,160 191.22,159.509 193.333,160 195.447,160 197.561,160 199.675,160 201.789,151.656 203.902,155.583 206.016,156.074 208.13,157.546 210.244,150.675 212.358,160 214.472,158.037 216.585,156.564 218.699,158.037 220.813,156.074 222.927,160 225.041,154.11 227.154,160 229.268,159.509 231.382,160 233.496,160 235.61,157.546 237.724,160 239.837,160 241.951,160 244.065,160 246.179,160 248.293,160 250.407,160 252.52,160 254.634,160 256.748,160 258.862,160 260.976,160 263.089,160 265.203,160 267.317,160 269.431,160 271.545,154.601 273.659,158.037 275.772,160 277.886,160 280,160 282.114,160 284.228,160 286.341,160 288.455,160 290.569,160 292.683,160 294.797,160 296.911,160 299.024,160 301.138,160 303.252,160 305.366,160 307.48,160 309.593,160 311.707,160 313.821,160 315.935,160 318.049,160 320.163,157.055 322.276,160 324.39,160 326.504,160 328.618,160 330.732,155.092 332.846,160 334.959,160 337.073,160 339.187,160 341.301,137.423 343.415,153.62 345.528,80 347.642,155.092 349.756,149.202 351.87,155.092 353.984,158.037 356.098,158.528 358.211,159.509 360.325,156.074 362.439,160 364.553,159.018 366.667,160 368.78,159.509 370.894,159.018 373.008,159.509 375.122,160 377.236,158.528 379.35,160 381.463,159.018 383.577,159.018 385.691,157.546 387.805,157.055 389.919,160 392.033,160 394.146,159.509 396.26,159.509 398.374,158.528 400.488,159.509 402.602,157.055 404.715,157.055 406.829,159.018 408.943,158.528 411.057,147.239 413.171,157.055 415.285,129.08 417.398,147.239 419.512,153.129 421.626,160 423.74,160 425.854,160 427.967,151.656 430.081,158.528 432.195,160 434.309,160 436.423,138.405 438.537,158.528 440.65,160 442.764,160 444.878,160 446.992,160 449.106,160 451.22,160 453.333,160 455.447,160 457.561,160 459.675,160 461.789,160 463.902,160 466.016,160 468.13,160 470.244,160 472.358,159.509 474.472,160 476.585,160 478.699,160 480.813,160 482.927,160 485.041,160 487.154,160 489.268,160 491.382,160 493.496,159.509 495.61,158.037 497.724,160 499.837,160 501.951,160 504.065,160 506.179,160 508.293,160 510.407,160 512.52,160 514.634,160 516.748,160 518.862,160 520.976,159.509 523.089,158.037 525.203,157.055 527.317,160 529.431,160 531.545,160 533.659,156.564 535.772,157.546 537.886,147.239 540,160 542.114,160 544.228,160 546.341,155.092 548.455,148.221 550.569,160 552.683,160 554.797,158.037 556.911,160 559.024,158.037 561.138,160 563.252,160 565.366,160 567.48,160 569.593,160 571.707,160 573.821,159.018 575.935,144.294 578.049,159.018 580.163,160 582.276,139.387 584.39,121.718 586.504,120.736 588.618,147.73 590.732,146.258 592.846,157.055 594.959,160 597.073,160 599.187,160 601.301,160 603.415,160 605.528,160 607.642,160 609.756,160 611.87,157.546 613.984,153.62 616.098,148.712 618.211,160 620.325,149.202 622.439,149.693 624.553,134.969 626.667,146.258 628.78,145.767 630.894,146.258 633.008,150.184 635.122,154.11 637.236,154.601 639.35,154.11 641.463,157.055 643.577,156.564 645.691,159.509 647.805,160 649.919,160 652.033,160 654.146,160 656.26,160 658.374,160 660.488,160 662.602,160 664.715,158.528 666.829,159.509 668.943,160 671.057,160 673.171,159.509 675.285,142.331 677.398,144.785 679.512,157.055 681.626,158.528 683.74,160 685.854,160 687.967,159.509 690.081,160 692.195,160 694.309,159.018 696.423,153.62 698.537,159.018 700.65,160 702.764,160 704.878,149.693 706.992,155.583 709.106,158.528 711.22,156.074 713.333,155.583 715.447,159.509 717.561,159.509 719.675,160 721.789,160 723.902,151.656 726.016,140.859 728.13,155.092 730.244,160 732.358,141.84 734.472,150.184 736.585,152.147 738.699,160 740.813,160 742.927,160 745.041,160 747.154,160 749.268,160 751.382,160 753.496,160 755.61,160 757.724,160 759.837,160 761.951,160 764.065,158.037 766.179,160 768.293,160 770.407,160 772.52,160 774.634,160 776.748,160 778.862,160 780.976,160 783.089,160 785.203,160 787.317,160 789.431,160 791.545,160 793.659,160 795.772,156.564 797.886,154.601 800,160" fill="none" stroke="var(--accent)" stroke-width="1.5" stroke-linecap="round" stroke-linejoin="round"/>
</svg>

