<svg xmlns="http://www.w3.org/2000/svg" width="820" height="180" viewBox="0 0 820 180">

<style>
  :root {
    --bg:        #f6f8fa;
    --card:      #ffffff;
    --border:    #d0d7de;
    --primary:   #1f2328;
    --secondary: #636c76;
    --muted:     #8c959f;
    --accent:    #0969da;
    --green:     #1a7f37;
    --yellow:    #9a6700;
    --red:       #cf222e;
    --hover:     #f3f4f6;
    --spark-bg:  #f0f3f6;
    --spark:     #0969da;
    --pill:      #eaf1fb;
    --pill-txt:  #0969da;
    --div:       #d0d7de;
  }
  @media (prefers-color-scheme: dark) {
    :root {
      --bg:        #0d1117;
      --card:      #161b22;
      --border:    #30363d;
      --primary:   #e6edf3;
      --secondary: #848d97;
      --muted:     #7d8590;
      --accent:    #2f81f7;
      --green:     #3fb950;
      --yellow:    #d29922;
      --red:       #f85149;
      --hover:     #21262d;
      --spark-bg:  #1c2128;
      --spark:     #58a6ff;
      --pill:      #1c2d3f;
      --pill-txt:  #58a6ff;
      --div:       #30363d;
    }
  }
  
  .bg          { fill: var(--bg); }
  .card        { fill: var(--card); stroke: var(--border); stroke-width: 1; }
  .lang-pill   { fill: var(--pill); }
  .spark-bg    { fill: var(--spark-bg); }
  .spark-line  { stroke: var(--spark); }
  .divider     { stroke: var(--div); stroke-width: 1; }
  .clr-primary   { fill: var(--primary); }
  .clr-secondary { fill: var(--secondary); }
  .clr-muted     { fill: var(--muted); }
  .clr-accent    { fill: var(--accent); }
  .clr-green     { fill: var(--green); }
  .clr-yellow    { fill: var(--yellow); }
  .clr-red       { fill: var(--red); }
  .txt-bold    { font-weight: 600; }
  svg text     { font-family: -apple-system, BlinkMacSystemFont, "Segoe UI", Helvetica, Arial, sans-serif; }
</style>

<rect x="0" y="0" width="820" height="180" rx="8" class="card"/>
  <text x="20" y="24" class="clr-primary txt-bold" text-anchor="start" font-size="14">Contribution History &amp; Activity</text>
  <line x1="20" y1="36" x2="800" y2="36" class="divider"/>
  <text x="20" y="60" class="clr-muted" text-anchor="start" font-size="12">Years Active:</text>
  <text x="100" y="60" class="clr-primary txt-bold" text-anchor="start" font-size="12">5.8</text>
  <text x="160" y="60" class="clr-muted" text-anchor="start" font-size="12">Commits (Last Year):</text>
  <text x="290" y="60" class="clr-primary txt-bold" text-anchor="start" font-size="12">1229</text>
  <text x="360" y="60" class="clr-muted" text-anchor="start" font-size="12">Highest Daily:</text>
  <text x="450" y="60" class="clr-primary txt-bold" text-anchor="start" font-size="12">163</text>
  <polygon points="20,160 20,160 22.1081,160 24.2162,160 26.3243,160 28.4324,160 30.5405,160 32.6486,160 34.7568,160 36.8649,160 38.973,160 41.0811,160 43.1892,160 45.2973,160 47.4054,160 49.5135,160 51.6216,160 53.7297,159.018 55.8378,160 57.9459,160 60.0541,160 62.1622,145.276 64.2703,155.583 66.3784,157.546 68.4865,155.583 70.5946,157.055 72.7027,156.074 74.8108,160 76.9189,160 79.027,160 81.1351,158.037 83.2432,159.018 85.3514,158.037 87.4595,156.564 89.5676,160 91.6757,158.528 93.7838,156.564 95.8919,160 98,154.11 100.108,149.202 102.216,149.202 104.324,153.62 106.432,141.84 108.541,154.601 110.649,160 112.757,154.601 114.865,160 116.973,160 119.081,157.546 121.189,148.221 123.297,159.018 125.405,160 127.514,158.037 129.622,160 131.73,159.509 133.838,160 135.946,160 138.054,160 140.162,160 142.27,151.656 144.378,155.583 146.486,156.074 148.595,157.546 150.703,150.675 152.811,160 154.919,158.037 157.027,156.564 159.135,158.037 161.243,156.074 163.351,160 165.459,154.11 167.568,160 169.676,159.509 171.784,160 173.892,160 176,157.546 178.108,160 180.216,160 182.324,160 184.432,160 186.541,160 188.649,160 190.757,160 192.865,160 194.973,160 197.081,160 199.189,160 201.297,160 203.405,160 205.514,160 207.622,160 209.73,160 211.838,154.601 213.946,158.037 216.054,160 218.162,160 220.27,160 222.378,160 224.486,160 226.595,160 228.703,160 230.811,160 232.919,160 235.027,160 237.135,160 239.243,160 241.351,160 243.459,160 245.568,160 247.676,160 249.784,160 251.892,160 254,160 256.108,160 258.216,160 260.324,157.055 262.432,160 264.541,160 266.649,160 268.757,160 270.865,155.092 272.973,160 275.081,160 277.189,160 279.297,160 281.405,137.423 283.514,153.62 285.622,80 287.73,155.092 289.838,149.202 291.946,155.092 294.054,158.037 296.162,158.528 298.27,159.509 300.378,156.074 302.486,160 304.595,159.018 306.703,160 308.811,159.509 310.919,159.018 313.027,159.509 315.135,160 317.243,158.528 319.351,160 321.459,159.018 323.568,159.018 325.676,157.546 327.784,157.055 329.892,160 332,160 334.108,159.509 336.216,159.509 338.324,158.528 340.432,159.509 342.541,157.055 344.649,157.055 346.757,159.018 348.865,158.528 350.973,147.239 353.081,157.055 355.189,129.08 357.297,147.239 359.405,153.129 361.514,160 363.622,160 365.73,160 367.838,151.656 369.946,158.528 372.054,160 374.162,160 376.27,138.405 378.378,158.528 380.486,160 382.595,160 384.703,160 386.811,160 388.919,160 391.027,160 393.135,160 395.243,160 397.351,160 399.459,160 401.568,160 403.676,160 405.784,160 407.892,160 410,160 412.108,159.509 414.216,160 416.324,160 418.432,160 420.541,160 422.649,160 424.757,160 426.865,160 428.973,160 431.081,160 433.189,159.509 435.297,158.037 437.405,160 439.514,160 441.622,160 443.73,160 445.838,160 447.946,160 450.054,160 452.162,160 454.27,160 456.378,160 458.486,160 460.595,159.509 462.703,158.037 464.811,157.055 466.919,160 469.027,160 471.135,160 473.243,156.564 475.351,157.546 477.459,147.239 479.568,160 481.676,160 483.784,160 485.892,155.092 488,148.221 490.108,160 492.216,160 494.324,158.037 496.432,160 498.541,158.037 500.649,160 502.757,160 504.865,160 506.973,160 509.081,160 511.189,160 513.297,159.018 515.405,144.294 517.514,159.018 519.622,160 521.73,139.387 523.838,121.718 525.946,120.736 528.054,147.73 530.162,146.258 532.27,157.055 534.378,160 536.486,160 538.595,160 540.703,160 542.811,160 544.919,160 547.027,160 549.135,160 551.243,157.546 553.351,153.62 555.459,148.712 557.568,160 559.676,149.202 561.784,149.693 563.892,134.969 566,146.258 568.108,145.767 570.216,146.258 572.324,150.184 574.432,154.11 576.541,154.601 578.649,154.11 580.757,157.055 582.865,156.564 584.973,159.509 587.081,160 589.189,160 591.297,160 593.405,160 595.514,160 597.622,160 599.73,160 601.838,160 603.946,158.528 606.054,159.509 608.162,160 610.27,160 612.378,159.509 614.486,142.331 616.595,144.785 618.703,157.055 620.811,158.528 622.919,160 625.027,160 627.135,159.509 629.243,160 631.351,160 633.459,159.018 635.568,153.62 637.676,159.018 639.784,160 641.892,160 644,149.693 646.108,155.583 648.216,158.528 650.324,156.074 652.432,155.583 654.541,159.509 656.649,159.509 658.757,160 660.865,160 662.973,151.656 665.081,140.859 667.189,155.092 669.297,160 671.405,141.84 673.514,150.184 675.622,152.147 677.73,160 679.838,160 681.946,160 684.054,160 686.162,160 688.27,160 690.378,160 692.486,160 694.595,160 696.703,160 698.811,160 700.919,160 703.027,158.037 705.135,160 707.243,160 709.351,160 711.459,160 713.568,160 715.676,160 717.784,160 719.892,160 722,160 724.108,160 726.216,160 728.324,160 730.432,160 732.541,160 734.649,156.564 736.757,154.601 738.865,160 740.973,160 743.081,160 745.189,160 747.297,159.509 749.405,160 751.514,160 753.622,159.509 755.73,159.509 757.838,160 759.946,159.509 762.054,160 764.162,160 766.27,156.074 768.378,159.509 770.486,159.509 772.595,160 774.703,158.037 776.811,160 778.919,160 781.027,160 783.135,160 785.243,160 787.351,160 789.459,160 791.568,150.184 793.676,158.528 795.784,159.509 797.892,159.018 800,160 800,160" fill="var(--pill)" opacity="0.6"/>
  <polyline points="20,160 22.1081,160 24.2162,160 26.3243,160 28.4324,160 30.5405,160 32.6486,160 34.7568,160 36.8649,160 38.973,160 41.0811,160 43.1892,160 45.2973,160 47.4054,160 49.5135,160 51.6216,160 53.7297,159.018 55.8378,160 57.9459,160 60.0541,160 62.1622,145.276 64.2703,155.583 66.3784,157.546 68.4865,155.583 70.5946,157.055 72.7027,156.074 74.8108,160 76.9189,160 79.027,160 81.1351,158.037 83.2432,159.018 85.3514,158.037 87.4595,156.564 89.5676,160 91.6757,158.528 93.7838,156.564 95.8919,160 98,154.11 100.108,149.202 102.216,149.202 104.324,153.62 106.432,141.84 108.541,154.601 110.649,160 112.757,154.601 114.865,160 116.973,160 119.081,157.546 121.189,148.221 123.297,159.018 125.405,160 127.514,158.037 129.622,160 131.73,159.509 133.838,160 135.946,160 138.054,160 140.162,160 142.27,151.656 144.378,155.583 146.486,156.074 148.595,157.546 150.703,150.675 152.811,160 154.919,158.037 157.027,156.564 159.135,158.037 161.243,156.074 163.351,160 165.459,154.11 167.568,160 169.676,159.509 171.784,160 173.892,160 176,157.546 178.108,160 180.216,160 182.324,160 184.432,160 186.541,160 188.649,160 190.757,160 192.865,160 194.973,160 197.081,160 199.189,160 201.297,160 203.405,160 205.514,160 207.622,160 209.73,160 211.838,154.601 213.946,158.037 216.054,160 218.162,160 220.27,160 222.378,160 224.486,160 226.595,160 228.703,160 230.811,160 232.919,160 235.027,160 237.135,160 239.243,160 241.351,160 243.459,160 245.568,160 247.676,160 249.784,160 251.892,160 254,160 256.108,160 258.216,160 260.324,157.055 262.432,160 264.541,160 266.649,160 268.757,160 270.865,155.092 272.973,160 275.081,160 277.189,160 279.297,160 281.405,137.423 283.514,153.62 285.622,80 287.73,155.092 289.838,149.202 291.946,155.092 294.054,158.037 296.162,158.528 298.27,159.509 300.378,156.074 302.486,160 304.595,159.018 306.703,160 308.811,159.509 310.919,159.018 313.027,159.509 315.135,160 317.243,158.528 319.351,160 321.459,159.018 323.568,159.018 325.676,157.546 327.784,157.055 329.892,160 332,160 334.108,159.509 336.216,159.509 338.324,158.528 340.432,159.509 342.541,157.055 344.649,157.055 346.757,159.018 348.865,158.528 350.973,147.239 353.081,157.055 355.189,129.08 357.297,147.239 359.405,153.129 361.514,160 363.622,160 365.73,160 367.838,151.656 369.946,158.528 372.054,160 374.162,160 376.27,138.405 378.378,158.528 380.486,160 382.595,160 384.703,160 386.811,160 388.919,160 391.027,160 393.135,160 395.243,160 397.351,160 399.459,160 401.568,160 403.676,160 405.784,160 407.892,160 410,160 412.108,159.509 414.216,160 416.324,160 418.432,160 420.541,160 422.649,160 424.757,160 426.865,160 428.973,160 431.081,160 433.189,159.509 435.297,158.037 437.405,160 439.514,160 441.622,160 443.73,160 445.838,160 447.946,160 450.054,160 452.162,160 454.27,160 456.378,160 458.486,160 460.595,159.509 462.703,158.037 464.811,157.055 466.919,160 469.027,160 471.135,160 473.243,156.564 475.351,157.546 477.459,147.239 479.568,160 481.676,160 483.784,160 485.892,155.092 488,148.221 490.108,160 492.216,160 494.324,158.037 496.432,160 498.541,158.037 500.649,160 502.757,160 504.865,160 506.973,160 509.081,160 511.189,160 513.297,159.018 515.405,144.294 517.514,159.018 519.622,160 521.73,139.387 523.838,121.718 525.946,120.736 528.054,147.73 530.162,146.258 532.27,157.055 534.378,160 536.486,160 538.595,160 540.703,160 542.811,160 544.919,160 547.027,160 549.135,160 551.243,157.546 553.351,153.62 555.459,148.712 557.568,160 559.676,149.202 561.784,149.693 563.892,134.969 566,146.258 568.108,145.767 570.216,146.258 572.324,150.184 574.432,154.11 576.541,154.601 578.649,154.11 580.757,157.055 582.865,156.564 584.973,159.509 587.081,160 589.189,160 591.297,160 593.405,160 595.514,160 597.622,160 599.73,160 601.838,160 603.946,158.528 606.054,159.509 608.162,160 610.27,160 612.378,159.509 614.486,142.331 616.595,144.785 618.703,157.055 620.811,158.528 622.919,160 625.027,160 627.135,159.509 629.243,160 631.351,160 633.459,159.018 635.568,153.62 637.676,159.018 639.784,160 641.892,160 644,149.693 646.108,155.583 648.216,158.528 650.324,156.074 652.432,155.583 654.541,159.509 656.649,159.509 658.757,160 660.865,160 662.973,151.656 665.081,140.859 667.189,155.092 669.297,160 671.405,141.84 673.514,150.184 675.622,152.147 677.73,160 679.838,160 681.946,160 684.054,160 686.162,160 688.27,160 690.378,160 692.486,160 694.595,160 696.703,160 698.811,160 700.919,160 703.027,158.037 705.135,160 707.243,160 709.351,160 711.459,160 713.568,160 715.676,160 717.784,160 719.892,160 722,160 724.108,160 726.216,160 728.324,160 730.432,160 732.541,160 734.649,156.564 736.757,154.601 738.865,160 740.973,160 743.081,160 745.189,160 747.297,159.509 749.405,160 751.514,160 753.622,159.509 755.73,159.509 757.838,160 759.946,159.509 762.054,160 764.162,160 766.27,156.074 768.378,159.509 770.486,159.509 772.595,160 774.703,158.037 776.811,160 778.919,160 781.027,160 783.135,160 785.243,160 787.351,160 789.459,160 791.568,150.184 793.676,158.528 795.784,159.509 797.892,159.018 800,160" fill="none" stroke="var(--accent)" stroke-width="1.5" stroke-linecap="round" stroke-linejoin="round"/>
</svg>

