<svg xmlns="http://www.w3.org/2000/svg" width="820" height="180" viewBox="0 0 820 180">

<style>
  :root {
    --bg:        #f6f8fa;
    --card:      #ffffff;
    --border:    #d0d7de;
    --primary:   #1f2328;
    --secondary: #636c76;
    --muted:     #8c959f;
    --accent:    #0969da;
    --green:     #1a7f37;
    --yellow:    #9a6700;
    --red:       #cf222e;
    --hover:     #f3f4f6;
    --spark-bg:  #f0f3f6;
    --spark:     #0969da;
    --pill:      #eaf1fb;
    --pill-txt:  #0969da;
    --div:       #d0d7de;
  }
  @media (prefers-color-scheme: dark) {
    :root {
      --bg:        #0d1117;
      --card:      #161b22;
      --border:    #30363d;
      --primary:   #e6edf3;
      --secondary: #848d97;
      --muted:     #7d8590;
      --accent:    #2f81f7;
      --green:     #3fb950;
      --yellow:    #d29922;
      --red:       #f85149;
      --hover:     #21262d;
      --spark-bg:  #1c2128;
      --spark:     #58a6ff;
      --pill:      #1c2d3f;
      --pill-txt:  #58a6ff;
      --div:       #30363d;
    }
  }
  
  .bg          { fill: var(--bg); }
  .card        { fill: var(--card); stroke: var(--border); stroke-width: 1; }
  .lang-pill   { fill: var(--pill); }
  .spark-bg    { fill: var(--spark-bg); }
  .spark-line  { stroke: var(--spark); }
  .divider     { stroke: var(--div); stroke-width: 1; }
  .clr-primary   { fill: var(--primary); }
  .clr-secondary { fill: var(--secondary); }
  .clr-muted     { fill: var(--muted); }
  .clr-accent    { fill: var(--accent); }
  .clr-green     { fill: var(--green); }
  .clr-yellow    { fill: var(--yellow); }
  .clr-red       { fill: var(--red); }
  .txt-bold    { font-weight: 600; }
  svg text     { font-family: -apple-system, BlinkMacSystemFont, "Segoe UI", Helvetica, Arial, sans-serif; }
</style>

<rect x="0" y="0" width="820" height="180" rx="8" class="card"/>
  <text x="20" y="24" class="clr-primary txt-bold" text-anchor="start" font-size="14">Contribution History &amp; Activity</text>
  <line x1="20" y1="36" x2="800" y2="36" class="divider"/>
  <text x="20" y="60" class="clr-muted" text-anchor="start" font-size="12">Years Active:</text>
  <text x="100" y="60" class="clr-primary txt-bold" text-anchor="start" font-size="12">5.6</text>
  <text x="160" y="60" class="clr-muted" text-anchor="start" font-size="12">Commits (Last Year):</text>
  <text x="290" y="60" class="clr-primary txt-bold" text-anchor="start" font-size="12">1170</text>
  <text x="360" y="60" class="clr-muted" text-anchor="start" font-size="12">Highest Daily:</text>
  <text x="450" y="60" class="clr-primary txt-bold" text-anchor="start" font-size="12">163</text>
  <polygon points="20,160 20,160 22.1429,160 24.2857,160 26.4286,160 28.5714,160 30.7143,160 32.8571,160 35,160 37.1429,160 39.2857,160 41.4286,160 43.5714,160 45.7143,160 47.8571,160 50,160 52.1429,160 54.2857,160 56.4286,160 58.5714,160 60.7143,160 62.8571,160 65,160 67.1429,160 69.2857,160 71.4286,160 73.5714,160 75.7143,160 77.8571,160 80,160 82.1429,160 84.2857,160 86.4286,160 88.5714,159.509 90.7143,160 92.8571,160 95,160 97.1429,160 99.2857,160 101.429,160 103.571,160 105.714,160 107.857,160 110,160 112.143,160 114.286,160 116.429,160 118.571,160 120.714,160 122.857,160 125,160 127.143,160 129.286,160 131.429,160 133.571,160 135.714,160 137.857,160 140,160 142.143,160 144.286,159.018 146.429,160 148.571,160 150.714,160 152.857,145.276 155,155.583 157.143,157.546 159.286,155.583 161.429,157.055 163.571,156.074 165.714,160 167.857,160 170,160 172.143,158.037 174.286,159.018 176.429,158.037 178.571,156.564 180.714,160 182.857,158.528 185,156.564 187.143,160 189.286,154.11 191.429,149.202 193.571,149.202 195.714,153.62 197.857,141.84 200,154.601 202.143,160 204.286,154.601 206.429,160 208.571,160 210.714,157.546 212.857,148.221 215,159.018 217.143,160 219.286,158.037 221.429,160 223.571,159.509 225.714,160 227.857,160 230,160 232.143,160 234.286,151.656 236.429,155.583 238.571,156.074 240.714,157.546 242.857,150.675 245,160 247.143,158.037 249.286,156.564 251.429,158.037 253.571,156.074 255.714,160 257.857,154.11 260,160 262.143,159.509 264.286,160 266.429,160 268.571,157.546 270.714,160 272.857,160 275,160 277.143,160 279.286,160 281.429,160 283.571,160 285.714,160 287.857,160 290,160 292.143,160 294.286,160 296.429,160 298.571,160 300.714,160 302.857,160 305,154.601 307.143,158.037 309.286,160 311.429,160 313.571,160 315.714,160 317.857,160 320,160 322.143,160 324.286,160 326.429,160 328.571,160 330.714,160 332.857,160 335,160 337.143,160 339.286,160 341.429,160 343.571,160 345.714,160 347.857,160 350,160 352.143,160 354.286,157.055 356.429,160 358.571,160 360.714,160 362.857,160 365,155.092 367.143,160 369.286,160 371.429,160 373.571,160 375.714,137.423 377.857,153.62 380,80 382.143,155.092 384.286,149.202 386.429,155.092 388.571,158.037 390.714,158.528 392.857,159.509 395,156.074 397.143,160 399.286,159.018 401.429,160 403.571,159.509 405.714,159.018 407.857,159.509 410,160 412.143,158.528 414.286,160 416.429,159.018 418.571,159.018 420.714,157.546 422.857,157.055 425,160 427.143,160 429.286,159.509 431.429,159.509 433.571,158.528 435.714,159.509 437.857,157.055 440,157.055 442.143,159.018 444.286,158.528 446.429,147.239 448.571,157.055 450.714,129.08 452.857,147.239 455,153.129 457.143,160 459.286,160 461.429,160 463.571,151.656 465.714,158.528 467.857,160 470,160 472.143,138.405 474.286,158.528 476.429,160 478.571,160 480.714,160 482.857,160 485,160 487.143,160 489.286,160 491.429,160 493.571,160 495.714,160 497.857,160 500,160 502.143,160 504.286,160 506.429,160 508.571,159.509 510.714,160 512.857,160 515,160 517.143,160 519.286,160 521.429,160 523.571,160 525.714,160 527.857,160 530,159.509 532.143,158.037 534.286,160 536.429,160 538.571,160 540.714,160 542.857,160 545,160 547.143,160 549.286,160 551.429,160 553.571,160 555.714,160 557.857,159.509 560,158.037 562.143,157.055 564.286,160 566.429,160 568.571,160 570.714,156.564 572.857,157.546 575,147.239 577.143,160 579.286,160 581.429,160 583.571,155.092 585.714,148.221 587.857,160 590,160 592.143,158.037 594.286,160 596.429,158.037 598.571,160 600.714,160 602.857,160 605,160 607.143,160 609.286,160 611.429,159.018 613.571,144.294 615.714,159.018 617.857,160 620,139.387 622.143,121.718 624.286,120.736 626.429,147.73 628.571,146.258 630.714,157.055 632.857,160 635,160 637.143,160 639.286,160 641.429,160 643.571,160 645.714,160 647.857,160 650,157.546 652.143,153.62 654.286,148.712 656.429,160 658.571,149.202 660.714,149.693 662.857,134.969 665,146.258 667.143,145.767 669.286,146.258 671.429,150.184 673.571,154.11 675.714,154.601 677.857,154.11 680,157.055 682.143,156.564 684.286,159.509 686.429,160 688.571,160 690.714,160 692.857,160 695,160 697.143,160 699.286,160 701.429,160 703.571,158.528 705.714,159.509 707.857,160 710,160 712.143,159.509 714.286,142.331 716.429,144.785 718.571,157.055 720.714,158.528 722.857,160 725,160 727.143,159.509 729.286,160 731.429,160 733.571,159.018 735.714,153.62 737.857,159.018 740,160 742.143,160 744.286,149.693 746.429,155.583 748.571,158.528 750.714,156.074 752.857,155.583 755,159.509 757.143,159.509 759.286,160 761.429,160 763.571,151.656 765.714,140.859 767.857,155.092 770,160 772.143,141.84 774.286,150.184 776.429,152.147 778.571,160 780.714,160 782.857,160 785,160 787.143,160 789.286,160 791.429,160 793.571,160 795.714,160 797.857,160 800,160 800,160" fill="var(--pill)" opacity="0.6"/>
  <polyline points="20,160 22.1429,160 24.2857,160 26.4286,160 28.5714,160 30.7143,160 32.8571,160 35,160 37.1429,160 39.2857,160 41.4286,160 43.5714,160 45.7143,160 47.8571,160 50,160 52.1429,160 54.2857,160 56.4286,160 58.5714,160 60.7143,160 62.8571,160 65,160 67.1429,160 69.2857,160 71.4286,160 73.5714,160 75.7143,160 77.8571,160 80,160 82.1429,160 84.2857,160 86.4286,160 88.5714,159.509 90.7143,160 92.8571,160 95,160 97.1429,160 99.2857,160 101.429,160 103.571,160 105.714,160 107.857,160 110,160 112.143,160 114.286,160 116.429,160 118.571,160 120.714,160 122.857,160 125,160 127.143,160 129.286,160 131.429,160 133.571,160 135.714,160 137.857,160 140,160 142.143,160 144.286,159.018 146.429,160 148.571,160 150.714,160 152.857,145.276 155,155.583 157.143,157.546 159.286,155.583 161.429,157.055 163.571,156.074 165.714,160 167.857,160 170,160 172.143,158.037 174.286,159.018 176.429,158.037 178.571,156.564 180.714,160 182.857,158.528 185,156.564 187.143,160 189.286,154.11 191.429,149.202 193.571,149.202 195.714,153.62 197.857,141.84 200,154.601 202.143,160 204.286,154.601 206.429,160 208.571,160 210.714,157.546 212.857,148.221 215,159.018 217.143,160 219.286,158.037 221.429,160 223.571,159.509 225.714,160 227.857,160 230,160 232.143,160 234.286,151.656 236.429,155.583 238.571,156.074 240.714,157.546 242.857,150.675 245,160 247.143,158.037 249.286,156.564 251.429,158.037 253.571,156.074 255.714,160 257.857,154.11 260,160 262.143,159.509 264.286,160 266.429,160 268.571,157.546 270.714,160 272.857,160 275,160 277.143,160 279.286,160 281.429,160 283.571,160 285.714,160 287.857,160 290,160 292.143,160 294.286,160 296.429,160 298.571,160 300.714,160 302.857,160 305,154.601 307.143,158.037 309.286,160 311.429,160 313.571,160 315.714,160 317.857,160 320,160 322.143,160 324.286,160 326.429,160 328.571,160 330.714,160 332.857,160 335,160 337.143,160 339.286,160 341.429,160 343.571,160 345.714,160 347.857,160 350,160 352.143,160 354.286,157.055 356.429,160 358.571,160 360.714,160 362.857,160 365,155.092 367.143,160 369.286,160 371.429,160 373.571,160 375.714,137.423 377.857,153.62 380,80 382.143,155.092 384.286,149.202 386.429,155.092 388.571,158.037 390.714,158.528 392.857,159.509 395,156.074 397.143,160 399.286,159.018 401.429,160 403.571,159.509 405.714,159.018 407.857,159.509 410,160 412.143,158.528 414.286,160 416.429,159.018 418.571,159.018 420.714,157.546 422.857,157.055 425,160 427.143,160 429.286,159.509 431.429,159.509 433.571,158.528 435.714,159.509 437.857,157.055 440,157.055 442.143,159.018 444.286,158.528 446.429,147.239 448.571,157.055 450.714,129.08 452.857,147.239 455,153.129 457.143,160 459.286,160 461.429,160 463.571,151.656 465.714,158.528 467.857,160 470,160 472.143,138.405 474.286,158.528 476.429,160 478.571,160 480.714,160 482.857,160 485,160 487.143,160 489.286,160 491.429,160 493.571,160 495.714,160 497.857,160 500,160 502.143,160 504.286,160 506.429,160 508.571,159.509 510.714,160 512.857,160 515,160 517.143,160 519.286,160 521.429,160 523.571,160 525.714,160 527.857,160 530,159.509 532.143,158.037 534.286,160 536.429,160 538.571,160 540.714,160 542.857,160 545,160 547.143,160 549.286,160 551.429,160 553.571,160 555.714,160 557.857,159.509 560,158.037 562.143,157.055 564.286,160 566.429,160 568.571,160 570.714,156.564 572.857,157.546 575,147.239 577.143,160 579.286,160 581.429,160 583.571,155.092 585.714,148.221 587.857,160 590,160 592.143,158.037 594.286,160 596.429,158.037 598.571,160 600.714,160 602.857,160 605,160 607.143,160 609.286,160 611.429,159.018 613.571,144.294 615.714,159.018 617.857,160 620,139.387 622.143,121.718 624.286,120.736 626.429,147.73 628.571,146.258 630.714,157.055 632.857,160 635,160 637.143,160 639.286,160 641.429,160 643.571,160 645.714,160 647.857,160 650,157.546 652.143,153.62 654.286,148.712 656.429,160 658.571,149.202 660.714,149.693 662.857,134.969 665,146.258 667.143,145.767 669.286,146.258 671.429,150.184 673.571,154.11 675.714,154.601 677.857,154.11 680,157.055 682.143,156.564 684.286,159.509 686.429,160 688.571,160 690.714,160 692.857,160 695,160 697.143,160 699.286,160 701.429,160 703.571,158.528 705.714,159.509 707.857,160 710,160 712.143,159.509 714.286,142.331 716.429,144.785 718.571,157.055 720.714,158.528 722.857,160 725,160 727.143,159.509 729.286,160 731.429,160 733.571,159.018 735.714,153.62 737.857,159.018 740,160 742.143,160 744.286,149.693 746.429,155.583 748.571,158.528 750.714,156.074 752.857,155.583 755,159.509 757.143,159.509 759.286,160 761.429,160 763.571,151.656 765.714,140.859 767.857,155.092 770,160 772.143,141.84 774.286,150.184 776.429,152.147 778.571,160 780.714,160 782.857,160 785,160 787.143,160 789.286,160 791.429,160 793.571,160 795.714,160 797.857,160 800,160" fill="none" stroke="var(--accent)" stroke-width="1.5" stroke-linecap="round" stroke-linejoin="round"/>
</svg>

