<svg xmlns="http://www.w3.org/2000/svg" width="820" height="180" viewBox="0 0 820 180">

<style>
  :root {
    --bg:        #f6f8fa;
    --card:      #ffffff;
    --border:    #d0d7de;
    --primary:   #1f2328;
    --secondary: #636c76;
    --muted:     #8c959f;
    --accent:    #0969da;
    --green:     #1a7f37;
    --yellow:    #9a6700;
    --red:       #cf222e;
    --hover:     #f3f4f6;
    --spark-bg:  #f0f3f6;
    --spark:     #0969da;
    --pill:      #eaf1fb;
    --pill-txt:  #0969da;
    --div:       #d0d7de;
  }
  @media (prefers-color-scheme: dark) {
    :root {
      --bg:        #0d1117;
      --card:      #161b22;
      --border:    #30363d;
      --primary:   #e6edf3;
      --secondary: #848d97;
      --muted:     #7d8590;
      --accent:    #2f81f7;
      --green:     #3fb950;
      --yellow:    #d29922;
      --red:       #f85149;
      --hover:     #21262d;
      --spark-bg:  #1c2128;
      --spark:     #58a6ff;
      --pill:      #1c2d3f;
      --pill-txt:  #58a6ff;
      --div:       #30363d;
    }
  }
  
  .bg          { fill: var(--bg); }
  .card        { fill: var(--card); stroke: var(--border); stroke-width: 1; }
  .lang-pill   { fill: var(--pill); }
  .spark-bg    { fill: var(--spark-bg); }
  .spark-line  { stroke: var(--spark); }
  .divider     { stroke: var(--div); stroke-width: 1; }
  .clr-primary   { fill: var(--primary); }
  .clr-secondary { fill: var(--secondary); }
  .clr-muted     { fill: var(--muted); }
  .clr-accent    { fill: var(--accent); }
  .clr-green     { fill: var(--green); }
  .clr-yellow    { fill: var(--yellow); }
  .clr-red       { fill: var(--red); }
  .txt-bold    { font-weight: 600; }
  svg text     { font-family: -apple-system, BlinkMacSystemFont, "Segoe UI", Helvetica, Arial, sans-serif; }
</style>

<rect x="0" y="0" width="820" height="180" rx="8" class="card"/>
  <text x="20" y="24" class="clr-primary txt-bold" text-anchor="start" font-size="14">Contribution History &amp; Activity</text>
  <line x1="20" y1="36" x2="800" y2="36" class="divider"/>
  <text x="20" y="60" class="clr-muted" text-anchor="start" font-size="12">Years Active:</text>
  <text x="100" y="60" class="clr-primary txt-bold" text-anchor="start" font-size="12">5.7</text>
  <text x="160" y="60" class="clr-muted" text-anchor="start" font-size="12">Commits (Last Year):</text>
  <text x="290" y="60" class="clr-primary txt-bold" text-anchor="start" font-size="12">1192</text>
  <text x="360" y="60" class="clr-muted" text-anchor="start" font-size="12">Highest Daily:</text>
  <text x="450" y="60" class="clr-primary txt-bold" text-anchor="start" font-size="12">163</text>
  <polygon points="20,160 20,160 22.1311,160 24.2623,160 26.3934,160 28.5246,159.509 30.6557,160 32.7869,160 34.918,160 37.0492,160 39.1803,160 41.3115,160 43.4426,160 45.5738,160 47.7049,160 49.8361,160 51.9672,160 54.0984,160 56.2295,160 58.3607,160 60.4918,160 62.623,160 64.7541,160 66.8852,160 69.0164,160 71.1475,160 73.2787,160 75.4098,160 77.541,160 79.6721,160 81.8033,160 83.9344,159.018 86.0656,160 88.1967,160 90.3279,160 92.459,145.276 94.5902,155.583 96.7213,157.546 98.8525,155.583 100.984,157.055 103.115,156.074 105.246,160 107.377,160 109.508,160 111.639,158.037 113.77,159.018 115.902,158.037 118.033,156.564 120.164,160 122.295,158.528 124.426,156.564 126.557,160 128.689,154.11 130.82,149.202 132.951,149.202 135.082,153.62 137.213,141.84 139.344,154.601 141.475,160 143.607,154.601 145.738,160 147.869,160 150,157.546 152.131,148.221 154.262,159.018 156.393,160 158.525,158.037 160.656,160 162.787,159.509 164.918,160 167.049,160 169.18,160 171.311,160 173.443,151.656 175.574,155.583 177.705,156.074 179.836,157.546 181.967,150.675 184.098,160 186.23,158.037 188.361,156.564 190.492,158.037 192.623,156.074 194.754,160 196.885,154.11 199.016,160 201.148,159.509 203.279,160 205.41,160 207.541,157.546 209.672,160 211.803,160 213.934,160 216.066,160 218.197,160 220.328,160 222.459,160 224.59,160 226.721,160 228.852,160 230.984,160 233.115,160 235.246,160 237.377,160 239.508,160 241.639,160 243.77,154.601 245.902,158.037 248.033,160 250.164,160 252.295,160 254.426,160 256.557,160 258.689,160 260.82,160 262.951,160 265.082,160 267.213,160 269.344,160 271.475,160 273.607,160 275.738,160 277.869,160 280,160 282.131,160 284.262,160 286.393,160 288.525,160 290.656,160 292.787,157.055 294.918,160 297.049,160 299.18,160 301.311,160 303.443,155.092 305.574,160 307.705,160 309.836,160 311.967,160 314.098,137.423 316.23,153.62 318.361,80 320.492,155.092 322.623,149.202 324.754,155.092 326.885,158.037 329.016,158.528 331.148,159.509 333.279,156.074 335.41,160 337.541,159.018 339.672,160 341.803,159.509 343.934,159.018 346.066,159.509 348.197,160 350.328,158.528 352.459,160 354.59,159.018 356.721,159.018 358.852,157.546 360.984,157.055 363.115,160 365.246,160 367.377,159.509 369.508,159.509 371.639,158.528 373.77,159.509 375.902,157.055 378.033,157.055 380.164,159.018 382.295,158.528 384.426,147.239 386.557,157.055 388.689,129.08 390.82,147.239 392.951,153.129 395.082,160 397.213,160 399.344,160 401.475,151.656 403.607,158.528 405.738,160 407.869,160 410,138.405 412.131,158.528 414.262,160 416.393,160 418.525,160 420.656,160 422.787,160 424.918,160 427.049,160 429.18,160 431.311,160 433.443,160 435.574,160 437.705,160 439.836,160 441.967,160 444.098,160 446.23,159.509 448.361,160 450.492,160 452.623,160 454.754,160 456.885,160 459.016,160 461.148,160 463.279,160 465.41,160 467.541,159.509 469.672,158.037 471.803,160 473.934,160 476.066,160 478.197,160 480.328,160 482.459,160 484.59,160 486.721,160 488.852,160 490.984,160 493.115,160 495.246,159.509 497.377,158.037 499.508,157.055 501.639,160 503.77,160 505.902,160 508.033,156.564 510.164,157.546 512.295,147.239 514.426,160 516.557,160 518.689,160 520.82,155.092 522.951,148.221 525.082,160 527.213,160 529.344,158.037 531.475,160 533.607,158.037 535.738,160 537.869,160 540,160 542.131,160 544.262,160 546.393,160 548.525,159.018 550.656,144.294 552.787,159.018 554.918,160 557.049,139.387 559.18,121.718 561.311,120.736 563.443,147.73 565.574,146.258 567.705,157.055 569.836,160 571.967,160 574.098,160 576.23,160 578.361,160 580.492,160 582.623,160 584.754,160 586.885,157.546 589.016,153.62 591.148,148.712 593.279,160 595.41,149.202 597.541,149.693 599.672,134.969 601.803,146.258 603.934,145.767 606.066,146.258 608.197,150.184 610.328,154.11 612.459,154.601 614.59,154.11 616.721,157.055 618.852,156.564 620.984,159.509 623.115,160 625.246,160 627.377,160 629.508,160 631.639,160 633.77,160 635.902,160 638.033,160 640.164,158.528 642.295,159.509 644.426,160 646.557,160 648.689,159.509 650.82,142.331 652.951,144.785 655.082,157.055 657.213,158.528 659.344,160 661.475,160 663.607,159.509 665.738,160 667.869,160 670,159.018 672.131,153.62 674.262,159.018 676.393,160 678.525,160 680.656,149.693 682.787,155.583 684.918,158.528 687.049,156.074 689.18,155.583 691.311,159.509 693.443,159.509 695.574,160 697.705,160 699.836,151.656 701.967,140.859 704.098,155.092 706.23,160 708.361,141.84 710.492,150.184 712.623,152.147 714.754,160 716.885,160 719.016,160 721.148,160 723.279,160 725.41,160 727.541,160 729.672,160 731.803,160 733.934,160 736.066,160 738.197,160 740.328,158.037 742.459,160 744.59,160 746.721,160 748.852,160 750.984,160 753.115,160 755.246,160 757.377,160 759.508,160 761.639,160 763.77,160 765.902,160 768.033,160 770.164,160 772.295,156.564 774.426,154.601 776.557,160 778.689,160 780.82,160 782.951,160 785.082,159.509 787.213,160 789.344,160 791.475,159.509 793.607,159.509 795.738,160 797.869,159.509 800,160 800,160" fill="var(--pill)" opacity="0.6"/>
  <polyline points="20,160 22.1311,160 24.2623,160 26.3934,160 28.5246,159.509 30.6557,160 32.7869,160 34.918,160 37.0492,160 39.1803,160 41.3115,160 43.4426,160 45.5738,160 47.7049,160 49.8361,160 51.9672,160 54.0984,160 56.2295,160 58.3607,160 60.4918,160 62.623,160 64.7541,160 66.8852,160 69.0164,160 71.1475,160 73.2787,160 75.4098,160 77.541,160 79.6721,160 81.8033,160 83.9344,159.018 86.0656,160 88.1967,160 90.3279,160 92.459,145.276 94.5902,155.583 96.7213,157.546 98.8525,155.583 100.984,157.055 103.115,156.074 105.246,160 107.377,160 109.508,160 111.639,158.037 113.77,159.018 115.902,158.037 118.033,156.564 120.164,160 122.295,158.528 124.426,156.564 126.557,160 128.689,154.11 130.82,149.202 132.951,149.202 135.082,153.62 137.213,141.84 139.344,154.601 141.475,160 143.607,154.601 145.738,160 147.869,160 150,157.546 152.131,148.221 154.262,159.018 156.393,160 158.525,158.037 160.656,160 162.787,159.509 164.918,160 167.049,160 169.18,160 171.311,160 173.443,151.656 175.574,155.583 177.705,156.074 179.836,157.546 181.967,150.675 184.098,160 186.23,158.037 188.361,156.564 190.492,158.037 192.623,156.074 194.754,160 196.885,154.11 199.016,160 201.148,159.509 203.279,160 205.41,160 207.541,157.546 209.672,160 211.803,160 213.934,160 216.066,160 218.197,160 220.328,160 222.459,160 224.59,160 226.721,160 228.852,160 230.984,160 233.115,160 235.246,160 237.377,160 239.508,160 241.639,160 243.77,154.601 245.902,158.037 248.033,160 250.164,160 252.295,160 254.426,160 256.557,160 258.689,160 260.82,160 262.951,160 265.082,160 267.213,160 269.344,160 271.475,160 273.607,160 275.738,160 277.869,160 280,160 282.131,160 284.262,160 286.393,160 288.525,160 290.656,160 292.787,157.055 294.918,160 297.049,160 299.18,160 301.311,160 303.443,155.092 305.574,160 307.705,160 309.836,160 311.967,160 314.098,137.423 316.23,153.62 318.361,80 320.492,155.092 322.623,149.202 324.754,155.092 326.885,158.037 329.016,158.528 331.148,159.509 333.279,156.074 335.41,160 337.541,159.018 339.672,160 341.803,159.509 343.934,159.018 346.066,159.509 348.197,160 350.328,158.528 352.459,160 354.59,159.018 356.721,159.018 358.852,157.546 360.984,157.055 363.115,160 365.246,160 367.377,159.509 369.508,159.509 371.639,158.528 373.77,159.509 375.902,157.055 378.033,157.055 380.164,159.018 382.295,158.528 384.426,147.239 386.557,157.055 388.689,129.08 390.82,147.239 392.951,153.129 395.082,160 397.213,160 399.344,160 401.475,151.656 403.607,158.528 405.738,160 407.869,160 410,138.405 412.131,158.528 414.262,160 416.393,160 418.525,160 420.656,160 422.787,160 424.918,160 427.049,160 429.18,160 431.311,160 433.443,160 435.574,160 437.705,160 439.836,160 441.967,160 444.098,160 446.23,159.509 448.361,160 450.492,160 452.623,160 454.754,160 456.885,160 459.016,160 461.148,160 463.279,160 465.41,160 467.541,159.509 469.672,158.037 471.803,160 473.934,160 476.066,160 478.197,160 480.328,160 482.459,160 484.59,160 486.721,160 488.852,160 490.984,160 493.115,160 495.246,159.509 497.377,158.037 499.508,157.055 501.639,160 503.77,160 505.902,160 508.033,156.564 510.164,157.546 512.295,147.239 514.426,160 516.557,160 518.689,160 520.82,155.092 522.951,148.221 525.082,160 527.213,160 529.344,158.037 531.475,160 533.607,158.037 535.738,160 537.869,160 540,160 542.131,160 544.262,160 546.393,160 548.525,159.018 550.656,144.294 552.787,159.018 554.918,160 557.049,139.387 559.18,121.718 561.311,120.736 563.443,147.73 565.574,146.258 567.705,157.055 569.836,160 571.967,160 574.098,160 576.23,160 578.361,160 580.492,160 582.623,160 584.754,160 586.885,157.546 589.016,153.62 591.148,148.712 593.279,160 595.41,149.202 597.541,149.693 599.672,134.969 601.803,146.258 603.934,145.767 606.066,146.258 608.197,150.184 610.328,154.11 612.459,154.601 614.59,154.11 616.721,157.055 618.852,156.564 620.984,159.509 623.115,160 625.246,160 627.377,160 629.508,160 631.639,160 633.77,160 635.902,160 638.033,160 640.164,158.528 642.295,159.509 644.426,160 646.557,160 648.689,159.509 650.82,142.331 652.951,144.785 655.082,157.055 657.213,158.528 659.344,160 661.475,160 663.607,159.509 665.738,160 667.869,160 670,159.018 672.131,153.62 674.262,159.018 676.393,160 678.525,160 680.656,149.693 682.787,155.583 684.918,158.528 687.049,156.074 689.18,155.583 691.311,159.509 693.443,159.509 695.574,160 697.705,160 699.836,151.656 701.967,140.859 704.098,155.092 706.23,160 708.361,141.84 710.492,150.184 712.623,152.147 714.754,160 716.885,160 719.016,160 721.148,160 723.279,160 725.41,160 727.541,160 729.672,160 731.803,160 733.934,160 736.066,160 738.197,160 740.328,158.037 742.459,160 744.59,160 746.721,160 748.852,160 750.984,160 753.115,160 755.246,160 757.377,160 759.508,160 761.639,160 763.77,160 765.902,160 768.033,160 770.164,160 772.295,156.564 774.426,154.601 776.557,160 778.689,160 780.82,160 782.951,160 785.082,159.509 787.213,160 789.344,160 791.475,159.509 793.607,159.509 795.738,160 797.869,159.509 800,160" fill="none" stroke="var(--accent)" stroke-width="1.5" stroke-linecap="round" stroke-linejoin="round"/>
</svg>

