<svg xmlns="http://www.w3.org/2000/svg" width="820" height="180" viewBox="0 0 820 180">

<style>
  :root {
    --bg:        #f6f8fa;
    --card:      #ffffff;
    --border:    #d0d7de;
    --primary:   #1f2328;
    --secondary: #636c76;
    --muted:     #8c959f;
    --accent:    #0969da;
    --green:     #1a7f37;
    --yellow:    #9a6700;
    --red:       #cf222e;
    --hover:     #f3f4f6;
    --spark-bg:  #f0f3f6;
    --spark:     #0969da;
    --pill:      #eaf1fb;
    --pill-txt:  #0969da;
    --div:       #d0d7de;
  }
  @media (prefers-color-scheme: dark) {
    :root {
      --bg:        #0d1117;
      --card:      #161b22;
      --border:    #30363d;
      --primary:   #e6edf3;
      --secondary: #848d97;
      --muted:     #7d8590;
      --accent:    #2f81f7;
      --green:     #3fb950;
      --yellow:    #d29922;
      --red:       #f85149;
      --hover:     #21262d;
      --spark-bg:  #1c2128;
      --spark:     #58a6ff;
      --pill:      #1c2d3f;
      --pill-txt:  #58a6ff;
      --div:       #30363d;
    }
  }
  
  .bg          { fill: var(--bg); }
  .card        { fill: var(--card); stroke: var(--border); stroke-width: 1; }
  .lang-pill   { fill: var(--pill); }
  .spark-bg    { fill: var(--spark-bg); }
  .spark-line  { stroke: var(--spark); }
  .divider     { stroke: var(--div); stroke-width: 1; }
  .clr-primary   { fill: var(--primary); }
  .clr-secondary { fill: var(--secondary); }
  .clr-muted     { fill: var(--muted); }
  .clr-accent    { fill: var(--accent); }
  .clr-green     { fill: var(--green); }
  .clr-yellow    { fill: var(--yellow); }
  .clr-red       { fill: var(--red); }
  .txt-bold    { font-weight: 600; }
  svg text     { font-family: -apple-system, BlinkMacSystemFont, "Segoe UI", Helvetica, Arial, sans-serif; }
</style>

<rect x="0" y="0" width="820" height="180" rx="8" class="card"/>
  <text x="20" y="24" class="clr-primary txt-bold" text-anchor="start" font-size="14">Contribution History &amp; Activity</text>
  <line x1="20" y1="36" x2="800" y2="36" class="divider"/>
  <text x="20" y="60" class="clr-muted" text-anchor="start" font-size="12">Years Active:</text>
  <text x="100" y="60" class="clr-primary txt-bold" text-anchor="start" font-size="12">5.5</text>
  <text x="160" y="60" class="clr-muted" text-anchor="start" font-size="12">Commits (Last Year):</text>
  <text x="290" y="60" class="clr-primary txt-bold" text-anchor="start" font-size="12">1024</text>
  <text x="360" y="60" class="clr-muted" text-anchor="start" font-size="12">Highest Daily:</text>
  <text x="450" y="60" class="clr-primary txt-bold" text-anchor="start" font-size="12">163</text>
  <polygon points="20,160 20,160 22.1081,160 24.2162,160 26.3243,160 28.4324,160 30.5405,160 32.6486,160 34.7568,160 36.8649,157.055 38.973,158.037 41.0811,160 43.1892,160 45.2973,160 47.4054,160 49.5135,160 51.6216,160 53.7297,160 55.8378,160 57.9459,160 60.0541,160 62.1622,153.62 64.2703,160 66.3784,160 68.4865,160 70.5946,154.11 72.7027,157.055 74.8108,160 76.9189,160 79.027,160 81.1351,160 83.2432,160 85.3514,160 87.4595,159.018 89.5676,160 91.6757,160 93.7838,160 95.8919,160 98,160 100.108,160 102.216,160 104.324,160 106.432,160 108.541,160 110.649,160 112.757,160 114.865,160 116.973,160 119.081,160 121.189,160 123.297,160 125.405,160 127.514,160 129.622,160 131.73,160 133.838,160 135.946,160 138.054,160 140.162,160 142.27,160 144.378,160 146.486,160 148.595,160 150.703,160 152.811,160 154.919,160 157.027,160 159.135,160 161.243,159.509 163.351,160 165.459,160 167.568,160 169.676,160 171.784,160 173.892,160 176,160 178.108,160 180.216,160 182.324,160 184.432,160 186.541,160 188.649,160 190.757,160 192.865,160 194.973,160 197.081,160 199.189,160 201.297,160 203.405,160 205.514,160 207.622,160 209.73,160 211.838,160 213.946,160 216.054,159.018 218.162,160 220.27,160 222.378,160 224.486,145.276 226.595,155.583 228.703,157.546 230.811,155.583 232.919,157.055 235.027,156.074 237.135,160 239.243,160 241.351,160 243.459,158.037 245.568,159.018 247.676,158.037 249.784,156.564 251.892,160 254,158.528 256.108,156.564 258.216,160 260.324,154.11 262.432,149.202 264.541,149.202 266.649,153.62 268.757,141.84 270.865,154.601 272.973,160 275.081,154.601 277.189,160 279.297,160 281.405,157.546 283.514,148.221 285.622,159.018 287.73,160 289.838,158.037 291.946,160 294.054,159.509 296.162,160 298.27,160 300.378,160 302.486,160 304.595,151.656 306.703,155.583 308.811,156.074 310.919,157.546 313.027,150.675 315.135,160 317.243,158.037 319.351,156.564 321.459,158.037 323.568,156.074 325.676,160 327.784,154.11 329.892,160 332,159.509 334.108,160 336.216,160 338.324,157.546 340.432,160 342.541,160 344.649,160 346.757,160 348.865,160 350.973,160 353.081,160 355.189,160 357.297,160 359.405,160 361.514,160 363.622,160 365.73,160 367.838,160 369.946,160 372.054,160 374.162,154.601 376.27,158.037 378.378,160 380.486,160 382.595,160 384.703,160 386.811,160 388.919,160 391.027,160 393.135,160 395.243,160 397.351,160 399.459,160 401.568,160 403.676,160 405.784,160 407.892,160 410,160 412.108,160 414.216,160 416.324,160 418.432,160 420.541,160 422.649,157.055 424.757,160 426.865,160 428.973,160 431.081,160 433.189,155.092 435.297,160 437.405,160 439.514,160 441.622,160 443.73,137.423 445.838,153.62 447.946,80 450.054,155.092 452.162,149.202 454.27,155.092 456.378,158.037 458.486,158.528 460.595,159.509 462.703,156.074 464.811,160 466.919,159.018 469.027,160 471.135,159.509 473.243,159.018 475.351,159.509 477.459,160 479.568,158.528 481.676,160 483.784,159.018 485.892,159.018 488,157.546 490.108,157.055 492.216,160 494.324,160 496.432,159.509 498.541,159.509 500.649,158.528 502.757,159.509 504.865,157.055 506.973,157.055 509.081,159.018 511.189,158.528 513.297,147.239 515.405,157.055 517.514,129.08 519.622,147.239 521.73,153.129 523.838,160 525.946,160 528.054,160 530.162,151.656 532.27,158.528 534.378,160 536.486,160 538.595,138.405 540.703,158.528 542.811,160 544.919,160 547.027,160 549.135,160 551.243,160 553.351,160 555.459,160 557.568,160 559.676,160 561.784,160 563.892,160 566,160 568.108,160 570.216,160 572.324,160 574.432,159.509 576.541,160 578.649,160 580.757,160 582.865,160 584.973,160 587.081,160 589.189,160 591.297,160 593.405,160 595.514,159.509 597.622,158.037 599.73,160 601.838,160 603.946,160 606.054,160 608.162,160 610.27,160 612.378,160 614.486,160 616.595,160 618.703,160 620.811,160 622.919,159.509 625.027,158.037 627.135,157.055 629.243,160 631.351,160 633.459,160 635.568,156.564 637.676,157.546 639.784,147.239 641.892,160 644,160 646.108,160 648.216,155.092 650.324,148.221 652.432,160 654.541,160 656.649,158.037 658.757,160 660.865,158.037 662.973,160 665.081,160 667.189,160 669.297,160 671.405,160 673.514,160 675.622,159.018 677.73,144.294 679.838,159.018 681.946,160 684.054,139.387 686.162,121.718 688.27,120.736 690.378,147.73 692.486,146.258 694.595,157.055 696.703,160 698.811,160 700.919,160 703.027,160 705.135,160 707.243,160 709.351,160 711.459,160 713.568,157.546 715.676,153.62 717.784,148.712 719.892,160 722,149.202 724.108,149.693 726.216,134.969 728.324,146.258 730.432,145.767 732.541,146.258 734.649,150.184 736.757,154.11 738.865,154.601 740.973,154.11 743.081,157.055 745.189,156.564 747.297,159.509 749.405,160 751.514,160 753.622,160 755.73,160 757.838,160 759.946,160 762.054,160 764.162,160 766.27,158.528 768.378,159.509 770.486,160 772.595,160 774.703,159.509 776.811,142.331 778.919,144.785 781.027,157.055 783.135,158.528 785.243,160 787.351,160 789.459,159.509 791.568,160 793.676,160 795.784,159.018 797.892,153.62 800,160 800,160" fill="var(--pill)" opacity="0.6"/>
  <polyline points="20,160 22.1081,160 24.2162,160 26.3243,160 28.4324,160 30.5405,160 32.6486,160 34.7568,160 36.8649,157.055 38.973,158.037 41.0811,160 43.1892,160 45.2973,160 47.4054,160 49.5135,160 51.6216,160 53.7297,160 55.8378,160 57.9459,160 60.0541,160 62.1622,153.62 64.2703,160 66.3784,160 68.4865,160 70.5946,154.11 72.7027,157.055 74.8108,160 76.9189,160 79.027,160 81.1351,160 83.2432,160 85.3514,160 87.4595,159.018 89.5676,160 91.6757,160 93.7838,160 95.8919,160 98,160 100.108,160 102.216,160 104.324,160 106.432,160 108.541,160 110.649,160 112.757,160 114.865,160 116.973,160 119.081,160 121.189,160 123.297,160 125.405,160 127.514,160 129.622,160 131.73,160 133.838,160 135.946,160 138.054,160 140.162,160 142.27,160 144.378,160 146.486,160 148.595,160 150.703,160 152.811,160 154.919,160 157.027,160 159.135,160 161.243,159.509 163.351,160 165.459,160 167.568,160 169.676,160 171.784,160 173.892,160 176,160 178.108,160 180.216,160 182.324,160 184.432,160 186.541,160 188.649,160 190.757,160 192.865,160 194.973,160 197.081,160 199.189,160 201.297,160 203.405,160 205.514,160 207.622,160 209.73,160 211.838,160 213.946,160 216.054,159.018 218.162,160 220.27,160 222.378,160 224.486,145.276 226.595,155.583 228.703,157.546 230.811,155.583 232.919,157.055 235.027,156.074 237.135,160 239.243,160 241.351,160 243.459,158.037 245.568,159.018 247.676,158.037 249.784,156.564 251.892,160 254,158.528 256.108,156.564 258.216,160 260.324,154.11 262.432,149.202 264.541,149.202 266.649,153.62 268.757,141.84 270.865,154.601 272.973,160 275.081,154.601 277.189,160 279.297,160 281.405,157.546 283.514,148.221 285.622,159.018 287.73,160 289.838,158.037 291.946,160 294.054,159.509 296.162,160 298.27,160 300.378,160 302.486,160 304.595,151.656 306.703,155.583 308.811,156.074 310.919,157.546 313.027,150.675 315.135,160 317.243,158.037 319.351,156.564 321.459,158.037 323.568,156.074 325.676,160 327.784,154.11 329.892,160 332,159.509 334.108,160 336.216,160 338.324,157.546 340.432,160 342.541,160 344.649,160 346.757,160 348.865,160 350.973,160 353.081,160 355.189,160 357.297,160 359.405,160 361.514,160 363.622,160 365.73,160 367.838,160 369.946,160 372.054,160 374.162,154.601 376.27,158.037 378.378,160 380.486,160 382.595,160 384.703,160 386.811,160 388.919,160 391.027,160 393.135,160 395.243,160 397.351,160 399.459,160 401.568,160 403.676,160 405.784,160 407.892,160 410,160 412.108,160 414.216,160 416.324,160 418.432,160 420.541,160 422.649,157.055 424.757,160 426.865,160 428.973,160 431.081,160 433.189,155.092 435.297,160 437.405,160 439.514,160 441.622,160 443.73,137.423 445.838,153.62 447.946,80 450.054,155.092 452.162,149.202 454.27,155.092 456.378,158.037 458.486,158.528 460.595,159.509 462.703,156.074 464.811,160 466.919,159.018 469.027,160 471.135,159.509 473.243,159.018 475.351,159.509 477.459,160 479.568,158.528 481.676,160 483.784,159.018 485.892,159.018 488,157.546 490.108,157.055 492.216,160 494.324,160 496.432,159.509 498.541,159.509 500.649,158.528 502.757,159.509 504.865,157.055 506.973,157.055 509.081,159.018 511.189,158.528 513.297,147.239 515.405,157.055 517.514,129.08 519.622,147.239 521.73,153.129 523.838,160 525.946,160 528.054,160 530.162,151.656 532.27,158.528 534.378,160 536.486,160 538.595,138.405 540.703,158.528 542.811,160 544.919,160 547.027,160 549.135,160 551.243,160 553.351,160 555.459,160 557.568,160 559.676,160 561.784,160 563.892,160 566,160 568.108,160 570.216,160 572.324,160 574.432,159.509 576.541,160 578.649,160 580.757,160 582.865,160 584.973,160 587.081,160 589.189,160 591.297,160 593.405,160 595.514,159.509 597.622,158.037 599.73,160 601.838,160 603.946,160 606.054,160 608.162,160 610.27,160 612.378,160 614.486,160 616.595,160 618.703,160 620.811,160 622.919,159.509 625.027,158.037 627.135,157.055 629.243,160 631.351,160 633.459,160 635.568,156.564 637.676,157.546 639.784,147.239 641.892,160 644,160 646.108,160 648.216,155.092 650.324,148.221 652.432,160 654.541,160 656.649,158.037 658.757,160 660.865,158.037 662.973,160 665.081,160 667.189,160 669.297,160 671.405,160 673.514,160 675.622,159.018 677.73,144.294 679.838,159.018 681.946,160 684.054,139.387 686.162,121.718 688.27,120.736 690.378,147.73 692.486,146.258 694.595,157.055 696.703,160 698.811,160 700.919,160 703.027,160 705.135,160 707.243,160 709.351,160 711.459,160 713.568,157.546 715.676,153.62 717.784,148.712 719.892,160 722,149.202 724.108,149.693 726.216,134.969 728.324,146.258 730.432,145.767 732.541,146.258 734.649,150.184 736.757,154.11 738.865,154.601 740.973,154.11 743.081,157.055 745.189,156.564 747.297,159.509 749.405,160 751.514,160 753.622,160 755.73,160 757.838,160 759.946,160 762.054,160 764.162,160 766.27,158.528 768.378,159.509 770.486,160 772.595,160 774.703,159.509 776.811,142.331 778.919,144.785 781.027,157.055 783.135,158.528 785.243,160 787.351,160 789.459,159.509 791.568,160 793.676,160 795.784,159.018 797.892,153.62 800,160" fill="none" stroke="var(--accent)" stroke-width="1.5" stroke-linecap="round" stroke-linejoin="round"/>
</svg>

