<svg xmlns="http://www.w3.org/2000/svg" width="820" height="180" viewBox="0 0 820 180">

<style>
  :root {
    --bg:        #f6f8fa;
    --card:      #ffffff;
    --border:    #d0d7de;
    --primary:   #1f2328;
    --secondary: #636c76;
    --muted:     #8c959f;
    --accent:    #0969da;
    --green:     #1a7f37;
    --yellow:    #9a6700;
    --red:       #cf222e;
    --hover:     #f3f4f6;
    --spark-bg:  #f0f3f6;
    --spark:     #0969da;
    --pill:      #eaf1fb;
    --pill-txt:  #0969da;
    --div:       #d0d7de;
  }
  @media (prefers-color-scheme: dark) {
    :root {
      --bg:        #0d1117;
      --card:      #161b22;
      --border:    #30363d;
      --primary:   #e6edf3;
      --secondary: #848d97;
      --muted:     #7d8590;
      --accent:    #2f81f7;
      --green:     #3fb950;
      --yellow:    #d29922;
      --red:       #f85149;
      --hover:     #21262d;
      --spark-bg:  #1c2128;
      --spark:     #58a6ff;
      --pill:      #1c2d3f;
      --pill-txt:  #58a6ff;
      --div:       #30363d;
    }
  }
  
  .bg          { fill: var(--bg); }
  .card        { fill: var(--card); stroke: var(--border); stroke-width: 1; }
  .lang-pill   { fill: var(--pill); }
  .spark-bg    { fill: var(--spark-bg); }
  .spark-line  { stroke: var(--spark); }
  .divider     { stroke: var(--div); stroke-width: 1; }
  .clr-primary   { fill: var(--primary); }
  .clr-secondary { fill: var(--secondary); }
  .clr-muted     { fill: var(--muted); }
  .clr-accent    { fill: var(--accent); }
  .clr-green     { fill: var(--green); }
  .clr-yellow    { fill: var(--yellow); }
  .clr-red       { fill: var(--red); }
  .txt-bold    { font-weight: 600; }
  svg text     { font-family: -apple-system, BlinkMacSystemFont, "Segoe UI", Helvetica, Arial, sans-serif; }
</style>

<rect x="0" y="0" width="820" height="180" rx="8" class="card"/>
  <text x="20" y="24" class="clr-primary txt-bold" text-anchor="start" font-size="14">Contribution History &amp; Activity</text>
  <line x1="20" y1="36" x2="800" y2="36" class="divider"/>
  <text x="20" y="60" class="clr-muted" text-anchor="start" font-size="12">Years Active:</text>
  <text x="100" y="60" class="clr-primary txt-bold" text-anchor="start" font-size="12">5.7</text>
  <text x="160" y="60" class="clr-muted" text-anchor="start" font-size="12">Commits (Last Year):</text>
  <text x="290" y="60" class="clr-primary txt-bold" text-anchor="start" font-size="12">1192</text>
  <text x="360" y="60" class="clr-muted" text-anchor="start" font-size="12">Highest Daily:</text>
  <text x="450" y="60" class="clr-primary txt-bold" text-anchor="start" font-size="12">163</text>
  <polygon points="20,160 20,160 22.1138,160 24.2276,160 26.3415,160 28.4553,159.509 30.5691,160 32.6829,160 34.7967,160 36.9106,160 39.0244,160 41.1382,160 43.252,160 45.3659,160 47.4797,160 49.5935,160 51.7073,160 53.8211,160 55.935,160 58.0488,160 60.1626,160 62.2764,160 64.3902,160 66.5041,160 68.6179,160 70.7317,160 72.8455,160 74.9593,160 77.0732,160 79.187,160 81.3008,160 83.4146,159.018 85.5285,160 87.6423,160 89.7561,160 91.8699,145.276 93.9837,155.583 96.0976,157.546 98.2114,155.583 100.325,157.055 102.439,156.074 104.553,160 106.667,160 108.78,160 110.894,158.037 113.008,159.018 115.122,158.037 117.236,156.564 119.35,160 121.463,158.528 123.577,156.564 125.691,160 127.805,154.11 129.919,149.202 132.033,149.202 134.146,153.62 136.26,141.84 138.374,154.601 140.488,160 142.602,154.601 144.715,160 146.829,160 148.943,157.546 151.057,148.221 153.171,159.018 155.285,160 157.398,158.037 159.512,160 161.626,159.509 163.74,160 165.854,160 167.967,160 170.081,160 172.195,151.656 174.309,155.583 176.423,156.074 178.537,157.546 180.65,150.675 182.764,160 184.878,158.037 186.992,156.564 189.106,158.037 191.22,156.074 193.333,160 195.447,154.11 197.561,160 199.675,159.509 201.789,160 203.902,160 206.016,157.546 208.13,160 210.244,160 212.358,160 214.472,160 216.585,160 218.699,160 220.813,160 222.927,160 225.041,160 227.154,160 229.268,160 231.382,160 233.496,160 235.61,160 237.724,160 239.837,160 241.951,154.601 244.065,158.037 246.179,160 248.293,160 250.407,160 252.52,160 254.634,160 256.748,160 258.862,160 260.976,160 263.089,160 265.203,160 267.317,160 269.431,160 271.545,160 273.659,160 275.772,160 277.886,160 280,160 282.114,160 284.228,160 286.341,160 288.455,160 290.569,157.055 292.683,160 294.797,160 296.911,160 299.024,160 301.138,155.092 303.252,160 305.366,160 307.48,160 309.593,160 311.707,137.423 313.821,153.62 315.935,80 318.049,155.092 320.163,149.202 322.276,155.092 324.39,158.037 326.504,158.528 328.618,159.509 330.732,156.074 332.846,160 334.959,159.018 337.073,160 339.187,159.509 341.301,159.018 343.415,159.509 345.528,160 347.642,158.528 349.756,160 351.87,159.018 353.984,159.018 356.098,157.546 358.211,157.055 360.325,160 362.439,160 364.553,159.509 366.667,159.509 368.78,158.528 370.894,159.509 373.008,157.055 375.122,157.055 377.236,159.018 379.35,158.528 381.463,147.239 383.577,157.055 385.691,129.08 387.805,147.239 389.919,153.129 392.033,160 394.146,160 396.26,160 398.374,151.656 400.488,158.528 402.602,160 404.715,160 406.829,138.405 408.943,158.528 411.057,160 413.171,160 415.285,160 417.398,160 419.512,160 421.626,160 423.74,160 425.854,160 427.967,160 430.081,160 432.195,160 434.309,160 436.423,160 438.537,160 440.65,160 442.764,159.509 444.878,160 446.992,160 449.106,160 451.22,160 453.333,160 455.447,160 457.561,160 459.675,160 461.789,160 463.902,159.509 466.016,158.037 468.13,160 470.244,160 472.358,160 474.472,160 476.585,160 478.699,160 480.813,160 482.927,160 485.041,160 487.154,160 489.268,160 491.382,159.509 493.496,158.037 495.61,157.055 497.724,160 499.837,160 501.951,160 504.065,156.564 506.179,157.546 508.293,147.239 510.407,160 512.52,160 514.634,160 516.748,155.092 518.862,148.221 520.976,160 523.089,160 525.203,158.037 527.317,160 529.431,158.037 531.545,160 533.659,160 535.772,160 537.886,160 540,160 542.114,160 544.228,159.018 546.341,144.294 548.455,159.018 550.569,160 552.683,139.387 554.797,121.718 556.911,120.736 559.024,147.73 561.138,146.258 563.252,157.055 565.366,160 567.48,160 569.593,160 571.707,160 573.821,160 575.935,160 578.049,160 580.163,160 582.276,157.546 584.39,153.62 586.504,148.712 588.618,160 590.732,149.202 592.846,149.693 594.959,134.969 597.073,146.258 599.187,145.767 601.301,146.258 603.415,150.184 605.528,154.11 607.642,154.601 609.756,154.11 611.87,157.055 613.984,156.564 616.098,159.509 618.211,160 620.325,160 622.439,160 624.553,160 626.667,160 628.78,160 630.894,160 633.008,160 635.122,158.528 637.236,159.509 639.35,160 641.463,160 643.577,159.509 645.691,142.331 647.805,144.785 649.919,157.055 652.033,158.528 654.146,160 656.26,160 658.374,159.509 660.488,160 662.602,160 664.715,159.018 666.829,153.62 668.943,159.018 671.057,160 673.171,160 675.285,149.693 677.398,155.583 679.512,158.528 681.626,156.074 683.74,155.583 685.854,159.509 687.967,159.509 690.081,160 692.195,160 694.309,151.656 696.423,140.859 698.537,155.092 700.65,160 702.764,141.84 704.878,150.184 706.992,152.147 709.106,160 711.22,160 713.333,160 715.447,160 717.561,160 719.675,160 721.789,160 723.902,160 726.016,160 728.13,160 730.244,160 732.358,160 734.472,158.037 736.585,160 738.699,160 740.813,160 742.927,160 745.041,160 747.154,160 749.268,160 751.382,160 753.496,160 755.61,160 757.724,160 759.837,160 761.951,160 764.065,160 766.179,156.564 768.293,154.601 770.407,160 772.52,160 774.634,160 776.748,160 778.862,159.509 780.976,160 783.089,160 785.203,159.509 787.317,159.509 789.431,160 791.545,159.509 793.659,160 795.772,160 797.886,159.509 800,160 800,160" fill="var(--pill)" opacity="0.6"/>
  <polyline points="20,160 22.1138,160 24.2276,160 26.3415,160 28.4553,159.509 30.5691,160 32.6829,160 34.7967,160 36.9106,160 39.0244,160 41.1382,160 43.252,160 45.3659,160 47.4797,160 49.5935,160 51.7073,160 53.8211,160 55.935,160 58.0488,160 60.1626,160 62.2764,160 64.3902,160 66.5041,160 68.6179,160 70.7317,160 72.8455,160 74.9593,160 77.0732,160 79.187,160 81.3008,160 83.4146,159.018 85.5285,160 87.6423,160 89.7561,160 91.8699,145.276 93.9837,155.583 96.0976,157.546 98.2114,155.583 100.325,157.055 102.439,156.074 104.553,160 106.667,160 108.78,160 110.894,158.037 113.008,159.018 115.122,158.037 117.236,156.564 119.35,160 121.463,158.528 123.577,156.564 125.691,160 127.805,154.11 129.919,149.202 132.033,149.202 134.146,153.62 136.26,141.84 138.374,154.601 140.488,160 142.602,154.601 144.715,160 146.829,160 148.943,157.546 151.057,148.221 153.171,159.018 155.285,160 157.398,158.037 159.512,160 161.626,159.509 163.74,160 165.854,160 167.967,160 170.081,160 172.195,151.656 174.309,155.583 176.423,156.074 178.537,157.546 180.65,150.675 182.764,160 184.878,158.037 186.992,156.564 189.106,158.037 191.22,156.074 193.333,160 195.447,154.11 197.561,160 199.675,159.509 201.789,160 203.902,160 206.016,157.546 208.13,160 210.244,160 212.358,160 214.472,160 216.585,160 218.699,160 220.813,160 222.927,160 225.041,160 227.154,160 229.268,160 231.382,160 233.496,160 235.61,160 237.724,160 239.837,160 241.951,154.601 244.065,158.037 246.179,160 248.293,160 250.407,160 252.52,160 254.634,160 256.748,160 258.862,160 260.976,160 263.089,160 265.203,160 267.317,160 269.431,160 271.545,160 273.659,160 275.772,160 277.886,160 280,160 282.114,160 284.228,160 286.341,160 288.455,160 290.569,157.055 292.683,160 294.797,160 296.911,160 299.024,160 301.138,155.092 303.252,160 305.366,160 307.48,160 309.593,160 311.707,137.423 313.821,153.62 315.935,80 318.049,155.092 320.163,149.202 322.276,155.092 324.39,158.037 326.504,158.528 328.618,159.509 330.732,156.074 332.846,160 334.959,159.018 337.073,160 339.187,159.509 341.301,159.018 343.415,159.509 345.528,160 347.642,158.528 349.756,160 351.87,159.018 353.984,159.018 356.098,157.546 358.211,157.055 360.325,160 362.439,160 364.553,159.509 366.667,159.509 368.78,158.528 370.894,159.509 373.008,157.055 375.122,157.055 377.236,159.018 379.35,158.528 381.463,147.239 383.577,157.055 385.691,129.08 387.805,147.239 389.919,153.129 392.033,160 394.146,160 396.26,160 398.374,151.656 400.488,158.528 402.602,160 404.715,160 406.829,138.405 408.943,158.528 411.057,160 413.171,160 415.285,160 417.398,160 419.512,160 421.626,160 423.74,160 425.854,160 427.967,160 430.081,160 432.195,160 434.309,160 436.423,160 438.537,160 440.65,160 442.764,159.509 444.878,160 446.992,160 449.106,160 451.22,160 453.333,160 455.447,160 457.561,160 459.675,160 461.789,160 463.902,159.509 466.016,158.037 468.13,160 470.244,160 472.358,160 474.472,160 476.585,160 478.699,160 480.813,160 482.927,160 485.041,160 487.154,160 489.268,160 491.382,159.509 493.496,158.037 495.61,157.055 497.724,160 499.837,160 501.951,160 504.065,156.564 506.179,157.546 508.293,147.239 510.407,160 512.52,160 514.634,160 516.748,155.092 518.862,148.221 520.976,160 523.089,160 525.203,158.037 527.317,160 529.431,158.037 531.545,160 533.659,160 535.772,160 537.886,160 540,160 542.114,160 544.228,159.018 546.341,144.294 548.455,159.018 550.569,160 552.683,139.387 554.797,121.718 556.911,120.736 559.024,147.73 561.138,146.258 563.252,157.055 565.366,160 567.48,160 569.593,160 571.707,160 573.821,160 575.935,160 578.049,160 580.163,160 582.276,157.546 584.39,153.62 586.504,148.712 588.618,160 590.732,149.202 592.846,149.693 594.959,134.969 597.073,146.258 599.187,145.767 601.301,146.258 603.415,150.184 605.528,154.11 607.642,154.601 609.756,154.11 611.87,157.055 613.984,156.564 616.098,159.509 618.211,160 620.325,160 622.439,160 624.553,160 626.667,160 628.78,160 630.894,160 633.008,160 635.122,158.528 637.236,159.509 639.35,160 641.463,160 643.577,159.509 645.691,142.331 647.805,144.785 649.919,157.055 652.033,158.528 654.146,160 656.26,160 658.374,159.509 660.488,160 662.602,160 664.715,159.018 666.829,153.62 668.943,159.018 671.057,160 673.171,160 675.285,149.693 677.398,155.583 679.512,158.528 681.626,156.074 683.74,155.583 685.854,159.509 687.967,159.509 690.081,160 692.195,160 694.309,151.656 696.423,140.859 698.537,155.092 700.65,160 702.764,141.84 704.878,150.184 706.992,152.147 709.106,160 711.22,160 713.333,160 715.447,160 717.561,160 719.675,160 721.789,160 723.902,160 726.016,160 728.13,160 730.244,160 732.358,160 734.472,158.037 736.585,160 738.699,160 740.813,160 742.927,160 745.041,160 747.154,160 749.268,160 751.382,160 753.496,160 755.61,160 757.724,160 759.837,160 761.951,160 764.065,160 766.179,156.564 768.293,154.601 770.407,160 772.52,160 774.634,160 776.748,160 778.862,159.509 780.976,160 783.089,160 785.203,159.509 787.317,159.509 789.431,160 791.545,159.509 793.659,160 795.772,160 797.886,159.509 800,160" fill="none" stroke="var(--accent)" stroke-width="1.5" stroke-linecap="round" stroke-linejoin="round"/>
</svg>

