<svg xmlns="http://www.w3.org/2000/svg" width="820" height="180" viewBox="0 0 820 180">

<style>
  :root {
    --bg:        #f6f8fa;
    --card:      #ffffff;
    --border:    #d0d7de;
    --primary:   #1f2328;
    --secondary: #636c76;
    --muted:     #8c959f;
    --accent:    #0969da;
    --green:     #1a7f37;
    --yellow:    #9a6700;
    --red:       #cf222e;
    --hover:     #f3f4f6;
    --spark-bg:  #f0f3f6;
    --spark:     #0969da;
    --pill:      #eaf1fb;
    --pill-txt:  #0969da;
    --div:       #d0d7de;
  }
  @media (prefers-color-scheme: dark) {
    :root {
      --bg:        #0d1117;
      --card:      #161b22;
      --border:    #30363d;
      --primary:   #e6edf3;
      --secondary: #848d97;
      --muted:     #7d8590;
      --accent:    #2f81f7;
      --green:     #3fb950;
      --yellow:    #d29922;
      --red:       #f85149;
      --hover:     #21262d;
      --spark-bg:  #1c2128;
      --spark:     #58a6ff;
      --pill:      #1c2d3f;
      --pill-txt:  #58a6ff;
      --div:       #30363d;
    }
  }
  
  .bg          { fill: var(--bg); }
  .card        { fill: var(--card); stroke: var(--border); stroke-width: 1; }
  .lang-pill   { fill: var(--pill); }
  .spark-bg    { fill: var(--spark-bg); }
  .spark-line  { stroke: var(--spark); }
  .divider     { stroke: var(--div); stroke-width: 1; }
  .clr-primary   { fill: var(--primary); }
  .clr-secondary { fill: var(--secondary); }
  .clr-muted     { fill: var(--muted); }
  .clr-accent    { fill: var(--accent); }
  .clr-green     { fill: var(--green); }
  .clr-yellow    { fill: var(--yellow); }
  .clr-red       { fill: var(--red); }
  .txt-bold    { font-weight: 600; }
  svg text     { font-family: -apple-system, BlinkMacSystemFont, "Segoe UI", Helvetica, Arial, sans-serif; }
</style>

<rect x="0" y="0" width="820" height="180" rx="8" class="card"/>
  <text x="20" y="24" class="clr-primary txt-bold" text-anchor="start" font-size="14">Contribution History &amp; Activity</text>
  <line x1="20" y1="36" x2="800" y2="36" class="divider"/>
  <text x="20" y="60" class="clr-muted" text-anchor="start" font-size="12">Years Active:</text>
  <text x="100" y="60" class="clr-primary txt-bold" text-anchor="start" font-size="12">5.6</text>
  <text x="160" y="60" class="clr-muted" text-anchor="start" font-size="12">Commits (Last Year):</text>
  <text x="290" y="60" class="clr-primary txt-bold" text-anchor="start" font-size="12">1170</text>
  <text x="360" y="60" class="clr-muted" text-anchor="start" font-size="12">Highest Daily:</text>
  <text x="450" y="60" class="clr-primary txt-bold" text-anchor="start" font-size="12">163</text>
  <polygon points="20,160 20,160 22.1081,160 24.2162,160 26.3243,160 28.4324,159.018 30.5405,160 32.6486,160 34.7568,160 36.8649,160 38.973,160 41.0811,160 43.1892,160 45.2973,160 47.4054,160 49.5135,160 51.6216,160 53.7297,160 55.8378,160 57.9459,160 60.0541,160 62.1622,160 64.2703,160 66.3784,160 68.4865,160 70.5946,160 72.7027,160 74.8108,160 76.9189,160 79.027,160 81.1351,160 83.2432,160 85.3514,160 87.4595,160 89.5676,160 91.6757,160 93.7838,160 95.8919,160 98,160 100.108,160 102.216,159.509 104.324,160 106.432,160 108.541,160 110.649,160 112.757,160 114.865,160 116.973,160 119.081,160 121.189,160 123.297,160 125.405,160 127.514,160 129.622,160 131.73,160 133.838,160 135.946,160 138.054,160 140.162,160 142.27,160 144.378,160 146.486,160 148.595,160 150.703,160 152.811,160 154.919,160 157.027,159.018 159.135,160 161.243,160 163.351,160 165.459,145.276 167.568,155.583 169.676,157.546 171.784,155.583 173.892,157.055 176,156.074 178.108,160 180.216,160 182.324,160 184.432,158.037 186.541,159.018 188.649,158.037 190.757,156.564 192.865,160 194.973,158.528 197.081,156.564 199.189,160 201.297,154.11 203.405,149.202 205.514,149.202 207.622,153.62 209.73,141.84 211.838,154.601 213.946,160 216.054,154.601 218.162,160 220.27,160 222.378,157.546 224.486,148.221 226.595,159.018 228.703,160 230.811,158.037 232.919,160 235.027,159.509 237.135,160 239.243,160 241.351,160 243.459,160 245.568,151.656 247.676,155.583 249.784,156.074 251.892,157.546 254,150.675 256.108,160 258.216,158.037 260.324,156.564 262.432,158.037 264.541,156.074 266.649,160 268.757,154.11 270.865,160 272.973,159.509 275.081,160 277.189,160 279.297,157.546 281.405,160 283.514,160 285.622,160 287.73,160 289.838,160 291.946,160 294.054,160 296.162,160 298.27,160 300.378,160 302.486,160 304.595,160 306.703,160 308.811,160 310.919,160 313.027,160 315.135,154.601 317.243,158.037 319.351,160 321.459,160 323.568,160 325.676,160 327.784,160 329.892,160 332,160 334.108,160 336.216,160 338.324,160 340.432,160 342.541,160 344.649,160 346.757,160 348.865,160 350.973,160 353.081,160 355.189,160 357.297,160 359.405,160 361.514,160 363.622,157.055 365.73,160 367.838,160 369.946,160 372.054,160 374.162,155.092 376.27,160 378.378,160 380.486,160 382.595,160 384.703,137.423 386.811,153.62 388.919,80 391.027,155.092 393.135,149.202 395.243,155.092 397.351,158.037 399.459,158.528 401.568,159.509 403.676,156.074 405.784,160 407.892,159.018 410,160 412.108,159.509 414.216,159.018 416.324,159.509 418.432,160 420.541,158.528 422.649,160 424.757,159.018 426.865,159.018 428.973,157.546 431.081,157.055 433.189,160 435.297,160 437.405,159.509 439.514,159.509 441.622,158.528 443.73,159.509 445.838,157.055 447.946,157.055 450.054,159.018 452.162,158.528 454.27,147.239 456.378,157.055 458.486,129.08 460.595,147.239 462.703,153.129 464.811,160 466.919,160 469.027,160 471.135,151.656 473.243,158.528 475.351,160 477.459,160 479.568,138.405 481.676,158.528 483.784,160 485.892,160 488,160 490.108,160 492.216,160 494.324,160 496.432,160 498.541,160 500.649,160 502.757,160 504.865,160 506.973,160 509.081,160 511.189,160 513.297,160 515.405,159.509 517.514,160 519.622,160 521.73,160 523.838,160 525.946,160 528.054,160 530.162,160 532.27,160 534.378,160 536.486,159.509 538.595,158.037 540.703,160 542.811,160 544.919,160 547.027,160 549.135,160 551.243,160 553.351,160 555.459,160 557.568,160 559.676,160 561.784,160 563.892,159.509 566,158.037 568.108,157.055 570.216,160 572.324,160 574.432,160 576.541,156.564 578.649,157.546 580.757,147.239 582.865,160 584.973,160 587.081,160 589.189,155.092 591.297,148.221 593.405,160 595.514,160 597.622,158.037 599.73,160 601.838,158.037 603.946,160 606.054,160 608.162,160 610.27,160 612.378,160 614.486,160 616.595,159.018 618.703,144.294 620.811,159.018 622.919,160 625.027,139.387 627.135,121.718 629.243,120.736 631.351,147.73 633.459,146.258 635.568,157.055 637.676,160 639.784,160 641.892,160 644,160 646.108,160 648.216,160 650.324,160 652.432,160 654.541,157.546 656.649,153.62 658.757,148.712 660.865,160 662.973,149.202 665.081,149.693 667.189,134.969 669.297,146.258 671.405,145.767 673.514,146.258 675.622,150.184 677.73,154.11 679.838,154.601 681.946,154.11 684.054,157.055 686.162,156.564 688.27,159.509 690.378,160 692.486,160 694.595,160 696.703,160 698.811,160 700.919,160 703.027,160 705.135,160 707.243,158.528 709.351,159.509 711.459,160 713.568,160 715.676,159.509 717.784,142.331 719.892,144.785 722,157.055 724.108,158.528 726.216,160 728.324,160 730.432,159.509 732.541,160 734.649,160 736.757,159.018 738.865,153.62 740.973,159.018 743.081,160 745.189,160 747.297,149.693 749.405,155.583 751.514,158.528 753.622,156.074 755.73,155.583 757.838,159.509 759.946,159.509 762.054,160 764.162,160 766.27,151.656 768.378,140.859 770.486,155.092 772.595,160 774.703,141.84 776.811,150.184 778.919,152.147 781.027,160 783.135,160 785.243,160 787.351,160 789.459,160 791.568,160 793.676,160 795.784,160 797.892,160 800,160 800,160" fill="var(--pill)" opacity="0.6"/>
  <polyline points="20,160 22.1081,160 24.2162,160 26.3243,160 28.4324,159.018 30.5405,160 32.6486,160 34.7568,160 36.8649,160 38.973,160 41.0811,160 43.1892,160 45.2973,160 47.4054,160 49.5135,160 51.6216,160 53.7297,160 55.8378,160 57.9459,160 60.0541,160 62.1622,160 64.2703,160 66.3784,160 68.4865,160 70.5946,160 72.7027,160 74.8108,160 76.9189,160 79.027,160 81.1351,160 83.2432,160 85.3514,160 87.4595,160 89.5676,160 91.6757,160 93.7838,160 95.8919,160 98,160 100.108,160 102.216,159.509 104.324,160 106.432,160 108.541,160 110.649,160 112.757,160 114.865,160 116.973,160 119.081,160 121.189,160 123.297,160 125.405,160 127.514,160 129.622,160 131.73,160 133.838,160 135.946,160 138.054,160 140.162,160 142.27,160 144.378,160 146.486,160 148.595,160 150.703,160 152.811,160 154.919,160 157.027,159.018 159.135,160 161.243,160 163.351,160 165.459,145.276 167.568,155.583 169.676,157.546 171.784,155.583 173.892,157.055 176,156.074 178.108,160 180.216,160 182.324,160 184.432,158.037 186.541,159.018 188.649,158.037 190.757,156.564 192.865,160 194.973,158.528 197.081,156.564 199.189,160 201.297,154.11 203.405,149.202 205.514,149.202 207.622,153.62 209.73,141.84 211.838,154.601 213.946,160 216.054,154.601 218.162,160 220.27,160 222.378,157.546 224.486,148.221 226.595,159.018 228.703,160 230.811,158.037 232.919,160 235.027,159.509 237.135,160 239.243,160 241.351,160 243.459,160 245.568,151.656 247.676,155.583 249.784,156.074 251.892,157.546 254,150.675 256.108,160 258.216,158.037 260.324,156.564 262.432,158.037 264.541,156.074 266.649,160 268.757,154.11 270.865,160 272.973,159.509 275.081,160 277.189,160 279.297,157.546 281.405,160 283.514,160 285.622,160 287.73,160 289.838,160 291.946,160 294.054,160 296.162,160 298.27,160 300.378,160 302.486,160 304.595,160 306.703,160 308.811,160 310.919,160 313.027,160 315.135,154.601 317.243,158.037 319.351,160 321.459,160 323.568,160 325.676,160 327.784,160 329.892,160 332,160 334.108,160 336.216,160 338.324,160 340.432,160 342.541,160 344.649,160 346.757,160 348.865,160 350.973,160 353.081,160 355.189,160 357.297,160 359.405,160 361.514,160 363.622,157.055 365.73,160 367.838,160 369.946,160 372.054,160 374.162,155.092 376.27,160 378.378,160 380.486,160 382.595,160 384.703,137.423 386.811,153.62 388.919,80 391.027,155.092 393.135,149.202 395.243,155.092 397.351,158.037 399.459,158.528 401.568,159.509 403.676,156.074 405.784,160 407.892,159.018 410,160 412.108,159.509 414.216,159.018 416.324,159.509 418.432,160 420.541,158.528 422.649,160 424.757,159.018 426.865,159.018 428.973,157.546 431.081,157.055 433.189,160 435.297,160 437.405,159.509 439.514,159.509 441.622,158.528 443.73,159.509 445.838,157.055 447.946,157.055 450.054,159.018 452.162,158.528 454.27,147.239 456.378,157.055 458.486,129.08 460.595,147.239 462.703,153.129 464.811,160 466.919,160 469.027,160 471.135,151.656 473.243,158.528 475.351,160 477.459,160 479.568,138.405 481.676,158.528 483.784,160 485.892,160 488,160 490.108,160 492.216,160 494.324,160 496.432,160 498.541,160 500.649,160 502.757,160 504.865,160 506.973,160 509.081,160 511.189,160 513.297,160 515.405,159.509 517.514,160 519.622,160 521.73,160 523.838,160 525.946,160 528.054,160 530.162,160 532.27,160 534.378,160 536.486,159.509 538.595,158.037 540.703,160 542.811,160 544.919,160 547.027,160 549.135,160 551.243,160 553.351,160 555.459,160 557.568,160 559.676,160 561.784,160 563.892,159.509 566,158.037 568.108,157.055 570.216,160 572.324,160 574.432,160 576.541,156.564 578.649,157.546 580.757,147.239 582.865,160 584.973,160 587.081,160 589.189,155.092 591.297,148.221 593.405,160 595.514,160 597.622,158.037 599.73,160 601.838,158.037 603.946,160 606.054,160 608.162,160 610.27,160 612.378,160 614.486,160 616.595,159.018 618.703,144.294 620.811,159.018 622.919,160 625.027,139.387 627.135,121.718 629.243,120.736 631.351,147.73 633.459,146.258 635.568,157.055 637.676,160 639.784,160 641.892,160 644,160 646.108,160 648.216,160 650.324,160 652.432,160 654.541,157.546 656.649,153.62 658.757,148.712 660.865,160 662.973,149.202 665.081,149.693 667.189,134.969 669.297,146.258 671.405,145.767 673.514,146.258 675.622,150.184 677.73,154.11 679.838,154.601 681.946,154.11 684.054,157.055 686.162,156.564 688.27,159.509 690.378,160 692.486,160 694.595,160 696.703,160 698.811,160 700.919,160 703.027,160 705.135,160 707.243,158.528 709.351,159.509 711.459,160 713.568,160 715.676,159.509 717.784,142.331 719.892,144.785 722,157.055 724.108,158.528 726.216,160 728.324,160 730.432,159.509 732.541,160 734.649,160 736.757,159.018 738.865,153.62 740.973,159.018 743.081,160 745.189,160 747.297,149.693 749.405,155.583 751.514,158.528 753.622,156.074 755.73,155.583 757.838,159.509 759.946,159.509 762.054,160 764.162,160 766.27,151.656 768.378,140.859 770.486,155.092 772.595,160 774.703,141.84 776.811,150.184 778.919,152.147 781.027,160 783.135,160 785.243,160 787.351,160 789.459,160 791.568,160 793.676,160 795.784,160 797.892,160 800,160" fill="none" stroke="var(--accent)" stroke-width="1.5" stroke-linecap="round" stroke-linejoin="round"/>
</svg>

