<svg xmlns="http://www.w3.org/2000/svg" width="820" height="180" viewBox="0 0 820 180">

<style>
  :root {
    --bg:        #f6f8fa;
    --card:      #ffffff;
    --border:    #d0d7de;
    --primary:   #1f2328;
    --secondary: #636c76;
    --muted:     #8c959f;
    --accent:    #0969da;
    --green:     #1a7f37;
    --yellow:    #9a6700;
    --red:       #cf222e;
    --hover:     #f3f4f6;
    --spark-bg:  #f0f3f6;
    --spark:     #0969da;
    --pill:      #eaf1fb;
    --pill-txt:  #0969da;
    --div:       #d0d7de;
  }
  @media (prefers-color-scheme: dark) {
    :root {
      --bg:        #0d1117;
      --card:      #161b22;
      --border:    #30363d;
      --primary:   #e6edf3;
      --secondary: #848d97;
      --muted:     #7d8590;
      --accent:    #2f81f7;
      --green:     #3fb950;
      --yellow:    #d29922;
      --red:       #f85149;
      --hover:     #21262d;
      --spark-bg:  #1c2128;
      --spark:     #58a6ff;
      --pill:      #1c2d3f;
      --pill-txt:  #58a6ff;
      --div:       #30363d;
    }
  }
  
  .bg          { fill: var(--bg); }
  .card        { fill: var(--card); stroke: var(--border); stroke-width: 1; }
  .lang-pill   { fill: var(--pill); }
  .spark-bg    { fill: var(--spark-bg); }
  .spark-line  { stroke: var(--spark); }
  .divider     { stroke: var(--div); stroke-width: 1; }
  .clr-primary   { fill: var(--primary); }
  .clr-secondary { fill: var(--secondary); }
  .clr-muted     { fill: var(--muted); }
  .clr-accent    { fill: var(--accent); }
  .clr-green     { fill: var(--green); }
  .clr-yellow    { fill: var(--yellow); }
  .clr-red       { fill: var(--red); }
  .txt-bold    { font-weight: 600; }
  svg text     { font-family: -apple-system, BlinkMacSystemFont, "Segoe UI", Helvetica, Arial, sans-serif; }
</style>

<rect x="0" y="0" width="820" height="180" rx="8" class="card"/>
  <text x="20" y="24" class="clr-primary txt-bold" text-anchor="start" font-size="14">Contribution History &amp; Activity</text>
  <line x1="20" y1="36" x2="800" y2="36" class="divider"/>
  <text x="20" y="60" class="clr-muted" text-anchor="start" font-size="12">Years Active:</text>
  <text x="100" y="60" class="clr-primary txt-bold" text-anchor="start" font-size="12">5.6</text>
  <text x="160" y="60" class="clr-muted" text-anchor="start" font-size="12">Commits (Last Year):</text>
  <text x="290" y="60" class="clr-primary txt-bold" text-anchor="start" font-size="12">1117</text>
  <text x="360" y="60" class="clr-muted" text-anchor="start" font-size="12">Highest Daily:</text>
  <text x="450" y="60" class="clr-primary txt-bold" text-anchor="start" font-size="12">163</text>
  <polygon points="20,160 20,160 22.137,160 24.274,160 26.411,154.11 28.5479,157.055 30.6849,160 32.8219,160 34.9589,160 37.0959,160 39.2329,160 41.3699,160 43.5068,159.018 45.6438,160 47.7808,160 49.9178,160 52.0548,160 54.1918,160 56.3288,160 58.4658,160 60.6027,160 62.7397,160 64.8767,160 67.0137,160 69.1507,160 71.2877,160 73.4247,160 75.5616,160 77.6986,160 79.8356,160 81.9726,160 84.1096,160 86.2466,160 88.3836,160 90.5205,160 92.6575,160 94.7945,160 96.9315,160 99.0685,160 101.205,160 103.342,160 105.479,160 107.616,160 109.753,160 111.89,160 114.027,160 116.164,160 118.301,159.509 120.438,160 122.575,160 124.712,160 126.849,160 128.986,160 131.123,160 133.26,160 135.397,160 137.534,160 139.671,160 141.808,160 143.945,160 146.082,160 148.219,160 150.356,160 152.493,160 154.63,160 156.767,160 158.904,160 161.041,160 163.178,160 165.315,160 167.452,160 169.589,160 171.726,160 173.863,159.018 176,160 178.137,160 180.274,160 182.411,145.276 184.548,155.583 186.685,157.546 188.822,155.583 190.959,157.055 193.096,156.074 195.233,160 197.37,160 199.507,160 201.644,158.037 203.781,159.018 205.918,158.037 208.055,156.564 210.192,160 212.329,158.528 214.466,156.564 216.603,160 218.74,154.11 220.877,149.202 223.014,149.202 225.151,153.62 227.288,141.84 229.425,154.601 231.562,160 233.699,154.601 235.836,160 237.973,160 240.11,157.546 242.247,148.221 244.384,159.018 246.521,160 248.658,158.037 250.795,160 252.932,159.509 255.068,160 257.205,160 259.342,160 261.479,160 263.616,151.656 265.753,155.583 267.89,156.074 270.027,157.546 272.164,150.675 274.301,160 276.438,158.037 278.575,156.564 280.712,158.037 282.849,156.074 284.986,160 287.123,154.11 289.26,160 291.397,159.509 293.534,160 295.671,160 297.808,157.546 299.945,160 302.082,160 304.219,160 306.356,160 308.493,160 310.63,160 312.767,160 314.904,160 317.041,160 319.178,160 321.315,160 323.452,160 325.589,160 327.726,160 329.863,160 332,160 334.137,154.601 336.274,158.037 338.411,160 340.548,160 342.685,160 344.822,160 346.959,160 349.096,160 351.233,160 353.37,160 355.507,160 357.644,160 359.781,160 361.918,160 364.055,160 366.192,160 368.329,160 370.466,160 372.603,160 374.74,160 376.877,160 379.014,160 381.151,160 383.288,157.055 385.425,160 387.562,160 389.699,160 391.836,160 393.973,155.092 396.11,160 398.247,160 400.384,160 402.521,160 404.658,137.423 406.795,153.62 408.932,80 411.068,155.092 413.205,149.202 415.342,155.092 417.479,158.037 419.616,158.528 421.753,159.509 423.89,156.074 426.027,160 428.164,159.018 430.301,160 432.438,159.509 434.575,159.018 436.712,159.509 438.849,160 440.986,158.528 443.123,160 445.26,159.018 447.397,159.018 449.534,157.546 451.671,157.055 453.808,160 455.945,160 458.082,159.509 460.219,159.509 462.356,158.528 464.493,159.509 466.63,157.055 468.767,157.055 470.904,159.018 473.041,158.528 475.178,147.239 477.315,157.055 479.452,129.08 481.589,147.239 483.726,153.129 485.863,160 488,160 490.137,160 492.274,151.656 494.411,158.528 496.548,160 498.685,160 500.822,138.405 502.959,158.528 505.096,160 507.233,160 509.37,160 511.507,160 513.644,160 515.781,160 517.918,160 520.055,160 522.192,160 524.329,160 526.466,160 528.603,160 530.74,160 532.877,160 535.014,160 537.151,159.509 539.288,160 541.425,160 543.562,160 545.699,160 547.836,160 549.973,160 552.11,160 554.247,160 556.384,160 558.521,159.509 560.658,158.037 562.795,160 564.932,160 567.068,160 569.205,160 571.342,160 573.479,160 575.616,160 577.753,160 579.89,160 582.027,160 584.164,160 586.301,159.509 588.438,158.037 590.575,157.055 592.712,160 594.849,160 596.986,160 599.123,156.564 601.26,157.546 603.397,147.239 605.534,160 607.671,160 609.808,160 611.945,155.092 614.082,148.221 616.219,160 618.356,160 620.493,158.037 622.63,160 624.767,158.037 626.904,160 629.041,160 631.178,160 633.315,160 635.452,160 637.589,160 639.726,159.018 641.863,144.294 644,159.018 646.137,160 648.274,139.387 650.411,121.718 652.548,120.736 654.685,147.73 656.822,146.258 658.959,157.055 661.096,160 663.233,160 665.37,160 667.507,160 669.644,160 671.781,160 673.918,160 676.055,160 678.192,157.546 680.329,153.62 682.466,148.712 684.603,160 686.74,149.202 688.877,149.693 691.014,134.969 693.151,146.258 695.288,145.767 697.425,146.258 699.562,150.184 701.699,154.11 703.836,154.601 705.973,154.11 708.11,157.055 710.247,156.564 712.384,159.509 714.521,160 716.658,160 718.795,160 720.932,160 723.068,160 725.205,160 727.342,160 729.479,160 731.616,158.528 733.753,159.509 735.89,160 738.027,160 740.164,159.509 742.301,142.331 744.438,144.785 746.575,157.055 748.712,158.528 750.849,160 752.986,160 755.123,159.509 757.26,160 759.397,160 761.534,159.018 763.671,153.62 765.808,159.018 767.945,160 770.082,160 772.219,149.693 774.356,155.583 776.493,158.528 778.63,156.074 780.767,155.583 782.904,159.509 785.041,159.509 787.178,160 789.315,160 791.452,151.656 793.589,140.859 795.726,155.092 797.863,160 800,160 800,160" fill="var(--pill)" opacity="0.6"/>
  <polyline points="20,160 22.137,160 24.274,160 26.411,154.11 28.5479,157.055 30.6849,160 32.8219,160 34.9589,160 37.0959,160 39.2329,160 41.3699,160 43.5068,159.018 45.6438,160 47.7808,160 49.9178,160 52.0548,160 54.1918,160 56.3288,160 58.4658,160 60.6027,160 62.7397,160 64.8767,160 67.0137,160 69.1507,160 71.2877,160 73.4247,160 75.5616,160 77.6986,160 79.8356,160 81.9726,160 84.1096,160 86.2466,160 88.3836,160 90.5205,160 92.6575,160 94.7945,160 96.9315,160 99.0685,160 101.205,160 103.342,160 105.479,160 107.616,160 109.753,160 111.89,160 114.027,160 116.164,160 118.301,159.509 120.438,160 122.575,160 124.712,160 126.849,160 128.986,160 131.123,160 133.26,160 135.397,160 137.534,160 139.671,160 141.808,160 143.945,160 146.082,160 148.219,160 150.356,160 152.493,160 154.63,160 156.767,160 158.904,160 161.041,160 163.178,160 165.315,160 167.452,160 169.589,160 171.726,160 173.863,159.018 176,160 178.137,160 180.274,160 182.411,145.276 184.548,155.583 186.685,157.546 188.822,155.583 190.959,157.055 193.096,156.074 195.233,160 197.37,160 199.507,160 201.644,158.037 203.781,159.018 205.918,158.037 208.055,156.564 210.192,160 212.329,158.528 214.466,156.564 216.603,160 218.74,154.11 220.877,149.202 223.014,149.202 225.151,153.62 227.288,141.84 229.425,154.601 231.562,160 233.699,154.601 235.836,160 237.973,160 240.11,157.546 242.247,148.221 244.384,159.018 246.521,160 248.658,158.037 250.795,160 252.932,159.509 255.068,160 257.205,160 259.342,160 261.479,160 263.616,151.656 265.753,155.583 267.89,156.074 270.027,157.546 272.164,150.675 274.301,160 276.438,158.037 278.575,156.564 280.712,158.037 282.849,156.074 284.986,160 287.123,154.11 289.26,160 291.397,159.509 293.534,160 295.671,160 297.808,157.546 299.945,160 302.082,160 304.219,160 306.356,160 308.493,160 310.63,160 312.767,160 314.904,160 317.041,160 319.178,160 321.315,160 323.452,160 325.589,160 327.726,160 329.863,160 332,160 334.137,154.601 336.274,158.037 338.411,160 340.548,160 342.685,160 344.822,160 346.959,160 349.096,160 351.233,160 353.37,160 355.507,160 357.644,160 359.781,160 361.918,160 364.055,160 366.192,160 368.329,160 370.466,160 372.603,160 374.74,160 376.877,160 379.014,160 381.151,160 383.288,157.055 385.425,160 387.562,160 389.699,160 391.836,160 393.973,155.092 396.11,160 398.247,160 400.384,160 402.521,160 404.658,137.423 406.795,153.62 408.932,80 411.068,155.092 413.205,149.202 415.342,155.092 417.479,158.037 419.616,158.528 421.753,159.509 423.89,156.074 426.027,160 428.164,159.018 430.301,160 432.438,159.509 434.575,159.018 436.712,159.509 438.849,160 440.986,158.528 443.123,160 445.26,159.018 447.397,159.018 449.534,157.546 451.671,157.055 453.808,160 455.945,160 458.082,159.509 460.219,159.509 462.356,158.528 464.493,159.509 466.63,157.055 468.767,157.055 470.904,159.018 473.041,158.528 475.178,147.239 477.315,157.055 479.452,129.08 481.589,147.239 483.726,153.129 485.863,160 488,160 490.137,160 492.274,151.656 494.411,158.528 496.548,160 498.685,160 500.822,138.405 502.959,158.528 505.096,160 507.233,160 509.37,160 511.507,160 513.644,160 515.781,160 517.918,160 520.055,160 522.192,160 524.329,160 526.466,160 528.603,160 530.74,160 532.877,160 535.014,160 537.151,159.509 539.288,160 541.425,160 543.562,160 545.699,160 547.836,160 549.973,160 552.11,160 554.247,160 556.384,160 558.521,159.509 560.658,158.037 562.795,160 564.932,160 567.068,160 569.205,160 571.342,160 573.479,160 575.616,160 577.753,160 579.89,160 582.027,160 584.164,160 586.301,159.509 588.438,158.037 590.575,157.055 592.712,160 594.849,160 596.986,160 599.123,156.564 601.26,157.546 603.397,147.239 605.534,160 607.671,160 609.808,160 611.945,155.092 614.082,148.221 616.219,160 618.356,160 620.493,158.037 622.63,160 624.767,158.037 626.904,160 629.041,160 631.178,160 633.315,160 635.452,160 637.589,160 639.726,159.018 641.863,144.294 644,159.018 646.137,160 648.274,139.387 650.411,121.718 652.548,120.736 654.685,147.73 656.822,146.258 658.959,157.055 661.096,160 663.233,160 665.37,160 667.507,160 669.644,160 671.781,160 673.918,160 676.055,160 678.192,157.546 680.329,153.62 682.466,148.712 684.603,160 686.74,149.202 688.877,149.693 691.014,134.969 693.151,146.258 695.288,145.767 697.425,146.258 699.562,150.184 701.699,154.11 703.836,154.601 705.973,154.11 708.11,157.055 710.247,156.564 712.384,159.509 714.521,160 716.658,160 718.795,160 720.932,160 723.068,160 725.205,160 727.342,160 729.479,160 731.616,158.528 733.753,159.509 735.89,160 738.027,160 740.164,159.509 742.301,142.331 744.438,144.785 746.575,157.055 748.712,158.528 750.849,160 752.986,160 755.123,159.509 757.26,160 759.397,160 761.534,159.018 763.671,153.62 765.808,159.018 767.945,160 770.082,160 772.219,149.693 774.356,155.583 776.493,158.528 778.63,156.074 780.767,155.583 782.904,159.509 785.041,159.509 787.178,160 789.315,160 791.452,151.656 793.589,140.859 795.726,155.092 797.863,160 800,160" fill="none" stroke="var(--accent)" stroke-width="1.5" stroke-linecap="round" stroke-linejoin="round"/>
</svg>

