<svg xmlns="http://www.w3.org/2000/svg" width="820" height="180" viewBox="0 0 820 180">

<style>
  :root {
    --bg:        #f6f8fa;
    --card:      #ffffff;
    --border:    #d0d7de;
    --primary:   #1f2328;
    --secondary: #636c76;
    --muted:     #8c959f;
    --accent:    #0969da;
    --green:     #1a7f37;
    --yellow:    #9a6700;
    --red:       #cf222e;
    --hover:     #f3f4f6;
    --spark-bg:  #f0f3f6;
    --spark:     #0969da;
    --pill:      #eaf1fb;
    --pill-txt:  #0969da;
    --div:       #d0d7de;
  }
  @media (prefers-color-scheme: dark) {
    :root {
      --bg:        #0d1117;
      --card:      #161b22;
      --border:    #30363d;
      --primary:   #e6edf3;
      --secondary: #848d97;
      --muted:     #7d8590;
      --accent:    #2f81f7;
      --green:     #3fb950;
      --yellow:    #d29922;
      --red:       #f85149;
      --hover:     #21262d;
      --spark-bg:  #1c2128;
      --spark:     #58a6ff;
      --pill:      #1c2d3f;
      --pill-txt:  #58a6ff;
      --div:       #30363d;
    }
  }
  
  .bg          { fill: var(--bg); }
  .card        { fill: var(--card); stroke: var(--border); stroke-width: 1; }
  .lang-pill   { fill: var(--pill); }
  .spark-bg    { fill: var(--spark-bg); }
  .spark-line  { stroke: var(--spark); }
  .divider     { stroke: var(--div); stroke-width: 1; }
  .clr-primary   { fill: var(--primary); }
  .clr-secondary { fill: var(--secondary); }
  .clr-muted     { fill: var(--muted); }
  .clr-accent    { fill: var(--accent); }
  .clr-green     { fill: var(--green); }
  .clr-yellow    { fill: var(--yellow); }
  .clr-red       { fill: var(--red); }
  .txt-bold    { font-weight: 600; }
  svg text     { font-family: -apple-system, BlinkMacSystemFont, "Segoe UI", Helvetica, Arial, sans-serif; }
</style>

<rect x="0" y="0" width="820" height="180" rx="8" class="card"/>
  <text x="20" y="24" class="clr-primary txt-bold" text-anchor="start" font-size="14">Contribution History &amp; Activity</text>
  <line x1="20" y1="36" x2="800" y2="36" class="divider"/>
  <text x="20" y="60" class="clr-muted" text-anchor="start" font-size="12">Years Active:</text>
  <text x="100" y="60" class="clr-primary txt-bold" text-anchor="start" font-size="12">5.8</text>
  <text x="160" y="60" class="clr-muted" text-anchor="start" font-size="12">Commits (Last Year):</text>
  <text x="290" y="60" class="clr-primary txt-bold" text-anchor="start" font-size="12">1229</text>
  <text x="360" y="60" class="clr-muted" text-anchor="start" font-size="12">Highest Daily:</text>
  <text x="450" y="60" class="clr-primary txt-bold" text-anchor="start" font-size="12">163</text>
  <polygon points="20,160 20,160 22.1253,160 24.2507,160 26.376,160 28.5014,160 30.6267,160 32.752,160 34.8774,160 37.0027,160 39.1281,159.018 41.2534,160 43.3787,160 45.5041,160 47.6294,145.276 49.7548,155.583 51.8801,157.546 54.0054,155.583 56.1308,157.055 58.2561,156.074 60.3815,160 62.5068,160 64.6322,160 66.7575,158.037 68.8828,159.018 71.0082,158.037 73.1335,156.564 75.2589,160 77.3842,158.528 79.5095,156.564 81.6349,160 83.7602,154.11 85.8856,149.202 88.0109,149.202 90.1362,153.62 92.2616,141.84 94.3869,154.601 96.5123,160 98.6376,154.601 100.763,160 102.888,160 105.014,157.546 107.139,148.221 109.264,159.018 111.39,160 113.515,158.037 115.64,160 117.766,159.509 119.891,160 122.016,160 124.142,160 126.267,160 128.392,151.656 130.518,155.583 132.643,156.074 134.768,157.546 136.894,150.675 139.019,160 141.144,158.037 143.27,156.564 145.395,158.037 147.52,156.074 149.646,160 151.771,154.11 153.896,160 156.022,159.509 158.147,160 160.272,160 162.398,157.546 164.523,160 166.649,160 168.774,160 170.899,160 173.025,160 175.15,160 177.275,160 179.401,160 181.526,160 183.651,160 185.777,160 187.902,160 190.027,160 192.153,160 194.278,160 196.403,160 198.529,154.601 200.654,158.037 202.779,160 204.905,160 207.03,160 209.155,160 211.281,160 213.406,160 215.531,160 217.657,160 219.782,160 221.907,160 224.033,160 226.158,160 228.283,160 230.409,160 232.534,160 234.659,160 236.785,160 238.91,160 241.035,160 243.161,160 245.286,160 247.411,157.055 249.537,160 251.662,160 253.787,160 255.913,160 258.038,155.092 260.163,160 262.289,160 264.414,160 266.54,160 268.665,137.423 270.79,153.62 272.916,80 275.041,155.092 277.166,149.202 279.292,155.092 281.417,158.037 283.542,158.528 285.668,159.509 287.793,156.074 289.918,160 292.044,159.018 294.169,160 296.294,159.509 298.42,159.018 300.545,159.509 302.67,160 304.796,158.528 306.921,160 309.046,159.018 311.172,159.018 313.297,157.546 315.422,157.055 317.548,160 319.673,160 321.798,159.509 323.924,159.509 326.049,158.528 328.174,159.509 330.3,157.055 332.425,157.055 334.55,159.018 336.676,158.528 338.801,147.239 340.926,157.055 343.052,129.08 345.177,147.239 347.302,153.129 349.428,160 351.553,160 353.678,160 355.804,151.656 357.929,158.528 360.054,160 362.18,160 364.305,138.405 366.431,158.528 368.556,160 370.681,160 372.807,160 374.932,160 377.057,160 379.183,160 381.308,160 383.433,160 385.559,160 387.684,160 389.809,160 391.935,160 394.06,160 396.185,160 398.311,160 400.436,159.509 402.561,160 404.687,160 406.812,160 408.937,160 411.063,160 413.188,160 415.313,160 417.439,160 419.564,160 421.689,159.509 423.815,158.037 425.94,160 428.065,160 430.191,160 432.316,160 434.441,160 436.567,160 438.692,160 440.817,160 442.943,160 445.068,160 447.193,160 449.319,159.509 451.444,158.037 453.569,157.055 455.695,160 457.82,160 459.946,160 462.071,156.564 464.196,157.546 466.322,147.239 468.447,160 470.572,160 472.698,160 474.823,155.092 476.948,148.221 479.074,160 481.199,160 483.324,158.037 485.45,160 487.575,158.037 489.7,160 491.826,160 493.951,160 496.076,160 498.202,160 500.327,160 502.452,159.018 504.578,144.294 506.703,159.018 508.828,160 510.954,139.387 513.079,121.718 515.204,120.736 517.33,147.73 519.455,146.258 521.58,157.055 523.706,160 525.831,160 527.956,160 530.082,160 532.207,160 534.332,160 536.458,160 538.583,160 540.708,157.546 542.834,153.62 544.959,148.712 547.084,160 549.21,149.202 551.335,149.693 553.46,134.969 555.586,146.258 557.711,145.767 559.837,146.258 561.962,150.184 564.087,154.11 566.213,154.601 568.338,154.11 570.463,157.055 572.589,156.564 574.714,159.509 576.839,160 578.965,160 581.09,160 583.215,160 585.341,160 587.466,160 589.591,160 591.717,160 593.842,158.528 595.967,159.509 598.093,160 600.218,160 602.343,159.509 604.469,142.331 606.594,144.785 608.719,157.055 610.845,158.528 612.97,160 615.095,160 617.221,159.509 619.346,160 621.471,160 623.597,159.018 625.722,153.62 627.847,159.018 629.973,160 632.098,160 634.223,149.693 636.349,155.583 638.474,158.528 640.599,156.074 642.725,155.583 644.85,159.509 646.975,159.509 649.101,160 651.226,160 653.351,151.656 655.477,140.859 657.602,155.092 659.728,160 661.853,141.84 663.978,150.184 666.104,152.147 668.229,160 670.354,160 672.48,160 674.605,160 676.73,160 678.856,160 680.981,160 683.106,160 685.232,160 687.357,160 689.482,160 691.608,160 693.733,158.037 695.858,160 697.984,160 700.109,160 702.234,160 704.36,160 706.485,160 708.61,160 710.736,160 712.861,160 714.986,160 717.112,160 719.237,160 721.362,160 723.488,160 725.613,156.564 727.738,154.601 729.864,160 731.989,160 734.114,160 736.24,160 738.365,159.509 740.49,160 742.616,160 744.741,159.509 746.866,159.509 748.992,160 751.117,159.509 753.243,160 755.368,160 757.493,156.074 759.619,159.509 761.744,159.509 763.869,160 765.995,158.037 768.12,160 770.245,160 772.371,160 774.496,160 776.621,160 778.747,160 780.872,160 782.997,150.184 785.123,158.528 787.248,159.509 789.373,159.018 791.499,160 793.624,160 795.749,160 797.875,160 800,160 800,160" fill="var(--pill)" opacity="0.6"/>
  <polyline points="20,160 22.1253,160 24.2507,160 26.376,160 28.5014,160 30.6267,160 32.752,160 34.8774,160 37.0027,160 39.1281,159.018 41.2534,160 43.3787,160 45.5041,160 47.6294,145.276 49.7548,155.583 51.8801,157.546 54.0054,155.583 56.1308,157.055 58.2561,156.074 60.3815,160 62.5068,160 64.6322,160 66.7575,158.037 68.8828,159.018 71.0082,158.037 73.1335,156.564 75.2589,160 77.3842,158.528 79.5095,156.564 81.6349,160 83.7602,154.11 85.8856,149.202 88.0109,149.202 90.1362,153.62 92.2616,141.84 94.3869,154.601 96.5123,160 98.6376,154.601 100.763,160 102.888,160 105.014,157.546 107.139,148.221 109.264,159.018 111.39,160 113.515,158.037 115.64,160 117.766,159.509 119.891,160 122.016,160 124.142,160 126.267,160 128.392,151.656 130.518,155.583 132.643,156.074 134.768,157.546 136.894,150.675 139.019,160 141.144,158.037 143.27,156.564 145.395,158.037 147.52,156.074 149.646,160 151.771,154.11 153.896,160 156.022,159.509 158.147,160 160.272,160 162.398,157.546 164.523,160 166.649,160 168.774,160 170.899,160 173.025,160 175.15,160 177.275,160 179.401,160 181.526,160 183.651,160 185.777,160 187.902,160 190.027,160 192.153,160 194.278,160 196.403,160 198.529,154.601 200.654,158.037 202.779,160 204.905,160 207.03,160 209.155,160 211.281,160 213.406,160 215.531,160 217.657,160 219.782,160 221.907,160 224.033,160 226.158,160 228.283,160 230.409,160 232.534,160 234.659,160 236.785,160 238.91,160 241.035,160 243.161,160 245.286,160 247.411,157.055 249.537,160 251.662,160 253.787,160 255.913,160 258.038,155.092 260.163,160 262.289,160 264.414,160 266.54,160 268.665,137.423 270.79,153.62 272.916,80 275.041,155.092 277.166,149.202 279.292,155.092 281.417,158.037 283.542,158.528 285.668,159.509 287.793,156.074 289.918,160 292.044,159.018 294.169,160 296.294,159.509 298.42,159.018 300.545,159.509 302.67,160 304.796,158.528 306.921,160 309.046,159.018 311.172,159.018 313.297,157.546 315.422,157.055 317.548,160 319.673,160 321.798,159.509 323.924,159.509 326.049,158.528 328.174,159.509 330.3,157.055 332.425,157.055 334.55,159.018 336.676,158.528 338.801,147.239 340.926,157.055 343.052,129.08 345.177,147.239 347.302,153.129 349.428,160 351.553,160 353.678,160 355.804,151.656 357.929,158.528 360.054,160 362.18,160 364.305,138.405 366.431,158.528 368.556,160 370.681,160 372.807,160 374.932,160 377.057,160 379.183,160 381.308,160 383.433,160 385.559,160 387.684,160 389.809,160 391.935,160 394.06,160 396.185,160 398.311,160 400.436,159.509 402.561,160 404.687,160 406.812,160 408.937,160 411.063,160 413.188,160 415.313,160 417.439,160 419.564,160 421.689,159.509 423.815,158.037 425.94,160 428.065,160 430.191,160 432.316,160 434.441,160 436.567,160 438.692,160 440.817,160 442.943,160 445.068,160 447.193,160 449.319,159.509 451.444,158.037 453.569,157.055 455.695,160 457.82,160 459.946,160 462.071,156.564 464.196,157.546 466.322,147.239 468.447,160 470.572,160 472.698,160 474.823,155.092 476.948,148.221 479.074,160 481.199,160 483.324,158.037 485.45,160 487.575,158.037 489.7,160 491.826,160 493.951,160 496.076,160 498.202,160 500.327,160 502.452,159.018 504.578,144.294 506.703,159.018 508.828,160 510.954,139.387 513.079,121.718 515.204,120.736 517.33,147.73 519.455,146.258 521.58,157.055 523.706,160 525.831,160 527.956,160 530.082,160 532.207,160 534.332,160 536.458,160 538.583,160 540.708,157.546 542.834,153.62 544.959,148.712 547.084,160 549.21,149.202 551.335,149.693 553.46,134.969 555.586,146.258 557.711,145.767 559.837,146.258 561.962,150.184 564.087,154.11 566.213,154.601 568.338,154.11 570.463,157.055 572.589,156.564 574.714,159.509 576.839,160 578.965,160 581.09,160 583.215,160 585.341,160 587.466,160 589.591,160 591.717,160 593.842,158.528 595.967,159.509 598.093,160 600.218,160 602.343,159.509 604.469,142.331 606.594,144.785 608.719,157.055 610.845,158.528 612.97,160 615.095,160 617.221,159.509 619.346,160 621.471,160 623.597,159.018 625.722,153.62 627.847,159.018 629.973,160 632.098,160 634.223,149.693 636.349,155.583 638.474,158.528 640.599,156.074 642.725,155.583 644.85,159.509 646.975,159.509 649.101,160 651.226,160 653.351,151.656 655.477,140.859 657.602,155.092 659.728,160 661.853,141.84 663.978,150.184 666.104,152.147 668.229,160 670.354,160 672.48,160 674.605,160 676.73,160 678.856,160 680.981,160 683.106,160 685.232,160 687.357,160 689.482,160 691.608,160 693.733,158.037 695.858,160 697.984,160 700.109,160 702.234,160 704.36,160 706.485,160 708.61,160 710.736,160 712.861,160 714.986,160 717.112,160 719.237,160 721.362,160 723.488,160 725.613,156.564 727.738,154.601 729.864,160 731.989,160 734.114,160 736.24,160 738.365,159.509 740.49,160 742.616,160 744.741,159.509 746.866,159.509 748.992,160 751.117,159.509 753.243,160 755.368,160 757.493,156.074 759.619,159.509 761.744,159.509 763.869,160 765.995,158.037 768.12,160 770.245,160 772.371,160 774.496,160 776.621,160 778.747,160 780.872,160 782.997,150.184 785.123,158.528 787.248,159.509 789.373,159.018 791.499,160 793.624,160 795.749,160 797.875,160 800,160" fill="none" stroke="var(--accent)" stroke-width="1.5" stroke-linecap="round" stroke-linejoin="round"/>
</svg>

