<svg xmlns="http://www.w3.org/2000/svg" width="820" height="180" viewBox="0 0 820 180">

<style>
  :root {
    --bg:        #f6f8fa;
    --card:      #ffffff;
    --border:    #d0d7de;
    --primary:   #1f2328;
    --secondary: #636c76;
    --muted:     #8c959f;
    --accent:    #0969da;
    --green:     #1a7f37;
    --yellow:    #9a6700;
    --red:       #cf222e;
    --hover:     #f3f4f6;
    --spark-bg:  #f0f3f6;
    --spark:     #0969da;
    --pill:      #eaf1fb;
    --pill-txt:  #0969da;
    --div:       #d0d7de;
  }
  @media (prefers-color-scheme: dark) {
    :root {
      --bg:        #0d1117;
      --card:      #161b22;
      --border:    #30363d;
      --primary:   #e6edf3;
      --secondary: #848d97;
      --muted:     #7d8590;
      --accent:    #2f81f7;
      --green:     #3fb950;
      --yellow:    #d29922;
      --red:       #f85149;
      --hover:     #21262d;
      --spark-bg:  #1c2128;
      --spark:     #58a6ff;
      --pill:      #1c2d3f;
      --pill-txt:  #58a6ff;
      --div:       #30363d;
    }
  }
  
  .bg          { fill: var(--bg); }
  .card        { fill: var(--card); stroke: var(--border); stroke-width: 1; }
  .lang-pill   { fill: var(--pill); }
  .spark-bg    { fill: var(--spark-bg); }
  .spark-line  { stroke: var(--spark); }
  .divider     { stroke: var(--div); stroke-width: 1; }
  .clr-primary   { fill: var(--primary); }
  .clr-secondary { fill: var(--secondary); }
  .clr-muted     { fill: var(--muted); }
  .clr-accent    { fill: var(--accent); }
  .clr-green     { fill: var(--green); }
  .clr-yellow    { fill: var(--yellow); }
  .clr-red       { fill: var(--red); }
  .txt-bold    { font-weight: 600; }
  svg text     { font-family: -apple-system, BlinkMacSystemFont, "Segoe UI", Helvetica, Arial, sans-serif; }
</style>

<rect x="0" y="0" width="820" height="180" rx="8" class="card"/>
  <text x="20" y="24" class="clr-primary txt-bold" text-anchor="start" font-size="14">Contribution History &amp; Activity</text>
  <line x1="20" y1="36" x2="800" y2="36" class="divider"/>
  <text x="20" y="60" class="clr-muted" text-anchor="start" font-size="12">Years Active:</text>
  <text x="100" y="60" class="clr-primary txt-bold" text-anchor="start" font-size="12">5.8</text>
  <text x="160" y="60" class="clr-muted" text-anchor="start" font-size="12">Commits (Last Year):</text>
  <text x="290" y="60" class="clr-primary txt-bold" text-anchor="start" font-size="12">1167</text>
  <text x="360" y="60" class="clr-muted" text-anchor="start" font-size="12">Highest Daily:</text>
  <text x="450" y="60" class="clr-primary txt-bold" text-anchor="start" font-size="12">163</text>
  <polygon points="20,160 20,156.564 22.1138,160 24.2276,154.11 26.3415,149.202 28.4553,149.202 30.5691,153.62 32.6829,141.84 34.7967,154.601 36.9106,160 39.0244,154.601 41.1382,160 43.252,160 45.3659,157.546 47.4797,148.221 49.5935,159.018 51.7073,160 53.8211,158.037 55.935,160 58.0488,159.509 60.1626,160 62.2764,160 64.3902,160 66.5041,160 68.6179,151.656 70.7317,155.583 72.8455,156.074 74.9593,157.546 77.0732,150.675 79.187,160 81.3008,158.037 83.4146,156.564 85.5285,158.037 87.6423,156.074 89.7561,160 91.8699,154.11 93.9837,160 96.0976,159.509 98.2114,160 100.325,160 102.439,157.546 104.553,160 106.667,160 108.78,160 110.894,160 113.008,160 115.122,160 117.236,160 119.35,160 121.463,160 123.577,160 125.691,160 127.805,160 129.919,160 132.033,160 134.146,160 136.26,160 138.374,154.601 140.488,158.037 142.602,160 144.715,160 146.829,160 148.943,160 151.057,160 153.171,160 155.285,160 157.398,160 159.512,160 161.626,160 163.74,160 165.854,160 167.967,160 170.081,160 172.195,160 174.309,160 176.423,160 178.537,160 180.65,160 182.764,160 184.878,160 186.992,157.055 189.106,160 191.22,160 193.333,160 195.447,160 197.561,155.092 199.675,160 201.789,160 203.902,160 206.016,160 208.13,137.423 210.244,153.62 212.358,80 214.472,155.092 216.585,149.202 218.699,155.092 220.813,158.037 222.927,158.528 225.041,159.509 227.154,156.074 229.268,160 231.382,159.018 233.496,160 235.61,159.509 237.724,159.018 239.837,159.509 241.951,160 244.065,158.528 246.179,160 248.293,159.018 250.407,159.018 252.52,157.546 254.634,157.055 256.748,160 258.862,160 260.976,159.509 263.089,159.509 265.203,158.528 267.317,159.509 269.431,157.055 271.545,157.055 273.659,159.018 275.772,158.528 277.886,147.239 280,157.055 282.114,129.08 284.228,147.239 286.341,153.129 288.455,160 290.569,160 292.683,160 294.797,151.656 296.911,158.528 299.024,160 301.138,160 303.252,138.405 305.366,158.528 307.48,160 309.593,160 311.707,160 313.821,160 315.935,160 318.049,160 320.163,160 322.276,160 324.39,160 326.504,160 328.618,160 330.732,160 332.846,160 334.959,160 337.073,160 339.187,159.509 341.301,160 343.415,160 345.528,160 347.642,160 349.756,160 351.87,160 353.984,160 356.098,160 358.211,160 360.325,159.509 362.439,158.037 364.553,160 366.667,160 368.78,160 370.894,160 373.008,160 375.122,160 377.236,160 379.35,160 381.463,160 383.577,160 385.691,160 387.805,159.509 389.919,158.037 392.033,157.055 394.146,160 396.26,160 398.374,160 400.488,156.564 402.602,157.546 404.715,147.239 406.829,160 408.943,160 411.057,160 413.171,155.092 415.285,148.221 417.398,160 419.512,160 421.626,158.037 423.74,160 425.854,158.037 427.967,160 430.081,160 432.195,160 434.309,160 436.423,160 438.537,160 440.65,159.018 442.764,144.294 444.878,159.018 446.992,160 449.106,139.387 451.22,121.718 453.333,120.736 455.447,147.73 457.561,146.258 459.675,157.055 461.789,160 463.902,160 466.016,160 468.13,160 470.244,160 472.358,160 474.472,160 476.585,160 478.699,157.546 480.813,153.62 482.927,148.712 485.041,160 487.154,149.202 489.268,149.693 491.382,134.969 493.496,146.258 495.61,145.767 497.724,146.258 499.837,150.184 501.951,154.11 504.065,154.601 506.179,154.11 508.293,157.055 510.407,156.564 512.52,159.509 514.634,160 516.748,160 518.862,160 520.976,160 523.089,160 525.203,160 527.317,160 529.431,160 531.545,158.528 533.659,159.509 535.772,160 537.886,160 540,159.509 542.114,142.331 544.228,144.785 546.341,157.055 548.455,158.528 550.569,160 552.683,160 554.797,159.509 556.911,160 559.024,160 561.138,159.018 563.252,153.62 565.366,159.018 567.48,160 569.593,160 571.707,149.693 573.821,155.583 575.935,158.528 578.049,156.074 580.163,155.583 582.276,159.509 584.39,159.509 586.504,160 588.618,160 590.732,151.656 592.846,140.859 594.959,155.092 597.073,160 599.187,141.84 601.301,150.184 603.415,152.147 605.528,160 607.642,160 609.756,160 611.87,160 613.984,160 616.098,160 618.211,160 620.325,160 622.439,160 624.553,160 626.667,160 628.78,160 630.894,158.037 633.008,160 635.122,160 637.236,160 639.35,160 641.463,160 643.577,160 645.691,160 647.805,160 649.919,160 652.033,160 654.146,160 656.26,160 658.374,160 660.488,160 662.602,156.564 664.715,154.601 666.829,160 668.943,160 671.057,160 673.171,160 675.285,159.509 677.398,160 679.512,160 681.626,159.509 683.74,159.509 685.854,160 687.967,159.509 690.081,160 692.195,160 694.309,156.074 696.423,159.509 698.537,159.509 700.65,160 702.764,158.037 704.878,160 706.992,160 709.106,160 711.22,160 713.333,160 715.447,160 717.561,160 719.675,150.184 721.789,158.528 723.902,159.509 726.016,159.018 728.13,160 730.244,160 732.358,160 734.472,160 736.585,160 738.699,160 740.813,160 742.927,160 745.041,160 747.154,160 749.268,160 751.382,160 753.496,160 755.61,160 757.724,160 759.837,160 761.951,159.018 764.065,160 766.179,159.018 768.293,158.037 770.407,159.509 772.52,160 774.634,157.055 776.748,157.546 778.862,158.037 780.976,159.018 783.089,160 785.203,160 787.317,160 789.431,160 791.545,160 793.659,160 795.772,160 797.886,160 800,160 800,160" fill="var(--pill)" opacity="0.6"/>
  <polyline points="20,156.564 22.1138,160 24.2276,154.11 26.3415,149.202 28.4553,149.202 30.5691,153.62 32.6829,141.84 34.7967,154.601 36.9106,160 39.0244,154.601 41.1382,160 43.252,160 45.3659,157.546 47.4797,148.221 49.5935,159.018 51.7073,160 53.8211,158.037 55.935,160 58.0488,159.509 60.1626,160 62.2764,160 64.3902,160 66.5041,160 68.6179,151.656 70.7317,155.583 72.8455,156.074 74.9593,157.546 77.0732,150.675 79.187,160 81.3008,158.037 83.4146,156.564 85.5285,158.037 87.6423,156.074 89.7561,160 91.8699,154.11 93.9837,160 96.0976,159.509 98.2114,160 100.325,160 102.439,157.546 104.553,160 106.667,160 108.78,160 110.894,160 113.008,160 115.122,160 117.236,160 119.35,160 121.463,160 123.577,160 125.691,160 127.805,160 129.919,160 132.033,160 134.146,160 136.26,160 138.374,154.601 140.488,158.037 142.602,160 144.715,160 146.829,160 148.943,160 151.057,160 153.171,160 155.285,160 157.398,160 159.512,160 161.626,160 163.74,160 165.854,160 167.967,160 170.081,160 172.195,160 174.309,160 176.423,160 178.537,160 180.65,160 182.764,160 184.878,160 186.992,157.055 189.106,160 191.22,160 193.333,160 195.447,160 197.561,155.092 199.675,160 201.789,160 203.902,160 206.016,160 208.13,137.423 210.244,153.62 212.358,80 214.472,155.092 216.585,149.202 218.699,155.092 220.813,158.037 222.927,158.528 225.041,159.509 227.154,156.074 229.268,160 231.382,159.018 233.496,160 235.61,159.509 237.724,159.018 239.837,159.509 241.951,160 244.065,158.528 246.179,160 248.293,159.018 250.407,159.018 252.52,157.546 254.634,157.055 256.748,160 258.862,160 260.976,159.509 263.089,159.509 265.203,158.528 267.317,159.509 269.431,157.055 271.545,157.055 273.659,159.018 275.772,158.528 277.886,147.239 280,157.055 282.114,129.08 284.228,147.239 286.341,153.129 288.455,160 290.569,160 292.683,160 294.797,151.656 296.911,158.528 299.024,160 301.138,160 303.252,138.405 305.366,158.528 307.48,160 309.593,160 311.707,160 313.821,160 315.935,160 318.049,160 320.163,160 322.276,160 324.39,160 326.504,160 328.618,160 330.732,160 332.846,160 334.959,160 337.073,160 339.187,159.509 341.301,160 343.415,160 345.528,160 347.642,160 349.756,160 351.87,160 353.984,160 356.098,160 358.211,160 360.325,159.509 362.439,158.037 364.553,160 366.667,160 368.78,160 370.894,160 373.008,160 375.122,160 377.236,160 379.35,160 381.463,160 383.577,160 385.691,160 387.805,159.509 389.919,158.037 392.033,157.055 394.146,160 396.26,160 398.374,160 400.488,156.564 402.602,157.546 404.715,147.239 406.829,160 408.943,160 411.057,160 413.171,155.092 415.285,148.221 417.398,160 419.512,160 421.626,158.037 423.74,160 425.854,158.037 427.967,160 430.081,160 432.195,160 434.309,160 436.423,160 438.537,160 440.65,159.018 442.764,144.294 444.878,159.018 446.992,160 449.106,139.387 451.22,121.718 453.333,120.736 455.447,147.73 457.561,146.258 459.675,157.055 461.789,160 463.902,160 466.016,160 468.13,160 470.244,160 472.358,160 474.472,160 476.585,160 478.699,157.546 480.813,153.62 482.927,148.712 485.041,160 487.154,149.202 489.268,149.693 491.382,134.969 493.496,146.258 495.61,145.767 497.724,146.258 499.837,150.184 501.951,154.11 504.065,154.601 506.179,154.11 508.293,157.055 510.407,156.564 512.52,159.509 514.634,160 516.748,160 518.862,160 520.976,160 523.089,160 525.203,160 527.317,160 529.431,160 531.545,158.528 533.659,159.509 535.772,160 537.886,160 540,159.509 542.114,142.331 544.228,144.785 546.341,157.055 548.455,158.528 550.569,160 552.683,160 554.797,159.509 556.911,160 559.024,160 561.138,159.018 563.252,153.62 565.366,159.018 567.48,160 569.593,160 571.707,149.693 573.821,155.583 575.935,158.528 578.049,156.074 580.163,155.583 582.276,159.509 584.39,159.509 586.504,160 588.618,160 590.732,151.656 592.846,140.859 594.959,155.092 597.073,160 599.187,141.84 601.301,150.184 603.415,152.147 605.528,160 607.642,160 609.756,160 611.87,160 613.984,160 616.098,160 618.211,160 620.325,160 622.439,160 624.553,160 626.667,160 628.78,160 630.894,158.037 633.008,160 635.122,160 637.236,160 639.35,160 641.463,160 643.577,160 645.691,160 647.805,160 649.919,160 652.033,160 654.146,160 656.26,160 658.374,160 660.488,160 662.602,156.564 664.715,154.601 666.829,160 668.943,160 671.057,160 673.171,160 675.285,159.509 677.398,160 679.512,160 681.626,159.509 683.74,159.509 685.854,160 687.967,159.509 690.081,160 692.195,160 694.309,156.074 696.423,159.509 698.537,159.509 700.65,160 702.764,158.037 704.878,160 706.992,160 709.106,160 711.22,160 713.333,160 715.447,160 717.561,160 719.675,150.184 721.789,158.528 723.902,159.509 726.016,159.018 728.13,160 730.244,160 732.358,160 734.472,160 736.585,160 738.699,160 740.813,160 742.927,160 745.041,160 747.154,160 749.268,160 751.382,160 753.496,160 755.61,160 757.724,160 759.837,160 761.951,159.018 764.065,160 766.179,159.018 768.293,158.037 770.407,159.509 772.52,160 774.634,157.055 776.748,157.546 778.862,158.037 780.976,159.018 783.089,160 785.203,160 787.317,160 789.431,160 791.545,160 793.659,160 795.772,160 797.886,160 800,160" fill="none" stroke="var(--accent)" stroke-width="1.5" stroke-linecap="round" stroke-linejoin="round"/>
</svg>

