<svg xmlns="http://www.w3.org/2000/svg" width="820" height="180" viewBox="0 0 820 180">

<style>
  :root {
    --bg:        #f6f8fa;
    --card:      #ffffff;
    --border:    #d0d7de;
    --primary:   #1f2328;
    --secondary: #636c76;
    --muted:     #8c959f;
    --accent:    #0969da;
    --green:     #1a7f37;
    --yellow:    #9a6700;
    --red:       #cf222e;
    --hover:     #f3f4f6;
    --spark-bg:  #f0f3f6;
    --spark:     #0969da;
    --pill:      #eaf1fb;
    --pill-txt:  #0969da;
    --div:       #d0d7de;
  }
  @media (prefers-color-scheme: dark) {
    :root {
      --bg:        #0d1117;
      --card:      #161b22;
      --border:    #30363d;
      --primary:   #e6edf3;
      --secondary: #848d97;
      --muted:     #7d8590;
      --accent:    #2f81f7;
      --green:     #3fb950;
      --yellow:    #d29922;
      --red:       #f85149;
      --hover:     #21262d;
      --spark-bg:  #1c2128;
      --spark:     #58a6ff;
      --pill:      #1c2d3f;
      --pill-txt:  #58a6ff;
      --div:       #30363d;
    }
  }
  
  .bg          { fill: var(--bg); }
  .card        { fill: var(--card); stroke: var(--border); stroke-width: 1; }
  .lang-pill   { fill: var(--pill); }
  .spark-bg    { fill: var(--spark-bg); }
  .spark-line  { stroke: var(--spark); }
  .divider     { stroke: var(--div); stroke-width: 1; }
  .clr-primary   { fill: var(--primary); }
  .clr-secondary { fill: var(--secondary); }
  .clr-muted     { fill: var(--muted); }
  .clr-accent    { fill: var(--accent); }
  .clr-green     { fill: var(--green); }
  .clr-yellow    { fill: var(--yellow); }
  .clr-red       { fill: var(--red); }
  .txt-bold    { font-weight: 600; }
  svg text     { font-family: -apple-system, BlinkMacSystemFont, "Segoe UI", Helvetica, Arial, sans-serif; }
</style>

<rect x="0" y="0" width="820" height="180" rx="8" class="card"/>
  <text x="20" y="24" class="clr-primary txt-bold" text-anchor="start" font-size="14">Contribution History &amp; Activity</text>
  <line x1="20" y1="36" x2="800" y2="36" class="divider"/>
  <text x="20" y="60" class="clr-muted" text-anchor="start" font-size="12">Years Active:</text>
  <text x="100" y="60" class="clr-primary txt-bold" text-anchor="start" font-size="12">5.6</text>
  <text x="160" y="60" class="clr-muted" text-anchor="start" font-size="12">Commits (Last Year):</text>
  <text x="290" y="60" class="clr-primary txt-bold" text-anchor="start" font-size="12">1188</text>
  <text x="360" y="60" class="clr-muted" text-anchor="start" font-size="12">Highest Daily:</text>
  <text x="450" y="60" class="clr-primary txt-bold" text-anchor="start" font-size="12">163</text>
  <polygon points="20,160 20,160 22.1196,160 24.2391,160 26.3587,154.11 28.4783,157.055 30.5978,160 32.7174,160 34.837,160 36.9565,160 39.0761,160 41.1957,160 43.3152,159.018 45.4348,160 47.5543,160 49.6739,160 51.7935,160 53.913,160 56.0326,160 58.1522,160 60.2717,160 62.3913,160 64.5109,160 66.6304,160 68.75,160 70.8696,160 72.9891,160 75.1087,160 77.2283,160 79.3478,160 81.4674,160 83.587,160 85.7065,160 87.8261,160 89.9457,160 92.0652,160 94.1848,160 96.3043,160 98.4239,160 100.543,160 102.663,160 104.783,160 106.902,160 109.022,160 111.141,160 113.261,160 115.38,160 117.5,159.509 119.62,160 121.739,160 123.859,160 125.978,160 128.098,160 130.217,160 132.337,160 134.457,160 136.576,160 138.696,160 140.815,160 142.935,160 145.054,160 147.174,160 149.293,160 151.413,160 153.533,160 155.652,160 157.772,160 159.891,160 162.011,160 164.13,160 166.25,160 168.37,160 170.489,160 172.609,159.018 174.728,160 176.848,160 178.967,160 181.087,145.276 183.207,155.583 185.326,157.546 187.446,155.583 189.565,157.055 191.685,156.074 193.804,160 195.924,160 198.043,160 200.163,158.037 202.283,159.018 204.402,158.037 206.522,156.564 208.641,160 210.761,158.528 212.88,156.564 215,160 217.12,154.11 219.239,149.202 221.359,149.202 223.478,153.62 225.598,141.84 227.717,154.601 229.837,160 231.957,154.601 234.076,160 236.196,160 238.315,157.546 240.435,148.221 242.554,159.018 244.674,160 246.793,158.037 248.913,160 251.033,159.509 253.152,160 255.272,160 257.391,160 259.511,160 261.63,151.656 263.75,155.583 265.87,156.074 267.989,157.546 270.109,150.675 272.228,160 274.348,158.037 276.467,156.564 278.587,158.037 280.707,156.074 282.826,160 284.946,154.11 287.065,160 289.185,159.509 291.304,160 293.424,160 295.543,157.546 297.663,160 299.783,160 301.902,160 304.022,160 306.141,160 308.261,160 310.38,160 312.5,160 314.62,160 316.739,160 318.859,160 320.978,160 323.098,160 325.217,160 327.337,160 329.457,160 331.576,154.601 333.696,158.037 335.815,160 337.935,160 340.054,160 342.174,160 344.293,160 346.413,160 348.533,160 350.652,160 352.772,160 354.891,160 357.011,160 359.13,160 361.25,160 363.37,160 365.489,160 367.609,160 369.728,160 371.848,160 373.967,160 376.087,160 378.207,160 380.326,157.055 382.446,160 384.565,160 386.685,160 388.804,160 390.924,155.092 393.043,160 395.163,160 397.283,160 399.402,160 401.522,137.423 403.641,153.62 405.761,80 407.88,155.092 410,149.202 412.12,155.092 414.239,158.037 416.359,158.528 418.478,159.509 420.598,156.074 422.717,160 424.837,159.018 426.957,160 429.076,159.509 431.196,159.018 433.315,159.509 435.435,160 437.554,158.528 439.674,160 441.793,159.018 443.913,159.018 446.033,157.546 448.152,157.055 450.272,160 452.391,160 454.511,159.509 456.63,159.509 458.75,158.528 460.87,159.509 462.989,157.055 465.109,157.055 467.228,159.018 469.348,158.528 471.467,147.239 473.587,157.055 475.707,129.08 477.826,147.239 479.946,153.129 482.065,160 484.185,160 486.304,160 488.424,151.656 490.543,158.528 492.663,160 494.783,160 496.902,138.405 499.022,158.528 501.141,160 503.261,160 505.38,160 507.5,160 509.62,160 511.739,160 513.859,160 515.978,160 518.098,160 520.217,160 522.337,160 524.457,160 526.576,160 528.696,160 530.815,160 532.935,159.509 535.054,160 537.174,160 539.293,160 541.413,160 543.533,160 545.652,160 547.772,160 549.891,160 552.011,160 554.13,159.509 556.25,158.037 558.37,160 560.489,160 562.609,160 564.728,160 566.848,160 568.967,160 571.087,160 573.207,160 575.326,160 577.446,160 579.565,160 581.685,159.509 583.804,158.037 585.924,157.055 588.043,160 590.163,160 592.283,160 594.402,156.564 596.522,157.546 598.641,147.239 600.761,160 602.88,160 605,160 607.12,155.092 609.239,148.221 611.359,160 613.478,160 615.598,158.037 617.717,160 619.837,158.037 621.957,160 624.076,160 626.196,160 628.315,160 630.435,160 632.554,160 634.674,159.018 636.793,144.294 638.913,159.018 641.033,160 643.152,139.387 645.272,121.718 647.391,120.736 649.511,147.73 651.63,146.258 653.75,157.055 655.87,160 657.989,160 660.109,160 662.228,160 664.348,160 666.467,160 668.587,160 670.707,160 672.826,157.546 674.946,153.62 677.065,148.712 679.185,160 681.304,149.202 683.424,149.693 685.543,134.969 687.663,146.258 689.783,145.767 691.902,146.258 694.022,150.184 696.141,154.11 698.261,154.601 700.38,154.11 702.5,157.055 704.62,156.564 706.739,159.509 708.859,160 710.978,160 713.098,160 715.217,160 717.337,160 719.457,160 721.576,160 723.696,160 725.815,158.528 727.935,159.509 730.054,160 732.174,160 734.293,159.509 736.413,142.331 738.533,144.785 740.652,157.055 742.772,158.528 744.891,160 747.011,160 749.13,159.509 751.25,160 753.37,160 755.489,159.018 757.609,153.62 759.728,159.018 761.848,160 763.967,160 766.087,149.693 768.207,155.583 770.326,158.528 772.446,156.074 774.565,155.583 776.685,159.509 778.804,159.509 780.924,160 783.043,160 785.163,151.656 787.283,140.859 789.402,155.092 791.522,160 793.641,141.84 795.761,150.184 797.88,152.147 800,160 800,160" fill="var(--pill)" opacity="0.6"/>
  <polyline points="20,160 22.1196,160 24.2391,160 26.3587,154.11 28.4783,157.055 30.5978,160 32.7174,160 34.837,160 36.9565,160 39.0761,160 41.1957,160 43.3152,159.018 45.4348,160 47.5543,160 49.6739,160 51.7935,160 53.913,160 56.0326,160 58.1522,160 60.2717,160 62.3913,160 64.5109,160 66.6304,160 68.75,160 70.8696,160 72.9891,160 75.1087,160 77.2283,160 79.3478,160 81.4674,160 83.587,160 85.7065,160 87.8261,160 89.9457,160 92.0652,160 94.1848,160 96.3043,160 98.4239,160 100.543,160 102.663,160 104.783,160 106.902,160 109.022,160 111.141,160 113.261,160 115.38,160 117.5,159.509 119.62,160 121.739,160 123.859,160 125.978,160 128.098,160 130.217,160 132.337,160 134.457,160 136.576,160 138.696,160 140.815,160 142.935,160 145.054,160 147.174,160 149.293,160 151.413,160 153.533,160 155.652,160 157.772,160 159.891,160 162.011,160 164.13,160 166.25,160 168.37,160 170.489,160 172.609,159.018 174.728,160 176.848,160 178.967,160 181.087,145.276 183.207,155.583 185.326,157.546 187.446,155.583 189.565,157.055 191.685,156.074 193.804,160 195.924,160 198.043,160 200.163,158.037 202.283,159.018 204.402,158.037 206.522,156.564 208.641,160 210.761,158.528 212.88,156.564 215,160 217.12,154.11 219.239,149.202 221.359,149.202 223.478,153.62 225.598,141.84 227.717,154.601 229.837,160 231.957,154.601 234.076,160 236.196,160 238.315,157.546 240.435,148.221 242.554,159.018 244.674,160 246.793,158.037 248.913,160 251.033,159.509 253.152,160 255.272,160 257.391,160 259.511,160 261.63,151.656 263.75,155.583 265.87,156.074 267.989,157.546 270.109,150.675 272.228,160 274.348,158.037 276.467,156.564 278.587,158.037 280.707,156.074 282.826,160 284.946,154.11 287.065,160 289.185,159.509 291.304,160 293.424,160 295.543,157.546 297.663,160 299.783,160 301.902,160 304.022,160 306.141,160 308.261,160 310.38,160 312.5,160 314.62,160 316.739,160 318.859,160 320.978,160 323.098,160 325.217,160 327.337,160 329.457,160 331.576,154.601 333.696,158.037 335.815,160 337.935,160 340.054,160 342.174,160 344.293,160 346.413,160 348.533,160 350.652,160 352.772,160 354.891,160 357.011,160 359.13,160 361.25,160 363.37,160 365.489,160 367.609,160 369.728,160 371.848,160 373.967,160 376.087,160 378.207,160 380.326,157.055 382.446,160 384.565,160 386.685,160 388.804,160 390.924,155.092 393.043,160 395.163,160 397.283,160 399.402,160 401.522,137.423 403.641,153.62 405.761,80 407.88,155.092 410,149.202 412.12,155.092 414.239,158.037 416.359,158.528 418.478,159.509 420.598,156.074 422.717,160 424.837,159.018 426.957,160 429.076,159.509 431.196,159.018 433.315,159.509 435.435,160 437.554,158.528 439.674,160 441.793,159.018 443.913,159.018 446.033,157.546 448.152,157.055 450.272,160 452.391,160 454.511,159.509 456.63,159.509 458.75,158.528 460.87,159.509 462.989,157.055 465.109,157.055 467.228,159.018 469.348,158.528 471.467,147.239 473.587,157.055 475.707,129.08 477.826,147.239 479.946,153.129 482.065,160 484.185,160 486.304,160 488.424,151.656 490.543,158.528 492.663,160 494.783,160 496.902,138.405 499.022,158.528 501.141,160 503.261,160 505.38,160 507.5,160 509.62,160 511.739,160 513.859,160 515.978,160 518.098,160 520.217,160 522.337,160 524.457,160 526.576,160 528.696,160 530.815,160 532.935,159.509 535.054,160 537.174,160 539.293,160 541.413,160 543.533,160 545.652,160 547.772,160 549.891,160 552.011,160 554.13,159.509 556.25,158.037 558.37,160 560.489,160 562.609,160 564.728,160 566.848,160 568.967,160 571.087,160 573.207,160 575.326,160 577.446,160 579.565,160 581.685,159.509 583.804,158.037 585.924,157.055 588.043,160 590.163,160 592.283,160 594.402,156.564 596.522,157.546 598.641,147.239 600.761,160 602.88,160 605,160 607.12,155.092 609.239,148.221 611.359,160 613.478,160 615.598,158.037 617.717,160 619.837,158.037 621.957,160 624.076,160 626.196,160 628.315,160 630.435,160 632.554,160 634.674,159.018 636.793,144.294 638.913,159.018 641.033,160 643.152,139.387 645.272,121.718 647.391,120.736 649.511,147.73 651.63,146.258 653.75,157.055 655.87,160 657.989,160 660.109,160 662.228,160 664.348,160 666.467,160 668.587,160 670.707,160 672.826,157.546 674.946,153.62 677.065,148.712 679.185,160 681.304,149.202 683.424,149.693 685.543,134.969 687.663,146.258 689.783,145.767 691.902,146.258 694.022,150.184 696.141,154.11 698.261,154.601 700.38,154.11 702.5,157.055 704.62,156.564 706.739,159.509 708.859,160 710.978,160 713.098,160 715.217,160 717.337,160 719.457,160 721.576,160 723.696,160 725.815,158.528 727.935,159.509 730.054,160 732.174,160 734.293,159.509 736.413,142.331 738.533,144.785 740.652,157.055 742.772,158.528 744.891,160 747.011,160 749.13,159.509 751.25,160 753.37,160 755.489,159.018 757.609,153.62 759.728,159.018 761.848,160 763.967,160 766.087,149.693 768.207,155.583 770.326,158.528 772.446,156.074 774.565,155.583 776.685,159.509 778.804,159.509 780.924,160 783.043,160 785.163,151.656 787.283,140.859 789.402,155.092 791.522,160 793.641,141.84 795.761,150.184 797.88,152.147 800,160" fill="none" stroke="var(--accent)" stroke-width="1.5" stroke-linecap="round" stroke-linejoin="round"/>
</svg>

