<svg xmlns="http://www.w3.org/2000/svg" width="820" height="180" viewBox="0 0 820 180">

<style>
  :root {
    --bg:        #f6f8fa;
    --card:      #ffffff;
    --border:    #d0d7de;
    --primary:   #1f2328;
    --secondary: #636c76;
    --muted:     #8c959f;
    --accent:    #0969da;
    --green:     #1a7f37;
    --yellow:    #9a6700;
    --red:       #cf222e;
    --hover:     #f3f4f6;
    --spark-bg:  #f0f3f6;
    --spark:     #0969da;
    --pill:      #eaf1fb;
    --pill-txt:  #0969da;
    --div:       #d0d7de;
  }
  @media (prefers-color-scheme: dark) {
    :root {
      --bg:        #0d1117;
      --card:      #161b22;
      --border:    #30363d;
      --primary:   #e6edf3;
      --secondary: #848d97;
      --muted:     #7d8590;
      --accent:    #2f81f7;
      --green:     #3fb950;
      --yellow:    #d29922;
      --red:       #f85149;
      --hover:     #21262d;
      --spark-bg:  #1c2128;
      --spark:     #58a6ff;
      --pill:      #1c2d3f;
      --pill-txt:  #58a6ff;
      --div:       #30363d;
    }
  }
  
  .bg          { fill: var(--bg); }
  .card        { fill: var(--card); stroke: var(--border); stroke-width: 1; }
  .lang-pill   { fill: var(--pill); }
  .spark-bg    { fill: var(--spark-bg); }
  .spark-line  { stroke: var(--spark); }
  .divider     { stroke: var(--div); stroke-width: 1; }
  .clr-primary   { fill: var(--primary); }
  .clr-secondary { fill: var(--secondary); }
  .clr-muted     { fill: var(--muted); }
  .clr-accent    { fill: var(--accent); }
  .clr-green     { fill: var(--green); }
  .clr-yellow    { fill: var(--yellow); }
  .clr-red       { fill: var(--red); }
  .txt-bold    { font-weight: 600; }
  svg text     { font-family: -apple-system, BlinkMacSystemFont, "Segoe UI", Helvetica, Arial, sans-serif; }
</style>

<rect x="0" y="0" width="820" height="180" rx="8" class="card"/>
  <text x="20" y="24" class="clr-primary txt-bold" text-anchor="start" font-size="14">Contribution History &amp; Activity</text>
  <line x1="20" y1="36" x2="800" y2="36" class="divider"/>
  <text x="20" y="60" class="clr-muted" text-anchor="start" font-size="12">Years Active:</text>
  <text x="100" y="60" class="clr-primary txt-bold" text-anchor="start" font-size="12">5.6</text>
  <text x="160" y="60" class="clr-muted" text-anchor="start" font-size="12">Commits (Last Year):</text>
  <text x="290" y="60" class="clr-primary txt-bold" text-anchor="start" font-size="12">1067</text>
  <text x="360" y="60" class="clr-muted" text-anchor="start" font-size="12">Highest Daily:</text>
  <text x="450" y="60" class="clr-primary txt-bold" text-anchor="start" font-size="12">163</text>
  <polygon points="20,160 20,160 22.1253,160 24.2507,160 26.376,160 28.5014,160 30.6267,160 32.752,153.62 34.8774,160 37.0027,160 39.1281,160 41.2534,154.11 43.3787,157.055 45.5041,160 47.6294,160 49.7548,160 51.8801,160 54.0054,160 56.1308,160 58.2561,159.018 60.3815,160 62.5068,160 64.6322,160 66.7575,160 68.8828,160 71.0082,160 73.1335,160 75.2589,160 77.3842,160 79.5095,160 81.6349,160 83.7602,160 85.8856,160 88.0109,160 90.1362,160 92.2616,160 94.3869,160 96.5123,160 98.6376,160 100.763,160 102.888,160 105.014,160 107.139,160 109.264,160 111.39,160 113.515,160 115.64,160 117.766,160 119.891,160 122.016,160 124.142,160 126.267,160 128.392,160 130.518,160 132.643,159.509 134.768,160 136.894,160 139.019,160 141.144,160 143.27,160 145.395,160 147.52,160 149.646,160 151.771,160 153.896,160 156.022,160 158.147,160 160.272,160 162.398,160 164.523,160 166.649,160 168.774,160 170.899,160 173.025,160 175.15,160 177.275,160 179.401,160 181.526,160 183.651,160 185.777,160 187.902,159.018 190.027,160 192.153,160 194.278,160 196.403,145.276 198.529,155.583 200.654,157.546 202.779,155.583 204.905,157.055 207.03,156.074 209.155,160 211.281,160 213.406,160 215.531,158.037 217.657,159.018 219.782,158.037 221.907,156.564 224.033,160 226.158,158.528 228.283,156.564 230.409,160 232.534,154.11 234.659,149.202 236.785,149.202 238.91,153.62 241.035,141.84 243.161,154.601 245.286,160 247.411,154.601 249.537,160 251.662,160 253.787,157.546 255.913,148.221 258.038,159.018 260.163,160 262.289,158.037 264.414,160 266.54,159.509 268.665,160 270.79,160 272.916,160 275.041,160 277.166,151.656 279.292,155.583 281.417,156.074 283.542,157.546 285.668,150.675 287.793,160 289.918,158.037 292.044,156.564 294.169,158.037 296.294,156.074 298.42,160 300.545,154.11 302.67,160 304.796,159.509 306.921,160 309.046,160 311.172,157.546 313.297,160 315.422,160 317.548,160 319.673,160 321.798,160 323.924,160 326.049,160 328.174,160 330.3,160 332.425,160 334.55,160 336.676,160 338.801,160 340.926,160 343.052,160 345.177,160 347.302,154.601 349.428,158.037 351.553,160 353.678,160 355.804,160 357.929,160 360.054,160 362.18,160 364.305,160 366.431,160 368.556,160 370.681,160 372.807,160 374.932,160 377.057,160 379.183,160 381.308,160 383.433,160 385.559,160 387.684,160 389.809,160 391.935,160 394.06,160 396.185,157.055 398.311,160 400.436,160 402.561,160 404.687,160 406.812,155.092 408.937,160 411.063,160 413.188,160 415.313,160 417.439,137.423 419.564,153.62 421.689,80 423.815,155.092 425.94,149.202 428.065,155.092 430.191,158.037 432.316,158.528 434.441,159.509 436.567,156.074 438.692,160 440.817,159.018 442.943,160 445.068,159.509 447.193,159.018 449.319,159.509 451.444,160 453.569,158.528 455.695,160 457.82,159.018 459.946,159.018 462.071,157.546 464.196,157.055 466.322,160 468.447,160 470.572,159.509 472.698,159.509 474.823,158.528 476.948,159.509 479.074,157.055 481.199,157.055 483.324,159.018 485.45,158.528 487.575,147.239 489.7,157.055 491.826,129.08 493.951,147.239 496.076,153.129 498.202,160 500.327,160 502.452,160 504.578,151.656 506.703,158.528 508.828,160 510.954,160 513.079,138.405 515.204,158.528 517.33,160 519.455,160 521.58,160 523.706,160 525.831,160 527.956,160 530.082,160 532.207,160 534.332,160 536.458,160 538.583,160 540.708,160 542.834,160 544.959,160 547.084,160 549.21,159.509 551.335,160 553.46,160 555.586,160 557.711,160 559.837,160 561.962,160 564.087,160 566.213,160 568.338,160 570.463,159.509 572.589,158.037 574.714,160 576.839,160 578.965,160 581.09,160 583.215,160 585.341,160 587.466,160 589.591,160 591.717,160 593.842,160 595.967,160 598.093,159.509 600.218,158.037 602.343,157.055 604.469,160 606.594,160 608.719,160 610.845,156.564 612.97,157.546 615.095,147.239 617.221,160 619.346,160 621.471,160 623.597,155.092 625.722,148.221 627.847,160 629.973,160 632.098,158.037 634.223,160 636.349,158.037 638.474,160 640.599,160 642.725,160 644.85,160 646.975,160 649.101,160 651.226,159.018 653.351,144.294 655.477,159.018 657.602,160 659.728,139.387 661.853,121.718 663.978,120.736 666.104,147.73 668.229,146.258 670.354,157.055 672.48,160 674.605,160 676.73,160 678.856,160 680.981,160 683.106,160 685.232,160 687.357,160 689.482,157.546 691.608,153.62 693.733,148.712 695.858,160 697.984,149.202 700.109,149.693 702.234,134.969 704.36,146.258 706.485,145.767 708.61,146.258 710.736,150.184 712.861,154.11 714.986,154.601 717.112,154.11 719.237,157.055 721.362,156.564 723.488,159.509 725.613,160 727.738,160 729.864,160 731.989,160 734.114,160 736.24,160 738.365,160 740.49,160 742.616,158.528 744.741,159.509 746.866,160 748.992,160 751.117,159.509 753.243,142.331 755.368,144.785 757.493,157.055 759.619,158.528 761.744,160 763.869,160 765.995,159.509 768.12,160 770.245,160 772.371,159.018 774.496,153.62 776.621,159.018 778.747,160 780.872,160 782.997,149.693 785.123,155.583 787.248,158.528 789.373,156.074 791.499,155.583 793.624,159.509 795.749,159.509 797.875,160 800,160 800,160" fill="var(--pill)" opacity="0.6"/>
  <polyline points="20,160 22.1253,160 24.2507,160 26.376,160 28.5014,160 30.6267,160 32.752,153.62 34.8774,160 37.0027,160 39.1281,160 41.2534,154.11 43.3787,157.055 45.5041,160 47.6294,160 49.7548,160 51.8801,160 54.0054,160 56.1308,160 58.2561,159.018 60.3815,160 62.5068,160 64.6322,160 66.7575,160 68.8828,160 71.0082,160 73.1335,160 75.2589,160 77.3842,160 79.5095,160 81.6349,160 83.7602,160 85.8856,160 88.0109,160 90.1362,160 92.2616,160 94.3869,160 96.5123,160 98.6376,160 100.763,160 102.888,160 105.014,160 107.139,160 109.264,160 111.39,160 113.515,160 115.64,160 117.766,160 119.891,160 122.016,160 124.142,160 126.267,160 128.392,160 130.518,160 132.643,159.509 134.768,160 136.894,160 139.019,160 141.144,160 143.27,160 145.395,160 147.52,160 149.646,160 151.771,160 153.896,160 156.022,160 158.147,160 160.272,160 162.398,160 164.523,160 166.649,160 168.774,160 170.899,160 173.025,160 175.15,160 177.275,160 179.401,160 181.526,160 183.651,160 185.777,160 187.902,159.018 190.027,160 192.153,160 194.278,160 196.403,145.276 198.529,155.583 200.654,157.546 202.779,155.583 204.905,157.055 207.03,156.074 209.155,160 211.281,160 213.406,160 215.531,158.037 217.657,159.018 219.782,158.037 221.907,156.564 224.033,160 226.158,158.528 228.283,156.564 230.409,160 232.534,154.11 234.659,149.202 236.785,149.202 238.91,153.62 241.035,141.84 243.161,154.601 245.286,160 247.411,154.601 249.537,160 251.662,160 253.787,157.546 255.913,148.221 258.038,159.018 260.163,160 262.289,158.037 264.414,160 266.54,159.509 268.665,160 270.79,160 272.916,160 275.041,160 277.166,151.656 279.292,155.583 281.417,156.074 283.542,157.546 285.668,150.675 287.793,160 289.918,158.037 292.044,156.564 294.169,158.037 296.294,156.074 298.42,160 300.545,154.11 302.67,160 304.796,159.509 306.921,160 309.046,160 311.172,157.546 313.297,160 315.422,160 317.548,160 319.673,160 321.798,160 323.924,160 326.049,160 328.174,160 330.3,160 332.425,160 334.55,160 336.676,160 338.801,160 340.926,160 343.052,160 345.177,160 347.302,154.601 349.428,158.037 351.553,160 353.678,160 355.804,160 357.929,160 360.054,160 362.18,160 364.305,160 366.431,160 368.556,160 370.681,160 372.807,160 374.932,160 377.057,160 379.183,160 381.308,160 383.433,160 385.559,160 387.684,160 389.809,160 391.935,160 394.06,160 396.185,157.055 398.311,160 400.436,160 402.561,160 404.687,160 406.812,155.092 408.937,160 411.063,160 413.188,160 415.313,160 417.439,137.423 419.564,153.62 421.689,80 423.815,155.092 425.94,149.202 428.065,155.092 430.191,158.037 432.316,158.528 434.441,159.509 436.567,156.074 438.692,160 440.817,159.018 442.943,160 445.068,159.509 447.193,159.018 449.319,159.509 451.444,160 453.569,158.528 455.695,160 457.82,159.018 459.946,159.018 462.071,157.546 464.196,157.055 466.322,160 468.447,160 470.572,159.509 472.698,159.509 474.823,158.528 476.948,159.509 479.074,157.055 481.199,157.055 483.324,159.018 485.45,158.528 487.575,147.239 489.7,157.055 491.826,129.08 493.951,147.239 496.076,153.129 498.202,160 500.327,160 502.452,160 504.578,151.656 506.703,158.528 508.828,160 510.954,160 513.079,138.405 515.204,158.528 517.33,160 519.455,160 521.58,160 523.706,160 525.831,160 527.956,160 530.082,160 532.207,160 534.332,160 536.458,160 538.583,160 540.708,160 542.834,160 544.959,160 547.084,160 549.21,159.509 551.335,160 553.46,160 555.586,160 557.711,160 559.837,160 561.962,160 564.087,160 566.213,160 568.338,160 570.463,159.509 572.589,158.037 574.714,160 576.839,160 578.965,160 581.09,160 583.215,160 585.341,160 587.466,160 589.591,160 591.717,160 593.842,160 595.967,160 598.093,159.509 600.218,158.037 602.343,157.055 604.469,160 606.594,160 608.719,160 610.845,156.564 612.97,157.546 615.095,147.239 617.221,160 619.346,160 621.471,160 623.597,155.092 625.722,148.221 627.847,160 629.973,160 632.098,158.037 634.223,160 636.349,158.037 638.474,160 640.599,160 642.725,160 644.85,160 646.975,160 649.101,160 651.226,159.018 653.351,144.294 655.477,159.018 657.602,160 659.728,139.387 661.853,121.718 663.978,120.736 666.104,147.73 668.229,146.258 670.354,157.055 672.48,160 674.605,160 676.73,160 678.856,160 680.981,160 683.106,160 685.232,160 687.357,160 689.482,157.546 691.608,153.62 693.733,148.712 695.858,160 697.984,149.202 700.109,149.693 702.234,134.969 704.36,146.258 706.485,145.767 708.61,146.258 710.736,150.184 712.861,154.11 714.986,154.601 717.112,154.11 719.237,157.055 721.362,156.564 723.488,159.509 725.613,160 727.738,160 729.864,160 731.989,160 734.114,160 736.24,160 738.365,160 740.49,160 742.616,158.528 744.741,159.509 746.866,160 748.992,160 751.117,159.509 753.243,142.331 755.368,144.785 757.493,157.055 759.619,158.528 761.744,160 763.869,160 765.995,159.509 768.12,160 770.245,160 772.371,159.018 774.496,153.62 776.621,159.018 778.747,160 780.872,160 782.997,149.693 785.123,155.583 787.248,158.528 789.373,156.074 791.499,155.583 793.624,159.509 795.749,159.509 797.875,160 800,160" fill="none" stroke="var(--accent)" stroke-width="1.5" stroke-linecap="round" stroke-linejoin="round"/>
</svg>

