<svg xmlns="http://www.w3.org/2000/svg" width="820" height="180" viewBox="0 0 820 180">

<style>
  :root {
    --bg:        #f6f8fa;
    --card:      #ffffff;
    --border:    #d0d7de;
    --primary:   #1f2328;
    --secondary: #636c76;
    --muted:     #8c959f;
    --accent:    #0969da;
    --green:     #1a7f37;
    --yellow:    #9a6700;
    --red:       #cf222e;
    --hover:     #f3f4f6;
    --spark-bg:  #f0f3f6;
    --spark:     #0969da;
    --pill:      #eaf1fb;
    --pill-txt:  #0969da;
    --div:       #d0d7de;
  }
  @media (prefers-color-scheme: dark) {
    :root {
      --bg:        #0d1117;
      --card:      #161b22;
      --border:    #30363d;
      --primary:   #e6edf3;
      --secondary: #848d97;
      --muted:     #7d8590;
      --accent:    #2f81f7;
      --green:     #3fb950;
      --yellow:    #d29922;
      --red:       #f85149;
      --hover:     #21262d;
      --spark-bg:  #1c2128;
      --spark:     #58a6ff;
      --pill:      #1c2d3f;
      --pill-txt:  #58a6ff;
      --div:       #30363d;
    }
  }
  
  .bg          { fill: var(--bg); }
  .card        { fill: var(--card); stroke: var(--border); stroke-width: 1; }
  .lang-pill   { fill: var(--pill); }
  .spark-bg    { fill: var(--spark-bg); }
  .spark-line  { stroke: var(--spark); }
  .divider     { stroke: var(--div); stroke-width: 1; }
  .clr-primary   { fill: var(--primary); }
  .clr-secondary { fill: var(--secondary); }
  .clr-muted     { fill: var(--muted); }
  .clr-accent    { fill: var(--accent); }
  .clr-green     { fill: var(--green); }
  .clr-yellow    { fill: var(--yellow); }
  .clr-red       { fill: var(--red); }
  .txt-bold    { font-weight: 600; }
  svg text     { font-family: -apple-system, BlinkMacSystemFont, "Segoe UI", Helvetica, Arial, sans-serif; }
</style>

<rect x="0" y="0" width="820" height="180" rx="8" class="card"/>
  <text x="20" y="24" class="clr-primary txt-bold" text-anchor="start" font-size="14">Contribution History &amp; Activity</text>
  <line x1="20" y1="36" x2="800" y2="36" class="divider"/>
  <text x="20" y="60" class="clr-muted" text-anchor="start" font-size="12">Years Active:</text>
  <text x="100" y="60" class="clr-primary txt-bold" text-anchor="start" font-size="12">5.6</text>
  <text x="160" y="60" class="clr-muted" text-anchor="start" font-size="12">Commits (Last Year):</text>
  <text x="290" y="60" class="clr-primary txt-bold" text-anchor="start" font-size="12">1170</text>
  <text x="360" y="60" class="clr-muted" text-anchor="start" font-size="12">Highest Daily:</text>
  <text x="450" y="60" class="clr-primary txt-bold" text-anchor="start" font-size="12">163</text>
  <polygon points="20,160 20,160 22.137,160 24.274,160 26.411,160 28.5479,160 30.6849,160 32.8219,160 34.9589,160 37.0959,160 39.2329,160 41.3699,160 43.5068,160 45.6438,160 47.7808,160 49.9178,160 52.0548,160 54.1918,160 56.3288,160 58.4658,160 60.6027,160 62.7397,160 64.8767,160 67.0137,160 69.1507,160 71.2877,160 73.4247,160 75.5616,160 77.6986,160 79.8356,160 81.9726,160 84.1096,160 86.2466,160 88.3836,159.509 90.5205,160 92.6575,160 94.7945,160 96.9315,160 99.0685,160 101.205,160 103.342,160 105.479,160 107.616,160 109.753,160 111.89,160 114.027,160 116.164,160 118.301,160 120.438,160 122.575,160 124.712,160 126.849,160 128.986,160 131.123,160 133.26,160 135.397,160 137.534,160 139.671,160 141.808,160 143.945,159.018 146.082,160 148.219,160 150.356,160 152.493,145.276 154.63,155.583 156.767,157.546 158.904,155.583 161.041,157.055 163.178,156.074 165.315,160 167.452,160 169.589,160 171.726,158.037 173.863,159.018 176,158.037 178.137,156.564 180.274,160 182.411,158.528 184.548,156.564 186.685,160 188.822,154.11 190.959,149.202 193.096,149.202 195.233,153.62 197.37,141.84 199.507,154.601 201.644,160 203.781,154.601 205.918,160 208.055,160 210.192,157.546 212.329,148.221 214.466,159.018 216.603,160 218.74,158.037 220.877,160 223.014,159.509 225.151,160 227.288,160 229.425,160 231.562,160 233.699,151.656 235.836,155.583 237.973,156.074 240.11,157.546 242.247,150.675 244.384,160 246.521,158.037 248.658,156.564 250.795,158.037 252.932,156.074 255.068,160 257.205,154.11 259.342,160 261.479,159.509 263.616,160 265.753,160 267.89,157.546 270.027,160 272.164,160 274.301,160 276.438,160 278.575,160 280.712,160 282.849,160 284.986,160 287.123,160 289.26,160 291.397,160 293.534,160 295.671,160 297.808,160 299.945,160 302.082,160 304.219,154.601 306.356,158.037 308.493,160 310.63,160 312.767,160 314.904,160 317.041,160 319.178,160 321.315,160 323.452,160 325.589,160 327.726,160 329.863,160 332,160 334.137,160 336.274,160 338.411,160 340.548,160 342.685,160 344.822,160 346.959,160 349.096,160 351.233,160 353.37,157.055 355.507,160 357.644,160 359.781,160 361.918,160 364.055,155.092 366.192,160 368.329,160 370.466,160 372.603,160 374.74,137.423 376.877,153.62 379.014,80 381.151,155.092 383.288,149.202 385.425,155.092 387.562,158.037 389.699,158.528 391.836,159.509 393.973,156.074 396.11,160 398.247,159.018 400.384,160 402.521,159.509 404.658,159.018 406.795,159.509 408.932,160 411.068,158.528 413.205,160 415.342,159.018 417.479,159.018 419.616,157.546 421.753,157.055 423.89,160 426.027,160 428.164,159.509 430.301,159.509 432.438,158.528 434.575,159.509 436.712,157.055 438.849,157.055 440.986,159.018 443.123,158.528 445.26,147.239 447.397,157.055 449.534,129.08 451.671,147.239 453.808,153.129 455.945,160 458.082,160 460.219,160 462.356,151.656 464.493,158.528 466.63,160 468.767,160 470.904,138.405 473.041,158.528 475.178,160 477.315,160 479.452,160 481.589,160 483.726,160 485.863,160 488,160 490.137,160 492.274,160 494.411,160 496.548,160 498.685,160 500.822,160 502.959,160 505.096,160 507.233,159.509 509.37,160 511.507,160 513.644,160 515.781,160 517.918,160 520.055,160 522.192,160 524.329,160 526.466,160 528.603,159.509 530.74,158.037 532.877,160 535.014,160 537.151,160 539.288,160 541.425,160 543.562,160 545.699,160 547.836,160 549.973,160 552.11,160 554.247,160 556.384,159.509 558.521,158.037 560.658,157.055 562.795,160 564.932,160 567.068,160 569.205,156.564 571.342,157.546 573.479,147.239 575.616,160 577.753,160 579.89,160 582.027,155.092 584.164,148.221 586.301,160 588.438,160 590.575,158.037 592.712,160 594.849,158.037 596.986,160 599.123,160 601.26,160 603.397,160 605.534,160 607.671,160 609.808,159.018 611.945,144.294 614.082,159.018 616.219,160 618.356,139.387 620.493,121.718 622.63,120.736 624.767,147.73 626.904,146.258 629.041,157.055 631.178,160 633.315,160 635.452,160 637.589,160 639.726,160 641.863,160 644,160 646.137,160 648.274,157.546 650.411,153.62 652.548,148.712 654.685,160 656.822,149.202 658.959,149.693 661.096,134.969 663.233,146.258 665.37,145.767 667.507,146.258 669.644,150.184 671.781,154.11 673.918,154.601 676.055,154.11 678.192,157.055 680.329,156.564 682.466,159.509 684.603,160 686.74,160 688.877,160 691.014,160 693.151,160 695.288,160 697.425,160 699.562,160 701.699,158.528 703.836,159.509 705.973,160 708.11,160 710.247,159.509 712.384,142.331 714.521,144.785 716.658,157.055 718.795,158.528 720.932,160 723.068,160 725.205,159.509 727.342,160 729.479,160 731.616,159.018 733.753,153.62 735.89,159.018 738.027,160 740.164,160 742.301,149.693 744.438,155.583 746.575,158.528 748.712,156.074 750.849,155.583 752.986,159.509 755.123,159.509 757.26,160 759.397,160 761.534,151.656 763.671,140.859 765.808,155.092 767.945,160 770.082,141.84 772.219,150.184 774.356,152.147 776.493,160 778.63,160 780.767,160 782.904,160 785.041,160 787.178,160 789.315,160 791.452,160 793.589,160 795.726,160 797.863,160 800,160 800,160" fill="var(--pill)" opacity="0.6"/>
  <polyline points="20,160 22.137,160 24.274,160 26.411,160 28.5479,160 30.6849,160 32.8219,160 34.9589,160 37.0959,160 39.2329,160 41.3699,160 43.5068,160 45.6438,160 47.7808,160 49.9178,160 52.0548,160 54.1918,160 56.3288,160 58.4658,160 60.6027,160 62.7397,160 64.8767,160 67.0137,160 69.1507,160 71.2877,160 73.4247,160 75.5616,160 77.6986,160 79.8356,160 81.9726,160 84.1096,160 86.2466,160 88.3836,159.509 90.5205,160 92.6575,160 94.7945,160 96.9315,160 99.0685,160 101.205,160 103.342,160 105.479,160 107.616,160 109.753,160 111.89,160 114.027,160 116.164,160 118.301,160 120.438,160 122.575,160 124.712,160 126.849,160 128.986,160 131.123,160 133.26,160 135.397,160 137.534,160 139.671,160 141.808,160 143.945,159.018 146.082,160 148.219,160 150.356,160 152.493,145.276 154.63,155.583 156.767,157.546 158.904,155.583 161.041,157.055 163.178,156.074 165.315,160 167.452,160 169.589,160 171.726,158.037 173.863,159.018 176,158.037 178.137,156.564 180.274,160 182.411,158.528 184.548,156.564 186.685,160 188.822,154.11 190.959,149.202 193.096,149.202 195.233,153.62 197.37,141.84 199.507,154.601 201.644,160 203.781,154.601 205.918,160 208.055,160 210.192,157.546 212.329,148.221 214.466,159.018 216.603,160 218.74,158.037 220.877,160 223.014,159.509 225.151,160 227.288,160 229.425,160 231.562,160 233.699,151.656 235.836,155.583 237.973,156.074 240.11,157.546 242.247,150.675 244.384,160 246.521,158.037 248.658,156.564 250.795,158.037 252.932,156.074 255.068,160 257.205,154.11 259.342,160 261.479,159.509 263.616,160 265.753,160 267.89,157.546 270.027,160 272.164,160 274.301,160 276.438,160 278.575,160 280.712,160 282.849,160 284.986,160 287.123,160 289.26,160 291.397,160 293.534,160 295.671,160 297.808,160 299.945,160 302.082,160 304.219,154.601 306.356,158.037 308.493,160 310.63,160 312.767,160 314.904,160 317.041,160 319.178,160 321.315,160 323.452,160 325.589,160 327.726,160 329.863,160 332,160 334.137,160 336.274,160 338.411,160 340.548,160 342.685,160 344.822,160 346.959,160 349.096,160 351.233,160 353.37,157.055 355.507,160 357.644,160 359.781,160 361.918,160 364.055,155.092 366.192,160 368.329,160 370.466,160 372.603,160 374.74,137.423 376.877,153.62 379.014,80 381.151,155.092 383.288,149.202 385.425,155.092 387.562,158.037 389.699,158.528 391.836,159.509 393.973,156.074 396.11,160 398.247,159.018 400.384,160 402.521,159.509 404.658,159.018 406.795,159.509 408.932,160 411.068,158.528 413.205,160 415.342,159.018 417.479,159.018 419.616,157.546 421.753,157.055 423.89,160 426.027,160 428.164,159.509 430.301,159.509 432.438,158.528 434.575,159.509 436.712,157.055 438.849,157.055 440.986,159.018 443.123,158.528 445.26,147.239 447.397,157.055 449.534,129.08 451.671,147.239 453.808,153.129 455.945,160 458.082,160 460.219,160 462.356,151.656 464.493,158.528 466.63,160 468.767,160 470.904,138.405 473.041,158.528 475.178,160 477.315,160 479.452,160 481.589,160 483.726,160 485.863,160 488,160 490.137,160 492.274,160 494.411,160 496.548,160 498.685,160 500.822,160 502.959,160 505.096,160 507.233,159.509 509.37,160 511.507,160 513.644,160 515.781,160 517.918,160 520.055,160 522.192,160 524.329,160 526.466,160 528.603,159.509 530.74,158.037 532.877,160 535.014,160 537.151,160 539.288,160 541.425,160 543.562,160 545.699,160 547.836,160 549.973,160 552.11,160 554.247,160 556.384,159.509 558.521,158.037 560.658,157.055 562.795,160 564.932,160 567.068,160 569.205,156.564 571.342,157.546 573.479,147.239 575.616,160 577.753,160 579.89,160 582.027,155.092 584.164,148.221 586.301,160 588.438,160 590.575,158.037 592.712,160 594.849,158.037 596.986,160 599.123,160 601.26,160 603.397,160 605.534,160 607.671,160 609.808,159.018 611.945,144.294 614.082,159.018 616.219,160 618.356,139.387 620.493,121.718 622.63,120.736 624.767,147.73 626.904,146.258 629.041,157.055 631.178,160 633.315,160 635.452,160 637.589,160 639.726,160 641.863,160 644,160 646.137,160 648.274,157.546 650.411,153.62 652.548,148.712 654.685,160 656.822,149.202 658.959,149.693 661.096,134.969 663.233,146.258 665.37,145.767 667.507,146.258 669.644,150.184 671.781,154.11 673.918,154.601 676.055,154.11 678.192,157.055 680.329,156.564 682.466,159.509 684.603,160 686.74,160 688.877,160 691.014,160 693.151,160 695.288,160 697.425,160 699.562,160 701.699,158.528 703.836,159.509 705.973,160 708.11,160 710.247,159.509 712.384,142.331 714.521,144.785 716.658,157.055 718.795,158.528 720.932,160 723.068,160 725.205,159.509 727.342,160 729.479,160 731.616,159.018 733.753,153.62 735.89,159.018 738.027,160 740.164,160 742.301,149.693 744.438,155.583 746.575,158.528 748.712,156.074 750.849,155.583 752.986,159.509 755.123,159.509 757.26,160 759.397,160 761.534,151.656 763.671,140.859 765.808,155.092 767.945,160 770.082,141.84 772.219,150.184 774.356,152.147 776.493,160 778.63,160 780.767,160 782.904,160 785.041,160 787.178,160 789.315,160 791.452,160 793.589,160 795.726,160 797.863,160 800,160" fill="none" stroke="var(--accent)" stroke-width="1.5" stroke-linecap="round" stroke-linejoin="round"/>
</svg>

