<svg xmlns="http://www.w3.org/2000/svg" width="820" height="180" viewBox="0 0 820 180">

<style>
  :root {
    --bg:        #f6f8fa;
    --card:      #ffffff;
    --border:    #d0d7de;
    --primary:   #1f2328;
    --secondary: #636c76;
    --muted:     #8c959f;
    --accent:    #0969da;
    --green:     #1a7f37;
    --yellow:    #9a6700;
    --red:       #cf222e;
    --hover:     #f3f4f6;
    --spark-bg:  #f0f3f6;
    --spark:     #0969da;
    --pill:      #eaf1fb;
    --pill-txt:  #0969da;
    --div:       #d0d7de;
  }
  @media (prefers-color-scheme: dark) {
    :root {
      --bg:        #0d1117;
      --card:      #161b22;
      --border:    #30363d;
      --primary:   #e6edf3;
      --secondary: #848d97;
      --muted:     #7d8590;
      --accent:    #2f81f7;
      --green:     #3fb950;
      --yellow:    #d29922;
      --red:       #f85149;
      --hover:     #21262d;
      --spark-bg:  #1c2128;
      --spark:     #58a6ff;
      --pill:      #1c2d3f;
      --pill-txt:  #58a6ff;
      --div:       #30363d;
    }
  }
  
  .bg          { fill: var(--bg); }
  .card        { fill: var(--card); stroke: var(--border); stroke-width: 1; }
  .lang-pill   { fill: var(--pill); }
  .spark-bg    { fill: var(--spark-bg); }
  .spark-line  { stroke: var(--spark); }
  .divider     { stroke: var(--div); stroke-width: 1; }
  .clr-primary   { fill: var(--primary); }
  .clr-secondary { fill: var(--secondary); }
  .clr-muted     { fill: var(--muted); }
  .clr-accent    { fill: var(--accent); }
  .clr-green     { fill: var(--green); }
  .clr-yellow    { fill: var(--yellow); }
  .clr-red       { fill: var(--red); }
  .txt-bold    { font-weight: 600; }
  svg text     { font-family: -apple-system, BlinkMacSystemFont, "Segoe UI", Helvetica, Arial, sans-serif; }
</style>

<rect x="0" y="0" width="820" height="180" rx="8" class="card"/>
  <text x="20" y="24" class="clr-primary txt-bold" text-anchor="start" font-size="14">Contribution History &amp; Activity</text>
  <line x1="20" y1="36" x2="800" y2="36" class="divider"/>
  <text x="20" y="60" class="clr-muted" text-anchor="start" font-size="12">Years Active:</text>
  <text x="100" y="60" class="clr-primary txt-bold" text-anchor="start" font-size="12">5.7</text>
  <text x="160" y="60" class="clr-muted" text-anchor="start" font-size="12">Commits (Last Year):</text>
  <text x="290" y="60" class="clr-primary txt-bold" text-anchor="start" font-size="12">1191</text>
  <text x="360" y="60" class="clr-muted" text-anchor="start" font-size="12">Highest Daily:</text>
  <text x="450" y="60" class="clr-primary txt-bold" text-anchor="start" font-size="12">163</text>
  <polygon points="20,160 20,160 22.137,160 24.274,160 26.411,160 28.5479,160 30.6849,160 32.8219,160 34.9589,160 37.0959,160 39.2329,160 41.3699,160 43.5068,159.509 45.6438,160 47.7808,160 49.9178,160 52.0548,160 54.1918,160 56.3288,160 58.4658,160 60.6027,160 62.7397,160 64.8767,160 67.0137,160 69.1507,160 71.2877,160 73.4247,160 75.5616,160 77.6986,160 79.8356,160 81.9726,160 84.1096,160 86.2466,160 88.3836,160 90.5205,160 92.6575,160 94.7945,160 96.9315,160 99.0685,159.018 101.205,160 103.342,160 105.479,160 107.616,145.276 109.753,155.583 111.89,157.546 114.027,155.583 116.164,157.055 118.301,156.074 120.438,160 122.575,160 124.712,160 126.849,158.037 128.986,159.018 131.123,158.037 133.26,156.564 135.397,160 137.534,158.528 139.671,156.564 141.808,160 143.945,154.11 146.082,149.202 148.219,149.202 150.356,153.62 152.493,141.84 154.63,154.601 156.767,160 158.904,154.601 161.041,160 163.178,160 165.315,157.546 167.452,148.221 169.589,159.018 171.726,160 173.863,158.037 176,160 178.137,159.509 180.274,160 182.411,160 184.548,160 186.685,160 188.822,151.656 190.959,155.583 193.096,156.074 195.233,157.546 197.37,150.675 199.507,160 201.644,158.037 203.781,156.564 205.918,158.037 208.055,156.074 210.192,160 212.329,154.11 214.466,160 216.603,159.509 218.74,160 220.877,160 223.014,157.546 225.151,160 227.288,160 229.425,160 231.562,160 233.699,160 235.836,160 237.973,160 240.11,160 242.247,160 244.384,160 246.521,160 248.658,160 250.795,160 252.932,160 255.068,160 257.205,160 259.342,154.601 261.479,158.037 263.616,160 265.753,160 267.89,160 270.027,160 272.164,160 274.301,160 276.438,160 278.575,160 280.712,160 282.849,160 284.986,160 287.123,160 289.26,160 291.397,160 293.534,160 295.671,160 297.808,160 299.945,160 302.082,160 304.219,160 306.356,160 308.493,157.055 310.63,160 312.767,160 314.904,160 317.041,160 319.178,155.092 321.315,160 323.452,160 325.589,160 327.726,160 329.863,137.423 332,153.62 334.137,80 336.274,155.092 338.411,149.202 340.548,155.092 342.685,158.037 344.822,158.528 346.959,159.509 349.096,156.074 351.233,160 353.37,159.018 355.507,160 357.644,159.509 359.781,159.018 361.918,159.509 364.055,160 366.192,158.528 368.329,160 370.466,159.018 372.603,159.018 374.74,157.546 376.877,157.055 379.014,160 381.151,160 383.288,159.509 385.425,159.509 387.562,158.528 389.699,159.509 391.836,157.055 393.973,157.055 396.11,159.018 398.247,158.528 400.384,147.239 402.521,157.055 404.658,129.08 406.795,147.239 408.932,153.129 411.068,160 413.205,160 415.342,160 417.479,151.656 419.616,158.528 421.753,160 423.89,160 426.027,138.405 428.164,158.528 430.301,160 432.438,160 434.575,160 436.712,160 438.849,160 440.986,160 443.123,160 445.26,160 447.397,160 449.534,160 451.671,160 453.808,160 455.945,160 458.082,160 460.219,160 462.356,159.509 464.493,160 466.63,160 468.767,160 470.904,160 473.041,160 475.178,160 477.315,160 479.452,160 481.589,160 483.726,159.509 485.863,158.037 488,160 490.137,160 492.274,160 494.411,160 496.548,160 498.685,160 500.822,160 502.959,160 505.096,160 507.233,160 509.37,160 511.507,159.509 513.644,158.037 515.781,157.055 517.918,160 520.055,160 522.192,160 524.329,156.564 526.466,157.546 528.603,147.239 530.74,160 532.877,160 535.014,160 537.151,155.092 539.288,148.221 541.425,160 543.562,160 545.699,158.037 547.836,160 549.973,158.037 552.11,160 554.247,160 556.384,160 558.521,160 560.658,160 562.795,160 564.932,159.018 567.068,144.294 569.205,159.018 571.342,160 573.479,139.387 575.616,121.718 577.753,120.736 579.89,147.73 582.027,146.258 584.164,157.055 586.301,160 588.438,160 590.575,160 592.712,160 594.849,160 596.986,160 599.123,160 601.26,160 603.397,157.546 605.534,153.62 607.671,148.712 609.808,160 611.945,149.202 614.082,149.693 616.219,134.969 618.356,146.258 620.493,145.767 622.63,146.258 624.767,150.184 626.904,154.11 629.041,154.601 631.178,154.11 633.315,157.055 635.452,156.564 637.589,159.509 639.726,160 641.863,160 644,160 646.137,160 648.274,160 650.411,160 652.548,160 654.685,160 656.822,158.528 658.959,159.509 661.096,160 663.233,160 665.37,159.509 667.507,142.331 669.644,144.785 671.781,157.055 673.918,158.528 676.055,160 678.192,160 680.329,159.509 682.466,160 684.603,160 686.74,159.018 688.877,153.62 691.014,159.018 693.151,160 695.288,160 697.425,149.693 699.562,155.583 701.699,158.528 703.836,156.074 705.973,155.583 708.11,159.509 710.247,159.509 712.384,160 714.521,160 716.658,151.656 718.795,140.859 720.932,155.092 723.068,160 725.205,141.84 727.342,150.184 729.479,152.147 731.616,160 733.753,160 735.89,160 738.027,160 740.164,160 742.301,160 744.438,160 746.575,160 748.712,160 750.849,160 752.986,160 755.123,160 757.26,158.037 759.397,160 761.534,160 763.671,160 765.808,160 767.945,160 770.082,160 772.219,160 774.356,160 776.493,160 778.63,160 780.767,160 782.904,160 785.041,160 787.178,160 789.315,156.564 791.452,154.601 793.589,160 795.726,160 797.863,160 800,160 800,160" fill="var(--pill)" opacity="0.6"/>
  <polyline points="20,160 22.137,160 24.274,160 26.411,160 28.5479,160 30.6849,160 32.8219,160 34.9589,160 37.0959,160 39.2329,160 41.3699,160 43.5068,159.509 45.6438,160 47.7808,160 49.9178,160 52.0548,160 54.1918,160 56.3288,160 58.4658,160 60.6027,160 62.7397,160 64.8767,160 67.0137,160 69.1507,160 71.2877,160 73.4247,160 75.5616,160 77.6986,160 79.8356,160 81.9726,160 84.1096,160 86.2466,160 88.3836,160 90.5205,160 92.6575,160 94.7945,160 96.9315,160 99.0685,159.018 101.205,160 103.342,160 105.479,160 107.616,145.276 109.753,155.583 111.89,157.546 114.027,155.583 116.164,157.055 118.301,156.074 120.438,160 122.575,160 124.712,160 126.849,158.037 128.986,159.018 131.123,158.037 133.26,156.564 135.397,160 137.534,158.528 139.671,156.564 141.808,160 143.945,154.11 146.082,149.202 148.219,149.202 150.356,153.62 152.493,141.84 154.63,154.601 156.767,160 158.904,154.601 161.041,160 163.178,160 165.315,157.546 167.452,148.221 169.589,159.018 171.726,160 173.863,158.037 176,160 178.137,159.509 180.274,160 182.411,160 184.548,160 186.685,160 188.822,151.656 190.959,155.583 193.096,156.074 195.233,157.546 197.37,150.675 199.507,160 201.644,158.037 203.781,156.564 205.918,158.037 208.055,156.074 210.192,160 212.329,154.11 214.466,160 216.603,159.509 218.74,160 220.877,160 223.014,157.546 225.151,160 227.288,160 229.425,160 231.562,160 233.699,160 235.836,160 237.973,160 240.11,160 242.247,160 244.384,160 246.521,160 248.658,160 250.795,160 252.932,160 255.068,160 257.205,160 259.342,154.601 261.479,158.037 263.616,160 265.753,160 267.89,160 270.027,160 272.164,160 274.301,160 276.438,160 278.575,160 280.712,160 282.849,160 284.986,160 287.123,160 289.26,160 291.397,160 293.534,160 295.671,160 297.808,160 299.945,160 302.082,160 304.219,160 306.356,160 308.493,157.055 310.63,160 312.767,160 314.904,160 317.041,160 319.178,155.092 321.315,160 323.452,160 325.589,160 327.726,160 329.863,137.423 332,153.62 334.137,80 336.274,155.092 338.411,149.202 340.548,155.092 342.685,158.037 344.822,158.528 346.959,159.509 349.096,156.074 351.233,160 353.37,159.018 355.507,160 357.644,159.509 359.781,159.018 361.918,159.509 364.055,160 366.192,158.528 368.329,160 370.466,159.018 372.603,159.018 374.74,157.546 376.877,157.055 379.014,160 381.151,160 383.288,159.509 385.425,159.509 387.562,158.528 389.699,159.509 391.836,157.055 393.973,157.055 396.11,159.018 398.247,158.528 400.384,147.239 402.521,157.055 404.658,129.08 406.795,147.239 408.932,153.129 411.068,160 413.205,160 415.342,160 417.479,151.656 419.616,158.528 421.753,160 423.89,160 426.027,138.405 428.164,158.528 430.301,160 432.438,160 434.575,160 436.712,160 438.849,160 440.986,160 443.123,160 445.26,160 447.397,160 449.534,160 451.671,160 453.808,160 455.945,160 458.082,160 460.219,160 462.356,159.509 464.493,160 466.63,160 468.767,160 470.904,160 473.041,160 475.178,160 477.315,160 479.452,160 481.589,160 483.726,159.509 485.863,158.037 488,160 490.137,160 492.274,160 494.411,160 496.548,160 498.685,160 500.822,160 502.959,160 505.096,160 507.233,160 509.37,160 511.507,159.509 513.644,158.037 515.781,157.055 517.918,160 520.055,160 522.192,160 524.329,156.564 526.466,157.546 528.603,147.239 530.74,160 532.877,160 535.014,160 537.151,155.092 539.288,148.221 541.425,160 543.562,160 545.699,158.037 547.836,160 549.973,158.037 552.11,160 554.247,160 556.384,160 558.521,160 560.658,160 562.795,160 564.932,159.018 567.068,144.294 569.205,159.018 571.342,160 573.479,139.387 575.616,121.718 577.753,120.736 579.89,147.73 582.027,146.258 584.164,157.055 586.301,160 588.438,160 590.575,160 592.712,160 594.849,160 596.986,160 599.123,160 601.26,160 603.397,157.546 605.534,153.62 607.671,148.712 609.808,160 611.945,149.202 614.082,149.693 616.219,134.969 618.356,146.258 620.493,145.767 622.63,146.258 624.767,150.184 626.904,154.11 629.041,154.601 631.178,154.11 633.315,157.055 635.452,156.564 637.589,159.509 639.726,160 641.863,160 644,160 646.137,160 648.274,160 650.411,160 652.548,160 654.685,160 656.822,158.528 658.959,159.509 661.096,160 663.233,160 665.37,159.509 667.507,142.331 669.644,144.785 671.781,157.055 673.918,158.528 676.055,160 678.192,160 680.329,159.509 682.466,160 684.603,160 686.74,159.018 688.877,153.62 691.014,159.018 693.151,160 695.288,160 697.425,149.693 699.562,155.583 701.699,158.528 703.836,156.074 705.973,155.583 708.11,159.509 710.247,159.509 712.384,160 714.521,160 716.658,151.656 718.795,140.859 720.932,155.092 723.068,160 725.205,141.84 727.342,150.184 729.479,152.147 731.616,160 733.753,160 735.89,160 738.027,160 740.164,160 742.301,160 744.438,160 746.575,160 748.712,160 750.849,160 752.986,160 755.123,160 757.26,158.037 759.397,160 761.534,160 763.671,160 765.808,160 767.945,160 770.082,160 772.219,160 774.356,160 776.493,160 778.63,160 780.767,160 782.904,160 785.041,160 787.178,160 789.315,156.564 791.452,154.601 793.589,160 795.726,160 797.863,160 800,160" fill="none" stroke="var(--accent)" stroke-width="1.5" stroke-linecap="round" stroke-linejoin="round"/>
</svg>

