<svg xmlns="http://www.w3.org/2000/svg" width="820" height="180" viewBox="0 0 820 180">

<style>
  :root {
    --bg:        #f6f8fa;
    --card:      #ffffff;
    --border:    #d0d7de;
    --primary:   #1f2328;
    --secondary: #636c76;
    --muted:     #8c959f;
    --accent:    #0969da;
    --green:     #1a7f37;
    --yellow:    #9a6700;
    --red:       #cf222e;
    --hover:     #f3f4f6;
    --spark-bg:  #f0f3f6;
    --spark:     #0969da;
    --pill:      #eaf1fb;
    --pill-txt:  #0969da;
    --div:       #d0d7de;
  }
  @media (prefers-color-scheme: dark) {
    :root {
      --bg:        #0d1117;
      --card:      #161b22;
      --border:    #30363d;
      --primary:   #e6edf3;
      --secondary: #848d97;
      --muted:     #7d8590;
      --accent:    #2f81f7;
      --green:     #3fb950;
      --yellow:    #d29922;
      --red:       #f85149;
      --hover:     #21262d;
      --spark-bg:  #1c2128;
      --spark:     #58a6ff;
      --pill:      #1c2d3f;
      --pill-txt:  #58a6ff;
      --div:       #30363d;
    }
  }
  
  .bg          { fill: var(--bg); }
  .card        { fill: var(--card); stroke: var(--border); stroke-width: 1; }
  .lang-pill   { fill: var(--pill); }
  .spark-bg    { fill: var(--spark-bg); }
  .spark-line  { stroke: var(--spark); }
  .divider     { stroke: var(--div); stroke-width: 1; }
  .clr-primary   { fill: var(--primary); }
  .clr-secondary { fill: var(--secondary); }
  .clr-muted     { fill: var(--muted); }
  .clr-accent    { fill: var(--accent); }
  .clr-green     { fill: var(--green); }
  .clr-yellow    { fill: var(--yellow); }
  .clr-red       { fill: var(--red); }
  .txt-bold    { font-weight: 600; }
  svg text     { font-family: -apple-system, BlinkMacSystemFont, "Segoe UI", Helvetica, Arial, sans-serif; }
</style>

<rect x="0" y="0" width="820" height="180" rx="8" class="card"/>
  <text x="20" y="24" class="clr-primary txt-bold" text-anchor="start" font-size="14">Contribution History &amp; Activity</text>
  <line x1="20" y1="36" x2="800" y2="36" class="divider"/>
  <text x="20" y="60" class="clr-muted" text-anchor="start" font-size="12">Years Active:</text>
  <text x="100" y="60" class="clr-primary txt-bold" text-anchor="start" font-size="12">5.7</text>
  <text x="160" y="60" class="clr-muted" text-anchor="start" font-size="12">Commits (Last Year):</text>
  <text x="290" y="60" class="clr-primary txt-bold" text-anchor="start" font-size="12">1173</text>
  <text x="360" y="60" class="clr-muted" text-anchor="start" font-size="12">Highest Daily:</text>
  <text x="450" y="60" class="clr-primary txt-bold" text-anchor="start" font-size="12">163</text>
  <polygon points="20,160 20,160 22.1311,160 24.2623,160 26.3934,160 28.5246,160 30.6557,160 32.7869,160 34.918,160 37.0492,160 39.1803,160 41.3115,160 43.4426,160 45.5738,160 47.7049,160 49.8361,160 51.9672,160 54.0984,160 56.2295,160 58.3607,159.509 60.4918,160 62.623,160 64.7541,160 66.8852,160 69.0164,160 71.1475,160 73.2787,160 75.4098,160 77.541,160 79.6721,160 81.8033,160 83.9344,160 86.0656,160 88.1967,160 90.3279,160 92.459,160 94.5902,160 96.7213,160 98.8525,160 100.984,160 103.115,160 105.246,160 107.377,160 109.508,160 111.639,160 113.77,159.018 115.902,160 118.033,160 120.164,160 122.295,145.276 124.426,155.583 126.557,157.546 128.689,155.583 130.82,157.055 132.951,156.074 135.082,160 137.213,160 139.344,160 141.475,158.037 143.607,159.018 145.738,158.037 147.869,156.564 150,160 152.131,158.528 154.262,156.564 156.393,160 158.525,154.11 160.656,149.202 162.787,149.202 164.918,153.62 167.049,141.84 169.18,154.601 171.311,160 173.443,154.601 175.574,160 177.705,160 179.836,157.546 181.967,148.221 184.098,159.018 186.23,160 188.361,158.037 190.492,160 192.623,159.509 194.754,160 196.885,160 199.016,160 201.148,160 203.279,151.656 205.41,155.583 207.541,156.074 209.672,157.546 211.803,150.675 213.934,160 216.066,158.037 218.197,156.564 220.328,158.037 222.459,156.074 224.59,160 226.721,154.11 228.852,160 230.984,159.509 233.115,160 235.246,160 237.377,157.546 239.508,160 241.639,160 243.77,160 245.902,160 248.033,160 250.164,160 252.295,160 254.426,160 256.557,160 258.689,160 260.82,160 262.951,160 265.082,160 267.213,160 269.344,160 271.475,160 273.607,154.601 275.738,158.037 277.869,160 280,160 282.131,160 284.262,160 286.393,160 288.525,160 290.656,160 292.787,160 294.918,160 297.049,160 299.18,160 301.311,160 303.443,160 305.574,160 307.705,160 309.836,160 311.967,160 314.098,160 316.23,160 318.361,160 320.492,160 322.623,157.055 324.754,160 326.885,160 329.016,160 331.148,160 333.279,155.092 335.41,160 337.541,160 339.672,160 341.803,160 343.934,137.423 346.066,153.62 348.197,80 350.328,155.092 352.459,149.202 354.59,155.092 356.721,158.037 358.852,158.528 360.984,159.509 363.115,156.074 365.246,160 367.377,159.018 369.508,160 371.639,159.509 373.77,159.018 375.902,159.509 378.033,160 380.164,158.528 382.295,160 384.426,159.018 386.557,159.018 388.689,157.546 390.82,157.055 392.951,160 395.082,160 397.213,159.509 399.344,159.509 401.475,158.528 403.607,159.509 405.738,157.055 407.869,157.055 410,159.018 412.131,158.528 414.262,147.239 416.393,157.055 418.525,129.08 420.656,147.239 422.787,153.129 424.918,160 427.049,160 429.18,160 431.311,151.656 433.443,158.528 435.574,160 437.705,160 439.836,138.405 441.967,158.528 444.098,160 446.23,160 448.361,160 450.492,160 452.623,160 454.754,160 456.885,160 459.016,160 461.148,160 463.279,160 465.41,160 467.541,160 469.672,160 471.803,160 473.934,160 476.066,159.509 478.197,160 480.328,160 482.459,160 484.59,160 486.721,160 488.852,160 490.984,160 493.115,160 495.246,160 497.377,159.509 499.508,158.037 501.639,160 503.77,160 505.902,160 508.033,160 510.164,160 512.295,160 514.426,160 516.557,160 518.689,160 520.82,160 522.951,160 525.082,159.509 527.213,158.037 529.344,157.055 531.475,160 533.607,160 535.738,160 537.869,156.564 540,157.546 542.131,147.239 544.262,160 546.393,160 548.525,160 550.656,155.092 552.787,148.221 554.918,160 557.049,160 559.18,158.037 561.311,160 563.443,158.037 565.574,160 567.705,160 569.836,160 571.967,160 574.098,160 576.23,160 578.361,159.018 580.492,144.294 582.623,159.018 584.754,160 586.885,139.387 589.016,121.718 591.148,120.736 593.279,147.73 595.41,146.258 597.541,157.055 599.672,160 601.803,160 603.934,160 606.066,160 608.197,160 610.328,160 612.459,160 614.59,160 616.721,157.546 618.852,153.62 620.984,148.712 623.115,160 625.246,149.202 627.377,149.693 629.508,134.969 631.639,146.258 633.77,145.767 635.902,146.258 638.033,150.184 640.164,154.11 642.295,154.601 644.426,154.11 646.557,157.055 648.689,156.564 650.82,159.509 652.951,160 655.082,160 657.213,160 659.344,160 661.475,160 663.607,160 665.738,160 667.869,160 670,158.528 672.131,159.509 674.262,160 676.393,160 678.525,159.509 680.656,142.331 682.787,144.785 684.918,157.055 687.049,158.528 689.18,160 691.311,160 693.443,159.509 695.574,160 697.705,160 699.836,159.018 701.967,153.62 704.098,159.018 706.23,160 708.361,160 710.492,149.693 712.623,155.583 714.754,158.528 716.885,156.074 719.016,155.583 721.148,159.509 723.279,159.509 725.41,160 727.541,160 729.672,151.656 731.803,140.859 733.934,155.092 736.066,160 738.197,141.84 740.328,150.184 742.459,152.147 744.59,160 746.721,160 748.852,160 750.984,160 753.115,160 755.246,160 757.377,160 759.508,160 761.639,160 763.77,160 765.902,160 768.033,160 770.164,158.037 772.295,160 774.426,160 776.557,160 778.689,160 780.82,160 782.951,160 785.082,160 787.213,160 789.344,160 791.475,160 793.607,160 795.738,160 797.869,160 800,160 800,160" fill="var(--pill)" opacity="0.6"/>
  <polyline points="20,160 22.1311,160 24.2623,160 26.3934,160 28.5246,160 30.6557,160 32.7869,160 34.918,160 37.0492,160 39.1803,160 41.3115,160 43.4426,160 45.5738,160 47.7049,160 49.8361,160 51.9672,160 54.0984,160 56.2295,160 58.3607,159.509 60.4918,160 62.623,160 64.7541,160 66.8852,160 69.0164,160 71.1475,160 73.2787,160 75.4098,160 77.541,160 79.6721,160 81.8033,160 83.9344,160 86.0656,160 88.1967,160 90.3279,160 92.459,160 94.5902,160 96.7213,160 98.8525,160 100.984,160 103.115,160 105.246,160 107.377,160 109.508,160 111.639,160 113.77,159.018 115.902,160 118.033,160 120.164,160 122.295,145.276 124.426,155.583 126.557,157.546 128.689,155.583 130.82,157.055 132.951,156.074 135.082,160 137.213,160 139.344,160 141.475,158.037 143.607,159.018 145.738,158.037 147.869,156.564 150,160 152.131,158.528 154.262,156.564 156.393,160 158.525,154.11 160.656,149.202 162.787,149.202 164.918,153.62 167.049,141.84 169.18,154.601 171.311,160 173.443,154.601 175.574,160 177.705,160 179.836,157.546 181.967,148.221 184.098,159.018 186.23,160 188.361,158.037 190.492,160 192.623,159.509 194.754,160 196.885,160 199.016,160 201.148,160 203.279,151.656 205.41,155.583 207.541,156.074 209.672,157.546 211.803,150.675 213.934,160 216.066,158.037 218.197,156.564 220.328,158.037 222.459,156.074 224.59,160 226.721,154.11 228.852,160 230.984,159.509 233.115,160 235.246,160 237.377,157.546 239.508,160 241.639,160 243.77,160 245.902,160 248.033,160 250.164,160 252.295,160 254.426,160 256.557,160 258.689,160 260.82,160 262.951,160 265.082,160 267.213,160 269.344,160 271.475,160 273.607,154.601 275.738,158.037 277.869,160 280,160 282.131,160 284.262,160 286.393,160 288.525,160 290.656,160 292.787,160 294.918,160 297.049,160 299.18,160 301.311,160 303.443,160 305.574,160 307.705,160 309.836,160 311.967,160 314.098,160 316.23,160 318.361,160 320.492,160 322.623,157.055 324.754,160 326.885,160 329.016,160 331.148,160 333.279,155.092 335.41,160 337.541,160 339.672,160 341.803,160 343.934,137.423 346.066,153.62 348.197,80 350.328,155.092 352.459,149.202 354.59,155.092 356.721,158.037 358.852,158.528 360.984,159.509 363.115,156.074 365.246,160 367.377,159.018 369.508,160 371.639,159.509 373.77,159.018 375.902,159.509 378.033,160 380.164,158.528 382.295,160 384.426,159.018 386.557,159.018 388.689,157.546 390.82,157.055 392.951,160 395.082,160 397.213,159.509 399.344,159.509 401.475,158.528 403.607,159.509 405.738,157.055 407.869,157.055 410,159.018 412.131,158.528 414.262,147.239 416.393,157.055 418.525,129.08 420.656,147.239 422.787,153.129 424.918,160 427.049,160 429.18,160 431.311,151.656 433.443,158.528 435.574,160 437.705,160 439.836,138.405 441.967,158.528 444.098,160 446.23,160 448.361,160 450.492,160 452.623,160 454.754,160 456.885,160 459.016,160 461.148,160 463.279,160 465.41,160 467.541,160 469.672,160 471.803,160 473.934,160 476.066,159.509 478.197,160 480.328,160 482.459,160 484.59,160 486.721,160 488.852,160 490.984,160 493.115,160 495.246,160 497.377,159.509 499.508,158.037 501.639,160 503.77,160 505.902,160 508.033,160 510.164,160 512.295,160 514.426,160 516.557,160 518.689,160 520.82,160 522.951,160 525.082,159.509 527.213,158.037 529.344,157.055 531.475,160 533.607,160 535.738,160 537.869,156.564 540,157.546 542.131,147.239 544.262,160 546.393,160 548.525,160 550.656,155.092 552.787,148.221 554.918,160 557.049,160 559.18,158.037 561.311,160 563.443,158.037 565.574,160 567.705,160 569.836,160 571.967,160 574.098,160 576.23,160 578.361,159.018 580.492,144.294 582.623,159.018 584.754,160 586.885,139.387 589.016,121.718 591.148,120.736 593.279,147.73 595.41,146.258 597.541,157.055 599.672,160 601.803,160 603.934,160 606.066,160 608.197,160 610.328,160 612.459,160 614.59,160 616.721,157.546 618.852,153.62 620.984,148.712 623.115,160 625.246,149.202 627.377,149.693 629.508,134.969 631.639,146.258 633.77,145.767 635.902,146.258 638.033,150.184 640.164,154.11 642.295,154.601 644.426,154.11 646.557,157.055 648.689,156.564 650.82,159.509 652.951,160 655.082,160 657.213,160 659.344,160 661.475,160 663.607,160 665.738,160 667.869,160 670,158.528 672.131,159.509 674.262,160 676.393,160 678.525,159.509 680.656,142.331 682.787,144.785 684.918,157.055 687.049,158.528 689.18,160 691.311,160 693.443,159.509 695.574,160 697.705,160 699.836,159.018 701.967,153.62 704.098,159.018 706.23,160 708.361,160 710.492,149.693 712.623,155.583 714.754,158.528 716.885,156.074 719.016,155.583 721.148,159.509 723.279,159.509 725.41,160 727.541,160 729.672,151.656 731.803,140.859 733.934,155.092 736.066,160 738.197,141.84 740.328,150.184 742.459,152.147 744.59,160 746.721,160 748.852,160 750.984,160 753.115,160 755.246,160 757.377,160 759.508,160 761.639,160 763.77,160 765.902,160 768.033,160 770.164,158.037 772.295,160 774.426,160 776.557,160 778.689,160 780.82,160 782.951,160 785.082,160 787.213,160 789.344,160 791.475,160 793.607,160 795.738,160 797.869,160 800,160" fill="none" stroke="var(--accent)" stroke-width="1.5" stroke-linecap="round" stroke-linejoin="round"/>
</svg>

