<svg xmlns="http://www.w3.org/2000/svg" width="820" height="180" viewBox="0 0 820 180">

<style>
  :root {
    --bg:        #f6f8fa;
    --card:      #ffffff;
    --border:    #d0d7de;
    --primary:   #1f2328;
    --secondary: #636c76;
    --muted:     #8c959f;
    --accent:    #0969da;
    --green:     #1a7f37;
    --yellow:    #9a6700;
    --red:       #cf222e;
    --hover:     #f3f4f6;
    --spark-bg:  #f0f3f6;
    --spark:     #0969da;
    --pill:      #eaf1fb;
    --pill-txt:  #0969da;
    --div:       #d0d7de;
  }
  @media (prefers-color-scheme: dark) {
    :root {
      --bg:        #0d1117;
      --card:      #161b22;
      --border:    #30363d;
      --primary:   #e6edf3;
      --secondary: #848d97;
      --muted:     #7d8590;
      --accent:    #2f81f7;
      --green:     #3fb950;
      --yellow:    #d29922;
      --red:       #f85149;
      --hover:     #21262d;
      --spark-bg:  #1c2128;
      --spark:     #58a6ff;
      --pill:      #1c2d3f;
      --pill-txt:  #58a6ff;
      --div:       #30363d;
    }
  }
  
  .bg          { fill: var(--bg); }
  .card        { fill: var(--card); stroke: var(--border); stroke-width: 1; }
  .lang-pill   { fill: var(--pill); }
  .spark-bg    { fill: var(--spark-bg); }
  .spark-line  { stroke: var(--spark); }
  .divider     { stroke: var(--div); stroke-width: 1; }
  .clr-primary   { fill: var(--primary); }
  .clr-secondary { fill: var(--secondary); }
  .clr-muted     { fill: var(--muted); }
  .clr-accent    { fill: var(--accent); }
  .clr-green     { fill: var(--green); }
  .clr-yellow    { fill: var(--yellow); }
  .clr-red       { fill: var(--red); }
  .txt-bold    { font-weight: 600; }
  svg text     { font-family: -apple-system, BlinkMacSystemFont, "Segoe UI", Helvetica, Arial, sans-serif; }
</style>

<rect x="0" y="0" width="820" height="180" rx="8" class="card"/>
  <text x="20" y="24" class="clr-primary txt-bold" text-anchor="start" font-size="14">Contribution History &amp; Activity</text>
  <line x1="20" y1="36" x2="800" y2="36" class="divider"/>
  <text x="20" y="60" class="clr-muted" text-anchor="start" font-size="12">Years Active:</text>
  <text x="100" y="60" class="clr-primary txt-bold" text-anchor="start" font-size="12">5.8</text>
  <text x="160" y="60" class="clr-muted" text-anchor="start" font-size="12">Commits (Last Year):</text>
  <text x="290" y="60" class="clr-primary txt-bold" text-anchor="start" font-size="12">1229</text>
  <text x="360" y="60" class="clr-muted" text-anchor="start" font-size="12">Highest Daily:</text>
  <text x="450" y="60" class="clr-primary txt-bold" text-anchor="start" font-size="12">163</text>
  <polygon points="20,160 20,160 22.1196,160 24.2391,159.018 26.3587,160 28.4783,160 30.5978,160 32.7174,145.276 34.837,155.583 36.9565,157.546 39.0761,155.583 41.1957,157.055 43.3152,156.074 45.4348,160 47.5543,160 49.6739,160 51.7935,158.037 53.913,159.018 56.0326,158.037 58.1522,156.564 60.2717,160 62.3913,158.528 64.5109,156.564 66.6304,160 68.75,154.11 70.8696,149.202 72.9891,149.202 75.1087,153.62 77.2283,141.84 79.3478,154.601 81.4674,160 83.587,154.601 85.7065,160 87.8261,160 89.9457,157.546 92.0652,148.221 94.1848,159.018 96.3043,160 98.4239,158.037 100.543,160 102.663,159.509 104.783,160 106.902,160 109.022,160 111.141,160 113.261,151.656 115.38,155.583 117.5,156.074 119.62,157.546 121.739,150.675 123.859,160 125.978,158.037 128.098,156.564 130.217,158.037 132.337,156.074 134.457,160 136.576,154.11 138.696,160 140.815,159.509 142.935,160 145.054,160 147.174,157.546 149.293,160 151.413,160 153.533,160 155.652,160 157.772,160 159.891,160 162.011,160 164.13,160 166.25,160 168.37,160 170.489,160 172.609,160 174.728,160 176.848,160 178.967,160 181.087,160 183.207,154.601 185.326,158.037 187.446,160 189.565,160 191.685,160 193.804,160 195.924,160 198.043,160 200.163,160 202.283,160 204.402,160 206.522,160 208.641,160 210.761,160 212.88,160 215,160 217.12,160 219.239,160 221.359,160 223.478,160 225.598,160 227.717,160 229.837,160 231.957,157.055 234.076,160 236.196,160 238.315,160 240.435,160 242.554,155.092 244.674,160 246.793,160 248.913,160 251.033,160 253.152,137.423 255.272,153.62 257.391,80 259.511,155.092 261.63,149.202 263.75,155.092 265.87,158.037 267.989,158.528 270.109,159.509 272.228,156.074 274.348,160 276.467,159.018 278.587,160 280.707,159.509 282.826,159.018 284.946,159.509 287.065,160 289.185,158.528 291.304,160 293.424,159.018 295.543,159.018 297.663,157.546 299.783,157.055 301.902,160 304.022,160 306.141,159.509 308.261,159.509 310.38,158.528 312.5,159.509 314.62,157.055 316.739,157.055 318.859,159.018 320.978,158.528 323.098,147.239 325.217,157.055 327.337,129.08 329.457,147.239 331.576,153.129 333.696,160 335.815,160 337.935,160 340.054,151.656 342.174,158.528 344.293,160 346.413,160 348.533,138.405 350.652,158.528 352.772,160 354.891,160 357.011,160 359.13,160 361.25,160 363.37,160 365.489,160 367.609,160 369.728,160 371.848,160 373.967,160 376.087,160 378.207,160 380.326,160 382.446,160 384.565,159.509 386.685,160 388.804,160 390.924,160 393.043,160 395.163,160 397.283,160 399.402,160 401.522,160 403.641,160 405.761,159.509 407.88,158.037 410,160 412.12,160 414.239,160 416.359,160 418.478,160 420.598,160 422.717,160 424.837,160 426.957,160 429.076,160 431.196,160 433.315,159.509 435.435,158.037 437.554,157.055 439.674,160 441.793,160 443.913,160 446.033,156.564 448.152,157.546 450.272,147.239 452.391,160 454.511,160 456.63,160 458.75,155.092 460.87,148.221 462.989,160 465.109,160 467.228,158.037 469.348,160 471.467,158.037 473.587,160 475.707,160 477.826,160 479.946,160 482.065,160 484.185,160 486.304,159.018 488.424,144.294 490.543,159.018 492.663,160 494.783,139.387 496.902,121.718 499.022,120.736 501.141,147.73 503.261,146.258 505.38,157.055 507.5,160 509.62,160 511.739,160 513.859,160 515.978,160 518.098,160 520.217,160 522.337,160 524.457,157.546 526.576,153.62 528.696,148.712 530.815,160 532.935,149.202 535.054,149.693 537.174,134.969 539.293,146.258 541.413,145.767 543.533,146.258 545.652,150.184 547.772,154.11 549.891,154.601 552.011,154.11 554.13,157.055 556.25,156.564 558.37,159.509 560.489,160 562.609,160 564.728,160 566.848,160 568.967,160 571.087,160 573.207,160 575.326,160 577.446,158.528 579.565,159.509 581.685,160 583.804,160 585.924,159.509 588.043,142.331 590.163,144.785 592.283,157.055 594.402,158.528 596.522,160 598.641,160 600.761,159.509 602.88,160 605,160 607.12,159.018 609.239,153.62 611.359,159.018 613.478,160 615.598,160 617.717,149.693 619.837,155.583 621.957,158.528 624.076,156.074 626.196,155.583 628.315,159.509 630.435,159.509 632.554,160 634.674,160 636.793,151.656 638.913,140.859 641.033,155.092 643.152,160 645.272,141.84 647.391,150.184 649.511,152.147 651.63,160 653.75,160 655.87,160 657.989,160 660.109,160 662.228,160 664.348,160 666.467,160 668.587,160 670.707,160 672.826,160 674.946,160 677.065,158.037 679.185,160 681.304,160 683.424,160 685.543,160 687.663,160 689.783,160 691.902,160 694.022,160 696.141,160 698.261,160 700.38,160 702.5,160 704.62,160 706.739,160 708.859,156.564 710.978,154.601 713.098,160 715.217,160 717.337,160 719.457,160 721.576,159.509 723.696,160 725.815,160 727.935,159.509 730.054,159.509 732.174,160 734.293,159.509 736.413,160 738.533,160 740.652,156.074 742.772,159.509 744.891,159.509 747.011,160 749.13,158.037 751.25,160 753.37,160 755.489,160 757.609,160 759.728,160 761.848,160 763.967,160 766.087,150.184 768.207,158.528 770.326,159.509 772.446,159.018 774.565,160 776.685,160 778.804,160 780.924,160 783.043,160 785.163,160 787.283,160 789.402,160 791.522,160 793.641,160 795.761,160 797.88,160 800,160 800,160" fill="var(--pill)" opacity="0.6"/>
  <polyline points="20,160 22.1196,160 24.2391,159.018 26.3587,160 28.4783,160 30.5978,160 32.7174,145.276 34.837,155.583 36.9565,157.546 39.0761,155.583 41.1957,157.055 43.3152,156.074 45.4348,160 47.5543,160 49.6739,160 51.7935,158.037 53.913,159.018 56.0326,158.037 58.1522,156.564 60.2717,160 62.3913,158.528 64.5109,156.564 66.6304,160 68.75,154.11 70.8696,149.202 72.9891,149.202 75.1087,153.62 77.2283,141.84 79.3478,154.601 81.4674,160 83.587,154.601 85.7065,160 87.8261,160 89.9457,157.546 92.0652,148.221 94.1848,159.018 96.3043,160 98.4239,158.037 100.543,160 102.663,159.509 104.783,160 106.902,160 109.022,160 111.141,160 113.261,151.656 115.38,155.583 117.5,156.074 119.62,157.546 121.739,150.675 123.859,160 125.978,158.037 128.098,156.564 130.217,158.037 132.337,156.074 134.457,160 136.576,154.11 138.696,160 140.815,159.509 142.935,160 145.054,160 147.174,157.546 149.293,160 151.413,160 153.533,160 155.652,160 157.772,160 159.891,160 162.011,160 164.13,160 166.25,160 168.37,160 170.489,160 172.609,160 174.728,160 176.848,160 178.967,160 181.087,160 183.207,154.601 185.326,158.037 187.446,160 189.565,160 191.685,160 193.804,160 195.924,160 198.043,160 200.163,160 202.283,160 204.402,160 206.522,160 208.641,160 210.761,160 212.88,160 215,160 217.12,160 219.239,160 221.359,160 223.478,160 225.598,160 227.717,160 229.837,160 231.957,157.055 234.076,160 236.196,160 238.315,160 240.435,160 242.554,155.092 244.674,160 246.793,160 248.913,160 251.033,160 253.152,137.423 255.272,153.62 257.391,80 259.511,155.092 261.63,149.202 263.75,155.092 265.87,158.037 267.989,158.528 270.109,159.509 272.228,156.074 274.348,160 276.467,159.018 278.587,160 280.707,159.509 282.826,159.018 284.946,159.509 287.065,160 289.185,158.528 291.304,160 293.424,159.018 295.543,159.018 297.663,157.546 299.783,157.055 301.902,160 304.022,160 306.141,159.509 308.261,159.509 310.38,158.528 312.5,159.509 314.62,157.055 316.739,157.055 318.859,159.018 320.978,158.528 323.098,147.239 325.217,157.055 327.337,129.08 329.457,147.239 331.576,153.129 333.696,160 335.815,160 337.935,160 340.054,151.656 342.174,158.528 344.293,160 346.413,160 348.533,138.405 350.652,158.528 352.772,160 354.891,160 357.011,160 359.13,160 361.25,160 363.37,160 365.489,160 367.609,160 369.728,160 371.848,160 373.967,160 376.087,160 378.207,160 380.326,160 382.446,160 384.565,159.509 386.685,160 388.804,160 390.924,160 393.043,160 395.163,160 397.283,160 399.402,160 401.522,160 403.641,160 405.761,159.509 407.88,158.037 410,160 412.12,160 414.239,160 416.359,160 418.478,160 420.598,160 422.717,160 424.837,160 426.957,160 429.076,160 431.196,160 433.315,159.509 435.435,158.037 437.554,157.055 439.674,160 441.793,160 443.913,160 446.033,156.564 448.152,157.546 450.272,147.239 452.391,160 454.511,160 456.63,160 458.75,155.092 460.87,148.221 462.989,160 465.109,160 467.228,158.037 469.348,160 471.467,158.037 473.587,160 475.707,160 477.826,160 479.946,160 482.065,160 484.185,160 486.304,159.018 488.424,144.294 490.543,159.018 492.663,160 494.783,139.387 496.902,121.718 499.022,120.736 501.141,147.73 503.261,146.258 505.38,157.055 507.5,160 509.62,160 511.739,160 513.859,160 515.978,160 518.098,160 520.217,160 522.337,160 524.457,157.546 526.576,153.62 528.696,148.712 530.815,160 532.935,149.202 535.054,149.693 537.174,134.969 539.293,146.258 541.413,145.767 543.533,146.258 545.652,150.184 547.772,154.11 549.891,154.601 552.011,154.11 554.13,157.055 556.25,156.564 558.37,159.509 560.489,160 562.609,160 564.728,160 566.848,160 568.967,160 571.087,160 573.207,160 575.326,160 577.446,158.528 579.565,159.509 581.685,160 583.804,160 585.924,159.509 588.043,142.331 590.163,144.785 592.283,157.055 594.402,158.528 596.522,160 598.641,160 600.761,159.509 602.88,160 605,160 607.12,159.018 609.239,153.62 611.359,159.018 613.478,160 615.598,160 617.717,149.693 619.837,155.583 621.957,158.528 624.076,156.074 626.196,155.583 628.315,159.509 630.435,159.509 632.554,160 634.674,160 636.793,151.656 638.913,140.859 641.033,155.092 643.152,160 645.272,141.84 647.391,150.184 649.511,152.147 651.63,160 653.75,160 655.87,160 657.989,160 660.109,160 662.228,160 664.348,160 666.467,160 668.587,160 670.707,160 672.826,160 674.946,160 677.065,158.037 679.185,160 681.304,160 683.424,160 685.543,160 687.663,160 689.783,160 691.902,160 694.022,160 696.141,160 698.261,160 700.38,160 702.5,160 704.62,160 706.739,160 708.859,156.564 710.978,154.601 713.098,160 715.217,160 717.337,160 719.457,160 721.576,159.509 723.696,160 725.815,160 727.935,159.509 730.054,159.509 732.174,160 734.293,159.509 736.413,160 738.533,160 740.652,156.074 742.772,159.509 744.891,159.509 747.011,160 749.13,158.037 751.25,160 753.37,160 755.489,160 757.609,160 759.728,160 761.848,160 763.967,160 766.087,150.184 768.207,158.528 770.326,159.509 772.446,159.018 774.565,160 776.685,160 778.804,160 780.924,160 783.043,160 785.163,160 787.283,160 789.402,160 791.522,160 793.641,160 795.761,160 797.88,160 800,160" fill="none" stroke="var(--accent)" stroke-width="1.5" stroke-linecap="round" stroke-linejoin="round"/>
</svg>

