<svg xmlns="http://www.w3.org/2000/svg" width="820" height="180" viewBox="0 0 820 180">

<style>
  :root {
    --bg:        #f6f8fa;
    --card:      #ffffff;
    --border:    #d0d7de;
    --primary:   #1f2328;
    --secondary: #636c76;
    --muted:     #8c959f;
    --accent:    #0969da;
    --green:     #1a7f37;
    --yellow:    #9a6700;
    --red:       #cf222e;
    --hover:     #f3f4f6;
    --spark-bg:  #f0f3f6;
    --spark:     #0969da;
    --pill:      #eaf1fb;
    --pill-txt:  #0969da;
    --div:       #d0d7de;
  }
  @media (prefers-color-scheme: dark) {
    :root {
      --bg:        #0d1117;
      --card:      #161b22;
      --border:    #30363d;
      --primary:   #e6edf3;
      --secondary: #848d97;
      --muted:     #7d8590;
      --accent:    #2f81f7;
      --green:     #3fb950;
      --yellow:    #d29922;
      --red:       #f85149;
      --hover:     #21262d;
      --spark-bg:  #1c2128;
      --spark:     #58a6ff;
      --pill:      #1c2d3f;
      --pill-txt:  #58a6ff;
      --div:       #30363d;
    }
  }
  
  .bg          { fill: var(--bg); }
  .card        { fill: var(--card); stroke: var(--border); stroke-width: 1; }
  .lang-pill   { fill: var(--pill); }
  .spark-bg    { fill: var(--spark-bg); }
  .spark-line  { stroke: var(--spark); }
  .divider     { stroke: var(--div); stroke-width: 1; }
  .clr-primary   { fill: var(--primary); }
  .clr-secondary { fill: var(--secondary); }
  .clr-muted     { fill: var(--muted); }
  .clr-accent    { fill: var(--accent); }
  .clr-green     { fill: var(--green); }
  .clr-yellow    { fill: var(--yellow); }
  .clr-red       { fill: var(--red); }
  .txt-bold    { font-weight: 600; }
  svg text     { font-family: -apple-system, BlinkMacSystemFont, "Segoe UI", Helvetica, Arial, sans-serif; }
</style>

<rect x="0" y="0" width="820" height="180" rx="8" class="card"/>
  <text x="20" y="24" class="clr-primary txt-bold" text-anchor="start" font-size="14">Contribution History &amp; Activity</text>
  <line x1="20" y1="36" x2="800" y2="36" class="divider"/>
  <text x="20" y="60" class="clr-muted" text-anchor="start" font-size="12">Years Active:</text>
  <text x="100" y="60" class="clr-primary txt-bold" text-anchor="start" font-size="12">5.7</text>
  <text x="160" y="60" class="clr-muted" text-anchor="start" font-size="12">Commits (Last Year):</text>
  <text x="290" y="60" class="clr-primary txt-bold" text-anchor="start" font-size="12">1204</text>
  <text x="360" y="60" class="clr-muted" text-anchor="start" font-size="12">Highest Daily:</text>
  <text x="450" y="60" class="clr-primary txt-bold" text-anchor="start" font-size="12">163</text>
  <polygon points="20,160 20,160 22.1138,160 24.2276,160 26.3415,160 28.4553,160 30.5691,160 32.6829,160 34.7967,160 36.9106,160 39.0244,160 41.1382,160 43.252,160 45.3659,160 47.4797,160 49.5935,160 51.7073,160 53.8211,160 55.935,160 58.0488,160 60.1626,160 62.2764,160 64.3902,160 66.5041,160 68.6179,159.018 70.7317,160 72.8455,160 74.9593,160 77.0732,145.276 79.187,155.583 81.3008,157.546 83.4146,155.583 85.5285,157.055 87.6423,156.074 89.7561,160 91.8699,160 93.9837,160 96.0976,158.037 98.2114,159.018 100.325,158.037 102.439,156.564 104.553,160 106.667,158.528 108.78,156.564 110.894,160 113.008,154.11 115.122,149.202 117.236,149.202 119.35,153.62 121.463,141.84 123.577,154.601 125.691,160 127.805,154.601 129.919,160 132.033,160 134.146,157.546 136.26,148.221 138.374,159.018 140.488,160 142.602,158.037 144.715,160 146.829,159.509 148.943,160 151.057,160 153.171,160 155.285,160 157.398,151.656 159.512,155.583 161.626,156.074 163.74,157.546 165.854,150.675 167.967,160 170.081,158.037 172.195,156.564 174.309,158.037 176.423,156.074 178.537,160 180.65,154.11 182.764,160 184.878,159.509 186.992,160 189.106,160 191.22,157.546 193.333,160 195.447,160 197.561,160 199.675,160 201.789,160 203.902,160 206.016,160 208.13,160 210.244,160 212.358,160 214.472,160 216.585,160 218.699,160 220.813,160 222.927,160 225.041,160 227.154,154.601 229.268,158.037 231.382,160 233.496,160 235.61,160 237.724,160 239.837,160 241.951,160 244.065,160 246.179,160 248.293,160 250.407,160 252.52,160 254.634,160 256.748,160 258.862,160 260.976,160 263.089,160 265.203,160 267.317,160 269.431,160 271.545,160 273.659,160 275.772,157.055 277.886,160 280,160 282.114,160 284.228,160 286.341,155.092 288.455,160 290.569,160 292.683,160 294.797,160 296.911,137.423 299.024,153.62 301.138,80 303.252,155.092 305.366,149.202 307.48,155.092 309.593,158.037 311.707,158.528 313.821,159.509 315.935,156.074 318.049,160 320.163,159.018 322.276,160 324.39,159.509 326.504,159.018 328.618,159.509 330.732,160 332.846,158.528 334.959,160 337.073,159.018 339.187,159.018 341.301,157.546 343.415,157.055 345.528,160 347.642,160 349.756,159.509 351.87,159.509 353.984,158.528 356.098,159.509 358.211,157.055 360.325,157.055 362.439,159.018 364.553,158.528 366.667,147.239 368.78,157.055 370.894,129.08 373.008,147.239 375.122,153.129 377.236,160 379.35,160 381.463,160 383.577,151.656 385.691,158.528 387.805,160 389.919,160 392.033,138.405 394.146,158.528 396.26,160 398.374,160 400.488,160 402.602,160 404.715,160 406.829,160 408.943,160 411.057,160 413.171,160 415.285,160 417.398,160 419.512,160 421.626,160 423.74,160 425.854,160 427.967,159.509 430.081,160 432.195,160 434.309,160 436.423,160 438.537,160 440.65,160 442.764,160 444.878,160 446.992,160 449.106,159.509 451.22,158.037 453.333,160 455.447,160 457.561,160 459.675,160 461.789,160 463.902,160 466.016,160 468.13,160 470.244,160 472.358,160 474.472,160 476.585,159.509 478.699,158.037 480.813,157.055 482.927,160 485.041,160 487.154,160 489.268,156.564 491.382,157.546 493.496,147.239 495.61,160 497.724,160 499.837,160 501.951,155.092 504.065,148.221 506.179,160 508.293,160 510.407,158.037 512.52,160 514.634,158.037 516.748,160 518.862,160 520.976,160 523.089,160 525.203,160 527.317,160 529.431,159.018 531.545,144.294 533.659,159.018 535.772,160 537.886,139.387 540,121.718 542.114,120.736 544.228,147.73 546.341,146.258 548.455,157.055 550.569,160 552.683,160 554.797,160 556.911,160 559.024,160 561.138,160 563.252,160 565.366,160 567.48,157.546 569.593,153.62 571.707,148.712 573.821,160 575.935,149.202 578.049,149.693 580.163,134.969 582.276,146.258 584.39,145.767 586.504,146.258 588.618,150.184 590.732,154.11 592.846,154.601 594.959,154.11 597.073,157.055 599.187,156.564 601.301,159.509 603.415,160 605.528,160 607.642,160 609.756,160 611.87,160 613.984,160 616.098,160 618.211,160 620.325,158.528 622.439,159.509 624.553,160 626.667,160 628.78,159.509 630.894,142.331 633.008,144.785 635.122,157.055 637.236,158.528 639.35,160 641.463,160 643.577,159.509 645.691,160 647.805,160 649.919,159.018 652.033,153.62 654.146,159.018 656.26,160 658.374,160 660.488,149.693 662.602,155.583 664.715,158.528 666.829,156.074 668.943,155.583 671.057,159.509 673.171,159.509 675.285,160 677.398,160 679.512,151.656 681.626,140.859 683.74,155.092 685.854,160 687.967,141.84 690.081,150.184 692.195,152.147 694.309,160 696.423,160 698.537,160 700.65,160 702.764,160 704.878,160 706.992,160 709.106,160 711.22,160 713.333,160 715.447,160 717.561,160 719.675,158.037 721.789,160 723.902,160 726.016,160 728.13,160 730.244,160 732.358,160 734.472,160 736.585,160 738.699,160 740.813,160 742.927,160 745.041,160 747.154,160 749.268,160 751.382,156.564 753.496,154.601 755.61,160 757.724,160 759.837,160 761.951,160 764.065,159.509 766.179,160 768.293,160 770.407,159.509 772.52,159.509 774.634,160 776.748,159.509 778.862,160 780.976,160 783.089,156.074 785.203,159.509 787.317,159.509 789.431,160 791.545,158.037 793.659,160 795.772,160 797.886,160 800,160 800,160" fill="var(--pill)" opacity="0.6"/>
  <polyline points="20,160 22.1138,160 24.2276,160 26.3415,160 28.4553,160 30.5691,160 32.6829,160 34.7967,160 36.9106,160 39.0244,160 41.1382,160 43.252,160 45.3659,160 47.4797,160 49.5935,160 51.7073,160 53.8211,160 55.935,160 58.0488,160 60.1626,160 62.2764,160 64.3902,160 66.5041,160 68.6179,159.018 70.7317,160 72.8455,160 74.9593,160 77.0732,145.276 79.187,155.583 81.3008,157.546 83.4146,155.583 85.5285,157.055 87.6423,156.074 89.7561,160 91.8699,160 93.9837,160 96.0976,158.037 98.2114,159.018 100.325,158.037 102.439,156.564 104.553,160 106.667,158.528 108.78,156.564 110.894,160 113.008,154.11 115.122,149.202 117.236,149.202 119.35,153.62 121.463,141.84 123.577,154.601 125.691,160 127.805,154.601 129.919,160 132.033,160 134.146,157.546 136.26,148.221 138.374,159.018 140.488,160 142.602,158.037 144.715,160 146.829,159.509 148.943,160 151.057,160 153.171,160 155.285,160 157.398,151.656 159.512,155.583 161.626,156.074 163.74,157.546 165.854,150.675 167.967,160 170.081,158.037 172.195,156.564 174.309,158.037 176.423,156.074 178.537,160 180.65,154.11 182.764,160 184.878,159.509 186.992,160 189.106,160 191.22,157.546 193.333,160 195.447,160 197.561,160 199.675,160 201.789,160 203.902,160 206.016,160 208.13,160 210.244,160 212.358,160 214.472,160 216.585,160 218.699,160 220.813,160 222.927,160 225.041,160 227.154,154.601 229.268,158.037 231.382,160 233.496,160 235.61,160 237.724,160 239.837,160 241.951,160 244.065,160 246.179,160 248.293,160 250.407,160 252.52,160 254.634,160 256.748,160 258.862,160 260.976,160 263.089,160 265.203,160 267.317,160 269.431,160 271.545,160 273.659,160 275.772,157.055 277.886,160 280,160 282.114,160 284.228,160 286.341,155.092 288.455,160 290.569,160 292.683,160 294.797,160 296.911,137.423 299.024,153.62 301.138,80 303.252,155.092 305.366,149.202 307.48,155.092 309.593,158.037 311.707,158.528 313.821,159.509 315.935,156.074 318.049,160 320.163,159.018 322.276,160 324.39,159.509 326.504,159.018 328.618,159.509 330.732,160 332.846,158.528 334.959,160 337.073,159.018 339.187,159.018 341.301,157.546 343.415,157.055 345.528,160 347.642,160 349.756,159.509 351.87,159.509 353.984,158.528 356.098,159.509 358.211,157.055 360.325,157.055 362.439,159.018 364.553,158.528 366.667,147.239 368.78,157.055 370.894,129.08 373.008,147.239 375.122,153.129 377.236,160 379.35,160 381.463,160 383.577,151.656 385.691,158.528 387.805,160 389.919,160 392.033,138.405 394.146,158.528 396.26,160 398.374,160 400.488,160 402.602,160 404.715,160 406.829,160 408.943,160 411.057,160 413.171,160 415.285,160 417.398,160 419.512,160 421.626,160 423.74,160 425.854,160 427.967,159.509 430.081,160 432.195,160 434.309,160 436.423,160 438.537,160 440.65,160 442.764,160 444.878,160 446.992,160 449.106,159.509 451.22,158.037 453.333,160 455.447,160 457.561,160 459.675,160 461.789,160 463.902,160 466.016,160 468.13,160 470.244,160 472.358,160 474.472,160 476.585,159.509 478.699,158.037 480.813,157.055 482.927,160 485.041,160 487.154,160 489.268,156.564 491.382,157.546 493.496,147.239 495.61,160 497.724,160 499.837,160 501.951,155.092 504.065,148.221 506.179,160 508.293,160 510.407,158.037 512.52,160 514.634,158.037 516.748,160 518.862,160 520.976,160 523.089,160 525.203,160 527.317,160 529.431,159.018 531.545,144.294 533.659,159.018 535.772,160 537.886,139.387 540,121.718 542.114,120.736 544.228,147.73 546.341,146.258 548.455,157.055 550.569,160 552.683,160 554.797,160 556.911,160 559.024,160 561.138,160 563.252,160 565.366,160 567.48,157.546 569.593,153.62 571.707,148.712 573.821,160 575.935,149.202 578.049,149.693 580.163,134.969 582.276,146.258 584.39,145.767 586.504,146.258 588.618,150.184 590.732,154.11 592.846,154.601 594.959,154.11 597.073,157.055 599.187,156.564 601.301,159.509 603.415,160 605.528,160 607.642,160 609.756,160 611.87,160 613.984,160 616.098,160 618.211,160 620.325,158.528 622.439,159.509 624.553,160 626.667,160 628.78,159.509 630.894,142.331 633.008,144.785 635.122,157.055 637.236,158.528 639.35,160 641.463,160 643.577,159.509 645.691,160 647.805,160 649.919,159.018 652.033,153.62 654.146,159.018 656.26,160 658.374,160 660.488,149.693 662.602,155.583 664.715,158.528 666.829,156.074 668.943,155.583 671.057,159.509 673.171,159.509 675.285,160 677.398,160 679.512,151.656 681.626,140.859 683.74,155.092 685.854,160 687.967,141.84 690.081,150.184 692.195,152.147 694.309,160 696.423,160 698.537,160 700.65,160 702.764,160 704.878,160 706.992,160 709.106,160 711.22,160 713.333,160 715.447,160 717.561,160 719.675,158.037 721.789,160 723.902,160 726.016,160 728.13,160 730.244,160 732.358,160 734.472,160 736.585,160 738.699,160 740.813,160 742.927,160 745.041,160 747.154,160 749.268,160 751.382,156.564 753.496,154.601 755.61,160 757.724,160 759.837,160 761.951,160 764.065,159.509 766.179,160 768.293,160 770.407,159.509 772.52,159.509 774.634,160 776.748,159.509 778.862,160 780.976,160 783.089,156.074 785.203,159.509 787.317,159.509 789.431,160 791.545,158.037 793.659,160 795.772,160 797.886,160 800,160" fill="none" stroke="var(--accent)" stroke-width="1.5" stroke-linecap="round" stroke-linejoin="round"/>
</svg>

