<svg xmlns="http://www.w3.org/2000/svg" width="820" height="180" viewBox="0 0 820 180">

<style>
  :root {
    --bg:        #f6f8fa;
    --card:      #ffffff;
    --border:    #d0d7de;
    --primary:   #1f2328;
    --secondary: #636c76;
    --muted:     #8c959f;
    --accent:    #0969da;
    --green:     #1a7f37;
    --yellow:    #9a6700;
    --red:       #cf222e;
    --hover:     #f3f4f6;
    --spark-bg:  #f0f3f6;
    --spark:     #0969da;
    --pill:      #eaf1fb;
    --pill-txt:  #0969da;
    --div:       #d0d7de;
  }
  @media (prefers-color-scheme: dark) {
    :root {
      --bg:        #0d1117;
      --card:      #161b22;
      --border:    #30363d;
      --primary:   #e6edf3;
      --secondary: #848d97;
      --muted:     #7d8590;
      --accent:    #2f81f7;
      --green:     #3fb950;
      --yellow:    #d29922;
      --red:       #f85149;
      --hover:     #21262d;
      --spark-bg:  #1c2128;
      --spark:     #58a6ff;
      --pill:      #1c2d3f;
      --pill-txt:  #58a6ff;
      --div:       #30363d;
    }
  }
  
  .bg          { fill: var(--bg); }
  .card        { fill: var(--card); stroke: var(--border); stroke-width: 1; }
  .lang-pill   { fill: var(--pill); }
  .spark-bg    { fill: var(--spark-bg); }
  .spark-line  { stroke: var(--spark); }
  .divider     { stroke: var(--div); stroke-width: 1; }
  .clr-primary   { fill: var(--primary); }
  .clr-secondary { fill: var(--secondary); }
  .clr-muted     { fill: var(--muted); }
  .clr-accent    { fill: var(--accent); }
  .clr-green     { fill: var(--green); }
  .clr-yellow    { fill: var(--yellow); }
  .clr-red       { fill: var(--red); }
  .txt-bold    { font-weight: 600; }
  svg text     { font-family: -apple-system, BlinkMacSystemFont, "Segoe UI", Helvetica, Arial, sans-serif; }
</style>

<rect x="0" y="0" width="820" height="180" rx="8" class="card"/>
  <text x="20" y="24" class="clr-primary txt-bold" text-anchor="start" font-size="14">Contribution History &amp; Activity</text>
  <line x1="20" y1="36" x2="800" y2="36" class="divider"/>
  <text x="20" y="60" class="clr-muted" text-anchor="start" font-size="12">Years Active:</text>
  <text x="100" y="60" class="clr-primary txt-bold" text-anchor="start" font-size="12">5.9</text>
  <text x="160" y="60" class="clr-muted" text-anchor="start" font-size="12">Commits (Last Year):</text>
  <text x="290" y="60" class="clr-primary txt-bold" text-anchor="start" font-size="12">1017</text>
  <text x="360" y="60" class="clr-muted" text-anchor="start" font-size="12">Highest Daily:</text>
  <text x="450" y="60" class="clr-primary txt-bold" text-anchor="start" font-size="12">163</text>
  <polygon points="20,160 20,159.018 22.1081,160 24.2162,158.037 26.3243,160 28.4324,159.509 30.5405,160 32.6486,160 34.7568,160 36.8649,160 38.973,151.656 41.0811,155.583 43.1892,156.074 45.2973,157.546 47.4054,150.675 49.5135,160 51.6216,158.037 53.7297,156.564 55.8378,158.037 57.9459,156.074 60.0541,160 62.1622,154.11 64.2703,160 66.3784,159.509 68.4865,160 70.5946,160 72.7027,157.546 74.8108,160 76.9189,160 79.027,160 81.1351,160 83.2432,160 85.3514,160 87.4595,160 89.5676,160 91.6757,160 93.7838,160 95.8919,160 98,160 100.108,160 102.216,160 104.324,160 106.432,160 108.541,154.601 110.649,158.037 112.757,160 114.865,160 116.973,160 119.081,160 121.189,160 123.297,160 125.405,160 127.514,160 129.622,160 131.73,160 133.838,160 135.946,160 138.054,160 140.162,160 142.27,160 144.378,160 146.486,160 148.595,160 150.703,160 152.811,160 154.919,160 157.027,157.055 159.135,160 161.243,160 163.351,160 165.459,160 167.568,155.092 169.676,160 171.784,160 173.892,160 176,160 178.108,137.423 180.216,153.62 182.324,80 184.432,155.092 186.541,150.184 188.649,160 190.757,160 192.865,159.509 194.973,160 197.081,160 199.189,160 201.297,159.018 203.405,160 205.514,160 207.622,160 209.73,160 211.838,160 213.946,160 216.054,160 218.162,160 220.27,160 222.378,160 224.486,160 226.595,160 228.703,160 230.811,160 232.919,160 235.027,160 237.135,160 239.243,157.546 241.351,157.546 243.459,159.018 245.568,160 247.676,160 249.784,160 251.892,160 254,160 256.108,160 258.216,160 260.324,160 262.432,160 264.541,160 266.649,160 268.757,160 270.865,160 272.973,160 275.081,160 277.189,160 279.297,160 281.405,160 283.514,160 285.622,160 287.73,160 289.838,160 291.946,160 294.054,160 296.162,160 298.27,160 300.378,160 302.486,160 304.595,160 306.703,160 308.811,159.509 310.919,160 313.027,160 315.135,160 317.243,160 319.351,160 321.459,160 323.568,160 325.676,160 327.784,160 329.892,159.509 332,160 334.108,160 336.216,160 338.324,160 340.432,160 342.541,160 344.649,160 346.757,160 348.865,160 350.973,160 353.081,160 355.189,160 357.297,159.509 359.405,158.037 361.514,157.055 363.622,160 365.73,160 367.838,160 369.946,156.564 372.054,157.546 374.162,147.239 376.27,160 378.378,160 380.486,160 382.595,155.092 384.703,148.221 386.811,160 388.919,160 391.027,158.037 393.135,160 395.243,158.037 397.351,160 399.459,160 401.568,160 403.676,160 405.784,160 407.892,160 410,159.018 412.108,145.276 414.216,159.018 416.324,160 418.432,140.368 420.541,121.718 422.649,120.736 424.757,147.73 426.865,146.258 428.973,157.055 431.081,160 433.189,160 435.297,160 437.405,160 439.514,160 441.622,160 443.73,160 445.838,160 447.946,157.546 450.054,153.62 452.162,148.712 454.27,160 456.378,149.202 458.486,149.693 460.595,134.969 462.703,146.258 464.811,145.767 466.919,146.258 469.027,150.184 471.135,154.11 473.243,154.601 475.351,154.11 477.459,157.055 479.568,156.564 481.676,159.509 483.784,160 485.892,160 488,160 490.108,160 492.216,160 494.324,160 496.432,160 498.541,160 500.649,158.528 502.757,159.509 504.865,160 506.973,160 509.081,159.509 511.189,142.331 513.297,144.785 515.405,157.055 517.514,158.528 519.622,160 521.73,160 523.838,159.509 525.946,160 528.054,160 530.162,159.018 532.27,153.62 534.378,159.018 536.486,160 538.595,160 540.703,149.693 542.811,155.583 544.919,158.528 547.027,156.074 549.135,155.583 551.243,159.509 553.351,159.509 555.459,160 557.568,160 559.676,151.656 561.784,140.859 563.892,155.092 566,160 568.108,141.84 570.216,150.184 572.324,152.147 574.432,160 576.541,160 578.649,160 580.757,160 582.865,160 584.973,160 587.081,160 589.189,160 591.297,160 593.405,160 595.514,160 597.622,160 599.73,158.037 601.838,160 603.946,160 606.054,160 608.162,160 610.27,160 612.378,160 614.486,160 616.595,160 618.703,160 620.811,160 622.919,160 625.027,160 627.135,160 629.243,160 631.351,156.564 633.459,154.601 635.568,160 637.676,160 639.784,160 641.892,160 644,159.509 646.108,160 648.216,160 650.324,159.509 652.432,159.509 654.541,160 656.649,159.509 658.757,160 660.865,160 662.973,156.074 665.081,159.509 667.189,159.509 669.297,160 671.405,158.037 673.514,160 675.622,160 677.73,160 679.838,160 681.946,160 684.054,160 686.162,160 688.27,150.184 690.378,158.528 692.486,159.509 694.595,159.018 696.703,160 698.811,160 700.919,160 703.027,160 705.135,160 707.243,160 709.351,160 711.459,160 713.568,160 715.676,160 717.784,160 719.892,160 722,160 724.108,160 726.216,160 728.324,160 730.432,159.018 732.541,160 734.649,159.018 736.757,158.037 738.865,159.509 740.973,160 743.081,157.055 745.189,157.546 747.297,158.037 749.405,159.018 751.514,160 753.622,160 755.73,160 757.838,160 759.946,160 762.054,160 764.162,160 766.27,160 768.378,160 770.486,160 772.595,160 774.703,160 776.811,160 778.919,160 781.027,160 783.135,160 785.243,160 787.351,160 789.459,160 791.568,160 793.676,160 795.784,160 797.892,160 800,160 800,160" fill="var(--pill)" opacity="0.6"/>
  <polyline points="20,159.018 22.1081,160 24.2162,158.037 26.3243,160 28.4324,159.509 30.5405,160 32.6486,160 34.7568,160 36.8649,160 38.973,151.656 41.0811,155.583 43.1892,156.074 45.2973,157.546 47.4054,150.675 49.5135,160 51.6216,158.037 53.7297,156.564 55.8378,158.037 57.9459,156.074 60.0541,160 62.1622,154.11 64.2703,160 66.3784,159.509 68.4865,160 70.5946,160 72.7027,157.546 74.8108,160 76.9189,160 79.027,160 81.1351,160 83.2432,160 85.3514,160 87.4595,160 89.5676,160 91.6757,160 93.7838,160 95.8919,160 98,160 100.108,160 102.216,160 104.324,160 106.432,160 108.541,154.601 110.649,158.037 112.757,160 114.865,160 116.973,160 119.081,160 121.189,160 123.297,160 125.405,160 127.514,160 129.622,160 131.73,160 133.838,160 135.946,160 138.054,160 140.162,160 142.27,160 144.378,160 146.486,160 148.595,160 150.703,160 152.811,160 154.919,160 157.027,157.055 159.135,160 161.243,160 163.351,160 165.459,160 167.568,155.092 169.676,160 171.784,160 173.892,160 176,160 178.108,137.423 180.216,153.62 182.324,80 184.432,155.092 186.541,150.184 188.649,160 190.757,160 192.865,159.509 194.973,160 197.081,160 199.189,160 201.297,159.018 203.405,160 205.514,160 207.622,160 209.73,160 211.838,160 213.946,160 216.054,160 218.162,160 220.27,160 222.378,160 224.486,160 226.595,160 228.703,160 230.811,160 232.919,160 235.027,160 237.135,160 239.243,157.546 241.351,157.546 243.459,159.018 245.568,160 247.676,160 249.784,160 251.892,160 254,160 256.108,160 258.216,160 260.324,160 262.432,160 264.541,160 266.649,160 268.757,160 270.865,160 272.973,160 275.081,160 277.189,160 279.297,160 281.405,160 283.514,160 285.622,160 287.73,160 289.838,160 291.946,160 294.054,160 296.162,160 298.27,160 300.378,160 302.486,160 304.595,160 306.703,160 308.811,159.509 310.919,160 313.027,160 315.135,160 317.243,160 319.351,160 321.459,160 323.568,160 325.676,160 327.784,160 329.892,159.509 332,160 334.108,160 336.216,160 338.324,160 340.432,160 342.541,160 344.649,160 346.757,160 348.865,160 350.973,160 353.081,160 355.189,160 357.297,159.509 359.405,158.037 361.514,157.055 363.622,160 365.73,160 367.838,160 369.946,156.564 372.054,157.546 374.162,147.239 376.27,160 378.378,160 380.486,160 382.595,155.092 384.703,148.221 386.811,160 388.919,160 391.027,158.037 393.135,160 395.243,158.037 397.351,160 399.459,160 401.568,160 403.676,160 405.784,160 407.892,160 410,159.018 412.108,145.276 414.216,159.018 416.324,160 418.432,140.368 420.541,121.718 422.649,120.736 424.757,147.73 426.865,146.258 428.973,157.055 431.081,160 433.189,160 435.297,160 437.405,160 439.514,160 441.622,160 443.73,160 445.838,160 447.946,157.546 450.054,153.62 452.162,148.712 454.27,160 456.378,149.202 458.486,149.693 460.595,134.969 462.703,146.258 464.811,145.767 466.919,146.258 469.027,150.184 471.135,154.11 473.243,154.601 475.351,154.11 477.459,157.055 479.568,156.564 481.676,159.509 483.784,160 485.892,160 488,160 490.108,160 492.216,160 494.324,160 496.432,160 498.541,160 500.649,158.528 502.757,159.509 504.865,160 506.973,160 509.081,159.509 511.189,142.331 513.297,144.785 515.405,157.055 517.514,158.528 519.622,160 521.73,160 523.838,159.509 525.946,160 528.054,160 530.162,159.018 532.27,153.62 534.378,159.018 536.486,160 538.595,160 540.703,149.693 542.811,155.583 544.919,158.528 547.027,156.074 549.135,155.583 551.243,159.509 553.351,159.509 555.459,160 557.568,160 559.676,151.656 561.784,140.859 563.892,155.092 566,160 568.108,141.84 570.216,150.184 572.324,152.147 574.432,160 576.541,160 578.649,160 580.757,160 582.865,160 584.973,160 587.081,160 589.189,160 591.297,160 593.405,160 595.514,160 597.622,160 599.73,158.037 601.838,160 603.946,160 606.054,160 608.162,160 610.27,160 612.378,160 614.486,160 616.595,160 618.703,160 620.811,160 622.919,160 625.027,160 627.135,160 629.243,160 631.351,156.564 633.459,154.601 635.568,160 637.676,160 639.784,160 641.892,160 644,159.509 646.108,160 648.216,160 650.324,159.509 652.432,159.509 654.541,160 656.649,159.509 658.757,160 660.865,160 662.973,156.074 665.081,159.509 667.189,159.509 669.297,160 671.405,158.037 673.514,160 675.622,160 677.73,160 679.838,160 681.946,160 684.054,160 686.162,160 688.27,150.184 690.378,158.528 692.486,159.509 694.595,159.018 696.703,160 698.811,160 700.919,160 703.027,160 705.135,160 707.243,160 709.351,160 711.459,160 713.568,160 715.676,160 717.784,160 719.892,160 722,160 724.108,160 726.216,160 728.324,160 730.432,159.018 732.541,160 734.649,159.018 736.757,158.037 738.865,159.509 740.973,160 743.081,157.055 745.189,157.546 747.297,158.037 749.405,159.018 751.514,160 753.622,160 755.73,160 757.838,160 759.946,160 762.054,160 764.162,160 766.27,160 768.378,160 770.486,160 772.595,160 774.703,160 776.811,160 778.919,160 781.027,160 783.135,160 785.243,160 787.351,160 789.459,160 791.568,160 793.676,160 795.784,160 797.892,160 800,160" fill="none" stroke="var(--accent)" stroke-width="1.5" stroke-linecap="round" stroke-linejoin="round"/>
</svg>

