<svg xmlns="http://www.w3.org/2000/svg" width="820" height="180" viewBox="0 0 820 180">

<style>
  :root {
    --bg:        #f6f8fa;
    --card:      #ffffff;
    --border:    #d0d7de;
    --primary:   #1f2328;
    --secondary: #636c76;
    --muted:     #8c959f;
    --accent:    #0969da;
    --green:     #1a7f37;
    --yellow:    #9a6700;
    --red:       #cf222e;
    --hover:     #f3f4f6;
    --spark-bg:  #f0f3f6;
    --spark:     #0969da;
    --pill:      #eaf1fb;
    --pill-txt:  #0969da;
    --div:       #d0d7de;
  }
  @media (prefers-color-scheme: dark) {
    :root {
      --bg:        #0d1117;
      --card:      #161b22;
      --border:    #30363d;
      --primary:   #e6edf3;
      --secondary: #848d97;
      --muted:     #7d8590;
      --accent:    #2f81f7;
      --green:     #3fb950;
      --yellow:    #d29922;
      --red:       #f85149;
      --hover:     #21262d;
      --spark-bg:  #1c2128;
      --spark:     #58a6ff;
      --pill:      #1c2d3f;
      --pill-txt:  #58a6ff;
      --div:       #30363d;
    }
  }
  
  .bg          { fill: var(--bg); }
  .card        { fill: var(--card); stroke: var(--border); stroke-width: 1; }
  .lang-pill   { fill: var(--pill); }
  .spark-bg    { fill: var(--spark-bg); }
  .spark-line  { stroke: var(--spark); }
  .divider     { stroke: var(--div); stroke-width: 1; }
  .clr-primary   { fill: var(--primary); }
  .clr-secondary { fill: var(--secondary); }
  .clr-muted     { fill: var(--muted); }
  .clr-accent    { fill: var(--accent); }
  .clr-green     { fill: var(--green); }
  .clr-yellow    { fill: var(--yellow); }
  .clr-red       { fill: var(--red); }
  .txt-bold    { font-weight: 600; }
  svg text     { font-family: -apple-system, BlinkMacSystemFont, "Segoe UI", Helvetica, Arial, sans-serif; }
</style>

<rect x="0" y="0" width="820" height="180" rx="8" class="card"/>
  <text x="20" y="24" class="clr-primary txt-bold" text-anchor="start" font-size="14">Contribution History &amp; Activity</text>
  <line x1="20" y1="36" x2="800" y2="36" class="divider"/>
  <text x="20" y="60" class="clr-muted" text-anchor="start" font-size="12">Years Active:</text>
  <text x="100" y="60" class="clr-primary txt-bold" text-anchor="start" font-size="12">5.6</text>
  <text x="160" y="60" class="clr-muted" text-anchor="start" font-size="12">Commits (Last Year):</text>
  <text x="290" y="60" class="clr-primary txt-bold" text-anchor="start" font-size="12">1173</text>
  <text x="360" y="60" class="clr-muted" text-anchor="start" font-size="12">Highest Daily:</text>
  <text x="450" y="60" class="clr-primary txt-bold" text-anchor="start" font-size="12">163</text>
  <polygon points="20,160 20,160 22.1253,160 24.2507,160 26.376,160 28.5014,160 30.6267,160 32.752,160 34.8774,160 37.0027,160 39.1281,160 41.2534,160 43.3787,160 45.5041,160 47.6294,160 49.7548,160 51.8801,160 54.0054,160 56.1308,160 58.2561,160 60.3815,160 62.5068,160 64.6322,160 66.7575,160 68.8828,160 71.0082,160 73.1335,160 75.2589,160 77.3842,160 79.5095,160 81.6349,160 83.7602,160 85.8856,160 88.0109,159.509 90.1362,160 92.2616,160 94.3869,160 96.5123,160 98.6376,160 100.763,160 102.888,160 105.014,160 107.139,160 109.264,160 111.39,160 113.515,160 115.64,160 117.766,160 119.891,160 122.016,160 124.142,160 126.267,160 128.392,160 130.518,160 132.643,160 134.768,160 136.894,160 139.019,160 141.144,160 143.27,159.018 145.395,160 147.52,160 149.646,160 151.771,145.276 153.896,155.583 156.022,157.546 158.147,155.583 160.272,157.055 162.398,156.074 164.523,160 166.649,160 168.774,160 170.899,158.037 173.025,159.018 175.15,158.037 177.275,156.564 179.401,160 181.526,158.528 183.651,156.564 185.777,160 187.902,154.11 190.027,149.202 192.153,149.202 194.278,153.62 196.403,141.84 198.529,154.601 200.654,160 202.779,154.601 204.905,160 207.03,160 209.155,157.546 211.281,148.221 213.406,159.018 215.531,160 217.657,158.037 219.782,160 221.907,159.509 224.033,160 226.158,160 228.283,160 230.409,160 232.534,151.656 234.659,155.583 236.785,156.074 238.91,157.546 241.035,150.675 243.161,160 245.286,158.037 247.411,156.564 249.537,158.037 251.662,156.074 253.787,160 255.913,154.11 258.038,160 260.163,159.509 262.289,160 264.414,160 266.54,157.546 268.665,160 270.79,160 272.916,160 275.041,160 277.166,160 279.292,160 281.417,160 283.542,160 285.668,160 287.793,160 289.918,160 292.044,160 294.169,160 296.294,160 298.42,160 300.545,160 302.67,154.601 304.796,158.037 306.921,160 309.046,160 311.172,160 313.297,160 315.422,160 317.548,160 319.673,160 321.798,160 323.924,160 326.049,160 328.174,160 330.3,160 332.425,160 334.55,160 336.676,160 338.801,160 340.926,160 343.052,160 345.177,160 347.302,160 349.428,160 351.553,157.055 353.678,160 355.804,160 357.929,160 360.054,160 362.18,155.092 364.305,160 366.431,160 368.556,160 370.681,160 372.807,137.423 374.932,153.62 377.057,80 379.183,155.092 381.308,149.202 383.433,155.092 385.559,158.037 387.684,158.528 389.809,159.509 391.935,156.074 394.06,160 396.185,159.018 398.311,160 400.436,159.509 402.561,159.018 404.687,159.509 406.812,160 408.937,158.528 411.063,160 413.188,159.018 415.313,159.018 417.439,157.546 419.564,157.055 421.689,160 423.815,160 425.94,159.509 428.065,159.509 430.191,158.528 432.316,159.509 434.441,157.055 436.567,157.055 438.692,159.018 440.817,158.528 442.943,147.239 445.068,157.055 447.193,129.08 449.319,147.239 451.444,153.129 453.569,160 455.695,160 457.82,160 459.946,151.656 462.071,158.528 464.196,160 466.322,160 468.447,138.405 470.572,158.528 472.698,160 474.823,160 476.948,160 479.074,160 481.199,160 483.324,160 485.45,160 487.575,160 489.7,160 491.826,160 493.951,160 496.076,160 498.202,160 500.327,160 502.452,160 504.578,159.509 506.703,160 508.828,160 510.954,160 513.079,160 515.204,160 517.33,160 519.455,160 521.58,160 523.706,160 525.831,159.509 527.956,158.037 530.082,160 532.207,160 534.332,160 536.458,160 538.583,160 540.708,160 542.834,160 544.959,160 547.084,160 549.21,160 551.335,160 553.46,159.509 555.586,158.037 557.711,157.055 559.837,160 561.962,160 564.087,160 566.213,156.564 568.338,157.546 570.463,147.239 572.589,160 574.714,160 576.839,160 578.965,155.092 581.09,148.221 583.215,160 585.341,160 587.466,158.037 589.591,160 591.717,158.037 593.842,160 595.967,160 598.093,160 600.218,160 602.343,160 604.469,160 606.594,159.018 608.719,144.294 610.845,159.018 612.97,160 615.095,139.387 617.221,121.718 619.346,120.736 621.471,147.73 623.597,146.258 625.722,157.055 627.847,160 629.973,160 632.098,160 634.223,160 636.349,160 638.474,160 640.599,160 642.725,160 644.85,157.546 646.975,153.62 649.101,148.712 651.226,160 653.351,149.202 655.477,149.693 657.602,134.969 659.728,146.258 661.853,145.767 663.978,146.258 666.104,150.184 668.229,154.11 670.354,154.601 672.48,154.11 674.605,157.055 676.73,156.564 678.856,159.509 680.981,160 683.106,160 685.232,160 687.357,160 689.482,160 691.608,160 693.733,160 695.858,160 697.984,158.528 700.109,159.509 702.234,160 704.36,160 706.485,159.509 708.61,142.331 710.736,144.785 712.861,157.055 714.986,158.528 717.112,160 719.237,160 721.362,159.509 723.488,160 725.613,160 727.738,159.018 729.864,153.62 731.989,159.018 734.114,160 736.24,160 738.365,149.693 740.49,155.583 742.616,158.528 744.741,156.074 746.866,155.583 748.992,159.509 751.117,159.509 753.243,160 755.368,160 757.493,151.656 759.619,140.859 761.744,155.092 763.869,160 765.995,141.84 768.12,150.184 770.245,152.147 772.371,160 774.496,160 776.621,160 778.747,160 780.872,160 782.997,160 785.123,160 787.248,160 789.373,160 791.499,160 793.624,160 795.749,160 797.875,158.037 800,160 800,160" fill="var(--pill)" opacity="0.6"/>
  <polyline points="20,160 22.1253,160 24.2507,160 26.376,160 28.5014,160 30.6267,160 32.752,160 34.8774,160 37.0027,160 39.1281,160 41.2534,160 43.3787,160 45.5041,160 47.6294,160 49.7548,160 51.8801,160 54.0054,160 56.1308,160 58.2561,160 60.3815,160 62.5068,160 64.6322,160 66.7575,160 68.8828,160 71.0082,160 73.1335,160 75.2589,160 77.3842,160 79.5095,160 81.6349,160 83.7602,160 85.8856,160 88.0109,159.509 90.1362,160 92.2616,160 94.3869,160 96.5123,160 98.6376,160 100.763,160 102.888,160 105.014,160 107.139,160 109.264,160 111.39,160 113.515,160 115.64,160 117.766,160 119.891,160 122.016,160 124.142,160 126.267,160 128.392,160 130.518,160 132.643,160 134.768,160 136.894,160 139.019,160 141.144,160 143.27,159.018 145.395,160 147.52,160 149.646,160 151.771,145.276 153.896,155.583 156.022,157.546 158.147,155.583 160.272,157.055 162.398,156.074 164.523,160 166.649,160 168.774,160 170.899,158.037 173.025,159.018 175.15,158.037 177.275,156.564 179.401,160 181.526,158.528 183.651,156.564 185.777,160 187.902,154.11 190.027,149.202 192.153,149.202 194.278,153.62 196.403,141.84 198.529,154.601 200.654,160 202.779,154.601 204.905,160 207.03,160 209.155,157.546 211.281,148.221 213.406,159.018 215.531,160 217.657,158.037 219.782,160 221.907,159.509 224.033,160 226.158,160 228.283,160 230.409,160 232.534,151.656 234.659,155.583 236.785,156.074 238.91,157.546 241.035,150.675 243.161,160 245.286,158.037 247.411,156.564 249.537,158.037 251.662,156.074 253.787,160 255.913,154.11 258.038,160 260.163,159.509 262.289,160 264.414,160 266.54,157.546 268.665,160 270.79,160 272.916,160 275.041,160 277.166,160 279.292,160 281.417,160 283.542,160 285.668,160 287.793,160 289.918,160 292.044,160 294.169,160 296.294,160 298.42,160 300.545,160 302.67,154.601 304.796,158.037 306.921,160 309.046,160 311.172,160 313.297,160 315.422,160 317.548,160 319.673,160 321.798,160 323.924,160 326.049,160 328.174,160 330.3,160 332.425,160 334.55,160 336.676,160 338.801,160 340.926,160 343.052,160 345.177,160 347.302,160 349.428,160 351.553,157.055 353.678,160 355.804,160 357.929,160 360.054,160 362.18,155.092 364.305,160 366.431,160 368.556,160 370.681,160 372.807,137.423 374.932,153.62 377.057,80 379.183,155.092 381.308,149.202 383.433,155.092 385.559,158.037 387.684,158.528 389.809,159.509 391.935,156.074 394.06,160 396.185,159.018 398.311,160 400.436,159.509 402.561,159.018 404.687,159.509 406.812,160 408.937,158.528 411.063,160 413.188,159.018 415.313,159.018 417.439,157.546 419.564,157.055 421.689,160 423.815,160 425.94,159.509 428.065,159.509 430.191,158.528 432.316,159.509 434.441,157.055 436.567,157.055 438.692,159.018 440.817,158.528 442.943,147.239 445.068,157.055 447.193,129.08 449.319,147.239 451.444,153.129 453.569,160 455.695,160 457.82,160 459.946,151.656 462.071,158.528 464.196,160 466.322,160 468.447,138.405 470.572,158.528 472.698,160 474.823,160 476.948,160 479.074,160 481.199,160 483.324,160 485.45,160 487.575,160 489.7,160 491.826,160 493.951,160 496.076,160 498.202,160 500.327,160 502.452,160 504.578,159.509 506.703,160 508.828,160 510.954,160 513.079,160 515.204,160 517.33,160 519.455,160 521.58,160 523.706,160 525.831,159.509 527.956,158.037 530.082,160 532.207,160 534.332,160 536.458,160 538.583,160 540.708,160 542.834,160 544.959,160 547.084,160 549.21,160 551.335,160 553.46,159.509 555.586,158.037 557.711,157.055 559.837,160 561.962,160 564.087,160 566.213,156.564 568.338,157.546 570.463,147.239 572.589,160 574.714,160 576.839,160 578.965,155.092 581.09,148.221 583.215,160 585.341,160 587.466,158.037 589.591,160 591.717,158.037 593.842,160 595.967,160 598.093,160 600.218,160 602.343,160 604.469,160 606.594,159.018 608.719,144.294 610.845,159.018 612.97,160 615.095,139.387 617.221,121.718 619.346,120.736 621.471,147.73 623.597,146.258 625.722,157.055 627.847,160 629.973,160 632.098,160 634.223,160 636.349,160 638.474,160 640.599,160 642.725,160 644.85,157.546 646.975,153.62 649.101,148.712 651.226,160 653.351,149.202 655.477,149.693 657.602,134.969 659.728,146.258 661.853,145.767 663.978,146.258 666.104,150.184 668.229,154.11 670.354,154.601 672.48,154.11 674.605,157.055 676.73,156.564 678.856,159.509 680.981,160 683.106,160 685.232,160 687.357,160 689.482,160 691.608,160 693.733,160 695.858,160 697.984,158.528 700.109,159.509 702.234,160 704.36,160 706.485,159.509 708.61,142.331 710.736,144.785 712.861,157.055 714.986,158.528 717.112,160 719.237,160 721.362,159.509 723.488,160 725.613,160 727.738,159.018 729.864,153.62 731.989,159.018 734.114,160 736.24,160 738.365,149.693 740.49,155.583 742.616,158.528 744.741,156.074 746.866,155.583 748.992,159.509 751.117,159.509 753.243,160 755.368,160 757.493,151.656 759.619,140.859 761.744,155.092 763.869,160 765.995,141.84 768.12,150.184 770.245,152.147 772.371,160 774.496,160 776.621,160 778.747,160 780.872,160 782.997,160 785.123,160 787.248,160 789.373,160 791.499,160 793.624,160 795.749,160 797.875,158.037 800,160" fill="none" stroke="var(--accent)" stroke-width="1.5" stroke-linecap="round" stroke-linejoin="round"/>
</svg>

