<svg xmlns="http://www.w3.org/2000/svg" width="820" height="180" viewBox="0 0 820 180">

<style>
  :root {
    --bg:        #f6f8fa;
    --card:      #ffffff;
    --border:    #d0d7de;
    --primary:   #1f2328;
    --secondary: #636c76;
    --muted:     #8c959f;
    --accent:    #0969da;
    --green:     #1a7f37;
    --yellow:    #9a6700;
    --red:       #cf222e;
    --hover:     #f3f4f6;
    --spark-bg:  #f0f3f6;
    --spark:     #0969da;
    --pill:      #eaf1fb;
    --pill-txt:  #0969da;
    --div:       #d0d7de;
  }
  @media (prefers-color-scheme: dark) {
    :root {
      --bg:        #0d1117;
      --card:      #161b22;
      --border:    #30363d;
      --primary:   #e6edf3;
      --secondary: #848d97;
      --muted:     #7d8590;
      --accent:    #2f81f7;
      --green:     #3fb950;
      --yellow:    #d29922;
      --red:       #f85149;
      --hover:     #21262d;
      --spark-bg:  #1c2128;
      --spark:     #58a6ff;
      --pill:      #1c2d3f;
      --pill-txt:  #58a6ff;
      --div:       #30363d;
    }
  }
  
  .bg          { fill: var(--bg); }
  .card        { fill: var(--card); stroke: var(--border); stroke-width: 1; }
  .lang-pill   { fill: var(--pill); }
  .spark-bg    { fill: var(--spark-bg); }
  .spark-line  { stroke: var(--spark); }
  .divider     { stroke: var(--div); stroke-width: 1; }
  .clr-primary   { fill: var(--primary); }
  .clr-secondary { fill: var(--secondary); }
  .clr-muted     { fill: var(--muted); }
  .clr-accent    { fill: var(--accent); }
  .clr-green     { fill: var(--green); }
  .clr-yellow    { fill: var(--yellow); }
  .clr-red       { fill: var(--red); }
  .txt-bold    { font-weight: 600; }
  svg text     { font-family: -apple-system, BlinkMacSystemFont, "Segoe UI", Helvetica, Arial, sans-serif; }
</style>

<rect x="0" y="0" width="820" height="180" rx="8" class="card"/>
  <text x="20" y="24" class="clr-primary txt-bold" text-anchor="start" font-size="14">Contribution History &amp; Activity</text>
  <line x1="20" y1="36" x2="800" y2="36" class="divider"/>
  <text x="20" y="60" class="clr-muted" text-anchor="start" font-size="12">Years Active:</text>
  <text x="100" y="60" class="clr-primary txt-bold" text-anchor="start" font-size="12">5.8</text>
  <text x="160" y="60" class="clr-muted" text-anchor="start" font-size="12">Commits (Last Year):</text>
  <text x="290" y="60" class="clr-primary txt-bold" text-anchor="start" font-size="12">1229</text>
  <text x="360" y="60" class="clr-muted" text-anchor="start" font-size="12">Highest Daily:</text>
  <text x="450" y="60" class="clr-primary txt-bold" text-anchor="start" font-size="12">163</text>
  <polygon points="20,160 20,160 22.137,160 24.274,159.018 26.411,160 28.5479,160 30.6849,160 32.8219,145.276 34.9589,155.583 37.0959,157.546 39.2329,155.583 41.3699,157.055 43.5068,156.074 45.6438,160 47.7808,160 49.9178,160 52.0548,158.037 54.1918,159.018 56.3288,158.037 58.4658,156.564 60.6027,160 62.7397,158.528 64.8767,156.564 67.0137,160 69.1507,154.11 71.2877,149.202 73.4247,149.202 75.5616,153.62 77.6986,141.84 79.8356,154.601 81.9726,160 84.1096,154.601 86.2466,160 88.3836,160 90.5205,157.546 92.6575,148.221 94.7945,159.018 96.9315,160 99.0685,158.037 101.205,160 103.342,159.509 105.479,160 107.616,160 109.753,160 111.89,160 114.027,151.656 116.164,155.583 118.301,156.074 120.438,157.546 122.575,150.675 124.712,160 126.849,158.037 128.986,156.564 131.123,158.037 133.26,156.074 135.397,160 137.534,154.11 139.671,160 141.808,159.509 143.945,160 146.082,160 148.219,157.546 150.356,160 152.493,160 154.63,160 156.767,160 158.904,160 161.041,160 163.178,160 165.315,160 167.452,160 169.589,160 171.726,160 173.863,160 176,160 178.137,160 180.274,160 182.411,160 184.548,154.601 186.685,158.037 188.822,160 190.959,160 193.096,160 195.233,160 197.37,160 199.507,160 201.644,160 203.781,160 205.918,160 208.055,160 210.192,160 212.329,160 214.466,160 216.603,160 218.74,160 220.877,160 223.014,160 225.151,160 227.288,160 229.425,160 231.562,160 233.699,157.055 235.836,160 237.973,160 240.11,160 242.247,160 244.384,155.092 246.521,160 248.658,160 250.795,160 252.932,160 255.068,137.423 257.205,153.62 259.342,80 261.479,155.092 263.616,149.202 265.753,155.092 267.89,158.037 270.027,158.528 272.164,159.509 274.301,156.074 276.438,160 278.575,159.018 280.712,160 282.849,159.509 284.986,159.018 287.123,159.509 289.26,160 291.397,158.528 293.534,160 295.671,159.018 297.808,159.018 299.945,157.546 302.082,157.055 304.219,160 306.356,160 308.493,159.509 310.63,159.509 312.767,158.528 314.904,159.509 317.041,157.055 319.178,157.055 321.315,159.018 323.452,158.528 325.589,147.239 327.726,157.055 329.863,129.08 332,147.239 334.137,153.129 336.274,160 338.411,160 340.548,160 342.685,151.656 344.822,158.528 346.959,160 349.096,160 351.233,138.405 353.37,158.528 355.507,160 357.644,160 359.781,160 361.918,160 364.055,160 366.192,160 368.329,160 370.466,160 372.603,160 374.74,160 376.877,160 379.014,160 381.151,160 383.288,160 385.425,160 387.562,159.509 389.699,160 391.836,160 393.973,160 396.11,160 398.247,160 400.384,160 402.521,160 404.658,160 406.795,160 408.932,159.509 411.068,158.037 413.205,160 415.342,160 417.479,160 419.616,160 421.753,160 423.89,160 426.027,160 428.164,160 430.301,160 432.438,160 434.575,160 436.712,159.509 438.849,158.037 440.986,157.055 443.123,160 445.26,160 447.397,160 449.534,156.564 451.671,157.546 453.808,147.239 455.945,160 458.082,160 460.219,160 462.356,155.092 464.493,148.221 466.63,160 468.767,160 470.904,158.037 473.041,160 475.178,158.037 477.315,160 479.452,160 481.589,160 483.726,160 485.863,160 488,160 490.137,159.018 492.274,144.294 494.411,159.018 496.548,160 498.685,139.387 500.822,121.718 502.959,120.736 505.096,147.73 507.233,146.258 509.37,157.055 511.507,160 513.644,160 515.781,160 517.918,160 520.055,160 522.192,160 524.329,160 526.466,160 528.603,157.546 530.74,153.62 532.877,148.712 535.014,160 537.151,149.202 539.288,149.693 541.425,134.969 543.562,146.258 545.699,145.767 547.836,146.258 549.973,150.184 552.11,154.11 554.247,154.601 556.384,154.11 558.521,157.055 560.658,156.564 562.795,159.509 564.932,160 567.068,160 569.205,160 571.342,160 573.479,160 575.616,160 577.753,160 579.89,160 582.027,158.528 584.164,159.509 586.301,160 588.438,160 590.575,159.509 592.712,142.331 594.849,144.785 596.986,157.055 599.123,158.528 601.26,160 603.397,160 605.534,159.509 607.671,160 609.808,160 611.945,159.018 614.082,153.62 616.219,159.018 618.356,160 620.493,160 622.63,149.693 624.767,155.583 626.904,158.528 629.041,156.074 631.178,155.583 633.315,159.509 635.452,159.509 637.589,160 639.726,160 641.863,151.656 644,140.859 646.137,155.092 648.274,160 650.411,141.84 652.548,150.184 654.685,152.147 656.822,160 658.959,160 661.096,160 663.233,160 665.37,160 667.507,160 669.644,160 671.781,160 673.918,160 676.055,160 678.192,160 680.329,160 682.466,158.037 684.603,160 686.74,160 688.877,160 691.014,160 693.151,160 695.288,160 697.425,160 699.562,160 701.699,160 703.836,160 705.973,160 708.11,160 710.247,160 712.384,160 714.521,156.564 716.658,154.601 718.795,160 720.932,160 723.068,160 725.205,160 727.342,159.509 729.479,160 731.616,160 733.753,159.509 735.89,159.509 738.027,160 740.164,159.509 742.301,160 744.438,160 746.575,156.074 748.712,159.509 750.849,159.509 752.986,160 755.123,158.037 757.26,160 759.397,160 761.534,160 763.671,160 765.808,160 767.945,160 770.082,160 772.219,150.184 774.356,158.528 776.493,159.509 778.63,159.018 780.767,160 782.904,160 785.041,160 787.178,160 789.315,160 791.452,160 793.589,160 795.726,160 797.863,160 800,160 800,160" fill="var(--pill)" opacity="0.6"/>
  <polyline points="20,160 22.137,160 24.274,159.018 26.411,160 28.5479,160 30.6849,160 32.8219,145.276 34.9589,155.583 37.0959,157.546 39.2329,155.583 41.3699,157.055 43.5068,156.074 45.6438,160 47.7808,160 49.9178,160 52.0548,158.037 54.1918,159.018 56.3288,158.037 58.4658,156.564 60.6027,160 62.7397,158.528 64.8767,156.564 67.0137,160 69.1507,154.11 71.2877,149.202 73.4247,149.202 75.5616,153.62 77.6986,141.84 79.8356,154.601 81.9726,160 84.1096,154.601 86.2466,160 88.3836,160 90.5205,157.546 92.6575,148.221 94.7945,159.018 96.9315,160 99.0685,158.037 101.205,160 103.342,159.509 105.479,160 107.616,160 109.753,160 111.89,160 114.027,151.656 116.164,155.583 118.301,156.074 120.438,157.546 122.575,150.675 124.712,160 126.849,158.037 128.986,156.564 131.123,158.037 133.26,156.074 135.397,160 137.534,154.11 139.671,160 141.808,159.509 143.945,160 146.082,160 148.219,157.546 150.356,160 152.493,160 154.63,160 156.767,160 158.904,160 161.041,160 163.178,160 165.315,160 167.452,160 169.589,160 171.726,160 173.863,160 176,160 178.137,160 180.274,160 182.411,160 184.548,154.601 186.685,158.037 188.822,160 190.959,160 193.096,160 195.233,160 197.37,160 199.507,160 201.644,160 203.781,160 205.918,160 208.055,160 210.192,160 212.329,160 214.466,160 216.603,160 218.74,160 220.877,160 223.014,160 225.151,160 227.288,160 229.425,160 231.562,160 233.699,157.055 235.836,160 237.973,160 240.11,160 242.247,160 244.384,155.092 246.521,160 248.658,160 250.795,160 252.932,160 255.068,137.423 257.205,153.62 259.342,80 261.479,155.092 263.616,149.202 265.753,155.092 267.89,158.037 270.027,158.528 272.164,159.509 274.301,156.074 276.438,160 278.575,159.018 280.712,160 282.849,159.509 284.986,159.018 287.123,159.509 289.26,160 291.397,158.528 293.534,160 295.671,159.018 297.808,159.018 299.945,157.546 302.082,157.055 304.219,160 306.356,160 308.493,159.509 310.63,159.509 312.767,158.528 314.904,159.509 317.041,157.055 319.178,157.055 321.315,159.018 323.452,158.528 325.589,147.239 327.726,157.055 329.863,129.08 332,147.239 334.137,153.129 336.274,160 338.411,160 340.548,160 342.685,151.656 344.822,158.528 346.959,160 349.096,160 351.233,138.405 353.37,158.528 355.507,160 357.644,160 359.781,160 361.918,160 364.055,160 366.192,160 368.329,160 370.466,160 372.603,160 374.74,160 376.877,160 379.014,160 381.151,160 383.288,160 385.425,160 387.562,159.509 389.699,160 391.836,160 393.973,160 396.11,160 398.247,160 400.384,160 402.521,160 404.658,160 406.795,160 408.932,159.509 411.068,158.037 413.205,160 415.342,160 417.479,160 419.616,160 421.753,160 423.89,160 426.027,160 428.164,160 430.301,160 432.438,160 434.575,160 436.712,159.509 438.849,158.037 440.986,157.055 443.123,160 445.26,160 447.397,160 449.534,156.564 451.671,157.546 453.808,147.239 455.945,160 458.082,160 460.219,160 462.356,155.092 464.493,148.221 466.63,160 468.767,160 470.904,158.037 473.041,160 475.178,158.037 477.315,160 479.452,160 481.589,160 483.726,160 485.863,160 488,160 490.137,159.018 492.274,144.294 494.411,159.018 496.548,160 498.685,139.387 500.822,121.718 502.959,120.736 505.096,147.73 507.233,146.258 509.37,157.055 511.507,160 513.644,160 515.781,160 517.918,160 520.055,160 522.192,160 524.329,160 526.466,160 528.603,157.546 530.74,153.62 532.877,148.712 535.014,160 537.151,149.202 539.288,149.693 541.425,134.969 543.562,146.258 545.699,145.767 547.836,146.258 549.973,150.184 552.11,154.11 554.247,154.601 556.384,154.11 558.521,157.055 560.658,156.564 562.795,159.509 564.932,160 567.068,160 569.205,160 571.342,160 573.479,160 575.616,160 577.753,160 579.89,160 582.027,158.528 584.164,159.509 586.301,160 588.438,160 590.575,159.509 592.712,142.331 594.849,144.785 596.986,157.055 599.123,158.528 601.26,160 603.397,160 605.534,159.509 607.671,160 609.808,160 611.945,159.018 614.082,153.62 616.219,159.018 618.356,160 620.493,160 622.63,149.693 624.767,155.583 626.904,158.528 629.041,156.074 631.178,155.583 633.315,159.509 635.452,159.509 637.589,160 639.726,160 641.863,151.656 644,140.859 646.137,155.092 648.274,160 650.411,141.84 652.548,150.184 654.685,152.147 656.822,160 658.959,160 661.096,160 663.233,160 665.37,160 667.507,160 669.644,160 671.781,160 673.918,160 676.055,160 678.192,160 680.329,160 682.466,158.037 684.603,160 686.74,160 688.877,160 691.014,160 693.151,160 695.288,160 697.425,160 699.562,160 701.699,160 703.836,160 705.973,160 708.11,160 710.247,160 712.384,160 714.521,156.564 716.658,154.601 718.795,160 720.932,160 723.068,160 725.205,160 727.342,159.509 729.479,160 731.616,160 733.753,159.509 735.89,159.509 738.027,160 740.164,159.509 742.301,160 744.438,160 746.575,156.074 748.712,159.509 750.849,159.509 752.986,160 755.123,158.037 757.26,160 759.397,160 761.534,160 763.671,160 765.808,160 767.945,160 770.082,160 772.219,150.184 774.356,158.528 776.493,159.509 778.63,159.018 780.767,160 782.904,160 785.041,160 787.178,160 789.315,160 791.452,160 793.589,160 795.726,160 797.863,160 800,160" fill="none" stroke="var(--accent)" stroke-width="1.5" stroke-linecap="round" stroke-linejoin="round"/>
</svg>

