<svg xmlns="http://www.w3.org/2000/svg" width="820" height="180" viewBox="0 0 820 180">

<style>
  :root {
    --bg:        #f6f8fa;
    --card:      #ffffff;
    --border:    #d0d7de;
    --primary:   #1f2328;
    --secondary: #636c76;
    --muted:     #8c959f;
    --accent:    #0969da;
    --green:     #1a7f37;
    --yellow:    #9a6700;
    --red:       #cf222e;
    --hover:     #f3f4f6;
    --spark-bg:  #f0f3f6;
    --spark:     #0969da;
    --pill:      #eaf1fb;
    --pill-txt:  #0969da;
    --div:       #d0d7de;
  }
  @media (prefers-color-scheme: dark) {
    :root {
      --bg:        #0d1117;
      --card:      #161b22;
      --border:    #30363d;
      --primary:   #e6edf3;
      --secondary: #848d97;
      --muted:     #7d8590;
      --accent:    #2f81f7;
      --green:     #3fb950;
      --yellow:    #d29922;
      --red:       #f85149;
      --hover:     #21262d;
      --spark-bg:  #1c2128;
      --spark:     #58a6ff;
      --pill:      #1c2d3f;
      --pill-txt:  #58a6ff;
      --div:       #30363d;
    }
  }
  
  .bg          { fill: var(--bg); }
  .card        { fill: var(--card); stroke: var(--border); stroke-width: 1; }
  .lang-pill   { fill: var(--pill); }
  .spark-bg    { fill: var(--spark-bg); }
  .spark-line  { stroke: var(--spark); }
  .divider     { stroke: var(--div); stroke-width: 1; }
  .clr-primary   { fill: var(--primary); }
  .clr-secondary { fill: var(--secondary); }
  .clr-muted     { fill: var(--muted); }
  .clr-accent    { fill: var(--accent); }
  .clr-green     { fill: var(--green); }
  .clr-yellow    { fill: var(--yellow); }
  .clr-red       { fill: var(--red); }
  .txt-bold    { font-weight: 600; }
  svg text     { font-family: -apple-system, BlinkMacSystemFont, "Segoe UI", Helvetica, Arial, sans-serif; }
</style>

<rect x="0" y="0" width="820" height="180" rx="8" class="card"/>
  <text x="20" y="24" class="clr-primary txt-bold" text-anchor="start" font-size="14">Contribution History &amp; Activity</text>
  <line x1="20" y1="36" x2="800" y2="36" class="divider"/>
  <text x="20" y="60" class="clr-muted" text-anchor="start" font-size="12">Years Active:</text>
  <text x="100" y="60" class="clr-primary txt-bold" text-anchor="start" font-size="12">5.8</text>
  <text x="160" y="60" class="clr-muted" text-anchor="start" font-size="12">Commits (Last Year):</text>
  <text x="290" y="60" class="clr-primary txt-bold" text-anchor="start" font-size="12">1229</text>
  <text x="360" y="60" class="clr-muted" text-anchor="start" font-size="12">Highest Daily:</text>
  <text x="450" y="60" class="clr-primary txt-bold" text-anchor="start" font-size="12">163</text>
  <polygon points="20,160 20,160 22.1138,160 24.2276,160 26.3415,160 28.4553,160 30.5691,160 32.6829,160 34.7967,160 36.9106,160 39.0244,159.018 41.1382,160 43.252,160 45.3659,160 47.4797,145.276 49.5935,155.583 51.7073,157.546 53.8211,155.583 55.935,157.055 58.0488,156.074 60.1626,160 62.2764,160 64.3902,160 66.5041,158.037 68.6179,159.018 70.7317,158.037 72.8455,156.564 74.9593,160 77.0732,158.528 79.187,156.564 81.3008,160 83.4146,154.11 85.5285,149.202 87.6423,149.202 89.7561,153.62 91.8699,141.84 93.9837,154.601 96.0976,160 98.2114,154.601 100.325,160 102.439,160 104.553,157.546 106.667,148.221 108.78,159.018 110.894,160 113.008,158.037 115.122,160 117.236,159.509 119.35,160 121.463,160 123.577,160 125.691,160 127.805,151.656 129.919,155.583 132.033,156.074 134.146,157.546 136.26,150.675 138.374,160 140.488,158.037 142.602,156.564 144.715,158.037 146.829,156.074 148.943,160 151.057,154.11 153.171,160 155.285,159.509 157.398,160 159.512,160 161.626,157.546 163.74,160 165.854,160 167.967,160 170.081,160 172.195,160 174.309,160 176.423,160 178.537,160 180.65,160 182.764,160 184.878,160 186.992,160 189.106,160 191.22,160 193.333,160 195.447,160 197.561,154.601 199.675,158.037 201.789,160 203.902,160 206.016,160 208.13,160 210.244,160 212.358,160 214.472,160 216.585,160 218.699,160 220.813,160 222.927,160 225.041,160 227.154,160 229.268,160 231.382,160 233.496,160 235.61,160 237.724,160 239.837,160 241.951,160 244.065,160 246.179,157.055 248.293,160 250.407,160 252.52,160 254.634,160 256.748,155.092 258.862,160 260.976,160 263.089,160 265.203,160 267.317,137.423 269.431,153.62 271.545,80 273.659,155.092 275.772,149.202 277.886,155.092 280,158.037 282.114,158.528 284.228,159.509 286.341,156.074 288.455,160 290.569,159.018 292.683,160 294.797,159.509 296.911,159.018 299.024,159.509 301.138,160 303.252,158.528 305.366,160 307.48,159.018 309.593,159.018 311.707,157.546 313.821,157.055 315.935,160 318.049,160 320.163,159.509 322.276,159.509 324.39,158.528 326.504,159.509 328.618,157.055 330.732,157.055 332.846,159.018 334.959,158.528 337.073,147.239 339.187,157.055 341.301,129.08 343.415,147.239 345.528,153.129 347.642,160 349.756,160 351.87,160 353.984,151.656 356.098,158.528 358.211,160 360.325,160 362.439,138.405 364.553,158.528 366.667,160 368.78,160 370.894,160 373.008,160 375.122,160 377.236,160 379.35,160 381.463,160 383.577,160 385.691,160 387.805,160 389.919,160 392.033,160 394.146,160 396.26,160 398.374,159.509 400.488,160 402.602,160 404.715,160 406.829,160 408.943,160 411.057,160 413.171,160 415.285,160 417.398,160 419.512,159.509 421.626,158.037 423.74,160 425.854,160 427.967,160 430.081,160 432.195,160 434.309,160 436.423,160 438.537,160 440.65,160 442.764,160 444.878,160 446.992,159.509 449.106,158.037 451.22,157.055 453.333,160 455.447,160 457.561,160 459.675,156.564 461.789,157.546 463.902,147.239 466.016,160 468.13,160 470.244,160 472.358,155.092 474.472,148.221 476.585,160 478.699,160 480.813,158.037 482.927,160 485.041,158.037 487.154,160 489.268,160 491.382,160 493.496,160 495.61,160 497.724,160 499.837,159.018 501.951,144.294 504.065,159.018 506.179,160 508.293,139.387 510.407,121.718 512.52,120.736 514.634,147.73 516.748,146.258 518.862,157.055 520.976,160 523.089,160 525.203,160 527.317,160 529.431,160 531.545,160 533.659,160 535.772,160 537.886,157.546 540,153.62 542.114,148.712 544.228,160 546.341,149.202 548.455,149.693 550.569,134.969 552.683,146.258 554.797,145.767 556.911,146.258 559.024,150.184 561.138,154.11 563.252,154.601 565.366,154.11 567.48,157.055 569.593,156.564 571.707,159.509 573.821,160 575.935,160 578.049,160 580.163,160 582.276,160 584.39,160 586.504,160 588.618,160 590.732,158.528 592.846,159.509 594.959,160 597.073,160 599.187,159.509 601.301,142.331 603.415,144.785 605.528,157.055 607.642,158.528 609.756,160 611.87,160 613.984,159.509 616.098,160 618.211,160 620.325,159.018 622.439,153.62 624.553,159.018 626.667,160 628.78,160 630.894,149.693 633.008,155.583 635.122,158.528 637.236,156.074 639.35,155.583 641.463,159.509 643.577,159.509 645.691,160 647.805,160 649.919,151.656 652.033,140.859 654.146,155.092 656.26,160 658.374,141.84 660.488,150.184 662.602,152.147 664.715,160 666.829,160 668.943,160 671.057,160 673.171,160 675.285,160 677.398,160 679.512,160 681.626,160 683.74,160 685.854,160 687.967,160 690.081,158.037 692.195,160 694.309,160 696.423,160 698.537,160 700.65,160 702.764,160 704.878,160 706.992,160 709.106,160 711.22,160 713.333,160 715.447,160 717.561,160 719.675,160 721.789,156.564 723.902,154.601 726.016,160 728.13,160 730.244,160 732.358,160 734.472,159.509 736.585,160 738.699,160 740.813,159.509 742.927,159.509 745.041,160 747.154,159.509 749.268,160 751.382,160 753.496,156.074 755.61,159.509 757.724,159.509 759.837,160 761.951,158.037 764.065,160 766.179,160 768.293,160 770.407,160 772.52,160 774.634,160 776.748,160 778.862,150.184 780.976,158.528 783.089,159.509 785.203,159.018 787.317,160 789.431,160 791.545,160 793.659,160 795.772,160 797.886,160 800,160 800,160" fill="var(--pill)" opacity="0.6"/>
  <polyline points="20,160 22.1138,160 24.2276,160 26.3415,160 28.4553,160 30.5691,160 32.6829,160 34.7967,160 36.9106,160 39.0244,159.018 41.1382,160 43.252,160 45.3659,160 47.4797,145.276 49.5935,155.583 51.7073,157.546 53.8211,155.583 55.935,157.055 58.0488,156.074 60.1626,160 62.2764,160 64.3902,160 66.5041,158.037 68.6179,159.018 70.7317,158.037 72.8455,156.564 74.9593,160 77.0732,158.528 79.187,156.564 81.3008,160 83.4146,154.11 85.5285,149.202 87.6423,149.202 89.7561,153.62 91.8699,141.84 93.9837,154.601 96.0976,160 98.2114,154.601 100.325,160 102.439,160 104.553,157.546 106.667,148.221 108.78,159.018 110.894,160 113.008,158.037 115.122,160 117.236,159.509 119.35,160 121.463,160 123.577,160 125.691,160 127.805,151.656 129.919,155.583 132.033,156.074 134.146,157.546 136.26,150.675 138.374,160 140.488,158.037 142.602,156.564 144.715,158.037 146.829,156.074 148.943,160 151.057,154.11 153.171,160 155.285,159.509 157.398,160 159.512,160 161.626,157.546 163.74,160 165.854,160 167.967,160 170.081,160 172.195,160 174.309,160 176.423,160 178.537,160 180.65,160 182.764,160 184.878,160 186.992,160 189.106,160 191.22,160 193.333,160 195.447,160 197.561,154.601 199.675,158.037 201.789,160 203.902,160 206.016,160 208.13,160 210.244,160 212.358,160 214.472,160 216.585,160 218.699,160 220.813,160 222.927,160 225.041,160 227.154,160 229.268,160 231.382,160 233.496,160 235.61,160 237.724,160 239.837,160 241.951,160 244.065,160 246.179,157.055 248.293,160 250.407,160 252.52,160 254.634,160 256.748,155.092 258.862,160 260.976,160 263.089,160 265.203,160 267.317,137.423 269.431,153.62 271.545,80 273.659,155.092 275.772,149.202 277.886,155.092 280,158.037 282.114,158.528 284.228,159.509 286.341,156.074 288.455,160 290.569,159.018 292.683,160 294.797,159.509 296.911,159.018 299.024,159.509 301.138,160 303.252,158.528 305.366,160 307.48,159.018 309.593,159.018 311.707,157.546 313.821,157.055 315.935,160 318.049,160 320.163,159.509 322.276,159.509 324.39,158.528 326.504,159.509 328.618,157.055 330.732,157.055 332.846,159.018 334.959,158.528 337.073,147.239 339.187,157.055 341.301,129.08 343.415,147.239 345.528,153.129 347.642,160 349.756,160 351.87,160 353.984,151.656 356.098,158.528 358.211,160 360.325,160 362.439,138.405 364.553,158.528 366.667,160 368.78,160 370.894,160 373.008,160 375.122,160 377.236,160 379.35,160 381.463,160 383.577,160 385.691,160 387.805,160 389.919,160 392.033,160 394.146,160 396.26,160 398.374,159.509 400.488,160 402.602,160 404.715,160 406.829,160 408.943,160 411.057,160 413.171,160 415.285,160 417.398,160 419.512,159.509 421.626,158.037 423.74,160 425.854,160 427.967,160 430.081,160 432.195,160 434.309,160 436.423,160 438.537,160 440.65,160 442.764,160 444.878,160 446.992,159.509 449.106,158.037 451.22,157.055 453.333,160 455.447,160 457.561,160 459.675,156.564 461.789,157.546 463.902,147.239 466.016,160 468.13,160 470.244,160 472.358,155.092 474.472,148.221 476.585,160 478.699,160 480.813,158.037 482.927,160 485.041,158.037 487.154,160 489.268,160 491.382,160 493.496,160 495.61,160 497.724,160 499.837,159.018 501.951,144.294 504.065,159.018 506.179,160 508.293,139.387 510.407,121.718 512.52,120.736 514.634,147.73 516.748,146.258 518.862,157.055 520.976,160 523.089,160 525.203,160 527.317,160 529.431,160 531.545,160 533.659,160 535.772,160 537.886,157.546 540,153.62 542.114,148.712 544.228,160 546.341,149.202 548.455,149.693 550.569,134.969 552.683,146.258 554.797,145.767 556.911,146.258 559.024,150.184 561.138,154.11 563.252,154.601 565.366,154.11 567.48,157.055 569.593,156.564 571.707,159.509 573.821,160 575.935,160 578.049,160 580.163,160 582.276,160 584.39,160 586.504,160 588.618,160 590.732,158.528 592.846,159.509 594.959,160 597.073,160 599.187,159.509 601.301,142.331 603.415,144.785 605.528,157.055 607.642,158.528 609.756,160 611.87,160 613.984,159.509 616.098,160 618.211,160 620.325,159.018 622.439,153.62 624.553,159.018 626.667,160 628.78,160 630.894,149.693 633.008,155.583 635.122,158.528 637.236,156.074 639.35,155.583 641.463,159.509 643.577,159.509 645.691,160 647.805,160 649.919,151.656 652.033,140.859 654.146,155.092 656.26,160 658.374,141.84 660.488,150.184 662.602,152.147 664.715,160 666.829,160 668.943,160 671.057,160 673.171,160 675.285,160 677.398,160 679.512,160 681.626,160 683.74,160 685.854,160 687.967,160 690.081,158.037 692.195,160 694.309,160 696.423,160 698.537,160 700.65,160 702.764,160 704.878,160 706.992,160 709.106,160 711.22,160 713.333,160 715.447,160 717.561,160 719.675,160 721.789,156.564 723.902,154.601 726.016,160 728.13,160 730.244,160 732.358,160 734.472,159.509 736.585,160 738.699,160 740.813,159.509 742.927,159.509 745.041,160 747.154,159.509 749.268,160 751.382,160 753.496,156.074 755.61,159.509 757.724,159.509 759.837,160 761.951,158.037 764.065,160 766.179,160 768.293,160 770.407,160 772.52,160 774.634,160 776.748,160 778.862,150.184 780.976,158.528 783.089,159.509 785.203,159.018 787.317,160 789.431,160 791.545,160 793.659,160 795.772,160 797.886,160 800,160" fill="none" stroke="var(--accent)" stroke-width="1.5" stroke-linecap="round" stroke-linejoin="round"/>
</svg>

