<svg xmlns="http://www.w3.org/2000/svg" width="820" height="180" viewBox="0 0 820 180">

<style>
  :root {
    --bg:        #f6f8fa;
    --card:      #ffffff;
    --border:    #d0d7de;
    --primary:   #1f2328;
    --secondary: #636c76;
    --muted:     #8c959f;
    --accent:    #0969da;
    --green:     #1a7f37;
    --yellow:    #9a6700;
    --red:       #cf222e;
    --hover:     #f3f4f6;
    --spark-bg:  #f0f3f6;
    --spark:     #0969da;
    --pill:      #eaf1fb;
    --pill-txt:  #0969da;
    --div:       #d0d7de;
  }
  @media (prefers-color-scheme: dark) {
    :root {
      --bg:        #0d1117;
      --card:      #161b22;
      --border:    #30363d;
      --primary:   #e6edf3;
      --secondary: #848d97;
      --muted:     #7d8590;
      --accent:    #2f81f7;
      --green:     #3fb950;
      --yellow:    #d29922;
      --red:       #f85149;
      --hover:     #21262d;
      --spark-bg:  #1c2128;
      --spark:     #58a6ff;
      --pill:      #1c2d3f;
      --pill-txt:  #58a6ff;
      --div:       #30363d;
    }
  }
  
  .bg          { fill: var(--bg); }
  .card        { fill: var(--card); stroke: var(--border); stroke-width: 1; }
  .lang-pill   { fill: var(--pill); }
  .spark-bg    { fill: var(--spark-bg); }
  .spark-line  { stroke: var(--spark); }
  .divider     { stroke: var(--div); stroke-width: 1; }
  .clr-primary   { fill: var(--primary); }
  .clr-secondary { fill: var(--secondary); }
  .clr-muted     { fill: var(--muted); }
  .clr-accent    { fill: var(--accent); }
  .clr-green     { fill: var(--green); }
  .clr-yellow    { fill: var(--yellow); }
  .clr-red       { fill: var(--red); }
  .txt-bold    { font-weight: 600; }
  svg text     { font-family: -apple-system, BlinkMacSystemFont, "Segoe UI", Helvetica, Arial, sans-serif; }
</style>

<rect x="0" y="0" width="820" height="180" rx="8" class="card"/>
  <text x="20" y="24" class="clr-primary txt-bold" text-anchor="start" font-size="14">Contribution History &amp; Activity</text>
  <line x1="20" y1="36" x2="800" y2="36" class="divider"/>
  <text x="20" y="60" class="clr-muted" text-anchor="start" font-size="12">Years Active:</text>
  <text x="100" y="60" class="clr-primary txt-bold" text-anchor="start" font-size="12">5.7</text>
  <text x="160" y="60" class="clr-muted" text-anchor="start" font-size="12">Commits (Last Year):</text>
  <text x="290" y="60" class="clr-primary txt-bold" text-anchor="start" font-size="12">1173</text>
  <text x="360" y="60" class="clr-muted" text-anchor="start" font-size="12">Highest Daily:</text>
  <text x="450" y="60" class="clr-primary txt-bold" text-anchor="start" font-size="12">163</text>
  <polygon points="20,160 20,160 22.1253,160 24.2507,160 26.376,160 28.5014,160 30.6267,160 32.752,160 34.8774,160 37.0027,160 39.1281,160 41.2534,160 43.3787,160 45.5041,160 47.6294,160 49.7548,160 51.8801,160 54.0054,160 56.1308,160 58.2561,159.509 60.3815,160 62.5068,160 64.6322,160 66.7575,160 68.8828,160 71.0082,160 73.1335,160 75.2589,160 77.3842,160 79.5095,160 81.6349,160 83.7602,160 85.8856,160 88.0109,160 90.1362,160 92.2616,160 94.3869,160 96.5123,160 98.6376,160 100.763,160 102.888,160 105.014,160 107.139,160 109.264,160 111.39,160 113.515,159.018 115.64,160 117.766,160 119.891,160 122.016,145.276 124.142,155.583 126.267,157.546 128.392,155.583 130.518,157.055 132.643,156.074 134.768,160 136.894,160 139.019,160 141.144,158.037 143.27,159.018 145.395,158.037 147.52,156.564 149.646,160 151.771,158.528 153.896,156.564 156.022,160 158.147,154.11 160.272,149.202 162.398,149.202 164.523,153.62 166.649,141.84 168.774,154.601 170.899,160 173.025,154.601 175.15,160 177.275,160 179.401,157.546 181.526,148.221 183.651,159.018 185.777,160 187.902,158.037 190.027,160 192.153,159.509 194.278,160 196.403,160 198.529,160 200.654,160 202.779,151.656 204.905,155.583 207.03,156.074 209.155,157.546 211.281,150.675 213.406,160 215.531,158.037 217.657,156.564 219.782,158.037 221.907,156.074 224.033,160 226.158,154.11 228.283,160 230.409,159.509 232.534,160 234.659,160 236.785,157.546 238.91,160 241.035,160 243.161,160 245.286,160 247.411,160 249.537,160 251.662,160 253.787,160 255.913,160 258.038,160 260.163,160 262.289,160 264.414,160 266.54,160 268.665,160 270.79,160 272.916,154.601 275.041,158.037 277.166,160 279.292,160 281.417,160 283.542,160 285.668,160 287.793,160 289.918,160 292.044,160 294.169,160 296.294,160 298.42,160 300.545,160 302.67,160 304.796,160 306.921,160 309.046,160 311.172,160 313.297,160 315.422,160 317.548,160 319.673,160 321.798,157.055 323.924,160 326.049,160 328.174,160 330.3,160 332.425,155.092 334.55,160 336.676,160 338.801,160 340.926,160 343.052,137.423 345.177,153.62 347.302,80 349.428,155.092 351.553,149.202 353.678,155.092 355.804,158.037 357.929,158.528 360.054,159.509 362.18,156.074 364.305,160 366.431,159.018 368.556,160 370.681,159.509 372.807,159.018 374.932,159.509 377.057,160 379.183,158.528 381.308,160 383.433,159.018 385.559,159.018 387.684,157.546 389.809,157.055 391.935,160 394.06,160 396.185,159.509 398.311,159.509 400.436,158.528 402.561,159.509 404.687,157.055 406.812,157.055 408.937,159.018 411.063,158.528 413.188,147.239 415.313,157.055 417.439,129.08 419.564,147.239 421.689,153.129 423.815,160 425.94,160 428.065,160 430.191,151.656 432.316,158.528 434.441,160 436.567,160 438.692,138.405 440.817,158.528 442.943,160 445.068,160 447.193,160 449.319,160 451.444,160 453.569,160 455.695,160 457.82,160 459.946,160 462.071,160 464.196,160 466.322,160 468.447,160 470.572,160 472.698,160 474.823,159.509 476.948,160 479.074,160 481.199,160 483.324,160 485.45,160 487.575,160 489.7,160 491.826,160 493.951,160 496.076,159.509 498.202,158.037 500.327,160 502.452,160 504.578,160 506.703,160 508.828,160 510.954,160 513.079,160 515.204,160 517.33,160 519.455,160 521.58,160 523.706,159.509 525.831,158.037 527.956,157.055 530.082,160 532.207,160 534.332,160 536.458,156.564 538.583,157.546 540.708,147.239 542.834,160 544.959,160 547.084,160 549.21,155.092 551.335,148.221 553.46,160 555.586,160 557.711,158.037 559.837,160 561.962,158.037 564.087,160 566.213,160 568.338,160 570.463,160 572.589,160 574.714,160 576.839,159.018 578.965,144.294 581.09,159.018 583.215,160 585.341,139.387 587.466,121.718 589.591,120.736 591.717,147.73 593.842,146.258 595.967,157.055 598.093,160 600.218,160 602.343,160 604.469,160 606.594,160 608.719,160 610.845,160 612.97,160 615.095,157.546 617.221,153.62 619.346,148.712 621.471,160 623.597,149.202 625.722,149.693 627.847,134.969 629.973,146.258 632.098,145.767 634.223,146.258 636.349,150.184 638.474,154.11 640.599,154.601 642.725,154.11 644.85,157.055 646.975,156.564 649.101,159.509 651.226,160 653.351,160 655.477,160 657.602,160 659.728,160 661.853,160 663.978,160 666.104,160 668.229,158.528 670.354,159.509 672.48,160 674.605,160 676.73,159.509 678.856,142.331 680.981,144.785 683.106,157.055 685.232,158.528 687.357,160 689.482,160 691.608,159.509 693.733,160 695.858,160 697.984,159.018 700.109,153.62 702.234,159.018 704.36,160 706.485,160 708.61,149.693 710.736,155.583 712.861,158.528 714.986,156.074 717.112,155.583 719.237,159.509 721.362,159.509 723.488,160 725.613,160 727.738,151.656 729.864,140.859 731.989,155.092 734.114,160 736.24,141.84 738.365,150.184 740.49,152.147 742.616,160 744.741,160 746.866,160 748.992,160 751.117,160 753.243,160 755.368,160 757.493,160 759.619,160 761.744,160 763.869,160 765.995,160 768.12,158.037 770.245,160 772.371,160 774.496,160 776.621,160 778.747,160 780.872,160 782.997,160 785.123,160 787.248,160 789.373,160 791.499,160 793.624,160 795.749,160 797.875,160 800,160 800,160" fill="var(--pill)" opacity="0.6"/>
  <polyline points="20,160 22.1253,160 24.2507,160 26.376,160 28.5014,160 30.6267,160 32.752,160 34.8774,160 37.0027,160 39.1281,160 41.2534,160 43.3787,160 45.5041,160 47.6294,160 49.7548,160 51.8801,160 54.0054,160 56.1308,160 58.2561,159.509 60.3815,160 62.5068,160 64.6322,160 66.7575,160 68.8828,160 71.0082,160 73.1335,160 75.2589,160 77.3842,160 79.5095,160 81.6349,160 83.7602,160 85.8856,160 88.0109,160 90.1362,160 92.2616,160 94.3869,160 96.5123,160 98.6376,160 100.763,160 102.888,160 105.014,160 107.139,160 109.264,160 111.39,160 113.515,159.018 115.64,160 117.766,160 119.891,160 122.016,145.276 124.142,155.583 126.267,157.546 128.392,155.583 130.518,157.055 132.643,156.074 134.768,160 136.894,160 139.019,160 141.144,158.037 143.27,159.018 145.395,158.037 147.52,156.564 149.646,160 151.771,158.528 153.896,156.564 156.022,160 158.147,154.11 160.272,149.202 162.398,149.202 164.523,153.62 166.649,141.84 168.774,154.601 170.899,160 173.025,154.601 175.15,160 177.275,160 179.401,157.546 181.526,148.221 183.651,159.018 185.777,160 187.902,158.037 190.027,160 192.153,159.509 194.278,160 196.403,160 198.529,160 200.654,160 202.779,151.656 204.905,155.583 207.03,156.074 209.155,157.546 211.281,150.675 213.406,160 215.531,158.037 217.657,156.564 219.782,158.037 221.907,156.074 224.033,160 226.158,154.11 228.283,160 230.409,159.509 232.534,160 234.659,160 236.785,157.546 238.91,160 241.035,160 243.161,160 245.286,160 247.411,160 249.537,160 251.662,160 253.787,160 255.913,160 258.038,160 260.163,160 262.289,160 264.414,160 266.54,160 268.665,160 270.79,160 272.916,154.601 275.041,158.037 277.166,160 279.292,160 281.417,160 283.542,160 285.668,160 287.793,160 289.918,160 292.044,160 294.169,160 296.294,160 298.42,160 300.545,160 302.67,160 304.796,160 306.921,160 309.046,160 311.172,160 313.297,160 315.422,160 317.548,160 319.673,160 321.798,157.055 323.924,160 326.049,160 328.174,160 330.3,160 332.425,155.092 334.55,160 336.676,160 338.801,160 340.926,160 343.052,137.423 345.177,153.62 347.302,80 349.428,155.092 351.553,149.202 353.678,155.092 355.804,158.037 357.929,158.528 360.054,159.509 362.18,156.074 364.305,160 366.431,159.018 368.556,160 370.681,159.509 372.807,159.018 374.932,159.509 377.057,160 379.183,158.528 381.308,160 383.433,159.018 385.559,159.018 387.684,157.546 389.809,157.055 391.935,160 394.06,160 396.185,159.509 398.311,159.509 400.436,158.528 402.561,159.509 404.687,157.055 406.812,157.055 408.937,159.018 411.063,158.528 413.188,147.239 415.313,157.055 417.439,129.08 419.564,147.239 421.689,153.129 423.815,160 425.94,160 428.065,160 430.191,151.656 432.316,158.528 434.441,160 436.567,160 438.692,138.405 440.817,158.528 442.943,160 445.068,160 447.193,160 449.319,160 451.444,160 453.569,160 455.695,160 457.82,160 459.946,160 462.071,160 464.196,160 466.322,160 468.447,160 470.572,160 472.698,160 474.823,159.509 476.948,160 479.074,160 481.199,160 483.324,160 485.45,160 487.575,160 489.7,160 491.826,160 493.951,160 496.076,159.509 498.202,158.037 500.327,160 502.452,160 504.578,160 506.703,160 508.828,160 510.954,160 513.079,160 515.204,160 517.33,160 519.455,160 521.58,160 523.706,159.509 525.831,158.037 527.956,157.055 530.082,160 532.207,160 534.332,160 536.458,156.564 538.583,157.546 540.708,147.239 542.834,160 544.959,160 547.084,160 549.21,155.092 551.335,148.221 553.46,160 555.586,160 557.711,158.037 559.837,160 561.962,158.037 564.087,160 566.213,160 568.338,160 570.463,160 572.589,160 574.714,160 576.839,159.018 578.965,144.294 581.09,159.018 583.215,160 585.341,139.387 587.466,121.718 589.591,120.736 591.717,147.73 593.842,146.258 595.967,157.055 598.093,160 600.218,160 602.343,160 604.469,160 606.594,160 608.719,160 610.845,160 612.97,160 615.095,157.546 617.221,153.62 619.346,148.712 621.471,160 623.597,149.202 625.722,149.693 627.847,134.969 629.973,146.258 632.098,145.767 634.223,146.258 636.349,150.184 638.474,154.11 640.599,154.601 642.725,154.11 644.85,157.055 646.975,156.564 649.101,159.509 651.226,160 653.351,160 655.477,160 657.602,160 659.728,160 661.853,160 663.978,160 666.104,160 668.229,158.528 670.354,159.509 672.48,160 674.605,160 676.73,159.509 678.856,142.331 680.981,144.785 683.106,157.055 685.232,158.528 687.357,160 689.482,160 691.608,159.509 693.733,160 695.858,160 697.984,159.018 700.109,153.62 702.234,159.018 704.36,160 706.485,160 708.61,149.693 710.736,155.583 712.861,158.528 714.986,156.074 717.112,155.583 719.237,159.509 721.362,159.509 723.488,160 725.613,160 727.738,151.656 729.864,140.859 731.989,155.092 734.114,160 736.24,141.84 738.365,150.184 740.49,152.147 742.616,160 744.741,160 746.866,160 748.992,160 751.117,160 753.243,160 755.368,160 757.493,160 759.619,160 761.744,160 763.869,160 765.995,160 768.12,158.037 770.245,160 772.371,160 774.496,160 776.621,160 778.747,160 780.872,160 782.997,160 785.123,160 787.248,160 789.373,160 791.499,160 793.624,160 795.749,160 797.875,160 800,160" fill="none" stroke="var(--accent)" stroke-width="1.5" stroke-linecap="round" stroke-linejoin="round"/>
</svg>

