<svg xmlns="http://www.w3.org/2000/svg" width="820" height="180" viewBox="0 0 820 180">

<style>
  :root {
    --bg:        #f6f8fa;
    --card:      #ffffff;
    --border:    #d0d7de;
    --primary:   #1f2328;
    --secondary: #636c76;
    --muted:     #8c959f;
    --accent:    #0969da;
    --green:     #1a7f37;
    --yellow:    #9a6700;
    --red:       #cf222e;
    --hover:     #f3f4f6;
    --spark-bg:  #f0f3f6;
    --spark:     #0969da;
    --pill:      #eaf1fb;
    --pill-txt:  #0969da;
    --div:       #d0d7de;
  }
  @media (prefers-color-scheme: dark) {
    :root {
      --bg:        #0d1117;
      --card:      #161b22;
      --border:    #30363d;
      --primary:   #e6edf3;
      --secondary: #848d97;
      --muted:     #7d8590;
      --accent:    #2f81f7;
      --green:     #3fb950;
      --yellow:    #d29922;
      --red:       #f85149;
      --hover:     #21262d;
      --spark-bg:  #1c2128;
      --spark:     #58a6ff;
      --pill:      #1c2d3f;
      --pill-txt:  #58a6ff;
      --div:       #30363d;
    }
  }
  
  .bg          { fill: var(--bg); }
  .card        { fill: var(--card); stroke: var(--border); stroke-width: 1; }
  .lang-pill   { fill: var(--pill); }
  .spark-bg    { fill: var(--spark-bg); }
  .spark-line  { stroke: var(--spark); }
  .divider     { stroke: var(--div); stroke-width: 1; }
  .clr-primary   { fill: var(--primary); }
  .clr-secondary { fill: var(--secondary); }
  .clr-muted     { fill: var(--muted); }
  .clr-accent    { fill: var(--accent); }
  .clr-green     { fill: var(--green); }
  .clr-yellow    { fill: var(--yellow); }
  .clr-red       { fill: var(--red); }
  .txt-bold    { font-weight: 600; }
  svg text     { font-family: -apple-system, BlinkMacSystemFont, "Segoe UI", Helvetica, Arial, sans-serif; }
</style>

<rect x="0" y="0" width="820" height="180" rx="8" class="card"/>
  <text x="20" y="24" class="clr-primary txt-bold" text-anchor="start" font-size="14">Contribution History &amp; Activity</text>
  <line x1="20" y1="36" x2="800" y2="36" class="divider"/>
  <text x="20" y="60" class="clr-muted" text-anchor="start" font-size="12">Years Active:</text>
  <text x="100" y="60" class="clr-primary txt-bold" text-anchor="start" font-size="12">5.7</text>
  <text x="160" y="60" class="clr-muted" text-anchor="start" font-size="12">Commits (Last Year):</text>
  <text x="290" y="60" class="clr-primary txt-bold" text-anchor="start" font-size="12">1191</text>
  <text x="360" y="60" class="clr-muted" text-anchor="start" font-size="12">Highest Daily:</text>
  <text x="450" y="60" class="clr-primary txt-bold" text-anchor="start" font-size="12">163</text>
  <polygon points="20,160 20,160 22.1311,160 24.2623,160 26.3934,160 28.5246,160 30.6557,160 32.7869,160 34.918,160 37.0492,160 39.1803,160 41.3115,160 43.4426,159.509 45.5738,160 47.7049,160 49.8361,160 51.9672,160 54.0984,160 56.2295,160 58.3607,160 60.4918,160 62.623,160 64.7541,160 66.8852,160 69.0164,160 71.1475,160 73.2787,160 75.4098,160 77.541,160 79.6721,160 81.8033,160 83.9344,160 86.0656,160 88.1967,160 90.3279,160 92.459,160 94.5902,160 96.7213,160 98.8525,159.018 100.984,160 103.115,160 105.246,160 107.377,145.276 109.508,155.583 111.639,157.546 113.77,155.583 115.902,157.055 118.033,156.074 120.164,160 122.295,160 124.426,160 126.557,158.037 128.689,159.018 130.82,158.037 132.951,156.564 135.082,160 137.213,158.528 139.344,156.564 141.475,160 143.607,154.11 145.738,149.202 147.869,149.202 150,153.62 152.131,141.84 154.262,154.601 156.393,160 158.525,154.601 160.656,160 162.787,160 164.918,157.546 167.049,148.221 169.18,159.018 171.311,160 173.443,158.037 175.574,160 177.705,159.509 179.836,160 181.967,160 184.098,160 186.23,160 188.361,151.656 190.492,155.583 192.623,156.074 194.754,157.546 196.885,150.675 199.016,160 201.148,158.037 203.279,156.564 205.41,158.037 207.541,156.074 209.672,160 211.803,154.11 213.934,160 216.066,159.509 218.197,160 220.328,160 222.459,157.546 224.59,160 226.721,160 228.852,160 230.984,160 233.115,160 235.246,160 237.377,160 239.508,160 241.639,160 243.77,160 245.902,160 248.033,160 250.164,160 252.295,160 254.426,160 256.557,160 258.689,154.601 260.82,158.037 262.951,160 265.082,160 267.213,160 269.344,160 271.475,160 273.607,160 275.738,160 277.869,160 280,160 282.131,160 284.262,160 286.393,160 288.525,160 290.656,160 292.787,160 294.918,160 297.049,160 299.18,160 301.311,160 303.443,160 305.574,160 307.705,157.055 309.836,160 311.967,160 314.098,160 316.23,160 318.361,155.092 320.492,160 322.623,160 324.754,160 326.885,160 329.016,137.423 331.148,153.62 333.279,80 335.41,155.092 337.541,149.202 339.672,155.092 341.803,158.037 343.934,158.528 346.066,159.509 348.197,156.074 350.328,160 352.459,159.018 354.59,160 356.721,159.509 358.852,159.018 360.984,159.509 363.115,160 365.246,158.528 367.377,160 369.508,159.018 371.639,159.018 373.77,157.546 375.902,157.055 378.033,160 380.164,160 382.295,159.509 384.426,159.509 386.557,158.528 388.689,159.509 390.82,157.055 392.951,157.055 395.082,159.018 397.213,158.528 399.344,147.239 401.475,157.055 403.607,129.08 405.738,147.239 407.869,153.129 410,160 412.131,160 414.262,160 416.393,151.656 418.525,158.528 420.656,160 422.787,160 424.918,138.405 427.049,158.528 429.18,160 431.311,160 433.443,160 435.574,160 437.705,160 439.836,160 441.967,160 444.098,160 446.23,160 448.361,160 450.492,160 452.623,160 454.754,160 456.885,160 459.016,160 461.148,159.509 463.279,160 465.41,160 467.541,160 469.672,160 471.803,160 473.934,160 476.066,160 478.197,160 480.328,160 482.459,159.509 484.59,158.037 486.721,160 488.852,160 490.984,160 493.115,160 495.246,160 497.377,160 499.508,160 501.639,160 503.77,160 505.902,160 508.033,160 510.164,159.509 512.295,158.037 514.426,157.055 516.557,160 518.689,160 520.82,160 522.951,156.564 525.082,157.546 527.213,147.239 529.344,160 531.475,160 533.607,160 535.738,155.092 537.869,148.221 540,160 542.131,160 544.262,158.037 546.393,160 548.525,158.037 550.656,160 552.787,160 554.918,160 557.049,160 559.18,160 561.311,160 563.443,159.018 565.574,144.294 567.705,159.018 569.836,160 571.967,139.387 574.098,121.718 576.23,120.736 578.361,147.73 580.492,146.258 582.623,157.055 584.754,160 586.885,160 589.016,160 591.148,160 593.279,160 595.41,160 597.541,160 599.672,160 601.803,157.546 603.934,153.62 606.066,148.712 608.197,160 610.328,149.202 612.459,149.693 614.59,134.969 616.721,146.258 618.852,145.767 620.984,146.258 623.115,150.184 625.246,154.11 627.377,154.601 629.508,154.11 631.639,157.055 633.77,156.564 635.902,159.509 638.033,160 640.164,160 642.295,160 644.426,160 646.557,160 648.689,160 650.82,160 652.951,160 655.082,158.528 657.213,159.509 659.344,160 661.475,160 663.607,159.509 665.738,142.331 667.869,144.785 670,157.055 672.131,158.528 674.262,160 676.393,160 678.525,159.509 680.656,160 682.787,160 684.918,159.018 687.049,153.62 689.18,159.018 691.311,160 693.443,160 695.574,149.693 697.705,155.583 699.836,158.528 701.967,156.074 704.098,155.583 706.23,159.509 708.361,159.509 710.492,160 712.623,160 714.754,151.656 716.885,140.859 719.016,155.092 721.148,160 723.279,141.84 725.41,150.184 727.541,152.147 729.672,160 731.803,160 733.934,160 736.066,160 738.197,160 740.328,160 742.459,160 744.59,160 746.721,160 748.852,160 750.984,160 753.115,160 755.246,158.037 757.377,160 759.508,160 761.639,160 763.77,160 765.902,160 768.033,160 770.164,160 772.295,160 774.426,160 776.557,160 778.689,160 780.82,160 782.951,160 785.082,160 787.213,156.564 789.344,154.601 791.475,160 793.607,160 795.738,160 797.869,160 800,160 800,160" fill="var(--pill)" opacity="0.6"/>
  <polyline points="20,160 22.1311,160 24.2623,160 26.3934,160 28.5246,160 30.6557,160 32.7869,160 34.918,160 37.0492,160 39.1803,160 41.3115,160 43.4426,159.509 45.5738,160 47.7049,160 49.8361,160 51.9672,160 54.0984,160 56.2295,160 58.3607,160 60.4918,160 62.623,160 64.7541,160 66.8852,160 69.0164,160 71.1475,160 73.2787,160 75.4098,160 77.541,160 79.6721,160 81.8033,160 83.9344,160 86.0656,160 88.1967,160 90.3279,160 92.459,160 94.5902,160 96.7213,160 98.8525,159.018 100.984,160 103.115,160 105.246,160 107.377,145.276 109.508,155.583 111.639,157.546 113.77,155.583 115.902,157.055 118.033,156.074 120.164,160 122.295,160 124.426,160 126.557,158.037 128.689,159.018 130.82,158.037 132.951,156.564 135.082,160 137.213,158.528 139.344,156.564 141.475,160 143.607,154.11 145.738,149.202 147.869,149.202 150,153.62 152.131,141.84 154.262,154.601 156.393,160 158.525,154.601 160.656,160 162.787,160 164.918,157.546 167.049,148.221 169.18,159.018 171.311,160 173.443,158.037 175.574,160 177.705,159.509 179.836,160 181.967,160 184.098,160 186.23,160 188.361,151.656 190.492,155.583 192.623,156.074 194.754,157.546 196.885,150.675 199.016,160 201.148,158.037 203.279,156.564 205.41,158.037 207.541,156.074 209.672,160 211.803,154.11 213.934,160 216.066,159.509 218.197,160 220.328,160 222.459,157.546 224.59,160 226.721,160 228.852,160 230.984,160 233.115,160 235.246,160 237.377,160 239.508,160 241.639,160 243.77,160 245.902,160 248.033,160 250.164,160 252.295,160 254.426,160 256.557,160 258.689,154.601 260.82,158.037 262.951,160 265.082,160 267.213,160 269.344,160 271.475,160 273.607,160 275.738,160 277.869,160 280,160 282.131,160 284.262,160 286.393,160 288.525,160 290.656,160 292.787,160 294.918,160 297.049,160 299.18,160 301.311,160 303.443,160 305.574,160 307.705,157.055 309.836,160 311.967,160 314.098,160 316.23,160 318.361,155.092 320.492,160 322.623,160 324.754,160 326.885,160 329.016,137.423 331.148,153.62 333.279,80 335.41,155.092 337.541,149.202 339.672,155.092 341.803,158.037 343.934,158.528 346.066,159.509 348.197,156.074 350.328,160 352.459,159.018 354.59,160 356.721,159.509 358.852,159.018 360.984,159.509 363.115,160 365.246,158.528 367.377,160 369.508,159.018 371.639,159.018 373.77,157.546 375.902,157.055 378.033,160 380.164,160 382.295,159.509 384.426,159.509 386.557,158.528 388.689,159.509 390.82,157.055 392.951,157.055 395.082,159.018 397.213,158.528 399.344,147.239 401.475,157.055 403.607,129.08 405.738,147.239 407.869,153.129 410,160 412.131,160 414.262,160 416.393,151.656 418.525,158.528 420.656,160 422.787,160 424.918,138.405 427.049,158.528 429.18,160 431.311,160 433.443,160 435.574,160 437.705,160 439.836,160 441.967,160 444.098,160 446.23,160 448.361,160 450.492,160 452.623,160 454.754,160 456.885,160 459.016,160 461.148,159.509 463.279,160 465.41,160 467.541,160 469.672,160 471.803,160 473.934,160 476.066,160 478.197,160 480.328,160 482.459,159.509 484.59,158.037 486.721,160 488.852,160 490.984,160 493.115,160 495.246,160 497.377,160 499.508,160 501.639,160 503.77,160 505.902,160 508.033,160 510.164,159.509 512.295,158.037 514.426,157.055 516.557,160 518.689,160 520.82,160 522.951,156.564 525.082,157.546 527.213,147.239 529.344,160 531.475,160 533.607,160 535.738,155.092 537.869,148.221 540,160 542.131,160 544.262,158.037 546.393,160 548.525,158.037 550.656,160 552.787,160 554.918,160 557.049,160 559.18,160 561.311,160 563.443,159.018 565.574,144.294 567.705,159.018 569.836,160 571.967,139.387 574.098,121.718 576.23,120.736 578.361,147.73 580.492,146.258 582.623,157.055 584.754,160 586.885,160 589.016,160 591.148,160 593.279,160 595.41,160 597.541,160 599.672,160 601.803,157.546 603.934,153.62 606.066,148.712 608.197,160 610.328,149.202 612.459,149.693 614.59,134.969 616.721,146.258 618.852,145.767 620.984,146.258 623.115,150.184 625.246,154.11 627.377,154.601 629.508,154.11 631.639,157.055 633.77,156.564 635.902,159.509 638.033,160 640.164,160 642.295,160 644.426,160 646.557,160 648.689,160 650.82,160 652.951,160 655.082,158.528 657.213,159.509 659.344,160 661.475,160 663.607,159.509 665.738,142.331 667.869,144.785 670,157.055 672.131,158.528 674.262,160 676.393,160 678.525,159.509 680.656,160 682.787,160 684.918,159.018 687.049,153.62 689.18,159.018 691.311,160 693.443,160 695.574,149.693 697.705,155.583 699.836,158.528 701.967,156.074 704.098,155.583 706.23,159.509 708.361,159.509 710.492,160 712.623,160 714.754,151.656 716.885,140.859 719.016,155.092 721.148,160 723.279,141.84 725.41,150.184 727.541,152.147 729.672,160 731.803,160 733.934,160 736.066,160 738.197,160 740.328,160 742.459,160 744.59,160 746.721,160 748.852,160 750.984,160 753.115,160 755.246,158.037 757.377,160 759.508,160 761.639,160 763.77,160 765.902,160 768.033,160 770.164,160 772.295,160 774.426,160 776.557,160 778.689,160 780.82,160 782.951,160 785.082,160 787.213,156.564 789.344,154.601 791.475,160 793.607,160 795.738,160 797.869,160 800,160" fill="none" stroke="var(--accent)" stroke-width="1.5" stroke-linecap="round" stroke-linejoin="round"/>
</svg>

