<svg xmlns="http://www.w3.org/2000/svg" width="820" height="180" viewBox="0 0 820 180">

<style>
  :root {
    --bg:        #f6f8fa;
    --card:      #ffffff;
    --border:    #d0d7de;
    --primary:   #1f2328;
    --secondary: #636c76;
    --muted:     #8c959f;
    --accent:    #0969da;
    --green:     #1a7f37;
    --yellow:    #9a6700;
    --red:       #cf222e;
    --hover:     #f3f4f6;
    --spark-bg:  #f0f3f6;
    --spark:     #0969da;
    --pill:      #eaf1fb;
    --pill-txt:  #0969da;
    --div:       #d0d7de;
  }
  @media (prefers-color-scheme: dark) {
    :root {
      --bg:        #0d1117;
      --card:      #161b22;
      --border:    #30363d;
      --primary:   #e6edf3;
      --secondary: #848d97;
      --muted:     #7d8590;
      --accent:    #2f81f7;
      --green:     #3fb950;
      --yellow:    #d29922;
      --red:       #f85149;
      --hover:     #21262d;
      --spark-bg:  #1c2128;
      --spark:     #58a6ff;
      --pill:      #1c2d3f;
      --pill-txt:  #58a6ff;
      --div:       #30363d;
    }
  }
  
  .bg          { fill: var(--bg); }
  .card        { fill: var(--card); stroke: var(--border); stroke-width: 1; }
  .lang-pill   { fill: var(--pill); }
  .spark-bg    { fill: var(--spark-bg); }
  .spark-line  { stroke: var(--spark); }
  .divider     { stroke: var(--div); stroke-width: 1; }
  .clr-primary   { fill: var(--primary); }
  .clr-secondary { fill: var(--secondary); }
  .clr-muted     { fill: var(--muted); }
  .clr-accent    { fill: var(--accent); }
  .clr-green     { fill: var(--green); }
  .clr-yellow    { fill: var(--yellow); }
  .clr-red       { fill: var(--red); }
  .txt-bold    { font-weight: 600; }
  svg text     { font-family: -apple-system, BlinkMacSystemFont, "Segoe UI", Helvetica, Arial, sans-serif; }
</style>

<rect x="0" y="0" width="820" height="180" rx="8" class="card"/>
  <text x="20" y="24" class="clr-primary txt-bold" text-anchor="start" font-size="14">Contribution History &amp; Activity</text>
  <line x1="20" y1="36" x2="800" y2="36" class="divider"/>
  <text x="20" y="60" class="clr-muted" text-anchor="start" font-size="12">Years Active:</text>
  <text x="100" y="60" class="clr-primary txt-bold" text-anchor="start" font-size="12">5.5</text>
  <text x="160" y="60" class="clr-muted" text-anchor="start" font-size="12">Commits (Last Year):</text>
  <text x="290" y="60" class="clr-primary txt-bold" text-anchor="start" font-size="12">1025</text>
  <text x="360" y="60" class="clr-muted" text-anchor="start" font-size="12">Highest Daily:</text>
  <text x="450" y="60" class="clr-primary txt-bold" text-anchor="start" font-size="12">163</text>
  <polygon points="20,160 20,160 22.1311,157.055 24.2623,158.037 26.3934,160 28.5246,160 30.6557,160 32.7869,160 34.918,160 37.0492,160 39.1803,160 41.3115,160 43.4426,160 45.5738,160 47.7049,153.62 49.8361,160 51.9672,160 54.0984,160 56.2295,154.11 58.3607,157.055 60.4918,160 62.623,160 64.7541,160 66.8852,160 69.0164,160 71.1475,160 73.2787,159.018 75.4098,160 77.541,160 79.6721,160 81.8033,160 83.9344,160 86.0656,160 88.1967,160 90.3279,160 92.459,160 94.5902,160 96.7213,160 98.8525,160 100.984,160 103.115,160 105.246,160 107.377,160 109.508,160 111.639,160 113.77,160 115.902,160 118.033,160 120.164,160 122.295,160 124.426,160 126.557,160 128.689,160 130.82,160 132.951,160 135.082,160 137.213,160 139.344,160 141.475,160 143.607,160 145.738,160 147.869,159.509 150,160 152.131,160 154.262,160 156.393,160 158.525,160 160.656,160 162.787,160 164.918,160 167.049,160 169.18,160 171.311,160 173.443,160 175.574,160 177.705,160 179.836,160 181.967,160 184.098,160 186.23,160 188.361,160 190.492,160 192.623,160 194.754,160 196.885,160 199.016,160 201.148,160 203.279,159.018 205.41,160 207.541,160 209.672,160 211.803,145.276 213.934,155.583 216.066,157.546 218.197,155.583 220.328,157.055 222.459,156.074 224.59,160 226.721,160 228.852,160 230.984,158.037 233.115,159.018 235.246,158.037 237.377,156.564 239.508,160 241.639,158.528 243.77,156.564 245.902,160 248.033,154.11 250.164,149.202 252.295,149.202 254.426,153.62 256.557,141.84 258.689,154.601 260.82,160 262.951,154.601 265.082,160 267.213,160 269.344,157.546 271.475,148.221 273.607,159.018 275.738,160 277.869,158.037 280,160 282.131,159.509 284.262,160 286.393,160 288.525,160 290.656,160 292.787,151.656 294.918,155.583 297.049,156.074 299.18,157.546 301.311,150.675 303.443,160 305.574,158.037 307.705,156.564 309.836,158.037 311.967,156.074 314.098,160 316.23,154.11 318.361,160 320.492,159.509 322.623,160 324.754,160 326.885,157.546 329.016,160 331.148,160 333.279,160 335.41,160 337.541,160 339.672,160 341.803,160 343.934,160 346.066,160 348.197,160 350.328,160 352.459,160 354.59,160 356.721,160 358.852,160 360.984,160 363.115,154.601 365.246,158.037 367.377,160 369.508,160 371.639,160 373.77,160 375.902,160 378.033,160 380.164,160 382.295,160 384.426,160 386.557,160 388.689,160 390.82,160 392.951,160 395.082,160 397.213,160 399.344,160 401.475,160 403.607,160 405.738,160 407.869,160 410,160 412.131,157.055 414.262,160 416.393,160 418.525,160 420.656,160 422.787,155.092 424.918,160 427.049,160 429.18,160 431.311,160 433.443,137.423 435.574,153.62 437.705,80 439.836,155.092 441.967,149.202 444.098,155.092 446.23,158.037 448.361,158.528 450.492,159.509 452.623,156.074 454.754,160 456.885,159.018 459.016,160 461.148,159.509 463.279,159.018 465.41,159.509 467.541,160 469.672,158.528 471.803,160 473.934,159.018 476.066,159.018 478.197,157.546 480.328,157.055 482.459,160 484.59,160 486.721,159.509 488.852,159.509 490.984,158.528 493.115,159.509 495.246,157.055 497.377,157.055 499.508,159.018 501.639,158.528 503.77,147.239 505.902,157.055 508.033,129.08 510.164,147.239 512.295,153.129 514.426,160 516.557,160 518.689,160 520.82,151.656 522.951,158.528 525.082,160 527.213,160 529.344,138.405 531.475,158.528 533.607,160 535.738,160 537.869,160 540,160 542.131,160 544.262,160 546.393,160 548.525,160 550.656,160 552.787,160 554.918,160 557.049,160 559.18,160 561.311,160 563.443,160 565.574,159.509 567.705,160 569.836,160 571.967,160 574.098,160 576.23,160 578.361,160 580.492,160 582.623,160 584.754,160 586.885,159.509 589.016,158.037 591.148,160 593.279,160 595.41,160 597.541,160 599.672,160 601.803,160 603.934,160 606.066,160 608.197,160 610.328,160 612.459,160 614.59,159.509 616.721,158.037 618.852,157.055 620.984,160 623.115,160 625.246,160 627.377,156.564 629.508,157.546 631.639,147.239 633.77,160 635.902,160 638.033,160 640.164,155.092 642.295,148.221 644.426,160 646.557,160 648.689,158.037 650.82,160 652.951,158.037 655.082,160 657.213,160 659.344,160 661.475,160 663.607,160 665.738,160 667.869,159.018 670,144.294 672.131,159.018 674.262,160 676.393,139.387 678.525,121.718 680.656,120.736 682.787,147.73 684.918,146.258 687.049,157.055 689.18,160 691.311,160 693.443,160 695.574,160 697.705,160 699.836,160 701.967,160 704.098,160 706.23,157.546 708.361,153.62 710.492,148.712 712.623,160 714.754,149.202 716.885,149.693 719.016,134.969 721.148,146.258 723.279,145.767 725.41,146.258 727.541,150.184 729.672,154.11 731.803,154.601 733.934,154.11 736.066,157.055 738.197,156.564 740.328,159.509 742.459,160 744.59,160 746.721,160 748.852,160 750.984,160 753.115,160 755.246,160 757.377,160 759.508,158.528 761.639,159.509 763.77,160 765.902,160 768.033,159.509 770.164,142.331 772.295,144.785 774.426,157.055 776.557,158.528 778.689,160 780.82,160 782.951,159.509 785.082,160 787.213,160 789.344,159.018 791.475,153.62 793.607,159.018 795.738,160 797.869,160 800,160 800,160" fill="var(--pill)" opacity="0.6"/>
  <polyline points="20,160 22.1311,157.055 24.2623,158.037 26.3934,160 28.5246,160 30.6557,160 32.7869,160 34.918,160 37.0492,160 39.1803,160 41.3115,160 43.4426,160 45.5738,160 47.7049,153.62 49.8361,160 51.9672,160 54.0984,160 56.2295,154.11 58.3607,157.055 60.4918,160 62.623,160 64.7541,160 66.8852,160 69.0164,160 71.1475,160 73.2787,159.018 75.4098,160 77.541,160 79.6721,160 81.8033,160 83.9344,160 86.0656,160 88.1967,160 90.3279,160 92.459,160 94.5902,160 96.7213,160 98.8525,160 100.984,160 103.115,160 105.246,160 107.377,160 109.508,160 111.639,160 113.77,160 115.902,160 118.033,160 120.164,160 122.295,160 124.426,160 126.557,160 128.689,160 130.82,160 132.951,160 135.082,160 137.213,160 139.344,160 141.475,160 143.607,160 145.738,160 147.869,159.509 150,160 152.131,160 154.262,160 156.393,160 158.525,160 160.656,160 162.787,160 164.918,160 167.049,160 169.18,160 171.311,160 173.443,160 175.574,160 177.705,160 179.836,160 181.967,160 184.098,160 186.23,160 188.361,160 190.492,160 192.623,160 194.754,160 196.885,160 199.016,160 201.148,160 203.279,159.018 205.41,160 207.541,160 209.672,160 211.803,145.276 213.934,155.583 216.066,157.546 218.197,155.583 220.328,157.055 222.459,156.074 224.59,160 226.721,160 228.852,160 230.984,158.037 233.115,159.018 235.246,158.037 237.377,156.564 239.508,160 241.639,158.528 243.77,156.564 245.902,160 248.033,154.11 250.164,149.202 252.295,149.202 254.426,153.62 256.557,141.84 258.689,154.601 260.82,160 262.951,154.601 265.082,160 267.213,160 269.344,157.546 271.475,148.221 273.607,159.018 275.738,160 277.869,158.037 280,160 282.131,159.509 284.262,160 286.393,160 288.525,160 290.656,160 292.787,151.656 294.918,155.583 297.049,156.074 299.18,157.546 301.311,150.675 303.443,160 305.574,158.037 307.705,156.564 309.836,158.037 311.967,156.074 314.098,160 316.23,154.11 318.361,160 320.492,159.509 322.623,160 324.754,160 326.885,157.546 329.016,160 331.148,160 333.279,160 335.41,160 337.541,160 339.672,160 341.803,160 343.934,160 346.066,160 348.197,160 350.328,160 352.459,160 354.59,160 356.721,160 358.852,160 360.984,160 363.115,154.601 365.246,158.037 367.377,160 369.508,160 371.639,160 373.77,160 375.902,160 378.033,160 380.164,160 382.295,160 384.426,160 386.557,160 388.689,160 390.82,160 392.951,160 395.082,160 397.213,160 399.344,160 401.475,160 403.607,160 405.738,160 407.869,160 410,160 412.131,157.055 414.262,160 416.393,160 418.525,160 420.656,160 422.787,155.092 424.918,160 427.049,160 429.18,160 431.311,160 433.443,137.423 435.574,153.62 437.705,80 439.836,155.092 441.967,149.202 444.098,155.092 446.23,158.037 448.361,158.528 450.492,159.509 452.623,156.074 454.754,160 456.885,159.018 459.016,160 461.148,159.509 463.279,159.018 465.41,159.509 467.541,160 469.672,158.528 471.803,160 473.934,159.018 476.066,159.018 478.197,157.546 480.328,157.055 482.459,160 484.59,160 486.721,159.509 488.852,159.509 490.984,158.528 493.115,159.509 495.246,157.055 497.377,157.055 499.508,159.018 501.639,158.528 503.77,147.239 505.902,157.055 508.033,129.08 510.164,147.239 512.295,153.129 514.426,160 516.557,160 518.689,160 520.82,151.656 522.951,158.528 525.082,160 527.213,160 529.344,138.405 531.475,158.528 533.607,160 535.738,160 537.869,160 540,160 542.131,160 544.262,160 546.393,160 548.525,160 550.656,160 552.787,160 554.918,160 557.049,160 559.18,160 561.311,160 563.443,160 565.574,159.509 567.705,160 569.836,160 571.967,160 574.098,160 576.23,160 578.361,160 580.492,160 582.623,160 584.754,160 586.885,159.509 589.016,158.037 591.148,160 593.279,160 595.41,160 597.541,160 599.672,160 601.803,160 603.934,160 606.066,160 608.197,160 610.328,160 612.459,160 614.59,159.509 616.721,158.037 618.852,157.055 620.984,160 623.115,160 625.246,160 627.377,156.564 629.508,157.546 631.639,147.239 633.77,160 635.902,160 638.033,160 640.164,155.092 642.295,148.221 644.426,160 646.557,160 648.689,158.037 650.82,160 652.951,158.037 655.082,160 657.213,160 659.344,160 661.475,160 663.607,160 665.738,160 667.869,159.018 670,144.294 672.131,159.018 674.262,160 676.393,139.387 678.525,121.718 680.656,120.736 682.787,147.73 684.918,146.258 687.049,157.055 689.18,160 691.311,160 693.443,160 695.574,160 697.705,160 699.836,160 701.967,160 704.098,160 706.23,157.546 708.361,153.62 710.492,148.712 712.623,160 714.754,149.202 716.885,149.693 719.016,134.969 721.148,146.258 723.279,145.767 725.41,146.258 727.541,150.184 729.672,154.11 731.803,154.601 733.934,154.11 736.066,157.055 738.197,156.564 740.328,159.509 742.459,160 744.59,160 746.721,160 748.852,160 750.984,160 753.115,160 755.246,160 757.377,160 759.508,158.528 761.639,159.509 763.77,160 765.902,160 768.033,159.509 770.164,142.331 772.295,144.785 774.426,157.055 776.557,158.528 778.689,160 780.82,160 782.951,159.509 785.082,160 787.213,160 789.344,159.018 791.475,153.62 793.607,159.018 795.738,160 797.869,160 800,160" fill="none" stroke="var(--accent)" stroke-width="1.5" stroke-linecap="round" stroke-linejoin="round"/>
</svg>

