<svg xmlns="http://www.w3.org/2000/svg" width="820" height="180" viewBox="0 0 820 180">

<style>
  :root {
    --bg:        #f6f8fa;
    --card:      #ffffff;
    --border:    #d0d7de;
    --primary:   #1f2328;
    --secondary: #636c76;
    --muted:     #8c959f;
    --accent:    #0969da;
    --green:     #1a7f37;
    --yellow:    #9a6700;
    --red:       #cf222e;
    --hover:     #f3f4f6;
    --spark-bg:  #f0f3f6;
    --spark:     #0969da;
    --pill:      #eaf1fb;
    --pill-txt:  #0969da;
    --div:       #d0d7de;
  }
  @media (prefers-color-scheme: dark) {
    :root {
      --bg:        #0d1117;
      --card:      #161b22;
      --border:    #30363d;
      --primary:   #e6edf3;
      --secondary: #848d97;
      --muted:     #7d8590;
      --accent:    #2f81f7;
      --green:     #3fb950;
      --yellow:    #d29922;
      --red:       #f85149;
      --hover:     #21262d;
      --spark-bg:  #1c2128;
      --spark:     #58a6ff;
      --pill:      #1c2d3f;
      --pill-txt:  #58a6ff;
      --div:       #30363d;
    }
  }
  
  .bg          { fill: var(--bg); }
  .card        { fill: var(--card); stroke: var(--border); stroke-width: 1; }
  .lang-pill   { fill: var(--pill); }
  .spark-bg    { fill: var(--spark-bg); }
  .spark-line  { stroke: var(--spark); }
  .divider     { stroke: var(--div); stroke-width: 1; }
  .clr-primary   { fill: var(--primary); }
  .clr-secondary { fill: var(--secondary); }
  .clr-muted     { fill: var(--muted); }
  .clr-accent    { fill: var(--accent); }
  .clr-green     { fill: var(--green); }
  .clr-yellow    { fill: var(--yellow); }
  .clr-red       { fill: var(--red); }
  .txt-bold    { font-weight: 600; }
  svg text     { font-family: -apple-system, BlinkMacSystemFont, "Segoe UI", Helvetica, Arial, sans-serif; }
</style>

<rect x="0" y="0" width="820" height="180" rx="8" class="card"/>
  <text x="20" y="24" class="clr-primary txt-bold" text-anchor="start" font-size="14">Contribution History &amp; Activity</text>
  <line x1="20" y1="36" x2="800" y2="36" class="divider"/>
  <text x="20" y="60" class="clr-muted" text-anchor="start" font-size="12">Years Active:</text>
  <text x="100" y="60" class="clr-primary txt-bold" text-anchor="start" font-size="12">5.7</text>
  <text x="160" y="60" class="clr-muted" text-anchor="start" font-size="12">Commits (Last Year):</text>
  <text x="290" y="60" class="clr-primary txt-bold" text-anchor="start" font-size="12">1191</text>
  <text x="360" y="60" class="clr-muted" text-anchor="start" font-size="12">Highest Daily:</text>
  <text x="450" y="60" class="clr-primary txt-bold" text-anchor="start" font-size="12">163</text>
  <polygon points="20,160 20,160 22.137,160 24.274,160 26.411,160 28.5479,160 30.6849,160 32.8219,160 34.9589,160 37.0959,160 39.2329,160 41.3699,160 43.5068,160 45.6438,160 47.7808,160 49.9178,160 52.0548,160 54.1918,160 56.3288,160 58.4658,160 60.6027,160 62.7397,160 64.8767,160 67.0137,160 69.1507,159.018 71.2877,160 73.4247,160 75.5616,160 77.6986,145.276 79.8356,155.583 81.9726,157.546 84.1096,155.583 86.2466,157.055 88.3836,156.074 90.5205,160 92.6575,160 94.7945,160 96.9315,158.037 99.0685,159.018 101.205,158.037 103.342,156.564 105.479,160 107.616,158.528 109.753,156.564 111.89,160 114.027,154.11 116.164,149.202 118.301,149.202 120.438,153.62 122.575,141.84 124.712,154.601 126.849,160 128.986,154.601 131.123,160 133.26,160 135.397,157.546 137.534,148.221 139.671,159.018 141.808,160 143.945,158.037 146.082,160 148.219,159.509 150.356,160 152.493,160 154.63,160 156.767,160 158.904,151.656 161.041,155.583 163.178,156.074 165.315,157.546 167.452,150.675 169.589,160 171.726,158.037 173.863,156.564 176,158.037 178.137,156.074 180.274,160 182.411,154.11 184.548,160 186.685,159.509 188.822,160 190.959,160 193.096,157.546 195.233,160 197.37,160 199.507,160 201.644,160 203.781,160 205.918,160 208.055,160 210.192,160 212.329,160 214.466,160 216.603,160 218.74,160 220.877,160 223.014,160 225.151,160 227.288,160 229.425,154.601 231.562,158.037 233.699,160 235.836,160 237.973,160 240.11,160 242.247,160 244.384,160 246.521,160 248.658,160 250.795,160 252.932,160 255.068,160 257.205,160 259.342,160 261.479,160 263.616,160 265.753,160 267.89,160 270.027,160 272.164,160 274.301,160 276.438,160 278.575,157.055 280.712,160 282.849,160 284.986,160 287.123,160 289.26,155.092 291.397,160 293.534,160 295.671,160 297.808,160 299.945,137.423 302.082,153.62 304.219,80 306.356,155.092 308.493,149.202 310.63,155.092 312.767,158.037 314.904,158.528 317.041,159.509 319.178,156.074 321.315,160 323.452,159.018 325.589,160 327.726,159.509 329.863,159.018 332,159.509 334.137,160 336.274,158.528 338.411,160 340.548,159.018 342.685,159.018 344.822,157.546 346.959,157.055 349.096,160 351.233,160 353.37,159.509 355.507,159.509 357.644,158.528 359.781,159.509 361.918,157.055 364.055,157.055 366.192,159.018 368.329,158.528 370.466,147.239 372.603,157.055 374.74,129.08 376.877,147.239 379.014,153.129 381.151,160 383.288,160 385.425,160 387.562,151.656 389.699,158.528 391.836,160 393.973,160 396.11,138.405 398.247,158.528 400.384,160 402.521,160 404.658,160 406.795,160 408.932,160 411.068,160 413.205,160 415.342,160 417.479,160 419.616,160 421.753,160 423.89,160 426.027,160 428.164,160 430.301,160 432.438,159.509 434.575,160 436.712,160 438.849,160 440.986,160 443.123,160 445.26,160 447.397,160 449.534,160 451.671,160 453.808,159.509 455.945,158.037 458.082,160 460.219,160 462.356,160 464.493,160 466.63,160 468.767,160 470.904,160 473.041,160 475.178,160 477.315,160 479.452,160 481.589,159.509 483.726,158.037 485.863,157.055 488,160 490.137,160 492.274,160 494.411,156.564 496.548,157.546 498.685,147.239 500.822,160 502.959,160 505.096,160 507.233,155.092 509.37,148.221 511.507,160 513.644,160 515.781,158.037 517.918,160 520.055,158.037 522.192,160 524.329,160 526.466,160 528.603,160 530.74,160 532.877,160 535.014,159.018 537.151,144.294 539.288,159.018 541.425,160 543.562,139.387 545.699,121.718 547.836,120.736 549.973,147.73 552.11,146.258 554.247,157.055 556.384,160 558.521,160 560.658,160 562.795,160 564.932,160 567.068,160 569.205,160 571.342,160 573.479,157.546 575.616,153.62 577.753,148.712 579.89,160 582.027,149.202 584.164,149.693 586.301,134.969 588.438,146.258 590.575,145.767 592.712,146.258 594.849,150.184 596.986,154.11 599.123,154.601 601.26,154.11 603.397,157.055 605.534,156.564 607.671,159.509 609.808,160 611.945,160 614.082,160 616.219,160 618.356,160 620.493,160 622.63,160 624.767,160 626.904,158.528 629.041,159.509 631.178,160 633.315,160 635.452,159.509 637.589,142.331 639.726,144.785 641.863,157.055 644,158.528 646.137,160 648.274,160 650.411,159.509 652.548,160 654.685,160 656.822,159.018 658.959,153.62 661.096,159.018 663.233,160 665.37,160 667.507,149.693 669.644,155.583 671.781,158.528 673.918,156.074 676.055,155.583 678.192,159.509 680.329,159.509 682.466,160 684.603,160 686.74,151.656 688.877,140.859 691.014,155.092 693.151,160 695.288,141.84 697.425,150.184 699.562,152.147 701.699,160 703.836,160 705.973,160 708.11,160 710.247,160 712.384,160 714.521,160 716.658,160 718.795,160 720.932,160 723.068,160 725.205,160 727.342,158.037 729.479,160 731.616,160 733.753,160 735.89,160 738.027,160 740.164,160 742.301,160 744.438,160 746.575,160 748.712,160 750.849,160 752.986,160 755.123,160 757.26,160 759.397,156.564 761.534,154.601 763.671,160 765.808,160 767.945,160 770.082,160 772.219,159.509 774.356,160 776.493,160 778.63,159.509 780.767,159.509 782.904,160 785.041,159.509 787.178,160 789.315,160 791.452,159.509 793.589,160 795.726,160 797.863,160 800,160 800,160" fill="var(--pill)" opacity="0.6"/>
  <polyline points="20,160 22.137,160 24.274,160 26.411,160 28.5479,160 30.6849,160 32.8219,160 34.9589,160 37.0959,160 39.2329,160 41.3699,160 43.5068,160 45.6438,160 47.7808,160 49.9178,160 52.0548,160 54.1918,160 56.3288,160 58.4658,160 60.6027,160 62.7397,160 64.8767,160 67.0137,160 69.1507,159.018 71.2877,160 73.4247,160 75.5616,160 77.6986,145.276 79.8356,155.583 81.9726,157.546 84.1096,155.583 86.2466,157.055 88.3836,156.074 90.5205,160 92.6575,160 94.7945,160 96.9315,158.037 99.0685,159.018 101.205,158.037 103.342,156.564 105.479,160 107.616,158.528 109.753,156.564 111.89,160 114.027,154.11 116.164,149.202 118.301,149.202 120.438,153.62 122.575,141.84 124.712,154.601 126.849,160 128.986,154.601 131.123,160 133.26,160 135.397,157.546 137.534,148.221 139.671,159.018 141.808,160 143.945,158.037 146.082,160 148.219,159.509 150.356,160 152.493,160 154.63,160 156.767,160 158.904,151.656 161.041,155.583 163.178,156.074 165.315,157.546 167.452,150.675 169.589,160 171.726,158.037 173.863,156.564 176,158.037 178.137,156.074 180.274,160 182.411,154.11 184.548,160 186.685,159.509 188.822,160 190.959,160 193.096,157.546 195.233,160 197.37,160 199.507,160 201.644,160 203.781,160 205.918,160 208.055,160 210.192,160 212.329,160 214.466,160 216.603,160 218.74,160 220.877,160 223.014,160 225.151,160 227.288,160 229.425,154.601 231.562,158.037 233.699,160 235.836,160 237.973,160 240.11,160 242.247,160 244.384,160 246.521,160 248.658,160 250.795,160 252.932,160 255.068,160 257.205,160 259.342,160 261.479,160 263.616,160 265.753,160 267.89,160 270.027,160 272.164,160 274.301,160 276.438,160 278.575,157.055 280.712,160 282.849,160 284.986,160 287.123,160 289.26,155.092 291.397,160 293.534,160 295.671,160 297.808,160 299.945,137.423 302.082,153.62 304.219,80 306.356,155.092 308.493,149.202 310.63,155.092 312.767,158.037 314.904,158.528 317.041,159.509 319.178,156.074 321.315,160 323.452,159.018 325.589,160 327.726,159.509 329.863,159.018 332,159.509 334.137,160 336.274,158.528 338.411,160 340.548,159.018 342.685,159.018 344.822,157.546 346.959,157.055 349.096,160 351.233,160 353.37,159.509 355.507,159.509 357.644,158.528 359.781,159.509 361.918,157.055 364.055,157.055 366.192,159.018 368.329,158.528 370.466,147.239 372.603,157.055 374.74,129.08 376.877,147.239 379.014,153.129 381.151,160 383.288,160 385.425,160 387.562,151.656 389.699,158.528 391.836,160 393.973,160 396.11,138.405 398.247,158.528 400.384,160 402.521,160 404.658,160 406.795,160 408.932,160 411.068,160 413.205,160 415.342,160 417.479,160 419.616,160 421.753,160 423.89,160 426.027,160 428.164,160 430.301,160 432.438,159.509 434.575,160 436.712,160 438.849,160 440.986,160 443.123,160 445.26,160 447.397,160 449.534,160 451.671,160 453.808,159.509 455.945,158.037 458.082,160 460.219,160 462.356,160 464.493,160 466.63,160 468.767,160 470.904,160 473.041,160 475.178,160 477.315,160 479.452,160 481.589,159.509 483.726,158.037 485.863,157.055 488,160 490.137,160 492.274,160 494.411,156.564 496.548,157.546 498.685,147.239 500.822,160 502.959,160 505.096,160 507.233,155.092 509.37,148.221 511.507,160 513.644,160 515.781,158.037 517.918,160 520.055,158.037 522.192,160 524.329,160 526.466,160 528.603,160 530.74,160 532.877,160 535.014,159.018 537.151,144.294 539.288,159.018 541.425,160 543.562,139.387 545.699,121.718 547.836,120.736 549.973,147.73 552.11,146.258 554.247,157.055 556.384,160 558.521,160 560.658,160 562.795,160 564.932,160 567.068,160 569.205,160 571.342,160 573.479,157.546 575.616,153.62 577.753,148.712 579.89,160 582.027,149.202 584.164,149.693 586.301,134.969 588.438,146.258 590.575,145.767 592.712,146.258 594.849,150.184 596.986,154.11 599.123,154.601 601.26,154.11 603.397,157.055 605.534,156.564 607.671,159.509 609.808,160 611.945,160 614.082,160 616.219,160 618.356,160 620.493,160 622.63,160 624.767,160 626.904,158.528 629.041,159.509 631.178,160 633.315,160 635.452,159.509 637.589,142.331 639.726,144.785 641.863,157.055 644,158.528 646.137,160 648.274,160 650.411,159.509 652.548,160 654.685,160 656.822,159.018 658.959,153.62 661.096,159.018 663.233,160 665.37,160 667.507,149.693 669.644,155.583 671.781,158.528 673.918,156.074 676.055,155.583 678.192,159.509 680.329,159.509 682.466,160 684.603,160 686.74,151.656 688.877,140.859 691.014,155.092 693.151,160 695.288,141.84 697.425,150.184 699.562,152.147 701.699,160 703.836,160 705.973,160 708.11,160 710.247,160 712.384,160 714.521,160 716.658,160 718.795,160 720.932,160 723.068,160 725.205,160 727.342,158.037 729.479,160 731.616,160 733.753,160 735.89,160 738.027,160 740.164,160 742.301,160 744.438,160 746.575,160 748.712,160 750.849,160 752.986,160 755.123,160 757.26,160 759.397,156.564 761.534,154.601 763.671,160 765.808,160 767.945,160 770.082,160 772.219,159.509 774.356,160 776.493,160 778.63,159.509 780.767,159.509 782.904,160 785.041,159.509 787.178,160 789.315,160 791.452,159.509 793.589,160 795.726,160 797.863,160 800,160" fill="none" stroke="var(--accent)" stroke-width="1.5" stroke-linecap="round" stroke-linejoin="round"/>
</svg>

