<svg xmlns="http://www.w3.org/2000/svg" width="820" height="180" viewBox="0 0 820 180">

<style>
  :root {
    --bg:        #f6f8fa;
    --card:      #ffffff;
    --border:    #d0d7de;
    --primary:   #1f2328;
    --secondary: #636c76;
    --muted:     #8c959f;
    --accent:    #0969da;
    --green:     #1a7f37;
    --yellow:    #9a6700;
    --red:       #cf222e;
    --hover:     #f3f4f6;
    --spark-bg:  #f0f3f6;
    --spark:     #0969da;
    --pill:      #eaf1fb;
    --pill-txt:  #0969da;
    --div:       #d0d7de;
  }
  @media (prefers-color-scheme: dark) {
    :root {
      --bg:        #0d1117;
      --card:      #161b22;
      --border:    #30363d;
      --primary:   #e6edf3;
      --secondary: #848d97;
      --muted:     #7d8590;
      --accent:    #2f81f7;
      --green:     #3fb950;
      --yellow:    #d29922;
      --red:       #f85149;
      --hover:     #21262d;
      --spark-bg:  #1c2128;
      --spark:     #58a6ff;
      --pill:      #1c2d3f;
      --pill-txt:  #58a6ff;
      --div:       #30363d;
    }
  }
  
  .bg          { fill: var(--bg); }
  .card        { fill: var(--card); stroke: var(--border); stroke-width: 1; }
  .lang-pill   { fill: var(--pill); }
  .spark-bg    { fill: var(--spark-bg); }
  .spark-line  { stroke: var(--spark); }
  .divider     { stroke: var(--div); stroke-width: 1; }
  .clr-primary   { fill: var(--primary); }
  .clr-secondary { fill: var(--secondary); }
  .clr-muted     { fill: var(--muted); }
  .clr-accent    { fill: var(--accent); }
  .clr-green     { fill: var(--green); }
  .clr-yellow    { fill: var(--yellow); }
  .clr-red       { fill: var(--red); }
  .txt-bold    { font-weight: 600; }
  svg text     { font-family: -apple-system, BlinkMacSystemFont, "Segoe UI", Helvetica, Arial, sans-serif; }
</style>

<rect x="0" y="0" width="820" height="180" rx="8" class="card"/>
  <text x="20" y="24" class="clr-primary txt-bold" text-anchor="start" font-size="14">Contribution History &amp; Activity</text>
  <line x1="20" y1="36" x2="800" y2="36" class="divider"/>
  <text x="20" y="60" class="clr-muted" text-anchor="start" font-size="12">Years Active:</text>
  <text x="100" y="60" class="clr-primary txt-bold" text-anchor="start" font-size="12">5.7</text>
  <text x="160" y="60" class="clr-muted" text-anchor="start" font-size="12">Commits (Last Year):</text>
  <text x="290" y="60" class="clr-primary txt-bold" text-anchor="start" font-size="12">1213</text>
  <text x="360" y="60" class="clr-muted" text-anchor="start" font-size="12">Highest Daily:</text>
  <text x="450" y="60" class="clr-primary txt-bold" text-anchor="start" font-size="12">163</text>
  <polygon points="20,160 20,160 22.1138,160 24.2276,160 26.3415,160 28.4553,160 30.5691,160 32.6829,160 34.7967,160 36.9106,160 39.0244,160 41.1382,160 43.252,160 45.3659,160 47.4797,160 49.5935,160 51.7073,160 53.8211,159.018 55.935,160 58.0488,160 60.1626,160 62.2764,145.276 64.3902,155.583 66.5041,157.546 68.6179,155.583 70.7317,157.055 72.8455,156.074 74.9593,160 77.0732,160 79.187,160 81.3008,158.037 83.4146,159.018 85.5285,158.037 87.6423,156.564 89.7561,160 91.8699,158.528 93.9837,156.564 96.0976,160 98.2114,154.11 100.325,149.202 102.439,149.202 104.553,153.62 106.667,141.84 108.78,154.601 110.894,160 113.008,154.601 115.122,160 117.236,160 119.35,157.546 121.463,148.221 123.577,159.018 125.691,160 127.805,158.037 129.919,160 132.033,159.509 134.146,160 136.26,160 138.374,160 140.488,160 142.602,151.656 144.715,155.583 146.829,156.074 148.943,157.546 151.057,150.675 153.171,160 155.285,158.037 157.398,156.564 159.512,158.037 161.626,156.074 163.74,160 165.854,154.11 167.967,160 170.081,159.509 172.195,160 174.309,160 176.423,157.546 178.537,160 180.65,160 182.764,160 184.878,160 186.992,160 189.106,160 191.22,160 193.333,160 195.447,160 197.561,160 199.675,160 201.789,160 203.902,160 206.016,160 208.13,160 210.244,160 212.358,154.601 214.472,158.037 216.585,160 218.699,160 220.813,160 222.927,160 225.041,160 227.154,160 229.268,160 231.382,160 233.496,160 235.61,160 237.724,160 239.837,160 241.951,160 244.065,160 246.179,160 248.293,160 250.407,160 252.52,160 254.634,160 256.748,160 258.862,160 260.976,157.055 263.089,160 265.203,160 267.317,160 269.431,160 271.545,155.092 273.659,160 275.772,160 277.886,160 280,160 282.114,137.423 284.228,153.62 286.341,80 288.455,155.092 290.569,149.202 292.683,155.092 294.797,158.037 296.911,158.528 299.024,159.509 301.138,156.074 303.252,160 305.366,159.018 307.48,160 309.593,159.509 311.707,159.018 313.821,159.509 315.935,160 318.049,158.528 320.163,160 322.276,159.018 324.39,159.018 326.504,157.546 328.618,157.055 330.732,160 332.846,160 334.959,159.509 337.073,159.509 339.187,158.528 341.301,159.509 343.415,157.055 345.528,157.055 347.642,159.018 349.756,158.528 351.87,147.239 353.984,157.055 356.098,129.08 358.211,147.239 360.325,153.129 362.439,160 364.553,160 366.667,160 368.78,151.656 370.894,158.528 373.008,160 375.122,160 377.236,138.405 379.35,158.528 381.463,160 383.577,160 385.691,160 387.805,160 389.919,160 392.033,160 394.146,160 396.26,160 398.374,160 400.488,160 402.602,160 404.715,160 406.829,160 408.943,160 411.057,160 413.171,159.509 415.285,160 417.398,160 419.512,160 421.626,160 423.74,160 425.854,160 427.967,160 430.081,160 432.195,160 434.309,159.509 436.423,158.037 438.537,160 440.65,160 442.764,160 444.878,160 446.992,160 449.106,160 451.22,160 453.333,160 455.447,160 457.561,160 459.675,160 461.789,159.509 463.902,158.037 466.016,157.055 468.13,160 470.244,160 472.358,160 474.472,156.564 476.585,157.546 478.699,147.239 480.813,160 482.927,160 485.041,160 487.154,155.092 489.268,148.221 491.382,160 493.496,160 495.61,158.037 497.724,160 499.837,158.037 501.951,160 504.065,160 506.179,160 508.293,160 510.407,160 512.52,160 514.634,159.018 516.748,144.294 518.862,159.018 520.976,160 523.089,139.387 525.203,121.718 527.317,120.736 529.431,147.73 531.545,146.258 533.659,157.055 535.772,160 537.886,160 540,160 542.114,160 544.228,160 546.341,160 548.455,160 550.569,160 552.683,157.546 554.797,153.62 556.911,148.712 559.024,160 561.138,149.202 563.252,149.693 565.366,134.969 567.48,146.258 569.593,145.767 571.707,146.258 573.821,150.184 575.935,154.11 578.049,154.601 580.163,154.11 582.276,157.055 584.39,156.564 586.504,159.509 588.618,160 590.732,160 592.846,160 594.959,160 597.073,160 599.187,160 601.301,160 603.415,160 605.528,158.528 607.642,159.509 609.756,160 611.87,160 613.984,159.509 616.098,142.331 618.211,144.785 620.325,157.055 622.439,158.528 624.553,160 626.667,160 628.78,159.509 630.894,160 633.008,160 635.122,159.018 637.236,153.62 639.35,159.018 641.463,160 643.577,160 645.691,149.693 647.805,155.583 649.919,158.528 652.033,156.074 654.146,155.583 656.26,159.509 658.374,159.509 660.488,160 662.602,160 664.715,151.656 666.829,140.859 668.943,155.092 671.057,160 673.171,141.84 675.285,150.184 677.398,152.147 679.512,160 681.626,160 683.74,160 685.854,160 687.967,160 690.081,160 692.195,160 694.309,160 696.423,160 698.537,160 700.65,160 702.764,160 704.878,158.037 706.992,160 709.106,160 711.22,160 713.333,160 715.447,160 717.561,160 719.675,160 721.789,160 723.902,160 726.016,160 728.13,160 730.244,160 732.358,160 734.472,160 736.585,156.564 738.699,154.601 740.813,160 742.927,160 745.041,160 747.154,160 749.268,159.509 751.382,160 753.496,160 755.61,159.509 757.724,159.509 759.837,160 761.951,159.509 764.065,160 766.179,160 768.293,156.074 770.407,159.509 772.52,159.509 774.634,160 776.748,158.037 778.862,160 780.976,160 783.089,160 785.203,160 787.317,160 789.431,160 791.545,160 793.659,155.583 795.772,159.509 797.886,160 800,160 800,160" fill="var(--pill)" opacity="0.6"/>
  <polyline points="20,160 22.1138,160 24.2276,160 26.3415,160 28.4553,160 30.5691,160 32.6829,160 34.7967,160 36.9106,160 39.0244,160 41.1382,160 43.252,160 45.3659,160 47.4797,160 49.5935,160 51.7073,160 53.8211,159.018 55.935,160 58.0488,160 60.1626,160 62.2764,145.276 64.3902,155.583 66.5041,157.546 68.6179,155.583 70.7317,157.055 72.8455,156.074 74.9593,160 77.0732,160 79.187,160 81.3008,158.037 83.4146,159.018 85.5285,158.037 87.6423,156.564 89.7561,160 91.8699,158.528 93.9837,156.564 96.0976,160 98.2114,154.11 100.325,149.202 102.439,149.202 104.553,153.62 106.667,141.84 108.78,154.601 110.894,160 113.008,154.601 115.122,160 117.236,160 119.35,157.546 121.463,148.221 123.577,159.018 125.691,160 127.805,158.037 129.919,160 132.033,159.509 134.146,160 136.26,160 138.374,160 140.488,160 142.602,151.656 144.715,155.583 146.829,156.074 148.943,157.546 151.057,150.675 153.171,160 155.285,158.037 157.398,156.564 159.512,158.037 161.626,156.074 163.74,160 165.854,154.11 167.967,160 170.081,159.509 172.195,160 174.309,160 176.423,157.546 178.537,160 180.65,160 182.764,160 184.878,160 186.992,160 189.106,160 191.22,160 193.333,160 195.447,160 197.561,160 199.675,160 201.789,160 203.902,160 206.016,160 208.13,160 210.244,160 212.358,154.601 214.472,158.037 216.585,160 218.699,160 220.813,160 222.927,160 225.041,160 227.154,160 229.268,160 231.382,160 233.496,160 235.61,160 237.724,160 239.837,160 241.951,160 244.065,160 246.179,160 248.293,160 250.407,160 252.52,160 254.634,160 256.748,160 258.862,160 260.976,157.055 263.089,160 265.203,160 267.317,160 269.431,160 271.545,155.092 273.659,160 275.772,160 277.886,160 280,160 282.114,137.423 284.228,153.62 286.341,80 288.455,155.092 290.569,149.202 292.683,155.092 294.797,158.037 296.911,158.528 299.024,159.509 301.138,156.074 303.252,160 305.366,159.018 307.48,160 309.593,159.509 311.707,159.018 313.821,159.509 315.935,160 318.049,158.528 320.163,160 322.276,159.018 324.39,159.018 326.504,157.546 328.618,157.055 330.732,160 332.846,160 334.959,159.509 337.073,159.509 339.187,158.528 341.301,159.509 343.415,157.055 345.528,157.055 347.642,159.018 349.756,158.528 351.87,147.239 353.984,157.055 356.098,129.08 358.211,147.239 360.325,153.129 362.439,160 364.553,160 366.667,160 368.78,151.656 370.894,158.528 373.008,160 375.122,160 377.236,138.405 379.35,158.528 381.463,160 383.577,160 385.691,160 387.805,160 389.919,160 392.033,160 394.146,160 396.26,160 398.374,160 400.488,160 402.602,160 404.715,160 406.829,160 408.943,160 411.057,160 413.171,159.509 415.285,160 417.398,160 419.512,160 421.626,160 423.74,160 425.854,160 427.967,160 430.081,160 432.195,160 434.309,159.509 436.423,158.037 438.537,160 440.65,160 442.764,160 444.878,160 446.992,160 449.106,160 451.22,160 453.333,160 455.447,160 457.561,160 459.675,160 461.789,159.509 463.902,158.037 466.016,157.055 468.13,160 470.244,160 472.358,160 474.472,156.564 476.585,157.546 478.699,147.239 480.813,160 482.927,160 485.041,160 487.154,155.092 489.268,148.221 491.382,160 493.496,160 495.61,158.037 497.724,160 499.837,158.037 501.951,160 504.065,160 506.179,160 508.293,160 510.407,160 512.52,160 514.634,159.018 516.748,144.294 518.862,159.018 520.976,160 523.089,139.387 525.203,121.718 527.317,120.736 529.431,147.73 531.545,146.258 533.659,157.055 535.772,160 537.886,160 540,160 542.114,160 544.228,160 546.341,160 548.455,160 550.569,160 552.683,157.546 554.797,153.62 556.911,148.712 559.024,160 561.138,149.202 563.252,149.693 565.366,134.969 567.48,146.258 569.593,145.767 571.707,146.258 573.821,150.184 575.935,154.11 578.049,154.601 580.163,154.11 582.276,157.055 584.39,156.564 586.504,159.509 588.618,160 590.732,160 592.846,160 594.959,160 597.073,160 599.187,160 601.301,160 603.415,160 605.528,158.528 607.642,159.509 609.756,160 611.87,160 613.984,159.509 616.098,142.331 618.211,144.785 620.325,157.055 622.439,158.528 624.553,160 626.667,160 628.78,159.509 630.894,160 633.008,160 635.122,159.018 637.236,153.62 639.35,159.018 641.463,160 643.577,160 645.691,149.693 647.805,155.583 649.919,158.528 652.033,156.074 654.146,155.583 656.26,159.509 658.374,159.509 660.488,160 662.602,160 664.715,151.656 666.829,140.859 668.943,155.092 671.057,160 673.171,141.84 675.285,150.184 677.398,152.147 679.512,160 681.626,160 683.74,160 685.854,160 687.967,160 690.081,160 692.195,160 694.309,160 696.423,160 698.537,160 700.65,160 702.764,160 704.878,158.037 706.992,160 709.106,160 711.22,160 713.333,160 715.447,160 717.561,160 719.675,160 721.789,160 723.902,160 726.016,160 728.13,160 730.244,160 732.358,160 734.472,160 736.585,156.564 738.699,154.601 740.813,160 742.927,160 745.041,160 747.154,160 749.268,159.509 751.382,160 753.496,160 755.61,159.509 757.724,159.509 759.837,160 761.951,159.509 764.065,160 766.179,160 768.293,156.074 770.407,159.509 772.52,159.509 774.634,160 776.748,158.037 778.862,160 780.976,160 783.089,160 785.203,160 787.317,160 789.431,160 791.545,160 793.659,155.583 795.772,159.509 797.886,160 800,160" fill="none" stroke="var(--accent)" stroke-width="1.5" stroke-linecap="round" stroke-linejoin="round"/>
</svg>

