<svg xmlns="http://www.w3.org/2000/svg" width="820" height="180" viewBox="0 0 820 180">

<style>
  :root {
    --bg:        #f6f8fa;
    --card:      #ffffff;
    --border:    #d0d7de;
    --primary:   #1f2328;
    --secondary: #636c76;
    --muted:     #8c959f;
    --accent:    #0969da;
    --green:     #1a7f37;
    --yellow:    #9a6700;
    --red:       #cf222e;
    --hover:     #f3f4f6;
    --spark-bg:  #f0f3f6;
    --spark:     #0969da;
    --pill:      #eaf1fb;
    --pill-txt:  #0969da;
    --div:       #d0d7de;
  }
  @media (prefers-color-scheme: dark) {
    :root {
      --bg:        #0d1117;
      --card:      #161b22;
      --border:    #30363d;
      --primary:   #e6edf3;
      --secondary: #848d97;
      --muted:     #7d8590;
      --accent:    #2f81f7;
      --green:     #3fb950;
      --yellow:    #d29922;
      --red:       #f85149;
      --hover:     #21262d;
      --spark-bg:  #1c2128;
      --spark:     #58a6ff;
      --pill:      #1c2d3f;
      --pill-txt:  #58a6ff;
      --div:       #30363d;
    }
  }
  
  .bg          { fill: var(--bg); }
  .card        { fill: var(--card); stroke: var(--border); stroke-width: 1; }
  .lang-pill   { fill: var(--pill); }
  .spark-bg    { fill: var(--spark-bg); }
  .spark-line  { stroke: var(--spark); }
  .divider     { stroke: var(--div); stroke-width: 1; }
  .clr-primary   { fill: var(--primary); }
  .clr-secondary { fill: var(--secondary); }
  .clr-muted     { fill: var(--muted); }
  .clr-accent    { fill: var(--accent); }
  .clr-green     { fill: var(--green); }
  .clr-yellow    { fill: var(--yellow); }
  .clr-red       { fill: var(--red); }
  .txt-bold    { font-weight: 600; }
  svg text     { font-family: -apple-system, BlinkMacSystemFont, "Segoe UI", Helvetica, Arial, sans-serif; }
</style>

<rect x="0" y="0" width="820" height="180" rx="8" class="card"/>
  <text x="20" y="24" class="clr-primary txt-bold" text-anchor="start" font-size="14">Contribution History &amp; Activity</text>
  <line x1="20" y1="36" x2="800" y2="36" class="divider"/>
  <text x="20" y="60" class="clr-muted" text-anchor="start" font-size="12">Years Active:</text>
  <text x="100" y="60" class="clr-primary txt-bold" text-anchor="start" font-size="12">5.6</text>
  <text x="160" y="60" class="clr-muted" text-anchor="start" font-size="12">Commits (Last Year):</text>
  <text x="290" y="60" class="clr-primary txt-bold" text-anchor="start" font-size="12">1072</text>
  <text x="360" y="60" class="clr-muted" text-anchor="start" font-size="12">Highest Daily:</text>
  <text x="450" y="60" class="clr-primary txt-bold" text-anchor="start" font-size="12">163</text>
  <polygon points="20,160 20,160 22.1429,160 24.2857,160 26.4286,160 28.5714,160 30.7143,160 32.8571,153.62 35,160 37.1429,160 39.2857,160 41.4286,154.11 43.5714,157.055 45.7143,160 47.8571,160 50,160 52.1429,160 54.2857,160 56.4286,160 58.5714,159.018 60.7143,160 62.8571,160 65,160 67.1429,160 69.2857,160 71.4286,160 73.5714,160 75.7143,160 77.8571,160 80,160 82.1429,160 84.2857,160 86.4286,160 88.5714,160 90.7143,160 92.8571,160 95,160 97.1429,160 99.2857,160 101.429,160 103.571,160 105.714,160 107.857,160 110,160 112.143,160 114.286,160 116.429,160 118.571,160 120.714,160 122.857,160 125,160 127.143,160 129.286,160 131.429,160 133.571,159.509 135.714,160 137.857,160 140,160 142.143,160 144.286,160 146.429,160 148.571,160 150.714,160 152.857,160 155,160 157.143,160 159.286,160 161.429,160 163.571,160 165.714,160 167.857,160 170,160 172.143,160 174.286,160 176.429,160 178.571,160 180.714,160 182.857,160 185,160 187.143,160 189.286,159.018 191.429,160 193.571,160 195.714,160 197.857,145.276 200,155.583 202.143,157.546 204.286,155.583 206.429,157.055 208.571,156.074 210.714,160 212.857,160 215,160 217.143,158.037 219.286,159.018 221.429,158.037 223.571,156.564 225.714,160 227.857,158.528 230,156.564 232.143,160 234.286,154.11 236.429,149.202 238.571,149.202 240.714,153.62 242.857,141.84 245,154.601 247.143,160 249.286,154.601 251.429,160 253.571,160 255.714,157.546 257.857,148.221 260,159.018 262.143,160 264.286,158.037 266.429,160 268.571,159.509 270.714,160 272.857,160 275,160 277.143,160 279.286,151.656 281.429,155.583 283.571,156.074 285.714,157.546 287.857,150.675 290,160 292.143,158.037 294.286,156.564 296.429,158.037 298.571,156.074 300.714,160 302.857,154.11 305,160 307.143,159.509 309.286,160 311.429,160 313.571,157.546 315.714,160 317.857,160 320,160 322.143,160 324.286,160 326.429,160 328.571,160 330.714,160 332.857,160 335,160 337.143,160 339.286,160 341.429,160 343.571,160 345.714,160 347.857,160 350,154.601 352.143,158.037 354.286,160 356.429,160 358.571,160 360.714,160 362.857,160 365,160 367.143,160 369.286,160 371.429,160 373.571,160 375.714,160 377.857,160 380,160 382.143,160 384.286,160 386.429,160 388.571,160 390.714,160 392.857,160 395,160 397.143,160 399.286,157.055 401.429,160 403.571,160 405.714,160 407.857,160 410,155.092 412.143,160 414.286,160 416.429,160 418.571,160 420.714,137.423 422.857,153.62 425,80 427.143,155.092 429.286,149.202 431.429,155.092 433.571,158.037 435.714,158.528 437.857,159.509 440,156.074 442.143,160 444.286,159.018 446.429,160 448.571,159.509 450.714,159.018 452.857,159.509 455,160 457.143,158.528 459.286,160 461.429,159.018 463.571,159.018 465.714,157.546 467.857,157.055 470,160 472.143,160 474.286,159.509 476.429,159.509 478.571,158.528 480.714,159.509 482.857,157.055 485,157.055 487.143,159.018 489.286,158.528 491.429,147.239 493.571,157.055 495.714,129.08 497.857,147.239 500,153.129 502.143,160 504.286,160 506.429,160 508.571,151.656 510.714,158.528 512.857,160 515,160 517.143,138.405 519.286,158.528 521.429,160 523.571,160 525.714,160 527.857,160 530,160 532.143,160 534.286,160 536.429,160 538.571,160 540.714,160 542.857,160 545,160 547.143,160 549.286,160 551.429,160 553.571,159.509 555.714,160 557.857,160 560,160 562.143,160 564.286,160 566.429,160 568.571,160 570.714,160 572.857,160 575,159.509 577.143,158.037 579.286,160 581.429,160 583.571,160 585.714,160 587.857,160 590,160 592.143,160 594.286,160 596.429,160 598.571,160 600.714,160 602.857,159.509 605,158.037 607.143,157.055 609.286,160 611.429,160 613.571,160 615.714,156.564 617.857,157.546 620,147.239 622.143,160 624.286,160 626.429,160 628.571,155.092 630.714,148.221 632.857,160 635,160 637.143,158.037 639.286,160 641.429,158.037 643.571,160 645.714,160 647.857,160 650,160 652.143,160 654.286,160 656.429,159.018 658.571,144.294 660.714,159.018 662.857,160 665,139.387 667.143,121.718 669.286,120.736 671.429,147.73 673.571,146.258 675.714,157.055 677.857,160 680,160 682.143,160 684.286,160 686.429,160 688.571,160 690.714,160 692.857,160 695,157.546 697.143,153.62 699.286,148.712 701.429,160 703.571,149.202 705.714,149.693 707.857,134.969 710,146.258 712.143,145.767 714.286,146.258 716.429,150.184 718.571,154.11 720.714,154.601 722.857,154.11 725,157.055 727.143,156.564 729.286,159.509 731.429,160 733.571,160 735.714,160 737.857,160 740,160 742.143,160 744.286,160 746.429,160 748.571,158.528 750.714,159.509 752.857,160 755,160 757.143,159.509 759.286,142.331 761.429,144.785 763.571,157.055 765.714,158.528 767.857,160 770,160 772.143,159.509 774.286,160 776.429,160 778.571,159.018 780.714,153.62 782.857,159.018 785,160 787.143,160 789.286,149.693 791.429,155.583 793.571,158.528 795.714,156.074 797.857,155.583 800,160 800,160" fill="var(--pill)" opacity="0.6"/>
  <polyline points="20,160 22.1429,160 24.2857,160 26.4286,160 28.5714,160 30.7143,160 32.8571,153.62 35,160 37.1429,160 39.2857,160 41.4286,154.11 43.5714,157.055 45.7143,160 47.8571,160 50,160 52.1429,160 54.2857,160 56.4286,160 58.5714,159.018 60.7143,160 62.8571,160 65,160 67.1429,160 69.2857,160 71.4286,160 73.5714,160 75.7143,160 77.8571,160 80,160 82.1429,160 84.2857,160 86.4286,160 88.5714,160 90.7143,160 92.8571,160 95,160 97.1429,160 99.2857,160 101.429,160 103.571,160 105.714,160 107.857,160 110,160 112.143,160 114.286,160 116.429,160 118.571,160 120.714,160 122.857,160 125,160 127.143,160 129.286,160 131.429,160 133.571,159.509 135.714,160 137.857,160 140,160 142.143,160 144.286,160 146.429,160 148.571,160 150.714,160 152.857,160 155,160 157.143,160 159.286,160 161.429,160 163.571,160 165.714,160 167.857,160 170,160 172.143,160 174.286,160 176.429,160 178.571,160 180.714,160 182.857,160 185,160 187.143,160 189.286,159.018 191.429,160 193.571,160 195.714,160 197.857,145.276 200,155.583 202.143,157.546 204.286,155.583 206.429,157.055 208.571,156.074 210.714,160 212.857,160 215,160 217.143,158.037 219.286,159.018 221.429,158.037 223.571,156.564 225.714,160 227.857,158.528 230,156.564 232.143,160 234.286,154.11 236.429,149.202 238.571,149.202 240.714,153.62 242.857,141.84 245,154.601 247.143,160 249.286,154.601 251.429,160 253.571,160 255.714,157.546 257.857,148.221 260,159.018 262.143,160 264.286,158.037 266.429,160 268.571,159.509 270.714,160 272.857,160 275,160 277.143,160 279.286,151.656 281.429,155.583 283.571,156.074 285.714,157.546 287.857,150.675 290,160 292.143,158.037 294.286,156.564 296.429,158.037 298.571,156.074 300.714,160 302.857,154.11 305,160 307.143,159.509 309.286,160 311.429,160 313.571,157.546 315.714,160 317.857,160 320,160 322.143,160 324.286,160 326.429,160 328.571,160 330.714,160 332.857,160 335,160 337.143,160 339.286,160 341.429,160 343.571,160 345.714,160 347.857,160 350,154.601 352.143,158.037 354.286,160 356.429,160 358.571,160 360.714,160 362.857,160 365,160 367.143,160 369.286,160 371.429,160 373.571,160 375.714,160 377.857,160 380,160 382.143,160 384.286,160 386.429,160 388.571,160 390.714,160 392.857,160 395,160 397.143,160 399.286,157.055 401.429,160 403.571,160 405.714,160 407.857,160 410,155.092 412.143,160 414.286,160 416.429,160 418.571,160 420.714,137.423 422.857,153.62 425,80 427.143,155.092 429.286,149.202 431.429,155.092 433.571,158.037 435.714,158.528 437.857,159.509 440,156.074 442.143,160 444.286,159.018 446.429,160 448.571,159.509 450.714,159.018 452.857,159.509 455,160 457.143,158.528 459.286,160 461.429,159.018 463.571,159.018 465.714,157.546 467.857,157.055 470,160 472.143,160 474.286,159.509 476.429,159.509 478.571,158.528 480.714,159.509 482.857,157.055 485,157.055 487.143,159.018 489.286,158.528 491.429,147.239 493.571,157.055 495.714,129.08 497.857,147.239 500,153.129 502.143,160 504.286,160 506.429,160 508.571,151.656 510.714,158.528 512.857,160 515,160 517.143,138.405 519.286,158.528 521.429,160 523.571,160 525.714,160 527.857,160 530,160 532.143,160 534.286,160 536.429,160 538.571,160 540.714,160 542.857,160 545,160 547.143,160 549.286,160 551.429,160 553.571,159.509 555.714,160 557.857,160 560,160 562.143,160 564.286,160 566.429,160 568.571,160 570.714,160 572.857,160 575,159.509 577.143,158.037 579.286,160 581.429,160 583.571,160 585.714,160 587.857,160 590,160 592.143,160 594.286,160 596.429,160 598.571,160 600.714,160 602.857,159.509 605,158.037 607.143,157.055 609.286,160 611.429,160 613.571,160 615.714,156.564 617.857,157.546 620,147.239 622.143,160 624.286,160 626.429,160 628.571,155.092 630.714,148.221 632.857,160 635,160 637.143,158.037 639.286,160 641.429,158.037 643.571,160 645.714,160 647.857,160 650,160 652.143,160 654.286,160 656.429,159.018 658.571,144.294 660.714,159.018 662.857,160 665,139.387 667.143,121.718 669.286,120.736 671.429,147.73 673.571,146.258 675.714,157.055 677.857,160 680,160 682.143,160 684.286,160 686.429,160 688.571,160 690.714,160 692.857,160 695,157.546 697.143,153.62 699.286,148.712 701.429,160 703.571,149.202 705.714,149.693 707.857,134.969 710,146.258 712.143,145.767 714.286,146.258 716.429,150.184 718.571,154.11 720.714,154.601 722.857,154.11 725,157.055 727.143,156.564 729.286,159.509 731.429,160 733.571,160 735.714,160 737.857,160 740,160 742.143,160 744.286,160 746.429,160 748.571,158.528 750.714,159.509 752.857,160 755,160 757.143,159.509 759.286,142.331 761.429,144.785 763.571,157.055 765.714,158.528 767.857,160 770,160 772.143,159.509 774.286,160 776.429,160 778.571,159.018 780.714,153.62 782.857,159.018 785,160 787.143,160 789.286,149.693 791.429,155.583 793.571,158.528 795.714,156.074 797.857,155.583 800,160" fill="none" stroke="var(--accent)" stroke-width="1.5" stroke-linecap="round" stroke-linejoin="round"/>
</svg>

