<svg xmlns="http://www.w3.org/2000/svg" width="820" height="180" viewBox="0 0 820 180">

<style>
  :root {
    --bg:        #f6f8fa;
    --card:      #ffffff;
    --border:    #d0d7de;
    --primary:   #1f2328;
    --secondary: #636c76;
    --muted:     #8c959f;
    --accent:    #0969da;
    --green:     #1a7f37;
    --yellow:    #9a6700;
    --red:       #cf222e;
    --hover:     #f3f4f6;
    --spark-bg:  #f0f3f6;
    --spark:     #0969da;
    --pill:      #eaf1fb;
    --pill-txt:  #0969da;
    --div:       #d0d7de;
  }
  @media (prefers-color-scheme: dark) {
    :root {
      --bg:        #0d1117;
      --card:      #161b22;
      --border:    #30363d;
      --primary:   #e6edf3;
      --secondary: #848d97;
      --muted:     #7d8590;
      --accent:    #2f81f7;
      --green:     #3fb950;
      --yellow:    #d29922;
      --red:       #f85149;
      --hover:     #21262d;
      --spark-bg:  #1c2128;
      --spark:     #58a6ff;
      --pill:      #1c2d3f;
      --pill-txt:  #58a6ff;
      --div:       #30363d;
    }
  }
  
  .bg          { fill: var(--bg); }
  .card        { fill: var(--card); stroke: var(--border); stroke-width: 1; }
  .lang-pill   { fill: var(--pill); }
  .spark-bg    { fill: var(--spark-bg); }
  .spark-line  { stroke: var(--spark); }
  .divider     { stroke: var(--div); stroke-width: 1; }
  .clr-primary   { fill: var(--primary); }
  .clr-secondary { fill: var(--secondary); }
  .clr-muted     { fill: var(--muted); }
  .clr-accent    { fill: var(--accent); }
  .clr-green     { fill: var(--green); }
  .clr-yellow    { fill: var(--yellow); }
  .clr-red       { fill: var(--red); }
  .txt-bold    { font-weight: 600; }
  svg text     { font-family: -apple-system, BlinkMacSystemFont, "Segoe UI", Helvetica, Arial, sans-serif; }
</style>

<rect x="0" y="0" width="820" height="180" rx="8" class="card"/>
  <text x="20" y="24" class="clr-primary txt-bold" text-anchor="start" font-size="14">Contribution History &amp; Activity</text>
  <line x1="20" y1="36" x2="800" y2="36" class="divider"/>
  <text x="20" y="60" class="clr-muted" text-anchor="start" font-size="12">Years Active:</text>
  <text x="100" y="60" class="clr-primary txt-bold" text-anchor="start" font-size="12">5.6</text>
  <text x="160" y="60" class="clr-muted" text-anchor="start" font-size="12">Commits (Last Year):</text>
  <text x="290" y="60" class="clr-primary txt-bold" text-anchor="start" font-size="12">1060</text>
  <text x="360" y="60" class="clr-muted" text-anchor="start" font-size="12">Highest Daily:</text>
  <text x="450" y="60" class="clr-primary txt-bold" text-anchor="start" font-size="12">163</text>
  <polygon points="20,160 20,160 22.1081,157.055 24.2162,158.037 26.3243,160 28.4324,160 30.5405,160 32.6486,160 34.7568,160 36.8649,160 38.973,160 41.0811,160 43.1892,160 45.2973,160 47.4054,153.62 49.5135,160 51.6216,160 53.7297,160 55.8378,154.11 57.9459,157.055 60.0541,160 62.1622,160 64.2703,160 66.3784,160 68.4865,160 70.5946,160 72.7027,159.018 74.8108,160 76.9189,160 79.027,160 81.1351,160 83.2432,160 85.3514,160 87.4595,160 89.5676,160 91.6757,160 93.7838,160 95.8919,160 98,160 100.108,160 102.216,160 104.324,160 106.432,160 108.541,160 110.649,160 112.757,160 114.865,160 116.973,160 119.081,160 121.189,160 123.297,160 125.405,160 127.514,160 129.622,160 131.73,160 133.838,160 135.946,160 138.054,160 140.162,160 142.27,160 144.378,160 146.486,159.509 148.595,160 150.703,160 152.811,160 154.919,160 157.027,160 159.135,160 161.243,160 163.351,160 165.459,160 167.568,160 169.676,160 171.784,160 173.892,160 176,160 178.108,160 180.216,160 182.324,160 184.432,160 186.541,160 188.649,160 190.757,160 192.865,160 194.973,160 197.081,160 199.189,160 201.297,159.018 203.405,160 205.514,160 207.622,160 209.73,145.276 211.838,155.583 213.946,157.546 216.054,155.583 218.162,157.055 220.27,156.074 222.378,160 224.486,160 226.595,160 228.703,158.037 230.811,159.018 232.919,158.037 235.027,156.564 237.135,160 239.243,158.528 241.351,156.564 243.459,160 245.568,154.11 247.676,149.202 249.784,149.202 251.892,153.62 254,141.84 256.108,154.601 258.216,160 260.324,154.601 262.432,160 264.541,160 266.649,157.546 268.757,148.221 270.865,159.018 272.973,160 275.081,158.037 277.189,160 279.297,159.509 281.405,160 283.514,160 285.622,160 287.73,160 289.838,151.656 291.946,155.583 294.054,156.074 296.162,157.546 298.27,150.675 300.378,160 302.486,158.037 304.595,156.564 306.703,158.037 308.811,156.074 310.919,160 313.027,154.11 315.135,160 317.243,159.509 319.351,160 321.459,160 323.568,157.546 325.676,160 327.784,160 329.892,160 332,160 334.108,160 336.216,160 338.324,160 340.432,160 342.541,160 344.649,160 346.757,160 348.865,160 350.973,160 353.081,160 355.189,160 357.297,160 359.405,154.601 361.514,158.037 363.622,160 365.73,160 367.838,160 369.946,160 372.054,160 374.162,160 376.27,160 378.378,160 380.486,160 382.595,160 384.703,160 386.811,160 388.919,160 391.027,160 393.135,160 395.243,160 397.351,160 399.459,160 401.568,160 403.676,160 405.784,160 407.892,157.055 410,160 412.108,160 414.216,160 416.324,160 418.432,155.092 420.541,160 422.649,160 424.757,160 426.865,160 428.973,137.423 431.081,153.62 433.189,80 435.297,155.092 437.405,149.202 439.514,155.092 441.622,158.037 443.73,158.528 445.838,159.509 447.946,156.074 450.054,160 452.162,159.018 454.27,160 456.378,159.509 458.486,159.018 460.595,159.509 462.703,160 464.811,158.528 466.919,160 469.027,159.018 471.135,159.018 473.243,157.546 475.351,157.055 477.459,160 479.568,160 481.676,159.509 483.784,159.509 485.892,158.528 488,159.509 490.108,157.055 492.216,157.055 494.324,159.018 496.432,158.528 498.541,147.239 500.649,157.055 502.757,129.08 504.865,147.239 506.973,153.129 509.081,160 511.189,160 513.297,160 515.405,151.656 517.514,158.528 519.622,160 521.73,160 523.838,138.405 525.946,158.528 528.054,160 530.162,160 532.27,160 534.378,160 536.486,160 538.595,160 540.703,160 542.811,160 544.919,160 547.027,160 549.135,160 551.243,160 553.351,160 555.459,160 557.568,160 559.676,159.509 561.784,160 563.892,160 566,160 568.108,160 570.216,160 572.324,160 574.432,160 576.541,160 578.649,160 580.757,159.509 582.865,158.037 584.973,160 587.081,160 589.189,160 591.297,160 593.405,160 595.514,160 597.622,160 599.73,160 601.838,160 603.946,160 606.054,160 608.162,159.509 610.27,158.037 612.378,157.055 614.486,160 616.595,160 618.703,160 620.811,156.564 622.919,157.546 625.027,147.239 627.135,160 629.243,160 631.351,160 633.459,155.092 635.568,148.221 637.676,160 639.784,160 641.892,158.037 644,160 646.108,158.037 648.216,160 650.324,160 652.432,160 654.541,160 656.649,160 658.757,160 660.865,159.018 662.973,144.294 665.081,159.018 667.189,160 669.297,139.387 671.405,121.718 673.514,120.736 675.622,147.73 677.73,146.258 679.838,157.055 681.946,160 684.054,160 686.162,160 688.27,160 690.378,160 692.486,160 694.595,160 696.703,160 698.811,157.546 700.919,153.62 703.027,148.712 705.135,160 707.243,149.202 709.351,149.693 711.459,134.969 713.568,146.258 715.676,145.767 717.784,146.258 719.892,150.184 722,154.11 724.108,154.601 726.216,154.11 728.324,157.055 730.432,156.564 732.541,159.509 734.649,160 736.757,160 738.865,160 740.973,160 743.081,160 745.189,160 747.297,160 749.405,160 751.514,158.528 753.622,159.509 755.73,160 757.838,160 759.946,159.509 762.054,142.331 764.162,144.785 766.27,157.055 768.378,158.528 770.486,160 772.595,160 774.703,159.509 776.811,160 778.919,160 781.027,159.018 783.135,153.62 785.243,159.018 787.351,160 789.459,160 791.568,149.693 793.676,155.583 795.784,159.509 797.892,156.564 800,160 800,160" fill="var(--pill)" opacity="0.6"/>
  <polyline points="20,160 22.1081,157.055 24.2162,158.037 26.3243,160 28.4324,160 30.5405,160 32.6486,160 34.7568,160 36.8649,160 38.973,160 41.0811,160 43.1892,160 45.2973,160 47.4054,153.62 49.5135,160 51.6216,160 53.7297,160 55.8378,154.11 57.9459,157.055 60.0541,160 62.1622,160 64.2703,160 66.3784,160 68.4865,160 70.5946,160 72.7027,159.018 74.8108,160 76.9189,160 79.027,160 81.1351,160 83.2432,160 85.3514,160 87.4595,160 89.5676,160 91.6757,160 93.7838,160 95.8919,160 98,160 100.108,160 102.216,160 104.324,160 106.432,160 108.541,160 110.649,160 112.757,160 114.865,160 116.973,160 119.081,160 121.189,160 123.297,160 125.405,160 127.514,160 129.622,160 131.73,160 133.838,160 135.946,160 138.054,160 140.162,160 142.27,160 144.378,160 146.486,159.509 148.595,160 150.703,160 152.811,160 154.919,160 157.027,160 159.135,160 161.243,160 163.351,160 165.459,160 167.568,160 169.676,160 171.784,160 173.892,160 176,160 178.108,160 180.216,160 182.324,160 184.432,160 186.541,160 188.649,160 190.757,160 192.865,160 194.973,160 197.081,160 199.189,160 201.297,159.018 203.405,160 205.514,160 207.622,160 209.73,145.276 211.838,155.583 213.946,157.546 216.054,155.583 218.162,157.055 220.27,156.074 222.378,160 224.486,160 226.595,160 228.703,158.037 230.811,159.018 232.919,158.037 235.027,156.564 237.135,160 239.243,158.528 241.351,156.564 243.459,160 245.568,154.11 247.676,149.202 249.784,149.202 251.892,153.62 254,141.84 256.108,154.601 258.216,160 260.324,154.601 262.432,160 264.541,160 266.649,157.546 268.757,148.221 270.865,159.018 272.973,160 275.081,158.037 277.189,160 279.297,159.509 281.405,160 283.514,160 285.622,160 287.73,160 289.838,151.656 291.946,155.583 294.054,156.074 296.162,157.546 298.27,150.675 300.378,160 302.486,158.037 304.595,156.564 306.703,158.037 308.811,156.074 310.919,160 313.027,154.11 315.135,160 317.243,159.509 319.351,160 321.459,160 323.568,157.546 325.676,160 327.784,160 329.892,160 332,160 334.108,160 336.216,160 338.324,160 340.432,160 342.541,160 344.649,160 346.757,160 348.865,160 350.973,160 353.081,160 355.189,160 357.297,160 359.405,154.601 361.514,158.037 363.622,160 365.73,160 367.838,160 369.946,160 372.054,160 374.162,160 376.27,160 378.378,160 380.486,160 382.595,160 384.703,160 386.811,160 388.919,160 391.027,160 393.135,160 395.243,160 397.351,160 399.459,160 401.568,160 403.676,160 405.784,160 407.892,157.055 410,160 412.108,160 414.216,160 416.324,160 418.432,155.092 420.541,160 422.649,160 424.757,160 426.865,160 428.973,137.423 431.081,153.62 433.189,80 435.297,155.092 437.405,149.202 439.514,155.092 441.622,158.037 443.73,158.528 445.838,159.509 447.946,156.074 450.054,160 452.162,159.018 454.27,160 456.378,159.509 458.486,159.018 460.595,159.509 462.703,160 464.811,158.528 466.919,160 469.027,159.018 471.135,159.018 473.243,157.546 475.351,157.055 477.459,160 479.568,160 481.676,159.509 483.784,159.509 485.892,158.528 488,159.509 490.108,157.055 492.216,157.055 494.324,159.018 496.432,158.528 498.541,147.239 500.649,157.055 502.757,129.08 504.865,147.239 506.973,153.129 509.081,160 511.189,160 513.297,160 515.405,151.656 517.514,158.528 519.622,160 521.73,160 523.838,138.405 525.946,158.528 528.054,160 530.162,160 532.27,160 534.378,160 536.486,160 538.595,160 540.703,160 542.811,160 544.919,160 547.027,160 549.135,160 551.243,160 553.351,160 555.459,160 557.568,160 559.676,159.509 561.784,160 563.892,160 566,160 568.108,160 570.216,160 572.324,160 574.432,160 576.541,160 578.649,160 580.757,159.509 582.865,158.037 584.973,160 587.081,160 589.189,160 591.297,160 593.405,160 595.514,160 597.622,160 599.73,160 601.838,160 603.946,160 606.054,160 608.162,159.509 610.27,158.037 612.378,157.055 614.486,160 616.595,160 618.703,160 620.811,156.564 622.919,157.546 625.027,147.239 627.135,160 629.243,160 631.351,160 633.459,155.092 635.568,148.221 637.676,160 639.784,160 641.892,158.037 644,160 646.108,158.037 648.216,160 650.324,160 652.432,160 654.541,160 656.649,160 658.757,160 660.865,159.018 662.973,144.294 665.081,159.018 667.189,160 669.297,139.387 671.405,121.718 673.514,120.736 675.622,147.73 677.73,146.258 679.838,157.055 681.946,160 684.054,160 686.162,160 688.27,160 690.378,160 692.486,160 694.595,160 696.703,160 698.811,157.546 700.919,153.62 703.027,148.712 705.135,160 707.243,149.202 709.351,149.693 711.459,134.969 713.568,146.258 715.676,145.767 717.784,146.258 719.892,150.184 722,154.11 724.108,154.601 726.216,154.11 728.324,157.055 730.432,156.564 732.541,159.509 734.649,160 736.757,160 738.865,160 740.973,160 743.081,160 745.189,160 747.297,160 749.405,160 751.514,158.528 753.622,159.509 755.73,160 757.838,160 759.946,159.509 762.054,142.331 764.162,144.785 766.27,157.055 768.378,158.528 770.486,160 772.595,160 774.703,159.509 776.811,160 778.919,160 781.027,159.018 783.135,153.62 785.243,159.018 787.351,160 789.459,160 791.568,149.693 793.676,155.583 795.784,159.509 797.892,156.564 800,160" fill="none" stroke="var(--accent)" stroke-width="1.5" stroke-linecap="round" stroke-linejoin="round"/>
</svg>

